<svg width="93" height="83" viewBox="0 0 93 83" fill="none" xmlns="http://www.w3.org/2000/svg">
<rect x="16.2614" y="17.0429" width="67.5405" height="39.0812" transform="rotate(8.43854 16.2614 17.0429)" fill="#59AFFF" stroke="#2B2B2B" stroke-width="0.5"/>
<rect x="17.777" y="19.0863" width="63.9422" height="35.4829" transform="rotate(8.43854 17.777 19.0863)" fill="#59AFFF" stroke="#2B2B2B" stroke-width="0.5"/>
<rect x="19.6169" y="21.1785" width="59.6896" height="31.8847" transform="rotate(8.43854 19.6169 21.1785)" fill="#59AFFF" stroke="#2B2B2B" stroke-width="0.5"/>
<path d="M26.1118 39.6353L24.6756 39.4222L23.678 46.1466L21.2189 45.7818L23.6209 29.591L27.5162 30.1689C28.4012 30.3002 29.0083 30.6052 29.3376 31.0841C29.6836 31.5506 29.7855 32.2626 29.6435 33.2201L29.0753 37.0502C28.7826 39.0232 27.7948 39.8849 26.1118 39.6353ZM25.7539 32.1538L25.021 37.0937L25.6521 37.1873C26.0003 37.239 26.2391 37.178 26.3687 37.0045C26.5149 36.8186 26.617 36.5298 26.6751 36.1381L27.069 33.4831C27.1228 33.1204 27.1057 32.8362 27.0176 32.6304C26.9295 32.4245 26.7186 32.2969 26.385 32.2474L25.7539 32.1538ZM32.5787 47.4671L32.7043 44.372L30.898 44.104L30.1414 47.1055L27.9434 46.7794L32.3258 30.8824L35.2418 31.315L34.9508 47.819L32.5787 47.4671ZM33.0365 35.8363L31.5175 41.7272L32.8015 41.9177L33.0365 35.8363ZM43.2126 32.4975L39.6538 41.6443L38.6562 48.3687L36.1971 48.0039L37.198 41.2577L36.3794 31.4838L38.7732 31.8389L39.0073 38.0566L40.9929 32.1682L43.2126 32.4975ZM41.2168 48.7486L43.6188 32.5578L46.7742 33.0259L46.6806 41.7526L49.1463 33.3778L52.0841 33.8136L49.6822 50.0044L47.3754 49.6622L48.9283 39.1948L45.8956 49.4427L44.9163 49.2974L44.9676 38.6072L43.4147 49.0746L41.2168 48.7486ZM53.0758 33.9608L58.6686 34.7905L58.3199 37.1408L55.1862 36.6759L54.5567 40.9194L57.0158 41.2842L56.651 43.7433L54.1919 43.3785L53.4977 48.0573L56.762 48.5416L56.3972 51.0007L50.6738 50.1516L53.0758 33.9608ZM59.5151 34.9161L61.7348 35.2454L62.5576 44.2415L63.8457 35.5585L66.0872 35.8911L63.6852 52.0819L61.6831 51.7848L60.7146 42.1221L59.3328 51.4362L57.1131 51.1069L59.5151 34.9161ZM66.7761 35.9933L73.3482 36.9683L72.9995 39.3185L70.9321 39.0118L68.8788 52.8524L66.4415 52.4908L68.4948 38.6502L66.4274 38.3435L66.7761 35.9933Z" fill="#2B2B2B"/>
</svg>
