<svg width="193" height="116" viewBox="0 0 193 116" fill="none" xmlns="http://www.w3.org/2000/svg">
<rect x="3.1571" y="45.2499" width="176.897" height="64.0308" transform="rotate(-12 3.1571 45.2499)" fill="#FFC300" stroke="#2B2B2B" stroke-width="0.594256"/>
<rect x="8.17663" y="46.9747" width="167.795" height="58.5695" transform="rotate(-12 8.17663 46.9747)" fill="#FFC300" stroke="#2B2B2B" stroke-width="0.594256"/>
<rect x="14.0868" y="48.5102" width="156.872" height="53.1082" transform="rotate(-12 14.0868 48.5102)" fill="#FFC300" stroke="#2B2B2B" stroke-width="0.594256"/>
<path d="M35.0809 80.9971L33.6422 74.2283L37.9852 73.3052L39.4156 80.0349C40.3082 84.2344 38.9939 86.7084 35.4725 87.4569L34.4944 87.6648C30.8687 88.4354 28.6207 86.7732 27.7502 82.678L23.9745 64.9148C23.6197 63.2455 23.7432 61.7743 24.345 60.5014C24.9413 59.2023 26.1654 58.356 28.0174 57.9624L29.0347 57.7461C30.1823 57.5022 31.1705 57.4694 31.999 57.6477C32.8536 57.8204 33.5197 58.1968 33.9974 58.7768C34.4751 59.3569 34.8326 59.9488 35.07 60.5526C35.328 61.1248 35.5457 61.8283 35.7231 62.663L36.8292 67.8667L32.4862 68.7898L31.3967 63.6644C31.1251 62.3862 30.4936 61.8525 29.5024 62.0632C28.9808 62.1741 28.6489 62.4082 28.5067 62.7656C28.3851 63.0913 28.3964 63.5933 28.5405 64.2715L32.2164 81.5651C32.4992 82.8954 33.1101 83.4607 34.0491 83.2611C35.0142 83.056 35.3582 82.3013 35.0809 80.9971ZM49.3829 60.3729L52.8343 76.6101C53.8045 81.1748 52.4116 83.8564 48.6555 84.6547L47.9121 84.8128C44.1039 85.6222 41.7146 83.7446 40.7444 79.1799L37.3014 62.9818C36.3533 58.5214 37.7703 55.8893 41.5525 55.0854L42.2959 54.9274C44.3304 54.4949 45.9001 54.761 47.0048 55.7258C48.1356 56.685 48.9283 58.234 49.3829 60.3729ZM48.4013 77.8795L44.8419 61.1336C44.5259 59.6469 43.8592 59.0116 42.8419 59.2278C41.7986 59.4496 41.4349 60.3039 41.7509 61.7907L45.3104 78.5365C45.6264 80.0233 46.3191 80.6531 47.3886 80.4257C48.3798 80.2151 48.7174 79.3663 48.4013 77.8795ZM55.8829 82.7505L49.6954 53.6408L55.3687 52.4349L60.7498 67.3623L59.6334 51.5284L64.9154 50.4057L71.1028 79.5154L66.9555 80.3969L62.9553 61.5774L64.2949 80.9624L62.5343 81.3367L55.8344 63.091L59.8346 81.9105L55.8829 82.7505ZM72.8858 79.1364L66.6984 50.0267L76.7537 47.8894L77.6519 52.115L72.0178 53.3126L73.6478 60.9812L78.1082 60.0332L79.0479 64.4544L74.5876 65.4025L77.307 78.1966L72.8858 79.1364ZM91.3745 51.4473L94.8259 67.6846C95.7961 72.2492 94.4032 74.9308 90.6471 75.7292L89.9037 75.8872C86.0955 76.6966 83.7062 74.819 82.7359 70.2543L79.2929 54.0562C78.3449 49.5959 79.7619 46.9637 83.5441 46.1598L84.2875 46.0018C86.322 45.5693 87.8916 45.8355 88.9964 46.8002C90.1272 47.7594 90.9199 49.3084 91.3745 51.4473ZM90.3929 68.954L86.8335 52.2081C86.5174 50.7213 85.8508 50.086 84.8335 50.3022C83.7901 50.524 83.4265 51.3783 83.7425 52.8651L87.302 69.611C87.618 71.0977 88.3107 71.7275 89.3802 71.5002C90.3713 71.2895 90.7089 70.4407 90.3929 68.954ZM96.9482 47.7272L98.653 55.748L99.8268 55.4985C100.896 55.2712 101.284 54.4663 100.99 53.0838L100.125 49.0148C99.9811 48.3366 99.7742 47.8762 99.5046 47.6336C99.2349 47.3911 98.774 47.3391 98.1219 47.4777L96.9482 47.7272ZM99.5346 59.8953L102.296 72.8851L97.8744 73.8249L91.687 44.7152L98.847 43.1933C100.36 42.8717 101.543 42.9882 102.397 43.5428C103.272 44.0658 103.881 45.1358 104.225 46.753L105.322 51.9176C105.738 53.8739 105.363 55.2488 104.195 56.0421C105.595 56.3443 106.459 57.2649 106.786 58.8038L108.957 69.0157C109.129 69.8243 109.425 70.5111 109.845 71.0761L109.886 71.2717L105.504 72.2032C105.117 71.7947 104.805 71.0296 104.566 69.908L102.703 61.1438C102.559 60.4656 102.355 60.0183 102.091 59.8018C101.821 59.5592 101.347 59.51 100.669 59.6542L99.5346 59.8953ZM104.398 42.0135L116.214 39.5019L117.112 43.7275L113.395 44.5176L118.684 69.4016L114.302 70.3331L109.013 45.449L105.296 46.2391L104.398 42.0135ZM131.06 66.771L129.309 61.4182L126.062 62.1084L126.678 67.7025L122.726 68.5424L120.099 38.676L125.342 37.5616L135.325 65.8645L131.06 66.771ZM124.456 46.6649L125.608 57.6657L127.916 57.175L124.456 46.6649ZM136.198 65.679L130.01 36.5693L136.975 35.089C138.696 34.7231 139.982 34.8723 140.832 35.5368C141.708 36.1957 142.31 37.2946 142.637 38.8336L143.585 43.2939C144.04 45.4328 143.595 46.9314 142.251 47.7896C144.085 48.0813 145.235 49.3227 145.7 51.5137L147.039 57.813C147.389 59.4563 147.275 60.8437 146.697 61.9751C146.14 63.0749 145.066 63.7939 143.475 64.1321L136.198 65.679ZM139.13 51.1928L137.8 51.4755L139.746 60.631L141.076 60.3482C141.754 60.2041 142.178 59.9506 142.346 59.5877C142.514 59.2247 142.526 58.7042 142.382 58.026L141.251 52.7049C141.112 52.0528 140.895 51.6082 140.599 51.3712C140.298 51.1081 139.808 51.0486 139.13 51.1928ZM136.602 39.2985L135.272 39.5813L136.877 47.1326L138.207 46.8498C139.224 46.6336 139.589 45.8473 139.3 44.4909L138.519 40.8131C138.38 40.161 138.163 39.7164 137.867 39.4794C137.598 39.2368 137.176 39.1765 136.602 39.2985ZM143.498 33.7024L147.919 32.7626L153.151 57.3728L158.55 56.2252L159.506 60.7246L149.686 62.8121L143.498 33.7024ZM154.617 31.339L164.672 29.2017L165.571 33.4273L159.936 34.6249L161.558 42.2544L165.979 41.3147L166.919 45.7359L162.498 46.6756L164.286 55.0877L170.155 53.8402L171.095 58.2615L160.804 60.4487L154.617 31.339Z" fill="white"/>
</svg>
