<svg width="180" height="175" viewBox="0 0 180 175" fill="none" xmlns="http://www.w3.org/2000/svg">
<rect x="47.2118" y="26.5233" width="128.617" height="74.3181" transform="rotate(25.035 47.2118 26.5233)" fill="#59AFFF" stroke="#2B2B2B" stroke-width="1.20069"/>
<rect x="48.8719" y="31.086" width="121.751" height="67.4528" transform="rotate(25.035 48.8719 31.086)" fill="#59AFFF" stroke="#2B2B2B" stroke-width="1.20069"/>
<rect x="51.0907" y="35.9124" width="113.638" height="60.5874" transform="rotate(25.035 51.0907 35.9124)" fill="#59AFFF" stroke="#2B2B2B" stroke-width="1.20069"/>
<path d="M55.3501 75.7073L52.9581 74.5902L47.7277 85.7889L43.6324 83.8762L56.226 56.9122L62.7133 59.9421C64.1871 60.6305 65.0866 61.4773 65.4117 62.4827C65.7723 63.4752 65.5801 64.7687 64.8354 66.3634L61.8562 72.742C60.3215 76.0279 58.1528 77.0164 55.3501 75.7073ZM58.6117 62.4854L54.7693 70.7123L55.8203 71.2032C56.4002 71.474 56.848 71.4919 57.1639 71.2567C57.5151 71.0088 57.8431 70.5586 58.1478 69.9062L60.2129 65.4847C60.495 64.8807 60.6128 64.3765 60.5662 63.9721C60.5196 63.5677 60.2184 63.2358 59.6627 62.9762L58.6117 62.4854ZM62.551 92.7122L64.3771 87.3844L61.369 85.9795L58.4919 90.8164L54.8314 89.1067L70.723 63.6831L75.5795 65.9513L66.5013 94.5572L62.551 92.7122ZM69.3887 72.6841L63.6828 82.1597L65.8211 83.1584L69.3887 72.6841ZM88.8539 72.1511L77.9028 86.2406L72.6724 97.4394L68.577 95.5267L73.8244 84.2917L77.474 66.8361L81.4606 68.6981L78.6395 79.6535L85.1573 70.4246L88.8539 72.1511ZM76.9368 99.4311L89.5304 72.4671L94.7854 74.9215L90.0902 90.0786L98.7358 76.7665L103.628 79.0516L91.0349 106.016L87.1932 104.221L95.3351 86.789L84.7288 103.07L83.0979 102.309L88.739 83.7083L80.5972 101.141L76.9368 99.4311ZM105.28 79.823L114.594 84.1732L112.766 88.0873L107.547 85.6499L104.247 92.717L108.342 94.6298L106.429 98.7251L102.334 96.8124L98.6945 104.604L104.131 107.143L102.218 111.239L92.6864 106.787L105.28 79.823ZM116.004 84.8316L119.701 86.5582L116.462 102.661L123.216 88.2001L126.949 89.9436L114.355 116.908L111.021 115.35L114.352 98.0106L107.107 113.522L103.41 111.796L116.004 84.8316ZM128.096 90.4794L139.041 95.5913L137.213 99.5054L133.77 97.8974L123.005 120.947L118.946 119.051L129.711 96.0016L126.268 94.3935L128.096 90.4794Z" fill="#2B2B2B"/>
</svg>
