<svg width="70" height="70" viewBox="0 0 70 70" fill="none" xmlns="http://www.w3.org/2000/svg">
<g opacity="0.7">
<path d="M4 4H70V70H4V4Z" fill="#FF8365"/>
<path fill-rule="evenodd" clip-rule="evenodd" d="M69 5H5V69H69V5ZM4 4V70H70V4H4Z" fill="#2B2B2B"/>
<path d="M2 2H68V68H2V2Z" fill="#FF8365"/>
<path fill-rule="evenodd" clip-rule="evenodd" d="M67 3H3V67H67V3ZM2 2V68H68V2H2Z" fill="#2B2B2B"/>
<path d="M0 0H66V66H0V0Z" fill="#FF8365"/>
<path fill-rule="evenodd" clip-rule="evenodd" d="M65 1H1V65H65V1ZM0 0V66H66V0H0Z" fill="#2B2B2B"/>
<path fill-rule="evenodd" clip-rule="evenodd" d="M28.3265 37.0006C28.5101 37.0011 28.677 37.113 28.755 37.2879L36.778 55.2883C36.8675 55.489 36.8206 55.7278 36.6628 55.8746C36.505 56.0215 36.2741 56.0414 36.0958 55.9234L23.6589 47.6951C23.4552 47.5604 23.3795 47.2865 23.4829 47.0578L27.8967 37.2856C27.9755 37.1111 28.1429 37.0001 28.3265 37.0006ZM24.5213 47.0857L35.2319 54.1718L28.3225 38.6699L24.5213 47.0857Z" fill="#FFF044"/>
<path fill-rule="evenodd" clip-rule="evenodd" d="M24.3275 47.1131C24.4873 46.9761 24.7127 46.9632 24.8856 47.0812L36.6066 55.0814C36.783 55.2018 36.8631 55.43 36.8035 55.6422C36.7438 55.8544 36.5586 56 36.3484 56H15.3013C15.1006 56 14.9215 55.867 14.8542 55.668C14.7869 55.4689 14.8459 55.2468 15.0015 55.1133L24.3275 47.1131ZM24.6592 48.1174L16.6349 55.0009H34.7443L24.6592 48.1174Z" fill="#FFF044"/>
<path fill-rule="evenodd" clip-rule="evenodd" d="M41.4947 43.0079C41.6492 42.98 41.8068 43.0342 41.9158 43.1528L52.953 55.153C53.0855 55.2971 53.1233 55.5107 53.049 55.6954C52.9746 55.88 52.8025 56 52.612 56H36.3484C36.1867 56 36.0362 55.9134 35.9489 55.7702C35.8616 55.6271 35.8496 55.447 35.9169 55.2923L41.1434 43.2921C41.2087 43.1421 41.3402 43.0357 41.4947 43.0079ZM41.7168 44.3728L37.088 55.0009H51.492L41.7168 44.3728Z" fill="#FFF044"/>
<path fill-rule="evenodd" clip-rule="evenodd" d="M29.3099 37.1534C29.444 37.007 29.6489 36.9608 29.8282 37.0364L42.2651 42.2839C42.5082 42.3866 42.6264 42.6772 42.5291 42.9332L37.6808 55.686C37.6099 55.8725 37.4398 55.9962 37.249 55.9999C37.0581 56.0036 36.8838 55.8867 36.8064 55.7031L29.2178 37.7027C29.1394 37.5169 29.1759 37.2997 29.3099 37.1534ZM30.5591 38.4212L37.2176 54.2153L41.4716 43.0255L30.5591 38.4212Z" fill="#FFF044"/>
<path fill-rule="evenodd" clip-rule="evenodd" d="M43.2929 29.0096C43.4976 28.9677 43.7043 29.0713 43.8024 29.265L54.9442 51.2654C55.0473 51.469 55.0045 51.7204 54.8407 51.8737C54.6769 52.027 54.4347 52.0423 54.2547 51.9107L41.8178 42.8216C41.6755 42.7176 41.5983 42.5402 41.6165 42.3589L42.9116 29.4475C42.9335 29.2292 43.0882 29.0515 43.2929 29.0096ZM43.693 31.1729L42.5899 42.1697L53.1826 49.9109L43.693 31.1729Z" fill="#FFF044"/>
<path fill-rule="evenodd" clip-rule="evenodd" d="M41.7266 43.177C41.8837 42.9822 42.155 42.9436 42.3556 43.0873L54.7925 52C54.9933 52.1439 55.0584 52.4242 54.9434 52.6494L53.3666 55.737C53.2946 55.878 53.1627 55.9741 53.012 55.9955C52.8612 56.0169 52.7099 55.9609 52.6049 55.845L41.7448 43.8447C41.5774 43.6598 41.5696 43.3717 41.7266 43.177ZM45.5096 46.5562L52.8406 54.6569L53.905 52.5727L45.5096 46.5562Z" fill="#FFF044"/>
<path fill-rule="evenodd" clip-rule="evenodd" d="M44.2604 29.081C44.4088 29.1825 44.4912 29.3625 44.4742 29.5479L43.1914 43.5482C43.1771 43.7045 43.0937 43.8446 42.9664 43.9265C42.839 44.0084 42.6825 44.0224 42.5438 43.9645L29.4765 38.5043C29.3066 38.4333 29.1906 38.266 29.1781 38.0741C29.1656 37.8822 29.2589 37.6999 29.418 37.6052L43.7682 29.0651C43.9223 28.9734 44.112 28.9796 44.2604 29.081ZM30.7486 37.961L42.3072 42.7907L43.4419 30.407L30.7486 37.961Z" fill="#FFF044"/>
<path fill-rule="evenodd" clip-rule="evenodd" d="M21.7352 32.0841C21.8905 31.9753 22.0919 31.9724 22.25 32.0767L29.9035 37.1222C30.1181 37.2637 30.1894 37.5576 30.0655 37.79L24.7578 47.7448C24.6592 47.9298 24.4602 48.029 24.2617 47.9923C24.0632 47.9555 23.9084 47.7908 23.8756 47.5814L21.5298 32.5811C21.4995 32.3874 21.5799 32.1929 21.7352 32.0841ZM22.6372 33.5107L24.5924 46.0135L29.0164 37.7162L22.6372 33.5107Z" fill="#FFF044"/>
<path fill-rule="evenodd" clip-rule="evenodd" d="M34.1595 10C34.3351 10.0013 34.4957 10.1046 34.5769 10.2684L42.5092 26.2688C42.6226 26.4975 42.5519 26.7795 42.346 26.9195C42.14 27.0594 41.8667 27.0113 41.7153 26.8085L32.1484 13.9937C32.0317 13.8372 32.0142 13.6228 32.104 13.4477L33.7385 10.2622C33.822 10.0995 33.9839 9.9987 34.1595 10ZM33.0872 13.6341L39.3017 21.9585L34.1489 11.5648L33.0872 13.6341Z" fill="#FFF044"/>
<path fill-rule="evenodd" clip-rule="evenodd" d="M32.1218 14.003C32.2764 13.9853 32.4294 14.0483 32.5315 14.1718L42.4466 26.1721C42.6056 26.3645 42.6013 26.6521 42.4368 26.8392C42.2722 27.0263 42.0001 27.0529 41.8056 26.9009L30.3254 17.93C30.1355 17.7817 30.0784 17.5089 30.1913 17.2903L31.7564 14.261C31.8307 14.1172 31.9672 14.0208 32.1218 14.003ZM32.2638 15.3703L31.2221 17.3865L38.8629 23.3571L32.2638 15.3703Z" fill="#FFF044"/>
<path fill-rule="evenodd" clip-rule="evenodd" d="M22.2878 32.0057C22.5006 32.0382 22.6661 32.2173 22.691 32.4421L24.3829 47.7119C24.4117 47.972 24.2449 48.2113 24.0005 48.2604L15.3904 49.991C15.218 50.0256 15.0415 49.9574 14.9315 49.8134C14.8215 49.6695 14.796 49.4735 14.8651 49.3037L21.7833 32.3033C21.868 32.0952 22.075 31.9731 22.2878 32.0057ZM16.089 48.8335L23.389 47.3662L21.9545 34.4201L16.089 48.8335Z" fill="#FFF044"/>
<path fill-rule="evenodd" clip-rule="evenodd" d="M24.3386 47.2826C24.4313 47.484 24.3854 47.7258 24.2261 47.8742L15.6436 55.8744C15.5041 56.0045 15.3052 56.0365 15.1351 55.9564C14.965 55.8763 14.8552 55.6989 14.8544 55.5027L14.8267 49.1252C14.8257 48.8824 14.9906 48.674 15.2177 48.6312L23.8278 47.0086C24.0372 46.9691 24.2459 47.0811 24.3386 47.2826ZM15.7777 49.5406L15.7988 54.3953L22.3319 48.3054L15.7777 49.5406Z" fill="#FFF044"/>
<path fill-rule="evenodd" clip-rule="evenodd" d="M15.3983 49.0217C15.5982 49.0844 15.7358 49.2773 15.7372 49.4969L15.7759 55.4944C15.7768 55.6274 15.7272 55.7552 15.6382 55.8496C15.5492 55.944 15.428 55.9972 15.3017 55.9973L11.4749 56C11.3 56.0001 11.1391 55.8989 11.0564 55.7367C10.9737 55.5744 10.9825 55.3774 11.0793 55.224L14.8673 49.2239C14.9828 49.041 15.1983 48.9589 15.3983 49.0217ZM12.3602 55.0003L14.8235 54.9986L14.7986 51.138L12.3602 55.0003Z" fill="#FFF044"/>
<path fill-rule="evenodd" clip-rule="evenodd" d="M42.1756 26.0143C42.3771 25.963 42.587 26.0554 42.6939 26.2424L44.4085 29.2424C44.4997 29.402 44.499 29.6016 44.4068 29.7605C44.3145 29.9193 44.146 30.011 43.9695 29.9983L33.446 29.2415C33.2123 29.2247 33.0252 29.031 33.0054 28.7854C32.9856 28.5397 33.1391 28.3156 33.3667 28.2576L42.1756 26.0143ZM36.5852 28.4659L43.1258 28.9362L42.0601 27.0716L36.5852 28.4659Z" fill="#FFF044"/>
<path fill-rule="evenodd" clip-rule="evenodd" d="M30.3663 16.0699C30.5414 15.9607 30.7632 15.9812 30.9176 16.1208L42.3978 26.5059C42.5305 26.626 42.5897 26.8131 42.5518 26.9929C42.5139 27.1727 42.3851 27.316 42.2167 27.3657L33.3599 29.9809C33.2336 30.0182 33.0983 29.9988 32.9861 29.9273C32.8738 29.8559 32.7947 29.7387 32.7675 29.6037L30.144 16.6034C30.1017 16.3938 30.1911 16.1792 30.3663 16.0699ZM31.3644 17.8423L33.5908 28.8751L41.1071 26.6557L31.3644 17.8423Z" fill="#FFF044"/>
<path fill-rule="evenodd" clip-rule="evenodd" d="M30.8005 16.0052C30.9928 16.0343 31.1489 16.1839 31.1944 16.3827L33.9397 28.3859C33.9975 28.6385 33.8617 28.8955 33.6274 28.9771L22.1472 32.9742C21.9604 33.0393 21.7548 32.9762 21.6304 32.8158C21.506 32.6553 21.4886 32.4307 21.5866 32.2511L30.3215 16.2508C30.4183 16.0734 30.6081 15.9761 30.8005 16.0052ZM23.0286 31.6151L32.9147 28.1729L30.5506 17.8364L23.0286 31.6151Z" fill="#FFF044"/>
<path fill-rule="evenodd" clip-rule="evenodd" d="M33.8534 29.1938C33.9735 29.3569 33.986 29.581 33.8848 29.7578L29.304 37.7579C29.239 37.8714 29.1338 37.9531 29.0116 37.985C28.8893 38.0168 28.7601 37.9962 28.6523 37.9278L21.7529 33.5446C21.5921 33.4425 21.5037 33.2502 21.5273 33.0542C21.5509 32.8581 21.6821 32.6951 21.862 32.6384L33.3422 29.0214C33.5301 28.9622 33.7332 29.0307 33.8534 29.1938ZM23.1607 33.2721L28.7362 36.8141L32.4379 30.3491L23.1607 33.2721Z" fill="#FFF044"/>
<path fill-rule="evenodd" clip-rule="evenodd" d="M33.4357 29.2584C33.5249 29.0884 33.6997 28.9882 33.8838 29.0016L44.0345 29.7387C44.2494 29.7543 44.4273 29.9202 44.4679 30.1428C44.5085 30.3655 44.4016 30.589 44.2075 30.6872L29.8573 37.9503C29.6711 38.0445 29.4485 38.0012 29.3066 37.8432C29.1648 37.6852 29.1363 37.4488 29.2362 37.2585L33.4357 29.2584ZM34.1202 30.0202L30.7862 36.3716L42.1789 30.6054L34.1202 30.0202Z" fill="#FFF044"/>
</g>
</svg>
