<svg width="70" height="70" viewBox="0 0 70 70" fill="none" xmlns="http://www.w3.org/2000/svg">
<g opacity="0.7">
<path d="M4 4H70V70H4V4Z" fill="#FF8365"/>
<path fill-rule="evenodd" clip-rule="evenodd" d="M69 5H5V69H69V5ZM4 4V70H70V4H4Z" fill="#2B2B2B"/>
<path d="M2 2H68V68H2V2Z" fill="#FF8365"/>
<path fill-rule="evenodd" clip-rule="evenodd" d="M67 3H3V67H67V3ZM2 2V68H68V2H2Z" fill="#2B2B2B"/>
<path d="M0 0H66V66H0V0Z" fill="#FF8365"/>
<path fill-rule="evenodd" clip-rule="evenodd" d="M65 1H1V65H65V1ZM0 0V66H66V0H0Z" fill="#2B2B2B"/>
<path fill-rule="evenodd" clip-rule="evenodd" d="M30.0578 42.9356C30.0401 42.7499 30.1281 42.5704 30.2834 42.475L51.296 29.5751C51.4738 29.4659 51.6999 29.4909 51.8514 29.6364C52.0028 29.7818 52.0433 30.013 51.9507 30.204L43.4759 47.6954C43.3706 47.9126 43.1251 48.0148 42.9035 47.9336L30.3658 43.3421C30.1955 43.2797 30.0754 43.1213 30.0578 42.9356ZM42.8268 46.8844L50.4064 31.2407L31.6135 42.778L42.8268 46.8844Z" fill="#FFF044"/>
<path fill-rule="evenodd" clip-rule="evenodd" d="M45.2506 54.6061C45.0732 54.7089 44.8517 54.681 44.7035 54.5371L39.2475 49.2417C39.0973 49.096 39.0577 48.8655 39.1502 48.6753C39.2426 48.485 39.4452 48.3801 39.6481 48.4174L50.7318 50.452C50.9255 50.4875 51.0768 50.645 51.1096 50.8454C51.1425 51.0458 51.0498 51.2459 50.8782 51.3453L45.2506 54.6061ZM45.0926 53.5941L49.2866 51.1641L41.0266 49.6478L45.0926 53.5941Z" fill="#FFF044"/>
<path fill-rule="evenodd" clip-rule="evenodd" d="M29.4938 40.7891C29.646 40.7622 29.8012 40.815 29.9082 40.9299L44.1102 56.1853C44.2396 56.3244 44.2761 56.5299 44.203 56.7073C44.1298 56.8848 43.9611 57 43.7743 57H22.8472C22.6887 57 22.5411 56.9168 22.4554 56.7792C22.3696 56.6416 22.3575 56.4684 22.4232 56.3195L29.1482 41.064C29.2122 40.9189 29.3416 40.8159 29.4938 40.7891ZM29.712 42.1077L23.5713 56.0377H42.68L29.712 42.1077Z" fill="#FFF044"/>
<path fill-rule="evenodd" clip-rule="evenodd" d="M17.0391 14.0939C17.2404 14.0537 17.4435 14.1541 17.5394 14.3412L31.876 42.3095C31.9767 42.506 31.934 42.748 31.7728 42.8952C31.6115 43.0424 31.3736 43.0564 31.1973 42.929L15.1942 31.3744C15.0553 31.2742 14.9801 31.1039 14.9978 30.9299L16.6642 14.5162C16.6856 14.3056 16.8378 14.1342 17.0391 14.0939ZM17.4315 16.1876L15.9532 30.7482L30.1495 40.9983L17.4315 16.1876Z" fill="#FFF044"/>
<path fill-rule="evenodd" clip-rule="evenodd" d="M21.0349 9.46732C21.1224 9.31335 21.2853 9.22206 21.458 9.23018L43.6187 10.2718C43.8591 10.2831 44.0517 10.4817 44.0629 10.73C44.0742 10.9783 43.9005 11.1946 43.6621 11.229L23.8457 14.0932C23.663 14.1196 23.4824 14.0322 23.3851 13.8702L21.0408 9.96437C20.9497 9.81263 20.9474 9.62129 21.0349 9.46732ZM22.2984 10.233L24.0172 13.0967L38.5462 10.9967L22.2984 10.233Z" fill="#FFF044"/>
<path fill-rule="evenodd" clip-rule="evenodd" d="M19.8865 9.00284C20.0388 8.98569 20.1895 9.04694 20.2897 9.16667L33.0479 24.4221C33.2033 24.608 33.1983 24.885 33.0361 25.0647C32.8739 25.2444 32.6068 25.2691 32.4163 25.122L17.6442 13.7176C17.4592 13.5748 17.4035 13.3135 17.5132 13.1036L19.5271 9.25253C19.5999 9.11334 19.7343 9.01999 19.8865 9.00284ZM20.026 10.3237L18.5242 13.1955L29.54 21.6999L20.026 10.3237Z" fill="#FFF044"/>
<path fill-rule="evenodd" clip-rule="evenodd" d="M23.2036 48.2803C23.3191 48.4504 23.316 48.6778 23.1957 48.8443L19.1889 54.3955C19.0358 54.6075 18.7457 54.6522 18.5393 54.4956L14.5259 51.4489C14.3837 51.341 14.3128 51.1593 14.3426 50.9797C14.3725 50.8001 14.4981 50.6533 14.667 50.6006L22.6873 48.0962C22.8799 48.036 23.088 48.1103 23.2036 48.2803ZM15.8284 51.2433L18.7183 53.4371L21.6035 49.44L15.8284 51.2433Z" fill="#FFF044"/>
<path fill-rule="evenodd" clip-rule="evenodd" d="M41.7311 30.8823C41.8225 31.076 41.7781 31.3088 41.6224 31.4522L30.5789 41.6225C30.4421 41.7484 30.2466 41.7799 30.0792 41.7029C29.9118 41.6259 29.8037 41.4548 29.8028 41.2655L29.7673 33.158C29.7663 32.9244 29.9279 32.7237 30.1506 32.6823L41.2296 30.6195C41.4349 30.5813 41.6398 30.6887 41.7311 30.8823ZM30.7009 33.5577L30.73 40.1939L39.7694 31.8693L30.7009 33.5577Z" fill="#FFF044"/>
<path fill-rule="evenodd" clip-rule="evenodd" d="M30.0379 32.5279C29.863 32.4172 29.7788 32.2013 29.8306 31.9963L31.6932 24.6185C31.7245 24.4946 31.8024 24.3886 31.9096 24.3241C32.0168 24.2597 32.1445 24.242 32.2644 24.2751L37.0215 25.5879C37.1872 25.6336 37.3151 25.7696 37.3546 25.942C37.3941 26.1143 37.3387 26.2951 37.2104 26.4127L30.5907 32.4777C30.4372 32.6183 30.2128 32.6387 30.0379 32.5279ZM35.9439 26.2866L32.4767 25.3298L31.1191 30.707L35.9439 26.2866Z" fill="#FFF044"/>
<path fill-rule="evenodd" clip-rule="evenodd" d="M48.8437 25.5404C49.0423 25.4905 49.2492 25.58 49.354 25.7611L51.5603 29.575C51.6492 29.7288 51.6481 29.9208 51.5574 30.0735C51.4667 30.2261 51.3014 30.3141 51.1283 30.3018L37.5873 29.3398C37.3581 29.3235 37.1746 29.1371 37.155 28.9006C37.1355 28.6642 37.2857 28.4484 37.509 28.3922L48.8437 25.5404ZM40.6491 28.5927L50.3033 29.2786L48.7303 26.5594L40.6491 28.5927Z" fill="#FFF044"/>
<path fill-rule="evenodd" clip-rule="evenodd" d="M27.31 14.3325C27.337 14.1371 27.4769 13.9785 27.6629 13.9326L42.4385 10.2845C42.6736 10.2264 42.9125 10.3636 42.9889 10.6004L47.9093 25.8559C47.9704 26.0451 47.9121 26.2535 47.7628 26.38C47.6134 26.5064 47.4041 26.5247 47.2364 26.4258L27.5403 14.8185C27.3743 14.7207 27.2829 14.528 27.31 14.3325ZM46.6403 24.9666L42.2398 11.323L29.0254 14.5857L46.6403 24.9666Z" fill="#FFF044"/>
<path fill-rule="evenodd" clip-rule="evenodd" d="M29.9466 41.1969C29.9732 41.3937 29.8799 41.5872 29.7117 41.6838L19.6831 47.448C19.5747 47.5103 19.4466 47.5254 19.3274 47.4898C19.2081 47.4543 19.1075 47.3711 19.0479 47.2587L14.0573 37.849C13.9689 37.6824 13.9837 37.4777 14.0951 37.3265C14.2064 37.1753 14.3935 37.1059 14.5725 37.1494L29.5918 40.795C29.7791 40.8404 29.9201 41.0001 29.9466 41.1969ZM15.3765 38.3331L19.6398 46.3715L28.2069 41.4474L15.3765 38.3331Z" fill="#FFF044"/>
</g>
</svg>
