<svg width="70" height="70" viewBox="0 0 70 70" fill="none" xmlns="http://www.w3.org/2000/svg">
<g opacity="0.7">
<path d="M4 4H70V70H4V4Z" fill="#67FFDB"/>
<path fill-rule="evenodd" clip-rule="evenodd" d="M69 5H5V69H69V5ZM4 4V70H70V4H4Z" fill="#2B2B2B"/>
<path d="M2 2H68V68H2V2Z" fill="#67FFDB"/>
<path fill-rule="evenodd" clip-rule="evenodd" d="M67 3H3V67H67V3ZM2 2V68H68V2H2Z" fill="#2B2B2B"/>
<path d="M0 0H66V66H0V0Z" fill="#67FFDB"/>
<path fill-rule="evenodd" clip-rule="evenodd" d="M65 1H1V65H65V1ZM0 0V66H66V0H0Z" fill="#2B2B2B"/>
<path d="M32.5 35.7257L22 5L17 20.8584L24.75 28.292M32.5 35.7257L23.5 22.3451L30 13.4248L31.25 24.5752M32.5 35.7257L25.5 6.9823L44.5 10.4513L32.5 35.7257ZM32.5 35.7257L35.5 20.8584L38.5 27.3009L32.5 35.7257ZM32.5 35.7257L44.5 40.1858L50.5 30.7699L44.5 32.4218M32.5 35.7257L48 24.3274L50.5 40.1858L32.5 35.7257ZM32.5 35.7257C32.5 37.708 32.5 43.4897 32.5 46.1327L25.5 48.6106L28.1923 43.6549M32.5 35.7257H22V37.4042M32.5 35.7257L22 43.6549V37.4042M32.5 35.7257L10 30.7699L19 55.0531H38.5M32.5 35.7257L38.5 43.6549L44.5 55.0531H38.5M32.5 35.7257L3 20.8584L17 38.2035L22 37.4042M32.5 35.7257L8 51.0885H30L32.5 35.7257ZM32.5 35.7257L56 61L48 46.1327L44.5 43.7828M32.5 35.7257L63 38.2035L44.5 30.7699L32.5 35.7257ZM32.5 35.7257L54 15.4071H38.5L32.5 35.7257ZM32.5 35.7257L31.25 24.5752M32.5 35.7257L24.75 28.292M32.5 35.7257L22 37.4042M32.5 35.7257L28.1923 43.6549M32.5 35.7257L44.5 43.7828M32.5 35.7257L44.5 32.4218M31.25 24.5752L24.75 28.292M31.25 24.5752L44.5 32.4218M24.75 28.292L22 37.4042M22 37.4042L28.1923 43.6549M28.1923 43.6549L38.5 55.0531M38.5 55.0531L44.5 43.7828M44.5 43.7828V32.4218" stroke="#0057FF" stroke-width="0.6"/>
</g>
</svg>
