<svg width="70" height="70" viewBox="0 0 70 70" fill="none" xmlns="http://www.w3.org/2000/svg">
<g opacity="0.7">
<path d="M4 4H70V70H4V4Z" fill="#67FFDB"/>
<path fill-rule="evenodd" clip-rule="evenodd" d="M69 5H5V69H69V5ZM4 4V70H70V4H4Z" fill="#2B2B2B"/>
<path d="M2 2H68V68H2V2Z" fill="#67FFDB"/>
<path fill-rule="evenodd" clip-rule="evenodd" d="M67 3H3V67H67V3ZM2 2V68H68V2H2Z" fill="#2B2B2B"/>
<path d="M0 0H66V66H0V0Z" fill="#67FFDB"/>
<path fill-rule="evenodd" clip-rule="evenodd" d="M65 1H1V65H65V1ZM0 0V66H66V0H0Z" fill="#2B2B2B"/>
<path fill-rule="evenodd" clip-rule="evenodd" d="M44.8788 33.7116C44.9855 33.6365 45.1329 33.6615 45.2089 33.7676L54.1072 46.1964C54.1465 46.2513 54.1606 46.3203 54.146 46.3861C54.1315 46.452 54.0896 46.5086 54.0309 46.5418L43.5327 52.4739C43.4297 52.5321 43.2996 52.5058 43.2274 52.4121L34.6167 41.238C34.5772 41.1867 34.5603 41.1214 34.57 41.0573C34.5797 40.9932 34.6152 40.9359 34.6682 40.8985L44.8788 33.7116ZM35.1448 41.1444L43.4782 51.9587L53.5666 46.258L44.9596 34.2361L35.1448 41.1444Z" fill="#0057FF"/>
<path fill-rule="evenodd" clip-rule="evenodd" d="M45.2404 33.8287C45.2748 33.9288 45.2389 34.0395 45.1524 34.1004L34.9418 41.2873C34.8564 41.3474 34.7417 41.3447 34.6592 41.2806C34.5767 41.2165 34.5457 41.1061 34.5828 41.0084L37.175 34.1954C37.2086 34.1071 37.2913 34.0471 37.3856 34.0425L45.004 33.6686C45.1096 33.6634 45.206 33.7287 45.2404 33.8287ZM37.5641 34.5097L35.3034 40.4514L44.2082 34.1836L37.5641 34.5097Z" fill="#0057FF"/>
<path fill-rule="evenodd" clip-rule="evenodd" d="M37.5889 34.1399C37.6363 34.2049 37.6476 34.2894 37.619 34.3645L35.0268 41.1775C35.002 41.2428 34.9497 41.2938 34.8838 41.3171L21.1714 46.1599C21.0945 46.1871 21.0089 46.1729 20.9449 46.1223C20.8808 46.0717 20.8472 45.9918 20.8559 45.9106L22.0136 35.0529C22.026 34.9368 22.1208 34.8469 22.2374 34.8407L37.3844 34.0426C37.4646 34.0384 37.5416 34.075 37.5889 34.1399ZM22.4648 35.3048L21.3686 45.5861L34.6217 40.9055L37.0449 34.5365L22.4648 35.3048Z" fill="#0057FF"/>
<path fill-rule="evenodd" clip-rule="evenodd" d="M19.0065 24.7837C19.0702 24.7217 19.1631 24.7003 19.2474 24.7284L35.1493 30.0134C35.2047 30.0318 35.2514 30.0699 35.2804 30.1205L37.603 34.1616C37.6442 34.2332 37.6452 34.3211 37.6057 34.3936C37.5662 34.4662 37.4919 34.5131 37.4094 34.5174L22.2625 35.3156C22.1533 35.3213 22.0543 35.2519 22.0226 35.1473L18.945 25.0231C18.9192 24.9381 18.9429 24.8457 19.0065 24.7837ZM19.5335 25.3244L22.4233 34.831L36.998 34.063L34.9134 30.436L19.5335 25.3244Z" fill="#0057FF"/>
<path fill-rule="evenodd" clip-rule="evenodd" d="M44.363 20.778C44.4215 20.6822 44.5391 20.6404 44.645 20.6777L51.0949 22.9535C51.2017 22.9912 51.2671 23.0991 51.2512 23.2112C51.2352 23.3234 51.1423 23.4087 51.0292 23.415L42.911 23.8716C42.8228 23.8766 42.7391 23.8322 42.6937 23.7564C42.6483 23.6806 42.6488 23.5858 42.6948 23.5104L44.363 20.778ZM44.6684 21.1901L43.3366 23.3715L49.8177 23.007L44.6684 21.1901Z" fill="#0057FF"/>
<path fill-rule="evenodd" clip-rule="evenodd" d="M36.315 26.6473C36.3885 26.6278 36.4669 26.6447 36.5259 26.6927L45.1654 33.7214C45.2418 33.7835 45.2719 33.8863 45.2412 33.9799C45.2105 34.0734 45.1254 34.1384 45.027 34.1432L37.4094 34.5174C37.3203 34.5218 37.2354 34.4755 37.1909 34.3981L34.8683 30.357C34.8326 30.2948 34.8268 30.2197 34.8527 30.1528L36.1542 26.7912C36.1817 26.7203 36.2415 26.6668 36.315 26.6473ZM36.4795 27.2678L35.3371 30.2186L37.5306 34.0351L44.3843 33.6988L36.4795 27.2678Z" fill="#0057FF"/>
<path fill-rule="evenodd" clip-rule="evenodd" d="M42.7919 23.4216C42.839 23.3982 42.8926 23.391 42.9442 23.4013L57.0952 26.22C57.191 26.239 57.2653 26.3147 57.2827 26.4108C57.3001 26.5069 57.2569 26.6038 57.1739 26.6552L45.1405 34.1082C45.0544 34.1615 44.9439 34.1544 44.8654 34.0905L36.2259 27.0617C36.1632 27.0107 36.1307 26.9314 36.1397 26.8511C36.1486 26.7708 36.1977 26.7005 36.2701 26.6645L42.7919 23.4216ZM42.9309 23.8834L36.8122 26.9259L45.0341 33.6149L56.4111 26.5685L42.9309 23.8834Z" fill="#0057FF"/>
<path fill-rule="evenodd" clip-rule="evenodd" d="M31.8265 18.3224C31.9388 18.2778 32.0667 18.3246 32.1238 18.4311L36.5855 26.7649C36.6182 26.826 36.6226 26.8983 36.5976 26.963L35.2961 30.3245C35.259 30.4203 35.1645 30.4815 35.0619 30.4761C34.9593 30.4707 34.8718 30.3999 34.845 30.3007L31.6847 18.6053C31.6532 18.4887 31.7142 18.3669 31.8265 18.3224ZM32.6861 20.4887L35.1147 29.4764L36.1149 26.8931L32.6861 20.4887Z" fill="#0057FF"/>
<path fill-rule="evenodd" clip-rule="evenodd" d="M31.9601 18.3101C32.0488 18.3276 32.12 18.394 32.1436 18.4813L35.3038 30.1767C35.3267 30.2612 35.3012 30.3514 35.2376 30.4115C35.174 30.4716 35.0824 30.4919 34.9994 30.4643L19.0975 25.1792C18.9896 25.1434 18.9223 25.0363 18.9366 24.9236C18.951 24.8109 19.0431 24.7242 19.1564 24.7165L27.311 24.1665L31.7253 18.3989C31.7803 18.327 31.8713 18.2926 31.9601 18.3101ZM31.8102 19.0701L27.6231 24.5409C27.5816 24.5952 27.5186 24.629 27.4504 24.6336L20.3949 25.1095L34.7295 29.8736L31.8102 19.0701Z" fill="#0057FF"/>
<path fill-rule="evenodd" clip-rule="evenodd" d="M51.2329 23.0807C51.2731 23.1707 51.2535 23.2763 51.1837 23.346L49.7658 24.7599L57.0952 26.22C57.2014 26.2411 57.2799 26.3312 57.286 26.4393C57.2922 26.5475 57.2245 26.6461 57.1214 26.6792L43.3766 31.0942C43.2721 31.1278 43.1581 31.0854 43.101 30.9916C43.0438 30.8978 43.0583 30.7771 43.1361 30.6996L48.7994 25.0521L42.8512 23.8674C42.7339 23.844 42.6522 23.7369 42.6606 23.6175C42.669 23.4982 42.7648 23.4036 42.8843 23.3969L51.0025 22.9403C51.101 22.9348 51.1926 22.9906 51.2329 23.0807ZM49.2046 24.6481L50.4061 23.45L44.7786 23.7665L49.2046 24.6481ZM49.3606 25.1639L44.1699 30.3401L56.1032 26.507L49.3606 25.1639Z" fill="#0057FF"/>
<path fill-rule="evenodd" clip-rule="evenodd" d="M27.6443 24.2848C27.6882 24.3676 27.6794 24.4685 27.6218 24.5424L21.6315 32.226L22.4774 35.0087C22.4979 35.0762 22.4874 35.1493 22.4487 35.2082C22.41 35.2672 22.3471 35.3059 22.277 35.314L18.8255 35.7094C18.7304 35.7203 18.638 35.6731 18.5912 35.5896C18.5443 35.5061 18.5521 35.4026 18.611 35.3271L21.1049 32.1283L18.945 25.0231C18.9239 24.9537 18.9356 24.8782 18.9767 24.8185C19.0179 24.7589 19.0841 24.7214 19.1564 24.7165L27.4183 24.1591C27.5119 24.1528 27.6003 24.202 27.6443 24.2848ZM21.4624 31.6697L26.9201 24.6692L19.4868 25.1706L21.4624 31.6697ZM21.274 32.6846L19.3343 35.1726L21.9396 34.8741L21.274 32.6846Z" fill="#0057FF"/>
<path fill-rule="evenodd" clip-rule="evenodd" d="M22.4174 34.9092C22.4686 34.96 22.4939 35.0314 22.4863 35.1031L21.3286 45.9608C21.3163 46.0767 21.2217 46.1665 21.1053 46.1729C20.9889 46.1793 20.885 46.1004 20.8601 45.9865L18.5663 35.5243C18.5519 35.4586 18.566 35.3899 18.6051 35.3352C18.6442 35.2805 18.7046 35.2449 18.7714 35.2372L22.2229 34.8418C22.2946 34.8335 22.3661 34.8583 22.4174 34.9092ZM19.087 35.6796L21.011 44.4552L21.9821 35.3479L19.087 35.6796Z" fill="#0057FF"/>
<path fill-rule="evenodd" clip-rule="evenodd" d="M51.3106 47.1233C51.383 47.2315 51.3548 47.3778 51.2475 47.4514L44.2097 52.2789L39.1605 61.873C39.1003 61.9873 38.9599 62.0326 38.8442 61.975C38.7286 61.9174 38.6801 61.778 38.7351 61.6611L43.2004 52.166C43.2192 52.126 43.2488 52.0921 43.2858 52.068L50.9833 47.0562C51.0924 46.9852 51.2383 47.0151 51.3106 47.1233Z" fill="#0057FF"/>
<path fill-rule="evenodd" clip-rule="evenodd" d="M57.2682 26.3619C57.3156 26.4761 57.2676 26.6076 57.1577 26.6643L47.1572 31.8265L61.8332 36.426C61.9474 36.4618 62.0172 36.577 61.9961 36.6948C61.9749 36.8127 61.8694 36.8964 61.7498 36.8902L39.5058 35.7397C39.3986 35.7342 39.3084 35.6574 39.2857 35.5524C39.2631 35.4475 39.3136 35.3404 39.409 35.2911L45.9117 31.9344L43.2328 31.0949C43.134 31.0639 43.0666 30.9725 43.0662 30.8689C43.0658 30.7653 43.1326 30.6734 43.2312 30.6417L56.976 26.2267C57.0937 26.1889 57.2208 26.2477 57.2682 26.3619ZM46.5123 31.6244L54.3964 27.5547L44.0899 30.8652L46.5123 31.6244ZM46.5566 32.1365L40.4082 35.3103L59.9006 36.3185L46.5566 32.1365Z" fill="#0057FF"/>
<path fill-rule="evenodd" clip-rule="evenodd" d="M57.2555 26.3359C57.3184 26.447 57.2825 26.588 57.1739 26.6552L45.3565 33.9743L54.1072 46.1964C54.1755 46.2919 54.1636 46.4229 54.0797 46.5049C53.9957 46.5869 53.8644 46.5954 53.7707 46.5248L39.3752 35.6923C39.3098 35.6431 39.2743 35.5638 39.2812 35.4823C39.2881 35.4008 39.3364 35.3286 39.409 35.2911L56.9396 26.2418C57.0531 26.1833 57.1925 26.2248 57.2555 26.3359ZM39.9634 35.54L52.8181 45.213L44.822 34.0444C44.7837 33.9909 44.7693 33.9239 44.7822 33.8594C44.7951 33.7949 44.8342 33.7386 44.8901 33.704L51.7451 29.4583L39.9634 35.54Z" fill="#0057FF"/>
<path fill-rule="evenodd" clip-rule="evenodd" d="M39.3392 35.3454C39.4211 35.2517 39.5615 35.2371 39.661 35.312L54.0565 46.1445C54.1206 46.1927 54.156 46.2699 54.1508 46.3499C54.1456 46.4299 54.1007 46.5023 54.0309 46.5418L43.5327 52.4739C43.4209 52.5371 43.2788 52.4997 43.2122 52.39C43.1456 52.2802 43.1782 52.138 43.2858 52.068L50.7392 47.2145L39.3489 35.6688C39.2614 35.5802 39.2572 35.4391 39.3392 35.3454ZM41.9533 37.6319L51.2821 47.0879C51.3322 47.1387 51.3569 47.2093 51.3492 47.2803C51.3415 47.3513 51.3024 47.4151 51.2426 47.454L49.8862 48.3371L53.4806 46.3061L41.9533 37.6319Z" fill="#0057FF"/>
<path fill-rule="evenodd" clip-rule="evenodd" d="M39.3012 35.4046C39.3414 35.3151 39.4324 35.2594 39.5304 35.2645L61.7744 36.415C61.8683 36.4199 61.9505 36.4796 61.9841 36.5674C62.0177 36.6552 61.9964 36.7545 61.9298 36.8208L51.2806 47.4232C51.2358 47.4679 51.175 47.4928 51.1118 47.4925C51.0486 47.4922 50.9881 47.4668 50.9437 47.4217L39.3489 35.6688C39.28 35.599 39.2611 35.494 39.3012 35.4046ZM40.1174 35.7709L51.1144 46.9179L61.2146 36.8621L40.1174 35.7709Z" fill="#0057FF"/>
<path fill-rule="evenodd" clip-rule="evenodd" d="M31.8123 18.3285C31.9269 18.2742 32.0639 18.3194 32.1238 18.4311L36.316 26.2616L42.8023 23.4165C42.9205 23.3647 43.0584 23.4166 43.1131 23.5335C43.1678 23.6504 43.1192 23.7896 43.0036 23.847L36.4818 27.09C36.3667 27.1472 36.227 27.1026 36.1664 26.9893L36.1044 26.8736L35.4935 27.1416C35.435 27.1672 35.3687 27.1682 35.3095 27.1445C35.2502 27.1207 35.203 27.0741 35.1785 27.0151L31.6947 18.6346C31.646 18.5175 31.6978 18.3829 31.8123 18.3285ZM35.8793 26.4532L34.0024 22.9474L35.5245 26.6088L35.8793 26.4532Z" fill="#0057FF"/>
<path fill-rule="evenodd" clip-rule="evenodd" d="M46.2073 4.00854C46.3186 4.03915 46.3918 4.14526 46.3809 4.26015L44.8026 20.9242C44.7992 20.9601 44.7876 20.9948 44.7688 21.0256L43.1006 23.758C43.0752 23.7995 43.0377 23.8323 42.9932 23.8518L35.4935 27.1416C35.4027 27.1814 35.2966 27.1606 35.2274 27.0894C35.1583 27.0183 35.1407 26.9117 35.1831 26.8221L45.9294 4.13598C45.9788 4.03168 46.096 3.97794 46.2073 4.00854ZM35.8852 26.4505L42.7338 23.4465L44.3344 20.8247L45.7801 5.56179L35.8852 26.4505Z" fill="#0057FF"/>
<path fill-rule="evenodd" clip-rule="evenodd" d="M34.7905 40.8552C34.8691 40.8504 34.945 40.8849 34.9931 40.9473L43.6038 52.1214C43.6582 52.192 43.6685 52.287 43.6306 52.3677L39.1653 61.8627C39.126 61.9463 39.0418 61.9996 38.9494 61.9993C38.857 61.999 38.7732 61.9452 38.7344 61.8614L31.5439 46.3155C31.511 46.2443 31.5152 46.1616 31.5553 46.0942L34.6005 40.971C34.6407 40.9033 34.7119 40.8599 34.7905 40.8552ZM34.8302 41.5149L32.0279 46.2295L38.952 61.1992L43.1387 52.2966L34.8302 41.5149Z" fill="#0057FF"/>
<path fill-rule="evenodd" clip-rule="evenodd" d="M34.9887 40.9417C35.0521 41.019 35.0603 41.1279 35.0092 41.2139L31.964 46.3371C31.945 46.3691 31.9187 46.3962 31.8873 46.4162L17.7722 55.3972C17.686 55.452 17.5745 55.4457 17.4951 55.3814C17.4157 55.3172 17.3862 55.2094 17.4218 55.1137L20.8697 45.8523C20.8943 45.7863 20.9469 45.7346 21.0133 45.7111L34.7257 40.8683C34.8201 40.835 34.9252 40.8643 34.9887 40.9417ZM21.2765 46.1224L18.1144 54.616L31.5843 46.0455L34.2652 41.5351L21.2765 46.1224Z" fill="#0057FF"/>
<path fill-rule="evenodd" clip-rule="evenodd" d="M31.945 18.3076C32.0292 18.3186 32.1012 18.3737 32.1338 18.4521L35.6176 26.8326C35.6519 26.9152 35.637 27.0101 35.5789 27.0782C35.5209 27.1462 35.4295 27.1759 35.3425 27.155L22.626 24.0954C22.5039 24.0661 22.4258 23.9468 22.4475 23.8232C22.4692 23.6996 22.5833 23.6141 22.708 23.6281L27.3275 24.1452L31.7253 18.3989C31.777 18.3314 31.8608 18.2966 31.945 18.3076ZM31.8528 19.0147L27.6231 24.5409C27.5725 24.6071 27.491 24.6419 27.4081 24.6326L26.4413 24.5244L34.9992 26.5834L31.8528 19.0147Z" fill="#0057FF"/>
<path fill-rule="evenodd" clip-rule="evenodd" d="M46.1009 4.00405C46.2052 3.98462 46.3098 4.03666 46.3572 4.13159L54.7054 20.8603C54.7598 20.9693 54.723 21.1017 54.6203 21.1671L51.1437 23.3781C51.0821 23.4173 51.0059 23.426 50.937 23.4017L44.4871 21.1259C44.3842 21.0896 44.3192 20.988 44.3295 20.8794L45.9078 4.21532C45.9178 4.1097 45.9966 4.02349 46.1009 4.00405ZM46.3028 5.0873L44.8203 20.7394L50.9861 22.9149L54.1844 20.8809L46.3028 5.0873Z" fill="#0057FF"/>
<path fill-rule="evenodd" clip-rule="evenodd" d="M36.267 28.9667C36.3846 28.9425 36.5018 29.0099 36.5401 29.1237L44.252 52.0399C44.2727 52.1015 44.2673 52.1689 44.237 52.2264L39.1605 61.873C39.1113 61.9665 39.0061 62.0159 38.9025 61.9947C38.7989 61.9735 38.7217 61.8864 38.7132 61.781L36.0779 29.2187C36.0682 29.099 36.1493 28.9909 36.267 28.9667ZM36.7082 31.1138L39.121 60.9267L43.7689 52.0951L36.7082 31.1138Z" fill="#0057FF"/>
<path fill-rule="evenodd" clip-rule="evenodd" d="M36.321 28.9619C36.4424 28.965 36.542 29.0593 36.5518 29.1804L39.1871 61.7426C39.1964 61.8574 39.122 61.9624 39.0106 61.9917C38.8992 62.021 38.7828 61.9659 38.7344 61.8614L31.5439 46.3155C31.5163 46.256 31.5146 46.188 31.5391 46.1272L34.9506 37.6449L36.0792 29.1682C36.0952 29.0477 36.1995 28.9588 36.321 28.9619ZM36.2572 31.4338L35.4179 37.7373C35.4153 37.7569 35.4103 37.7762 35.4028 37.7946L32.0185 46.2093L38.6056 60.4505L36.2572 31.4338Z" fill="#0057FF"/>
<path fill-rule="evenodd" clip-rule="evenodd" d="M18.719 35.2493C18.8317 35.2091 18.9568 35.2591 19.0108 35.3659L22.0272 41.3305C22.0548 41.385 22.0603 41.4482 22.0426 41.5067L21.069 44.7186L21.3247 45.8845C21.3344 45.9291 21.3312 45.9755 21.3152 46.0183L17.8674 55.2797C17.8226 55.4001 17.6903 55.4631 17.5686 55.422C17.4469 55.381 17.3799 55.2507 17.4171 55.1278L20.5781 44.6993L18.5663 35.5243C18.5406 35.4074 18.6062 35.2894 18.719 35.2493ZM20.8605 43.7676L21.56 41.46L19.4321 37.2524L20.8605 43.7676ZM20.7866 45.6503L20.0928 47.9393L20.8453 45.918L20.7866 45.6503Z" fill="#0057FF"/>
<path fill-rule="evenodd" clip-rule="evenodd" d="M35.3595 37.5477C35.4198 37.6151 35.4366 37.7106 35.4028 37.7946L31.9802 46.305C31.9617 46.351 31.9292 46.3896 31.8873 46.4162L17.7722 55.3972C17.6883 55.4506 17.5801 55.4467 17.5009 55.3866C17.4217 55.3265 17.3883 55.223 17.4171 55.1278L21.5876 41.3692C21.6112 41.2914 21.6729 41.2311 21.7512 41.2092L35.1185 37.4773C35.2056 37.453 35.2991 37.4803 35.3595 37.5477ZM22.0047 41.632L18.0581 54.6524L31.5676 46.0567L34.7819 38.0649L22.0047 41.632Z" fill="#0057FF"/>
<path fill-rule="evenodd" clip-rule="evenodd" d="M51.2062 23.0352C51.2772 23.1299 51.2675 23.2624 51.1837 23.346L43.7503 30.7586L61.8332 36.426C61.9494 36.4624 62.0195 36.5807 61.9952 36.7001C61.9709 36.8194 61.8603 36.9011 61.7391 36.8892L31.7688 33.9519C31.665 33.9417 31.58 33.8651 31.5591 33.763C31.5382 33.6609 31.5863 33.557 31.6777 33.5069L50.9017 22.9692C51.0055 22.9123 51.1353 22.9404 51.2062 23.0352ZM32.5811 33.5538L59.4969 36.1918L43.2328 31.0949C43.1534 31.07 43.093 31.0052 43.0732 30.9244C43.0534 30.8436 43.0772 30.7583 43.1361 30.6996L49.6647 24.1894L32.5811 33.5538Z" fill="#0057FF"/>
<path fill-rule="evenodd" clip-rule="evenodd" d="M54.6808 20.8214C54.7559 20.9187 54.7444 21.0572 54.6544 21.1408L43.3436 31.6498C43.3113 31.6799 43.2711 31.7003 43.2277 31.7089L31.8379 33.9487C31.7228 33.9713 31.6085 33.9067 31.5685 33.7965C31.5286 33.6863 31.5749 33.5632 31.6777 33.5069L50.8949 22.973L54.365 20.7661C54.4688 20.7001 54.6056 20.7241 54.6808 20.8214ZM52.4247 22.5636L51.1437 23.3781C51.1393 23.3809 51.1348 23.3837 51.1302 23.3862L33.2524 33.186L43.0696 31.2554L52.4247 22.5636Z" fill="#0057FF"/>
<path fill-rule="evenodd" clip-rule="evenodd" d="M31.1453 19.8701C31.2416 19.8525 31.3389 19.8958 31.3903 19.9791L35.6004 26.7993C35.651 26.8812 35.6471 26.9856 35.5906 27.0636C35.5341 27.1416 35.4361 27.1775 35.3425 27.155L30.2216 25.9232C30.1675 25.9559 30.1025 25.9657 30.041 25.9503L22.6239 24.0952C22.497 24.0634 22.4196 23.935 22.4507 23.8079C22.4819 23.6809 22.61 23.6029 22.7372 23.6335L22.7393 23.634L29.9257 25.363L30.9547 20.0587C30.9733 19.9626 31.049 19.8877 31.1453 19.8701ZM30.3884 25.4743L34.8928 26.5581L31.3055 20.7467L30.3884 25.4743Z" fill="#0057FF"/>
<path fill-rule="evenodd" clip-rule="evenodd" d="M31.562 33.6557C31.5915 33.5426 31.6989 33.4678 31.8152 33.4792L61.7855 36.4165C61.877 36.4255 61.9552 36.4865 61.9861 36.5732C62.0171 36.6599 61.995 36.7559 61.9298 36.8208L51.2806 47.4232C51.191 47.5124 51.0475 47.5166 50.9537 47.4319C50.8599 47.3471 50.8488 47.2038 50.9285 47.1057L53.7734 43.6017L31.6966 33.9335C31.5896 33.8866 31.5325 33.7688 31.562 33.6557ZM33.258 34.0983L54.25 43.2915C54.318 43.3213 54.3682 43.3811 54.3857 43.4532C54.4032 43.5253 54.386 43.6014 54.3392 43.6591L54.1314 43.915L61.2372 36.8405L33.258 34.0983Z" fill="#0057FF"/>
<path fill-rule="evenodd" clip-rule="evenodd" d="M42.6599 9.34411C42.7804 9.39066 42.8416 9.52484 42.7979 9.64633L36.064 28.3561C36.0325 28.4434 35.9532 28.5044 35.8607 28.5124C35.7683 28.5204 35.6796 28.4738 35.6337 28.3932L30.9814 20.2211C30.9173 20.1085 30.9552 19.9652 31.0667 19.8991C31.1783 19.833 31.3222 19.8688 31.3903 19.9791L35.3561 26.4032L42.3546 9.47502C42.4039 9.35569 42.5395 9.29757 42.6599 9.34411ZM35.4727 27.1494L35.7915 27.7093L38.8921 19.0945L35.6177 27.0146C35.591 27.0793 35.5375 27.128 35.4727 27.1494Z" fill="#0057FF"/>
<path fill-rule="evenodd" clip-rule="evenodd" d="M46.2616 4.03102C46.3698 4.09247 46.4123 4.22701 46.3591 4.33949L35.6128 27.0256C35.5576 27.1421 35.4195 27.1934 35.3016 27.1411C35.1837 27.0889 35.129 26.9522 35.1783 26.833L42.3546 9.47502C42.3606 9.46049 42.3679 9.44666 42.3766 9.4336L45.9468 4.10542C46.016 4.00202 46.1534 3.96957 46.2616 4.03102ZM42.7848 9.67858L39.2237 18.2921L44.5564 7.03457L42.7848 9.67858Z" fill="#0057FF"/>
<path fill-rule="evenodd" clip-rule="evenodd" d="M46.1594 4.00051C46.2439 4.00591 46.3194 4.05584 46.3572 4.13159L54.7054 20.8603C54.7408 20.9312 54.7383 21.0149 54.6993 21.0838C54.6602 21.1526 54.5895 21.1975 54.5105 21.2035L44.9615 21.9297C44.8413 21.9389 44.7333 21.8566 44.7102 21.7383L42.3409 9.61149C42.3288 9.54979 42.3417 9.48583 42.3766 9.4336L45.9468 4.10542C45.9939 4.03508 46.0749 3.99512 46.1594 4.00051ZM42.8263 9.61668L45.1362 21.4397L54.122 20.7563L46.1142 4.70972L42.8263 9.61668Z" fill="#0057FF"/>
<path fill-rule="evenodd" clip-rule="evenodd" d="M22.6311 23.6317C22.6564 23.6263 22.6824 23.6252 22.708 23.6281L27.4609 24.1599C27.5465 24.1695 27.6202 24.2246 27.6536 24.3039C27.687 24.3832 27.6747 24.4745 27.6218 24.5424L18.9861 35.6193C18.9155 35.7098 18.7903 35.737 18.6886 35.6838L4.12766 28.0763C4.03897 28.0299 3.9888 27.933 4.00215 27.8338C4.01551 27.7347 4.08954 27.6545 4.18733 27.6333L22.6311 23.6317ZM22.6938 24.1046L4.92938 27.9587L18.733 35.1707L26.9858 24.5851L22.6938 24.1046Z" fill="#0057FF"/>
<path fill-rule="evenodd" clip-rule="evenodd" d="M22.6311 23.6317C22.6668 23.624 22.7039 23.6251 22.7393 23.634L30.1563 25.4886C30.2691 25.5168 30.3449 25.6225 30.3355 25.7385C30.3261 25.8544 30.2342 25.9465 30.1183 25.9561L4.25739 28.1025C4.13257 28.1128 4.02113 28.0245 4.00263 27.9007C3.98414 27.7768 4.06493 27.6598 4.18733 27.6333L22.6311 23.6317ZM7.83396 27.3286L28.647 25.6012L22.6777 24.1081L7.83396 27.3286Z" fill="#0057FF"/>
<path fill-rule="evenodd" clip-rule="evenodd" d="M4.04065 27.7332C4.1083 27.6328 4.24055 27.5993 4.34781 27.6554L18.9087 35.2629C18.9527 35.2859 18.9884 35.3216 19.0108 35.3659L22.0272 41.3305C22.0763 41.4276 22.0532 41.546 21.9711 41.6175L21.1658 42.3185C21.0771 42.3958 20.9452 42.3965 20.8557 42.3203L4.08368 28.0471C3.99151 27.9687 3.97299 27.8335 4.04065 27.7332ZM6.00405 29.0571L21.008 41.8256L21.5195 41.3804L18.6209 35.649L6.00405 29.0571Z" fill="#0057FF"/>
<path fill-rule="evenodd" clip-rule="evenodd" d="M47.4258 30.5468C47.5267 30.5305 47.6267 30.5804 47.6742 30.6709L54.3651 43.3981C54.412 43.4875 54.3974 43.5968 54.3286 43.6707C54.2598 43.7446 54.1518 43.7669 54.0593 43.7264L31.6966 33.9335C31.6015 33.8918 31.5444 33.7926 31.5557 33.6893C31.567 33.586 31.6442 33.502 31.7461 33.482L43.1438 31.2406L47.4258 30.5468ZM43.2238 31.7094L32.5827 33.802L53.6286 43.0188L47.333 31.0435L43.2238 31.7094Z" fill="#0057FF"/>
<path fill-rule="evenodd" clip-rule="evenodd" d="M54.7022 20.8546C54.7531 20.9498 54.7335 21.0673 54.6544 21.1408L47.0759 28.1821L47.6948 30.7255C47.7105 30.7899 47.6985 30.8579 47.6619 30.9131C47.6253 30.9684 47.5673 31.0058 47.5019 31.0164L43.2199 31.7103C43.1165 31.727 43.0143 31.6741 42.9683 31.58C42.9223 31.4859 42.9433 31.3728 43.02 31.3015L46.548 28.0236L45.3597 23.1405C45.3448 23.079 45.3549 23.0141 45.3879 22.9602C45.421 22.9062 45.4741 22.8677 45.5357 22.853L54.4376 20.7354C54.5426 20.7104 54.6513 20.7594 54.7022 20.8546ZM46.9471 27.6528L53.6697 21.4068L45.8781 23.2602L46.9471 27.6528ZM46.6768 28.5529L43.9188 31.1154L47.1721 30.5882L46.6768 28.5529Z" fill="#0057FF"/>
<path fill-rule="evenodd" clip-rule="evenodd" d="M42.5925 9.32882C42.6991 9.33697 42.7871 9.41531 42.8076 9.52026L45.1714 21.6187L45.8063 22.9838C45.8596 23.0983 45.814 23.2345 45.7025 23.2938L35.9521 28.4854C35.8653 28.5316 35.7591 28.5196 35.6848 28.4553C35.6105 28.391 35.5834 28.2875 35.6167 28.1951L42.3507 9.48534C42.3869 9.38473 42.4858 9.32068 42.5925 9.32882ZM36.2728 27.776L45.2803 22.98L44.7281 21.7929C44.72 21.7755 44.7138 21.7572 44.7102 21.7383L42.5062 10.457L36.2728 27.776Z" fill="#0057FF"/>
<path fill-rule="evenodd" clip-rule="evenodd" d="M54.7273 20.93C54.7464 21.0526 54.6681 21.1692 54.5475 21.1979L45.6456 23.3155C45.5357 23.3417 45.4226 23.2869 45.375 23.1845L44.7281 21.7929C44.6952 21.7222 44.6989 21.6401 44.7383 21.5728C44.7777 21.5055 44.8476 21.4618 44.9254 21.4559L54.4744 20.7297C54.5981 20.7203 54.7082 20.8075 54.7273 20.93ZM45.3037 21.9039L45.7243 22.8081L51.5095 21.4319L45.3037 21.9039Z" fill="#0057FF"/>
<path fill-rule="evenodd" clip-rule="evenodd" d="M36.4619 29.0127C36.5279 29.0647 36.5616 29.1476 36.5505 29.2309L35.4196 37.7252L35.3157 41.2184C35.3118 41.3487 35.2036 41.4516 35.0732 41.4489C34.9428 41.4463 34.8389 41.339 34.8404 41.2086L34.9734 29.6246C34.9746 29.5275 35.0347 29.4408 35.1252 29.4057L36.229 28.9779C36.3073 28.9475 36.3958 28.9608 36.4619 29.0127ZM35.3951 34.3068L36.0262 29.5663L35.447 29.7909L35.3951 34.3068Z" fill="#0057FF"/>
<path fill-rule="evenodd" clip-rule="evenodd" d="M4.02671 27.7566C4.07767 27.6584 4.18972 27.6083 4.29693 27.6359L11.221 29.4162L33.4069 32.8731C33.5019 32.8879 33.5786 32.9584 33.6013 33.0519C33.624 33.1453 33.5882 33.2432 33.5105 33.2999L21.15 42.3312C21.0612 42.3961 20.9394 42.3915 20.8557 42.3203L4.08368 28.0471C3.99937 27.9754 3.97575 27.8549 4.02671 27.7566ZM5.17657 28.3529L21.0209 41.8367L32.7668 33.2545L11.1364 29.8842C11.1288 29.883 11.1213 29.8814 11.1138 29.8795L5.17657 28.3529Z" fill="#0057FF"/>
<path fill-rule="evenodd" clip-rule="evenodd" d="M36.4156 28.9843C36.4743 29.0118 36.5194 29.0622 36.5401 29.1237L37.4941 31.9589L54.4295 51.9838C54.4893 52.0545 54.5026 52.1536 54.4635 52.2375C54.4244 52.3215 54.3401 52.3752 54.2475 52.375L44.0261 52.3534C43.9242 52.3532 43.8338 52.2881 43.8013 52.1915L37.0725 32.1966L35.0295 29.7809C34.9798 29.7222 34.9616 29.6431 34.9806 29.5687C34.9996 29.4942 35.0536 29.4335 35.1252 29.4057L36.229 28.9779C36.2895 28.9544 36.3568 28.9567 36.4156 28.9843ZM36.661 30.9738L36.1687 29.511L35.6078 29.7285L36.661 30.9738ZM37.9056 33.1817L44.1975 51.8784L53.7347 51.8985L37.9056 33.1817Z" fill="#0057FF"/>
<path fill-rule="evenodd" clip-rule="evenodd" d="M54.2327 43.2848C54.3273 43.3178 54.3911 43.4065 54.3921 43.5066L54.4856 52.1353C54.4863 52.1988 54.4615 52.26 54.4167 52.3052C54.372 52.3503 54.3111 52.3751 54.2475 52.375L44.0261 52.3534C43.922 52.3532 43.8301 52.2859 43.7994 52.1864C43.7687 52.087 43.8063 51.9791 43.8921 51.9202L50.95 47.0789L53.9699 43.3594C54.033 43.2816 54.1381 43.2518 54.2327 43.2848ZM53.9239 44.1703L51.2974 47.4053C51.283 47.423 51.2663 47.4385 51.2475 47.4514L44.791 51.8802L54.0076 51.8996L53.9239 44.1703Z" fill="#0057FF"/>
<path fill-rule="evenodd" clip-rule="evenodd" d="M47.3951 30.554C47.5041 30.521 47.6212 30.57 47.6742 30.6709L54.3651 43.3981C54.3826 43.4314 54.3917 43.469 54.3921 43.5066L54.4856 52.1353C54.4867 52.2353 54.4253 52.3249 54.3315 52.3599C54.2378 52.395 54.1321 52.3676 54.0672 52.2914L38.2156 33.6788C38.1636 33.6177 38.1459 33.5346 38.1685 33.4577C38.1912 33.3807 38.251 33.3204 38.3278 33.2971L47.3951 30.554ZM38.813 33.647L54.0034 51.4833L53.9177 43.5686L47.3449 31.0658L38.813 33.647Z" fill="#0057FF"/>
<path fill-rule="evenodd" clip-rule="evenodd" d="M35.1307 29.4039C35.2241 29.3703 35.3285 29.3983 35.3926 29.4741L54.4295 51.9838C54.5039 52.0718 54.5047 52.2008 54.431 52.2895C54.3573 52.3781 54.2306 52.4011 54.1305 52.344L34.9604 41.4181C34.8854 41.3753 34.8394 41.2949 34.8404 41.2086L34.9734 29.6246C34.9746 29.5254 35.0373 29.4375 35.1307 29.4039ZM35.4415 30.2681L35.3174 41.0743L53.2004 51.2668L35.4415 30.2681Z" fill="#0057FF"/>
<path fill-rule="evenodd" clip-rule="evenodd" d="M9.90735 15.5204C9.9784 15.4724 10.0698 15.4663 10.1466 15.5046L30.2047 25.5066C30.3001 25.5542 30.3522 25.6595 30.332 25.7642C30.3119 25.8689 30.2245 25.9473 30.1183 25.9561L11.2387 27.5232L11.41 29.6297C11.4162 29.7063 11.385 29.7812 11.3262 29.8307C11.2674 29.8803 11.1883 29.8987 11.1138 29.8795L4.17854 28.0959C4.06618 28.067 3.99109 27.9612 4.00087 27.8456C4.01066 27.73 4.10246 27.6384 4.21807 27.6288L10.7264 27.0886L9.80359 15.7366C9.79664 15.6511 9.83629 15.5685 9.90735 15.5204ZM11.2002 27.0493L29.2319 25.5527L10.3116 16.1181L11.2002 27.0493ZM10.7649 27.5625L5.66061 27.9861L10.9091 29.3356L10.7649 27.5625Z" fill="#0057FF"/>
<path fill-rule="evenodd" clip-rule="evenodd" d="M9.91372 15.5164C9.98847 15.4691 10.0833 15.4673 10.1598 15.5116L37.4408 31.3056C37.5194 31.3511 37.5652 31.4374 37.5588 31.528C37.5524 31.6186 37.495 31.6977 37.4107 31.7317L33.4595 33.328C33.4197 33.3441 33.3763 33.3491 33.3339 33.3424L11.1364 29.8842C11.0278 29.8673 10.9452 29.7777 10.9363 29.6682L9.80359 15.7366C9.79643 15.6484 9.83897 15.5636 9.91372 15.5164ZM10.3144 16.1504L11.395 29.4429L33.3423 32.8626L36.7815 31.4732L10.3144 16.1504Z" fill="#0057FF"/>
<path fill-rule="evenodd" clip-rule="evenodd" d="M9.82747 15.6123C9.8853 15.4949 10.0271 15.4463 10.1447 15.5036L10.1466 15.5046L29.9667 25.1521L30.9547 20.0587C30.9736 19.9611 31.0515 19.8851 31.1496 19.869C31.2477 19.8528 31.3455 19.8995 31.3947 19.9859L36.047 28.1579C36.0986 28.2485 36.0851 28.3621 36.0139 28.4381C35.9426 28.5141 35.8301 28.5349 35.7364 28.4893L30.3013 25.8437C30.2782 25.8814 30.2447 25.9124 30.204 25.9325C30.1373 25.9654 30.0592 25.9652 29.9927 25.932L9.93667 15.931L9.93462 15.93C9.81754 15.8716 9.76965 15.7296 9.82747 15.6123ZM30.4092 25.3675L35.2539 27.7257L31.2992 20.7791L30.4092 25.3675Z" fill="#0057FF"/>
<path fill-rule="evenodd" clip-rule="evenodd" d="M30.5538 15.4618C30.6746 15.4114 30.8134 15.4682 30.8643 15.5888L30.865 15.5906L37.5407 31.4188C37.5804 31.5129 37.5555 31.6219 37.4789 31.6895C37.4023 31.757 37.291 31.7681 37.2026 31.7169L9.9216 15.9229C9.81086 15.8588 9.77075 15.7185 9.83084 15.6055C9.89094 15.4926 10.0297 15.4476 10.1447 15.5036L35.3823 27.788L30.4262 15.7736L30.4255 15.7719C30.3756 15.6508 30.4329 15.5122 30.5538 15.4618ZM35.7976 28.5092C35.7767 28.5054 35.7561 28.4989 35.7364 28.4893L15.8884 18.828L36.8271 30.9501L35.7976 28.5092Z" fill="#0057FF"/>
<path fill-rule="evenodd" clip-rule="evenodd" d="M33.5312 32.9324C33.6147 33.0092 33.6322 33.1344 33.573 33.2312L26.2661 45.1862L16.0841 60.4695C16.0193 60.5669 15.8933 60.6026 15.787 60.5537C15.6807 60.5048 15.6258 60.3859 15.6575 60.2733L20.7808 42.0741C20.7952 42.0229 20.8264 41.978 20.8694 41.9466L33.2299 32.9153C33.3216 32.8484 33.4477 32.8555 33.5312 32.9324ZM21.2161 42.282L16.523 58.9533L25.8678 44.9264L32.5417 34.007L21.2161 42.282Z" fill="#0057FF"/>
<path fill-rule="evenodd" clip-rule="evenodd" d="M35.3825 37.5783C35.4388 37.6664 35.4309 37.7809 35.3631 37.8605L16.0672 60.4927C15.9948 60.5776 15.8729 60.6007 15.7744 60.5481C15.6759 60.4956 15.6272 60.3808 15.6575 60.2733L20.7808 42.0741C20.7933 42.0296 20.8186 41.9903 20.8535 41.9599L21.6589 41.2589C21.6855 41.2357 21.7172 41.2187 21.7512 41.2092L35.1185 37.4773C35.2192 37.4492 35.3262 37.4902 35.3825 37.5783ZM21.9305 41.6527L21.2192 42.2719L16.409 59.359L34.4961 38.1446L21.9305 41.6527Z" fill="#0057FF"/>
<path fill-rule="evenodd" clip-rule="evenodd" d="M35.2677 37.4845C35.3618 37.5208 35.4228 37.6125 35.4198 37.7134L35.3157 41.2184C35.313 41.311 35.2564 41.3939 35.1712 41.4303L30.6896 43.342L16.0672 60.4927C15.9856 60.5884 15.8435 60.604 15.7431 60.5281C15.6427 60.4523 15.6187 60.3114 15.6885 60.2066L25.8703 44.9232C25.896 44.8847 25.9323 44.8545 25.9749 44.8364L30.4003 42.9486L35.0013 37.5521C35.0668 37.4753 35.1735 37.4482 35.2677 37.4845ZM31.3821 42.5298L34.8449 41.0527L34.9245 38.3749L31.3821 42.5298ZM29.7078 43.7609L26.2267 45.2458L18.3093 57.1301L29.7078 43.7609Z" fill="#0057FF"/>
<path fill-rule="evenodd" clip-rule="evenodd" d="M30.4634 15.528C30.521 15.4597 30.6121 15.4294 30.6991 15.4497L37.0376 16.9274C37.1162 16.9457 37.1801 17.0026 37.2074 17.0786C37.2346 17.1545 37.2215 17.2391 37.1725 17.3032L33.5733 22.0122L37.5407 31.4188C37.5726 31.4944 37.5631 31.581 37.5159 31.6481C37.4686 31.7151 37.3902 31.7531 37.3083 31.7485L26.4649 31.1409C26.377 31.136 26.299 31.0829 26.2623 31.0029C26.2255 30.9229 26.2359 30.8291 26.2894 30.7592L33.028 21.9427L30.4262 15.7736C30.3915 15.6912 30.4058 15.5964 30.4634 15.528ZM33.3605 21.5077L36.5714 17.3068L31.0454 16.0186L33.3605 21.5077ZM33.2408 22.4472L26.9396 30.6913L36.9545 31.2525L33.2408 22.4472Z" fill="#0057FF"/>
<path fill-rule="evenodd" clip-rule="evenodd" d="M30.4634 15.528C30.521 15.4597 30.6121 15.4294 30.6991 15.4497L37.0376 16.9274C37.0665 16.9341 37.0939 16.9462 37.1184 16.9631L45.7255 22.8881C45.7939 22.9351 45.8327 23.0145 45.828 23.0974C45.8233 23.1802 45.7758 23.2548 45.7025 23.2938L35.9521 28.4854C35.8929 28.5169 35.823 28.5218 35.7599 28.4991C35.6967 28.4764 35.6461 28.4281 35.6205 28.3661L30.4255 15.7719C30.3916 15.6896 30.4057 15.5959 30.4634 15.528ZM31.041 16.0176L35.96 27.9424L45.1337 23.0579L36.8858 17.3802L31.041 16.0176Z" fill="#0057FF"/>
<path fill-rule="evenodd" clip-rule="evenodd" d="M36.8852 16.9427C36.9612 16.9081 37.0496 16.9157 37.1184 16.9631L45.7255 22.8881C45.7736 22.9212 45.808 22.971 45.8218 23.0278L47.6948 30.7255C47.7113 30.7934 47.6973 30.8648 47.6562 30.9213C47.615 30.9778 47.5512 31.0133 47.4815 31.0185L35.3474 31.9173C35.2768 31.9226 35.2076 31.896 35.1585 31.845C35.1094 31.794 35.0857 31.7237 35.0937 31.6534L36.7475 17.1321C36.757 17.0492 36.8092 16.9773 36.8852 16.9427ZM37.1751 17.5793L35.5985 31.422L47.1667 30.5651L45.3813 23.2284L37.1751 17.5793Z" fill="#0057FF"/>
<path fill-rule="evenodd" clip-rule="evenodd" d="M37.0725 16.9385C37.1716 16.9785 37.2319 17.0797 37.2198 17.1859L35.566 31.7072C35.5514 31.8352 35.4374 31.9283 35.309 31.9171L26.4574 31.1405C26.3711 31.1329 26.2957 31.0789 26.2607 30.9996C26.2257 30.9203 26.2367 30.8281 26.2894 30.7592L36.7948 17.0147C36.8597 16.9297 36.9733 16.8986 37.0725 16.9385ZM26.9295 30.7047L35.1198 31.4232L36.6501 17.9868L26.9295 30.7047Z" fill="#0057FF"/>
<path fill-rule="evenodd" clip-rule="evenodd" d="M38.2918 33.3113C38.3894 33.2634 38.507 33.2878 38.5775 33.3705L54.4295 51.9838C54.5039 52.0718 54.5047 52.2008 54.431 52.2895C54.3573 52.3781 54.2306 52.4011 54.1305 52.344L34.9604 41.4181C34.8671 41.3649 34.821 41.2556 34.848 41.1516C34.875 41.0477 34.9683 40.9747 35.0757 40.9736L39.7113 40.9263L38.1639 33.5736C38.1416 33.4672 38.1942 33.3592 38.2918 33.3113ZM38.8217 34.3904L40.2363 41.112C40.2509 41.1817 40.2336 41.2543 40.189 41.3098C40.1444 41.3653 40.0773 41.398 40.0061 41.3987L35.9594 41.44L53.1886 51.2598L38.8217 34.3904Z" fill="#0057FF"/>
<path fill-rule="evenodd" clip-rule="evenodd" d="M35.3471 31.4432C35.4311 31.4494 35.5056 31.4996 35.5428 31.5752L40.2167 41.0559C40.2528 41.1292 40.2488 41.2159 40.206 41.2855C40.1632 41.3551 40.0878 41.3978 40.0061 41.3987L35.1277 41.4485L26.1614 45.2733C26.064 45.3148 25.9509 45.287 25.884 45.2049C25.817 45.1228 25.8125 45.0064 25.8727 44.9193L35.1342 31.545C35.1821 31.4757 35.2632 31.437 35.3471 31.4432ZM26.7325 44.5128L34.9847 40.9927C35.0134 40.9804 35.0444 40.974 35.0757 40.9736L39.6232 40.9272L35.295 32.1477L26.7325 44.5128Z" fill="#0057FF"/>
<path fill-rule="evenodd" clip-rule="evenodd" d="M47.6976 30.738C47.7198 30.8572 47.6488 30.9739 47.5328 31.009L38.6742 33.689L40.2363 41.112C40.2609 41.2293 40.1946 41.3465 40.0814 41.3857C39.9682 41.4248 39.8435 41.3735 39.7905 41.2661L35.1167 31.7854C35.0817 31.7145 35.0843 31.6309 35.1235 31.5623C35.1627 31.4937 35.2335 31.4491 35.3123 31.4432L47.4464 30.5444C47.5672 30.5355 47.6755 30.6189 47.6976 30.738ZM35.6989 31.8913L39.3825 39.3632L38.1639 33.5736C38.1385 33.4529 38.2097 33.3329 38.3278 33.2971L45.3336 31.1776L35.6989 31.8913Z" fill="#0057FF"/>
<path fill-rule="evenodd" clip-rule="evenodd" d="M26.3347 30.7141C26.3817 30.6786 26.4402 30.6617 26.499 30.6669L35.3505 31.4435C35.4349 31.4509 35.509 31.5026 35.5449 31.5793C35.5809 31.6559 35.5734 31.7459 35.5252 31.8156L26.2637 45.1899C26.2075 45.2712 26.1067 45.3092 26.0108 45.2853L12.2553 41.8554C12.1664 41.8332 12.0982 41.762 12.0799 41.6724C12.0615 41.5827 12.0963 41.4904 12.1693 41.4352L26.3347 30.7141ZM26.5486 31.1485L12.8525 41.5143L25.9664 44.7842L34.9014 31.8813L26.5486 31.1485Z" fill="#0057FF"/>
<path fill-rule="evenodd" clip-rule="evenodd" d="M26.3347 30.7141C26.3797 30.6801 26.4352 30.6632 26.4915 30.6663L37.3349 31.2739C37.446 31.2802 37.5379 31.3627 37.5561 31.4725C37.5742 31.5823 37.5139 31.69 37.4107 31.7317L33.4595 33.328L12.4019 41.8451C12.2914 41.8898 12.1649 41.8457 12.106 41.742C12.0472 41.6384 12.0743 41.5071 12.1693 41.4352L26.3347 30.7141ZM26.552 31.1459L13.8864 40.7318L33.2812 32.8872L36.2468 31.6891L26.552 31.1459Z" fill="#0057FF"/>
<path fill-rule="evenodd" clip-rule="evenodd" d="M33.5516 32.9535C33.618 33.0317 33.6265 33.1437 33.573 33.2312L26.2711 45.1783C26.217 45.2669 26.1116 45.3104 26.0108 45.2853L12.2553 41.8554C12.1554 41.8305 12.0828 41.7437 12.0756 41.641C12.0684 41.5383 12.1282 41.4427 12.2236 41.4041L33.2812 32.8872C33.3763 32.8487 33.4853 32.8753 33.5516 32.9535ZM13.0796 41.5706L25.9565 44.7814L32.7921 33.5975L13.0796 41.5706Z" fill="#0057FF"/>
</g>
</svg>
