<svg width="70" height="70" viewBox="0 0 70 70" fill="none" xmlns="http://www.w3.org/2000/svg">
<g opacity="0.7">
<path d="M4 4H70V70H4V4Z" fill="#75EB3E"/>
<path fill-rule="evenodd" clip-rule="evenodd" d="M69 5H5V69H69V5ZM4 4V70H70V4H4Z" fill="#2B2B2B"/>
<path d="M2 2H68V68H2V2Z" fill="#75EB3E"/>
<path fill-rule="evenodd" clip-rule="evenodd" d="M67 3H3V67H67V3ZM2 2V68H68V2H2Z" fill="#2B2B2B"/>
<path d="M0 0H66V66H0V0Z" fill="#75EB3E"/>
<path fill-rule="evenodd" clip-rule="evenodd" d="M65 1H1V65H65V1ZM0 0V66H66V0H0Z" fill="#2B2B2B"/>
<path fill-rule="evenodd" clip-rule="evenodd" d="M49.2603 33.1564C49.4076 33.3189 49.4336 33.5638 49.3238 33.7559L33.8931 60.7564C33.7853 60.945 33.5723 61.0379 33.368 60.9855C33.1638 60.9331 33.0163 60.7476 33.0046 60.5283L32.0401 42.528C32.0297 42.3327 32.1294 42.149 32.2952 42.058L48.6903 33.0579C48.88 32.9537 49.1129 32.994 49.2603 33.1564ZM33.0127 42.7928L33.8726 58.8425L47.6312 34.768L33.0127 42.7928Z" fill="#2B2B2B"/>
<path fill-rule="evenodd" clip-rule="evenodd" d="M48.257 33.247C48.343 33.0943 48.4999 33.0005 48.6696 33.0005H59.5215C59.7153 33.0005 59.89 33.1226 59.9638 33.3096C60.0377 33.4967 59.9961 33.7118 59.8586 33.8544L33.8193 60.8549C33.6487 61.0318 33.3788 61.049 33.1889 60.8951C32.9989 60.7412 32.9479 60.464 33.0696 60.2475L48.257 33.247ZM48.9435 33.9995L35.7637 57.4307L58.3608 33.9995H48.9435Z" fill="#2B2B2B"/>
<path fill-rule="evenodd" clip-rule="evenodd" d="M32.2224 5.10658C32.4124 4.95093 32.6836 4.96745 32.855 5.1451L59.8587 33.1456C59.9962 33.2882 60.0377 33.5033 59.9639 33.6904C59.89 33.8774 59.7154 33.9995 59.5216 33.9995H48.6697C48.5019 33.9995 48.3464 33.9078 48.2598 33.7577L32.108 5.75723C31.9834 5.54127 32.0325 5.26224 32.2224 5.10658ZM34.9182 8.69246L48.94 33.0005H58.3609L34.9182 8.69246Z" fill="#2B2B2B"/>
<path fill-rule="evenodd" clip-rule="evenodd" d="M6.06852 33.2424C6.18383 33.0424 6.41651 32.9524 6.62881 33.0258L32.6681 42.0259C32.8547 42.0904 32.9845 42.2674 32.9954 42.4722L33.9599 60.4725C33.9708 60.6774 33.8607 60.8684 33.6823 60.9542C33.5038 61.04 33.2932 61.0031 33.1513 60.8612L6.14753 33.8608C5.98602 33.6993 5.9532 33.4425 6.06852 33.2424ZM8.33988 34.6696L32.9367 59.2634L32.0583 42.8675L8.33988 34.6696Z" fill="#2B2B2B"/>
<path fill-rule="evenodd" clip-rule="evenodd" d="M32.7195 5.0466C32.904 5.1362 33.0141 5.33789 32.9938 5.54934L31.0259 26.0597C31.0066 26.2613 30.8725 26.4307 30.6865 26.4886L6.6151 33.9787C6.40646 34.0436 6.18215 33.9533 6.0693 33.7589C5.95645 33.5645 5.98354 33.3151 6.13519 33.152L32.1745 5.15158C32.3163 4.99912 32.5349 4.957 32.7195 5.0466ZM8.09895 32.4745L30.1058 25.6268L31.9049 6.87565L8.09895 32.4745Z" fill="#2B2B2B"/>
<path fill-rule="evenodd" clip-rule="evenodd" d="M30.8542 25.5842C30.9704 25.665 31.0469 25.7947 31.0638 25.9394L32.9927 42.4396C33.0127 42.6107 32.9468 42.7805 32.8183 42.8888C32.6898 42.9971 32.5169 43.0286 32.3609 42.9721L6.32163 33.54C6.12409 33.4685 5.99394 33.2713 6.00023 33.0531C6.00652 32.8349 6.14781 32.6462 6.34911 32.5872L30.4596 25.5189C30.5939 25.4796 30.7381 25.5034 30.8542 25.5842ZM8.07685 33.1184L31.9499 41.7657L30.1815 26.6381L8.07685 33.1184Z" fill="#2B2B2B"/>
</g>
</svg>
