<svg width="70" height="70" viewBox="0 0 70 70" fill="none" xmlns="http://www.w3.org/2000/svg">
<g opacity="0.7">
<path d="M4 4H70V70H4V4Z" fill="#75EB3E"/>
<path fill-rule="evenodd" clip-rule="evenodd" d="M69 5H5V69H69V5ZM4 4V70H70V4H4Z" fill="#2B2B2B"/>
<path d="M2 2H68V68H2V2Z" fill="#75EB3E"/>
<path fill-rule="evenodd" clip-rule="evenodd" d="M67 3H3V67H67V3ZM2 2V68H68V2H2Z" fill="#2B2B2B"/>
<path d="M0 0H66V66H0V0Z" fill="#75EB3E"/>
<path fill-rule="evenodd" clip-rule="evenodd" d="M65 1H1V65H65V1ZM0 0V66H66V0H0Z" fill="#2B2B2B"/>
<path fill-rule="evenodd" clip-rule="evenodd" d="M37.1626 7.00499C37.2566 6.99161 37.3525 7.00529 37.439 7.04442L50.7755 13.0752C50.8405 13.1046 50.8985 13.1476 50.9455 13.2012L55.8001 18.7411C55.8317 18.7772 55.858 18.8177 55.8781 18.8613L58.9541 25.5327C58.9843 25.5984 59 25.6698 59 25.7421V40.2579C59 40.3303 58.9843 40.4017 58.954 40.4674L55.8781 47.1356C55.858 47.1791 55.8318 47.2196 55.8002 47.2556L50.9456 52.7987C50.9143 52.8344 50.8781 52.8655 50.838 52.891L44.6096 56.8563C44.5696 56.8818 44.5262 56.9014 44.4806 56.9147L37.3693 58.9802C37.324 58.9933 37.277 59 37.2298 59H29.8221C29.7748 59 29.7279 58.9933 29.6825 58.9801L22.5744 56.9146C22.5289 56.9014 22.4855 56.8818 22.4455 56.8563L16.2139 52.8911C16.1535 52.8526 16.102 52.8016 16.063 52.7415L8.13568 40.5302C8.09638 40.4696 8.07065 40.4013 8.06026 40.3299L7.0052 33.0719C6.99827 33.0242 6.99827 32.9758 7.0052 32.9281L8.06026 25.6701C8.07065 25.5987 8.09638 25.5304 8.13568 25.4698L16.063 13.2585C16.102 13.1984 16.1535 13.1474 16.2139 13.1089L22.4455 9.14367C22.5055 9.10546 22.5731 9.08051 22.6435 9.07049L37.1626 7.00499ZM22.8913 10.0453L16.8425 13.8942L9.0341 25.9224L8.00526 33L9.0341 40.0776L16.8425 52.1058L22.9221 55.9743L29.8932 58H37.1587L44.133 55.9743L50.2405 52.086L55.0003 46.6511L58 40.1482V25.8518L55.0003 19.3457L50.2648 13.9417L37.1595 8.0155L22.8913 10.0453Z" fill="#2B2B2B"/>
<path fill-rule="evenodd" clip-rule="evenodd" d="M16.3988 13.0051C16.5928 13.0329 16.7526 13.1715 16.8077 13.3595L29.9799 58.3595C30.0497 58.5982 29.9335 58.852 29.7072 58.9551C29.4808 59.0581 29.2131 58.9791 29.079 58.7697L8.07898 25.9894C7.97367 25.825 7.97367 25.6144 8.07898 25.45L15.9068 13.2303C16.0125 13.0653 16.2048 12.9772 16.3988 13.0051ZM9.0938 25.7197L28.0411 55.2958L16.1564 14.6944L9.0938 25.7197Z" fill="#2B2B2B"/>
<path fill-rule="evenodd" clip-rule="evenodd" d="M36.7604 7.06177C36.8976 6.98641 37.0622 6.97964 37.2051 7.04349L50.704 13.0742C50.8264 13.1289 50.9217 13.2305 50.9685 13.3561C51.0153 13.4817 51.0098 13.6209 50.953 13.7423L29.953 58.7116C29.848 58.9364 29.594 59.0502 29.3563 58.9789C29.1186 58.9076 28.9692 58.6728 29.0053 58.4272L36.5065 7.42725C36.5292 7.27239 36.6232 7.13713 36.7604 7.06177ZM37.3998 8.22573L30.4915 55.1952L49.8318 13.7799L37.3998 8.22573Z" fill="#2B2B2B"/>
<path fill-rule="evenodd" clip-rule="evenodd" d="M55.4983 19.012C55.7003 19.057 55.8537 19.2219 55.8841 19.4266L58.9946 40.3832C59.0238 40.5803 58.9333 40.7759 58.7641 40.8811L29.7641 58.9245C29.5644 59.0488 29.3051 59.0171 29.1413 58.8483C28.9774 58.6796 28.9533 58.4194 29.0834 58.2235L54.9729 19.2235C55.0874 19.051 55.2963 18.9669 55.4983 19.012ZM31.1884 56.8606L57.9572 40.2054L55.0861 20.8612L31.1884 56.8606Z" fill="#2B2B2B"/>
<path fill-rule="evenodd" clip-rule="evenodd" d="M50.498 13.0052C50.6644 12.981 50.8318 13.0421 50.9436 13.1677L55.8736 18.7114C56.0241 18.8806 56.0421 19.1297 55.9175 19.3188L29.9175 58.7751C29.7733 58.994 29.4845 59.0643 29.2558 58.9363C29.0271 58.8083 28.936 58.5254 29.0472 58.288L50.1172 13.288C50.1885 13.1357 50.3316 13.0294 50.498 13.0052ZM50.7009 14.3996L32.8773 52.466L54.8713 19.0891L50.7009 14.3996Z" fill="#2B2B2B"/>
<path fill-rule="evenodd" clip-rule="evenodd" d="M55.3599 19.02C55.5988 18.9503 55.8525 19.0669 55.9553 19.2934L58.9553 25.9059C58.9848 25.9708 59 26.0412 59 26.1125V40.5C59 40.7624 58.7972 40.9801 58.5354 40.9987C58.2737 41.0173 58.0421 40.8305 58.005 40.5707L55.005 19.5707C54.9698 19.3244 55.1211 19.0897 55.3599 19.02ZM56.4895 22.8913L58 33.4645V26.2206L56.4895 22.8913Z" fill="#2B2B2B"/>
<path fill-rule="evenodd" clip-rule="evenodd" d="M8.36021 25.0199C8.57364 24.9578 8.80248 25.044 8.92183 25.2316L29.9218 58.2316C30.0553 58.4414 30.0144 58.7174 29.8257 58.8794C29.637 59.0414 29.3579 59.0401 29.1707 58.8763L8.17073 40.4994C8.06223 40.4045 8 40.2673 8 40.1231V25.5C8 25.2777 8.14677 25.0821 8.36021 25.0199ZM9 27.217V39.8963L27.2084 55.8302L9 27.217Z" fill="#2B2B2B"/>
<path fill-rule="evenodd" clip-rule="evenodd" d="M8.17063 40.1238C8.35768 39.96 8.63664 39.9586 8.8254 40.1204L29.8254 58.1204C30.0143 58.2823 30.0554 58.5584 29.9219 58.7683C29.7884 58.9782 29.5209 59.0581 29.2942 58.9557L16.1219 53.0049C16.0347 52.9655 15.9606 52.9019 15.9085 52.8217L8.08071 40.7724C7.94527 40.5639 7.98358 40.2876 8.17063 40.1238ZM10.8108 43.1393L16.6672 52.154L26.5221 56.606L10.8108 43.1393Z" fill="#2B2B2B"/>
<path fill-rule="evenodd" clip-rule="evenodd" d="M16.0622 52.2584C16.1889 52.0288 16.4714 51.9361 16.7095 52.046L29.7095 58.046C29.9476 58.1559 30.0603 58.431 29.9679 58.6763C29.8754 58.9217 29.6092 59.0539 29.3578 58.9794L22.4307 56.9244C22.3846 56.9107 22.3408 56.8905 22.3005 56.8643L16.2276 52.9193C16.0077 52.7765 15.9355 52.488 16.0622 52.2584ZM22.5982 55.8652L22.7845 55.9863L22.9971 56.0493L22.5982 55.8652Z" fill="#2B2B2B"/>
<path fill-rule="evenodd" clip-rule="evenodd" d="M37.8557 7.14861C37.9664 7.2607 38.0179 7.41842 37.9945 7.57424L30.338 58.5742C30.3013 58.819 30.091 59 29.8436 59C29.5961 59 29.3858 58.8189 29.3491 58.5742L22.0055 9.63971C21.9857 9.50753 22.0196 9.37291 22.0997 9.26591C22.1798 9.1589 22.2994 9.08841 22.4318 9.07018L37.4318 7.00468C37.5879 6.98319 37.745 7.03652 37.8557 7.14861ZM23.0696 9.99179L29.8437 55.1315L36.9064 8.08647L23.0696 9.99179Z" fill="#2B2B2B"/>
<path fill-rule="evenodd" clip-rule="evenodd" d="M22.7793 9.04462C22.9351 9.11525 23.044 9.26064 23.068 9.43002L29.9951 58.43C30.0318 58.6899 29.8613 58.934 29.6046 58.9889C29.3479 59.0439 29.0924 58.8909 29.0196 58.6387L16.0196 13.6092C15.9587 13.3983 16.0426 13.1722 16.2264 13.0521L22.2993 9.08152C22.4424 8.9879 22.6235 8.97399 22.7793 9.04462ZM17.0829 13.6869L28.0111 51.5402L22.1879 10.3491L17.0829 13.6869Z" fill="#2B2B2B"/>
<path fill-rule="evenodd" clip-rule="evenodd" d="M58.7463 40.0649C58.9743 40.194 59.064 40.4772 58.9519 40.714L55.849 47.2668C55.8283 47.3106 55.8013 47.3511 55.7689 47.3871L50.8718 52.8343C50.6966 53.0292 50.4005 53.0557 50.1934 52.895C49.9863 52.7342 49.9386 52.4408 50.084 52.2227L58.084 40.2227C58.2293 40.0046 58.5183 39.9358 58.7463 40.0649ZM54.7542 47.0201L54.9765 46.7729L55.1173 46.4755L54.7542 47.0201Z" fill="#2B2B2B"/>
<path fill-rule="evenodd" clip-rule="evenodd" d="M58.8832 40.1788C59.043 40.3695 59.0383 40.6487 58.8722 40.8339L44.5543 56.7958C44.4754 56.8837 44.3679 56.9409 44.2509 56.9572L29.5687 58.9953C29.3348 59.0277 29.11 58.8921 29.0298 58.6699C28.9495 58.4478 29.0356 58.1998 29.2363 58.0752L58.2363 40.0752C58.4477 39.944 58.7234 39.9882 58.8832 40.1788ZM31.7688 57.6803L43.9321 55.9918L55.7937 42.7683L31.7688 57.6803Z" fill="#2B2B2B"/>
<path fill-rule="evenodd" clip-rule="evenodd" d="M58.8015 40.1012C59.0108 40.2593 59.0622 40.5523 58.9194 40.7723L51.0779 52.8503C51.0389 52.9104 50.9874 52.9613 50.9271 52.9998L44.7686 56.9217C44.5588 57.0554 44.2827 57.0144 44.1207 56.8257C43.9586 56.637 43.9599 56.3579 44.1237 56.1708L58.1237 40.1708C58.2964 39.9734 58.5923 39.943 58.8015 40.1012ZM47.172 54.2056L50.2983 52.2146L54.2789 46.0834L47.172 54.2056Z" fill="#2B2B2B"/>
<path fill-rule="evenodd" clip-rule="evenodd" d="M44.9901 56.4011C45.0422 56.6591 44.8853 56.9133 44.6313 56.9824L37.2845 58.9824C37.2417 58.9941 37.1975 59 37.1531 59H29.5C29.2367 59 29.0185 58.7958 29.0011 58.5331C28.9837 58.2704 29.1729 58.0392 29.4339 58.0044L44.4339 56.0044C44.6948 55.9696 44.938 56.1431 44.9901 56.4011ZM37.0332 58H37.0863L37.1373 57.9861L37.0332 58Z" fill="#2B2B2B"/>
<path fill-rule="evenodd" clip-rule="evenodd" d="M8.53311 25.0011C8.79582 25.0185 9 25.2367 9 25.5V40.5C9 40.7633 8.79582 40.9815 8.53311 40.9989C8.2704 41.0163 8.03918 40.8271 8.00439 40.5661L7.00439 33.0661C6.99854 33.0222 6.99854 32.9778 7.00439 32.9339L8.00439 25.4339C8.03918 25.1729 8.2704 24.9837 8.53311 25.0011Z" fill="#2B2B2B"/>
</g>
</svg>
