<svg width="70" height="70" viewBox="0 0 70 70" fill="none" xmlns="http://www.w3.org/2000/svg">
<g opacity="0.7">
<path d="M4 4H70V70H4V4Z" fill="#75EB3E"/>
<path fill-rule="evenodd" clip-rule="evenodd" d="M69 5H5V69H69V5ZM4 4V70H70V4H4Z" fill="#2B2B2B"/>
<path d="M2 2H68V68H2V2Z" fill="#75EB3E"/>
<path fill-rule="evenodd" clip-rule="evenodd" d="M67 3H3V67H67V3ZM2 2V68H68V2H2Z" fill="#2B2B2B"/>
<path d="M0 0H66V66H0V0Z" fill="#75EB3E"/>
<path fill-rule="evenodd" clip-rule="evenodd" d="M65 1H1V65H65V1ZM0 0V66H66V0H0Z" fill="#2B2B2B"/>
<path fill-rule="evenodd" clip-rule="evenodd" d="M32.8556 14.5917L33.0433 14.7036L51.6733 25.6958V47.8999L32.8556 59L14.038 47.8999V25.6958L32.8556 14.5917ZM14.7886 26.1353V47.2326L32.668 36.684V15.5866L14.7886 26.1353ZM33.0433 36.684L50.9187 47.2326V26.1353L33.0433 15.5866V36.684ZM32.8556 37.0076L14.9763 47.5523L32.8556 58.101L50.731 47.5523L32.8556 37.0076Z" fill="#2B2B2B"/>
<path fill-rule="evenodd" clip-rule="evenodd" d="M32.8048 36.2099L14.4703 25.3619L13.9966 26.1981L32.8048 37.3264L51.613 26.1981L51.1393 25.3619L32.8048 36.2099Z" fill="#2B2B2B"/>
<path fill-rule="evenodd" clip-rule="evenodd" d="M14.4285 53.5823C18.0091 53.5823 20.9116 50.6159 20.9116 46.9567C20.9116 43.2974 18.0091 40.3311 14.4285 40.3311C10.848 40.3311 7.94545 43.2974 7.94545 46.9567C7.94545 50.6159 10.848 53.5823 14.4285 53.5823ZM14.4285 54.5485C18.5312 54.5485 21.8571 51.1495 21.8571 46.9567C21.8571 42.7638 18.5312 39.3648 14.4285 39.3648C10.3259 39.3648 7 42.7638 7 46.9567C7 51.1495 10.3259 54.5485 14.4285 54.5485Z" fill="#2B2B2B"/>
<path fill-rule="evenodd" clip-rule="evenodd" d="M51.5715 53.5823C55.152 53.5823 58.0545 50.6159 58.0545 46.9567C58.0545 43.2974 55.152 40.3311 51.5715 40.3311C47.9909 40.3311 45.0884 43.2974 45.0884 46.9567C45.0884 50.6159 47.9909 53.5823 51.5715 53.5823ZM51.5715 54.5485C55.6741 54.5485 59 51.1495 59 46.9567C59 42.7638 55.6741 39.3648 51.5715 39.3648C47.4688 39.3648 44.1429 42.7638 44.1429 46.9567C44.1429 51.1495 47.4688 54.5485 51.5715 54.5485Z" fill="#2B2B2B"/>
<path fill-rule="evenodd" clip-rule="evenodd" d="M32.8045 21.2175C36.385 21.2175 39.2876 18.2511 39.2876 14.5918C39.2876 10.9326 36.385 7.96624 32.8045 7.96624C29.224 7.96624 26.3214 10.9326 26.3214 14.5918C26.3214 18.2511 29.224 21.2175 32.8045 21.2175ZM32.8045 22.1837C36.9072 22.1837 40.2331 18.7847 40.2331 14.5918C40.2331 10.399 36.9072 7 32.8045 7C28.7019 7 25.376 10.399 25.376 14.5918C25.376 18.7847 28.7019 22.1837 32.8045 22.1837Z" fill="#2B2B2B"/>
<path fill-rule="evenodd" clip-rule="evenodd" d="M32.8045 43.5935C36.385 43.5935 39.2876 40.6271 39.2876 36.9679C39.2876 33.3087 36.385 30.3423 32.8045 30.3423C29.224 30.3423 26.3214 33.3087 26.3214 36.9679C26.3214 40.6271 29.224 43.5935 32.8045 43.5935ZM32.8045 44.5597C36.9072 44.5597 40.2331 41.1608 40.2331 36.9679C40.2331 32.775 36.9072 29.3761 32.8045 29.3761C28.7019 29.3761 25.376 32.775 25.376 36.9679C25.376 41.1608 28.7019 44.5597 32.8045 44.5597Z" fill="#2B2B2B"/>
</g>
</svg>
