<svg width="155" height="140" viewBox="0 0 155 140" fill="none" xmlns="http://www.w3.org/2000/svg">
<path d="M93.344 14.0267L108.335 37.1114L108.731 37.7207L109.433 37.5327L136.02 30.4086L118.698 51.7998L118.241 52.3644L118.637 52.9737L133.628 76.0584L107.931 66.1942L107.253 65.9339L106.795 66.4985L89.473 87.8897L90.9136 60.4021L90.9516 59.6765L90.2733 59.4162L64.5762 49.552L91.1637 42.4279L91.8654 42.2399L91.9035 41.5143L93.344 14.0267Z" fill="#FF2756" stroke="#2B2B2B" stroke-width="2"/>
<path d="M67.4378 32.1712L82.4291 55.2559L82.8248 55.8652L83.5266 55.6772L110.114 48.5531L92.7918 69.9443L92.3346 70.5089L92.7303 71.1183L107.722 94.203L82.0245 84.3388L81.3463 84.0784L80.889 84.643L63.5668 106.034L65.0074 78.5466L65.0454 77.8211L64.3671 77.5607L38.67 67.6965L65.2574 60.5724L65.9592 60.3844L65.9972 59.6588L67.4378 32.1712Z" fill="#FF2756" stroke="#2B2B2B" stroke-width="2"/>
<path d="M41.5237 50.5267L56.5151 73.6114L56.9108 74.2207L57.6126 74.0327L84.2 66.9086L66.8777 88.2998L66.4205 88.8644L66.8162 89.4737L81.8076 112.558L56.1105 102.694L55.4322 102.434L54.975 102.998L37.6527 124.39L39.0933 96.9021L39.1313 96.1765L38.453 95.9162L12.7559 86.052L39.3433 78.9279L40.0451 78.7399L40.0832 78.0143L41.5237 50.5267Z" fill="#FF2756" stroke="#2B2B2B" stroke-width="2"/>
</svg>
