<svg width="142" height="128" viewBox="0 0 142 128" fill="none" xmlns="http://www.w3.org/2000/svg">
<mask id="mask0_3199_49285" style="mask-type:alpha" maskUnits="userSpaceOnUse" x="0" y="0" width="142" height="128">
<rect width="142" height="128" fill="#D9D9D9"/>
</mask>
<g mask="url(#mask0_3199_49285)">
<path d="M92.7134 4.92995L107.855 28.2453L108.25 28.8546L108.952 28.6666L135.805 21.4713L118.31 43.0763L117.853 43.6409L118.248 44.2502L133.389 67.5656L107.436 57.6028L106.757 57.3425L106.3 57.9071L88.8047 79.512L90.2597 51.7498L90.2977 51.0242L89.6194 50.7638L63.6655 40.8011L90.5186 33.6058L91.2204 33.4178L91.2584 32.6922L92.7134 4.92995Z" fill="#F8F7F6" stroke="#FF2756" stroke-width="2"/>
<path d="M62.8014 27.1258L77.9426 50.4411L78.3383 51.0504L79.04 50.8624L105.893 43.6671L88.3978 65.2721L87.9406 65.8367L88.3363 66.446L103.477 89.7614L77.5236 79.7986L76.8453 79.5383L76.3881 80.1029L58.8927 101.708L60.3477 73.9456L60.3857 73.22L59.7074 72.9596L33.7535 62.9969L60.6066 55.8016L61.3084 55.6136L61.3464 54.888L62.8014 27.1258Z" fill="#F8F7F6" stroke="#FF2756" stroke-width="2"/>
<path d="M32.8894 49.126L48.0306 72.4413L48.4263 73.0507L49.1281 72.8626L75.9812 65.6674L58.4858 87.2723L58.0286 87.8369L58.4243 88.4463L73.5655 111.762L47.6116 101.799L46.9333 101.539L46.4761 102.103L28.9807 123.708L30.4357 95.9458L30.4737 95.2203L29.7954 94.9599L3.84153 84.9971L30.6946 77.8019L31.3964 77.6138L31.4344 76.8883L32.8894 49.126Z" fill="#F8F7F6" stroke="#FF2756" stroke-width="2"/>
</g>
</svg>
