<svg width="23" height="13" viewBox="0 0 23 13" fill="none" xmlns="http://www.w3.org/2000/svg">
<path d="M0.471405 1.78488C0.211055 1.52453 0.211055 1.10242 0.471405 0.842072C0.731754 0.581723 1.15386 0.581723 1.41421 0.842072L11.7851 11.213C12.0455 11.4733 12.0455 11.8954 11.7851 12.1558C11.5248 12.4161 11.1027 12.4161 10.8423 12.1558L0.471405 1.78488Z" fill="#2B2B2B"/>
<path d="M21.2132 0.842075C21.4736 0.581726 21.8957 0.581727 22.156 0.842076C22.4164 1.10243 22.4164 1.52453 22.156 1.78488L11.7851 12.1558C11.5248 12.4161 11.1027 12.4161 10.8423 12.1558C10.582 11.8954 10.582 11.4733 10.8423 11.213L21.2132 0.842075Z" fill="#2B2B2B"/>
</svg>
