<svg width="158" height="138" viewBox="0 0 158 138" fill="none" xmlns="http://www.w3.org/2000/svg">
<rect x="0.487563" y="66.75" width="128.617" height="74.3181" transform="rotate(-28.4252 0.487563 66.75)" fill="#753EEB" stroke="#2B2B2B" stroke-width="1.20069"/>
<rect x="5.14088" y="68.1343" width="121.751" height="67.4528" transform="rotate(-28.4252 5.14088 68.1343)" fill="#753EEB" stroke="#2B2B2B" stroke-width="1.20069"/>
<rect x="10.343" y="69.2236" width="113.638" height="60.5874" transform="rotate(-28.4252 10.343 69.2236)" fill="#753EEB" stroke="#2B2B2B" stroke-width="1.20069"/>
<path d="M39.9439 101.832L27.2976 78.4671L32.8875 75.4415C34.2692 74.6936 35.4079 74.4969 36.3035 74.8513C37.2201 75.1943 38.0126 75.9834 38.6812 77.2187L40.619 80.7987C41.5482 82.5154 41.5456 83.9109 40.6111 84.9851C42.2553 84.772 43.5533 85.5447 44.5051 87.3033L47.2418 92.3593C47.9557 93.6782 48.2082 94.895 47.9994 96.0096C47.8002 97.0919 47.0621 97.9787 45.785 98.6699L39.9439 101.832ZM38.798 88.687L37.7303 89.2649L41.7078 96.6134L42.7755 96.0354C43.3198 95.7408 43.6182 95.4169 43.6707 95.0637C43.7231 94.7105 43.602 94.2617 43.3074 93.7174L40.9957 89.4465C40.7124 88.9231 40.4142 88.5972 40.1011 88.4689C39.7767 88.3197 39.3424 88.3923 38.798 88.687ZM33.6307 79.1402L32.563 79.7182L35.8436 85.7791L36.9113 85.2012C37.7278 84.7592 37.8414 83.9939 37.2521 82.9053L35.6544 79.9533C35.3711 79.4299 35.0729 79.1041 34.7598 78.9758C34.4677 78.8361 34.0913 78.8909 33.6307 79.1402ZM56.7049 92.7593L53.8542 88.6178L51.2477 90.0286L53.1877 94.6631L50.0159 96.3799L40.2273 71.4687L44.4354 69.191L60.1279 90.9066L56.7049 92.7593ZM45.9741 77.2099L49.7378 86.3388L51.5906 85.336L45.9741 77.2099ZM63.9796 82.6906L61.039 77.2577L64.5248 75.371L67.4485 80.7724C69.2729 84.1431 68.7719 86.5933 65.9456 88.1231L65.1605 88.5481C62.2504 90.1232 59.9058 89.2673 58.1267 85.9804L50.4098 71.7231C49.6845 70.3832 49.4189 69.0923 49.6129 67.8504C49.7956 66.5875 50.6301 65.5538 52.1166 64.7492L52.9331 64.3073C53.8543 63.8087 54.6921 63.5312 55.4465 63.4747C56.2219 63.4069 56.8873 63.5611 57.4428 63.9371C57.9983 64.3132 58.4538 64.7298 58.8096 65.187C59.1749 65.6118 59.5388 66.1592 59.9014 66.8292L62.1622 71.0059L58.6763 72.8926L56.4496 68.7787C55.8944 67.7529 55.219 67.4553 54.4234 67.8859C54.0047 68.1125 53.7796 68.3968 53.7481 68.7387C53.7262 69.0483 53.8625 69.4752 54.1572 70.0196L61.6702 83.9C62.2481 84.9677 62.9139 85.2976 63.6676 84.8897C64.4422 84.4704 64.5462 83.7374 63.9796 82.6906ZM69.3446 72.8028L74.8349 82.9462L71.2863 84.8669L58.64 61.5026L62.1886 59.5818L67.2539 68.9401L64.9835 58.069L68.4379 56.1993L71.0218 68.8497L81.4297 79.3767L77.7869 81.3484L69.3446 72.8028ZM69.3737 55.6928L77.4444 51.3244L79.2802 54.716L74.758 57.1636L78.0726 63.2874L81.6212 61.3666L83.542 64.9152L79.9933 66.836L83.6479 73.5878L88.3584 71.0381L90.2792 74.5867L82.02 79.0572L69.3737 55.6928ZM78.666 50.6632L81.8691 48.9294L91.6974 59.8107L84.9153 47.2806L88.1499 45.5299L100.796 68.8942L97.9071 70.458L87.2404 58.853L94.5155 72.2938L91.3123 74.0275L78.666 50.6632ZM102.23 68.1182L89.5837 44.7538L95.0165 41.8132C96.4611 41.0313 97.6966 40.8633 98.723 41.3093C99.7381 41.7344 100.642 42.6797 101.435 44.1452L109.135 58.3711C110.813 61.4696 110.322 63.7384 107.663 65.1775L102.23 68.1182ZM94.8491 46.0048L103.943 62.8058L104.791 62.3469C105.314 62.0636 105.596 61.7349 105.638 61.3607C105.688 60.9543 105.538 60.4266 105.187 59.7776L98.0646 46.6194C97.702 45.9495 97.3528 45.5294 97.0171 45.3592C96.6813 45.189 96.2936 45.2229 95.854 45.4609L94.8491 46.0048ZM118.638 53.0244L115.781 54.5712L113.741 50.8028C113.186 49.7769 112.841 48.9892 112.706 48.4397C112.57 47.8902 112.523 47.0769 112.562 45.9998L112.64 43.9681C112.682 43.2956 112.637 42.7378 112.506 42.2947C112.363 41.8307 112.099 41.2428 111.714 40.5309L110.796 38.8351C110.546 38.3746 110.314 38.0945 110.097 37.995C109.87 37.8746 109.578 37.9107 109.222 38.1033C108.866 38.296 108.687 38.5148 108.684 38.7599C108.67 38.9841 108.788 39.3264 109.037 39.787L111.077 43.5555L107.685 45.3912L105.646 41.6228C104.841 40.1363 104.501 38.8585 104.626 37.7892C104.74 36.699 105.551 35.746 107.058 34.9301L107.749 34.5562C109.298 33.7176 110.575 33.5004 111.578 33.9045C112.603 34.2973 113.506 35.216 114.288 36.6606L115.546 38.9845C116.317 40.4081 116.605 42.0657 116.411 43.9574L116.156 45.9629C116.079 46.8709 116.102 47.5891 116.226 48.1177C116.339 48.6253 116.65 49.3502 117.16 50.2923L118.638 53.0244ZM119.283 53.6905L121.459 57.7102L118.193 59.478L116.017 55.4583L119.283 53.6905Z" fill="white"/>
</svg>
