<svg width="83" height="75" viewBox="0 0 83 75" fill="none" xmlns="http://www.w3.org/2000/svg">
<rect x="7.29352" y="43.7737" width="59.6819" height="34.4857" transform="rotate(-41.2695 7.29352 43.7737)" fill="#753EEB" stroke="#2B2B2B" stroke-width="0.557152"/>
<rect x="9.54157" y="43.9197" width="56.4961" height="31.3" transform="rotate(-41.2695 9.54157 43.9197)" fill="#753EEB" stroke="#2B2B2B" stroke-width="0.557152"/>
<rect x="12.0074" y="43.876" width="52.7312" height="28.1143" transform="rotate(-41.2695 12.0074 43.876)" fill="#753EEB" stroke="#2B2B2B" stroke-width="0.557152"/>
<path d="M28.6993 55.5021L20.5677 46.2361L22.7846 44.2907C23.3326 43.8098 23.8274 43.6033 24.2692 43.6712C24.7192 43.7319 25.1592 44.0072 25.5891 44.497L26.8351 45.9168C27.4326 46.5976 27.5753 47.2292 27.2634 47.8116C27.9852 47.5456 28.6522 47.7613 29.2642 48.4587L31.0239 50.4639C31.4829 50.9869 31.7227 51.5114 31.7432 52.0372C31.7647 52.5474 31.5223 53.0247 31.0158 53.4692L28.6993 55.5021ZM26.825 49.6734L26.4015 50.0451L28.959 52.9593L29.3825 52.5877C29.5984 52.3983 29.6999 52.221 29.6872 52.0557C29.6745 51.8905 29.5734 51.7 29.384 51.4841L27.8976 49.7904C27.7154 49.5828 27.5469 49.4661 27.392 49.4404C27.2299 49.4063 27.0408 49.484 26.825 49.6734ZM23.5024 45.8874L23.0789 46.259L25.1883 48.6626L25.6118 48.291C25.9356 48.0069 25.9081 47.6489 25.5292 47.2172L24.5018 46.0465C24.3196 45.8389 24.1511 45.7222 23.9962 45.6965C23.8497 45.6634 23.6851 45.7271 23.5024 45.8874ZM35.3464 49.6687L33.6295 48.089L32.5958 48.9962L33.9516 50.8928L32.6937 51.9967L25.6955 41.7362L27.3643 40.2716L36.704 48.4774L35.3464 49.6687ZM28.8876 43.7408L31.5321 47.4826L32.2669 46.8378L28.8876 43.7408ZM37.599 44.363L35.7082 42.2084L37.0906 40.9952L38.9705 43.1373C40.1436 44.4741 40.1697 45.6343 39.0488 46.6179L38.7375 46.8912C37.5834 47.904 36.4344 47.7586 35.2904 46.4551L30.3284 40.8009C29.8621 40.2695 29.6088 39.7129 29.5684 39.131C29.5208 38.5408 29.7917 37.9871 30.3812 37.4697L30.705 37.1856C31.0704 36.865 31.4208 36.653 31.7563 36.5496C32.1001 36.4389 32.417 36.44 32.7071 36.5529C32.9972 36.6657 33.2463 36.8072 33.4544 36.9773C33.6635 37.1319 33.8846 37.342 34.1178 37.6077L35.5714 39.2641L34.189 40.4773L32.7572 38.8458C32.4002 38.4389 32.0639 38.3739 31.7484 38.6508C31.5824 38.7966 31.5099 38.9484 31.5309 39.1063C31.5529 39.2486 31.6586 39.4277 31.8481 39.6436L36.6789 45.1484C37.0505 45.5718 37.3858 45.6524 37.6847 45.3901C37.9919 45.1205 37.9633 44.7781 37.599 44.363ZM39.0063 39.3361L42.5365 43.3588L41.1292 44.5939L32.9976 35.328L34.4049 34.0929L37.6619 37.8043L35.5134 33.1202L36.8833 31.9179L39.3572 37.3747L45.1519 41.0636L43.7072 42.3315L39.0063 39.3361ZM37.2544 31.5923L40.4551 28.7834L41.6355 30.1284L39.8421 31.7023L41.9734 34.1309L43.3807 32.8958L44.6157 34.3031L43.2084 35.5382L45.5583 38.2158L47.4264 36.5764L48.6614 37.9837L45.386 40.8582L37.2544 31.5923ZM40.9396 28.3582L42.2099 27.2434L47.7789 31.1525L43.418 26.1833L44.7008 25.0575L52.8323 34.3234L51.6865 35.329L45.6636 31.179L50.3415 36.5094L49.0712 37.6242L40.9396 28.3582ZM53.4009 33.8244L45.2694 24.5585L47.4239 22.6677C47.9968 22.165 48.5385 21.9615 49.0488 22.0574C49.5519 22.145 50.0585 22.4794 50.5685 23.0606L55.5196 28.7024C56.598 29.9312 56.61 31.0083 55.5555 31.9336L53.4009 33.8244ZM47.7806 24.5814L53.6279 31.2444L53.9641 30.9493C54.1717 30.7671 54.2655 30.5893 54.2455 30.4157C54.2265 30.2266 54.1041 30.0034 53.8782 29.746L49.2987 24.5277C49.0656 24.262 48.8643 24.108 48.6948 24.0656C48.5254 24.0233 48.3535 24.0786 48.1791 24.2316L47.7806 24.5814ZM59.2674 25.3032L58.1341 26.2978L56.8225 24.8033C56.4655 24.3964 56.2281 24.0757 56.1103 23.841C55.9926 23.6063 55.8871 23.2433 55.7939 22.7519L55.6195 21.8246C55.5692 21.5161 55.4914 21.2684 55.3861 21.0815C55.2736 20.8863 55.0935 20.6475 54.8458 20.3652L54.2556 19.6927C54.0953 19.51 53.9611 19.4073 53.853 19.3846C53.7376 19.3536 53.6093 19.4001 53.4681 19.5239C53.327 19.6478 53.2685 19.7653 53.2925 19.8765C53.3093 19.9793 53.3978 20.1221 53.5581 20.3047L54.8697 21.7992L53.5246 22.9796L52.2131 21.4851C51.6958 20.8956 51.4102 20.3526 51.3565 19.8559C51.2955 19.351 51.5639 18.8362 52.1617 18.3116L52.4357 18.0711C53.0501 17.5319 53.6052 17.302 54.101 17.3813C54.6051 17.4533 55.1085 17.7757 55.6113 18.3486L56.4201 19.2702C56.9156 19.8348 57.2169 20.555 57.3242 21.4309L57.416 22.3645C57.4748 22.7832 57.5594 23.1057 57.6699 23.3321C57.7731 23.5502 57.9886 23.846 58.3165 24.2197L59.2674 25.3032ZM59.6278 25.538L61.0268 27.1322L59.7316 28.2688L58.3326 26.6747L59.6278 25.538Z" fill="white"/>
</svg>
