<svg width="168" height="180" viewBox="0 0 168 180" fill="none" xmlns="http://www.w3.org/2000/svg">
<rect x="29.0637" y="139.828" width="128.617" height="74.3181" transform="rotate(-72.4134 29.0637 139.828)" fill="#753EEB" stroke="#2B2B2B" stroke-width="1.20069"/>
<rect x="33.3728" y="137.592" width="121.751" height="67.4528" transform="rotate(-72.4134 33.3728 137.592)" fill="#753EEB" stroke="#2B2B2B" stroke-width="1.20069"/>
<rect x="37.8718" y="134.763" width="113.638" height="60.5874" transform="rotate(-72.4134 37.8718 134.763)" fill="#753EEB" stroke="#2B2B2B" stroke-width="1.20069"/>
<path d="M81.8165 137.665L56.4908 129.638L58.4113 123.579C58.8861 122.081 59.5687 121.149 60.4592 120.782C61.3569 120.392 62.4752 120.409 63.8141 120.834L67.6946 122.064C69.5555 122.654 70.5228 123.659 70.5965 125.081C71.6314 123.786 73.1019 123.441 75.0082 124.045L80.4886 125.782C81.9182 126.235 82.945 126.935 83.5689 127.882C84.1772 128.799 84.262 129.95 83.8233 131.334L81.8165 137.665ZM71.863 129.004L71.4962 130.161L79.4615 132.686L79.8283 131.529C80.0153 130.939 80.005 130.498 79.7975 130.208C79.5899 129.917 79.1911 129.678 78.601 129.491L73.9716 128.024C73.4043 127.844 72.9635 127.817 72.6491 127.942C72.312 128.06 72.05 128.414 71.863 129.004ZM61.5149 125.724L61.1481 126.881L67.7177 128.964L68.0846 127.806C68.3651 126.921 67.9153 126.292 66.7353 125.918L63.5355 124.904C62.9682 124.724 62.5274 124.696 62.213 124.821C61.9058 124.924 61.6731 125.225 61.5149 125.724ZM87.575 119.497L82.6476 118.498L81.7521 121.323L86.3666 123.31L85.2769 126.748L60.9331 115.623L62.3789 111.062L88.751 115.787L87.575 119.497ZM69.0551 115.763L78.1031 119.717L78.7397 117.708L69.0551 115.763ZM85.8162 107.201L79.9273 105.334L81.1249 101.556L86.9797 103.412C90.6333 104.57 91.9746 106.68 91.0036 109.744L90.7339 110.595C89.734 113.749 87.4527 114.762 83.8899 113.633L68.4358 108.734C66.9835 108.274 65.8958 107.53 65.1729 106.501C64.4272 105.466 64.3098 104.142 64.8204 102.531L65.101 101.646C65.4175 100.648 65.8275 99.8662 66.3311 99.3016C66.8419 98.7143 67.4277 98.3631 68.0886 98.2479C68.7494 98.1327 69.3665 98.116 69.9399 98.1979C70.4978 98.2498 71.1399 98.3909 71.8661 98.6211L76.3934 100.056L75.1957 103.834L70.7365 102.421C69.6246 102.069 68.9319 102.324 68.6586 103.186C68.5147 103.64 68.5502 104.001 68.765 104.269C68.9642 104.506 69.3589 104.719 69.9489 104.906L84.9945 109.675C86.1519 110.042 86.86 109.817 87.1189 109C87.3851 108.16 86.9508 107.56 85.8162 107.201ZM82.809 96.3606L93.8039 99.8455L92.5847 103.692L67.2591 95.6648L68.4783 91.8183L78.6221 95.0335L69.4385 88.7888L70.6253 85.0444L81.2702 92.3517L96.0696 92.6972L94.8181 96.6458L82.809 96.3606ZM70.9468 84.0301L73.7197 75.2819L77.396 76.4471L75.8423 81.3489L82.4801 83.4528L83.6993 79.6063L87.5457 80.8255L86.3266 84.672L93.6451 86.9917L95.2635 81.8857L99.11 83.1049L96.2724 92.0573L70.9468 84.0301ZM74.1393 73.9578L75.2399 70.4857L89.8683 71.4888L76.2864 67.1839L77.3977 63.6778L102.723 71.705L101.731 74.8367L85.9964 73.8951L100.565 78.513L99.465 81.985L74.1393 73.9578ZM103.216 70.1509L77.8903 62.1236L79.7569 56.2348C80.2532 54.6689 81.0254 53.69 82.0737 53.2981C83.0992 52.8989 84.4063 52.9511 85.9948 53.4546L101.415 58.3421C104.773 59.4067 105.996 61.3799 105.082 64.262L103.216 70.1509ZM82.5475 59.3669L100.759 65.1391L101.05 64.2201C101.23 63.6527 101.205 63.2202 100.974 62.9224C100.729 62.5948 100.254 62.3195 99.5505 62.0965L85.2879 57.5758C84.5617 57.3456 84.0187 57.2859 83.659 57.3967C83.2992 57.5074 83.0438 57.801 82.8928 58.2776L82.5475 59.3669ZM104.539 47.8954L103.557 50.993L99.4721 49.6983C98.3602 49.3458 97.5648 49.0188 97.086 48.7172C96.6072 48.4156 96.008 47.8636 95.2884 47.0611L93.9334 45.5453C93.4966 45.0323 93.077 44.6621 92.6746 44.4346C92.2495 44.2 91.6512 43.9604 90.8796 43.7158L89.0415 43.1332C88.5422 42.975 88.1803 42.9352 87.9556 43.0138C87.7082 43.0852 87.5233 43.3138 87.4011 43.6996C87.2788 44.0854 87.3018 44.3674 87.47 44.5456C87.6156 44.7166 87.938 44.8812 88.4373 45.0394L92.5221 46.3342L91.3568 50.0105L87.2721 48.7157C85.6608 48.205 84.5289 47.5216 83.8763 46.6655C83.2009 45.8021 83.1222 44.5535 83.6401 42.9196L83.8775 42.1707C84.4098 40.4914 85.1773 39.4486 86.1802 39.0422C87.1902 38.6132 88.4782 38.6468 90.044 39.1431L92.5629 39.9415C94.1061 40.4306 95.4647 41.4232 96.6387 42.9191L97.8485 44.5387C98.4237 45.2454 98.9393 45.746 99.3954 46.0404C99.8288 46.3276 100.556 46.633 101.577 46.9567L104.539 47.8954ZM105.465 47.9268L109.822 49.3079L108.7 52.848L104.343 51.467L105.465 47.9268Z" fill="white"/>
</svg>
