<svg width="180" height="175" viewBox="0 0 180 175" fill="none" xmlns="http://www.w3.org/2000/svg">
<rect x="47.2126" y="26.5233" width="128.617" height="74.3181" transform="rotate(25.035 47.2126 26.5233)" fill="#75EB3E" stroke="#2B2B2B" stroke-width="1.20069"/>
<rect x="48.8709" y="31.086" width="121.751" height="67.4528" transform="rotate(25.035 48.8709 31.086)" fill="#75EB3E" stroke="#2B2B2B" stroke-width="1.20069"/>
<rect x="51.0927" y="35.9124" width="113.638" height="60.5874" transform="rotate(25.035 51.0927 35.9124)" fill="#75EB3E" stroke="#2B2B2B" stroke-width="1.20069"/>
<path d="M39.4175 86.2177L56.2258 50.2297L64.8359 54.2511C66.9642 55.2451 68.2141 56.4378 68.5856 57.829C68.9894 59.2353 68.747 60.8898 67.8584 62.7924L65.2829 68.3067C64.0479 70.951 62.3693 72.19 60.2472 72.0237C61.9668 73.8089 62.194 76.0559 60.9288 78.7646L57.2915 86.5524C56.3427 88.584 55.1059 89.9704 53.5812 90.7117C52.1039 91.4359 50.3816 91.3386 48.4145 90.4198L39.4175 86.2177ZM54.1867 73.141L52.5421 72.3729L47.2556 83.6917L48.9002 84.4598C49.7386 84.8514 50.3933 84.9215 50.8643 84.67C51.3353 84.4186 51.7665 83.8737 52.1581 83.0353L55.2306 76.4568C55.6071 75.6506 55.7331 75.0024 55.6086 74.5121C55.4991 73.9896 55.0251 73.5326 54.1867 73.141ZM61.0546 58.4362L59.41 57.6681L55.0498 67.0037L56.6944 67.7718C57.952 68.3592 58.9724 67.8144 59.7556 66.1376L61.8792 61.5907C62.2558 60.7845 62.3818 60.1363 62.2572 59.646C62.1649 59.1708 61.764 58.7675 61.0546 58.4362ZM84.0197 72.8153L74.6441 92.8892C72.0084 98.5325 68.3687 100.27 63.7251 98.1009L62.806 97.6717C58.0979 95.4728 57.0617 91.5517 59.6974 85.9084L69.0504 65.8828C71.6259 60.3685 75.2515 58.7033 79.9274 60.8872L80.8465 61.3164C83.3618 62.4912 84.8201 64.0365 85.2216 65.9524C85.6553 67.8834 85.2547 70.171 84.0197 72.8153ZM68.9007 90.6781L78.5699 69.9754C79.4284 68.1373 79.2289 66.9245 77.9712 66.3371C76.6813 65.7347 75.6071 66.3525 74.7486 68.1906L65.0794 88.8934C64.2209 90.7315 64.4527 91.9593 65.7748 92.5768C67.0002 93.1491 68.0422 92.5162 68.9007 90.6781ZM89.7643 65.894L94.6981 68.1983L90.376 89.6897L99.3901 70.3897L104.372 72.7167L87.5641 108.705L83.1139 106.626L87.5591 83.4835L77.8899 104.186L72.956 101.882L89.7643 65.894ZM93.3356 101.855L106.484 73.7029L112.047 76.301L98.7401 104.792C97.9419 106.501 98.1232 107.626 99.2841 108.168C100.477 108.726 101.473 108.15 102.271 106.441L115.578 77.9502L121.14 80.5483L107.992 108.7C105.417 114.214 101.839 115.902 97.2602 113.764L96.2927 113.312C91.7459 111.188 90.7602 107.369 93.3356 101.855ZM129.992 84.27L131.008 84.7444C133.233 85.7836 134.596 87.029 135.096 88.4805C135.597 89.932 135.343 91.7381 134.333 93.8986L131.577 99.7999L126.305 97.3374L128.722 92.1617C129.385 90.7428 129.2 89.7924 128.168 89.3104C127.556 89.0243 127.046 89.0219 126.64 89.3035C126.233 89.585 125.819 90.1773 125.397 91.0802L125.081 91.7574C124.599 92.7893 124.33 93.7439 124.274 94.6211C124.218 95.4983 124.37 96.7283 124.731 98.3109L126.112 104.436C126.602 106.668 126.786 108.502 126.665 109.938C126.559 111.342 126.04 113.044 125.106 115.043L124.564 116.204C121.943 121.815 118.279 123.521 113.571 121.322L112.506 120.825C108.056 118.747 106.893 115.434 109.017 110.887L112.383 103.68L117.8 106.21L114.863 112.499C114.08 114.176 114.285 115.293 115.478 115.85C116.123 116.151 116.68 116.136 117.149 115.805C117.665 115.457 118.187 114.719 118.714 113.59L119.098 112.768C119.716 111.446 120.061 110.37 120.134 109.54C120.208 108.71 120.062 107.424 119.697 105.682L118.293 99.6054C117.857 97.5949 117.714 95.8392 117.865 94.3385C118.064 92.8206 118.592 91.1425 119.451 89.3044L119.993 88.1435C122.177 83.4677 125.51 82.1765 129.992 84.27Z" fill="#2B2B2B"/>
</svg>
