<svg width="92" height="92" viewBox="0 0 92 92" fill="none" xmlns="http://www.w3.org/2000/svg">
<rect x="26.7229" y="12.8665" width="65.9966" height="38.1831" transform="rotate(29.617 26.7229 12.8665)" fill="#75EB3E" stroke="#2B2B2B" stroke-width="0.5"/>
<rect x="27.3831" y="15.264" width="62.48" height="34.6665" transform="rotate(29.617 27.3831 15.264)" fill="#75EB3E" stroke="#2B2B2B" stroke-width="0.5"/>
<rect x="28.3199" y="17.8193" width="58.3239" height="31.1498" transform="rotate(29.617 28.3199 17.8193)" fill="#75EB3E" stroke="#2B2B2B" stroke-width="0.5"/>
<path d="M23.4025 43.0069L32.2269 27.4838L35.9408 29.595C36.8588 30.1169 37.3761 30.6962 37.4926 31.333C37.6231 31.9777 37.455 32.7104 36.9885 33.531L35.6364 35.9096C34.988 37.0501 34.1913 37.5451 33.2463 37.3944C33.9527 38.2561 33.9739 39.2711 33.3097 40.4395L31.4001 43.7987C30.9019 44.675 30.2979 45.2519 29.5881 45.5293C28.9 45.8008 28.1318 45.6953 27.2833 45.213L23.4025 43.0069ZM30.4904 37.6774L29.781 37.2741L27.0056 42.1564L27.7149 42.5596C28.0766 42.7652 28.3675 42.8201 28.5875 42.7244C28.8076 42.6286 29.0204 42.3999 29.226 42.0383L30.8391 39.2007C31.0368 38.853 31.1165 38.567 31.0783 38.3429C31.048 38.1048 30.852 37.883 30.4904 37.6774ZM34.0961 31.3346L33.3867 30.9313L31.0975 34.9582L31.8069 35.3614C32.3494 35.6698 32.8262 35.4624 33.2374 34.7391L34.3523 32.7778C34.55 32.4301 34.6297 32.1441 34.5915 31.9199C34.5672 31.7037 34.4021 31.5086 34.0961 31.3346ZM43.8706 38.6028L38.9484 47.2615C37.5646 49.6957 35.8713 50.3435 33.8683 49.2048L33.4719 48.9795C31.4411 47.825 31.1175 46.0307 32.5013 43.5965L37.4117 34.9587C38.7638 32.5801 40.4483 31.9641 42.4652 33.1107L42.8616 33.336C43.9466 33.9528 44.5446 34.6977 44.6557 35.5706C44.7807 36.4515 44.519 37.4622 43.8706 38.6028ZM36.4541 46.0644L41.5305 37.1345C41.9812 36.3416 41.9354 35.791 41.3929 35.4827C40.8365 35.1664 40.333 35.4046 39.8822 36.1975L34.8058 45.1274C34.3551 45.9203 34.4149 46.4788 34.9852 46.803C35.5138 47.1035 36.0034 46.8573 36.4541 46.0644ZM46.6934 35.7076L48.8216 36.9174L46.113 46.3928L50.8454 38.0679L52.9945 39.2895L44.17 54.8126L42.2505 53.7214L45.0736 43.5105L39.9972 52.4405L37.869 51.2307L46.6934 35.7076ZM47.0023 51.9504L53.9053 39.8073L56.3047 41.1713L49.3187 53.4604C48.8996 54.1976 48.9405 54.7086 49.4412 54.9932C49.9559 55.2858 50.4227 55.0635 50.8418 54.3263L57.8278 42.0372L60.2272 43.4012L53.3242 55.5442C51.9721 57.9228 50.3085 58.5506 48.3333 57.4278L47.916 57.1906C45.9548 56.0757 45.6502 54.3289 47.0023 51.9504ZM64.0601 45.3868L64.4983 45.6359C65.458 46.1815 66.024 46.7885 66.1962 47.4569C66.3683 48.1253 66.1895 48.9255 65.6597 49.8574L64.2127 52.4029L61.9385 51.1101L63.2076 48.8776C63.5555 48.2656 63.5069 47.833 63.0618 47.58C62.7976 47.4298 62.5693 47.4104 62.377 47.522C62.1848 47.6336 61.978 47.8841 61.7566 48.2735L61.5905 48.5656C61.3375 49.0107 61.1826 49.4288 61.1259 49.8199C61.0693 50.211 61.0933 50.7676 61.1981 51.4898L61.5973 54.2841C61.7365 55.3019 61.7532 56.1304 61.6475 56.7697C61.5497 57.395 61.2556 58.1389 60.7654 59.0013L60.4807 59.502C59.1049 61.9223 57.4015 62.5552 55.3708 61.4008L54.9117 61.1398C52.9922 60.0486 52.5899 58.5224 53.7048 56.5612L55.4721 53.4524L57.8089 54.7808L56.267 57.4932C55.8558 58.2165 55.9076 58.7244 56.4222 59.017C56.7004 59.1751 56.9505 59.1884 57.1725 59.057C57.4163 58.9195 57.6765 58.6073 57.9533 58.1205L58.1549 57.7658C58.4791 57.1955 58.6726 56.7257 58.7352 56.3564C58.7979 55.9872 58.7788 55.4057 58.6778 54.6121L58.2667 51.8386C58.1436 50.9221 58.1428 50.1302 58.2644 49.4631C58.4078 48.79 58.7048 48.0571 59.1555 47.2642L59.4402 46.7635C60.5867 44.7466 62.1267 44.2877 64.0601 45.3868Z" fill="#2B2B2B"/>
</svg>
