<svg width="218" height="212" viewBox="0 0 218 212" fill="none" xmlns="http://www.w3.org/2000/svg">
<rect x="57.0279" y="31.9047" width="155.773" height="90.1155" transform="rotate(25.035 57.0279 31.9047)" fill="#75EB3E" stroke="#2B2B2B" stroke-width="1.20069"/>
<rect x="59.0331" y="37.4218" width="147.471" height="81.814" transform="rotate(25.035 59.0331 37.4218)" fill="#75EB3E" stroke="#2B2B2B" stroke-width="1.20069"/>
<rect x="61.7196" y="43.2577" width="137.66" height="73.5126" transform="rotate(25.035 61.7196 43.2577)" fill="#75EB3E" stroke="#2B2B2B" stroke-width="1.20069"/>
<path d="M71.0563 110.328L87.8646 74.3401L96.2328 78.2484C98.4578 79.2877 99.7593 80.6222 100.137 82.2522C100.53 83.8498 100.2 85.7773 99.1452 88.0346L88.9112 109.947C86.6821 114.719 83.5199 116.149 79.4245 114.236L71.0563 110.328ZM91.0487 81.7784L78.9621 107.657L80.2681 108.267C81.0743 108.643 81.7204 108.69 82.2064 108.406C82.7398 108.105 83.2399 107.455 83.7068 106.455L93.1727 86.1879C93.6547 85.156 93.8485 84.3627 93.754 83.8079C93.6596 83.2532 93.2738 82.8176 92.5966 82.5013L91.0487 81.7784ZM115.611 96.9035L106.236 116.978C103.6 122.621 99.9602 124.358 95.3166 122.189L94.3975 121.76C89.6894 119.561 88.6532 115.64 91.2889 109.997L100.642 89.9711C103.217 84.4568 106.843 82.7915 111.519 84.9754L112.438 85.4047C114.953 86.5794 116.412 88.1248 116.813 90.0407C117.247 91.9716 116.846 94.2593 115.611 96.9035ZM100.492 114.766L110.161 94.0636C111.02 92.2255 110.82 91.0128 109.563 90.4254C108.273 89.823 107.199 90.4408 106.34 92.2789L96.6709 112.982C95.8124 114.82 96.0442 116.048 97.3663 116.665C98.5917 117.237 99.6337 116.605 100.492 114.766ZM131.734 94.8296L114.926 130.818L109.46 128.265L126.268 92.2767L131.734 94.8296ZM133.291 95.5566L147.899 102.379L145.459 107.603L140.864 105.457L126.495 136.221L121.078 133.691L135.446 102.927L130.851 100.781L133.291 95.5566Z" fill="#2B2B2B"/>
</svg>
