<svg width="168" height="141" viewBox="0 0 168 141" fill="none" xmlns="http://www.w3.org/2000/svg">
<rect x="9.50851" y="70.155" width="128.617" height="74.3181" transform="rotate(-29.9858 9.50851 70.155)" fill="#75EB3E" stroke="#2B2B2B" stroke-width="1.20069"/>
<rect x="14.197" y="71.4118" width="121.751" height="67.4528" transform="rotate(-29.9858 14.197 71.4118)" fill="#75EB3E" stroke="#2B2B2B" stroke-width="1.20069"/>
<rect x="19.4255" y="72.3581" width="113.638" height="60.5874" transform="rotate(-29.9858 19.4255 72.3581)" fill="#75EB3E" stroke="#2B2B2B" stroke-width="1.20069"/>
<path d="M43.7774 72.3313L63.6288 106.734L58.4036 109.75L38.5522 75.3464L43.7774 72.3313ZM45.2654 71.4727L59.2302 63.4147L62.1118 68.4087L57.7189 70.9435L74.6886 100.353L69.5097 103.341L52.54 73.9319L48.1471 76.4667L45.2654 71.4727ZM93.2845 80.192L89.0766 82.6201L85.8748 77.0712C85.0032 75.5607 84.4553 74.3975 84.2311 73.5818C84.007 72.766 83.9026 71.5524 83.9178 69.941L83.9514 66.9015C83.9869 65.8948 83.8973 65.063 83.6827 64.4062C83.4502 63.7185 83.0316 62.8505 82.4268 61.8024L80.986 59.3054C80.5946 58.6272 80.2353 58.2182 79.9081 58.0783C79.563 57.9076 79.1285 57.9734 78.6044 58.2758C78.0803 58.5782 77.8213 58.9126 77.8272 59.279C77.8154 59.6145 78.0052 60.1214 78.3965 60.7996L81.5983 66.3485L76.6043 69.2302L73.4025 63.6813C72.1395 61.4925 71.5797 59.5966 71.7231 57.9935C71.8487 56.3596 73.0212 54.9023 75.2408 53.6215L76.2581 53.0345C78.5393 51.7182 80.4382 51.3416 81.9548 51.9047C83.5022 52.45 84.8895 53.7862 86.1169 55.9133L88.0914 59.3351C89.301 61.4314 89.7991 63.897 89.5859 66.7321L89.2873 69.7397C89.2092 71.0997 89.2733 72.1722 89.4797 72.9571C89.6682 73.7112 90.1628 74.7819 90.9632 76.1691L93.2845 80.192ZM94.2753 81.1613L97.6906 87.0801L92.8815 89.855L89.4662 83.9362L94.2753 81.1613ZM107.374 72.0624L103.166 74.4904L99.9638 68.9415C99.0922 67.431 98.5443 66.2679 98.3201 65.4521C98.096 64.6363 97.9916 63.4228 98.0069 61.8114L98.0404 58.7718C98.0759 57.7651 97.9863 56.9334 97.7717 56.2765C97.5392 55.5888 97.1206 54.7209 96.5158 53.6728L95.075 51.1758C94.6837 50.4976 94.3244 50.0885 93.9971 49.9486C93.652 49.7779 93.2175 49.8438 92.6934 50.1461C92.1693 50.4485 91.9103 50.7829 91.9162 51.1493C91.9044 51.4849 92.0942 51.9918 92.4855 52.67L95.6873 58.2189L90.6933 61.1005L87.4915 55.5516C86.2285 53.3629 85.6688 51.467 85.8121 49.8639C85.9377 48.2299 87.1102 46.7726 89.3298 45.4919L90.3471 44.9049C92.6283 43.5886 94.5272 43.212 96.0438 43.7751C97.5912 44.3204 98.9785 45.6566 100.206 47.7837L102.18 51.2055C103.39 53.3017 103.888 55.7674 103.675 58.6024L103.376 61.61C103.298 62.97 103.362 64.0425 103.569 64.8274C103.757 65.5815 104.252 66.6522 105.052 68.0394L107.374 72.0624ZM108.364 73.0316L111.78 78.9505L106.971 81.7254L103.555 75.8065L108.364 73.0316ZM121.463 63.9327L117.255 66.3608L114.053 60.8119C113.181 59.3013 112.633 58.1382 112.409 57.3224C112.185 56.5067 112.081 55.2931 112.096 53.6817L112.129 50.6422C112.165 49.6355 112.075 48.8037 111.861 48.1469C111.628 47.4592 111.21 46.5912 110.605 45.5431L109.164 43.0461C108.773 42.3679 108.413 41.9589 108.086 41.819C107.741 41.6483 107.306 41.7141 106.782 42.0165C106.258 42.3189 105.999 42.6533 106.005 43.0197C105.993 43.3552 106.183 43.8621 106.575 44.5403L109.776 50.0892L104.782 52.9709L101.58 47.4219C100.318 45.2332 99.7578 43.3373 99.9011 41.7342C100.027 40.1003 101.199 38.643 103.419 37.3622L104.436 36.7752C106.717 35.4589 108.616 35.0823 110.133 35.6454C111.68 36.1907 113.068 37.5269 114.295 39.654L116.269 43.0758C117.479 45.1721 117.977 47.6377 117.764 50.4728L117.465 53.4804C117.387 54.8404 117.451 55.9129 117.658 56.6978C117.846 57.4519 118.341 58.5225 119.141 59.9098L121.463 63.9327ZM122.453 64.902L125.869 70.8208L121.06 73.5957L117.644 67.6769L122.453 64.902Z" fill="#2B2B2B"/>
</svg>
