<svg width="76" height="83" viewBox="0 0 76 83" fill="none" xmlns="http://www.w3.org/2000/svg">
<rect x="10.6094" y="56.0928" width="59.6819" height="34.4857" transform="rotate(-55.2374 10.6094 56.0928)" fill="#75EB3E" stroke="#2B2B2B" stroke-width="0.557152"/>
<rect x="12.8262" y="55.6919" width="56.4961" height="31.3" transform="rotate(-55.2374 12.8262 55.6919)" fill="#75EB3E" stroke="#2B2B2B" stroke-width="0.557152"/>
<rect x="15.208" y="55.0542" width="52.7312" height="28.1143" transform="rotate(-55.2374 15.208 55.0542)" fill="#75EB3E" stroke="#2B2B2B" stroke-width="0.557152"/>
<path d="M24.0609 51.6245L39.2025 62.1335L37.6064 64.4332L22.4648 53.9242L24.0609 51.6245ZM24.5155 50.9696L28.7812 44.8234L30.9792 46.3489L29.6373 48.2823L42.5809 57.2658L40.9989 59.5452L28.0553 50.5617L26.7134 52.4951L24.5155 50.9696ZM46.3945 45.1235L45.1092 46.9755L42.667 45.2805C42.0022 44.8191 41.542 44.4394 41.2864 44.1414C41.0309 43.8434 40.7468 43.3548 40.4342 42.6755L39.8466 41.3932C39.6623 40.9637 39.46 40.6323 39.2399 40.3991C39.0062 40.1565 38.6587 39.8751 38.1974 39.555L37.0984 38.7922C36.7999 38.5851 36.5682 38.4845 36.4031 38.4906C36.2245 38.4872 36.0552 38.6009 35.8951 38.8315C35.735 39.0622 35.6925 39.2538 35.7675 39.4064C35.829 39.5496 36.0089 39.7247 36.3074 39.9319L38.7496 41.6269L37.2241 43.8249L34.7819 42.1299C33.8186 41.4613 33.2084 40.7764 32.9512 40.0752C32.6805 39.3646 32.8841 38.5209 33.5621 37.544L33.8729 37.0963C34.5697 36.0923 35.2921 35.5583 36.04 35.4945C36.7974 35.417 37.6442 35.7032 38.5803 36.3529L40.0864 37.3982C41.009 38.0385 41.7061 38.9747 42.1778 40.2067L42.6479 41.5281C42.8843 42.1143 43.1235 42.5517 43.3655 42.8403C43.5939 43.1195 44.0134 43.4709 44.6239 43.8947L46.3945 45.1235ZM47.0022 45.3342L49.6072 47.1422L48.1382 49.2588L45.5332 47.4508L47.0022 45.3342ZM50.6982 38.9227L49.4129 40.7747L46.9707 39.0797C46.3059 38.6183 45.8457 38.2386 45.5901 37.9406C45.3346 37.6426 45.0505 37.1539 44.7379 36.4746L44.1503 35.1923C43.966 34.7628 43.7637 34.4314 43.5436 34.1983C43.3099 33.9557 42.9624 33.6743 42.5011 33.3541L41.4021 32.5914C41.1036 32.3842 40.8719 32.2836 40.7068 32.2897C40.5282 32.2864 40.3589 32.4 40.1988 32.6307C40.0387 32.8613 39.9962 33.0529 40.0712 33.2055C40.1327 33.3487 40.3126 33.5239 40.6111 33.731L43.0533 35.426L41.5278 37.624L39.0856 35.929C38.1223 35.2604 37.5121 34.5755 37.2549 33.8744C36.9842 33.1638 37.1878 32.32 37.8658 31.3432L38.1766 30.8954C38.8734 29.8914 39.5958 29.3575 40.3437 29.2936C41.1011 29.2162 41.9479 29.5023 42.884 30.1521L44.3901 31.1973C45.3127 31.8376 46.0098 32.7738 46.4815 34.0059L46.9516 35.3272C47.188 35.9135 47.4272 36.3509 47.6692 36.6395C47.8976 36.9186 48.3171 37.2701 48.9276 37.6938L50.6982 38.9227ZM51.3059 39.1334L53.9109 40.9414L52.4419 43.0579L49.8369 41.2499L51.3059 39.1334ZM55.0019 32.7218L53.7166 34.5738L51.2744 32.8788C50.6096 32.4174 50.1494 32.0377 49.8938 31.7397C49.6383 31.4417 49.3542 30.9531 49.0416 30.2738L48.454 28.9915C48.2697 28.5619 48.0674 28.2306 47.8473 27.9974C47.6136 27.7548 47.2661 27.4734 46.8048 27.1532L45.7058 26.3905C45.4073 26.1833 45.1756 26.0828 45.0105 26.0889C44.8319 26.0855 44.6626 26.1992 44.5025 26.4298C44.3424 26.6605 44.2999 26.8521 44.3749 27.0047C44.4364 27.1478 44.6163 27.323 44.9148 27.5302L47.357 29.2252L45.8315 31.4231L43.3893 29.7281C42.426 29.0596 41.8158 28.3747 41.5586 27.6735C41.2879 26.9629 41.4915 26.1192 42.1695 25.1423L42.4803 24.6946C43.1771 23.6906 43.8995 23.1566 44.6474 23.0927C45.4048 23.0153 46.2516 23.3014 47.1877 23.9512L48.6938 24.9964C49.6164 25.6368 50.3135 26.573 50.7852 27.805L51.2553 29.1264C51.4917 29.7126 51.7309 30.15 51.9729 30.4386C52.2013 30.7178 52.6208 31.0692 53.2313 31.493L55.0019 32.7218ZM55.6096 32.9325L58.2146 34.7405L56.7456 36.8571L54.1406 35.0491L55.6096 32.9325Z" fill="#2B2B2B"/>
</svg>
