<svg width="193" height="117" viewBox="0 0 193 117" fill="none" xmlns="http://www.w3.org/2000/svg">
<rect x="3.0391" y="46.1212" width="176.897" height="64.0308" transform="rotate(-12.5353 3.0391 46.1212)" fill="#FF8365" stroke="#2B2B2B" stroke-width="0.594256"/>
<rect x="8.07438" y="47.799" width="167.795" height="58.5695" transform="rotate(-12.5353 8.07438 47.799)" fill="#FF8365" stroke="#2B2B2B" stroke-width="0.594256"/>
<rect x="13.9981" y="49.2793" width="156.872" height="53.1082" transform="rotate(-12.5353 13.9981 49.2793)" fill="#FF8365" stroke="#2B2B2B" stroke-width="0.594256"/>
<path d="M20.8937 60.0295L32.6857 57.4076L33.6233 61.6247L29.9139 62.4494L35.4354 87.283L31.0622 88.2553L25.5407 63.4218L21.8313 64.2465L20.8937 60.0295ZM38.3596 56.1461L44.8188 85.1967L40.4065 86.1777L33.9474 57.1271L38.3596 56.1461ZM46.6219 84.7958L40.1628 55.7452L45.8245 54.4863L51.3449 69.3628L50.0806 53.54L55.3519 52.368L61.811 81.4186L57.6721 82.3389L53.4962 63.5575L55.0169 82.9292L53.2598 83.3199L46.3898 65.1376L50.5656 83.9189L46.6219 84.7958ZM57.1312 51.9724L67.1662 49.7412L68.1038 53.9582L62.4811 55.2084L64.174 62.8225L68.5863 61.8414L69.5673 66.2537L65.1551 67.2347L67.0216 75.6297L72.8786 74.3275L73.8596 78.7397L63.5904 81.023L57.1312 51.9724ZM77.063 47.5408L83.5221 76.5914L79.1098 77.5724L72.6507 48.5218L77.063 47.5408ZM84.1157 45.6858L84.9356 45.5035C86.7318 45.1041 88.11 45.2211 89.0704 45.8545C90.0307 46.4878 90.7048 47.6765 91.0926 49.4206L92.1517 54.1842L87.8957 55.1305L86.9667 50.9526C86.7121 49.8072 86.1682 49.3271 85.3352 49.5123C84.8407 49.6223 84.537 49.8537 84.4242 50.2066C84.3115 50.5595 84.3361 51.1004 84.4982 51.8292L84.6197 52.3759C84.8049 53.2089 85.0812 53.8987 85.4486 54.4453C85.816 54.9919 86.4683 55.6528 87.4055 56.4278L91.0243 59.4341C92.3347 60.5359 93.282 61.541 93.8664 62.4491C94.445 63.3312 94.9137 64.5792 95.2725 66.1932L95.4809 67.1303C96.488 71.6597 95.0912 74.3469 91.2907 75.1919L90.4317 75.3829C86.8394 76.1816 84.6352 74.7458 83.8192 71.0754L82.5256 65.2575L86.8988 64.2851L88.0274 69.3612C88.3284 70.7148 88.9604 71.2845 89.9236 71.0704C90.4442 70.9546 90.7681 70.6914 90.8954 70.2806C91.0428 69.8381 91.0153 69.1613 90.8127 68.2502L90.6651 67.5864C90.4278 66.5191 90.1414 65.7223 89.8058 65.1959C89.4702 64.6695 88.7962 63.9725 87.7838 63.1049L84.1737 60.1377C82.9964 59.1429 82.1097 58.1653 81.5138 57.2051C80.9381 56.2131 80.4853 54.9752 80.1554 53.4914L79.947 52.5543C79.1078 48.7798 80.4974 46.4903 84.1157 45.6858ZM102.294 72.4177L95.8346 43.3671L101.496 42.1082L107.017 56.9847L105.752 41.1619L111.024 39.9899L117.483 69.0405L113.344 69.9608L109.168 51.1794L110.689 70.5511L108.932 70.9418L102.062 52.7595L106.237 71.5408L102.294 72.4177ZM126.166 43.3023L129.769 59.5066C130.782 64.062 129.414 66.7564 125.666 67.5899L124.924 67.7548C121.123 68.5998 118.717 66.7446 117.704 62.1892L114.11 46.024C113.12 41.5727 114.512 38.9274 118.287 38.0882L119.029 37.9232C121.059 37.4718 122.631 37.7232 123.745 38.6776C124.885 39.6262 125.692 41.1677 126.166 43.3023ZM125.348 60.8173L121.633 44.1054C121.303 42.6217 120.63 41.9927 119.615 42.2184C118.574 42.4499 118.218 43.3075 118.548 44.7913L122.264 61.5032C122.594 62.987 123.292 63.6102 124.359 63.3729C125.349 63.153 125.678 62.3011 125.348 60.8173ZM126.416 36.5676L130.399 35.6821L137.65 50.4195L134.186 34.8399L138.208 33.9457L144.667 62.9963L141.075 63.795L133.142 48.0208L136.858 64.7327L132.875 65.6182L126.416 36.5676ZM139.991 33.5494L150.026 31.3182L150.963 35.5352L145.341 36.7854L147.033 44.3994L151.446 43.4184L152.427 47.8307L148.014 48.8117L149.881 57.2067L155.738 55.9044L156.719 60.3167L146.45 62.6L139.991 33.5494ZM162.751 28.4889L162.662 46.3336L165.344 58.3989L160.932 59.38L158.241 47.2755L150.49 31.2149L154.785 30.2599L159.229 40.6634L158.768 29.3744L162.751 28.4889Z" fill="white"/>
</svg>
