<svg width="83" height="60" viewBox="0 0 83 60" fill="none" xmlns="http://www.w3.org/2000/svg">
<rect x="5.44865" y="35.767" width="68.6684" height="24.6844" transform="rotate(-28.6636 5.44865 35.767)" fill="#FF8365" stroke="#2B2B2B" stroke-width="0.5"/>
<rect x="7.5153" y="35.8499" width="65.1213" height="22.5561" transform="rotate(-28.6636 7.5153 35.8499)" fill="#FF8365" stroke="#2B2B2B" stroke-width="0.5"/>
<rect x="9.89323" y="35.763" width="60.8648" height="20.4279" transform="rotate(-28.6636 9.89323 35.763)" fill="#FF8365" stroke="#2B2B2B" stroke-width="0.5"/>
<path d="M14.7893 38.4985L18.7642 36.3256L19.5412 37.747L18.2909 38.4306L22.8669 46.8014L21.3928 47.6073L16.8167 39.2364L15.5664 39.9199L14.7893 38.4985ZM20.6767 35.28L26.0298 45.0724L24.5425 45.8854L19.1894 36.0931L20.6767 35.28ZM26.6376 44.7401L21.2845 34.9478L23.193 33.9045L26.7314 38.6885L24.6276 33.1202L26.4045 32.1489L31.7575 41.9413L30.3624 42.7039L26.9016 36.3731L29.4674 43.1932L28.8751 43.517L24.5062 37.6826L27.967 44.0134L26.6376 44.7401ZM27.0042 31.821L30.3868 29.9719L31.1639 31.3934L29.2686 32.4295L30.6716 34.996L32.1589 34.183L32.9719 35.6703L31.4846 36.4833L33.0316 39.3131L35.0058 38.2338L35.8189 39.7211L32.3573 41.6134L27.0042 31.821ZM33.7228 28.1483L39.0759 37.9406L37.5886 38.7537L32.2355 28.9613L33.7228 28.1483ZM36.0702 26.7454L36.3466 26.5943C36.9521 26.2633 37.4608 26.1619 37.8727 26.29C38.2846 26.4181 38.6513 26.7761 38.9727 27.364L39.8505 28.9697L38.4158 29.754L37.646 28.3457C37.4349 27.9596 37.189 27.8433 36.9082 27.9968C36.7415 28.0879 36.6562 28.2029 36.6523 28.3418C36.6485 28.4807 36.7137 28.6729 36.848 28.9186L36.9487 29.1029C37.1022 29.3837 37.2736 29.6034 37.4629 29.762C37.6522 29.9207 37.956 30.0908 38.3744 30.2724L39.9912 30.9784C40.578 31.2388 41.024 31.5021 41.3291 31.7684C41.6294 32.0259 41.9283 32.4267 42.2257 32.9707L42.3984 33.2866C43.233 34.8134 43.0098 35.9269 41.7287 36.6272L41.4391 36.7855C40.2282 37.4474 39.2846 37.1598 38.6083 35.9226L37.5362 33.9615L39.0104 33.1557L39.9457 34.8667C40.1951 35.323 40.4822 35.4624 40.8068 35.2849C40.9823 35.189 41.0716 35.0604 41.0746 34.8992C41.0817 34.7244 41.0012 34.4834 40.8333 34.1763L40.711 33.9526C40.5144 33.5928 40.3282 33.3356 40.1525 33.1809C39.9767 33.0263 39.6613 32.8454 39.2062 32.6383L37.5966 31.9455C37.0689 31.7097 36.6476 31.4499 36.3329 31.1661C36.0222 30.8687 35.7301 30.4699 35.4567 29.9698L35.284 29.6539C34.5885 28.3816 34.8506 27.4121 36.0702 26.7454ZM45.4034 34.4816L40.0503 24.6893L41.9588 23.646L45.4972 28.43L43.3934 22.8617L45.1702 21.8904L50.5233 31.6828L49.1282 32.4454L45.6674 26.1146L48.2332 32.9347L47.6409 33.2585L43.2719 27.4241L46.7327 33.7549L45.4034 34.4816ZM50.9703 21.5062L53.9562 26.9684C54.7957 28.5039 54.5836 29.617 53.3201 30.3078L53.07 30.4445C51.7889 31.1448 50.7287 30.7272 49.8893 29.1916L46.9105 23.7427C46.0903 22.2422 46.3163 21.1442 47.5886 20.4487L47.8387 20.312C48.5231 19.9379 49.1156 19.8647 49.6162 20.0925C50.1256 20.3155 50.577 20.7867 50.9703 21.5062ZM52.5002 27.9011L49.4207 22.2679C49.1473 21.7677 48.8395 21.6112 48.4973 21.7982C48.1463 21.9901 48.1076 22.3361 48.381 22.8363L51.4604 28.4695C51.7338 28.9696 52.0504 29.1214 52.4102 28.9247C52.7436 28.7424 52.7736 28.4012 52.5002 27.9011ZM50.3587 19.0541L51.7012 18.3202L55.8487 22.8739L52.9778 17.6223L54.3335 16.8812L59.6866 26.6736L58.4757 27.3355L53.9748 22.4794L57.0542 28.1126L55.7117 28.8465L50.3587 19.0541ZM54.9344 16.5527L58.317 14.7036L59.0941 16.1251L57.1988 17.1612L58.6018 19.7277L60.0891 18.9147L60.9021 20.402L59.4148 21.215L60.9618 24.0448L62.936 22.9655L63.7491 24.4528L60.2875 26.3451L54.9344 16.5527ZM62.6064 12.3588L64.4332 18.7965L66.6565 22.8634L65.1692 23.6765L62.9387 19.5963L58.4736 14.618L59.9214 13.8266L62.606 17.1114L61.2639 13.0927L62.6064 12.3588Z" fill="white"/>
</svg>
