<svg width="233" height="141" viewBox="0 0 233 141" fill="none" xmlns="http://www.w3.org/2000/svg">
<rect x="3.60063" y="55.7219" width="214.026" height="77.5494" transform="rotate(-12.5353 3.60063 55.7219)" fill="#753EEB" stroke="#2B2B2B" stroke-width="0.594256"/>
<rect x="9.68901" y="57.7507" width="203.019" height="70.9457" transform="rotate(-12.5353 9.68901 57.7507)" fill="#753EEB" stroke="#2B2B2B" stroke-width="0.594256"/>
<rect x="16.8518" y="59.5405" width="189.812" height="64.342" transform="rotate(-12.5353 16.8518 59.5405)" fill="#753EEB" stroke="#2B2B2B" stroke-width="0.594256"/>
<path d="M61.2797 99.0937L54.8205 70.0431L60.4823 68.7843L66.0027 83.6608L64.7384 67.838L70.0096 66.666L76.4688 95.7166L72.3298 96.6368L68.154 77.8555L69.6747 97.2272L67.9176 97.6178L61.0475 79.4355L65.2234 98.2169L61.2797 99.0937ZM76.7636 89.0128L71.7109 66.2877L76.2012 65.2893L81.3147 88.2877C81.6215 89.6674 82.2434 90.253 83.1805 90.0446C84.1437 89.8305 84.4719 89.0336 84.1651 87.654L79.0516 64.6556L83.542 63.6572L88.5947 86.3822C89.5844 90.8335 88.2311 93.4701 84.5347 94.292L83.7537 94.4656C80.0833 95.2817 77.7533 93.4641 76.7636 89.0128ZM90.4989 61.8235L91.3189 61.6412C93.115 61.2419 94.4933 61.3588 95.4536 61.9922C96.414 62.6255 97.088 63.8142 97.4758 65.5583L98.535 70.322L94.2789 71.2683L93.35 67.0903C93.0953 65.9449 92.5515 65.4648 91.7185 65.65C91.2239 65.76 90.9202 65.9914 90.8075 66.3443C90.6947 66.6972 90.7193 67.2381 90.8814 67.967L91.0029 68.5136C91.1881 69.3466 91.4645 70.0364 91.8318 70.583C92.1992 71.1297 92.8516 71.7905 93.7888 72.5656L97.4075 75.5718C98.7179 76.6737 99.6653 77.6787 100.25 78.5868C100.828 79.4689 101.297 80.717 101.656 82.3309L101.864 83.268C102.871 87.7974 101.474 90.4846 97.674 91.3296L96.8149 91.5206C93.2227 92.3193 91.0185 90.8835 90.2024 87.2131L88.9088 81.3952L93.2821 80.4228L94.4107 85.4989C94.7116 86.8525 95.3437 87.4222 96.3068 87.2081C96.8275 87.0923 97.1514 86.8291 97.2786 86.4183C97.4261 85.9758 97.3985 85.299 97.1959 84.3879L97.0483 83.7241C96.811 82.6568 96.5246 81.86 96.189 81.3336C95.8534 80.8072 95.1794 80.1102 94.167 79.2426L90.5569 76.2754C89.3796 75.2806 88.493 74.303 87.897 73.3428C87.3213 72.3508 86.8685 71.1129 86.5386 69.6291L86.3303 68.692C85.4911 64.9175 86.8806 62.628 90.4989 61.8235ZM97.7055 60.508L109.498 57.8862L110.435 62.1032L106.726 62.928L112.247 87.7615L107.874 88.7339L102.353 63.9003L98.6431 64.7251L97.7055 60.508ZM122.792 72.1815L125.596 84.7935L121.184 85.7745L114.725 56.7239L119.137 55.7429L121.724 67.3788L122.612 54.9703L126.907 54.0153L125.811 68.4369L133.796 82.9704L129.267 83.9774L122.792 72.1815ZM128.071 53.7566L132.054 52.8711L139.305 67.6085L135.841 52.0289L139.863 51.1347L146.322 80.1853L142.73 80.984L134.797 65.2098L138.513 81.9217L134.53 82.8072L128.071 53.7566ZM155.009 54.4464L158.612 70.6507C159.625 75.2061 158.257 77.9005 154.508 78.734L153.767 78.8989C149.966 79.7439 147.559 77.8887 146.546 73.3333L142.952 57.168C141.963 52.7167 143.355 50.0715 147.129 49.2322L147.871 49.0673C149.902 48.6159 151.474 48.8673 152.587 49.8217C153.727 50.7703 154.534 52.3118 155.009 54.4464ZM154.191 71.9614L150.475 55.2495C150.145 53.7658 149.473 53.1367 148.458 53.3625C147.416 53.594 147.061 54.4516 147.391 55.9354L151.106 72.6473C151.436 74.131 152.135 74.7543 153.202 74.517C154.191 74.297 154.521 73.4452 154.191 71.9614ZM162.794 46.0361L166.894 45.1245L173.07 63.5022L170.916 44.2303L175.055 43.3101L177.805 73.1854L173.08 74.2359L167.486 57.7368L169.371 75.0607L164.49 76.1459L154.399 47.9027L158.851 46.913L165.018 65.2516L162.794 46.0361Z" fill="white"/>
</svg>
