<svg width="180" height="155" viewBox="0 0 180 155" fill="none" xmlns="http://www.w3.org/2000/svg">
<rect x="26.9431" y="33.4907" width="131.517" height="76.0051" transform="rotate(5.00804 26.9431 33.4907)" fill="#FFF044" stroke="#2B2B2B" stroke-width="1.20069"/>
<rect x="30.1335" y="37.2925" width="124.498" height="68.9864" transform="rotate(5.00804 30.1335 37.2925)" fill="#FFF044" stroke="#2B2B2B" stroke-width="1.20069"/>
<rect x="33.9578" y="41.1507" width="116.203" height="61.9677" transform="rotate(5.00804 33.9578 41.1507)" fill="#FFF044" stroke="#2B2B2B" stroke-width="1.20069"/>
<path d="M52.5416 52.5917L53.6585 52.6895C56.1049 52.9039 57.8118 53.6073 58.7791 54.7996C59.7465 55.9919 60.1261 57.7758 59.9179 60.1513L59.3493 66.6396L53.5524 66.1317L54.051 60.4411C54.1878 58.8811 53.6888 58.0513 52.5543 57.9519C51.8806 57.8929 51.401 58.0652 51.1156 58.4689C50.8301 58.8726 50.6439 59.5709 50.5569 60.5636L50.4916 61.3082C50.3922 62.4428 50.4663 63.4318 50.7139 64.2752C50.9616 65.1186 51.5259 66.222 52.4068 67.5854L55.8025 72.867C57.0268 74.7964 57.8281 76.4565 58.2064 77.8473C58.5878 79.2026 58.6822 80.9794 58.4896 83.1776L58.3777 84.454C57.8371 90.6232 54.9786 93.481 49.8021 93.0274L48.6321 92.9249C43.7393 92.4961 41.5119 89.7821 41.95 84.7829L42.6444 76.8587L48.6009 77.3807L47.995 84.2944C47.8335 86.1381 48.4086 87.1174 49.7204 87.2324C50.4295 87.2945 50.9477 87.0898 51.2748 86.6183C51.6405 86.1145 51.8777 85.2421 51.9865 84.0011L52.0657 83.097C52.1931 81.6433 52.1491 80.5141 51.9338 79.7092C51.7186 78.9043 51.1412 77.7462 50.2018 76.2348L46.8014 71.0064C45.7034 69.2667 44.9684 67.666 44.5963 66.2043C44.2627 64.7102 44.1845 62.9527 44.3616 60.9318L44.4735 59.6554C44.924 54.5144 47.6134 52.1598 52.5416 52.5917ZM78.5008 63.977L76.5667 86.0479C76.023 92.2526 73.1984 95.1312 68.0928 94.6838L67.0823 94.5953C61.9059 94.1416 59.5895 90.8125 60.1332 84.6078L62.0626 62.5901C62.5939 56.5273 65.4301 53.7211 70.5711 54.1716L71.5815 54.2601C74.3471 54.5025 76.2465 55.4549 77.2798 57.1175C78.3486 58.7832 78.7556 61.0697 78.5008 63.977ZM70.4134 85.9374L72.4081 63.1751C72.5852 61.1542 71.9823 60.0831 70.5996 59.962C69.1814 59.8377 68.3837 60.786 68.2066 62.807L66.212 85.5692C66.0349 87.5902 66.6731 88.6644 68.1268 88.7917C69.4741 88.9098 70.2363 87.9584 70.4134 85.9374ZM88.603 87.9065L89.4092 78.7059L95.3125 79.2232L94.511 88.3706C94.0107 94.0789 91.3674 96.7234 86.5809 96.3039L85.2514 96.1874C80.3231 95.7556 78.1028 92.7564 78.5906 87.1899L80.7065 63.0449C80.9053 60.7757 81.6372 58.9463 82.9023 57.5566C84.1705 56.1315 86.0632 55.5292 88.5805 55.7498L89.9633 55.8709C91.5233 56.0076 92.7973 56.3515 93.7851 56.9025C94.8083 57.4566 95.5116 58.1971 95.8948 59.1239C96.2781 60.0506 96.5033 60.9457 96.5706 61.8091C96.6764 62.6401 96.6796 63.6229 96.5802 64.7574L95.9603 71.8307L90.057 71.3134L90.6676 64.3465C90.8198 62.6092 90.2223 61.6815 88.875 61.5634C88.1659 61.5013 87.6508 61.6705 87.3299 62.0711C87.0476 62.4394 86.866 63.0844 86.7852 64.0063L84.7253 87.5131C84.5668 89.3213 85.1258 90.2814 86.4022 90.3932C87.714 90.5082 88.4476 89.6793 88.603 87.9065ZM105.404 57.5991L101.936 97.1672L95.9266 96.6406L99.3939 57.0725L105.404 57.5991ZM114.444 98.2632L114.298 90.7477L109.884 90.3609L108.487 97.7413L103.116 97.2706L111.423 58.1266L118.549 58.7511L120.241 98.7712L114.444 98.2632ZM113.864 70.0234L111.04 84.5135L114.178 84.7885L113.864 70.0234ZM124.895 59.3071L130.904 59.8337L127.973 93.2858L135.312 93.9289L134.776 100.045L121.427 98.8752L124.895 59.3071Z" fill="#2B2B2B"/>
</svg>
