<svg width="180" height="122" viewBox="0 0 180 122" fill="none" xmlns="http://www.w3.org/2000/svg">
<rect x="9.85121" y="40.6526" width="155.377" height="56.1953" transform="rotate(-5.41947 9.85121 40.6526)" fill="#753EEB" stroke="#2B2B2B" stroke-width="0.594256"/>
<rect x="14.0602" y="42.6633" width="147.378" height="51.3961" transform="rotate(-5.41947 14.0602 42.6633)" fill="#753EEB" stroke="#2B2B2B" stroke-width="0.594256"/>
<rect x="19.0641" y="44.5992" width="137.78" height="46.597" transform="rotate(-5.41947 19.0641 44.5992)" fill="#753EEB" stroke="#2B2B2B" stroke-width="0.594256"/>
<path d="M51.7995 48.7635L52.6357 48.6841C54.4675 48.5104 55.8206 48.7972 56.6951 49.5446C57.5696 50.292 58.0913 51.5551 58.26 53.3337L58.7209 58.1919L54.3804 58.6037L53.9762 54.3428C53.8654 53.1748 53.3852 52.631 52.5357 52.7116C52.0313 52.7595 51.7013 52.9515 51.5457 53.2877C51.39 53.6239 51.3475 54.1636 51.418 54.907L51.4709 55.4645C51.5515 56.314 51.7402 57.0327 52.0371 57.6206C52.3339 58.2086 52.8994 58.9451 53.7334 59.8303L56.9518 63.2617C58.1156 64.5174 58.9312 65.632 59.3986 66.6055C59.8634 67.5525 60.1739 68.849 60.3301 70.4949L60.4208 71.4506C60.859 76.0699 59.1401 78.5634 55.2642 78.9311L54.3881 79.0142C50.7246 79.3618 48.7153 77.664 48.3601 73.9208L47.7972 67.9874L52.2572 67.5643L52.7483 72.741C52.8793 74.1215 53.4359 74.7652 54.4182 74.672C54.9491 74.6216 55.3032 74.4005 55.4803 74.0087C55.6814 73.5878 55.7379 72.9128 55.6498 71.9836L55.5855 71.3067C55.4823 70.2182 55.2968 69.3921 55.029 68.8282C54.7612 68.2643 54.1787 67.4891 53.2815 66.5028L50.0668 63.1113C49.0218 61.9782 48.2631 60.8984 47.7907 59.8718C47.3423 58.816 47.0464 57.5316 46.9028 56.0184L46.8121 55.0627C46.4469 51.2133 48.1094 49.1136 51.7995 48.7635ZM61.7901 71.4815L59.5914 48.3055L64.1708 47.8711L66.396 71.3257C66.5295 72.7328 67.0741 73.3909 68.0298 73.3003C69.012 73.2071 69.4364 72.457 69.3029 71.05L67.0778 47.5953L71.6572 47.1608L73.8559 70.3368C74.2866 74.8764 72.6171 77.325 68.8473 77.6826L68.0509 77.7582C64.3077 78.1133 62.2208 76.0211 61.7901 71.4815ZM82.1698 63.6416L79.5416 63.891L80.709 76.1957L76.2092 76.6226L73.3984 46.9956L80.5264 46.3194C82.1458 46.1658 83.3504 46.4399 84.1403 47.1418C84.9541 47.8146 85.4441 49.027 85.6104 50.7792L86.2753 57.7877C86.6178 61.3982 85.2493 63.3495 82.1698 63.6416ZM78.2798 50.5907L79.1374 59.6301L80.2922 59.5205C80.9293 59.4601 81.3244 59.2485 81.4775 58.8857C81.6547 58.4939 81.7092 57.9396 81.6412 57.2228L81.1803 52.3647C81.1174 51.701 80.9633 51.2066 80.7182 50.8817C80.4731 50.5567 80.0452 50.4232 79.4346 50.4811L78.2798 50.5907ZM95.4306 62.3836L92.8024 62.6329L93.9697 74.9376L89.4699 75.3645L86.6592 45.7376L93.7872 45.0613C95.4066 44.9077 96.6112 45.1818 97.401 45.8837C98.2149 46.5565 98.7049 47.769 98.8711 49.5211L99.536 56.5296C99.8786 60.1401 98.5101 62.0914 95.4306 62.3836ZM91.5406 49.3326L92.3982 58.372L93.553 58.2625C94.1901 58.202 94.5852 57.9904 94.7383 57.6277C94.9154 57.2359 94.97 56.6816 94.902 55.9648L94.4411 51.1066C94.3781 50.4429 94.2241 49.9486 93.979 49.6236C93.7338 49.2986 93.306 49.1651 92.6954 49.2231L91.5406 49.3326ZM112.721 49.8143L114.289 66.3401C114.73 70.9859 113.039 73.4902 109.216 73.8529L108.459 73.9246C104.583 74.2924 102.425 72.1533 101.984 67.5075L100.42 51.0215C99.9894 46.4819 101.699 44.0295 105.548 43.6643L106.305 43.5925C108.375 43.3961 109.904 43.8403 110.891 44.9253C111.905 46.0078 112.515 47.6374 112.721 49.8143ZM109.74 67.0932L108.123 50.0497C107.979 48.5365 107.39 47.829 106.354 47.9272C105.292 48.028 104.833 48.8349 104.977 50.3481L106.594 67.3916C106.737 68.9048 107.353 69.6098 108.442 69.5065C109.451 69.4108 109.883 68.6064 109.74 67.0932ZM118.684 46.7575L119.459 54.9208L120.653 54.8075C121.742 54.7042 122.219 53.9491 122.086 52.5421L121.693 48.4007C121.627 47.7104 121.475 47.2294 121.235 46.9575C120.995 46.6856 120.543 46.5812 119.879 46.6441L118.684 46.7575ZM119.859 59.1419L121.113 72.3625L116.614 72.7894L113.803 43.1624L121.09 42.4711C122.63 42.325 123.792 42.5763 124.577 43.2251C125.386 43.8448 125.868 44.9777 126.024 46.6236L126.523 51.88C126.712 53.8711 126.181 55.1938 124.931 55.8481C126.287 56.3088 127.039 57.3222 127.188 58.8885L128.174 69.2819C128.252 70.1048 128.467 70.821 128.82 71.4305L128.839 71.6296L124.379 72.0527C124.041 71.6026 123.819 70.8067 123.71 69.6652L122.864 60.7452C122.799 60.055 122.647 59.5872 122.41 59.3419C122.169 59.07 121.704 58.9668 121.014 59.0323L119.859 59.1419ZM126.74 41.9351L138.766 40.7942L139.174 45.0949L135.391 45.4538L137.793 70.7801L133.333 71.2032L130.931 45.8769L127.148 46.2358L126.74 41.9351Z" fill="white"/>
</svg>
