<svg width="70" height="70" viewBox="0 0 70 70" fill="none" xmlns="http://www.w3.org/2000/svg">
<g opacity="0.7">
<path d="M4 4H70V70H4V4Z" fill="#5A5A5A"/>
<path fill-rule="evenodd" clip-rule="evenodd" d="M69 5H5V69H69V5ZM4 4V70H70V4H4Z" fill="#2B2B2B"/>
<path d="M2 2H68V68H2V2Z" fill="#5A5A5A"/>
<path fill-rule="evenodd" clip-rule="evenodd" d="M67 3H3V67H67V3ZM2 2V68H68V2H2Z" fill="#2B2B2B"/>
<path d="M0 0H66V66H0V0Z" fill="#5A5A5A"/>
<path fill-rule="evenodd" clip-rule="evenodd" d="M65 1H1V65H65V1ZM0 0V66H66V0H0Z" fill="#2B2B2B"/>
<path fill-rule="evenodd" clip-rule="evenodd" d="M21.7728 7L28.9302 11.8773L29.1536 11.219L29.707 12.4066L43.3434 21.699L48.3973 18.7898L50.6615 26.6858L60 33.0494L59.4876 33.923L51.7841 30.6009L52.9746 34.7526L54.3134 34.8055L53.4105 36.2725L56.3214 46.424L47.7102 45.6296L50.2264 47.7476L44.3014 51.0726L39.4223 59L35.5561 55.9803L34.1832 56.7507L28.231 51.3824L29.2506 51.0554L23.8354 46.8259L16.8377 48.3501L18.599 42.9441L8.11637 41.9771L13.5919 38.8251L6 32.8954L21.671 33.515L23.7087 27.2607L25.7772 21.1665L16.9104 18.3605L21.7728 7ZM26.7685 21.4801L24.6995 27.5757L22.7525 33.552L35.1032 26.4424L33.8326 23.7156L26.7685 21.4801ZM33.2522 22.4701L27.0939 20.5212L29.3065 14.0024L33.2522 22.4701ZM35.1745 24.1403L36.0053 25.9231L37.709 24.9424L35.1745 24.1403ZM38.8994 24.2571L34.5941 22.8947L30.5498 14.2154L42.3614 22.2642L38.8994 24.2571ZM39.0254 25.3589L36.4367 26.8491L37.9435 30.0826L37.0306 34.1223L41.5148 34.2995L44.6534 29.6332H49.5404L41.2931 26.0766L39.0254 25.3589ZM49.8553 29.769V34.6293L51.8799 34.7093L50.5491 30.0682L49.8553 29.769ZM50.1875 28.8073L41.6684 25.1334L40.2158 24.6737L43.2957 22.9008L49.7563 27.3033L50.1875 28.8073ZM51.4225 29.3399L55.0244 30.8933L51.1014 28.22L51.4225 29.3399ZM49.3163 25.7691L47.7574 20.3325L44.2776 22.3356L49.3163 25.7691ZM52.1729 35.7311L49.8553 35.6394V40.0326L40.7293 35.4674L40.853 35.2835L36.8044 35.1235L34.9259 43.4363L39.965 43.9012L38.3712 37.7683L46.3575 44.4909L47.0964 44.5591L52.2864 36.1267L52.1729 35.7311ZM52.6722 37.4721L48.2451 44.665L54.9111 45.28L52.6722 37.4721ZM46.3296 45.8051L45.9255 45.4649L41.3367 45.0416L42.1046 47.9967L31.393 51.4317L35.6532 54.7591L43.544 50.3309L46.3296 45.8051ZM45.3984 49.2902L48.4413 47.5826L47.1292 46.4781L45.3984 49.2902ZM42.447 52.1132L36.5224 55.438L39.1416 57.4838L42.447 52.1132ZM34.6868 55.3014L30.3516 51.9153L34.3288 55.5023L34.6868 55.3014ZM30.4279 50.6779L40.8569 47.3335L40.2349 44.94L34.7015 44.4295L34.6945 44.4606L25.1339 46.543L30.4279 50.6779ZM24.0982 45.7341L31.4601 44.1305L20.7842 43.1457L24.0982 45.7341ZM19.9813 42.0577L33.8802 43.3399L35.7463 35.0816L23.0099 34.5781L22.2815 34.9974L19.9813 42.0577ZM21.101 34.5026L14.5479 38.2748L9.11142 34.0286L21.101 34.5026ZM15.4135 38.9509L20.9356 35.7722L18.9899 41.7442L15.4135 38.9509ZM14.4575 39.5012L11.3927 41.2654L17.4292 41.8223L14.4575 39.5012ZM19.5247 43.459L18.3775 46.9801L22.7997 46.0169L19.5247 43.459ZM24.652 33.6329L35.9725 34.0804L36.851 30.1932L35.5347 27.3684L24.652 33.6329ZM41.0668 44.0028L44.5728 44.3263L40.1926 40.6392L41.0668 44.0028ZM42.7858 35.36L48.8124 38.3748V35.5982L42.7858 35.36ZM48.8124 34.588V30.6426H45.2189L42.727 34.3475L48.8124 34.588ZM28.5899 12.8798L26.1027 20.2076L18.3048 17.7399L22.2377 8.5512L28.5899 12.8798Z" fill="#FFF853"/>
</g>
</svg>
