<svg width="70" height="70" viewBox="0 0 70 70" fill="none" xmlns="http://www.w3.org/2000/svg">
<g opacity="0.7">
<path d="M4 4H70V70H4V4Z" fill="#5A5A5A"/>
<path fill-rule="evenodd" clip-rule="evenodd" d="M69 5H5V69H69V5ZM4 4V70H70V4H4Z" fill="#2B2B2B"/>
<path d="M2 2H68V68H2V2Z" fill="#5A5A5A"/>
<path fill-rule="evenodd" clip-rule="evenodd" d="M67 3H3V67H67V3ZM2 2V68H68V2H2Z" fill="#2B2B2B"/>
<path d="M0 0H66V66H0V0Z" fill="#5A5A5A"/>
<path fill-rule="evenodd" clip-rule="evenodd" d="M65 1H1V65H65V1ZM0 0V66H66V0H0Z" fill="#2B2B2B"/>
<path d="M8 48.8278L33 39.6556L58 48.8278L33 58L8 48.8278Z" fill="#5A5A5A"/>
<path fill-rule="evenodd" clip-rule="evenodd" d="M8 48.8278L33 58L58 48.8278L33 39.6556L8 48.8278ZM10.7826 48.8278L33 56.9791L55.2174 48.8278L33 40.6765L10.7826 48.8278Z" fill="#FFF853"/>
<path d="M8 45.1871L33 36.0149L58 45.1871L33 54.3593L8 45.1871Z" fill="#5A5A5A"/>
<path fill-rule="evenodd" clip-rule="evenodd" d="M8 45.1871L33 54.3593L58 45.1871L33 36.0149L8 45.1871ZM10.7826 45.1871L33 53.3384L55.2174 45.1871L33 37.0359L10.7826 45.1871Z" fill="#FFF853"/>
<path d="M8 41.8242L33 32.9299L58 41.8242L33 50.7184L8 41.8242Z" fill="#5A5A5A"/>
<path fill-rule="evenodd" clip-rule="evenodd" d="M8 41.8242L33 50.7184L58 41.8242L33 32.9299L8 41.8242ZM10.8589 41.8242L33 49.7013L55.1411 41.8242L33 33.947L10.8589 41.8242Z" fill="#FFF853"/>
<path d="M8 38.4612L33 29.289L58 38.4612L33 47.6334L8 38.4612Z" fill="#5A5A5A"/>
<path fill-rule="evenodd" clip-rule="evenodd" d="M8 38.4612L33 47.6334L58 38.4612L33 29.289L8 38.4612ZM10.7826 38.4612L33 46.6124L55.2174 38.4612L33 30.3099L10.7826 38.4612Z" fill="#FFF853"/>
<path d="M8 34.8205L33 25.6483L58 34.8205L33 43.9927L8 34.8205Z" fill="#5A5A5A"/>
<path fill-rule="evenodd" clip-rule="evenodd" d="M8 34.8205L33 43.9927L58 34.8205L33 25.6483L8 34.8205ZM10.7826 34.8205L33 42.9717L55.2174 34.8205L33 26.6692L10.7826 34.8205Z" fill="#FFF853"/>
<path d="M8 31.1798L33 22.0076L58 31.1798L33 40.352L8 31.1798Z" fill="#5A5A5A"/>
<path fill-rule="evenodd" clip-rule="evenodd" d="M8 31.1798L33 40.352L58 31.1798L33 22.0076L8 31.1798ZM10.7826 31.1798L33 39.331L55.2174 31.1798L33 23.0285L10.7826 31.1798Z" fill="#FFF853"/>
<path d="M8 27.5388L33 18.3666L58 27.5388L33 36.711L8 27.5388Z" fill="#5A5A5A"/>
<path fill-rule="evenodd" clip-rule="evenodd" d="M8 27.5388L33 36.711L58 27.5388L33 18.3666L8 27.5388ZM10.7826 27.5388L33 35.6901L55.2174 27.5388L33 19.3876L10.7826 27.5388Z" fill="#FFF853"/>
<path d="M8 24.1759L33 15.2816L58 24.1759L33 33.0701L8 24.1759Z" fill="#5A5A5A"/>
<path fill-rule="evenodd" clip-rule="evenodd" d="M8 24.1759L33 33.0701L58 24.1759L33 15.2816L8 24.1759ZM10.8589 24.1759L33 32.053L55.1411 24.1759L33 16.2988L10.8589 24.1759Z" fill="#FFF853"/>
<path d="M8 20.8131L33 11.6409L58 20.8131L33 29.9853L8 20.8131Z" fill="#5A5A5A"/>
<path fill-rule="evenodd" clip-rule="evenodd" d="M8 20.8131L33 29.9853L58 20.8131L33 11.6409L8 20.8131ZM10.7826 20.8131L33 28.9644L55.2174 20.8131L33 12.6619L10.7826 20.8131Z" fill="#FFF853"/>
<path d="M8 17.1722L33 8L58 17.1722L33 26.3444L8 17.1722Z" fill="#5A5A5A"/>
<path fill-rule="evenodd" clip-rule="evenodd" d="M8 17.1722L33 26.3444L58 17.1722L33 8L8 17.1722ZM10.7826 17.1722L33 25.3235L55.2174 17.1722L33 9.02091L10.7826 17.1722Z" fill="#FFF853"/>
</g>
</svg>
