<svg width="70" height="70" viewBox="0 0 70 70" fill="none" xmlns="http://www.w3.org/2000/svg">
<g opacity="0.7">
<path d="M4 4H70V70H4V4Z" fill="#5A5A5A"/>
<path fill-rule="evenodd" clip-rule="evenodd" d="M69 5H5V69H69V5ZM4 4V70H70V4H4Z" fill="#2B2B2B"/>
<path d="M2 2H68V68H2V2Z" fill="#5A5A5A"/>
<path fill-rule="evenodd" clip-rule="evenodd" d="M67 3H3V67H67V3ZM2 2V68H68V2H2Z" fill="#2B2B2B"/>
<path d="M0 0H66V66H0V0Z" fill="#5A5A5A"/>
<path fill-rule="evenodd" clip-rule="evenodd" d="M65 1H1V65H65V1ZM0 0V66H66V0H0Z" fill="#2B2B2B"/>
<path d="M18.9677 33L40.4839 24.5806L62 33L40.4839 41.4194L18.9677 33Z" fill="#5A5A5A"/>
<path fill-rule="evenodd" clip-rule="evenodd" d="M18.9677 33L40.4839 41.4194L62 33L40.4839 24.5806L18.9677 33ZM21.4699 33L40.4839 40.4402L59.4978 33L40.4839 25.5598L21.4699 33Z" fill="#FFF853"/>
<path d="M15.2258 33L36.7419 24.5806L58.2581 33L36.7419 41.4194L15.2258 33Z" fill="#5A5A5A"/>
<path fill-rule="evenodd" clip-rule="evenodd" d="M15.2258 33L36.7419 41.4194L58.2581 33L36.7419 24.5806L15.2258 33ZM17.728 33L36.7419 40.4402L55.7559 33L36.7419 25.5598L17.728 33Z" fill="#FFF853"/>
<path d="M11.4839 33L33 24.5806L54.5161 33L33 41.4194L11.4839 33Z" fill="#5A5A5A"/>
<path fill-rule="evenodd" clip-rule="evenodd" d="M11.4839 33L33 41.4194L54.5161 33L33 24.5806L11.4839 33ZM13.9861 33L33 40.4402L52.0139 33L33 25.5598L13.9861 33Z" fill="#FFF853"/>
<path d="M7.74194 33L29.2581 24.5806L50.7742 33L29.2581 41.4194L7.74194 33Z" fill="#5A5A5A"/>
<path fill-rule="evenodd" clip-rule="evenodd" d="M7.74194 33L29.2581 41.4194L50.7742 33L29.2581 24.5806L7.74194 33ZM10.2441 33L29.2581 40.4402L48.272 33L29.2581 25.5598L10.2441 33Z" fill="#FFF853"/>
<path d="M4 33L25.5161 24.5806L47.0323 33L25.5161 41.4194L4 33Z" fill="#5A5A5A"/>
<path fill-rule="evenodd" clip-rule="evenodd" d="M4 33L25.5161 41.4194L47.0323 33L25.5161 24.5806L4 33ZM6.5022 33L25.5161 40.4402L44.5301 33L25.5161 25.5598L6.5022 33Z" fill="#FFF853"/>
<path d="M33 18.9677L41.4194 40.4839L33 62L24.5806 40.4839L33 18.9677Z" fill="#5A5A5A"/>
<path fill-rule="evenodd" clip-rule="evenodd" d="M33 18.9677L24.5806 40.4839L33 62L41.4194 40.4839L33 18.9677ZM33 21.4699L25.5598 40.4839L33 59.4978L40.4402 40.4839L33 21.4699Z" fill="#FFF853"/>
<path d="M33 15.2258L41.4194 36.7419L33 58.2581L24.5806 36.7419L33 15.2258Z" fill="#5A5A5A"/>
<path fill-rule="evenodd" clip-rule="evenodd" d="M33 15.2258L24.5806 36.7419L33 58.2581L41.4194 36.7419L33 15.2258ZM33 17.728L25.5598 36.7419L33 55.7559L40.4402 36.7419L33 17.728Z" fill="#FFF853"/>
<path d="M33 11.4839L41.4194 33L33 54.5161L24.5806 33L33 11.4839Z" fill="#5A5A5A"/>
<path fill-rule="evenodd" clip-rule="evenodd" d="M33 11.4839L24.5806 33L33 54.5161L41.4194 33L33 11.4839ZM33 13.9861L25.5598 33L33 52.0139L40.4402 33L33 13.9861Z" fill="#FFF853"/>
<path d="M33 7.74194L41.4194 29.2581L33 50.7742L24.5806 29.2581L33 7.74194Z" fill="#5A5A5A"/>
<path fill-rule="evenodd" clip-rule="evenodd" d="M33 7.74194L24.5806 29.2581L33 50.7742L41.4194 29.2581L33 7.74194ZM33 10.2441L25.5598 29.2581L33 48.272L40.4402 29.2581L33 10.2441Z" fill="#FFF853"/>
<path d="M33 4L41.4194 25.5161L33 47.0323L24.5806 25.5161L33 4Z" fill="#5A5A5A"/>
<path fill-rule="evenodd" clip-rule="evenodd" d="M33 4L24.5806 25.5161L33 47.0323L41.4194 25.5161L33 4ZM33 6.5022L25.5598 25.5161L33 44.5301L40.4402 25.5161L33 6.5022Z" fill="#FFF853"/>
</g>
</svg>
