<svg width="180" height="168" viewBox="0 0 180 168" fill="none" xmlns="http://www.w3.org/2000/svg">
<rect x="0.194056" y="0.362754" width="131.841" height="71.7951" transform="matrix(0.962847 0.270048 -0.309741 0.950821 37.5395 31.4911)" fill="#75EB3E" stroke="#2B2B2B" stroke-width="0.594256"/>
<rect x="0.194056" y="0.362754" width="124.837" height="65.2143" transform="matrix(0.962847 0.270048 -0.309741 0.950821 39.893 35.5655)" fill="#75EB3E" stroke="#2B2B2B" stroke-width="0.594256"/>
<rect x="0.194056" y="0.362754" width="116.56" height="58.6334" transform="matrix(0.962847 0.270048 -0.309741 0.950821 42.8579 39.8119)" fill="#75EB3E" stroke="#2B2B2B" stroke-width="0.594256"/>
<path d="M43.7882 80.8379L46.3327 72.4201L51.7337 74.0526L49.2039 82.4218C47.6253 87.6443 44.6464 89.5938 40.2672 88.2701L39.0508 87.9024C34.5418 86.5395 33.057 83.3116 34.5964 78.2188L41.2737 56.1282C41.9013 54.0521 42.9399 52.4898 44.3898 51.4411C45.8494 50.36 47.7308 50.1675 50.034 50.8637L51.2991 51.2461C52.7264 51.6775 53.8466 52.2463 54.6599 52.9523C55.5056 53.6682 56.0167 54.4953 56.1933 55.4337C56.3698 56.3722 56.4053 57.2503 56.2998 58.068C56.2364 58.8631 56.0479 59.7797 55.7341 60.8177L53.778 67.2892L48.377 65.6566L50.3037 59.2825C50.7842 57.693 50.4081 56.712 49.1754 56.3394C48.5266 56.1433 48.0137 56.2006 47.6365 56.5114C47.3016 56.7996 47.0066 57.3654 46.7517 58.2088L40.2509 79.7155C39.7509 81.3699 40.0847 82.3736 41.2525 82.7266C42.4527 83.0894 43.298 82.4598 43.7882 80.8379ZM72.3461 66.6355L66.2424 86.8285C64.5265 92.5052 61.333 94.6376 56.6618 93.2257L55.7373 92.9462C51.0013 91.5147 49.4913 87.9605 51.2071 82.2838L57.2961 62.1395C58.9728 56.5925 62.1629 54.5299 66.8665 55.9516L67.791 56.2311C70.3212 56.9959 71.9058 58.2537 72.5449 60.0046C73.2163 61.7652 73.1501 63.9756 72.3461 66.6355ZM60.5291 85.5264L66.824 64.7008C67.3829 62.8518 67.0297 61.7362 65.7646 61.3538C64.4671 60.9616 63.5389 61.6899 62.98 63.5389L56.6851 84.3645C56.1262 86.2134 56.5118 87.3389 57.8418 87.741C59.0744 88.1135 59.9702 87.3753 60.5291 85.5264ZM76.8178 59.3313L82.3161 60.9933L73.065 91.599L79.7798 93.6287L78.0884 99.2243L65.8753 95.5327L76.8178 59.3313ZM90.6454 63.5109L96.1437 65.1729L86.8926 95.7786L93.6073 97.8083L91.916 103.404L79.7029 99.7123L90.6454 63.5109ZM104.473 67.6906L116.978 71.4704L115.39 76.7255L108.383 74.6076L105.515 84.0958L111.013 85.7578L109.351 91.2561L103.853 89.5941L100.691 100.056L107.989 102.262L106.327 107.76L93.5304 103.892L104.473 67.6906ZM113.231 110.378L112.89 110.275C111.301 109.794 110.206 108.791 109.605 107.264C109.047 105.714 109.057 103.983 109.635 102.069L116.474 79.443C118.043 74.2529 121.082 72.3393 125.591 73.7022L126.662 74.0257C128.089 74.4572 129.193 75.021 129.974 75.7172C130.754 76.4135 131.228 77.247 131.395 78.2179C131.572 79.1563 131.597 80.0669 131.472 80.9495C131.379 81.8419 131.147 82.9044 130.774 84.1371L129.656 87.8351L124.304 86.2173L125.539 82.13C126.04 80.4756 125.706 79.472 124.538 79.119C123.403 78.7758 122.585 79.4314 122.085 81.0858L115.687 102.252C115.167 103.971 115.508 105.012 116.708 105.375C118.07 105.787 118.987 105.214 119.457 103.657L122.193 94.6067L119.711 93.8566L121.388 88.3097L129.076 90.6335L122.428 112.627L119.314 111.685C119.405 109.978 119.455 108.701 119.463 107.854C118.949 108.619 118.079 109.33 116.854 109.986C115.671 110.62 114.463 110.75 113.231 110.378ZM135.454 77.0552L147.959 80.8351L146.371 86.0901L139.364 83.9722L136.496 93.4605L141.994 95.1224L140.332 100.621L134.834 98.9588L131.672 109.42L138.971 111.626L137.309 117.125L124.512 113.257L135.454 77.0552Z" fill="#2B2B2B"/>
</svg>
