<svg width="214" height="167" viewBox="0 0 214 167" fill="none" xmlns="http://www.w3.org/2000/svg">
<rect x="21.5299" y="41.7278" width="151" height="51" transform="rotate(9.86903 21.5299 41.7278)" fill="#59AFFF" stroke="#2B2B2B"/>
<rect x="23.9714" y="45.1977" width="145" height="45" transform="rotate(9.86903 23.9714 45.1977)" fill="#59AFFF" stroke="#2B2B2B"/>
<rect x="26.4128" y="48.6675" width="139" height="39" transform="rotate(9.86903 26.4128 48.6675)" fill="#59AFFF" stroke="#2B2B2B"/>
<path d="M39.8139 55.4081L49.9418 57.1701L49.2014 61.4261L43.5266 60.4389L42.1897 68.1235L46.6428 68.8982L45.8681 73.3513L41.415 72.5766L39.941 81.0493L45.8522 82.0777L45.0775 86.5308L34.7131 84.7277L39.8139 55.4081ZM46.9651 86.8592L52.0658 57.5396L58.8834 58.7256C60.6962 59.041 61.899 59.751 62.4917 60.8556C63.0891 61.934 63.2278 63.3927 62.9079 65.2317L59.8022 83.0836C59.1257 86.9718 57.1192 88.6257 53.7827 88.0453L46.9651 86.8592ZM55.8265 62.2945L52.1586 83.3778L53.2226 83.5629C53.8794 83.6772 54.3558 83.5841 54.6516 83.2837C54.9783 82.9616 55.2125 82.3934 55.3542 81.5789L58.2268 65.0669C58.3731 64.2262 58.3577 63.6145 58.1807 63.2319C58.0036 62.8492 57.6393 62.6099 57.0876 62.5139L55.8265 62.2945ZM62.1345 82.9209L66.1247 59.9854L70.6566 60.7738L66.6185 83.9852C66.3762 85.3776 66.728 86.1561 67.6738 86.3206C68.6459 86.4897 69.253 85.8781 69.4953 84.4857L73.5334 61.2743L78.0653 62.0627L74.0752 84.9982C73.2936 89.4908 71.0375 91.4125 67.3069 90.7635L66.5187 90.6264C62.8144 89.9819 61.353 87.4134 62.1345 82.9209ZM83.6046 87.1027L84.7906 80.2851L89.1649 81.0461L87.9857 87.8243C87.2499 92.0541 85.1086 93.8605 81.5618 93.2434L80.5766 93.072C76.9248 92.4367 75.4577 90.0567 76.1753 85.932L79.2878 68.0407C79.5804 66.3593 80.243 65.04 81.2756 64.0829C82.3129 63.0994 83.7641 62.77 85.6295 63.0945L86.6541 63.2727C87.81 63.4738 88.7393 63.8114 89.4417 64.2855C90.1705 64.7642 90.6485 65.3616 90.8758 66.0778C91.103 66.794 91.2144 67.4766 91.2098 68.1254C91.236 68.7525 91.176 69.4864 91.0297 70.3271L90.1179 75.5684L85.7436 74.8074L86.6417 69.6449C86.8657 68.3576 86.4785 67.6271 85.4801 67.4534C84.9547 67.362 84.5595 67.4556 84.2945 67.7343C84.0603 67.9913 83.8838 68.4614 83.7649 69.1444L80.7346 86.5628C80.5015 87.9027 80.8579 88.6549 81.8037 88.8194C82.7757 88.9885 83.376 88.4163 83.6046 87.1027ZM96.5567 95.4867L96.9254 89.8667L93.6546 89.2977L92.143 94.7189L88.1628 94.0264L96.8497 65.3307L102.13 66.2494L100.852 96.234L96.5567 95.4867ZM97.9167 74.3673L94.8885 85.0057L97.2135 85.4102L97.9167 74.3673ZM105.024 66.7528L116.926 68.8233L116.185 73.0794L112.441 72.4281L108.081 97.4916L103.667 96.7238L108.028 71.6602L104.284 71.0089L105.024 66.7528ZM123.243 69.9224L118.143 99.242L113.689 98.4673L118.79 69.1477L123.243 69.9224ZM136.596 78.8632L133.75 95.2176C132.951 99.8152 130.659 101.785 126.876 101.127L126.127 100.997C122.291 100.329 120.773 97.6968 121.573 93.0991L124.412 76.7842C125.193 72.2917 127.489 70.3768 131.298 71.0395L132.047 71.1698C134.096 71.5263 135.454 72.3579 136.12 73.6647C136.812 74.9761 136.97 76.7089 136.596 78.8632ZM129.164 94.7444L132.098 77.8778C132.358 76.3803 131.976 75.5424 130.952 75.3641C129.901 75.1813 129.245 75.8387 128.985 77.3362L126.05 94.2028C125.79 95.7003 126.198 96.5428 127.275 96.7302C128.274 96.9039 128.903 96.242 129.164 94.7444ZM139.984 72.8349L144.004 73.5342L145.091 89.923L147.827 74.1992L151.886 74.9053L146.785 104.225L143.159 103.594L141.838 85.9871L138.903 102.854L134.884 102.154L139.984 72.8349Z" fill="#2B2B2B"/>
</svg>
