<svg width="171" height="143" viewBox="0 0 171 143" fill="none" xmlns="http://www.w3.org/2000/svg">
<rect x="36.8156" y="11.5542" width="123.011" height="71.3107" transform="rotate(16.8184 36.8156 11.5542)" fill="#753EEB" stroke="#2B2B2B" stroke-width="0.594256"/>
<rect x="38.9992" y="15.6287" width="116.474" height="64.7739" transform="rotate(16.8184 38.9992 15.6287)" fill="#753EEB" stroke="#2B2B2B" stroke-width="0.594256"/>
<rect x="41.7512" y="19.875" width="108.749" height="58.2371" transform="rotate(16.8184 41.7512 19.875)" fill="#753EEB" stroke="#2B2B2B" stroke-width="0.594256"/>
<path d="M69.8187 39.6249L82.3044 43.468L80.7422 48.7309L73.7463 46.5776L70.9257 56.08L76.4155 57.7698L74.781 63.2764L69.2911 61.5866L66.1812 72.0636L73.4686 74.3067L71.834 79.8132L59.0568 75.8804L69.8187 39.6249ZM73.1454 80.2169L83.9073 43.9614L94.9355 47.3559L93.3733 52.6188L87.8349 50.9141L78.6352 81.9066L73.1454 80.2169ZM108.471 59.074L101.904 81.1977C100.39 86.2981 97.3818 88.1555 92.8798 86.7698L91.6653 86.3959C87.2928 85.0501 85.8829 81.762 87.4354 76.5316L89.3159 70.1966L94.7086 71.8565L92.8137 78.2402C92.3315 79.8645 92.6896 80.8611 93.888 81.23C95.054 81.5889 95.8829 80.9399 96.3747 79.2831L98.9205 70.7065L93.3821 69.0018L95.0166 63.4952L100.555 65.2L102.768 57.7442C103.019 56.8995 103.068 56.2586 102.915 55.8215C102.804 55.3619 102.424 55.0324 101.777 54.833C100.546 54.4542 99.6941 55.0607 99.2216 56.6526L97.5726 62.2078L92.1799 60.548L93.8579 54.8952C94.1664 53.8557 94.4964 52.9822 94.8478 52.2749C95.2411 51.545 95.7689 50.8388 96.431 50.1563C97.0932 49.4737 97.9565 49.0658 99.0212 48.9326C100.118 48.8093 101.379 48.967 102.804 49.4056L104.067 49.7944C106.335 50.4923 107.779 51.6992 108.401 53.4151C109.065 55.1086 109.088 56.9949 108.471 59.074Z" fill="white"/>
<path d="M124.712 104.692L56.0008 24.3599" stroke="#FF0000" stroke-width="5"/>
<path d="M34.5 75.5L138 54" stroke="#FF0000" stroke-width="5"/>
</svg>
