<svg width="119" height="98" viewBox="0 0 119 98" fill="none" xmlns="http://www.w3.org/2000/svg">
<rect x="11.2919" y="24.1811" width="92.9327" height="53.874" transform="rotate(-2.8352 11.2919 24.1811)" fill="#75EB3E" stroke="#2B2B2B" stroke-width="0.44895"/>
<rect x="13.8798" y="26.5249" width="87.9943" height="48.9356" transform="rotate(-2.8352 13.8798 26.5249)" fill="#75EB3E" stroke="#2B2B2B" stroke-width="0.44895"/>
<rect x="16.9169" y="28.8471" width="82.1579" height="43.9971" transform="rotate(-2.8352 16.9169 28.8471)" fill="#75EB3E" stroke="#2B2B2B" stroke-width="0.44895"/>
<path d="M23.6635 65.4267L22.2503 36.89L32.1077 36.4018L32.3129 40.5442L26.7896 40.8178L27.1619 48.3355L31.5345 48.119L31.7491 52.4531L27.3766 52.6697L27.9977 65.212L23.6635 65.4267ZM34.4038 58.6659L33.2982 36.3429L37.7091 36.1244L38.828 58.7159C38.8951 60.0712 39.3889 60.726 40.3094 60.6804C41.2556 60.6335 41.695 59.9325 41.6279 58.5773L40.5091 35.9858L44.92 35.7673L46.0255 58.0903C46.2421 62.4629 44.5349 64.7391 40.9038 64.9189L40.1367 64.9569C36.5313 65.1354 34.6203 63.0384 34.4038 58.6659ZM46.0602 35.7108L57.6436 35.1372L57.8488 39.2796L54.205 39.4601L55.4131 63.8543L51.1172 64.067L49.9091 39.6728L46.2653 39.8533L46.0602 35.7108ZM59.9118 57.4026L58.8063 35.0796L63.2172 34.8612L64.336 57.4527C64.4031 58.8079 64.8969 59.4627 65.8175 59.4171C66.7636 59.3703 67.2031 58.6692 67.136 57.314L66.0171 34.7225L70.4281 34.5041L71.5336 56.8271C71.7501 61.1996 70.0429 63.4758 66.4119 63.6556L65.6448 63.6936C62.0393 63.8722 60.1283 61.7752 59.9118 57.4026ZM76.6313 38.0803L77.0207 45.9432L78.1713 45.8862C79.2197 45.8343 79.7104 45.1307 79.6432 43.7755L79.4457 39.7865C79.4128 39.1216 79.2871 38.6537 79.0686 38.3825C78.8501 38.1114 78.4212 37.9916 77.7819 38.0233L76.6313 38.0803ZM77.222 50.0089L77.8527 62.743L73.5185 62.9576L72.1052 34.421L79.1243 34.0734C80.6074 33.9999 81.7112 34.2913 82.4358 34.9475C83.1847 35.5769 83.5984 36.6843 83.6769 38.2696L83.9277 43.3326C84.0227 45.2504 83.4563 46.496 82.2287 47.0695C83.5095 47.57 84.1873 48.5745 84.262 50.0832L84.7578 60.094C84.797 60.8867 84.9725 61.5829 85.2842 62.1827L85.2937 62.3745L80.9978 62.5872C80.6938 62.1409 80.5145 61.368 80.46 60.2684L80.0345 51.6767C80.0016 51.0119 79.8765 50.5567 79.6593 50.3111C79.4408 50.04 78.9992 49.9209 78.3343 49.9538L77.222 50.0089ZM85.1027 33.7773L94.9601 33.2891L95.1653 37.4315L89.642 37.7051L90.0125 45.1844L94.3466 44.9698L94.5613 49.304L90.2271 49.5186L90.6355 57.7651L96.3889 57.4802L96.6035 61.8144L86.516 62.3139L85.1027 33.7773Z" fill="white"/>
</svg>
