<svg width="71" height="53" viewBox="0 0 71 53" fill="none" xmlns="http://www.w3.org/2000/svg">
<circle cx="11.7624" cy="40.9354" r="7.52142" transform="rotate(-31.3559 11.7624 40.9354)" fill="#FFF044" stroke="#2B2B2B" stroke-width="1.06578"/>
<circle cx="17.112" cy="37.6759" r="7.52142" transform="rotate(-31.3559 17.112 37.6759)" fill="#FFF044" stroke="#2B2B2B" stroke-width="1.06578"/>
<circle cx="22.4597" cy="34.4174" r="7.52142" transform="rotate(-31.3559 22.4597 34.4174)" fill="#FFF044" stroke="#2B2B2B" stroke-width="1.06578"/>
<circle cx="27.8074" cy="31.1586" r="7.52142" transform="rotate(-31.3559 27.8074 31.1586)" fill="#FFF044" stroke="#2B2B2B" stroke-width="1.06578"/>
<circle cx="33.156" cy="27.8998" r="7.52142" transform="rotate(-31.3559 33.156 27.8998)" fill="#FFF044" stroke="#2B2B2B" stroke-width="1.06578"/>
<circle cx="38.5037" cy="24.641" r="7.52142" transform="rotate(-31.3559 38.5037 24.641)" fill="#FFF044" stroke="#2B2B2B" stroke-width="1.06578"/>
<circle cx="43.8523" cy="21.3822" r="7.52142" transform="rotate(-31.3559 43.8523 21.3822)" fill="#FFF044" stroke="#2B2B2B" stroke-width="1.06578"/>
<circle cx="49.1999" cy="18.1232" r="7.52142" transform="rotate(-31.3559 49.1999 18.1232)" fill="#FFF044" stroke="#2B2B2B" stroke-width="1.06578"/>
<circle cx="54.5476" cy="14.8644" r="7.52142" transform="rotate(-31.3559 54.5476 14.8644)" fill="#FFF044" stroke="#2B2B2B" stroke-width="1.06578"/>
<circle cx="59.8962" cy="11.6056" r="7.52142" transform="rotate(-31.3559 59.8962 11.6056)" fill="#FFF044" stroke="#2B2B2B" stroke-width="1.06578"/>
</svg>
