<svg width="59" height="47" viewBox="0 0 59 47" fill="none" xmlns="http://www.w3.org/2000/svg">
<path d="M46.4583 17.5555C46.4302 17.146 45.9113 17.0786 45.6554 17.0961L35.6447 21.1243C35.3975 21.2698 34.9119 21.6888 34.9469 22.2007C34.9819 22.7126 36.3435 35.0916 37.0198 41.2171C37.1683 41.5069 37.6152 42.025 38.2154 41.7781C38.8157 41.5313 45.3953 38.9723 48.61 37.7237C49.2033 37.3745 49.3166 36.7753 49.2991 36.5193C48.3638 30.3687 46.4863 17.965 46.4583 17.5555Z" fill="#FFF044" stroke="black" stroke-width="1.06578"/>
<path d="M40.0042 14.7371C39.9761 14.3276 39.4572 14.2603 39.2013 14.2778L29.1906 18.3059C28.9434 18.4514 28.4578 18.8704 28.4928 19.3823C28.5278 19.8942 29.8894 32.2732 30.5657 38.3987C30.7142 38.6886 31.1611 39.2066 31.7613 38.9598C32.3616 38.713 38.9412 36.154 42.1559 34.9053C42.7492 34.5562 42.8625 33.9569 42.845 33.701C41.9097 27.5503 40.0322 15.1467 40.0042 14.7371Z" fill="#FFF044" stroke="black" stroke-width="1.06578"/>
<path d="M33.5501 11.9207C33.522 11.5112 33.0031 11.4439 32.7472 11.4614L22.7365 15.4895C22.4893 15.635 22.0037 16.054 22.0387 16.5659C22.0737 17.0778 23.4353 29.4568 24.1116 35.5823C24.26 35.8722 24.707 36.3902 25.3072 36.1434C25.9075 35.8966 32.4871 33.3376 35.7018 32.0889C36.2951 31.7397 36.4084 31.1405 36.3909 30.8846C35.4556 24.7339 33.5781 12.3303 33.5501 11.9207Z" fill="#FFF044" stroke="black" stroke-width="1.06578"/>
<path d="M27.096 9.10189C27.0679 8.69235 26.549 8.625 26.293 8.64252L16.2824 12.6707C16.0352 12.8162 15.5496 13.2352 15.5846 13.7471C15.6196 14.259 16.9812 26.638 17.6575 32.7635C17.8059 33.0533 18.2529 33.5713 18.8531 33.3245C19.4534 33.0777 26.033 30.5187 29.2477 29.2701C29.841 28.9209 29.9543 28.3217 29.9368 28.0657C29.0015 21.9151 27.124 9.51142 27.096 9.10189Z" fill="#FFF044" stroke="black" stroke-width="1.06578"/>
<path d="M20.6419 6.2845C20.6138 5.87497 20.0949 5.80762 19.8389 5.82514L9.82831 9.8533C9.58111 9.9988 9.09547 10.4178 9.13051 10.9297C9.16554 11.4416 10.5271 23.8206 11.2034 29.9461C11.3518 30.2359 11.7988 30.754 12.399 30.5072C12.9993 30.2603 19.5789 27.7014 22.7936 26.4527C23.3869 26.1035 23.5002 25.5043 23.4827 25.2483C22.5474 19.0977 20.6699 6.69404 20.6419 6.2845Z" fill="#FFF044" stroke="black" stroke-width="1.06578"/>
</svg>
