<svg width="123" height="99" viewBox="0 0 123 99" fill="none" xmlns="http://www.w3.org/2000/svg">
<rect x="0.235673" y="0.213421" width="95.9012" height="53.8784" transform="matrix(0.99885 -0.0479395 0.0510355 0.998697 11.9894 24.9796)" fill="#75EB3E" stroke="#2B2B2B" stroke-width="0.44895"/>
<rect x="0.235673" y="0.213421" width="90.8058" height="48.9395" transform="matrix(0.99885 -0.0479395 0.0510355 0.998697 14.6593 27.3233)" fill="#67FFDB" stroke="#2B2B2B" stroke-width="0.44895"/>
<rect x="0.235673" y="0.213421" width="84.7839" height="44.0007" transform="matrix(0.99885 -0.0479395 0.0510355 0.998697 17.7941 29.6456)" fill="#753EEB" stroke="#2B2B2B" stroke-width="0.44895"/>
<path d="M22.6323 66.7254L21.219 38.1887L26.7806 37.9133L29.5983 52.8845L30.9614 37.7062L36.1394 37.4498L37.5527 65.9864L33.487 66.1878L32.5733 47.7387L30.8788 66.317L29.1528 66.4024L25.5925 48.0844L26.5062 66.5335L22.6323 66.7254ZM49.9338 43.034L50.7221 58.9516C50.9437 63.4264 49.2134 65.755 45.5313 65.9374L44.8025 65.9734C41.0692 66.1583 39.0918 64.0134 38.8702 59.5385L38.0837 43.6593C37.8672 39.2867 39.6128 37.0086 43.3205 36.825L44.0493 36.7889C46.0438 36.6901 47.4908 37.1824 48.3903 38.2657C49.3154 39.3478 49.8299 40.9372 49.9338 43.034ZM46.3264 59.4769L45.5134 43.0606C45.4412 41.6031 44.9065 40.899 43.9092 40.9484C42.8864 40.9991 42.4111 41.7532 42.4833 43.2107L43.2963 59.6269C43.3684 61.0844 43.9287 61.7872 44.9771 61.7353C45.9488 61.6872 46.3985 60.9344 46.3264 59.4769ZM52.6726 65.2376L51.2593 36.701L57.8949 36.3724C59.6592 36.285 60.9356 36.696 61.724 37.6054C62.5112 38.4892 62.949 39.8261 63.0377 41.616L63.8982 58.9911C64.0856 62.7756 62.5556 64.7482 59.3081 64.909L52.6726 65.2376ZM55.7854 40.3603L56.8016 60.8806L57.8372 60.8293C58.4765 60.7976 58.903 60.6099 59.1166 60.2661C59.3546 59.8954 59.454 59.3138 59.4147 58.5211L58.6188 42.45C58.5783 41.6318 58.4347 41.0622 58.1881 40.7411C57.9415 40.4201 57.5498 40.2729 57.0128 40.2995L55.7854 40.3603ZM64.4441 36.048L74.3015 35.5599L74.5067 39.7023L68.9835 39.9758L69.3539 47.4552L73.6881 47.2405L73.9027 51.5747L69.5685 51.7894L69.9769 60.0358L75.7303 59.7509L75.9449 64.0851L65.8574 64.5847L64.4441 36.048ZM80.3196 39.1452L80.709 47.0082L81.8596 46.9512C82.908 46.8993 83.3987 46.1957 83.3315 44.8404L83.134 40.8515C83.1011 40.1866 82.9754 39.7186 82.7569 39.4475C82.5384 39.1763 82.1095 39.0566 81.4702 39.0883L80.3196 39.1452ZM80.9103 51.0739L81.541 63.808L77.2068 64.0226L75.7935 35.486L82.8126 35.1384C84.2957 35.0649 85.3995 35.3563 86.1241 36.0125C86.873 36.6419 87.2867 37.7492 87.3652 39.3346L87.616 44.3976C87.711 46.3154 87.1446 47.561 85.917 48.1344C87.1978 48.6349 87.8756 49.6395 87.9503 51.1482L88.4461 61.159C88.4853 61.9517 88.6608 62.6479 88.9725 63.2477L88.982 63.4395L84.6861 63.6522C84.3821 63.2059 84.2028 62.4329 84.1483 61.3334L83.7228 52.7417C83.6899 52.0769 83.5648 51.6217 83.3476 51.3761C83.1291 51.105 82.6875 50.9859 82.0226 51.0188L80.9103 51.0739ZM88.791 34.8423L92.7033 34.6485L97.1817 49.7682L96.4238 34.4643L100.374 34.2686L101.788 62.8053L98.2589 62.98L93.3035 46.7689L94.1165 63.1852L90.2042 63.3789L88.791 34.8423Z" fill="white"/>
</svg>
