<svg width="155" height="160" viewBox="0 0 155 160" fill="none" xmlns="http://www.w3.org/2000/svg">
<rect x="37.2238" y="28.4458" width="123.011" height="71.3107" transform="rotate(16.8184 37.2238 28.4458)" fill="#75EB3E" stroke="#2B2B2B" stroke-width="0.594256"/>
<rect x="39.4074" y="32.5203" width="116.474" height="64.7739" transform="rotate(16.8184 39.4074 32.5203)" fill="#75EB3E" stroke="#2B2B2B" stroke-width="0.594256"/>
<rect x="42.1584" y="36.7666" width="108.749" height="58.2371" transform="rotate(16.8184 42.1584 36.7666)" fill="#75EB3E" stroke="#2B2B2B" stroke-width="0.594256"/>
<path d="M61.6681 62.8565L55.5644 83.0495C53.8485 88.7262 50.655 90.8586 45.9838 89.4467L45.0593 89.1672C40.3233 87.7357 38.8133 84.1816 40.5292 78.5048L46.6181 58.3605C48.2948 52.8135 51.4849 50.7509 56.1885 52.1727L57.113 52.4521C59.6432 53.2169 61.2278 54.4747 61.8669 56.2256C62.5384 57.9863 62.4721 60.1966 61.6681 62.8565ZM49.8511 81.7474L56.146 60.9219C56.7049 59.0729 56.3518 57.9572 55.0867 57.5748C53.7891 57.1826 52.8609 57.911 52.302 59.76L46.0071 80.5855C45.4482 82.4345 45.8338 83.56 47.1638 83.962C48.3964 84.3346 49.2922 83.5964 49.8511 81.7474ZM66.1398 55.5523L71.1029 57.0525L69.9544 77.8936L75.8227 58.4792L80.8345 59.9941L69.892 96.1954L65.4155 94.8423L66.4553 72.4284L60.1604 93.2539L55.1973 91.7537L66.1398 55.5523ZM83.056 60.6656L88.5543 62.3275L79.3032 92.9332L86.018 94.9629L84.3266 100.559L72.1135 96.8669L83.056 60.6656ZM102.382 66.5071L91.4394 102.708L85.941 101.047L96.8835 64.8452L102.382 66.5071ZM104.629 67.1863L109.592 68.6865L108.443 89.5276L114.312 70.1131L119.324 71.628L108.381 107.829L103.904 106.476L104.944 84.0623L98.6495 104.888L93.6864 103.388L104.629 67.1863ZM121.545 72.2995L134.05 76.0794L132.462 81.3344L125.455 79.2165L122.587 88.7048L128.085 90.3668L126.423 95.8651L120.925 94.2031L117.763 104.665L125.061 106.871L123.4 112.369L110.603 108.501L121.545 72.2995Z" fill="#2B2B2B"/>
</svg>
