<svg width="119" height="98" viewBox="0 0 119 98" fill="none" xmlns="http://www.w3.org/2000/svg">
<rect x="11.9388" y="24.251" width="92.8817" height="53.823" transform="rotate(-2.8352 11.9388 24.251)" fill="#753EEB" stroke="#2B2B2B" stroke-width="0.5"/>
<rect x="14.5267" y="26.5948" width="87.9432" height="48.8845" transform="rotate(-2.8352 14.5267 26.5948)" fill="#753EEB" stroke="#2B2B2B" stroke-width="0.5"/>
<rect x="17.5638" y="28.917" width="82.1069" height="43.9461" transform="rotate(-2.8352 17.5638 28.917)" fill="#753EEB" stroke="#2B2B2B" stroke-width="0.5"/>
<path d="M38.0468 42.5009L38.8351 58.4185C39.0567 62.8934 37.3264 65.222 33.6443 65.4043L32.9155 65.4404C29.1822 65.6253 27.2048 63.4803 26.9832 59.0055L26.1968 43.1262C25.9802 38.7537 27.7258 36.4756 31.4335 36.292L32.1623 36.2559C34.1568 36.1571 35.6038 36.6494 36.5033 37.7327C37.4284 38.8147 37.9429 40.4041 38.0468 42.5009ZM34.4394 58.9438L33.6264 42.5276C33.5542 41.0701 33.0195 40.366 32.0222 40.4154C30.9994 40.466 30.5241 41.2201 30.5963 42.6777L31.4093 59.0939C31.4814 60.5514 32.0417 61.2542 33.0901 61.2023C34.0618 61.1542 34.5115 60.4013 34.4394 58.9438ZM39.3724 36.168L43.2846 35.9742L47.763 51.0939L47.0051 35.79L50.9558 35.5943L52.369 64.1309L48.8403 64.3057L43.8849 48.0946L44.6979 64.5108L40.7856 64.7046L39.3724 36.168ZM52.707 35.5076L57.0411 35.2929L58.2359 59.4187L63.529 59.1565L63.7475 63.5674L54.1202 64.0442L52.707 35.5076ZM67.9411 34.7531L69.3543 63.2898L65.0201 63.5044L63.6069 34.9678L67.9411 34.7531ZM69.7123 34.6654L73.6246 34.4716L78.103 49.5913L77.3451 34.2874L81.2957 34.0917L82.709 62.6284L79.1803 62.8031L74.2248 46.5921L75.0378 63.0083L71.1256 63.202L69.7123 34.6654ZM83.0469 34.005L92.9043 33.5168L93.1095 37.6593L87.5863 37.9328L87.9567 45.4121L92.2909 45.1975L92.5055 49.5317L88.1713 49.7463L88.5797 57.9928L94.3331 57.7079L94.5477 62.0421L84.4602 62.5417L83.0469 34.005Z" fill="white"/>
</svg>
