<svg width="171" height="157" viewBox="0 0 171 157" fill="none" xmlns="http://www.w3.org/2000/svg">
<rect x="36.8156" y="27.8955" width="123.011" height="71.3107" transform="rotate(16.8184 36.8156 27.8955)" fill="#67FFDB" stroke="#2B2B2B" stroke-width="0.594256"/>
<rect x="38.9992" y="31.97" width="116.474" height="64.7739" transform="rotate(16.8184 38.9992 31.97)" fill="#67FFDB" stroke="#2B2B2B" stroke-width="0.594256"/>
<rect x="41.7512" y="36.2163" width="108.749" height="58.2371" transform="rotate(16.8184 41.7512 36.2163)" fill="#67FFDB" stroke="#2B2B2B" stroke-width="0.594256"/>
<path d="M58.48 52.9055L73.1747 57.3472L71.5862 62.6022L66.9638 61.205L57.6097 92.1513L52.16 90.5041L61.5141 59.5578L56.8916 58.1605L58.48 52.9055ZM74.7469 57.8224L87.252 61.6023L85.6635 66.8573L78.6568 64.7394L75.7888 74.2277L81.2872 75.8897L79.6252 81.388L74.1269 79.726L70.9647 90.1874L78.2634 92.3936L76.6014 97.8919L63.8044 94.0238L74.7469 57.8224ZM89.4247 93.7494L91.9691 85.3316L97.3702 86.9641L94.8404 95.3333C93.2618 100.556 90.2829 102.505 85.9037 101.182L84.6873 100.814C80.1783 99.451 78.6935 96.2231 80.2329 91.1303L86.9102 69.0397C87.5377 66.9636 88.5764 65.4013 90.0263 64.3526C91.4859 63.2715 93.3673 63.0791 95.6705 63.7752L96.9356 64.1576C98.3628 64.589 99.4831 65.1578 100.296 65.8638C101.142 66.5797 101.653 67.4068 101.83 68.3452C102.006 69.2837 102.042 70.1618 101.936 70.9795C101.873 71.7746 101.684 72.6912 101.371 73.7292L99.4145 80.2007L94.0135 78.5682L95.9402 72.194C96.4207 70.6045 96.0446 69.6235 94.8119 69.2509C94.1631 69.0548 93.6502 69.1121 93.273 69.4229C92.9381 69.7111 92.6431 70.2769 92.3882 71.1203L85.8874 92.6271C85.3874 94.2814 85.7212 95.2851 86.889 95.6381C88.0892 96.0009 88.9345 95.3713 89.4247 93.7494ZM104.856 89.0675L100.046 104.979L94.5481 103.317L105.491 67.1153L110.989 68.7772L106.606 83.2772L110.353 84.4097L114.736 69.9097L120.234 71.5717L109.291 107.773L103.793 106.111L108.603 90.2L104.856 89.0675Z" fill="#2B2B2B"/>
</svg>
