<svg width="70" height="70" viewBox="0 0 70 70" fill="none" xmlns="http://www.w3.org/2000/svg">
<rect x="4.95862" y="5.40442" width="63.6497" height="64.0956" fill="#FF8365"/>
<rect x="4.95862" y="5.40442" width="63.6497" height="64.0956" stroke="#2B2B2B"/>
<rect x="2.72968" y="3.17529" width="63.6497" height="64.0956" fill="#FF8365"/>
<rect x="2.72968" y="3.17529" width="63.6497" height="64.0956" stroke="#2B2B2B"/>
<rect x="0.5" y="0.5" width="63.6497" height="64.0956" fill="#FF8365"/>
<rect x="0.5" y="0.5" width="63.6497" height="64.0956" stroke="#2B2B2B"/>
<path d="M53.5167 20.1495C53.5167 20.1495 53.5167 20.1399 53.5167 20.1366C53.5167 20.1302 53.5102 20.1238 53.507 20.1173C53.5037 20.1077 53.5004 20.0981 53.4972 20.0884C53.4939 20.0788 53.4874 20.0723 53.4841 20.0627C53.4776 20.053 53.4711 20.0434 53.4646 20.0338C53.4581 20.0273 53.4515 20.0177 53.4418 20.0113C53.4385 20.0113 53.4352 20.0048 53.432 20.0016L38.2885 8.04823C38.2885 8.04823 38.2787 8.04501 38.2754 8.0418C38.2624 8.03215 38.2461 8.02572 38.2298 8.01929C38.2168 8.01286 38.2037 8.00643 38.1874 8.00322C38.1711 8 38.1581 8.00322 38.1418 8C38.1255 8 38.1092 8 38.0929 8C38.0864 8 38.0831 8 38.0766 8L10.1891 14.5007C10.1891 14.5007 10.176 14.5072 10.1695 14.5104C10.1597 14.5136 10.15 14.5168 10.1369 14.52C10.1304 14.5232 10.1206 14.5297 10.1141 14.5329C10.1043 14.5393 10.0945 14.5457 10.0848 14.5554C10.075 14.5618 10.0685 14.5683 10.0619 14.5779C10.0619 14.5811 10.0554 14.5843 10.0522 14.5875C10.0489 14.5908 10.0489 14.5972 10.0456 14.6004C10.0391 14.61 10.0326 14.6197 10.0293 14.6293C10.0228 14.639 10.0196 14.6486 10.0163 14.6583C10.013 14.6679 10.0098 14.6776 10.0065 14.6872C10.0065 14.6969 10.0065 14.7065 10.0033 14.7194C10.0033 14.7258 10 14.7322 10 14.7386V43.8119C10 43.8119 10 43.8216 10 43.8248C10 43.8409 10.0065 43.8569 10.0098 43.873C10.013 43.8859 10.0163 43.9019 10.0228 43.9148C10.0293 43.9277 10.0391 43.9405 10.0489 43.9502C10.0587 43.963 10.0685 43.9759 10.0815 43.9888C10.0848 43.9888 10.088 43.9952 10.0913 43.9984L25.2348 55.9518C25.2348 55.9518 25.2609 55.9679 25.2739 55.9743C25.2837 55.9775 25.2902 55.9839 25.3 55.9871C25.3 55.9871 25.3065 55.9871 25.3065 55.9904C25.3261 55.9968 25.3489 56 25.3684 56C25.375 56 25.3782 56 25.3847 56C25.4043 56 25.4206 56 25.4402 55.9936L53.3309 49.4928C53.3309 49.4928 53.344 49.4864 53.3505 49.4832C53.3668 49.4768 53.3798 49.4703 53.3961 49.4639C53.4092 49.4575 53.4222 49.4478 53.432 49.4382C53.445 49.4285 53.4548 49.4157 53.4646 49.406C53.4744 49.3932 53.4841 49.3835 53.4907 49.3675C53.4972 49.3546 53.5037 49.3385 53.507 49.3257C53.5102 49.3096 53.5167 49.2935 53.5167 49.2774C53.5167 49.271 53.52 49.2646 53.52 49.2581V20.1913C53.52 20.1913 53.52 20.1816 53.52 20.1784C53.52 20.1688 53.52 20.1591 53.5167 20.1495ZM29.7566 54.4986C29.7142 54.4825 29.6686 54.4761 29.6197 54.4857L25.6293 55.4149V42.8539L29.4306 41.9665V50.8721C29.4306 50.8721 29.4339 50.8914 29.4371 50.901C29.4371 50.9107 29.4371 50.9203 29.4371 50.9299C29.4371 50.9364 29.4436 50.9428 29.4469 50.9492C29.4502 50.9621 29.4567 50.9717 29.4599 50.9814C29.4697 50.9975 29.4795 51.0135 29.4893 51.0264C29.4958 51.036 29.5023 51.0425 29.5121 51.0489C29.5252 51.0618 29.5447 51.0714 29.561 51.081C29.5708 51.0843 29.5773 51.0907 29.5871 51.0939C29.6164 51.1036 29.6458 51.11 29.6751 51.11C29.6947 51.11 29.711 51.11 29.7305 51.1036L49.0405 46.6025C49.0405 46.6025 49.0536 46.5961 49.0601 46.5929C49.0699 46.5929 49.0764 46.5897 49.0862 46.5865C49.0927 46.5833 49.0992 46.5768 49.1057 46.5736C49.1188 46.5672 49.1318 46.5575 49.1416 46.5479C49.1514 46.5415 49.1579 46.5318 49.1644 46.5254C49.1644 46.5254 49.1709 46.5222 49.1742 46.519C49.1742 46.5157 49.1775 46.5093 49.1807 46.5061C49.1872 46.4965 49.1938 46.4868 49.197 46.4772C49.2035 46.4675 49.2068 46.4579 49.2101 46.445C49.2101 46.4354 49.2166 46.4289 49.2166 46.4193C49.2166 46.4096 49.2166 46.3968 49.2198 46.3871C49.2198 46.3807 49.2231 46.3743 49.2231 46.3678V25.2292L53.0245 24.3419V49.0749L29.7468 54.4986H29.7566ZM38.0766 8.49833L52.7343 20.0691L40.7108 22.8726V20.9854L46.716 19.5869C46.716 19.5869 46.7323 19.5772 46.7421 19.574C46.7551 19.5676 46.7682 19.5644 46.7812 19.5547C46.8008 19.5451 46.8171 19.5322 46.8301 19.5161C46.8367 19.5097 46.8432 19.5065 46.8497 19.5001C46.853 19.4969 46.853 19.4904 46.8562 19.4872C46.866 19.4743 46.8725 19.4583 46.879 19.4454C46.8856 19.4326 46.8921 19.4165 46.8953 19.4036C46.8953 19.3908 46.8953 19.3747 46.8986 19.3618C46.8986 19.3457 46.8986 19.3265 46.8986 19.3104C46.8986 19.3072 46.8986 19.3007 46.8986 19.2975C46.8986 19.2879 46.8888 19.2814 46.8856 19.2718C46.879 19.2557 46.8725 19.2397 46.8627 19.2268C46.853 19.2139 46.8432 19.2011 46.8301 19.1914C46.8236 19.185 46.8171 19.1754 46.8106 19.1689L36.3291 10.8871C36.3291 10.8871 36.3193 10.8839 36.3161 10.8806C36.3063 10.8742 36.2998 10.871 36.29 10.8646C36.2802 10.8581 36.2704 10.8549 36.2574 10.8517C36.2476 10.8517 36.2378 10.8453 36.2313 10.8453C36.2215 10.8453 36.2118 10.8453 36.202 10.8421C36.1955 10.8421 36.1889 10.8388 36.1792 10.8388C36.1759 10.8388 36.1694 10.8388 36.1661 10.8388C36.1563 10.8388 36.1466 10.8388 36.1368 10.8421C36.1303 10.8421 36.127 10.8421 36.1205 10.8421L16.8072 15.3399C16.8072 15.3399 16.7877 15.3495 16.7779 15.3527C16.7616 15.3591 16.7486 15.3656 16.7322 15.372C16.7192 15.3816 16.7062 15.3913 16.6931 15.4042C16.6866 15.4106 16.6768 15.417 16.6703 15.4234C16.667 15.4267 16.667 15.4331 16.6638 15.4363C16.654 15.4492 16.6475 15.4652 16.641 15.4781C16.6344 15.491 16.6279 15.507 16.6247 15.5199C16.6247 15.5328 16.6247 15.5488 16.6214 15.5617C16.6214 15.5778 16.6214 15.5971 16.6214 15.6131C16.6214 15.6163 16.6214 15.6228 16.6214 15.626C16.6214 15.6388 16.6312 15.6485 16.6377 15.6614C16.641 15.671 16.6442 15.6839 16.6507 15.6935C16.6638 15.716 16.6801 15.7353 16.6996 15.7514C16.6996 15.7514 16.7029 15.7578 16.7062 15.761L27.1909 24.0364C27.2137 24.0525 27.2365 24.0654 27.2626 24.075C27.2822 24.0814 27.305 24.0847 27.3245 24.0847C27.3311 24.0847 27.3343 24.0847 27.3408 24.0847C27.3604 24.0847 27.3767 24.0847 27.3963 24.0782L33.5906 22.6347V24.5219L25.4369 26.422L10.789 14.8576L38.0766 8.49833ZM53.0342 23.8468L48.9329 24.8016C48.9329 24.8016 48.9199 24.808 48.9134 24.8113C48.8971 24.8177 48.884 24.8241 48.8677 24.8305C48.8547 24.837 48.8417 24.8466 48.8319 24.8563C48.8254 24.8627 48.8188 24.8659 48.8123 24.8723L40.7141 26.7595V23.3645L53.0375 20.4935V23.8468H53.0342ZM20.7292 43.5033L17.4071 40.8831L29.7305 38.0121L35.9249 36.5685V39.9636L29.6164 41.4328L20.726 43.5033H20.7292ZM13.1167 41.8829L16.804 41.0245L22.8125 45.7666V49.5346L13.1167 41.8829ZM10.489 15.2402L25.1435 26.8078V36.202L23.3048 36.6296V28.6982C23.3048 28.5792 23.2167 28.486 23.1026 28.4667L12.8005 20.336C12.8005 20.336 12.794 20.3263 12.794 20.3199C12.7874 20.307 12.7777 20.2942 12.7679 20.2845C12.7581 20.2717 12.7483 20.2588 12.7353 20.2459C12.732 20.2459 12.7288 20.2395 12.7255 20.2363L10.489 18.4681V15.2402ZM27.4093 23.5928L21.215 18.7027L33.6004 15.8157V22.1492L27.4093 23.5928ZM48.7439 45.8727L46.9051 44.4196V25.8143L48.7439 25.3867V45.876V45.8727ZM36.114 40.4137L42.3083 45.3037L29.9229 48.1908V41.8572L36.114 40.4137ZM12.82 20.9693L16.6214 23.9689V40.5712L12.82 41.4585V20.9693ZM22.8157 36.7453L17.1104 38.0731V24.3547L22.8157 28.8589V36.7453ZM17.1104 38.5683L29.7338 35.6265L33.7862 34.6813L35.6315 36.1377L17.1104 40.4522V38.565V38.5683ZM29.9229 29.772L33.6004 28.9136V34.2312L29.9229 35.0896V29.772ZM35.9314 15.2723V35.7616L34.0894 34.3084V15.6999L35.9314 15.2723ZM46.4161 44.037L36.7203 36.3853L40.4076 35.5269L46.4161 40.269V44.037ZM40.225 27.0682V35.0703L36.4237 35.9577V15.4685L40.225 18.4713V27.0682ZM42.9147 45.1622L36.4204 40.0343V36.7614L46.1162 44.4131L42.9147 45.159V45.1622ZM46.4161 39.6485L40.7141 35.1475V27.2611L46.4161 25.9333V39.6517V39.6485ZM40.7141 18.8571L42.3115 20.1173L40.7141 20.4903V18.8571ZM42.9147 19.9759L36.4204 14.848V11.5783L46.1162 19.23L42.9147 19.9759ZM35.9314 14.774L20.7325 18.3169L17.4104 15.6967L35.9314 11.3822V14.7772V14.774ZM33.6004 28.4185L29.7631 29.3123C29.7371 29.3026 29.7077 29.2962 29.6784 29.2962C29.5447 29.2962 29.4339 29.4055 29.4339 29.5373V35.2021L25.6325 36.0895V26.8817L33.6004 25.0234V28.4185ZM22.8125 45.1462L21.215 43.8827L22.8125 43.5097V45.1429V45.1462ZM29.9229 48.6827L46.5987 44.7957L48.4439 46.2521L29.9229 50.5666V48.6794V48.6827ZM12.7255 45.4194L10.489 43.6512V19.0853L12.331 20.5385V41.7608C12.331 41.7608 12.331 41.7704 12.331 41.7736C12.331 41.7833 12.331 41.7929 12.3343 41.8025C12.3343 41.8058 12.3343 41.8122 12.3343 41.8154C12.3343 41.8218 12.3408 41.8283 12.3441 41.8347C12.3441 41.8443 12.3506 41.854 12.3538 41.8604C12.3538 41.8668 12.3604 41.8733 12.3636 41.8797C12.3701 41.8926 12.3799 41.9022 12.3897 41.9119C12.3962 41.9215 12.4027 41.9279 12.4125 41.9344C12.4125 41.9344 12.4158 41.944 12.419 41.944L22.9038 50.2194C22.9038 50.2194 22.9298 50.2323 22.9396 50.2387C22.9494 50.2451 22.9559 50.2516 22.969 50.2548C22.9983 50.2644 23.0276 50.2709 23.057 50.2709C23.0928 50.2709 23.1254 50.2612 23.158 50.2484C23.1678 50.2451 23.1743 50.2387 23.1809 50.2323C23.2037 50.2194 23.2232 50.2066 23.2395 50.1873C23.2395 50.1873 23.2461 50.1841 23.2493 50.1808C23.2558 50.1712 23.2591 50.1616 23.2656 50.1519C23.2754 50.1391 23.2819 50.1262 23.2884 50.1101C23.295 50.094 23.295 50.078 23.2982 50.0619C23.2982 50.0522 23.3048 50.0426 23.3048 50.033V43.394L25.1435 42.9664V55.2188L23.2102 53.6948C23.1776 53.6691 23.1385 53.6563 23.0961 53.6498L12.794 45.5191C12.7777 45.4837 12.7581 45.4484 12.7222 45.4194H12.7255Z" fill="#FFF044"/>
</svg>
