<svg width="70" height="70" viewBox="0 0 70 70" fill="none" xmlns="http://www.w3.org/2000/svg">
<g opacity="0.7">
<path d="M4 4H70V70H4V4Z" fill="#F8F7F6"/>
<path fill-rule="evenodd" clip-rule="evenodd" d="M69 5H5V69H69V5ZM4 4V70H70V4H4Z" fill="#2B2B2B"/>
<path d="M2 2H68V68H2V2Z" fill="#F8F7F6"/>
<path fill-rule="evenodd" clip-rule="evenodd" d="M67 3H3V67H67V3ZM2 2V68H68V2H2Z" fill="#2B2B2B"/>
<path d="M0 0H66V66H0V0Z" fill="#F8F7F6"/>
<path fill-rule="evenodd" clip-rule="evenodd" d="M65 1H1V65H65V1ZM0 0V66H66V0H0Z" fill="#2B2B2B"/>
<path d="M33 9L12 21.0227V45.0292L32.7906 56.879L33 57L54 45.0076V21.0227L33 9ZM23.7326 23.8307H42.2674V41.949L42.1147 42.1823H23.7326V23.8307ZM23.9202 23.3987L33 10.2269L42.0798 23.3987H23.9202ZM42.5685 23.3728L33.493 10.2485L52.691 21.2171L42.5685 23.3728ZM23.4272 23.3728L13.3002 21.2128L32.4982 10.2442L23.4272 23.3728ZM23.3138 23.7745V42.2038L12.8421 44.4503V21.5454L23.3138 23.7745ZM23.4272 42.6056L32.0706 55.5053L13.309 44.7743L23.4272 42.6056ZM33 56.0366L32.8866 55.9718L23.9115 42.5797H41.8442L33.1178 55.9718L33 56.0366ZM42.3416 42.5797H42.455L52.691 44.7829L33.8857 55.5312L42.3416 42.5797ZM42.6862 42.2038V23.7918L53.1579 21.5454V44.4675L42.6862 42.2038Z" fill="#FF2756"/>
</g>
</svg>
