<svg width="70" height="70" viewBox="0 0 70 70" fill="none" xmlns="http://www.w3.org/2000/svg">
<path d="M4 4H70V70H4V4Z" fill="#F8F7F6"/>
<path fill-rule="evenodd" clip-rule="evenodd" d="M69 5H5V69H69V5ZM4 4V70H70V4H4Z" fill="#2B2B2B"/>
<path d="M2 2H68V68H2V2Z" fill="#F8F7F6"/>
<path fill-rule="evenodd" clip-rule="evenodd" d="M67 3H3V67H67V3ZM2 2V68H68V2H2Z" fill="#2B2B2B"/>
<path d="M0 0H66V66H0V0Z" fill="#F8F7F6"/>
<path fill-rule="evenodd" clip-rule="evenodd" d="M65 1H1V65H65V1ZM0 0V66H66V0H0Z" fill="#2B2B2B"/>
<path d="M51.487 19.4613L33.3384 9L27.2904 19.4613H51.487ZM33.6444 10.1464L48.3669 18.6244H28.7455L33.6444 10.1464Z" fill="#FF2756"/>
<path d="M41.8994 21.2964L54 42.219V21.2964H41.8994ZM53.1741 39.0763L43.3547 22.1333H53.1741V39.0763Z" fill="#FF2756"/>
<path d="M30.4897 10.2595L12.3411 20.7208L18.3892 31.1822L30.4897 10.2595ZM28.1955 12.5479L18.3892 29.4866L13.4861 21.0434L28.1955 12.5479Z" fill="#FF2756"/>
<path d="M12 23.8027V44.7253H24.1005L12 23.8027ZM12.8434 26.928L22.6497 43.8666H12.8434V26.928Z" fill="#FF2756"/>
<path d="M35.515 55.736L53.6593 45.2747L47.6112 34.8133L35.515 55.736ZM37.8092 53.4476L47.6112 36.5089L52.5143 44.9782L37.8092 53.4476Z" fill="#FF2756"/>
<path d="M14.517 46.5387L32.6655 57L38.7093 46.5387H14.517ZM32.3553 55.8449L17.6546 47.3799H37.2584L32.3553 55.8449Z" fill="#FF2756"/>
</svg>
