<svg width="70" height="70" viewBox="0 0 70 70" fill="none" xmlns="http://www.w3.org/2000/svg">
<rect x="4.95862" y="5.40454" width="63.6497" height="64.0956" fill="#563AFF"/>
<rect x="4.95862" y="5.40454" width="63.6497" height="64.0956" stroke="#2B2B2B"/>
<rect x="2.72961" y="3.17529" width="63.6497" height="64.0956" fill="#563AFF"/>
<rect x="2.72961" y="3.17529" width="63.6497" height="64.0956" stroke="#2B2B2B"/>
<rect x="0.5" y="0.5" width="63.6497" height="64.0956" fill="#563AFF"/>
<rect x="0.5" y="0.5" width="63.6497" height="64.0956" stroke="#2B2B2B"/>
<path d="M4 51.7574C4.00415 51.7781 4.01244 51.7988 4.02073 51.8195C4.02488 51.832 4.02488 51.8444 4.03317 51.8568L6.91051 56.8425C6.91051 56.8425 6.9188 56.8467 6.92295 56.8549C6.93124 56.8674 6.93953 56.8798 6.94783 56.8922C6.96026 56.9088 6.97685 56.9213 6.99758 56.9337C7.01002 56.942 7.01416 56.9544 7.0266 56.9586C7.0266 56.9586 7.03904 56.9586 7.04318 56.9627C7.08464 56.9834 7.13025 57 7.18 57H56.1529C56.2026 57 56.2482 56.9834 56.2938 56.9627C56.3063 56.9586 56.3146 56.9503 56.327 56.942C56.3602 56.9213 56.3851 56.8964 56.4058 56.8632C56.4099 56.8549 56.4182 56.8549 56.4224 56.8467L59.3039 51.861C59.3039 51.861 59.3039 51.8486 59.308 51.8444C59.3122 51.832 59.3204 51.8195 59.3246 51.8071C59.3287 51.7947 59.3329 51.7781 59.337 51.7657C59.337 51.7532 59.3412 51.7408 59.3412 51.7242C59.3412 51.7159 59.3412 51.7118 59.3412 51.7076C59.3412 51.7035 59.3412 51.6952 59.3412 51.6911C59.3412 51.6786 59.3412 51.6662 59.337 51.6496C59.337 51.6372 59.3287 51.6206 59.3246 51.6082C59.3204 51.5957 59.3163 51.5833 59.308 51.5709C59.308 51.5667 59.308 51.5585 59.3039 51.5543L34.8174 9.15334C34.8174 9.15334 34.8008 9.13262 34.7925 9.12433C34.7801 9.10775 34.7677 9.09118 34.7511 9.07874C34.7345 9.06631 34.7179 9.05388 34.7013 9.04559C34.6848 9.0373 34.6682 9.02901 34.6516 9.02072C34.6309 9.01243 34.6101 9.01243 34.5894 9.00829C34.577 9.00829 34.5645 9 34.5521 9H28.7932C28.7932 9 28.7808 9 28.7767 9C28.7642 9 28.7518 9 28.7352 9.00414C28.7186 9.00414 28.7062 9.01243 28.6937 9.01658C28.6813 9.02072 28.6689 9.02487 28.6564 9.03315C28.6523 9.03315 28.644 9.03315 28.6398 9.0373C28.6357 9.0373 28.6316 9.04559 28.6274 9.04973C28.615 9.05802 28.6067 9.06631 28.5942 9.0746C28.5818 9.08289 28.5735 9.09532 28.5652 9.10361C28.5569 9.11604 28.5486 9.12433 28.5403 9.13676C28.5403 9.14091 28.532 9.14505 28.5279 9.1492L4.03731 51.5419C4.03731 51.5419 4.02902 51.5667 4.02488 51.5792C4.01658 51.5999 4.00829 51.6206 4.00415 51.6413C4.00415 51.6621 4.00415 51.6786 4.00415 51.6994C4.00415 51.7201 4.00415 51.7367 4.00415 51.7574H4ZM34.3697 9.61751L58.4954 51.3885H16.3635L18.8842 47.0245H50.3941C50.4438 47.0245 50.4894 47.0079 50.535 46.9872C50.5392 46.9872 50.5433 46.9872 50.5516 46.9872C50.564 46.9789 50.5682 46.9706 50.5806 46.9624C50.5972 46.9499 50.6138 46.9375 50.6304 46.9209C50.6428 46.9043 50.6553 46.8878 50.6635 46.8712C50.6718 46.8546 50.6843 46.838 50.6884 46.8173C50.6967 46.7966 50.6967 46.7759 50.7009 46.7551C50.7009 46.7427 50.7092 46.7303 50.7092 46.7178C50.7092 46.7095 50.7092 46.7054 50.7092 46.7013C50.7092 46.6805 50.7009 46.6598 50.6967 46.6391C50.6926 46.6184 50.6843 46.5977 50.676 46.5811C50.676 46.5769 50.676 46.5686 50.6718 46.5645L29.3281 9.61751H34.3697ZM55.9746 56.3742H7.72313L28.7891 19.8997L31.3099 24.2637L15.555 51.5419C15.555 51.5419 15.555 51.5543 15.5508 51.5585C15.5425 51.5792 15.5384 51.5958 15.5301 51.6165C15.526 51.6372 15.5177 51.6579 15.5177 51.6786C15.5177 51.6869 15.5177 51.6911 15.5177 51.6952C15.5177 51.7076 15.5218 51.7201 15.526 51.7325C15.526 51.7532 15.5301 51.774 15.5384 51.7947C15.5467 51.8154 15.555 51.832 15.5633 51.8486C15.5716 51.8651 15.584 51.8817 15.5964 51.8983C15.6089 51.9149 15.6255 51.9273 15.6462 51.9397C15.6586 51.948 15.6628 51.9605 15.6752 51.9646C15.6794 51.9646 15.6835 51.9646 15.6918 51.9646C15.7333 51.9853 15.7789 52.0019 15.8328 52.0019H58.5037L55.9829 56.3659L55.9746 56.3742ZM44.0962 46.4029H19.2408L31.6664 24.8853L44.0921 46.4029H44.0962ZM28.7891 9.92834L49.8551 46.4029H44.8135L29.0586 19.1247C29.0586 19.1247 29.0503 19.1164 29.0462 19.1122C29.0337 19.0957 29.0213 19.0791 29.0047 19.0667C28.9881 19.0501 28.9757 19.0376 28.9591 19.0252C28.9549 19.0252 28.9508 19.0169 28.9466 19.0128C28.9342 19.0045 28.9218 19.0045 28.9093 19.0003C28.8886 18.9921 28.872 18.9838 28.8471 18.9796C28.8264 18.9796 28.8098 18.9796 28.7891 18.9796C28.7684 18.9796 28.7518 18.9796 28.7311 18.9796C28.7103 18.9838 28.6896 18.9921 28.6689 19.0003C28.6564 19.0045 28.644 19.0045 28.6316 19.0128C28.6274 19.0128 28.6233 19.0211 28.6191 19.0252C28.6025 19.0376 28.5859 19.0501 28.5735 19.0667C28.5569 19.0832 28.5445 19.0957 28.532 19.1122C28.532 19.1164 28.5238 19.1205 28.5196 19.1247L7.18415 56.0634L4.66336 51.6994L28.7891 9.92834Z" fill="#FFF044"/>
</svg>
