<svg width="70" height="70" viewBox="0 0 70 70" fill="none" xmlns="http://www.w3.org/2000/svg">
<rect x="4.95862" y="5.40454" width="63.6497" height="64.0956" fill="#FFDB5C"/>
<rect x="4.95862" y="5.40454" width="63.6497" height="64.0956" stroke="#2B2B2B"/>
<rect x="2.72968" y="3.17529" width="63.6497" height="64.0956" fill="#FFDB5C"/>
<rect x="2.72968" y="3.17529" width="63.6497" height="64.0956" stroke="#2B2B2B"/>
<rect x="0.5" y="0.5" width="63.6497" height="64.0956" fill="#FFDB5C"/>
<path d="M13.0606 48.3641L17.5815 56.1381C17.5815 56.1381 17.5899 56.1423 17.594 56.1505C17.6024 56.163 17.6107 56.1754 17.6191 56.1879C17.6316 56.2044 17.6483 56.2169 17.6692 56.2293C17.6817 56.2376 17.6859 56.2501 17.6984 56.2542C17.6984 56.2542 17.7067 56.2542 17.7151 56.2584C17.7568 56.2791 17.8028 56.2957 17.8529 56.2957H26.8946C26.9447 56.2957 26.9906 56.2791 27.0365 56.2584C27.0491 56.2542 27.0574 56.2459 27.0699 56.2376C27.1033 56.2169 27.1284 56.192 27.1493 56.1588C27.1534 56.1505 27.1618 56.1506 27.166 56.1423L31.6326 48.4594L36.095 56.1423C36.095 56.1423 36.1034 56.1464 36.1075 56.1547C36.1159 56.1671 36.1242 56.1796 36.1326 56.192C36.1451 56.2086 36.1618 56.221 36.1827 56.2335C36.1952 56.2418 36.1994 56.2542 36.2119 56.2584C36.2119 56.2584 36.2202 56.2583 36.2286 56.2625C36.2703 56.2832 36.3162 56.2998 36.3663 56.2998H45.4081C45.4582 56.2998 45.5041 56.2832 45.55 56.2625C45.5626 56.2583 45.5709 56.2501 45.5834 56.2418C45.6168 56.221 45.6419 56.1962 45.6627 56.163C45.6669 56.1547 45.6753 56.1547 45.6794 56.1464L50.2003 48.3724C50.2003 48.3724 50.2003 48.3599 50.2045 48.3558C50.2087 48.3433 50.217 48.3309 50.2212 48.3185C50.2254 48.306 50.2295 48.2894 50.2337 48.277C50.2337 48.2646 50.2379 48.2521 50.2379 48.2355C50.2379 48.2273 50.2379 48.2231 50.2379 48.219C50.2379 48.2148 50.2379 48.2065 50.2379 48.2024C50.2379 48.1899 50.2379 48.1775 50.2337 48.1609C50.2337 48.1485 50.2254 48.1319 50.2212 48.1195C50.217 48.107 50.2128 48.0946 50.2045 48.0821C50.2045 48.078 50.2045 48.0697 50.2003 48.0656L45.7379 40.3869H54.6669C54.717 40.3869 54.7629 40.3703 54.8089 40.3496C54.8214 40.3454 54.8297 40.3371 54.8423 40.3288C54.8757 40.3081 54.9007 40.2832 54.9216 40.2501C54.9257 40.2418 54.9341 40.2418 54.9383 40.2335L59.4592 32.4594C59.4592 32.4594 59.4592 32.447 59.4633 32.4429C59.4675 32.4304 59.4759 32.418 59.48 32.4055C59.4842 32.3931 59.4884 32.3765 59.4925 32.3641C59.4925 32.3516 59.4967 32.3392 59.4967 32.3226C59.4967 32.3143 59.4967 32.3102 59.4967 32.306C59.4967 32.3019 59.4967 32.2936 59.4967 32.2894C59.4967 32.277 59.4967 32.2646 59.4925 32.248C59.4925 32.2355 59.4842 32.219 59.48 32.2065C59.4759 32.1941 59.4717 32.1816 59.4633 32.1692C59.4633 32.1651 59.4633 32.1568 59.4592 32.1526L54.9383 24.3786C54.9383 24.3786 54.9216 24.362 54.9132 24.3496C54.9007 24.333 54.8882 24.3164 54.8715 24.2998C54.8548 24.2874 54.8381 24.2749 54.8214 24.2666C54.8047 24.2583 54.788 24.2459 54.7671 24.2418C54.7462 24.2335 54.7254 24.2335 54.7045 24.2293C54.692 24.2293 54.6795 24.221 54.6669 24.221H45.7379L50.2003 16.5424C50.2003 16.5424 50.2003 16.5299 50.2045 16.5258C50.2087 16.5133 50.217 16.5009 50.2212 16.4885C50.2254 16.476 50.2295 16.4594 50.2337 16.447C50.2337 16.4346 50.2379 16.4221 50.2379 16.4055C50.2379 16.3972 50.2379 16.3931 50.2379 16.389C50.2379 16.3848 50.2379 16.3765 50.2379 16.3724C50.2379 16.3599 50.2379 16.3475 50.2337 16.3309C50.2337 16.3185 50.2254 16.3019 50.2212 16.2894C50.217 16.277 50.2128 16.2646 50.2045 16.2521C50.2045 16.248 50.2045 16.2397 50.2003 16.2355L45.6794 8.46151C45.6794 8.46151 45.6627 8.44492 45.6544 8.43248C45.6419 8.4159 45.6293 8.39931 45.6126 8.38687C45.5959 8.37443 45.5793 8.362 45.5626 8.35371C45.5459 8.34541 45.5292 8.33298 45.5083 8.32883C45.4874 8.32054 45.4665 8.32054 45.4457 8.31639C45.4331 8.31639 45.4206 8.30809 45.4081 8.30809H36.3663C36.3663 8.30809 36.3538 8.30809 36.3496 8.30809C36.3371 8.30809 36.3246 8.3081 36.3079 8.31224C36.2954 8.31224 36.2787 8.32053 36.2662 8.32468C36.2536 8.32883 36.2411 8.33298 36.2286 8.34127C36.2244 8.34127 36.2161 8.34127 36.2119 8.34542C36.2077 8.34542 36.2035 8.35371 36.1994 8.35786C36.1868 8.36615 36.1785 8.37444 36.166 8.38273C36.1534 8.39103 36.1451 8.40345 36.1367 8.41175C36.1284 8.42418 36.1201 8.43248 36.1117 8.44492C36.1117 8.44907 36.1034 8.45321 36.0992 8.45736L31.6367 16.136L27.1701 8.45736C27.1701 8.45736 27.1534 8.44077 27.1451 8.42833C27.1326 8.41175 27.12 8.39517 27.1033 8.37858C27.0866 8.36614 27.0699 8.35371 27.0532 8.34542C27.0365 8.33713 27.0198 8.32469 26.999 8.32054C26.9781 8.31225 26.9572 8.31224 26.9364 8.30809C26.9238 8.30809 26.9113 8.2998 26.8988 8.2998H17.857C17.857 8.2998 17.8445 8.2998 17.8403 8.2998C17.8278 8.2998 17.8153 8.29981 17.7986 8.30395C17.7861 8.30395 17.7694 8.31225 17.7568 8.31639C17.7443 8.32054 17.7318 8.32469 17.7193 8.33298C17.7151 8.33298 17.7067 8.33297 17.7026 8.33712C17.6984 8.33712 17.6942 8.34541 17.6901 8.34956C17.6775 8.35785 17.6692 8.36614 17.6567 8.37443C17.6441 8.38272 17.6358 8.39517 17.6274 8.40346C17.6191 8.4159 17.6107 8.4242 17.6024 8.43663C17.6024 8.44078 17.594 8.44493 17.5899 8.44907L13.069 16.2231C13.069 16.2231 13.0606 16.248 13.0565 16.2604C13.0481 16.2812 13.0398 16.2977 13.0356 16.3226C13.0356 16.3433 13.0356 16.3599 13.0356 16.3807C13.0356 16.4014 13.0356 16.418 13.0356 16.4387C13.0356 16.4594 13.0481 16.4802 13.0565 16.5009C13.0606 16.5133 13.0606 16.5258 13.069 16.5382L17.5314 24.2169H8.5982C8.5982 24.2169 8.58567 24.2169 8.5815 24.2169C8.56897 24.2169 8.55645 24.2169 8.53975 24.221C8.52723 24.221 8.51053 24.2293 8.49801 24.2335C8.48549 24.2376 8.47296 24.2418 8.46044 24.2501C8.45627 24.2501 8.44792 24.2501 8.44374 24.2542C8.43957 24.2542 8.43539 24.2625 8.43122 24.2666C8.4187 24.2749 8.41035 24.2832 8.39782 24.2915C8.3853 24.2998 8.37695 24.3123 8.3686 24.3205C8.36025 24.333 8.35191 24.3413 8.34356 24.3537C8.34356 24.3579 8.33521 24.362 8.33103 24.3661L3.80598 32.1319C3.80598 32.1319 3.79763 32.1568 3.79346 32.1692C3.78511 32.1899 3.77676 32.2065 3.77258 32.2314C3.77258 32.2521 3.77258 32.2687 3.77258 32.2894C3.77258 32.3102 3.77258 32.3268 3.77258 32.3475C3.77258 32.3682 3.78511 32.3889 3.79346 32.4097C3.79763 32.4221 3.79763 32.4346 3.80598 32.447L8.32686 40.221C8.32686 40.221 8.33521 40.2252 8.33938 40.2335C8.34773 40.2459 8.35608 40.2584 8.36443 40.2708C8.37695 40.2874 8.39365 40.2998 8.41452 40.3122C8.42287 40.3205 8.43122 40.333 8.44374 40.3371C8.44374 40.3371 8.45209 40.3371 8.46044 40.3413C8.50218 40.362 8.5481 40.3786 8.5982 40.3786H17.5272L13.0648 48.0573C13.0648 48.0573 13.0565 48.0821 13.0523 48.0946C13.0439 48.1153 13.0356 48.1319 13.0314 48.1568C13.0314 48.1775 13.0314 48.1941 13.0314 48.2148C13.0314 48.2355 13.0314 48.2521 13.0314 48.2729C13.0314 48.2936 13.0439 48.3143 13.0523 48.335C13.0565 48.3475 13.0565 48.3599 13.0648 48.3724L13.0606 48.3641ZM9.14087 39.7525L13.2986 32.6004H31.0857L26.928 39.7525H9.14087ZM8.5982 25.1332L12.7559 32.2894L8.5982 39.4416L4.44049 32.2894L8.5982 25.1332ZM13.6951 16.3641L17.8529 9.21196L26.7485 24.5113L22.5908 31.6634L13.6951 16.3641ZM36.3663 9.21196L40.524 16.3641L31.6326 31.6634L27.4749 24.5113L36.3705 9.21196H36.3663ZM45.2244 8.901L49.3821 16.0531H41.0667L36.909 8.901H45.2244ZM54.4791 24.8222L58.6368 31.9743H40.8497L36.6919 24.8222H54.4791ZM49.3821 47.8997H41.0667L32.1752 32.6004H40.4907L49.3863 47.8997H49.3821ZM45.2244 55.6737H36.909L41.0667 48.5216H49.3821L45.2244 55.6737ZM32.1711 31.9743L36.1493 25.1332L40.1275 31.9743H32.1711ZM31.0857 31.9743H23.1293L27.1075 25.1332L31.0857 31.9743ZM31.6284 32.9072L35.6066 39.7484H27.6502L31.6284 32.9072ZM35.6066 40.3703L26.7109 55.6696H18.3955L27.2912 40.3703H35.6066ZM36.1493 40.6813L40.524 48.2065L36.3663 55.3586L31.9916 47.8334L36.1493 40.6813ZM41.2128 32.5963H58.641L54.4833 39.7484H45.3747L41.217 32.5963H41.2128ZM36.6919 24.2003L41.0667 16.675H49.3821L45.0074 24.2003H36.6919ZM27.1117 23.8893L18.3955 8.901H26.7109L31.2652 16.7372L27.1075 23.8935L27.1117 23.8893ZM22.0481 31.9743H13.2986L9.14087 24.8222H17.8904L22.0481 31.9743ZM26.569 40.3703L17.857 55.3586L13.6993 48.2065L18.2536 40.3703H26.5732H26.569Z" fill="#FF488A"/>
<rect x="0.5" y="0.5" width="63.6497" height="64.0956" stroke="#2B2B2B"/>
</svg>
