<svg width="70" height="70" viewBox="0 0 70 70" fill="none" xmlns="http://www.w3.org/2000/svg">
<rect x="4.95862" y="5.40442" width="63.6497" height="64.0956" fill="#67FFDB"/>
<rect x="4.95862" y="5.40442" width="63.6497" height="64.0956" stroke="#2B2B2B"/>
<rect x="2.72968" y="3.17529" width="63.6497" height="64.0956" fill="#67FFDB"/>
<rect x="2.72968" y="3.17529" width="63.6497" height="64.0956" stroke="#2B2B2B"/>
<rect x="0.5" y="0.5" width="63.6497" height="64.0956" fill="#67FFDB"/>
<path d="M54.08 12.1324C54.08 12.1324 54.0965 12.1027 54.1032 12.0895C54.1098 12.073 54.1098 12.0598 54.1132 12.0433C54.1132 12.0268 54.1165 12.0136 54.1165 11.9971C54.1165 11.9806 54.1098 11.9674 54.1065 11.9509C54.1032 11.9343 54.0999 11.9211 54.0932 11.9046C54.0866 11.8881 54.0766 11.8782 54.0667 11.865C54.06 11.8551 54.0567 11.8452 54.0468 11.8353L50.5583 8.36901C50.5583 8.36901 50.5484 8.36571 50.545 8.36241C50.5417 8.36241 50.5384 8.3558 50.5351 8.3525C50.5251 8.3459 50.5152 8.3426 50.5052 8.3393C50.4953 8.33269 50.4853 8.32279 50.4753 8.31949C50.472 8.31949 50.4654 8.31949 50.4587 8.31619C50.4421 8.30959 50.4256 8.30959 50.409 8.30629C50.399 8.30629 50.389 8.29968 50.3791 8.29968H14.9535C14.9203 8.29968 14.8904 8.30628 14.8572 8.31949C14.8274 8.33269 14.8008 8.3492 14.7776 8.37231L9.87847 13.2449C9.87847 13.2449 9.86519 13.2647 9.85855 13.2746C9.84859 13.2879 9.83865 13.2978 9.83201 13.311C9.83201 13.3143 9.82537 13.3176 9.82537 13.3242C9.82205 13.3341 9.82204 13.3473 9.81872 13.3605C9.8154 13.377 9.8121 13.3902 9.80878 13.4067C9.80878 13.4232 9.80878 13.4364 9.8121 13.4529C9.8121 13.4694 9.81541 13.4826 9.82205 13.4991C9.82205 13.5057 9.82205 13.509 9.82537 13.5156C9.82869 13.5288 9.83864 13.5354 9.84528 13.5486C9.85192 13.5586 9.85191 13.5685 9.85855 13.5751L24.8247 32.2997L9.85855 51.0243C9.85855 51.0243 9.8486 51.0441 9.84528 51.0507C9.83864 51.0606 9.82869 51.0705 9.82537 51.0837C9.82537 51.0903 9.82537 51.0936 9.82205 51.1002C9.81541 51.1167 9.81542 51.1299 9.8121 51.1464C9.8121 51.163 9.80878 51.1762 9.80878 51.1927C9.80878 51.2092 9.8154 51.2224 9.81872 51.2389C9.81872 51.2521 9.81873 51.262 9.82537 51.2752C9.82537 51.2785 9.83201 51.2818 9.83201 51.2884C9.83865 51.3016 9.84859 51.3148 9.85855 51.3247C9.86519 51.3346 9.87183 51.3478 9.87847 51.3544L14.7776 56.2271C14.8008 56.2502 14.8274 56.2667 14.8572 56.2799C14.8871 56.2931 14.9203 56.2997 14.9535 56.2997H50.3791C50.409 56.2997 50.4388 56.2931 50.4654 56.2832H50.472C50.482 56.2799 50.4886 56.2733 50.4952 56.2667C50.5085 56.2601 50.5218 56.2568 50.5318 56.2469C50.5351 56.2469 50.5384 56.2403 50.5417 56.237C50.545 56.237 50.5517 56.2337 50.555 56.2304L54.0434 52.764C54.0434 52.764 54.0567 52.7442 54.0634 52.7343C54.0733 52.7211 54.0833 52.7079 54.0899 52.6947C54.0966 52.6815 54.0999 52.665 54.1032 52.6485C54.1065 52.632 54.1098 52.6188 54.1132 52.6023C54.1132 52.5858 54.1132 52.5726 54.1098 52.5561C54.1098 52.5396 54.1065 52.5264 54.0999 52.5099C54.0932 52.4934 54.0866 52.4801 54.0766 52.4669C54.07 52.457 54.0667 52.4438 54.0601 52.4372L37.972 32.3096L54.0601 12.1786C54.0601 12.1786 54.07 12.1588 54.0766 12.1489L54.08 12.1324ZM26.3449 46.0526H20.7222L50.4023 8.91371L53.5356 12.0301L26.3449 46.0526ZM15.0564 55.7946L10.6552 51.4171H40.229C40.2589 51.4171 40.2888 51.4105 40.3187 51.4006C40.3286 51.3973 40.3386 51.3907 40.3485 51.3841C40.3618 51.3775 40.3751 51.3742 40.385 51.3643C40.3884 51.3643 40.3917 51.3577 40.395 51.3544C40.4083 51.3445 40.4182 51.328 40.4282 51.3148C40.4381 51.3016 40.4481 51.2917 40.4547 51.2785C40.4614 51.2653 40.4647 51.2488 40.468 51.2356C40.4713 51.2191 40.478 51.2026 40.478 51.1861C40.478 51.1828 40.478 51.1762 40.478 51.1729C40.478 51.163 40.4747 51.153 40.4713 51.1431C40.4713 51.1266 40.468 51.1101 40.4614 51.0936C40.4547 51.0771 40.4481 51.0639 40.4381 51.0474C40.4315 51.0375 40.4315 51.0276 40.4249 51.0177L31.7187 40.1236L34.53 36.6078L49.8646 55.7979H15.0564V55.7946ZM40.4249 13.5685C40.4249 13.5685 40.4348 13.5486 40.4381 13.542C40.4481 13.5288 40.4547 13.5123 40.4614 13.4958C40.468 13.4793 40.468 13.4628 40.4713 13.4463C40.4713 13.4364 40.478 13.4265 40.478 13.4166C40.478 13.4133 40.478 13.4067 40.478 13.4034C40.478 13.3869 40.4713 13.3704 40.468 13.3539C40.4647 13.3407 40.4614 13.3242 40.4547 13.311C40.4481 13.2978 40.4381 13.2845 40.4282 13.2746C40.4182 13.2614 40.4083 13.2482 40.395 13.235C40.3917 13.235 40.3884 13.2284 40.385 13.2251C40.3751 13.2185 40.3651 13.2152 40.3552 13.2119C40.3419 13.202 40.3253 13.1954 40.3087 13.1888C40.2921 13.1822 40.2755 13.1822 40.2589 13.1789C40.249 13.1789 40.239 13.1723 40.229 13.1723H10.6552L15.0564 8.79487H49.8646L20.0119 46.1517C20.0119 46.1517 20.002 46.1715 19.9986 46.1781C19.9887 46.1913 19.9821 46.2078 19.9754 46.2243C19.9688 46.2408 19.9688 46.2573 19.9655 46.2738C19.9655 46.2837 19.9588 46.2936 19.9588 46.3035C19.9588 46.3068 19.9588 46.3134 19.9588 46.3167C19.9588 46.3332 19.9655 46.3497 19.9688 46.3662C19.9721 46.3795 19.9754 46.396 19.982 46.4092C19.9887 46.4224 19.9986 46.4356 20.0086 46.4455C20.0186 46.4587 20.0285 46.4719 20.0418 46.4851C20.0451 46.4851 20.0484 46.4917 20.0518 46.495C20.0617 46.5049 20.075 46.5082 20.0883 46.5148C20.0982 46.5214 20.1049 46.528 20.1181 46.5313C20.148 46.5412 20.1779 46.5478 20.2077 46.5478H36.2195L39.7179 50.9253H10.5722L40.4282 13.5685H40.4249ZM31.4 24.0664L26.9789 18.5335H35.8212L31.4 24.0664ZM26.3449 18.5335L31.0847 24.4625L28.2734 27.9784L20.7255 18.5302H26.3482L26.3449 18.5335ZM31.4033 40.5198L35.8245 46.0526H26.9822L31.4033 40.5198ZM10.5722 13.6609H39.7179L36.2195 18.0383H20.2077C20.2077 18.0383 20.1878 18.0416 20.1746 18.0449C20.158 18.0449 20.1414 18.0482 20.1248 18.0548C20.1082 18.0614 20.0949 18.068 20.0783 18.0779C20.0684 18.0845 20.0584 18.0846 20.0518 18.0912C20.0484 18.0912 20.0451 18.0978 20.0418 18.1011C20.0285 18.111 20.0186 18.1275 20.0086 18.1407C19.9986 18.1539 19.9887 18.1638 19.982 18.177C19.9754 18.1902 19.9721 18.2067 19.9688 18.2199C19.9655 18.2364 19.9588 18.2529 19.9588 18.2694C19.9588 18.2727 19.9588 18.2793 19.9588 18.2826C19.9588 18.2925 19.9621 18.3024 19.9655 18.3123C19.9655 18.3288 19.9688 18.3453 19.9754 18.3619C19.9821 18.3784 19.9887 18.3916 19.9986 18.4081C20.0053 18.418 20.0053 18.4279 20.0119 18.4345L27.9547 28.3712L25.1434 31.887L10.5722 13.6543V13.6609ZM53.5356 52.5561L50.4023 55.6691L34.8487 36.205L37.66 32.6892L53.5356 52.5561Z" fill="#0057FF"/>
<rect x="0.5" y="0.5" width="63.6497" height="64.0956" stroke="#2B2B2B"/>
</svg>
