<svg width="70" height="70" viewBox="0 0 70 70" fill="none" xmlns="http://www.w3.org/2000/svg">
<rect x="4.95862" y="5.40442" width="63.6497" height="64.0956" fill="#75EB3E"/>
<rect x="4.95862" y="5.40442" width="63.6497" height="64.0956" stroke="#2B2B2B"/>
<rect x="2.72961" y="3.17529" width="63.6497" height="64.0956" fill="#75EB3E"/>
<rect x="2.72961" y="3.17529" width="63.6497" height="64.0956" stroke="#2B2B2B"/>
<rect x="0.5" y="0.5" width="63.6497" height="64.0956" fill="#75EB3E"/>
<rect x="0.5" y="0.5" width="63.6497" height="64.0956" stroke="#2B2B2B"/>
<path d="M28.6169 56.2488C29.3216 56.3601 30.0371 56.4282 30.7598 56.4641C30.8174 56.4641 30.8749 56.4677 30.936 56.4713C31.0654 56.4749 31.1913 56.4856 31.3207 56.4892H31.3243C31.3243 56.4892 31.3423 56.4856 31.3531 56.4821C31.5868 56.4892 31.8169 56.5 32.0542 56.5C45.2893 56.5 56.0542 45.7353 56.0542 32.5054C56.0542 19.2755 45.2857 8.50718 32.0542 8.50718C32.0146 8.50718 31.9787 8.50718 31.9391 8.50718C31.8565 8.50718 31.7738 8.5 31.6875 8.5C30.598 8.5 29.5014 8.59688 28.4227 8.7763C28.394 8.77988 28.3688 8.78706 28.34 8.79065C28.2322 8.80859 28.1207 8.82294 28.0129 8.84447C28.0057 8.84447 27.9985 8.85165 27.9949 8.85165C16.687 10.7857 8.0542 20.6498 8.0542 32.4946C8.0542 44.3394 17.007 54.5659 28.6169 56.2381V56.2488ZM55.5149 32.5054C55.5149 45.4374 44.9908 55.9618 32.0542 55.9618C31.6946 55.9618 31.3387 55.951 30.9827 55.9331C30.9108 55.9331 30.8389 55.9259 30.767 55.9223C30.3967 55.9008 30.0299 55.8756 29.6632 55.8398H29.6524C29.4295 55.8146 29.2102 55.7824 28.9872 55.7536C19.7252 54.4224 12.5342 46.374 12.5342 36.8005C12.5342 28.6301 17.683 21.6402 24.9027 18.8952C20.0129 21.4715 16.6726 26.6027 16.6726 32.5018C16.6726 40.9808 23.5724 47.8774 32.0542 47.8774H32.065C32.9351 47.8774 33.7872 47.7985 34.6178 47.6586C38.8317 47.0342 42.7149 45.0678 45.7459 41.9819C49.381 38.2789 51.3836 33.3809 51.3836 28.1923C51.3836 20.6103 47.0726 14.0223 40.7769 10.7319C49.4061 14.2017 55.5149 22.6485 55.5149 32.4982V32.5054ZM33.3953 17.729C33.4277 17.729 33.46 17.7326 33.4924 17.7362C33.6218 17.7469 33.7513 17.7684 33.8807 17.7828C41.2048 18.687 46.8929 24.9414 46.8929 32.5054C46.8929 40.0694 41.6111 45.8644 34.6717 47.106C33.8124 47.2423 32.9387 47.3248 32.047 47.3428C23.8636 47.3428 17.2084 40.6866 17.2084 32.5054C17.2084 24.3242 23.8672 17.668 32.0506 17.668C32.2807 17.668 32.5108 17.6752 32.7409 17.6859C32.9603 17.6967 33.176 17.711 33.3953 17.7326V17.729ZM28.4407 9.32889C28.4623 9.32889 28.4803 9.32171 28.5018 9.31812C29.6236 9.14588 30.7742 9.05618 31.9391 9.05259C42.3841 9.18894 50.8443 17.7218 50.8443 28.1959C50.8443 35.0746 47.1302 41.1638 41.6039 44.544C45.1526 41.7236 47.4358 37.3782 47.4358 32.5018C47.4358 25.1997 42.3194 19.0746 35.4807 17.5137C35.4484 17.485 35.4088 17.4634 35.3621 17.4563C34.8947 17.3666 34.4236 17.302 33.949 17.2481C33.816 17.2302 33.6794 17.2123 33.5463 17.2015C33.5068 17.1979 33.4708 17.1979 33.4313 17.1943C33.212 17.1764 32.989 17.1584 32.7661 17.1477C32.4066 17.1261 32.047 17.1154 31.6875 17.1154C20.829 17.1154 11.9949 25.9461 11.9949 36.8041C11.9949 41.9927 13.9976 46.8907 17.6326 50.5937C18.305 51.2791 19.0169 51.907 19.7684 52.4776C13.0699 48.3439 8.59353 40.9378 8.59353 32.5054C8.59353 20.8005 17.2156 11.0728 28.4407 9.32889Z" fill="#2B2B2B"/>
</svg>
