<svg width="70" height="70" viewBox="0 0 70 70" fill="none" xmlns="http://www.w3.org/2000/svg">
<rect x="4.95862" y="5.40442" width="63.6497" height="64.0956" fill="#59AFFF"/>
<rect x="4.95862" y="5.40442" width="63.6497" height="64.0956" stroke="#2B2B2B"/>
<rect x="2.72961" y="3.17529" width="63.6497" height="64.0956" fill="#59AFFF"/>
<rect x="2.72961" y="3.17529" width="63.6497" height="64.0956" stroke="#2B2B2B"/>
<rect x="0.5" y="0.5" width="63.6497" height="64.0956" fill="#59AFFF"/>
<path d="M57.7037 49.4254C57.7037 49.4254 57.7037 49.4023 57.6999 49.3869C57.6999 49.3753 57.6922 49.3599 57.6884 49.3484C57.6845 49.3368 57.6807 49.3252 57.673 49.3137C57.673 49.3098 57.673 49.3021 57.6692 49.2983L49.9681 35.8889L53.7784 29.2575C53.7784 29.2575 53.7784 29.2459 53.7822 29.2421C53.7861 29.2305 53.7937 29.219 53.7976 29.2074C53.8014 29.1958 53.8052 29.1804 53.8091 29.1689C53.8091 29.1573 53.8129 29.1457 53.8129 29.1303C53.8129 29.1226 53.8129 29.1188 53.8129 29.1149C53.8129 29.1111 53.8129 29.1034 53.8129 29.0995C53.8129 29.0879 53.8129 29.0764 53.8091 29.061C53.8091 29.0494 53.8014 29.034 53.7976 29.0224C53.7937 29.0109 53.7899 28.9993 53.7822 28.9878C53.7822 28.9839 53.7822 28.9762 53.7784 28.9723L42.1021 8.64257C42.1021 8.64257 42.0868 8.62331 42.0791 8.6156C42.0676 8.60019 42.0561 8.58477 42.0408 8.57321C42.0255 8.56165 42.0101 8.5501 41.9948 8.54239C41.9795 8.53469 41.9641 8.52698 41.9488 8.51927C41.9296 8.51157 41.9105 8.51157 41.8913 8.50771C41.8798 8.50771 41.8683 8.5 41.8568 8.5H34.0714C34.0714 8.5 34.0599 8.5 34.056 8.5C34.0445 8.5 34.033 8.5 34.0177 8.50386C34.0024 8.50386 33.9909 8.51156 33.9794 8.51542C33.9679 8.51927 33.9564 8.52313 33.9449 8.53083C33.941 8.53083 33.9334 8.53082 33.9295 8.53468C33.9257 8.53468 33.9219 8.54238 33.918 8.54624C33.9065 8.55394 33.8989 8.56165 33.8874 8.56936C33.8759 8.57706 33.8682 8.58862 33.8605 8.59633C33.8529 8.60404 33.8452 8.6156 33.8375 8.62716C33.8375 8.63102 33.8299 8.63487 33.826 8.63872L26.1249 22.048H18.5081C18.5081 22.048 18.4966 22.048 18.4928 22.048C18.4813 22.048 18.4698 22.048 18.4545 22.0519C18.4391 22.0519 18.4277 22.0596 18.4162 22.0635C18.4047 22.0673 18.3931 22.0712 18.3816 22.0789C18.3778 22.0789 18.3702 22.0789 18.3663 22.0827C18.3625 22.0827 18.3587 22.0904 18.3548 22.0943C18.3433 22.102 18.3356 22.1097 18.3241 22.1174C18.3126 22.1251 18.305 22.1367 18.2973 22.1444C18.2896 22.1521 18.282 22.1636 18.2743 22.1752C18.2743 22.1791 18.2666 22.1829 18.2628 22.1868L6.58656 42.5165C6.58656 42.5165 6.5789 42.5396 6.57506 42.5512C6.5674 42.5705 6.55974 42.5859 6.5559 42.6052C6.5559 42.6244 6.55207 42.6398 6.5559 42.6591C6.5559 42.6784 6.5559 42.6938 6.5559 42.7131C6.5559 42.7323 6.5674 42.7516 6.57506 42.767C6.5789 42.7786 6.5789 42.7901 6.58656 42.8017L10.4774 49.5757C10.4774 49.5757 10.485 49.5834 10.4889 49.5873C10.4965 49.5988 10.5042 49.6104 10.5119 49.6219C10.5234 49.6374 10.5387 49.6489 10.5579 49.6605C10.5655 49.6682 10.5732 49.6797 10.5847 49.6836C10.5847 49.6836 10.5924 49.6836 10.6 49.6874C10.6384 49.7067 10.6805 49.7221 10.7265 49.7221H26.1288L29.9391 56.3536C29.9391 56.3536 29.9467 56.3613 29.9506 56.3651C29.9582 56.3767 29.9659 56.3883 29.9736 56.3998C29.9851 56.4152 30.0004 56.4268 30.0196 56.4383C30.0272 56.4461 30.0349 56.4576 30.0464 56.4615C30.0464 56.4615 30.0541 56.4615 30.0617 56.4653C30.1001 56.4846 30.1422 56.5 30.1882 56.5H53.5446C53.5906 56.5 53.6327 56.4846 53.6749 56.4653C53.6864 56.4615 53.6941 56.4538 53.7056 56.446C53.7362 56.4268 53.7592 56.4037 53.7784 56.3728C53.7822 56.3651 53.7899 56.3651 53.7937 56.3574L57.6845 49.5796C57.6845 49.5796 57.6845 49.568 57.6884 49.5641C57.6922 49.5526 57.6999 49.541 57.7037 49.5295C57.7075 49.5179 57.7114 49.5025 57.7152 49.4909C57.7152 49.4794 57.719 49.4678 57.719 49.4524C57.719 49.4447 57.719 49.4408 57.719 49.437C57.719 49.4331 57.719 49.4254 57.719 49.4177L57.7037 49.4254ZM53.3606 55.9297H30.6712L34.2324 49.7298H56.9217L53.3606 55.9297ZM22.7209 42.6668L26.2821 36.4669L33.734 49.4408L30.1729 55.6407L22.7209 42.6668ZM56.9217 49.1518H34.2324L26.7804 36.1779H33.8989L37.7092 42.8094C37.7092 42.8094 37.7168 42.8171 37.7207 42.8209C37.7283 42.8325 37.736 42.8441 37.7437 42.8556C37.7552 42.871 37.7705 42.8826 37.7897 42.8942C37.7973 42.9019 37.805 42.9134 37.8165 42.9173C37.8165 42.9173 37.8242 42.9173 37.8318 42.9211C37.8702 42.9404 37.9123 42.9558 37.9583 42.9558H45.7438C45.7898 42.9558 45.8319 42.9404 45.8741 42.9211C45.8856 42.9173 45.8933 42.9096 45.9048 42.9019C45.9355 42.8826 45.9585 42.8595 45.9776 42.8286C45.9815 42.8209 45.9891 42.8209 45.9929 42.8132L49.6346 36.4708L56.9217 49.1557V49.1518ZM7.1539 42.6668L18.5005 22.915L22.0616 29.1149L10.715 48.8667L7.1539 42.6668ZM22.5561 28.8221L18.995 22.626H33.8989L37.46 28.8221H22.5561ZM38.2075 29.2536C38.2075 29.2536 38.2075 29.2421 38.2113 29.2382C38.2152 29.2267 38.2228 29.2151 38.2267 29.2035C38.2305 29.192 38.2343 29.1766 38.2382 29.165C38.2382 29.1534 38.242 29.1419 38.242 29.1265C38.242 29.1188 38.242 29.1149 38.242 29.1111C38.242 29.1072 38.242 29.0995 38.242 29.0957C38.242 29.0841 38.242 29.0725 38.2382 29.0571C38.2382 29.0456 38.2305 29.0301 38.2267 29.0186C38.2228 29.007 38.219 28.9955 38.2113 28.9839C38.2113 28.9801 38.2113 28.9723 38.2075 28.9685L34.3167 22.1945C34.3167 22.1945 34.3014 22.1752 34.2937 22.1675C34.2822 22.1521 34.2707 22.1367 34.2554 22.1251C34.24 22.1136 34.2247 22.102 34.2094 22.0943C34.194 22.0866 34.1787 22.0789 34.1634 22.0712C34.1442 22.0635 34.125 22.0635 34.1059 22.0596C34.0944 22.0596 34.0829 22.0519 34.0714 22.0519H26.7843L34.0714 9.36314L45.4179 29.1149L37.966 42.0927L34.4049 35.8928L38.2152 29.2613L38.2075 29.2536ZM41.6843 9.06643L53.0309 28.8182H45.9124L34.5659 9.06643H41.6882H41.6843ZM45.579 42.374H38.4567L45.9086 29.3962H53.0271L45.5751 42.374H45.579ZM11.2134 49.148L22.5561 29.3962H37.46L33.8989 35.5961H26.2821C26.2821 35.5961 26.2706 35.5961 26.2668 35.5961C26.2553 35.5961 26.2438 35.5961 26.2284 35.5999C26.2169 35.5999 26.2016 35.6077 26.1901 35.6115C26.1786 35.6154 26.1671 35.6192 26.1556 35.6269C26.1518 35.6269 26.1441 35.6269 26.1403 35.6308C26.1364 35.6308 26.1326 35.6385 26.1288 35.6423C26.1173 35.65 26.1096 35.6577 26.0981 35.6654C26.0866 35.6732 26.0789 35.6847 26.0713 35.6924C26.0636 35.704 26.0559 35.7117 26.0483 35.7232C26.0483 35.7271 26.0406 35.731 26.0368 35.7348L22.146 42.5127C22.146 42.5127 22.1383 42.5358 22.1345 42.5474C22.1268 42.5666 22.1191 42.582 22.1153 42.6013C22.1153 42.6206 22.1153 42.636 22.1153 42.6553C22.1153 42.6745 22.1153 42.6899 22.1153 42.7092C22.1153 42.7285 22.1268 42.7477 22.1345 42.7631C22.1383 42.7747 22.1383 42.7863 22.146 42.7978L25.7876 49.1403H11.2134V49.148Z" fill="#67FFDB"/>
<rect x="0.5" y="0.5" width="63.6497" height="64.0956" stroke="#2B2B2B"/>
</svg>
