<svg width="86" height="100" viewBox="0 0 86 100" fill="none" xmlns="http://www.w3.org/2000/svg">
<mask id="path-1-inside-1_5213_71066" fill="white">
<path d="M60.8896 81.9796H24.4877L6.29102 49.998L24.4877 18.0164H60.8896L79.0905 49.998L60.8896 81.9796ZM24.7153 81.5844H60.6662L78.6395 49.998L60.6662 18.4116H24.7153L6.74207 49.998L24.7153 81.5844Z"/>
</mask>
<path d="M60.8896 81.9796H24.4877L6.29102 49.998L24.4877 18.0164H60.8896L79.0905 49.998L60.8896 81.9796ZM24.7153 81.5844H60.6662L78.6395 49.998L60.6662 18.4116H24.7153L6.74207 49.998L24.7153 81.5844Z" fill="#75EB3E"/>
<path d="M60.8896 81.9796V82.9796H61.4711L61.7587 82.4742L60.8896 81.9796ZM24.4877 81.9796L23.6185 82.4741L23.9061 82.9796H24.4877V81.9796ZM6.29102 49.998L5.42185 49.5034L5.14048 49.998L5.42185 50.4925L6.29102 49.998ZM24.4877 18.0164V17.0164H23.9061L23.6185 17.5218L24.4877 18.0164ZM60.8896 18.0164L61.7587 17.5217L61.4711 17.0164H60.8896V18.0164ZM79.0905 49.998L79.9596 50.4926L80.2411 49.998L79.9596 49.5034L79.0905 49.998ZM24.7153 81.5844L23.8462 82.0789L24.1338 82.5844H24.7153V81.5844ZM60.6662 81.5844V82.5844H61.2477L61.5353 82.0789L60.6662 81.5844ZM78.6395 49.998L79.5086 50.4925L79.79 49.998L79.5086 49.5034L78.6395 49.998ZM60.6662 18.4116L61.5353 17.917L61.2477 17.4116H60.6662V18.4116ZM24.7153 18.4116V17.4116H24.1338L23.8462 17.917L24.7153 18.4116ZM6.74207 49.998L5.87292 49.5034L5.59151 49.998L5.87292 50.4925L6.74207 49.998ZM60.8896 80.9796H24.4877V82.9796H60.8896V80.9796ZM25.3568 81.4851L7.16018 49.5034L5.42185 50.4925L23.6185 82.4741L25.3568 81.4851ZM7.16018 50.4925L25.3568 18.5109L23.6185 17.5218L5.42185 49.5034L7.16018 50.4925ZM24.4877 19.0164H60.8896V17.0164H24.4877V19.0164ZM60.0205 18.511L78.2214 50.4926L79.9596 49.5034L61.7587 17.5217L60.0205 18.511ZM78.2214 49.5034L60.0205 81.485L61.7587 82.4742L79.9596 50.4926L78.2214 49.5034ZM24.7153 82.5844H60.6662V80.5844H24.7153V82.5844ZM61.5353 82.0789L79.5086 50.4925L77.7703 49.5034L59.7971 81.0898L61.5353 82.0789ZM79.5086 49.5034L61.5353 17.917L59.7971 18.9061L77.7703 50.4925L79.5086 49.5034ZM60.6662 17.4116H24.7153V19.4116H60.6662V17.4116ZM23.8462 17.917L5.87292 49.5034L7.61121 50.4925L25.5845 18.9061L23.8462 17.917ZM5.87292 50.4925L23.8462 82.0789L25.5845 81.0898L7.61121 49.5034L5.87292 50.4925Z" fill="#21CFA5" mask="url(#path-1-inside-1_5213_71066)"/>
<mask id="path-3-inside-2_5213_71066" fill="white">
<path d="M59.7218 83.9111L22.2546 81.9179L5.21777 48.0033L25.6525 16.0818L63.1197 18.075L80.1523 51.9897L59.7175 83.9155L59.7218 83.9111ZM22.4994 81.5356L59.5156 83.5031L79.7055 51.9639L62.8749 18.4573L25.8587 16.4899L5.66882 48.029L22.4994 81.5356Z"/>
</mask>
<path d="M59.7218 83.9111L22.2546 81.9179L5.21777 48.0033L25.6525 16.0818L63.1197 18.075L80.1523 51.9897L59.7175 83.9155L59.7218 83.9111ZM22.4994 81.5356L59.5156 83.5031L79.7055 51.9639L62.8749 18.4573L25.8587 16.4899L5.66882 48.029L22.4994 81.5356Z" fill="#75EB3E"/>
<path d="M59.7218 83.9111L60.4295 84.6177L62.0131 83.0316L59.775 82.9126L59.7218 83.9111ZM22.2546 81.9179L21.361 82.3668L21.6216 82.8857L22.2015 82.9165L22.2546 81.9179ZM5.21777 48.0033L4.37556 47.4641L4.06867 47.9435L4.32419 48.4521L5.21777 48.0033ZM25.6525 16.0818L25.7056 15.0832L25.1242 15.0523L24.8103 15.5426L25.6525 16.0818ZM63.1197 18.075L64.0134 17.6262L63.7528 17.1073L63.1729 17.0764L63.1197 18.075ZM80.1523 51.9897L80.9945 52.5288L81.3013 52.0495L81.0459 51.5409L80.1523 51.9897ZM59.7175 83.9155L58.8753 83.3764L60.4252 84.622L59.7175 83.9155ZM59.5156 83.5031L59.4626 84.5016L60.044 84.5325L60.3579 84.0422L59.5156 83.5031ZM79.7055 51.9639L80.5477 52.5031L80.8546 52.0237L80.5991 51.515L79.7055 51.9639ZM62.8749 18.4573L63.7685 18.0085L63.5078 17.4895L62.928 17.4587L62.8749 18.4573ZM25.8587 16.4899L25.9118 15.4913L25.3304 15.4604L25.0165 15.9507L25.8587 16.4899ZM5.66882 48.029L4.82661 47.4899L4.51974 47.9693L4.77522 48.4779L5.66882 48.029ZM59.775 82.9126L22.3077 80.9193L22.2015 82.9165L59.6687 84.9097L59.775 82.9126ZM23.1482 81.469L6.11136 47.5544L4.32419 48.4521L21.361 82.3668L23.1482 81.469ZM6.05999 48.5424L26.4947 16.6209L24.8103 15.5426L4.37556 47.4641L6.05999 48.5424ZM25.5994 17.0804L63.0666 19.0736L63.1729 17.0764L25.7056 15.0832L25.5994 17.0804ZM62.2261 18.5238L79.2586 52.4385L81.0459 51.5409L64.0134 17.6262L62.2261 18.5238ZM79.31 51.4506L58.8753 83.3764L60.5598 84.4545L80.9945 52.5288L79.31 51.4506ZM60.4252 84.622L60.4295 84.6177L59.0142 83.2046L59.0099 83.2089L60.4252 84.622ZM22.4464 82.5342L59.4626 84.5016L59.5687 82.5045L22.5525 80.537L22.4464 82.5342ZM60.3579 84.0422L80.5477 52.5031L78.8633 51.4248L58.6734 82.9639L60.3579 84.0422ZM80.5991 51.515L63.7685 18.0085L61.9813 18.9062L78.8119 52.4128L80.5991 51.515ZM62.928 17.4587L25.9118 15.4913L25.8056 17.4885L62.8218 19.4559L62.928 17.4587ZM25.0165 15.9507L4.82661 47.4899L6.51104 48.5682L26.7009 17.029L25.0165 15.9507ZM4.77522 48.4779L21.6058 81.9845L23.393 81.0868L6.56242 47.5802L4.77522 48.4779Z" fill="#21CFA5" mask="url(#path-3-inside-2_5213_71066)"/>
<mask id="path-5-inside-3_5213_71066" fill="white">
<path d="M58.4092 85.8395L19.9497 81.7371L4.21875 45.8936L26.9517 14.1526L65.4113 18.255L81.1422 54.0985L58.4092 85.8395ZM20.2117 81.3677L58.2245 85.4228L80.6911 54.0512L65.1449 18.6244L27.1321 14.5693L4.6655 45.9452L20.2117 81.372V81.3677Z"/>
</mask>
<path d="M58.4092 85.8395L19.9497 81.7371L4.21875 45.8936L26.9517 14.1526L65.4113 18.255L81.1422 54.0985L58.4092 85.8395ZM20.2117 81.3677L58.2245 85.4228L80.6911 54.0512L65.1449 18.6244L27.1321 14.5693L4.6655 45.9452L20.2117 81.372V81.3677Z" fill="#75EB3E"/>
<path d="M19.9497 81.7371L19.034 82.139L19.267 82.67L19.8436 82.7315L19.9497 81.7371ZM4.21875 45.8936L3.40575 45.3114L3.07427 45.7742L3.30306 46.2955L4.21875 45.8936ZM26.9517 14.1526L27.0578 13.1582L26.4781 13.0964L26.1387 13.5703L26.9517 14.1526ZM65.4113 18.255L66.3269 17.8531L66.0939 17.3221L65.5173 17.2606L65.4113 18.255ZM81.1422 54.0985L81.9552 54.6807L82.2867 54.2179L82.0579 53.6966L81.1422 54.0985ZM20.2117 81.3677L20.3178 80.3733L19.2117 80.2553V81.3677H20.2117ZM58.2245 85.4228L58.1184 86.4172L58.6981 86.479L59.0375 86.0051L58.2245 85.4228ZM80.6911 54.0512L81.5041 54.6335L81.8356 54.1706L81.6068 53.6494L80.6911 54.0512ZM65.1449 18.6244L66.0606 18.2226L65.8276 17.6916L65.251 17.6301L65.1449 18.6244ZM27.1321 14.5693L27.2382 13.5749L26.6585 13.5131L26.3191 13.9871L27.1321 14.5693ZM4.6655 45.9452L3.85245 45.363L3.52107 45.8258L3.74979 46.347L4.6655 45.9452ZM20.2117 81.372L19.296 81.7738L21.2117 81.372H20.2117ZM58.5153 84.8452L20.0557 80.7428L19.8436 82.7315L58.3032 86.8339L58.5153 84.8452ZM20.8654 81.3352L5.13444 45.4918L3.30306 46.2955L19.034 82.139L20.8654 81.3352ZM5.03175 46.4759L27.7647 14.7349L26.1387 13.5703L3.40575 45.3114L5.03175 46.4759ZM26.8456 15.1469L65.3052 19.2494L65.5173 17.2606L27.0578 13.1582L26.8456 15.1469ZM64.4956 18.6569L80.2265 54.5003L82.0579 53.6966L66.3269 17.8531L64.4956 18.6569ZM80.3292 53.5162L57.5962 85.2573L59.2222 86.4218L81.9552 54.6807L80.3292 53.5162ZM20.1056 82.362L58.1184 86.4172L58.3306 84.4285L20.3178 80.3733L20.1056 82.362ZM59.0375 86.0051L81.5041 54.6335L79.8781 53.469L57.4115 84.8406L59.0375 86.0051ZM81.6068 53.6494L66.0606 18.2226L64.2292 19.0263L79.7754 54.4531L81.6068 53.6494ZM65.251 17.6301L27.2382 13.5749L27.026 15.5636L65.0388 19.6188L65.251 17.6301ZM26.3191 13.9871L3.85245 45.363L5.47856 46.5274L27.9452 15.1515L26.3191 13.9871ZM3.74979 46.347L19.296 81.7738L21.1274 80.9701L5.58122 45.5434L3.74979 46.347ZM21.2117 81.372V81.3677H19.2117V81.372H21.2117Z" fill="#21CFA5" mask="url(#path-5-inside-3_5213_71066)"/>
<mask id="path-7-inside-4_5213_71066" fill="white">
<path d="M56.9732 87.7521L17.603 81.4245L3.31543 43.6694L28.4024 12.2419L67.7727 18.5695L82.0559 56.3246L56.9689 87.7521H56.9732ZM17.8865 81.0679L56.81 87.3225L81.6135 56.2473L67.4892 18.9175L28.5657 12.6629L3.76218 43.7424L17.8865 81.0722V81.0679Z"/>
</mask>
<path d="M56.9732 87.7521L17.603 81.4245L3.31543 43.6694L28.4024 12.2419L67.7727 18.5695L82.0559 56.3246L56.9689 87.7521H56.9732ZM17.8865 81.0679L56.81 87.3225L81.6135 56.2473L67.4892 18.9175L28.5657 12.6629L3.76218 43.7424L17.8865 81.0722V81.0679Z" fill="#75EB3E"/>
<path d="M56.9732 87.7521V88.7521L57.1319 86.7647L56.9732 87.7521ZM17.603 81.4245L16.6677 81.7784L16.8726 82.3199L17.4443 82.4118L17.603 81.4245ZM3.31543 43.6694L2.53389 43.0456L2.17858 43.4907L2.38016 44.0233L3.31543 43.6694ZM28.4024 12.2419L28.5611 11.2546L27.9849 11.162L27.6209 11.6181L28.4024 12.2419ZM67.7727 18.5695L68.708 18.2157L68.5031 17.6741L67.9314 17.5822L67.7727 18.5695ZM82.0559 56.3246L82.8375 56.9485L83.1927 56.5034L82.9912 55.9708L82.0559 56.3246ZM56.9689 87.7521L56.1874 87.1282L54.8912 88.7521H56.9689V87.7521ZM17.8865 81.0679L18.0452 80.0806L16.8865 79.8944V81.0679H17.8865ZM56.81 87.3225L56.6513 88.3098L57.2275 88.4024L57.5916 87.9463L56.81 87.3225ZM81.6135 56.2473L82.395 56.8711L82.7503 56.426L82.5488 55.8934L81.6135 56.2473ZM67.4892 18.9175L68.4244 18.5636L68.2195 18.022L67.6478 17.9302L67.4892 18.9175ZM28.5657 12.6629L28.7243 11.6756L28.1481 11.583L27.7841 12.0392L28.5657 12.6629ZM3.76218 43.7424L2.98058 43.1187L2.62538 43.5637L2.82689 44.0963L3.76218 43.7424ZM17.8865 81.0722L16.9512 81.4261L18.8865 81.0722H17.8865ZM57.1319 86.7647L17.7617 80.4371L17.4443 82.4118L56.8146 88.7394L57.1319 86.7647ZM18.5383 81.0705L4.2507 43.3155L2.38016 44.0233L16.6677 81.7784L18.5383 81.0705ZM4.09697 44.2933L29.184 12.8658L27.6209 11.6181L2.53389 43.0456L4.09697 44.2933ZM28.2437 13.2293L67.614 19.5569L67.9314 17.5822L28.5611 11.2546L28.2437 13.2293ZM66.8374 18.9234L81.1206 56.6784L82.9912 55.9708L68.708 18.2157L66.8374 18.9234ZM81.2744 55.7007L56.1874 87.1282L57.7505 88.3759L82.8375 56.9485L81.2744 55.7007ZM56.9689 88.7521H56.9732V86.7521H56.9689V88.7521ZM17.7278 82.0553L56.6513 88.3098L56.9687 86.3352L18.0452 80.0806L17.7278 82.0553ZM57.5916 87.9463L82.395 56.8711L80.8319 55.6234L56.0284 86.6987L57.5916 87.9463ZM82.5488 55.8934L68.4244 18.5636L66.5539 19.2714L80.6782 56.6012L82.5488 55.8934ZM67.6478 17.9302L28.7243 11.6756L28.407 13.6503L67.3305 19.9048L67.6478 17.9302ZM27.7841 12.0392L2.98058 43.1187L4.54379 44.3662L29.3473 13.2867L27.7841 12.0392ZM2.82689 44.0963L16.9512 81.4261L18.8218 80.7183L4.69747 43.3886L2.82689 44.0963ZM18.8865 81.0722V81.0679H16.8865V81.0722H18.8865Z" fill="#21CFA5" mask="url(#path-7-inside-4_5213_71066)"/>
<mask id="path-9-inside-5_5213_71066" fill="white">
<path d="M55.382 89.6453L15.1913 80.9766L2.49316 41.3357L29.9901 10.355L70.1808 19.0237L82.8789 58.6689L55.3863 89.6453H55.382ZM15.492 80.6372L55.2403 89.2072L82.4322 58.5701L69.8758 19.3588L30.1275 10.7931L2.93562 41.4302L15.492 80.6415V80.6372Z"/>
</mask>
<path d="M55.382 89.6453L15.1913 80.9766L2.49316 41.3357L29.9901 10.355L70.1808 19.0237L82.8789 58.6689L55.3863 89.6453H55.382ZM15.492 80.6372L55.2403 89.2072L82.4322 58.5701L69.8758 19.3588L30.1275 10.7931L2.93562 41.4302L15.492 80.6415V80.6372Z" fill="#75EB3E"/>
<path d="M55.382 89.6453L55.1712 90.6228L55.2754 90.6453H55.382V89.6453ZM15.1913 80.9766L14.239 81.2816L14.4153 81.8322L14.9805 81.9541L15.1913 80.9766ZM2.49316 41.3357L1.74526 40.6719L1.367 41.0981L1.54083 41.6408L2.49316 41.3357ZM29.9901 10.355L30.2009 9.37746L29.6299 9.2543L29.2421 9.69118L29.9901 10.355ZM70.1808 19.0237L71.1331 18.7187L70.9568 18.1681L70.3916 18.0462L70.1808 19.0237ZM82.8789 58.6689L83.6268 59.3327L84.0051 58.9065L83.8313 58.3639L82.8789 58.6689ZM55.3863 89.6453V90.6453H55.8358L56.1342 90.3091L55.3863 89.6453ZM15.492 80.6372L15.7028 79.6597L14.492 79.3986V80.6372H15.492ZM55.2403 89.2072L55.0295 90.1847L55.6005 90.3078L55.9882 89.871L55.2403 89.2072ZM82.4322 58.5701L83.1801 59.2339L83.5583 58.8078L83.3845 58.2651L82.4322 58.5701ZM69.8758 19.3588L70.8281 19.0538L70.6518 18.5031L70.0864 18.3812L69.8758 19.3588ZM30.1275 10.7931L30.3382 9.81558L29.7673 9.69256L29.3796 10.1293L30.1275 10.7931ZM2.93562 41.4302L2.18772 40.7664L1.8095 41.1925L1.98326 41.7352L2.93562 41.4302ZM15.492 80.6415L14.5396 80.9465L16.492 80.6415H15.492ZM55.5929 88.6678L15.4021 79.999L14.9805 81.9541L55.1712 90.6228L55.5929 88.6678ZM16.1436 80.6715L3.4455 41.0306L1.54083 41.6408L14.239 81.2816L16.1436 80.6715ZM3.24107 41.9995L30.738 11.0188L29.2421 9.69118L1.74526 40.6719L3.24107 41.9995ZM29.7792 11.3325L69.9699 20.0013L70.3916 18.0462L30.2009 9.37746L29.7792 11.3325ZM69.2284 19.3288L81.9266 58.9739L83.8313 58.3639L71.1331 18.7187L69.2284 19.3288ZM82.131 58.0051L54.6384 88.9815L56.1342 90.3091L83.6268 59.3327L82.131 58.0051ZM55.3863 88.6453H55.382V90.6453H55.3863V88.6453ZM15.2812 81.6147L55.0295 90.1847L55.451 88.2296L15.7028 79.6597L15.2812 81.6147ZM55.9882 89.871L83.1801 59.2339L81.6843 57.9063L54.4924 88.5434L55.9882 89.871ZM83.3845 58.2651L70.8281 19.0538L68.9234 19.6638L81.4798 58.8751L83.3845 58.2651ZM70.0864 18.3812L30.3382 9.81558L29.9169 11.7707L69.6651 20.3364L70.0864 18.3812ZM29.3796 10.1293L2.18772 40.7664L3.68353 42.094L30.8754 11.4569L29.3796 10.1293ZM1.98326 41.7352L14.5396 80.9465L16.4444 80.3365L3.88799 41.1252L1.98326 41.7352ZM16.492 80.6415V80.6372H14.492V80.6415H16.492Z" fill="#21CFA5" mask="url(#path-9-inside-5_5213_71066)"/>
<mask id="path-11-inside-6_5213_71066" fill="white">
<path d="M53.6306 91.5013L12.7224 80.3796L1.75977 38.8744L31.7095 8.49512L72.6176 19.6167L83.5803 61.1219L53.6348 91.5056L53.6306 91.5013ZM13.0403 80.0575L53.5146 91.0588L83.1421 61.0017L72.2954 19.9389L31.8255 8.93328L2.19793 38.9947L13.0446 80.0575H13.0403Z"/>
</mask>
<path d="M53.6306 91.5013L12.7224 80.3796L1.75977 38.8744L31.7095 8.49512L72.6176 19.6167L83.5803 61.1219L53.6348 91.5056L53.6306 91.5013ZM13.0403 80.0575L53.5146 91.0588L83.1421 61.0017L72.2954 19.9389L31.8255 8.93328L2.19793 38.9947L13.0446 80.0575H13.0403Z" fill="#75EB3E"/>
<path d="M53.6306 91.5013L54.3382 90.7947L54.15 90.6062L53.8929 90.5363L53.6306 91.5013ZM12.7224 80.3796L11.7556 80.635L11.903 81.1932L12.4601 81.3446L12.7224 80.3796ZM1.75977 38.8744L1.04764 38.1724L0.647299 38.5785L0.792922 39.1298L1.75977 38.8744ZM31.7095 8.49512L31.9719 7.53014L31.4078 7.37679L30.9974 7.79306L31.7095 8.49512ZM72.6176 19.6167L73.5845 19.3614L73.437 18.8032L72.88 18.6518L72.6176 19.6167ZM83.5803 61.1219L84.2925 61.8239L84.6927 61.4178L84.5471 60.8666L83.5803 61.1219ZM53.6348 91.5056L52.9272 92.2121L53.6395 92.9255L54.3471 92.2075L53.6348 91.5056ZM13.0403 80.0575V79.0575L12.778 81.0225L13.0403 80.0575ZM53.5146 91.0588L53.2523 92.0238L53.8164 92.1771L54.2267 91.7608L53.5146 91.0588ZM83.1421 61.0017L83.8543 61.7037L84.2546 61.2976L84.109 60.7463L83.1421 61.0017ZM72.2954 19.9389L73.2623 19.6835L73.1149 19.1254L72.5579 18.974L72.2954 19.9389ZM31.8255 8.93328L32.0879 7.96832L31.5237 7.81489L31.1133 8.23133L31.8255 8.93328ZM2.19793 38.9947L1.4857 38.2928L1.08548 38.6988L1.23109 39.2501L2.19793 38.9947ZM13.0446 80.0575V81.0575H14.3431L14.0115 79.8021L13.0446 80.0575ZM53.8929 90.5363L12.9848 79.4147L12.4601 81.3446L53.3682 92.4662L53.8929 90.5363ZM13.6893 80.1243L2.72661 38.6191L0.792922 39.1298L11.7556 80.635L13.6893 80.1243ZM2.47189 39.5765L32.4216 9.19717L30.9974 7.79306L1.04764 38.1724L2.47189 39.5765ZM31.4472 9.46009L72.3553 20.5817L72.88 18.6518L31.9719 7.53014L31.4472 9.46009ZM71.6508 19.8721L82.6135 61.3773L84.5471 60.8666L73.5845 19.3614L71.6508 19.8721ZM82.8681 60.42L52.9226 90.8036L54.3471 92.2075L84.2925 61.8239L82.8681 60.42ZM54.3425 90.799L54.3382 90.7947L52.9229 92.2078L52.9272 92.2121L54.3425 90.799ZM12.778 81.0225L53.2523 92.0238L53.7769 90.0938L13.3026 79.0925L12.778 81.0225ZM54.2267 91.7608L83.8543 61.7037L82.43 60.2997L52.8024 90.3568L54.2267 91.7608ZM84.109 60.7463L73.2623 19.6835L71.3286 20.1943L82.1753 61.2571L84.109 60.7463ZM72.5579 18.974L32.0879 7.96832L31.5631 9.89823L72.033 20.9039L72.5579 18.974ZM31.1133 8.23133L1.4857 38.2928L2.91016 39.6967L32.5377 9.63523L31.1133 8.23133ZM1.23109 39.2501L12.0778 80.3129L14.0115 79.8021L3.16477 38.7393L1.23109 39.2501ZM13.0446 79.0575H13.0403V81.0575H13.0446V79.0575Z" fill="#21CFA5" mask="url(#path-11-inside-6_5213_71066)"/>
<mask id="path-13-inside-7_5213_71066" fill="white">
<path d="M51.7502 93.3192L10.2321 79.633L1.15527 36.3107L33.5965 6.67456L75.1146 20.3607L84.1915 63.683L51.7502 93.3192ZM10.5672 79.328L51.6557 92.8724L83.7619 63.5456L74.7796 20.67L33.691 7.12561L1.58485 36.4525L10.5672 79.328Z"/>
</mask>
<path d="M51.7502 93.3192L10.2321 79.633L1.15527 36.3107L33.5965 6.67456L75.1146 20.3607L84.1915 63.683L51.7502 93.3192ZM10.5672 79.328L51.6557 92.8724L83.7619 63.5456L74.7796 20.67L33.691 7.12561L1.58485 36.4525L10.5672 79.328Z" fill="#75EB3E"/>
<path d="M51.7502 93.3192L51.4372 94.2689L51.9928 94.4521L52.4247 94.0575L51.7502 93.3192ZM10.2321 79.633L9.25338 79.8381L9.37158 80.4023L9.91905 80.5828L10.2321 79.633ZM1.15527 36.3107L0.480807 35.5724L0.0595086 35.9573L0.176525 36.5158L1.15527 36.3107ZM33.5965 6.67456L33.9096 5.72483L33.354 5.54168L32.9221 5.93625L33.5965 6.67456ZM75.1146 20.3607L76.0934 20.1556L75.9752 19.5915L75.4277 19.411L75.1146 20.3607ZM84.1915 63.683L84.866 64.4213L85.2873 64.0365L85.1702 63.478L84.1915 63.683ZM51.6557 92.8724L51.3427 93.8222L51.8982 94.0053L52.3302 93.6108L51.6557 92.8724ZM83.7619 63.5456L84.4363 64.2839L84.8577 63.899L84.7407 63.3405L83.7619 63.5456ZM74.7796 20.67L75.7583 20.465L75.6401 19.9007L75.0926 19.7203L74.7796 20.67ZM33.691 7.12561L34.0041 6.17588L33.4485 5.99274L33.0166 6.38727L33.691 7.12561ZM1.58485 36.4525L0.910419 35.7141L0.489083 36.099L0.606093 36.6575L1.58485 36.4525ZM52.0633 92.3695L10.5452 78.6833L9.91905 80.5828L51.4372 94.2689L52.0633 92.3695ZM11.2109 79.428L2.13402 36.1056L0.176525 36.5158L9.25338 79.8381L11.2109 79.428ZM1.82974 37.049L34.271 7.41287L32.9221 5.93625L0.480807 35.5724L1.82974 37.049ZM33.2835 7.62429L74.8016 21.3104L75.4277 19.411L33.9096 5.72483L33.2835 7.62429ZM74.1359 20.5658L83.2127 63.8881L85.1702 63.478L76.0934 20.1556L74.1359 20.5658ZM83.517 62.9447L51.0758 92.5809L52.4247 94.0575L84.866 64.4213L83.517 62.9447ZM10.2541 80.2778L51.3427 93.8222L51.9688 91.9227L10.8803 78.3783L10.2541 80.2778ZM52.3302 93.6108L84.4363 64.2839L83.0875 62.8072L50.9813 92.1341L52.3302 93.6108ZM84.7407 63.3405L75.7583 20.465L73.8008 20.8751L82.7832 63.7506L84.7407 63.3405ZM75.0926 19.7203L34.0041 6.17588L33.378 8.07534L74.4665 21.6197L75.0926 19.7203ZM33.0166 6.38727L0.910419 35.7141L2.25927 37.1908L34.3655 7.86395L33.0166 6.38727ZM0.606093 36.6575L9.58844 79.5331L11.5459 79.123L2.5636 36.2474L0.606093 36.6575Z" fill="#21CFA5" mask="url(#path-13-inside-7_5213_71066)"/>
<mask id="path-15-inside-8_5213_71066" fill="white">
<path d="M49.7145 95.0916L49.6071 95.0486L7.7067 78.7292L0.666016 33.6414L35.6375 4.91162L35.7448 4.95458L77.6496 21.274L84.6902 66.3661L49.7188 95.0959L49.7145 95.0916ZM8.05465 78.4414L49.6415 94.6363L84.2607 66.1943L77.293 21.5575L35.7062 5.36267L1.087 33.8046L8.05465 78.4414Z"/>
</mask>
<path d="M49.7145 95.0916L49.6071 95.0486L7.7067 78.7292L0.666016 33.6414L35.6375 4.91162L35.7448 4.95458L77.6496 21.274L84.6902 66.3661L49.7188 95.0959L49.7145 95.0916ZM8.05465 78.4414L49.6415 94.6363L84.2607 66.1943L77.293 21.5575L35.7062 5.36267L1.087 33.8046L8.05465 78.4414Z" fill="#75EB3E"/>
<path d="M49.7145 95.0916L50.4219 94.3848L50.2767 94.2394L50.0859 94.1631L49.7145 95.0916ZM49.6071 95.0486L49.9785 94.1201L49.97 94.1168L49.6071 95.0486ZM7.7067 78.7292L6.71867 78.8835L6.80747 79.4522L7.34377 79.661L7.7067 78.7292ZM0.666016 33.6414L0.0312337 32.8687L-0.410141 33.2313L-0.322011 33.7957L0.666016 33.6414ZM35.6375 4.91162L36.0088 3.98314L35.4597 3.76348L35.0027 4.13893L35.6375 4.91162ZM35.7448 4.95458L35.3734 5.88309L35.382 5.88641L35.7448 4.95458ZM77.6496 21.274L78.6376 21.1197L78.5488 20.551L78.0125 20.3422L77.6496 21.274ZM84.6902 66.3661L85.325 67.1388L85.7664 66.7762L85.6783 66.2119L84.6902 66.3661ZM49.7188 95.0959L49.0114 95.8027L49.6526 96.4444L50.3536 95.8686L49.7188 95.0959ZM49.6415 94.6363L49.2786 95.5681L49.824 95.7805L50.2763 95.4089L49.6415 94.6363ZM84.2607 66.1943L84.8955 66.967L85.3368 66.6044L85.2487 66.0401L84.2607 66.1943ZM77.293 21.5575L78.2811 21.4033L78.1923 20.8346L77.6559 20.6257L77.293 21.5575ZM35.7062 5.36267L36.0691 4.43083L35.5236 4.21844L35.0714 4.59L35.7062 5.36267ZM1.087 33.8046L0.452193 33.0319L0.0108711 33.3945L0.0989608 33.9588L1.087 33.8046ZM50.0859 94.1631L49.9785 94.1202L49.2357 95.9771L49.3431 96.0201L50.0859 94.1631ZM49.97 94.1168L8.06962 77.7974L7.34377 79.661L49.2442 95.9805L49.97 94.1168ZM8.69472 78.5749L1.65404 33.4871L-0.322011 33.7957L6.71867 78.8835L8.69472 78.5749ZM1.3008 34.4141L36.2722 5.68431L35.0027 4.13893L0.0312337 32.8687L1.3008 34.4141ZM35.2661 5.8401L35.3735 5.88306L36.1162 4.0261L36.0088 3.98314L35.2661 5.8401ZM35.382 5.88641L77.2867 22.2058L78.0125 20.3422L36.1077 4.02275L35.382 5.88641ZM76.6615 21.4283L83.7022 66.5204L85.6783 66.2119L78.6376 21.1197L76.6615 21.4283ZM84.0555 65.5935L49.084 94.3232L50.3536 95.8686L85.325 67.1388L84.0555 65.5935ZM50.4262 94.3891L50.4219 94.3848L49.0071 95.7984L49.0114 95.8027L50.4262 94.3891ZM7.69177 79.3733L49.2786 95.5681L50.0044 93.7044L8.41753 77.5096L7.69177 79.3733ZM50.2763 95.4089L84.8955 66.967L83.6259 65.4216L49.0067 93.8636L50.2763 95.4089ZM85.2487 66.0401L78.2811 21.4033L76.305 21.7118L83.2726 66.3485L85.2487 66.0401ZM77.6559 20.6257L36.0691 4.43083L35.3433 6.29451L76.9301 22.4894L77.6559 20.6257ZM35.0714 4.59L0.452193 33.0319L1.7218 34.5773L36.341 6.13535L35.0714 4.59ZM0.0989608 33.9588L7.06661 78.5956L9.04268 78.2872L2.07503 33.6504L0.0989608 33.9588Z" fill="#21CFA5" mask="url(#path-15-inside-8_5213_71066)"/>
<mask id="path-17-inside-9_5213_71066" fill="white">
<path d="M47.5216 96.7948L5.14869 77.6574L0.298828 30.8598L37.8262 3.19971L80.1992 22.3414L85.049 69.139L47.5259 96.7991L47.5216 96.7948ZM5.51383 77.3867L47.4744 96.3394L84.6323 68.95L79.8297 22.6078L37.8735 3.65505L0.711217 31.0445L5.51383 77.3867Z"/>
</mask>
<path d="M47.5216 96.7948L5.14869 77.6574L0.298828 30.8598L37.8262 3.19971L80.1992 22.3414L85.049 69.139L47.5259 96.7991L47.5216 96.7948ZM5.51383 77.3867L47.4744 96.3394L84.6323 68.95L79.8297 22.6078L37.8735 3.65505L0.711217 31.0445L5.51383 77.3867Z" fill="#75EB3E"/>
<path d="M47.5216 96.7948L48.2285 96.0874L48.0995 95.9585L47.9333 95.8834L47.5216 96.7948ZM5.14869 77.6574L4.15402 77.7605L4.21327 78.3322L4.73708 78.5687L5.14869 77.6574ZM0.298828 30.8598L-0.294487 30.0549L-0.75479 30.3941L-0.695845 30.9629L0.298828 30.8598ZM37.8262 3.19971L38.2379 2.28838L37.7043 2.04731L37.2329 2.39474L37.8262 3.19971ZM80.1992 22.3414L81.1938 22.2383L81.1346 21.6667L80.6108 21.4301L80.1992 22.3414ZM85.049 69.139L85.6424 69.9439L86.1026 69.6046L86.0437 69.0359L85.049 69.139ZM47.5259 96.7991L46.8191 97.5065L47.4273 98.1142L48.1193 97.604L47.5259 96.7991ZM47.4744 96.3394L47.0628 97.2508L47.5964 97.4918L48.0677 97.1444L47.4744 96.3394ZM84.6323 68.95L85.2257 69.7549L85.686 69.4156L85.627 68.8469L84.6323 68.95ZM79.8297 22.6078L80.8244 22.5047L80.7652 21.933L80.2414 21.6964L79.8297 22.6078ZM37.8735 3.65505L38.2851 2.74372L37.7515 2.50267L37.2802 2.85007L37.8735 3.65505ZM0.711217 31.0445L0.117923 30.2396L-0.342402 30.5788L-0.283456 31.1476L0.711217 31.0445ZM47.9333 95.8834L5.5603 76.746L4.73708 78.5687L47.11 97.7062L47.9333 95.8834ZM6.14337 77.5543L1.2935 30.7567L-0.695845 30.9629L4.15402 77.7605L6.14337 77.5543ZM0.892143 31.6648L38.4195 4.00468L37.2329 2.39474L-0.294487 30.0549L0.892143 31.6648ZM37.4145 4.11103L79.7875 23.2527L80.6108 21.4301L38.2379 2.28838L37.4145 4.11103ZM79.2045 22.4445L84.0544 69.2421L86.0437 69.0359L81.1938 22.2383L79.2045 22.4445ZM84.4557 68.334L46.9326 95.9941L48.1193 97.604L85.6424 69.9439L84.4557 68.334ZM48.2328 96.0917L48.2285 96.0874L46.8148 97.5022L46.8191 97.5065L48.2328 96.0917ZM5.10219 78.2981L47.0628 97.2508L47.886 95.4281L5.92547 76.4754L5.10219 78.2981ZM48.0677 97.1444L85.2257 69.7549L84.039 68.145L46.8811 95.5345L48.0677 97.1444ZM85.627 68.8469L80.8244 22.5047L78.8351 22.7108L83.6377 69.053L85.627 68.8469ZM80.2414 21.6964L38.2851 2.74372L37.4618 4.56639L79.4181 23.5191L80.2414 21.6964ZM37.2802 2.85007L0.117923 30.2396L1.30451 31.8495L38.4668 4.46004L37.2802 2.85007ZM-0.283456 31.1476L4.51916 77.4898L6.5085 77.2837L1.70589 30.9415L-0.283456 31.1476Z" fill="#21CFA5" mask="url(#path-17-inside-9_5213_71066)"/>
<mask id="path-19-inside-10_5213_71066" fill="white">
<path d="M45.175 98.4361L2.57433 76.4163V76.3003L0.0742188 27.9777L40.1704 1.55908L82.7711 23.5789V23.6949L85.2712 72.0174L45.175 98.4361ZM2.95235 76.1671L45.1492 97.9808L84.8674 71.8112L82.3887 23.8281L40.1919 2.01872L0.47372 28.1839L2.95235 76.1671Z"/>
</mask>
<path d="M45.175 98.4361L2.57433 76.4163V76.3003L0.0742188 27.9777L40.1704 1.55908L82.7711 23.5789V23.6949L85.2712 72.0174L45.175 98.4361ZM2.95235 76.1671L45.1492 97.9808L84.8674 71.8112L82.3887 23.8281L40.1919 2.01872L0.47372 28.1839L2.95235 76.1671Z" fill="#75EB3E"/>
<path d="M2.57433 76.4163H1.57433V77.0251L2.11515 77.3046L2.57433 76.4163ZM2.57433 76.3003H3.57433V76.2744L3.57299 76.2486L2.57433 76.3003ZM0.0742188 27.9777L-0.475973 27.1427L-0.954026 27.4577L-0.924446 28.0294L0.0742188 27.9777ZM40.1704 1.55908L40.6296 0.670737L40.1093 0.401802L39.6203 0.724043L40.1704 1.55908ZM82.7711 23.5789H83.7711V22.9701L83.2302 22.6906L82.7711 23.5789ZM82.7711 23.6949H81.7711V23.7208L81.7724 23.7466L82.7711 23.6949ZM85.2712 72.0174L85.8214 72.8525L86.2994 72.5375L86.2698 71.9658L85.2712 72.0174ZM2.95235 76.1671L1.95368 76.2187L1.98329 76.7919L2.49313 77.0554L2.95235 76.1671ZM45.1492 97.9808L44.69 98.8691L45.2103 99.138L45.6994 98.8158L45.1492 97.9808ZM84.8674 71.8112L85.4176 72.6463L85.8956 72.3313L85.8661 71.7597L84.8674 71.8112ZM82.3887 23.8281L83.3874 23.7765L83.3578 23.2033L82.8479 22.9397L82.3887 23.8281ZM40.1919 2.01872L40.6511 1.13036L40.1308 0.861479L39.6418 1.18364L40.1919 2.01872ZM0.47372 28.1839L-0.0764069 27.3489L-0.554481 27.6638L-0.524948 28.2355L0.47372 28.1839ZM45.6341 97.5478L3.0335 75.5279L2.11515 77.3046L44.7158 99.3244L45.6341 97.5478ZM3.57433 76.4163V76.3003H1.57433V76.4163H3.57433ZM3.57299 76.2486L1.07288 27.9261L-0.924446 28.0294L1.57566 76.3519L3.57299 76.2486ZM0.62441 28.8128L40.7206 2.39412L39.6203 0.724043L-0.475973 27.1427L0.62441 28.8128ZM39.7113 2.44743L82.3119 24.4673L83.2302 22.6906L40.6296 0.670737L39.7113 2.44743ZM81.7711 23.5789V23.6949H83.7711V23.5789H81.7711ZM81.7724 23.7466L84.2725 72.0691L86.2698 71.9658L83.7697 23.6432L81.7724 23.7466ZM84.721 71.1824L44.6248 97.6011L45.7251 99.2711L85.8214 72.8525L84.721 71.1824ZM2.49313 77.0554L44.69 98.8691L45.6084 97.0924L3.41157 75.2788L2.49313 77.0554ZM45.6994 98.8158L85.4176 72.6463L84.3172 70.9762L44.599 97.1457L45.6994 98.8158ZM85.8661 71.7597L83.3874 23.7765L81.3901 23.8797L83.8687 71.8628L85.8661 71.7597ZM82.8479 22.9397L40.6511 1.13036L39.7328 2.90708L81.9296 24.7164L82.8479 22.9397ZM39.6418 1.18364L-0.0764069 27.3489L1.02385 29.019L40.7421 2.8538L39.6418 1.18364ZM-0.524948 28.2355L1.95368 76.2187L3.95102 76.1155L1.47239 28.1324L-0.524948 28.2355Z" fill="#21CFA5" mask="url(#path-19-inside-10_5213_71066)"/>
<mask id="path-21-inside-11_5213_71066" fill="white">
<path d="M42.678 99.9957L0 74.9989V25.0011L42.678 0L85.3559 25.0011V74.9989L42.678 100V99.9957ZM0.39091 74.767L42.678 99.5361L84.965 74.767V25.2287L42.678 0.459642L0.39091 25.2287V74.767Z"/>
</mask>
<path d="M42.678 99.9957L0 74.9989V25.0011L42.678 0L85.3559 25.0011V74.9989L42.678 100V99.9957ZM0.39091 74.767L42.678 99.5361L84.965 74.767V25.2287L42.678 0.459642L0.39091 25.2287V74.767Z" fill="#75EB3E"/>
<path d="M42.678 99.9957H43.678V99.4225L43.1834 99.1328L42.678 99.9957ZM0 74.9989H-1V75.5721L-0.505398 75.8618L0 74.9989ZM0 25.0011L-0.505463 24.1382L-1 24.4279V25.0011H0ZM42.678 0L43.1834 -0.862848L42.678 -1.15895L42.1725 -0.862848L42.678 0ZM85.3559 25.0011H86.3559V24.4279L85.8614 24.1382L85.3559 25.0011ZM85.3559 74.9989L85.8614 75.8618L86.3559 75.5721V74.9989H85.3559ZM42.678 100H41.678V101.745L43.1834 100.863L42.678 100ZM42.678 99.5361L42.1725 100.399L42.678 100.695L43.1834 100.399L42.678 99.5361ZM84.965 74.767L85.4704 75.6298L85.965 75.3401V74.767H84.965ZM84.965 25.2287H85.965V24.6556L85.4704 24.3659L84.965 25.2287ZM42.678 0.459642L43.1834 -0.403233L42.678 -0.699275L42.1725 -0.403233L42.678 0.459642ZM0.39091 25.2287L-0.114508 24.3659L-0.60909 24.6556V25.2287H0.39091ZM43.1834 99.1328L0.505398 74.136L-0.505398 75.8618L42.1726 100.859L43.1834 99.1328ZM1 74.9989V25.0011H-1V74.9989H1ZM0.505463 25.8639L43.1834 0.862848L42.1725 -0.862848L-0.505463 24.1382L0.505463 25.8639ZM42.1725 0.862848L84.8504 25.8639L85.8614 24.1382L43.1834 -0.862848L42.1725 0.862848ZM84.3559 25.0011V74.9989H86.3559V25.0011H84.3559ZM84.8504 74.1361L42.1725 99.1371L43.1834 100.863L85.8614 75.8618L84.8504 74.1361ZM43.678 100V99.9957H41.678V100H43.678ZM-0.114508 75.6298L42.1725 100.399L43.1834 98.6732L0.896328 73.9041L-0.114508 75.6298ZM43.1834 100.399L85.4704 75.6298L84.4596 73.9041L42.1725 98.6732L43.1834 100.399ZM85.965 74.767V25.2287H83.965V74.767H85.965ZM85.4704 24.3659L43.1834 -0.403233L42.1725 1.32252L84.4596 26.0916L85.4704 24.3659ZM42.1725 -0.403233L-0.114508 24.3659L0.896328 26.0916L43.1834 1.32252L42.1725 -0.403233ZM-0.60909 25.2287V74.767H1.39091V25.2287H-0.60909Z" fill="#21CFA5" mask="url(#path-21-inside-11_5213_71066)"/>
</svg>
