<svg width="101" height="101" viewBox="0 0 101 101" fill="none" xmlns="http://www.w3.org/2000/svg">
<g clip-path="url(#clip0_5213_71016)">
<path d="M55.0118 71.003C49.5409 71.003 43.6964 69.3702 38.545 66.0405C32.263 61.9807 28.0898 56.1155 27.0969 49.9493C26.3596 45.3765 27.4361 41.1342 30.2084 37.6812C36.8983 29.3495 51.5219 28.506 62.8078 35.7968C69.0897 39.8566 73.263 45.7218 74.2559 51.888C74.9932 56.4608 73.9167 60.7031 71.1444 64.1561C67.507 68.6845 61.5248 71.003 55.0118 71.003ZM46.3409 31.0168C39.882 31.0168 33.954 33.3106 30.3509 37.7946C27.613 41.2082 26.5464 45.3963 27.2738 49.9197C28.2569 56.0365 32.4007 61.8524 38.6433 65.8876C49.8506 73.1291 64.3709 72.3053 71.0068 64.0427C73.7447 60.6291 74.8113 56.441 74.0839 51.9176C73.1008 45.8007 68.957 39.9848 62.7144 35.9497C57.5925 32.6397 51.7775 31.0168 46.3409 31.0168Z" fill="#FFA011"/>
<path d="M53.2082 72.0142C49.3987 72.0142 45.4369 71.2299 41.6372 69.5724C34.9276 66.6472 29.7909 61.4627 27.5347 55.336C25.7553 50.5067 25.9421 45.4357 28.0656 41.0552C33.0499 30.7701 47.2507 26.8287 59.7163 32.2599C66.4259 35.1851 71.5626 40.3696 73.8188 46.4962C75.5982 51.3256 75.4114 56.3966 73.2879 60.777C69.8225 67.9248 61.9037 72.0093 53.2082 72.0093V72.0142ZM28.1492 41.0996L28.2327 41.1391C26.1338 45.4702 25.947 50.487 27.7117 55.267C29.9482 61.3443 35.0554 66.4893 41.7159 69.3948C54.093 74.7865 68.1808 70.8846 73.1208 60.6932C75.2197 56.3621 75.4065 51.3453 73.6418 46.5653C71.4053 40.488 66.2981 35.3429 59.6377 32.4374C47.2605 27.0458 33.1728 30.9477 28.2327 41.1391L28.1492 41.0996Z" fill="#FFA011"/>
<path d="M51.7291 73.4646C49.6302 73.4646 47.492 73.2179 45.3488 72.7C38.5458 71.0573 32.6718 66.8643 29.231 61.1915C26.2129 56.2191 25.279 50.5117 26.6012 45.1102L26.6946 45.1349L26.6012 45.1102C29.5407 33.0986 42.7289 25.936 56.0056 29.1424C62.8086 30.785 68.6826 34.978 72.1234 40.6508C75.1415 45.6232 76.0705 51.3306 74.7532 56.7321C72.2905 66.8002 62.6169 73.4646 51.7291 73.4646ZM49.6253 28.5751C38.826 28.5751 29.2359 35.1753 26.7929 45.1595C25.4854 50.5068 26.4095 56.1698 29.3981 61.0928C32.8144 66.7213 38.6441 70.8797 45.398 72.5125C58.5665 75.6893 71.6515 68.5909 74.5664 56.6877C75.8739 51.3405 74.9498 45.6775 71.9612 40.7544C68.5449 35.126 62.7152 30.9626 55.9613 29.3347C53.8329 28.8217 51.7045 28.5751 49.6253 28.5751Z" fill="#FFA011"/>
<path d="M50.8244 75.2947C50.4115 75.2947 49.9986 75.2848 49.5857 75.2651C35.9403 74.609 25.3327 63.1548 25.9324 49.7323C26.2175 43.3196 28.9997 37.3902 33.7677 33.0295C38.6733 28.5455 45.0634 26.2517 51.7632 26.5723C65.4086 27.2284 76.0161 38.6826 75.4165 52.1051C75.1314 58.5179 72.3492 64.4472 67.5812 68.8079C62.9803 73.0157 57.0719 75.2947 50.8244 75.2947ZM50.5245 26.7548C44.3261 26.7548 38.4669 29.0141 33.9053 33.1874C29.1816 37.5086 26.4191 43.3886 26.1389 49.7471C25.5441 63.0561 36.0681 74.4166 49.5955 75.0629C56.2412 75.3835 62.5822 73.1094 67.4436 68.6599C72.1673 64.3387 74.9298 58.4587 75.21 52.1001C75.8048 38.7911 65.2808 27.4306 51.7534 26.7844C51.3405 26.7647 50.9325 26.7548 50.5245 26.7548Z" fill="#FFA011"/>
<path d="M50.5733 77.406C45.5447 77.406 40.6342 75.7683 36.456 72.6507C30.8032 68.433 27.1461 62.0942 26.1581 54.7985C24.1969 40.3549 33.6002 26.8634 47.1177 24.7225C53.3947 23.731 59.7062 25.3144 64.8969 29.1868C70.5497 33.4044 74.2068 39.7432 75.1948 47.039C77.1561 61.4826 67.7528 74.9741 54.2353 77.115C53.0113 77.3074 51.7874 77.406 50.5733 77.406ZM50.7748 24.6485C49.5705 24.6485 48.3564 24.7422 47.1472 24.9346C33.7427 27.0558 24.423 40.4437 26.3646 54.7689C27.3477 62.0055 30.9753 68.2949 36.5789 72.478C41.7205 76.3158 47.9779 77.8894 54.196 76.9029C67.6004 74.7817 76.9202 61.3938 74.9786 47.0686C73.9955 39.832 70.3679 33.5425 64.7642 29.3594C60.6205 26.2665 55.7591 24.6485 50.7748 24.6485Z" fill="#FFA011"/>
<path d="M51.1927 79.6553C47.9386 79.6553 44.6747 78.9104 41.5928 77.4355C34.9667 74.2587 29.771 67.9594 27.3428 60.1604C22.6731 45.1644 29.3385 28.8118 42.1974 23.7161C47.8944 21.4568 54.1321 21.7034 59.7652 24.4067C66.3913 27.5835 71.5869 33.8828 74.0152 41.6817C78.6849 56.6778 72.0195 73.0304 59.1606 78.1261C56.58 79.1472 53.8913 79.6553 51.1976 79.6553H51.1927ZM50.1604 22.4088C47.4913 22.4088 44.832 22.912 42.276 23.9232C29.5204 28.9795 22.914 45.2038 27.5493 60.0914C29.9578 67.8311 35.1092 74.0811 41.6812 77.2332C47.2554 79.9069 53.4341 80.1486 59.0672 77.9189C71.8229 72.8627 78.4293 56.6383 73.794 41.7508C71.3854 34.0111 66.234 27.7611 59.662 24.6089C56.6095 23.1438 53.3801 22.4088 50.1555 22.4088H50.1604Z" fill="#FFA011"/>
<path d="M52.4952 81.8997C50.7698 81.8997 49.0248 81.6777 47.2897 81.2289C39.9656 79.3396 33.487 73.6519 29.5153 65.626C22.0832 50.6004 25.5142 31.7764 37.1687 23.6618C42.1776 20.1742 48.1745 19.089 54.0583 20.6083C61.3823 22.4976 67.8609 28.1852 71.8326 36.2111C79.2648 51.2367 75.8338 70.0607 64.1792 78.1754C60.645 80.6369 56.6242 81.8997 52.4952 81.8997ZM29.7267 65.5274C33.6689 73.494 40.0885 79.1324 47.3487 81.0069C53.1637 82.5065 59.0917 81.436 64.0465 77.9879C75.6077 69.9374 79.0092 51.2466 71.6262 36.3196C67.684 28.353 61.2644 22.7146 54.0042 20.8401C48.1892 19.3405 42.2612 20.411 37.3064 23.8591C25.7452 31.9096 22.3437 50.6004 29.7267 65.5274Z" fill="#FFA011"/>
<path d="M54.4027 84.0013C54.0193 84.0013 53.6309 83.9914 53.2426 83.9668C45.6482 83.5179 38.157 78.7971 32.7009 71.008C22.5504 56.5299 22.3391 35.7327 32.2339 24.6534C36.4563 19.9227 42.0992 17.5106 48.1158 17.8707C55.7102 18.3196 63.2014 23.0403 68.6575 30.8294C78.808 45.3124 79.0193 66.1047 69.1245 77.184C65.1725 81.6088 59.9817 84.0013 54.4027 84.0013ZM46.9557 18.0778C41.4455 18.0778 36.3186 20.4456 32.4158 24.8162C22.5947 35.8166 22.8109 56.4756 32.9024 70.8699C38.3192 78.5948 45.7367 83.2811 53.2623 83.725C59.2002 84.0753 64.7743 81.6927 68.9475 77.0212C78.7687 66.0208 78.5524 45.3618 68.4609 30.9675C63.0441 23.2426 55.6266 18.5563 48.1059 18.1124C47.7225 18.0877 47.3391 18.0778 46.9606 18.0778H46.9557Z" fill="#FFA011"/>
<path d="M56.7026 85.8411C49.9488 85.8411 42.841 82.3832 36.8392 76.0888C24.1229 62.7551 19.9644 40.6162 27.5686 26.7399C30.8669 20.7168 36.0429 16.958 42.1381 16.1588C49.6096 15.1772 57.7644 18.6697 64.5084 25.7484C77.2247 39.0821 81.3832 61.221 73.779 75.0973C70.4807 81.1203 65.3047 84.8792 59.2095 85.6784C58.3788 85.7869 57.5432 85.8411 56.7026 85.8411ZM44.6499 16.2525C43.8192 16.2525 42.9934 16.3068 42.1725 16.4153C36.1609 17.2046 31.0537 20.9191 27.7898 26.8682C20.2348 40.6557 24.3785 62.6565 37.0211 75.9211C43.711 82.9406 51.7872 86.4035 59.1751 85.4317C65.1867 84.6424 70.2939 80.928 73.5578 74.9789C81.1128 61.1914 76.9691 39.1906 64.3265 25.926C58.3739 19.6859 51.33 16.2525 44.645 16.2525H44.6499Z" fill="#FFA011"/>
<path d="M59.2498 87.3309C53.6363 87.3309 47.5608 85.0322 41.8785 80.6518C26.8617 69.0742 18.5743 46.3237 23.3963 29.9414C25.5641 22.5766 30.1354 17.4168 36.2601 15.419C43.2892 13.1301 51.7537 15.2315 59.4808 21.1954C74.4976 32.7729 82.785 55.5235 77.963 71.9057C75.7952 79.2706 71.2239 84.4304 65.0992 86.4282C63.2362 87.035 61.2749 87.3359 59.2498 87.3359V87.3309ZM42.1046 14.7727C40.1089 14.7727 38.1722 15.0687 36.3388 15.6656C30.2977 17.6338 25.7853 22.7295 23.6421 30.0105C18.8446 46.299 27.0977 68.9213 42.0309 80.4397C49.6892 86.3493 58.0651 88.4359 65.0107 86.1717C71.0518 84.2035 75.5642 79.1078 77.7074 71.8268C82.5049 55.5383 74.2518 32.916 59.3186 21.3976C53.6855 17.0517 47.6591 14.7727 42.1046 14.7727Z" fill="#FFA011"/>
<path d="M61.7216 88.4459C57.3124 88.4459 52.5346 87.114 47.6781 84.4651C30.7394 75.2356 18.2738 52.6922 19.8959 34.2135C20.6578 25.502 24.4329 18.8968 30.5182 15.6164C36.9771 12.1338 45.2007 12.7602 53.6701 17.3774C70.6088 26.6069 83.0744 49.1503 81.4523 67.629C80.6904 76.3405 76.9153 82.9457 70.83 86.2261C68.0773 87.7109 65.0002 88.4509 61.7216 88.4509V88.4459ZM39.6266 13.6679C36.3922 13.6679 33.3593 14.393 30.646 15.8581C24.6442 19.0941 20.9232 25.6203 20.1662 34.2381C18.554 52.6182 30.9557 75.0432 47.8059 84.2233C56.1917 88.7912 64.3219 89.4177 70.6973 85.9795C76.699 82.7435 80.4201 76.2172 81.177 67.5994C82.7893 49.2194 70.3876 26.7944 53.5373 17.6142C48.7202 14.9899 43.9866 13.6679 39.6266 13.6679Z" fill="#FFA011"/>
<path d="M64.0274 89.1118C60.911 89.1118 57.5783 88.5199 54.1129 87.331C35.729 81.007 19.2081 59.5538 17.2862 39.5015C16.3326 29.537 19.0558 21.4766 24.9642 16.7953C30.6071 12.3261 38.521 11.5171 47.246 14.5163C65.6298 20.8403 82.1507 42.2935 84.0727 62.3458C85.0263 72.3103 82.3031 80.3707 76.3947 85.052C72.9932 87.7454 68.761 89.1118 64.0274 89.1118ZM37.3266 13.0167C32.6569 13.0167 28.4885 14.3584 25.1362 17.0173C19.3064 21.6345 16.6177 29.611 17.5615 39.4719C19.4736 59.4206 35.9109 80.7702 54.1965 87.0597C62.828 90.0293 70.6436 89.2351 76.2079 84.83C82.0377 80.2128 84.7264 72.2363 83.7827 62.3754C81.8706 42.4267 65.4332 21.0771 47.1477 14.7876C43.7167 13.6086 40.4086 13.0216 37.3266 13.0216V13.0167Z" fill="#FFA011"/>
<path d="M65.7034 89.4175C64.1747 89.4175 62.5919 89.2942 60.9649 89.0476C41.7159 86.1273 21.415 66.6719 15.7131 45.6774C12.7737 34.8595 14.2041 25.1466 19.6356 19.0249C24.3643 13.6973 31.7326 11.4825 40.3838 12.7946C59.6328 15.7149 79.9337 35.1703 85.6357 56.1648C88.5751 66.9827 87.1447 76.6956 81.7131 82.8173C77.8741 87.1435 72.2951 89.4175 65.7034 89.4175ZM35.6502 12.7256C29.1422 12.7256 23.6418 14.9651 19.8618 19.2222C14.499 25.265 13.0932 34.8793 16.0031 45.5985C21.6756 66.4894 41.8634 85.8461 61.0092 88.7516C69.5572 90.0489 76.8321 87.8686 81.487 82.62C86.8498 76.5772 88.2556 66.9629 85.3456 56.2437C79.6732 35.3528 59.4854 15.9961 40.3396 13.0906C38.7273 12.8439 37.1593 12.7256 35.6453 12.7256H35.6502Z" fill="#FFA011"/>
<path d="M66.509 89.4867C47.3583 89.4867 24.6882 73.2624 15.3488 52.5984C10.1876 41.1738 9.93195 30.1882 14.6508 22.4583C18.3816 16.3464 25.0126 12.7701 33.3198 12.3902C52.7703 11.4974 76.4038 28.0325 85.9939 49.244C91.1552 60.6687 91.4108 71.6543 86.6919 79.3841C82.9611 85.496 76.3301 89.0724 68.023 89.4522C67.5216 89.4769 67.0153 89.4867 66.509 89.4867ZM68.0082 89.1414C76.2121 88.7665 82.7497 85.2444 86.4265 79.2213C91.0913 71.5803 90.8307 60.7032 85.7088 49.3723C76.1728 28.2643 52.6818 11.8131 33.3394 12.701C25.1355 13.0759 18.5979 16.598 14.9211 22.6211C10.2564 30.2622 10.5169 41.1393 15.6388 52.4702C25.1797 73.5781 48.6757 90.0294 68.0131 89.1414H68.0082Z" fill="#FFA011"/>
<path d="M66.2683 89.5015C48.6316 89.5015 27.7802 77.6576 16.3124 60.052C8.83107 48.5682 6.59944 36.6207 10.1828 27.2679C12.8568 20.2977 18.431 15.5078 26.3105 13.4261C45.2449 8.42418 71.5918 21.1462 85.0356 41.7904C92.5169 53.2742 94.7486 65.2217 91.1652 74.5745C88.4912 81.5447 82.917 86.3346 75.0326 88.4163C72.2505 89.1513 69.3012 89.5064 66.2585 89.5064L66.2683 89.5015ZM35.0993 12.6615C32.0812 12.6615 29.1614 13.0118 26.394 13.7419C18.6178 15.7939 13.1174 20.5147 10.4827 27.3814C6.9337 36.6355 9.1604 48.4794 16.5828 59.8695C29.9578 80.4003 56.1425 93.0631 74.954 88.0956C82.7302 86.0435 88.2306 81.3227 90.8653 74.4561C94.4143 65.202 92.1876 53.3581 84.7652 41.968C73.3564 24.4512 52.6181 12.6615 35.0944 12.6615H35.0993Z" fill="#FFA011"/>
<path d="M64.7987 89.6937C49.0544 89.6937 30.9802 81.6284 18.6719 67.8064C8.9786 56.9293 4.54484 44.4737 6.5012 33.641C7.90211 25.8766 12.4391 19.7746 19.6206 15.996C37.2622 6.71227 65.5507 14.8072 82.6811 34.0357C92.3695 44.9127 96.8033 57.3683 94.8469 68.201C93.446 75.9654 88.909 82.0674 81.7275 85.846L81.6489 85.6981L81.7275 85.846C76.7629 88.4556 70.9577 89.6937 64.7937 89.6937H64.7987ZM36.5642 12.4788C30.4543 12.4788 24.6983 13.7022 19.7779 16.292C12.6947 20.0213 8.2167 26.0394 6.83054 33.6953C4.89384 44.4244 9.2981 56.7764 18.9177 67.5745C31.1621 81.3226 49.138 89.3533 64.7839 89.3533C70.8938 89.3533 76.6499 88.13 81.5703 85.5402C88.6534 81.8109 93.1314 75.7928 94.5176 68.1369C96.4543 57.4078 92.05 45.0558 82.4305 34.2576C70.186 20.5096 52.2101 12.4788 36.5642 12.4788Z" fill="#FFA011"/>
<path d="M62.0612 90.34C48.7895 90.34 34.1758 85.2887 22.4573 75.5857C10.8961 66.0109 4.17668 53.6638 4.0243 41.7163C3.91124 33.1281 7.20461 25.6646 13.5456 20.1299C29.103 6.54957 58.4189 9.29721 78.8967 26.2516C90.4579 35.8264 97.1774 48.1735 97.3347 60.121C97.4477 68.7092 94.1544 76.1727 87.8134 81.7074C81.1579 87.5184 71.9856 90.34 62.0662 90.34H62.0612ZM39.2928 11.8475C29.4569 11.8475 20.3682 14.6396 13.7766 20.3963C7.5192 25.857 4.26516 33.2317 4.37821 41.7114C4.53059 53.5553 11.2058 65.8037 22.6883 75.3144C43.0335 92.1652 72.1478 94.9178 87.5824 81.446L87.7003 81.5792L87.5824 81.446C93.8398 75.9853 97.0938 68.6105 96.9807 60.1309C96.8284 48.2869 90.1532 36.0385 78.6706 26.5279C67.016 16.8742 52.481 11.8475 39.2928 11.8475Z" fill="#FFA011"/>
<path d="M58.5019 91.7163C48.2777 91.7163 37.444 88.9046 27.6573 83.1035C14.7542 75.4525 5.8572 63.9194 3.25201 51.4638C1.31531 42.2195 3.12912 33.1084 8.35918 25.8028C21.0558 8.07387 50.3619 4.90201 73.6956 18.7388C86.5987 26.3898 95.4908 37.9229 98.1009 50.3736C100.038 59.6179 98.2238 68.729 92.9937 76.0346L92.8463 75.9261L92.9937 76.0346C85.6254 86.3296 72.6535 91.7163 58.5019 91.7163ZM42.8412 10.4861C28.8075 10.4861 15.9585 15.8185 8.65411 26.0198C3.41422 33.3452 1.66922 42.1159 3.61083 51.3898C6.19637 63.7418 15.0295 75.1861 27.8441 82.7878C37.5718 88.5593 48.3514 91.3562 58.5068 91.3562C72.5405 91.3562 85.3895 86.0238 92.689 75.8225C97.9338 68.502 99.6788 59.7264 97.7372 50.4525C95.1516 38.1005 86.3185 26.6562 73.5039 19.0545C63.7762 13.283 52.9966 10.4861 42.8412 10.4861Z" fill="#FFA011"/>
<path d="M54.9627 93.9707C48.1302 93.9707 41.0667 92.7079 34.19 90.0392C20.5938 84.7659 9.85349 74.757 4.71191 62.5875C0.563251 52.7612 0.435448 42.2343 4.35308 32.9407C13.4467 11.374 41.6172 1.88803 67.158 11.7983C80.7542 17.0715 91.4945 27.0804 96.6361 39.2499C100.785 49.0763 100.913 59.608 96.9949 68.9016C90.3492 84.6623 73.5137 93.9707 54.9627 93.9707ZM46.3803 8.25149C27.9817 8.25149 11.2888 17.4711 4.70699 33.0887C0.828686 42.2836 0.956488 52.7069 5.06582 62.4395C10.1632 74.5153 20.8297 84.4452 34.3276 89.6791C59.6767 99.5153 87.631 90.128 96.641 68.7487C100.519 59.5538 100.392 49.1305 96.2822 39.3979C91.1848 27.3221 80.5183 17.3922 67.0204 12.1584C60.1879 9.50938 53.1686 8.25149 46.3803 8.25149Z" fill="#FFA011"/>
<path d="M52.2351 97.0833C48.8434 97.0833 45.3977 96.7578 41.9274 96.082C28.867 93.5366 17.5024 86.443 9.91784 76.1185C2.33327 65.784 -0.561946 53.4468 1.77782 41.3809C6.59989 16.4795 32.4602 0.496895 59.4215 5.76031C86.3829 11.0188 104.398 35.56 99.5711 60.4614L99.3745 60.4219L99.5711 60.4614C95.3684 82.1613 75.1904 97.0883 52.2302 97.0883L52.2351 97.0833ZM49.1187 5.1585C26.3453 5.1585 6.33446 19.9474 2.17106 41.4598C-0.14413 53.4172 2.72159 65.6409 10.2423 75.8817C17.7678 86.1273 29.0488 93.1617 42.006 95.6923C45.4468 96.3631 48.8729 96.6887 52.2351 96.6887C75.0085 96.6887 95.0193 81.8949 99.1828 60.3874C103.965 35.7031 86.0929 11.374 59.3478 6.15495C55.907 5.48407 52.4809 5.1585 49.1187 5.1585Z" fill="#FFA011"/>
<path d="M50.6767 100.921C23.2042 100.921 0.853516 78.4912 0.853516 50.9211C0.853516 23.3511 23.2042 0.921143 50.6767 0.921143C78.1493 0.921143 100.5 23.3511 100.5 50.9211C100.5 78.4912 78.1493 100.921 50.6767 100.921ZM50.6767 1.34044C23.4352 1.34044 1.27133 23.5829 1.27133 50.9211C1.27133 78.2593 23.4352 100.502 50.6767 100.502C77.9182 100.502 100.082 78.2593 100.082 50.9211C100.082 23.5829 77.9182 1.34044 50.6767 1.34044Z" fill="#FFA011"/>
</g>
<defs>
<clipPath id="clip0_5213_71016">
<rect width="99.6464" height="100" fill="white" transform="translate(0.853516 0.921143)"/>
</clipPath>
</defs>
</svg>
