<svg width="86" height="101" viewBox="0 0 86 101" fill="none" xmlns="http://www.w3.org/2000/svg">
<g clip-path="url(#clip0_5213_71135)">
<path d="M40.8001 57.3009C40.7637 57.3009 40.7273 57.2827 40.7 57.2554L36.3337 51.9831C36.3064 51.9467 36.2973 51.8966 36.311 51.8556L38.6375 45.3859C38.6512 45.3404 38.6921 45.3085 38.7377 45.304L45.4304 44.1066C45.476 44.0975 45.5215 44.1157 45.5488 44.1521L49.915 49.4244C49.9424 49.4608 49.9515 49.5109 49.9378 49.5518L47.6113 56.0215C47.5976 56.067 47.5566 56.0989 47.5111 56.1035L40.8183 57.3009C40.8183 57.3009 40.8047 57.3009 40.7956 57.3009H40.8001ZM36.5796 51.8738L40.8502 57.0323L47.3973 55.8622L49.6737 49.5336L45.4031 44.3752L38.856 45.5453L36.5796 51.8738Z" fill="#FF2756"/>
<path d="M40.0671 57.4693C40.0261 57.4693 39.9852 57.4465 39.9624 57.4147L35.8147 51.4185C35.7874 51.3821 35.7828 51.332 35.8056 51.291L38.8606 44.6529C38.8788 44.6119 38.9198 44.5846 38.9653 44.58L46.168 43.9426C46.2135 43.9426 46.2591 43.9608 46.2818 43.9973L50.4295 49.9934C50.4568 50.0299 50.4614 50.0799 50.4386 50.1209L47.3836 56.7591C47.3654 56.8 47.3244 56.8273 47.2789 56.8319L40.0762 57.4693H40.0671ZM36.0697 51.332L40.1309 57.2052L47.1879 56.5769L50.1837 50.0754L46.1225 44.2021L39.0655 44.8304L36.0697 51.332Z" fill="#FF2756"/>
<path d="M46.9691 57.5785H39.2792C39.2337 57.5785 39.1927 57.5558 39.1699 57.5148L35.3227 50.7674C35.3 50.7264 35.3 50.6763 35.3227 50.6354L39.1699 43.888C39.1927 43.847 39.2337 43.8242 39.2792 43.8242H46.9691C47.0146 43.8242 47.0556 43.847 47.0783 43.888L50.9255 50.6354C50.9483 50.6763 50.9483 50.7264 50.9255 50.7674L47.0783 57.5148C47.0556 57.5558 47.0146 57.5785 46.9691 57.5785ZM39.3521 57.319H46.8962L50.666 50.7037L46.8962 44.0883H39.3521L35.5823 50.7037L39.3521 57.319Z" fill="#FF2756"/>
<path d="M46.5816 58.3434H46.5725L38.4228 57.6194C38.3773 57.6194 38.3363 57.5876 38.3181 57.5466L34.8579 50.0343C34.8397 49.9933 34.8443 49.9432 34.867 49.9068L39.5611 43.1184C39.5884 43.082 39.6339 43.0593 39.6749 43.0638L47.8246 43.7877C47.8701 43.7877 47.9111 43.8196 47.9293 43.8606L51.3895 51.3729C51.4077 51.4138 51.4032 51.4639 51.3804 51.5003L46.6864 58.2887C46.6636 58.3251 46.6226 58.3434 46.5816 58.3434ZM38.5139 57.369L46.5179 58.0793L51.1254 51.4138L47.729 44.0381L39.725 43.3279L35.1174 49.9933L38.5139 57.369Z" fill="#FF2756"/>
<path d="M46.1038 59.1175C46.1038 59.1175 46.0901 59.1175 46.081 59.1175L37.5079 57.5831C37.4623 57.574 37.4259 57.5421 37.4077 57.5012L34.4301 49.2149C34.4165 49.1694 34.421 49.1238 34.4529 49.0874L40.0438 42.3354C40.0712 42.299 40.1167 42.2808 40.1622 42.2899L48.7353 43.8242C48.7809 43.8334 48.8173 43.8652 48.8355 43.9062L51.8131 52.1925C51.8268 52.238 51.8222 52.2835 51.7903 52.32L46.1994 59.0719C46.1766 59.1038 46.1402 59.1175 46.0992 59.1175H46.1038ZM37.6263 57.3373L46.0537 58.8443L51.549 52.2061L48.6215 44.061L40.1941 42.554L34.6987 49.1921L37.6263 57.3373Z" fill="#FF2756"/>
<path d="M45.5258 59.8914C45.5258 59.8914 45.503 59.8914 45.4939 59.8914L36.5475 57.4601C36.5019 57.4465 36.4701 57.4146 36.4564 57.3691L34.057 48.3088C34.0434 48.2633 34.057 48.2177 34.0889 48.1813L40.6314 41.5523C40.6633 41.5204 40.7088 41.5068 40.7544 41.5204L49.7008 43.9517C49.7463 43.9653 49.7782 43.9972 49.7919 44.0427L52.1912 53.103C52.2049 53.1485 52.1912 53.1941 52.1594 53.2305L45.6169 59.8595C45.5941 59.8823 45.5577 59.8959 45.5258 59.8959V59.8914ZM36.6841 57.2234L45.4848 59.6182L51.9226 53.0939L49.5597 44.1793L40.7589 41.7845L34.3211 48.3088L36.6841 57.2234Z" fill="#FF2756"/>
<path d="M44.8425 60.6609C44.8425 60.6609 44.8152 60.6609 44.797 60.6518L35.541 57.2326C35.5 57.2189 35.4681 57.178 35.459 57.1324L33.7426 47.3027C33.7334 47.2572 33.7517 47.2116 33.7881 47.1798L41.3277 40.7693C41.3641 40.7374 41.4096 40.7329 41.4552 40.7465L50.7112 44.1658C50.7522 44.1794 50.7841 44.2204 50.7932 44.2659L52.5096 54.0956C52.5187 54.1412 52.5005 54.1867 52.4641 54.2186L44.9245 60.6291C44.9017 60.6473 44.8699 60.6609 44.8425 60.6609ZM35.7003 57.0186L44.8198 60.3877L52.2456 54.0729L50.5564 44.3934L41.437 41.0242L34.0112 47.3391L35.7003 57.0186Z" fill="#FF2756"/>
<path d="M44.0465 61.412C44.0465 61.412 44.0101 61.412 43.9918 61.3984L34.4945 56.9046C34.4535 56.8864 34.4262 56.8454 34.4216 56.7999L33.502 46.2235C33.502 46.178 33.5202 46.1325 33.5566 46.1051L42.1343 40.0225C42.1707 39.9951 42.2208 39.9906 42.2617 40.0134L51.7591 44.5071C51.8001 44.5253 51.8274 44.5663 51.832 44.6118L52.7516 55.1882C52.7516 55.2337 52.7334 55.2793 52.697 55.3066L44.1193 61.3892C44.1193 61.3892 44.0738 61.412 44.0465 61.412ZM34.6675 56.7043L44.0328 61.1343L52.4876 55.1381L51.5815 44.712L42.2162 40.282L33.7615 46.2782L34.6675 56.7043Z" fill="#FF2756"/>
<path d="M43.1351 62.1269C43.1351 62.1269 43.0896 62.1224 43.0714 62.1087L33.4146 56.454C33.3737 56.4312 33.3509 56.3857 33.3509 56.3402L33.3418 45.0444C33.3418 44.9989 33.3646 44.9533 33.4055 44.9306L43.0531 39.2895C43.0941 39.2668 43.1396 39.2668 43.1806 39.2895L52.8373 44.9442C52.8783 44.967 52.9011 45.0125 52.9011 45.0581L52.9102 56.3538C52.9102 56.3994 52.8874 56.4449 52.8464 56.4676L43.1988 62.1087C43.1988 62.1087 43.1579 62.1269 43.1351 62.1269ZM33.6104 56.2673L43.1351 61.8492L52.6552 56.2855L52.6461 45.14L43.1214 39.5582L33.6013 45.1218L33.6104 56.2673Z" fill="#FF2756"/>
<path d="M42.1018 62.8053C42.0745 62.8053 42.0517 62.7962 42.0289 62.7826L32.313 55.8803C32.2766 55.853 32.2538 55.8075 32.2584 55.762L33.2828 43.7924C33.2828 43.7469 33.3147 43.7059 33.3556 43.6877L44.0959 38.6157C44.1369 38.5975 44.187 38.6021 44.2234 38.6248L53.9393 45.527C53.9757 45.5544 53.9985 45.5999 53.994 45.6454L52.9696 57.615C52.9696 57.6605 52.9377 57.7015 52.8967 57.7197L42.1564 62.7917C42.1564 62.7917 42.12 62.8053 42.1018 62.8053ZM32.5225 55.7119L42.1154 62.5276L52.7191 57.5194L53.7299 45.6955L44.1369 38.8798L33.5332 43.888L32.5225 55.7119Z" fill="#FF2756"/>
<path d="M40.9455 63.4244C40.9136 63.4244 40.8863 63.4153 40.8636 63.3925L31.1977 55.1654C31.1613 55.1336 31.1477 55.088 31.1522 55.0425L33.3285 42.4537C33.3376 42.4082 33.3695 42.3718 33.4105 42.3536L45.2526 37.9919C45.2935 37.9782 45.3436 37.9828 45.38 38.0146L55.0459 46.2417C55.0823 46.2736 55.0959 46.3191 55.0914 46.3647L52.9151 58.9535C52.906 58.999 52.8741 59.0354 52.8331 59.0536L40.991 63.4153C40.991 63.4153 40.9637 63.4244 40.9455 63.4244ZM31.4208 55.0152L40.9728 63.1467L52.6783 58.8351L54.8319 46.392L45.2799 38.2605L33.5744 42.5721L31.4208 55.0152Z" fill="#FF2756"/>
<path d="M39.6659 63.9708C39.6341 63.9708 39.5976 63.9571 39.5749 63.9343L30.0821 54.3049C30.0502 54.2731 30.0365 54.223 30.0502 54.1775L33.5104 41.0378C33.5241 40.9922 33.5559 40.9558 33.6015 40.9467L46.5499 37.4364C46.5954 37.4228 46.641 37.4364 46.6728 37.4683L56.1657 47.0977C56.1975 47.1296 56.2112 47.1796 56.1975 47.2252L52.7373 60.3648C52.7237 60.4104 52.6918 60.4468 52.6463 60.4559L39.6978 63.9662C39.6978 63.9662 39.675 63.9662 39.6659 63.9662V63.9708ZM30.3188 54.1729L39.7069 63.6976L52.5142 60.2283L55.9335 47.2343L46.5454 37.7096L33.738 41.1789L30.3188 54.1729Z" fill="#FF2756"/>
<path d="M38.259 64.4305C38.2226 64.4305 38.1862 64.4123 38.1589 64.385L28.9802 53.2896C28.9529 53.2532 28.9438 53.2076 28.9574 53.1621L33.8245 39.5626C33.8382 39.517 33.8791 39.4852 33.9247 39.4806L47.9704 36.9811C48.0159 36.972 48.0614 36.9902 48.0888 37.0266L57.2674 48.122C57.2947 48.1585 57.3038 48.204 57.2902 48.2495L52.4231 61.849C52.4095 61.8946 52.3685 61.9264 52.323 61.931L38.2772 64.4305C38.2772 64.4305 38.2636 64.4305 38.2545 64.4305H38.259ZM29.2261 53.1758L38.3091 64.1574L52.2091 61.6806L57.0261 48.2222L47.9431 37.2406L34.043 39.7174L29.2261 53.1758Z" fill="#FF2756"/>
<path d="M36.7255 64.7859C36.6845 64.7859 36.6435 64.7631 36.6208 64.7312L27.9065 52.106C27.8792 52.0696 27.8746 52.0195 27.8974 51.9785L34.2988 38.0239C34.317 37.9829 34.358 37.9556 34.4035 37.951L49.5191 36.6216C49.5647 36.6216 49.6102 36.6398 49.6329 36.6762L58.3472 49.3014C58.3745 49.3378 58.3791 49.3879 58.3563 49.4289L51.9549 63.3836C51.9367 63.4245 51.8957 63.4564 51.8502 63.4564L36.7346 64.7859H36.7255ZM28.1615 52.0195L36.7892 64.5218L51.7546 63.206L58.0922 49.3879L49.4645 36.8857L34.4991 38.2014L28.1615 52.0195Z" fill="#FF2756"/>
<path d="M51.2033 65.0316L35.0632 65.018C35.0177 65.018 34.9767 64.9952 34.9539 64.9542L26.8725 50.7537C26.8498 50.7127 26.8498 50.6627 26.8725 50.6217L34.9312 36.4348C34.9539 36.3939 34.9949 36.3711 35.0405 36.3711L51.1805 36.3848C51.226 36.3848 51.267 36.4075 51.2898 36.4485L59.3712 50.649C59.3939 50.69 59.3939 50.7401 59.3712 50.781L51.3125 64.9679C51.2898 65.0089 51.2488 65.0316 51.2033 65.0316ZM35.1361 64.7585L51.1259 64.7721L59.1117 50.7173L51.1031 36.6488L35.1133 36.6352L27.1275 50.69L35.1361 64.7585Z" fill="#FF2756"/>
<path d="M50.3887 66.6387H50.3796L33.2789 65.109C33.2333 65.109 33.1924 65.0771 33.1742 65.0361L25.9077 49.2284C25.8895 49.1875 25.8941 49.1374 25.9168 49.1009L35.7557 34.823C35.783 34.7866 35.8285 34.7638 35.874 34.7684L52.9747 36.2982C53.0203 36.2982 53.0612 36.33 53.0795 36.371L60.3459 52.1787C60.3641 52.2197 60.3596 52.2698 60.3368 52.3062L50.498 66.5841C50.4752 66.6205 50.4342 66.6387 50.3932 66.6387H50.3887ZM33.3699 64.854L50.3249 66.3747L60.0773 52.2197L52.8746 36.5486L35.9196 35.0325L26.1672 49.1874L33.3699 64.8585V64.854Z" fill="#FF2756"/>
<path d="M49.3825 68.2688C49.3825 68.2688 49.3689 68.2688 49.3598 68.2688L31.3758 65.0362C31.3303 65.0271 31.2939 64.9952 31.2756 64.9542L25.02 47.5166C25.0063 47.4711 25.0108 47.4256 25.0427 47.3891L36.771 33.1841C36.7983 33.1477 36.8438 33.1294 36.8894 33.1386L54.8734 36.3711C54.9189 36.3802 54.9553 36.4121 54.9735 36.4531L61.2292 53.8907C61.2429 53.9362 61.2383 53.9817 61.2064 54.0182L49.4782 68.2232C49.4554 68.2551 49.419 68.2688 49.378 68.2688H49.3825ZM31.4942 64.7903L49.3325 67.9956L60.9651 53.9043L54.7595 36.6079L36.9212 33.4026L25.2886 47.4939L31.4942 64.7903Z" fill="#FF2756"/>
<path d="M48.1622 69.8986C48.1622 69.8986 48.1395 69.8986 48.1304 69.8986L29.3633 64.7812C29.3178 64.7675 29.2859 64.7356 29.2722 64.6901L24.2367 45.6225C24.2231 45.577 24.2367 45.5315 24.2686 45.4951L37.9956 31.545C38.0275 31.5131 38.073 31.4994 38.1185 31.5131L56.8856 36.6306C56.9311 36.6442 56.963 36.6761 56.9767 36.7216L62.0122 55.7892C62.0258 55.8347 62.0122 55.8802 61.9803 55.9167L48.2533 69.8668C48.2305 69.8895 48.1941 69.9032 48.1622 69.9032V69.8986ZM29.4999 64.5444L48.1213 69.6209L61.7436 55.7755L56.7445 36.8536L38.1231 31.7772L24.5008 45.6225L29.4999 64.5444Z" fill="#FF2756"/>
<path d="M46.7183 71.515C46.7183 71.515 46.6864 71.515 46.6728 71.5059L27.2546 64.3169C27.2137 64.2986 27.1818 64.2622 27.1727 64.2167L23.5804 43.5374C23.5713 43.4919 23.5896 43.4463 23.626 43.4145L39.4519 29.9197C39.4883 29.8878 39.5338 29.8833 39.5794 29.8969L58.9975 37.0859C59.0385 37.0996 59.0703 37.1406 59.0794 37.1861L62.6717 57.8654C62.6808 57.9109 62.6626 57.9565 62.6262 57.9883L46.8003 71.4831C46.7775 71.5013 46.7456 71.515 46.7183 71.515ZM27.414 64.1029L46.6955 71.2373L62.4076 57.8426L58.8381 37.309L39.5566 30.1746L23.8445 43.5693L27.414 64.1029Z" fill="#FF2756"/>
<path d="M45.0436 73.0902C45.0436 73.0902 45.0072 73.0902 44.989 73.0765L25.0655 63.6338C25.0245 63.6156 24.9972 63.5746 24.9926 63.5291L23.0713 41.2745C23.0713 41.229 23.0895 41.1834 23.1259 41.1561L41.1281 28.3442C41.1645 28.3169 41.2146 28.3124 41.2556 28.3351L61.1791 37.7779C61.2201 37.7961 61.2474 37.837 61.2519 37.8826L63.1733 60.1372C63.1733 60.1827 63.1551 60.2282 63.1186 60.2556L45.1165 73.0674C45.1165 73.0674 45.0709 73.0902 45.0436 73.0902ZM25.243 63.4289L45.0299 72.8079L62.9138 60.0826L61.0061 37.9782L41.2192 28.5992L23.3354 41.3246L25.243 63.4289Z" fill="#FF2756"/>
<path d="M43.1269 74.5973C43.1269 74.5973 43.0813 74.5927 43.0631 74.579L22.8118 62.696C22.7708 62.6732 22.748 62.6277 22.748 62.5821V38.816C22.748 38.7705 22.7708 38.7249 22.8118 38.7022L43.0631 26.8191C43.1041 26.7963 43.1496 26.7963 43.1906 26.8191L63.4419 38.7022C63.4829 38.7249 63.5057 38.7705 63.5057 38.816V62.5821C63.5057 62.6277 63.4829 62.6732 63.4419 62.696L43.1906 74.579C43.1906 74.579 43.1496 74.5973 43.1269 74.5973ZM23.003 62.5093L43.1269 74.315L63.2507 62.5093V38.8934L43.1269 27.0877L23.003 38.8934V62.5093Z" fill="#FF2756"/>
<path d="M40.9545 76.0176C40.9271 76.0176 40.9044 76.0085 40.8816 75.9949L20.5074 61.4984C20.4709 61.4711 20.4482 61.4256 20.4527 61.3801L22.6245 36.1934C22.6245 36.1479 22.6563 36.1069 22.6973 36.0887L45.2433 25.3984C45.2843 25.3802 45.3344 25.3848 45.3708 25.4075L65.745 39.904C65.7815 39.9313 65.8042 39.9768 65.7997 40.0224L63.6279 65.209C63.6279 65.2546 63.5961 65.2955 63.5551 65.3138L41.0091 76.004C41.0091 76.004 40.9727 76.0176 40.9545 76.0176ZM20.7122 61.3254L40.9681 75.7354L63.3821 65.1089L65.5401 40.0725L45.2843 25.6625L22.8703 36.289L20.7122 61.3254Z" fill="#FF2756"/>
<path d="M38.5238 77.3199C38.492 77.3199 38.4646 77.3108 38.4419 77.288L18.1723 60.0052C18.1359 59.9733 18.1223 59.9278 18.1268 59.8823L22.7298 33.3935C22.7389 33.3479 22.7708 33.3115 22.8118 33.2933L47.6843 24.0873C47.7253 24.0737 47.7753 24.0782 47.8118 24.1101L68.0813 41.3929C68.1177 41.4248 68.1314 41.4703 68.1268 41.5159L63.5238 68.0047C63.5147 68.0502 63.4829 68.0866 63.4419 68.1048L38.5694 77.3108C38.5694 77.3108 38.542 77.3199 38.5238 77.3199ZM18.3954 59.855L38.5512 77.0422L63.2825 67.8863L67.8628 41.5477L47.707 24.3605L22.9757 33.5164L18.3954 59.855Z" fill="#FF2756"/>
<path d="M35.8239 78.4717C35.792 78.4717 35.7556 78.458 35.7328 78.4353L15.8321 58.2158C15.8002 58.184 15.7865 58.1339 15.8002 58.0884L23.0985 30.4522C23.1122 30.4067 23.144 30.3703 23.1896 30.3612L50.3886 22.9445C50.4341 22.9308 50.4797 22.9445 50.5115 22.9764L70.4123 43.1958C70.4442 43.2277 70.4578 43.2778 70.4442 43.3233L63.1459 70.964C63.1322 71.0095 63.1003 71.0459 63.0548 71.055L35.8557 78.4717C35.8557 78.4717 35.833 78.4717 35.8239 78.4717ZM16.0643 58.0838L35.8603 78.1985L62.9182 70.8183L70.1801 43.3233L50.3841 23.2086L23.3261 30.5888L16.0643 58.0838Z" fill="#FF2756"/>
<path d="M32.8639 79.4371C32.8275 79.4371 32.7911 79.4189 32.7638 79.3916L13.5232 56.0898C13.4959 56.0534 13.4868 56.0033 13.5004 55.9623L23.7627 27.3564C23.7763 27.3109 23.8173 27.279 23.8628 27.2745L53.3657 21.9703C53.4112 21.9612 53.4567 21.9794 53.484 22.0159L72.7246 45.3176C72.7519 45.3541 72.761 45.3996 72.7474 45.4451L62.4851 74.051C62.4715 74.0965 62.4305 74.1284 62.385 74.133L32.8821 79.4371C32.8821 79.4371 32.8685 79.4371 32.8594 79.4371H32.8639ZM13.7645 55.9805L32.914 79.1685L62.2711 73.8917L72.4833 45.4269L53.3338 22.239L23.9766 27.5158L13.7645 55.9805Z" fill="#FF2756"/>
<path d="M29.6359 80.1838C29.5949 80.1838 29.5539 80.161 29.5311 80.1291L11.2649 53.6221C11.2376 53.5857 11.233 53.5356 11.2558 53.4946L24.746 24.142C24.7643 24.1011 24.8052 24.0738 24.8508 24.0692L56.6027 21.2236C56.6483 21.2236 56.6938 21.2418 56.7211 21.2783L74.9828 47.7853C75.0101 47.8217 75.0147 47.8718 74.9919 47.9128L61.5016 77.2608C61.4834 77.3018 61.4425 77.3291 61.3969 77.3336L29.645 80.1792H29.6359V80.1838ZM11.5199 53.5356L29.6996 79.9197L61.3059 77.0878L74.7324 47.8763L56.5526 21.4923L24.9464 24.3242L11.5199 53.5356Z" fill="#FF2756"/>
<path d="M26.1491 80.6663C26.1036 80.6663 26.0626 80.6435 26.0398 80.6026L9.10301 50.7947C9.08025 50.7537 9.08025 50.7036 9.10301 50.6627L26.0808 20.832C26.1036 20.791 26.1445 20.7683 26.1901 20.7683L60.1001 20.741C60.1456 20.741 60.1866 20.7637 60.2094 20.8047L77.1416 50.6126C77.1644 50.6535 77.1644 50.7036 77.1416 50.7446L60.1638 80.5798C60.1411 80.6208 60.1001 80.6435 60.0546 80.6435L26.1445 80.6708L26.1491 80.6663ZM9.36253 50.7309L26.2219 80.4068L59.9863 80.3795L76.8912 50.6763L60.0318 21.0005L26.2675 21.0278L9.36253 50.7309Z" fill="#FF2756"/>
<path d="M58.3472 84.0172H58.3381L22.3975 80.8529C22.352 80.8529 22.311 80.821 22.2928 80.7801L7.06788 47.5985C7.04967 47.5575 7.05422 47.5074 7.07698 47.471L27.8018 17.4446C27.8291 17.4082 27.8701 17.3854 27.9156 17.39L63.8563 20.5497C63.9018 20.5497 63.9428 20.5816 63.961 20.6225L79.1813 53.8041C79.1995 53.8451 79.195 53.8952 79.1722 53.9316L58.452 83.9534C58.4292 83.9899 58.3882 84.0081 58.3472 84.0081V84.0172ZM22.4931 80.6025L58.2881 83.7531L78.9218 53.8542L63.7652 20.8092L27.9703 17.6586L7.33195 47.553L22.4886 80.598L22.4931 80.6025Z" fill="#FF2756"/>
<path d="M56.2254 87.4318C56.2254 87.4318 56.2117 87.4318 56.2026 87.4318L18.4044 80.7026C18.3588 80.6935 18.3224 80.6616 18.3042 80.6206L5.2055 44.0153C5.19184 43.9698 5.1964 43.9242 5.22827 43.8878L29.9278 14.0208C29.9551 13.9843 30.0052 13.9661 30.0462 13.9752L67.8444 20.709C67.8899 20.7181 67.9263 20.7499 67.9445 20.7909L81.0433 57.3872C81.0569 57.4327 81.0524 57.4782 81.0205 57.5146L56.3164 87.3817C56.2936 87.4136 56.2572 87.4272 56.2163 87.4272L56.2254 87.4318ZM18.5182 80.4567L56.1707 87.1632L80.7792 57.4099L67.7306 20.9548L30.078 14.2484L5.46957 43.9971L18.5182 80.4522V80.4567Z" fill="#FF2756"/>
<path d="M53.6618 90.8512C53.6618 90.8512 53.639 90.8512 53.6299 90.8512L14.1835 80.161C14.138 80.1473 14.1061 80.1154 14.0925 80.0699L3.55703 40.0453C3.54337 39.9998 3.55703 39.9543 3.5889 39.9178L32.4999 10.5926C32.5317 10.5607 32.5818 10.547 32.6228 10.5607L72.0691 21.2509C72.1147 21.2646 72.1465 21.2964 72.1602 21.342L82.6956 61.362C82.7093 61.4075 82.6956 61.4531 82.6638 61.4895L53.7574 90.8193C53.7346 90.8421 53.6982 90.8557 53.6663 90.8557L53.6618 90.8512ZM14.3201 79.9242L53.6208 90.5735L82.4225 61.3529L71.9235 21.4786L32.6273 10.8293L3.8211 40.0544L14.3201 79.9288V79.9242Z" fill="#FF2756"/>
<path d="M50.6343 94.234C50.6343 94.234 50.607 94.234 50.5888 94.2249L9.76291 79.1867C9.72194 79.173 9.69007 79.132 9.68096 79.0865L2.17322 35.6882C2.16411 35.6427 2.18232 35.5971 2.21875 35.5653L35.5324 7.20068C35.5688 7.16881 35.6143 7.16426 35.6598 7.17791L76.4857 22.2162C76.5267 22.2298 76.5586 22.2708 76.5677 22.3163L84.0754 65.7192C84.0845 65.7647 84.0663 65.8102 84.0299 65.8421L50.7117 94.2021C50.689 94.2204 50.6571 94.234 50.6298 94.234H50.6343ZM9.92226 78.9681L50.607 93.9563L83.8114 65.6918L76.3264 22.4393L35.6416 7.45109L2.43729 35.7155L9.92226 78.9681Z" fill="#FF2756"/>
<path d="M47.1152 97.5348C47.1152 97.5348 47.0788 97.5348 47.0605 97.5212L5.16926 77.7434C5.12828 77.7252 5.10097 77.6842 5.09641 77.6386L1.10352 30.935C1.10352 30.8894 1.12173 30.8439 1.15815 30.8166L39.0611 3.89526C39.0975 3.86795 39.1476 3.86339 39.1886 3.88616L81.0798 23.664C81.1208 23.6822 81.1481 23.7232 81.1527 23.7687L85.1456 70.4724C85.1456 70.5179 85.1274 70.5634 85.091 70.5908L47.1926 97.5166C47.1926 97.5166 47.147 97.5394 47.1197 97.5394L47.1152 97.5348ZM5.34682 77.543L47.1061 97.2571L84.8861 70.4177L80.9068 23.8643L39.1476 4.15023L1.36758 30.9896L5.34682 77.543Z" fill="#FF2756"/>
<path d="M43.0855 100.703C43.0855 100.703 43.0399 100.699 43.0217 100.685L0.433858 75.7854C0.392882 75.7626 0.370117 75.7171 0.370117 75.6716L0.40654 25.8036C0.40654 25.7581 0.429305 25.7126 0.470281 25.6898L43.0991 0.721663C43.1401 0.698899 43.1856 0.698899 43.2266 0.721663L85.8145 25.6215C85.8555 25.6443 85.8782 25.6898 85.8782 25.7353L85.8418 75.6033C85.8418 75.6488 85.819 75.6943 85.7781 75.7171L43.1492 100.685C43.1492 100.685 43.1082 100.703 43.0855 100.703ZM0.62508 75.5987L43.0855 100.426L85.5823 75.5304L85.6187 25.8127L43.1629 0.981179L0.666056 25.8765L0.629633 75.5942L0.62508 75.5987Z" fill="#FF2756"/>
</g>
<defs>
<clipPath id="clip0_5213_71135">
<rect width="85.5081" height="100" fill="white" transform="translate(0.370117 0.703613)"/>
</clipPath>
</defs>
</svg>
