<svg width="99" height="100" viewBox="0 0 99 100" fill="none" xmlns="http://www.w3.org/2000/svg">
<mask id="path-1-inside-1_5213_71100" fill="white">
<path d="M42.5945 15.5164L98.7297 70.1799L98.5331 70.2366L23.3223 91.4653L23.3703 91.2688L42.5945 15.5164ZM98.2799 70.0663L42.7211 15.9662L23.6498 91.129L98.2799 70.0663Z"/>
</mask>
<path d="M42.5945 15.5164L98.7297 70.1799L98.5331 70.2366L23.3223 91.4653L23.3703 91.2688L42.5945 15.5164ZM98.2799 70.0663L42.7211 15.9662L23.6498 91.129L98.2799 70.0663Z" fill="#6100FF"/>
<path d="M42.5945 15.5164L43.2921 14.7999L42.0512 13.5916L41.6252 15.2704L42.5945 15.5164ZM98.7297 70.1799L99.0072 71.1406L100.659 70.6632L99.4273 69.4634L98.7297 70.1799ZM98.5331 70.2366L98.8048 71.199L98.8107 71.1973L98.5331 70.2366ZM23.3223 91.4653L22.3509 91.2278L21.9437 92.8935L23.5939 92.4277L23.3223 91.4653ZM23.3703 91.2688L22.401 91.0228L22.3989 91.0313L23.3703 91.2688ZM42.7211 15.9662L43.4187 15.2497L42.1778 14.0414L41.7518 15.7202L42.7211 15.9662ZM23.6498 91.129L22.6805 90.8831L22.2546 92.5619L23.9214 92.0914L23.6498 91.129ZM41.8968 16.2328L98.032 70.8963L99.4273 69.4634L43.2921 14.7999L41.8968 16.2328ZM98.4521 69.2191L98.2556 69.2759L98.8107 71.1973L99.0072 71.1406L98.4521 69.2191ZM98.2615 69.2742L23.0506 90.5029L23.5939 92.4277L98.8048 71.199L98.2615 69.2742ZM24.2937 91.7028L24.3417 91.5062L22.3989 91.0313L22.3509 91.2278L24.2937 91.7028ZM24.3396 91.5148L43.5637 15.7623L41.6252 15.2704L22.401 91.0228L24.3396 91.5148ZM98.9775 69.3499L43.4187 15.2497L42.0235 16.6826L97.5822 70.7828L98.9775 69.3499ZM41.7518 15.7202L22.6805 90.8831L24.6191 91.375L43.6904 16.2121L41.7518 15.7202ZM23.9214 92.0914L98.5515 71.0287L98.0082 69.1039L23.3782 90.1666L23.9214 92.0914Z" fill="#753EEB" mask="url(#path-1-inside-1_5213_71100)"/>
<mask id="path-3-inside-2_5213_71100" fill="white">
<path d="M19.6465 88.8172L45.465 14.8335L96.6217 74.1829L19.6465 88.8172ZM45.5524 15.2964L20.0002 88.5115L96.1806 74.0344L45.5524 15.2964Z"/>
</mask>
<path d="M19.6465 88.8172L45.465 14.8335L96.6217 74.1829L19.6465 88.8172ZM45.5524 15.2964L20.0002 88.5115L96.1806 74.0344L45.5524 15.2964Z" fill="#6100FF"/>
<path d="M19.6465 88.8172L18.7023 88.4877L18.1316 90.1231L19.8333 89.7996L19.6465 88.8172ZM45.465 14.8335L46.2225 14.1806L45.0916 12.8686L44.5209 14.504L45.465 14.8335ZM96.6217 74.1829L96.8085 75.1653L98.5099 74.8419L97.3792 73.53L96.6217 74.1829ZM45.5524 15.2964L46.3098 14.6435L45.179 13.3315L44.6082 14.9669L45.5524 15.2964ZM20.0002 88.5115L19.0561 88.182L18.4854 89.8173L20.1869 89.4939L20.0002 88.5115ZM96.1806 74.0344L96.3673 75.0169L98.0689 74.6935L96.9381 73.3816L96.1806 74.0344ZM20.5906 89.1467L46.4092 15.163L44.5209 14.504L18.7023 88.4877L20.5906 89.1467ZM44.7076 15.4864L95.8642 74.8358L97.3792 73.53L46.2225 14.1806L44.7076 15.4864ZM96.4349 73.2005L19.4597 87.8348L19.8333 89.7996L96.8085 75.1653L96.4349 73.2005ZM44.6082 14.9669L19.0561 88.182L20.9444 88.841L46.4965 15.6259L44.6082 14.9669ZM20.1869 89.4939L96.3673 75.0169L95.9939 73.052L19.8135 87.5291L20.1869 89.4939ZM96.9381 73.3816L46.3098 14.6435L44.7949 15.9493L95.4232 74.6873L96.9381 73.3816Z" fill="#753EEB" mask="url(#path-3-inside-2_5213_71100)"/>
<mask id="path-5-inside-3_5213_71100" fill="white">
<path d="M16.2295 85.8588L16.3125 85.6754L48.3979 14.4124L94.1873 77.9936L16.2295 85.8588ZM48.4459 14.8796L16.6094 85.588L93.7637 77.8058L48.4459 14.8796Z"/>
</mask>
<path d="M16.2295 85.8588L16.3125 85.6754L48.3979 14.4124L94.1873 77.9936L16.2295 85.8588ZM48.4459 14.8796L16.6094 85.588L93.7637 77.8058L48.4459 14.8796Z" fill="#6100FF"/>
<path d="M16.3125 85.6754L17.2236 86.0875L17.2243 86.0859L16.3125 85.6754ZM48.3979 14.4124L49.2093 13.828L48.1971 12.4224L47.486 14.0018L48.3979 14.4124ZM94.1873 77.9936L94.2877 78.9885L96.011 78.8146L94.9988 77.4092L94.1873 77.9936ZM48.4459 14.8796L49.2574 14.2952L48.2452 12.8897L47.5341 14.4691L48.4459 14.8796ZM16.6094 85.588L15.6976 85.1775L14.9865 86.7568L16.7098 86.583L16.6094 85.588ZM93.7637 77.8058L93.8641 78.8007L95.5874 78.6269L94.5752 77.2214L93.7637 77.8058ZM17.1406 86.2709L17.2236 86.0875L15.4014 85.2632L15.3184 85.4466L17.1406 86.2709ZM17.2243 86.0859L49.3097 14.8229L47.486 14.0018L15.4006 85.2648L17.2243 86.0859ZM47.5864 14.9968L93.3758 78.5779L94.9988 77.4092L49.2093 13.828L47.5864 14.9968ZM94.0869 76.9986L16.1291 84.8638L16.3299 86.8537L94.2877 78.9885L94.0869 76.9986ZM47.5341 14.4691L15.6976 85.1775L17.5213 85.9986L49.3577 15.2902L47.5341 14.4691ZM16.7098 86.583L93.8641 78.8007L93.6634 76.8108L16.5091 84.5931L16.7098 86.583ZM94.5752 77.2214L49.2574 14.2952L47.6344 15.464L92.9522 78.3902L94.5752 77.2214Z" fill="#753EEB" mask="url(#path-5-inside-3_5213_71100)"/>
<mask id="path-7-inside-4_5213_71100" fill="white">
<path d="M13.084 82.6178L51.3532 14.2458L51.458 14.4205L91.4305 81.5784H91.2296L13.084 82.6178ZM51.362 14.7131L13.4814 82.3776L91.02 81.347L51.362 14.7131Z"/>
</mask>
<path d="M13.084 82.6178L51.3532 14.2458L51.458 14.4205L91.4305 81.5784H91.2296L13.084 82.6178ZM51.362 14.7131L13.4814 82.3776L91.02 81.347L51.362 14.7131Z" fill="#6100FF"/>
<path d="M51.3532 14.2458L52.2107 13.7313L51.3232 12.2521L50.4806 13.7574L51.3532 14.2458ZM51.458 14.4205L52.3174 13.9091L52.3155 13.906L51.458 14.4205ZM91.4305 81.5784V82.5784H93.1894L92.2898 81.067L91.4305 81.5784ZM91.2296 81.5784V80.5783L91.2163 80.5785L91.2296 81.5784ZM51.362 14.7131L52.2213 14.2017L51.3355 12.7133L50.4894 14.2246L51.362 14.7131ZM13.4814 82.3776L12.6088 81.8891L11.7627 83.4006L13.4947 83.3775L13.4814 82.3776ZM91.02 81.347L91.0332 82.3469L92.7651 82.3239L91.8793 80.8355L91.02 81.347ZM13.9566 83.1062L52.2258 14.7343L50.4806 13.7574L12.2114 82.1294L13.9566 83.1062ZM50.4957 14.7604L50.6006 14.935L52.3155 13.906L52.2107 13.7313L50.4957 14.7604ZM50.5987 14.932L90.5712 82.0899L92.2898 81.067L52.3174 13.9091L50.5987 14.932ZM91.4305 80.5784H91.2296V82.5784H91.4305V80.5784ZM91.2163 80.5785L13.0707 81.6179L13.0973 83.6177L91.2429 82.5783L91.2163 80.5785ZM50.4894 14.2246L12.6088 81.8891L14.354 82.8661L52.2345 15.2016L50.4894 14.2246ZM13.4947 83.3775L91.0332 82.3469L91.0067 80.3471L13.4681 81.3777L13.4947 83.3775ZM91.8793 80.8355L52.2213 14.2017L50.5026 15.2246L90.1606 81.8584L91.8793 80.8355Z" fill="#753EEB" mask="url(#path-7-inside-4_5213_71100)"/>
<mask id="path-9-inside-5_5213_71100" fill="white">
<path d="M10.2305 79.1103L54.3167 14.3325L88.3717 84.9011L10.2305 79.1103ZM54.2818 14.7998L10.6497 78.9051L87.983 84.6391L54.2818 14.7998Z"/>
</mask>
<path d="M10.2305 79.1103L54.3167 14.3325L88.3717 84.9011L10.2305 79.1103ZM54.2818 14.7998L10.6497 78.9051L87.983 84.6391L54.2818 14.7998Z" fill="#6100FF"/>
<path d="M54.3167 14.3325L55.2174 13.8979L54.4646 12.338L53.49 13.7699L54.3167 14.3325ZM88.3717 84.9011L88.2978 85.8984L90.0251 86.0264L89.2723 84.4665L88.3717 84.9011ZM54.2818 14.7998L55.1824 14.3652L54.4297 12.8053L53.4551 14.2371L54.2818 14.7998ZM10.6497 78.9051L9.82303 78.3424L8.84846 79.7742L10.5758 79.9023L10.6497 78.9051ZM87.983 84.6391L87.9091 85.6364L89.6364 85.7644L88.8837 84.2045L87.983 84.6391ZM11.0572 79.6729L55.1435 14.8952L53.49 13.7699L9.40376 78.5477L11.0572 79.6729ZM53.4161 14.7671L87.4711 85.3358L89.2723 84.4665L55.2174 13.8979L53.4161 14.7671ZM88.4456 83.9039L10.3044 78.113L10.1566 80.1076L88.2978 85.8984L88.4456 83.9039ZM53.4551 14.2371L9.82303 78.3424L11.4764 79.4677L55.1085 15.3625L53.4551 14.2371ZM10.5758 79.9023L87.9091 85.6364L88.057 83.6418L10.7237 77.9078L10.5758 79.9023ZM88.8837 84.2045L55.1824 14.3652L53.3812 15.2344L87.0824 85.0737L88.8837 84.2045Z" fill="#753EEB" mask="url(#path-9-inside-5_5213_71100)"/>
<mask id="path-11-inside-6_5213_71100" fill="white">
<path d="M7.69727 75.3681L7.82391 75.2109L57.2599 14.6824L85.0349 87.9499L7.69727 75.3681ZM57.1857 15.1409L8.13398 75.2022L84.6725 87.6529L57.1857 15.1409Z"/>
</mask>
<path d="M7.69727 75.3681L7.82391 75.2109L57.2599 14.6824L85.0349 87.9499L7.69727 75.3681ZM57.1857 15.1409L8.13398 75.2022L84.6725 87.6529L57.1857 15.1409Z" fill="#6100FF"/>
<path d="M7.69727 75.3681L6.91851 74.7408L5.84037 76.0792L7.53669 76.3552L7.69727 75.3681ZM7.82391 75.2109L7.04939 74.5784L7.04516 74.5836L7.82391 75.2109ZM57.2599 14.6824L58.195 14.3279L57.5811 12.7084L56.4854 14.0498L57.2599 14.6824ZM85.0349 87.9499L84.8744 88.9369L86.584 89.215L85.97 87.5954L85.0349 87.9499ZM57.1857 15.1409L58.1208 14.7865L57.5068 13.1668L56.4112 14.5084L57.1857 15.1409ZM8.13398 75.2022L7.35946 74.5696L6.26388 75.9111L7.97342 76.1892L8.13398 75.2022ZM84.6725 87.6529L84.5119 88.6399L86.2215 88.918L85.6075 87.2985L84.6725 87.6529ZM8.47602 75.9955L8.60267 75.8383L7.04516 74.5836L6.91851 74.7408L8.47602 75.9955ZM8.59842 75.8435L58.0344 15.3149L56.4854 14.0498L7.04941 74.5784L8.59842 75.8435ZM56.3249 15.0368L84.0999 88.3044L85.97 87.5954L58.195 14.3279L56.3249 15.0368ZM85.1955 86.9629L7.85784 74.3811L7.53669 76.3552L84.8744 88.9369L85.1955 86.9629ZM56.4112 14.5084L7.35946 74.5696L8.9085 75.8347L57.9602 15.7735L56.4112 14.5084ZM7.97342 76.1892L84.5119 88.6399L84.833 86.6659L8.29454 74.2152L7.97342 76.1892ZM85.6075 87.2985L58.1208 14.7865L56.2506 15.4954L83.7374 88.0074L85.6075 87.2985Z" fill="#753EEB" mask="url(#path-11-inside-6_5213_71100)"/>
<mask id="path-13-inside-7_5213_71100" fill="white">
<path d="M5.48242 71.4189L60.1503 15.2837L81.4314 90.6911L81.2348 90.6431L5.48242 71.4189ZM60.0324 15.7335L5.93224 71.2923L81.0951 90.3679L60.0324 15.7335Z"/>
</mask>
<path d="M5.48242 71.4189L60.1503 15.2837L81.4314 90.6911L81.2348 90.6431L5.48242 71.4189ZM60.0324 15.7335L5.93224 71.2923L81.0951 90.3679L60.0324 15.7335Z" fill="#6100FF"/>
<path d="M5.48242 71.4189L4.76601 70.7212L3.55756 71.9621L5.23644 72.3882L5.48242 71.4189ZM60.1503 15.2837L61.1127 15.0121L60.6423 13.3452L59.4339 14.586L60.1503 15.2837ZM81.4314 90.6911L81.1939 91.6625L82.8595 92.0696L82.3938 90.4195L81.4314 90.6911ZM81.2348 90.6431L80.9888 91.6124L80.9974 91.6145L81.2348 90.6431ZM60.0324 15.7335L60.9948 15.4619L60.5243 13.7949L59.3159 15.0359L60.0324 15.7335ZM5.93224 71.2923L5.21579 70.5946L4.0075 71.8355L5.68624 72.2615L5.93224 71.2923ZM81.0951 90.3679L80.8491 91.3372L82.5279 91.7633L82.0575 90.0963L81.0951 90.3679ZM6.19883 72.1166L60.8667 15.9814L59.4339 14.586L4.76601 70.7212L6.19883 72.1166ZM59.1879 15.5553L80.4689 90.9627L82.3938 90.4195L61.1127 15.0121L59.1879 15.5553ZM81.6688 89.7197L81.4723 89.6717L80.9974 91.6145L81.1939 91.6625L81.6688 89.7197ZM81.4808 89.6738L5.7284 70.4496L5.23644 72.3882L80.9889 91.6123L81.4808 89.6738ZM59.3159 15.0359L5.21579 70.5946L6.64869 71.9899L60.7488 16.4311L59.3159 15.0359ZM5.68624 72.2615L80.8491 91.3372L81.3411 89.3987L6.17823 70.323L5.68624 72.2615ZM82.0575 90.0963L60.9948 15.4619L59.07 16.0051L80.1327 90.6395L82.0575 90.0963Z" fill="#753EEB" mask="url(#path-13-inside-7_5213_71100)"/>
<mask id="path-15-inside-8_5213_71100" fill="white">
<path d="M3.6416 67.2929L62.991 16.1362L77.621 93.1114L3.6416 67.2929ZM62.8338 16.5773L4.10015 67.2056L77.3153 92.7577L62.8338 16.5773Z"/>
</mask>
<path d="M3.6416 67.2929L62.991 16.1362L77.621 93.1114L3.6416 67.2929ZM62.8338 16.5773L4.10015 67.2056L77.3153 92.7577L62.8338 16.5773Z" fill="#6100FF"/>
<path d="M3.6416 67.2929L2.98871 66.5355L1.67673 67.6663L3.3121 68.2371L3.6416 67.2929ZM62.991 16.1362L63.9734 15.9495L63.6501 14.248L62.3381 15.3788L62.991 16.1362ZM77.621 93.1114L77.2915 94.0556L78.9268 94.6263L78.6034 92.9247L77.621 93.1114ZM62.8338 16.5773L63.8162 16.3906L63.4928 14.689L62.1809 15.8199L62.8338 16.5773ZM4.10015 67.2056L3.44724 66.4481L2.13533 67.579L3.77064 68.1497L4.10015 67.2056ZM77.3153 92.7577L76.9857 93.7019L78.6211 94.2726L78.2977 92.5709L77.3153 92.7577ZM4.29449 68.0504L63.6439 16.8937L62.3381 15.3788L2.98871 66.5355L4.29449 68.0504ZM62.0086 16.3229L76.6385 93.2982L78.6034 92.9247L63.9734 15.9495L62.0086 16.3229ZM77.9505 92.1673L3.97111 66.3488L3.3121 68.2371L77.2915 94.0556L77.9505 92.1673ZM62.1809 15.8199L3.44724 66.4481L4.75306 67.963L63.4867 17.3347L62.1809 15.8199ZM3.77064 68.1497L76.9857 93.7019L77.6448 91.8135L4.42966 66.2614L3.77064 68.1497ZM78.2977 92.5709L63.8162 16.3906L61.8514 16.7641L76.3328 92.9445L78.2977 92.5709Z" fill="#753EEB" mask="url(#path-15-inside-8_5213_71100)"/>
<mask id="path-17-inside-9_5213_71100" fill="white">
<path d="M2.15332 63.0211L65.7345 17.2317L73.5997 95.1895L73.4163 95.1065L2.15332 63.0211ZM65.5424 17.6553L2.61624 62.9731L73.3246 94.8096L65.5424 17.6553Z"/>
</mask>
<path d="M2.15332 63.0211L65.7345 17.2317L73.5997 95.1895L73.4163 95.1065L2.15332 63.0211ZM65.5424 17.6553L2.61624 62.9731L73.3246 94.8096L65.5424 17.6553Z" fill="#6100FF"/>
<path d="M2.15332 63.0211L1.56892 62.2097L0.163407 63.2219L1.74277 63.933L2.15332 63.0211ZM65.7345 17.2317L66.7295 17.1313L66.5556 15.408L65.1501 16.4202L65.7345 17.2317ZM73.5997 95.1895L73.1875 96.1006L74.7689 96.816L74.5947 95.0891L73.5997 95.1895ZM73.4163 95.1065L73.8285 94.1954L73.8269 94.1947L73.4163 95.1065ZM2.61624 62.9731L2.03184 62.1616L0.626341 63.1738L2.20568 63.8849L2.61624 62.9731ZM73.3246 94.8096L72.914 95.7214L74.4934 96.4325L74.3195 94.7092L73.3246 94.8096ZM2.73772 63.8326L66.3189 18.0432L65.1501 16.4202L1.56892 62.2097L2.73772 63.8326ZM64.7396 17.3321L72.6048 95.2899L74.5947 95.0891L66.7295 17.1313L64.7396 17.3321ZM74.0119 94.2784L73.8285 94.1954L73.0041 96.0176L73.1875 96.1006L74.0119 94.2784ZM73.8269 94.1947L2.56387 62.1093L1.74277 63.933L73.0058 96.0184L73.8269 94.1947ZM64.958 16.8438L2.03184 62.1616L3.20064 63.7846L66.1268 18.4668L64.958 16.8438ZM2.20568 63.8849L72.914 95.7214L73.7351 93.8977L3.02679 62.0613L2.20568 63.8849ZM74.3195 94.7092L66.5373 17.5549L64.5474 17.7557L72.3296 94.9099L74.3195 94.7092Z" fill="#753EEB" mask="url(#path-17-inside-9_5213_71100)"/>
<mask id="path-19-inside-10_5213_71100" fill="white">
<path d="M1.0459 58.6361L1.22058 58.5313L68.3741 18.5632L69.4135 96.9097L1.0459 58.6361ZM68.147 18.9694L1.51318 58.6317L69.1777 96.5079L68.147 18.9694Z"/>
</mask>
<path d="M1.0459 58.6361L1.22058 58.5313L68.3741 18.5632L69.4135 96.9097L1.0459 58.6361ZM68.147 18.9694L1.51318 58.6317L69.1777 96.5079L68.147 18.9694Z" fill="#6100FF"/>
<path d="M1.0459 58.6361L0.531394 57.7786L-0.94769 58.6661L0.557414 59.5087L1.0459 58.6361ZM1.22058 58.5313L0.709137 57.672L0.706079 57.6738L1.22058 58.5313ZM68.3741 18.5632L69.374 18.55L69.351 16.8181L67.8627 17.7039L68.3741 18.5632ZM69.4135 96.9097L68.925 97.7823L70.4364 98.6284L70.4134 96.8965L69.4135 96.9097ZM1.51318 58.6317L1.0017 57.7724L-0.486614 58.6583L1.02474 59.5043L1.51318 58.6317ZM69.1777 96.5079L68.6892 97.3805L70.2006 98.2266L70.1776 96.4947L69.1777 96.5079ZM1.5604 59.4936L1.73509 59.3888L0.706079 57.6738L0.531394 57.7786L1.5604 59.4936ZM1.73203 59.3906L68.8855 19.4225L67.8627 17.7039L0.70914 57.672L1.73203 59.3906ZM67.3742 18.5765L68.4136 96.923L70.4134 96.8965L69.374 18.55L67.3742 18.5765ZM69.902 96.0372L1.53438 57.7635L0.557414 59.5087L68.925 97.7823L69.902 96.0372ZM67.6355 18.1101L1.0017 57.7724L2.02466 59.491L68.6585 19.8287L67.6355 18.1101ZM1.02474 59.5043L68.6892 97.3805L69.6661 95.6354L2.00163 57.7591L1.02474 59.5043ZM70.1776 96.4947L69.1469 18.9561L67.1471 18.9827L68.1777 96.5212L70.1776 96.4947Z" fill="#753EEB" mask="url(#path-19-inside-10_5213_71100)"/>
<mask id="path-21-inside-11_5213_71100" fill="white">
<path d="M0.326172 54.1756L70.8948 20.1206L65.104 98.2618L0.326172 54.1756ZM70.6328 20.5093L0.793456 54.2105L64.8987 97.8426L70.6328 20.5093Z"/>
</mask>
<path d="M0.326172 54.1756L70.8948 20.1206L65.104 98.2618L0.326172 54.1756ZM70.6328 20.5093L0.793456 54.2105L64.8987 97.8426L70.6328 20.5093Z" fill="#6100FF"/>
<path d="M0.326172 54.1756L-0.108446 53.2749L-1.66838 54.0277L-0.236464 55.0023L0.326172 54.1756ZM70.8948 20.1206L71.8921 20.1945L72.0201 18.4672L70.4602 19.22L70.8948 20.1206ZM65.104 98.2618L64.5413 99.0885L65.9732 100.063L66.1012 98.3357L65.104 98.2618ZM0.793456 54.2105L0.358857 53.3099L-1.20106 54.0626L0.230789 55.0372L0.793456 54.2105ZM64.8987 97.8426L64.336 98.6693L65.7679 99.6438L65.896 97.9165L64.8987 97.8426ZM0.76079 55.0762L71.3294 21.0212L70.4602 19.22L-0.108446 53.2749L0.76079 55.0762ZM69.8975 20.0467L64.1067 98.1879L66.1012 98.3357L71.8921 20.1945L69.8975 20.0467ZM65.6666 97.4351L0.888808 53.3489L-0.236464 55.0023L64.5413 99.0885L65.6666 97.4351ZM70.1982 19.6087L0.358857 53.3099L1.22806 55.1111L71.0674 21.4099L70.1982 19.6087ZM0.230789 55.0372L64.336 98.6693L65.4614 97.0159L1.35612 53.3838L0.230789 55.0372ZM65.896 97.9165L71.63 20.5832L69.6355 20.4353L63.9014 97.7686L65.896 97.9165Z" fill="#753EEB" mask="url(#path-21-inside-11_5213_71100)"/>
<mask id="path-23-inside-12_5213_71100" fill="white">
<path d="M0 49.6686L73.2675 21.8936L60.6858 99.2312L0 49.6686ZM72.9706 22.256L0.462917 49.7428L60.5242 98.7945L72.9749 22.256H72.9706Z"/>
</mask>
<path d="M0 49.6686L73.2675 21.8936L60.6858 99.2312L0 49.6686ZM72.9706 22.256L0.462917 49.7428L60.5242 98.7945L72.9749 22.256H72.9706Z" fill="#6100FF"/>
<path d="M0 49.6686L-0.354474 48.7335L-1.97405 49.3475L-0.632555 50.4431L0 49.6686ZM73.2675 21.8936L74.2545 22.0541L74.5327 20.3445L72.913 20.9585L73.2675 21.8936ZM60.6858 99.2312L60.0532 100.006L61.3947 101.101L61.6728 99.3918L60.6858 99.2312ZM72.9706 22.256V21.256H72.7874L72.6161 21.321L72.9706 22.256ZM0.462917 49.7428L0.108444 48.8077L-1.51116 49.4217L-0.169631 50.5173L0.462917 49.7428ZM60.5242 98.7945L59.8917 99.569L61.2331 100.665L61.5112 98.9551L60.5242 98.7945ZM72.9749 22.256L73.9619 22.4166L74.1507 21.256H72.9749V22.256ZM0.354474 50.6036L73.622 22.8286L72.913 20.9585L-0.354474 48.7335L0.354474 50.6036ZM72.2805 21.733L59.6988 99.0707L61.6728 99.3918L74.2545 22.0541L72.2805 21.733ZM61.3183 98.4567L0.632555 48.8941L-0.632555 50.4431L60.0532 100.006L61.3183 98.4567ZM72.6161 21.321L0.108444 48.8077L0.817389 50.6779L73.325 23.1911L72.6161 21.321ZM-0.169631 50.5173L59.8917 99.569L61.1567 98.02L1.09546 48.9683L-0.169631 50.5173ZM61.5112 98.9551L73.9619 22.4166L71.9879 22.0955L59.5372 98.634L61.5112 98.9551ZM72.9749 21.256H72.9706V23.256H72.9749V21.256Z" fill="#753EEB" mask="url(#path-23-inside-12_5213_71100)"/>
<mask id="path-25-inside-13_5213_71100" fill="white">
<path d="M0.0615234 45.1431L0.258045 45.0864L75.4733 23.8621L56.2011 99.811L56.057 99.6712L0.0615234 45.1431ZM75.1458 24.1983L0.515706 45.261L56.0745 99.3612L75.1458 24.1983Z"/>
</mask>
<path d="M0.0615234 45.1431L0.258045 45.0864L75.4733 23.8621L56.2011 99.811L56.057 99.6712L0.0615234 45.1431ZM75.1458 24.1983L0.515706 45.261L56.0745 99.3612L75.1458 24.1983Z" fill="#6100FF"/>
<path d="M0.0615234 45.1431L-0.216026 44.1824L-1.86824 44.6597L-0.636134 45.8596L0.0615234 45.1431ZM0.258045 45.0864L-0.0135361 44.1239L-0.0195045 44.1257L0.258045 45.0864ZM75.4733 23.8621L76.4426 24.108L76.8686 22.4293L75.2017 22.8996L75.4733 23.8621ZM56.2011 99.811L55.505 100.529L56.7454 101.732L57.1704 100.057L56.2011 99.811ZM56.057 99.6712L55.3593 100.388L55.3608 100.389L56.057 99.6712ZM75.1458 24.1983L76.1151 24.4443L76.541 22.7655L74.8742 23.2359L75.1458 24.1983ZM0.515706 45.261L0.244088 44.2986L-1.4229 44.7691L-0.181933 45.9775L0.515706 45.261ZM56.0745 99.3612L55.3768 100.078L56.6178 101.286L57.0438 99.6071L56.0745 99.3612ZM0.339073 46.1038L0.535594 46.0471L-0.0195045 44.1257L-0.216026 44.1824L0.339073 46.1038ZM0.52962 46.0488L75.7449 24.8245L75.2017 22.8996L-0.0135309 44.1239L0.52962 46.0488ZM74.504 23.6161L55.2318 99.565L57.1704 100.057L76.4426 24.108L74.504 23.6161ZM56.8973 99.0931L56.7531 98.9534L55.3608 100.389L55.505 100.529L56.8973 99.0931ZM56.7547 98.9548L0.759181 44.4267L-0.636134 45.8596L55.3593 100.388L56.7547 98.9548ZM74.8742 23.2359L0.244088 44.2986L0.787324 46.2235L75.4174 25.1607L74.8742 23.2359ZM-0.181933 45.9775L55.3768 100.078L56.7721 98.6447L1.21335 44.5446L-0.181933 45.9775ZM57.0438 99.6071L76.1151 24.4443L74.1765 23.9524L55.1052 99.1152L57.0438 99.6071Z" fill="#753EEB" mask="url(#path-25-inside-13_5213_71100)"/>
<mask id="path-27-inside-14_5213_71100" fill="white">
<path d="M0.530273 40.6463L77.5055 26.0208L51.687 100L0.530273 40.6463ZM77.1517 26.3221L0.971355 40.8035L51.5996 99.5372L77.1517 26.3221Z"/>
</mask>
<path d="M0.530273 40.6463L77.5055 26.0208L51.687 100L0.530273 40.6463ZM77.1517 26.3221L0.971355 40.8035L51.5996 99.5372L77.1517 26.3221Z" fill="#6100FF"/>
<path d="M0.530273 40.6463L0.34361 39.6639L-1.35799 39.9872L-0.227202 41.2992L0.530273 40.6463ZM77.5055 26.0208L78.4496 26.3503L79.0203 24.715L77.3188 25.0383L77.5055 26.0208ZM51.687 100L50.9295 100.653L52.0603 101.965L52.6311 100.33L51.687 100ZM77.1517 26.3221L78.0959 26.6516L78.6666 25.0162L76.965 25.3397L77.1517 26.3221ZM0.971355 40.8035L0.784605 39.8211L-0.916909 40.1446L0.213918 41.4564L0.971355 40.8035ZM51.5996 99.5372L50.8422 100.19L51.973 101.502L52.5438 99.8667L51.5996 99.5372ZM0.716937 41.6287L77.6921 27.0032L77.3188 25.0383L0.34361 39.6639L0.716937 41.6287ZM76.5613 25.6912L50.7428 99.6706L52.6311 100.33L78.4496 26.3503L76.5613 25.6912ZM52.4444 99.3473L1.28775 39.9934L-0.227202 41.2992L50.9295 100.653L52.4444 99.3473ZM76.965 25.3397L0.784605 39.8211L1.1581 41.7859L77.3385 27.3045L76.965 25.3397ZM0.213918 41.4564L50.8422 100.19L52.357 98.8843L1.72879 40.1506L0.213918 41.4564ZM52.5438 99.8667L78.0959 26.6516L76.2076 25.9926L50.6555 99.2077L52.5438 99.8667Z" fill="#753EEB" mask="url(#path-27-inside-14_5213_71100)"/>
<mask id="path-29-inside-15_5213_71100" fill="white">
<path d="M1.38574 36.2075L79.3436 28.3423L47.1752 99.7887L1.38574 36.2075ZM78.968 28.6174L1.80935 36.3997L47.1272 99.3258L78.9636 28.613L78.968 28.6174Z"/>
</mask>
<path d="M1.38574 36.2075L79.3436 28.3423L47.1752 99.7887L1.38574 36.2075ZM78.968 28.6174L1.80935 36.3997L47.1272 99.3258L78.9636 28.613L78.968 28.6174Z" fill="#6100FF"/>
<path d="M1.38574 36.2075L1.28536 35.2126L-0.437917 35.3864L0.574274 36.7919L1.38574 36.2075ZM79.3436 28.3423L80.2554 28.7528L80.9665 27.1735L79.2432 27.3473L79.3436 28.3423ZM47.1752 99.7887L46.3637 100.373L47.3759 101.779L48.087 100.199L47.1752 99.7887ZM78.968 28.6174L79.0683 29.6124L81.1646 29.4009L79.6754 27.9106L78.968 28.6174ZM1.80935 36.3997L1.709 35.4047L-0.0143416 35.5785L0.997888 36.9841L1.80935 36.3997ZM47.1272 99.3258L46.3157 99.9102L47.3279 101.316L48.039 99.7363L47.1272 99.3258ZM78.9636 28.613L79.671 27.9062L78.6467 26.8811L78.0518 28.2025L78.9636 28.613ZM1.48612 37.2025L79.4439 29.3372L79.2432 27.3473L1.28536 35.2126L1.48612 37.2025ZM78.4317 27.9317L46.2634 99.3782L48.087 100.199L80.2554 28.7528L78.4317 27.9317ZM47.9867 99.2043L2.19721 35.6231L0.574274 36.7919L46.3637 100.373L47.9867 99.2043ZM78.8676 27.6225L1.709 35.4047L1.90971 37.3946L79.0683 29.6124L78.8676 27.6225ZM0.997888 36.9841L46.3157 99.9102L47.9386 98.7414L2.62082 35.8153L0.997888 36.9841ZM48.039 99.7363L79.8755 29.0236L78.0518 28.2025L46.2153 98.9153L48.039 99.7363ZM78.2562 29.3199L78.2606 29.3243L79.6754 27.9106L79.671 27.9062L78.2562 29.3199Z" fill="#753EEB" mask="url(#path-29-inside-15_5213_71100)"/>
<mask id="path-31-inside-16_5213_71100" fill="white">
<path d="M2.6084 31.858H2.80929L80.9549 30.8186L42.6856 99.1862L2.6084 31.858ZM80.5575 31.0544L3.01891 32.0851L42.6769 98.7233L80.5575 31.0544Z"/>
</mask>
<path d="M2.6084 31.858H2.80929L80.9549 30.8186L42.6856 99.1862L2.6084 31.858ZM80.5575 31.0544L3.01891 32.0851L42.6769 98.7233L80.5575 31.0544Z" fill="#6100FF"/>
<path d="M2.6084 31.858V30.858H0.849392L1.74911 32.3695L2.6084 31.858ZM2.80929 31.858V32.8581L2.82259 32.8579L2.80929 31.858ZM80.9549 30.8186L81.8275 31.307L82.6735 29.7957L80.9416 29.8187L80.9549 30.8186ZM42.6856 99.1862L41.8264 99.6977L42.7123 101.186L43.5582 99.6747L42.6856 99.1862ZM80.5575 31.0544L81.4301 31.5429L82.2761 30.0315L80.5442 30.0545L80.5575 31.0544ZM3.01891 32.0851L3.00562 31.0852L1.27385 31.1082L2.15957 32.5965L3.01891 32.0851ZM42.6769 98.7233L41.8176 99.2347L42.7034 100.723L43.5495 99.2118L42.6769 98.7233ZM2.6084 32.858H2.80929V30.858H2.6084V32.858ZM2.82259 32.8579L80.9682 31.8185L80.9416 29.8187L2.79599 30.8581L2.82259 32.8579ZM80.0823 30.3302L41.813 98.6978L43.5582 99.6747L81.8275 31.307L80.0823 30.3302ZM43.5449 98.6747L3.46769 31.3465L1.74911 32.3695L41.8264 99.6977L43.5449 98.6747ZM80.5442 30.0545L3.00562 31.0852L3.0322 33.085L80.5708 32.0543L80.5442 30.0545ZM2.15957 32.5965L41.8176 99.2347L43.5362 98.2119L3.87825 31.5737L2.15957 32.5965ZM43.5495 99.2118L81.4301 31.5429L79.6849 30.566L41.8043 98.2348L43.5495 99.2118Z" fill="#753EEB" mask="url(#path-31-inside-16_5213_71100)"/>
<mask id="path-33-inside-17_5213_71100" fill="white">
<path d="M4.21875 27.6289L82.36 33.4197L38.2737 98.1975L4.21875 27.6289ZM81.9407 33.625L4.60306 27.8909L38.3043 97.7302L81.9364 33.625H81.9407Z"/>
</mask>
<path d="M4.21875 27.6289L82.36 33.4197L38.2737 98.1975L4.21875 27.6289ZM81.9407 33.625L4.60306 27.8909L38.3043 97.7302L81.9364 33.625H81.9407Z" fill="#6100FF"/>
<path d="M4.21875 27.6289L4.29265 26.6316L2.56537 26.5036L3.31814 28.0635L4.21875 27.6289ZM82.36 33.4197L83.1867 33.9824L84.1612 32.5505L82.4339 32.4225L82.36 33.4197ZM38.2737 98.1975L37.3731 98.6321L38.1259 100.192L39.1004 98.7602L38.2737 98.1975ZM81.9407 33.625V34.625L82.0147 32.6277L81.9407 33.625ZM4.60306 27.8909L4.677 26.8937L2.94968 26.7656L3.70243 28.3255L4.60306 27.8909ZM38.3043 97.7302L37.4036 98.1648L38.1564 99.7248L39.131 98.2929L38.3043 97.7302ZM81.9364 33.625V32.625H81.4073L81.1097 33.0623L81.9364 33.625ZM4.14485 28.6262L82.2861 34.417L82.4339 32.4225L4.29265 26.6316L4.14485 28.6262ZM81.5333 32.8571L37.447 97.6349L39.1004 98.7602L83.1867 33.9824L81.5333 32.8571ZM39.1743 97.7629L5.11936 27.1943L3.31814 28.0635L37.3731 98.6321L39.1743 97.7629ZM82.0147 32.6277L4.677 26.8937L4.52912 28.8882L81.8668 34.6223L82.0147 32.6277ZM3.70243 28.3255L37.4036 98.1648L39.2049 97.2956L5.50368 27.4563L3.70243 28.3255ZM39.131 98.2929L82.763 34.1877L81.1097 33.0623L37.4776 97.1676L39.131 98.2929ZM81.9364 34.625H81.9407V32.625H81.9364V34.625Z" fill="#753EEB" mask="url(#path-33-inside-17_5213_71100)"/>
<mask id="path-35-inside-18_5213_71100" fill="white">
<path d="M6.20215 23.5613L83.5398 36.143L33.9772 96.8288L6.20215 23.5613ZM83.1031 36.309L6.56462 23.8582L34.0514 96.3702L83.1031 36.309Z"/>
</mask>
<path d="M6.20215 23.5613L83.5398 36.143L33.9772 96.8288L6.20215 23.5613ZM83.1031 36.309L6.56462 23.8582L34.0514 96.3702L83.1031 36.309Z" fill="#6100FF"/>
<path d="M6.20215 23.5613L6.36272 22.5743L4.6531 22.2961L5.26708 23.9158L6.20215 23.5613ZM83.5398 36.143L84.3143 36.7756L85.4099 35.4341L83.7004 35.156L83.5398 36.143ZM33.9772 96.8288L33.0421 97.1833L33.6561 98.8028L34.7517 97.4613L33.9772 96.8288ZM83.1031 36.309L83.8776 36.9415L84.9732 35.6L83.2637 35.3219L83.1031 36.309ZM6.56462 23.8582L6.72518 22.8712L5.01562 22.5931L5.62955 24.2127L6.56462 23.8582ZM34.0514 96.3702L33.1163 96.7247L33.7303 98.3443L34.8259 97.0028L34.0514 96.3702ZM6.04157 24.5483L83.3793 37.13L83.7004 35.156L6.36272 22.5743L6.04157 24.5483ZM82.7653 35.5105L33.2026 96.1962L34.7517 97.4613L84.3143 36.7756L82.7653 35.5105ZM34.9122 96.4743L7.13721 23.2068L5.26708 23.9158L33.0421 97.1833L34.9122 96.4743ZM83.2637 35.3219L6.72518 22.8712L6.40406 24.8453L82.9426 37.296L83.2637 35.3219ZM5.62955 24.2127L33.1163 96.7247L34.9865 96.0158L7.49969 23.5038L5.62955 24.2127ZM34.8259 97.0028L83.8776 36.9415L82.3286 35.6764L33.2769 95.7377L34.8259 97.0028Z" fill="#753EEB" mask="url(#path-35-inside-18_5213_71100)"/>
<mask id="path-37-inside-19_5213_71100" fill="white">
<path d="M8.51855 19.6824L8.71508 19.7304L84.4675 38.9546L29.7996 95.0898L8.51855 19.6824ZM84.0177 39.0812L8.85046 20.0055L29.9132 94.6356L84.0133 39.0768L84.0177 39.0812Z"/>
</mask>
<path d="M8.51855 19.6824L8.71508 19.7304L84.4675 38.9546L29.7996 95.0898L8.51855 19.6824ZM84.0177 39.0812L8.85046 20.0055L29.9132 94.6356L84.0133 39.0768L84.0177 39.0812Z" fill="#6100FF"/>
<path d="M8.51855 19.6824L8.75601 18.711L7.09045 18.3038L7.55615 19.954L8.51855 19.6824ZM8.71508 19.7304L8.96106 18.7611L8.95253 18.759L8.71508 19.7304ZM84.4675 38.9546L85.1839 39.6522L86.3923 38.4113L84.7135 37.9853L84.4675 38.9546ZM29.7996 95.0898L28.8372 95.3614L29.3076 97.0283L30.516 95.7875L29.7996 95.0898ZM84.0177 39.0812L83.7717 40.0505L87.2954 40.9447L84.7248 38.3741L84.0177 39.0812ZM8.85046 20.0055L9.09644 19.0363L7.41759 18.6102L7.88805 20.2772L8.85046 20.0055ZM29.9132 94.6356L28.9508 94.9072L29.4212 96.5742L30.6296 95.3332L29.9132 94.6356ZM84.0133 39.0768L84.7204 38.3697L84.0038 37.6532L83.2968 38.3792L84.0133 39.0768ZM8.2811 20.6538L8.47762 20.7018L8.95253 18.759L8.75601 18.711L8.2811 20.6538ZM8.4691 20.6997L84.2215 39.9238L84.7135 37.9853L8.96106 18.7611L8.4691 20.6997ZM83.7511 38.2569L29.0832 94.3921L30.516 95.7875L85.1839 39.6522L83.7511 38.2569ZM30.762 94.8182L9.48096 19.4108L7.55615 19.954L28.8372 95.3614L30.762 94.8182ZM84.2636 38.1119L9.09644 19.0363L8.60448 20.9748L83.7717 40.0505L84.2636 38.1119ZM7.88805 20.2772L28.9508 94.9072L30.8756 94.364L9.81286 19.7339L7.88805 20.2772ZM30.6296 95.3332L84.7297 39.7745L83.2968 38.3792L29.1967 93.938L30.6296 95.3332ZM83.3062 39.784L83.3106 39.7883L84.7248 38.3741L84.7204 38.3697L83.3062 39.784Z" fill="#753EEB" mask="url(#path-37-inside-19_5213_71100)"/>
<mask id="path-39-inside-20_5213_71100" fill="white">
<path d="M11.1621 16.0122L85.1415 41.8307L25.792 92.9918L11.1621 16.0122ZM84.6829 41.9181L11.4678 16.3659L25.9449 92.5507L84.6829 41.9181Z"/>
</mask>
<path d="M11.1621 16.0122L85.1415 41.8307L25.792 92.9918L11.1621 16.0122ZM84.6829 41.9181L11.4678 16.3659L25.9449 92.5507L84.6829 41.9181Z" fill="#6100FF"/>
<path d="M11.1621 16.0122L11.4916 15.0681L9.85631 14.4973L10.1797 16.1989L11.1621 16.0122ZM85.1415 41.8307L85.7944 42.5882L87.1063 41.4573L85.471 40.8866L85.1415 41.8307ZM25.792 92.9918L24.8096 93.1785L25.133 94.8801L26.445 93.7492L25.792 92.9918ZM11.4678 16.3659L11.7973 15.4218L10.1621 14.8511L10.4854 16.5526L11.4678 16.3659ZM25.9449 92.5507L24.9625 92.7374L25.2858 94.4391L26.5978 93.3081L25.9449 92.5507ZM10.8326 16.9564L84.812 42.7749L85.471 40.8866L11.4916 15.0681L10.8326 16.9564ZM84.4885 41.0733L25.1391 92.2344L26.445 93.7492L85.7944 42.5882L84.4885 41.0733ZM26.7744 92.8051L12.1445 15.8255L10.1797 16.1989L24.8096 93.1785L26.7744 92.8051ZM85.0124 40.9739L11.7973 15.4218L11.1383 17.3101L84.3534 42.8622L85.0124 40.9739ZM10.4854 16.5526L24.9625 92.7374L26.9273 92.364L12.4502 16.1793L10.4854 16.5526ZM26.5978 93.3081L85.3358 42.6755L84.03 41.1607L25.292 91.7933L26.5978 93.3081Z" fill="#753EEB" mask="url(#path-39-inside-20_5213_71100)"/>
<mask id="path-41-inside-21_5213_71100" fill="white">
<path d="M14.1104 12.5935L14.2938 12.6765L85.5568 44.7619L21.9756 90.5557L14.1104 12.5935ZM85.0939 44.8099L14.3855 12.9734L22.1677 90.1277L85.0939 44.8099Z"/>
</mask>
<path d="M14.1104 12.5935L14.2938 12.6765L85.5568 44.7619L21.9756 90.5557L14.1104 12.5935ZM85.0939 44.8099L14.3855 12.9734L22.1677 90.1277L85.0939 44.8099Z" fill="#6100FF"/>
<path d="M14.1104 12.5935L14.5225 11.6824L12.9412 10.967L13.1154 12.6939L14.1104 12.5935ZM14.2938 12.6765L13.8816 13.5876L13.8832 13.5883L14.2938 12.6765ZM85.5568 44.7619L86.1412 45.5733L87.5466 44.5611L85.9673 43.85L85.5568 44.7619ZM21.9756 90.5557L20.9806 90.6561L21.1545 92.3794L22.56 91.3671L21.9756 90.5557ZM85.0939 44.8099L85.6783 45.6214L87.0838 44.6092L85.5044 43.8981L85.0939 44.8099ZM14.3855 12.9734L14.796 12.0616L13.2167 11.3505L13.3905 13.0738L14.3855 12.9734ZM22.1677 90.1277L21.1728 90.2281L21.3466 91.9514L22.7521 90.9392L22.1677 90.1277ZM13.6982 13.5046L13.8816 13.5876L14.7059 11.7654L14.5225 11.6824L13.6982 13.5046ZM13.8832 13.5883L85.1462 45.6737L85.9673 43.85L14.7043 11.7646L13.8832 13.5883ZM84.9723 43.9504L21.3911 89.7443L22.56 91.3671L86.1412 45.5733L84.9723 43.9504ZM22.9705 90.4553L15.1053 12.4931L13.1154 12.6939L20.9806 90.6561L22.9705 90.4553ZM85.5044 43.8981L14.796 12.0616L13.9749 13.8853L84.6833 45.7217L85.5044 43.8981ZM13.3905 13.0738L21.1728 90.2281L23.1627 90.0274L15.3804 12.8731L13.3905 13.0738ZM22.7521 90.9392L85.6783 45.6214L84.5095 43.9984L21.5833 89.3163L22.7521 90.9392Z" fill="#753EEB" mask="url(#path-41-inside-21_5213_71100)"/>
<mask id="path-43-inside-22_5213_71100" fill="white">
<path d="M17.3643 9.44629L85.7362 47.7199L85.5615 47.8247L18.4036 87.7928V87.5919L17.3643 9.44629ZM85.2689 47.7243L17.6045 9.84807L18.6351 87.3867L85.2689 47.7243Z"/>
</mask>
<path d="M17.3643 9.44629L85.7362 47.7199L85.5615 47.8247L18.4036 87.7928V87.5919L17.3643 9.44629ZM85.2689 47.7243L17.6045 9.84807L18.6351 87.3867L85.2689 47.7243Z" fill="#6100FF"/>
<path d="M85.7362 47.7199L86.2507 48.5774L87.7298 47.6899L86.2247 46.8473L85.7362 47.7199ZM85.5615 47.8247L86.073 48.6841L86.076 48.6822L85.5615 47.8247ZM18.4036 87.7928H17.4036V89.5516L18.9151 88.6521L18.4036 87.7928ZM18.4036 87.5919H19.4037L19.4035 87.5786L18.4036 87.5919ZM85.2689 47.7243L85.7804 48.5836L87.2687 47.6977L85.7574 46.8517L85.2689 47.7243ZM17.6045 9.84807L18.0929 8.97547L16.5815 8.12946L16.6045 9.86136L17.6045 9.84807ZM18.6351 87.3867L17.6352 87.3999L17.6582 89.1319L19.1466 88.2459L18.6351 87.3867ZM16.8758 10.3189L85.2477 48.5925L86.2247 46.8473L17.8527 8.5737L16.8758 10.3189ZM85.2217 46.8624L85.047 46.9672L86.076 48.6822L86.2507 48.5774L85.2217 46.8624ZM85.0501 46.9654L17.8922 86.9335L18.9151 88.6521L86.073 48.6841L85.0501 46.9654ZM19.4036 87.7928V87.5919H17.4036V87.7928H19.4036ZM19.4035 87.5786L18.3642 9.43299L16.3643 9.45959L17.4037 87.6052L19.4035 87.5786ZM85.7574 46.8517L18.0929 8.97547L17.116 10.7207L84.7805 48.5969L85.7574 46.8517ZM16.6045 9.86136L17.6352 87.3999L19.635 87.3734L18.6044 9.83478L16.6045 9.86136ZM19.1466 88.2459L85.7804 48.5836L84.7575 46.865L18.1236 86.5274L19.1466 88.2459Z" fill="#753EEB" mask="url(#path-43-inside-22_5213_71100)"/>
<mask id="path-45-inside-23_5213_71100" fill="white">
<path d="M20.8582 6.59131L85.6316 50.6776L15.0674 84.7326L20.8582 6.59131ZM85.1687 50.6427L21.0591 7.01492L15.325 84.3482L85.1687 50.6427Z"/>
</mask>
<path d="M20.8582 6.59131L85.6316 50.6776L15.0674 84.7326L20.8582 6.59131ZM85.1687 50.6427L21.0591 7.01492L15.325 84.3482L85.1687 50.6427Z" fill="#6100FF"/>
<path d="M20.8582 6.59131L21.4209 5.76462L19.989 4.79003L19.8609 6.5174L20.8582 6.59131ZM85.6316 50.6776L86.0663 51.5782L87.6261 50.8254L86.1943 49.8509L85.6316 50.6776ZM15.0674 84.7326L14.0701 84.6587L13.9421 86.386L15.502 85.6332L15.0674 84.7326ZM85.1687 50.6427L85.6033 51.5433L87.1633 50.7904L85.7313 49.8159L85.1687 50.6427ZM21.0591 7.01492L21.6217 6.18819L20.1899 5.21383L20.0618 6.94098L21.0591 7.01492ZM15.325 84.3482L14.3278 84.2743L14.1997 86.0017L15.7597 85.2489L15.325 84.3482ZM20.2955 7.418L85.069 51.5043L86.1943 49.8509L21.4209 5.76462L20.2955 7.418ZM85.197 49.777L14.6327 83.832L15.502 85.6332L86.0663 51.5782L85.197 49.777ZM16.0646 84.8065L21.8555 6.66521L19.8609 6.5174L14.0701 84.6587L16.0646 84.8065ZM85.7313 49.8159L21.6217 6.18819L20.4965 7.84165L84.6061 51.4694L85.7313 49.8159ZM20.0618 6.94098L14.3278 84.2743L16.3223 84.4222L22.0564 7.08887L20.0618 6.94098ZM15.7597 85.2489L85.6033 51.5433L84.7341 49.742L14.8904 83.4476L15.7597 85.2489Z" fill="#753EEB" mask="url(#path-45-inside-23_5213_71100)"/>
<mask id="path-47-inside-24_5213_71100" fill="white">
<path d="M24.5993 4.05225L24.7565 4.17889L85.2851 53.6149L12.0176 81.3899L24.5993 4.05225ZM84.8222 53.5407L24.7653 4.48896L12.3145 81.0275L84.8265 53.5407H84.8222Z"/>
</mask>
<path d="M24.5993 4.05225L24.7565 4.17889L85.2851 53.6149L12.0176 81.3899L24.5993 4.05225ZM84.8222 53.5407L24.7653 4.48896L12.3145 81.0275L84.8265 53.5407H84.8222Z" fill="#6100FF"/>
<path d="M24.5993 4.05225L25.2266 3.27349L23.8882 2.19535L23.6123 3.89167L24.5993 4.05225ZM24.7565 4.17889L25.3891 3.40437L25.3839 3.40014L24.7565 4.17889ZM85.2851 53.6149L85.6395 54.55L87.2591 53.936L85.9176 52.8404L85.2851 53.6149ZM12.0176 81.3899L11.0306 81.2294L10.7524 82.939L12.3721 82.325L12.0176 81.3899ZM84.8222 53.5407L84.1896 54.3152L84.4657 54.5407H84.8222V53.5407ZM24.7653 4.48896L25.3978 3.71446L24.0563 2.61879L23.7782 4.3284L24.7653 4.48896ZM12.3145 81.0275L11.3275 80.8669L11.0494 82.5765L12.669 81.9625L12.3145 81.0275ZM84.8265 53.5407L85.181 54.4758L84.8265 52.5407V53.5407ZM23.972 4.831L24.1292 4.95765L25.3839 3.40014L25.2266 3.27349L23.972 4.831ZM24.124 4.9534L84.6525 54.3894L85.9176 52.8404L25.3891 3.40439L24.124 4.9534ZM84.9306 52.6799L11.6631 80.4549L12.3721 82.325L85.6395 54.55L84.9306 52.6799ZM13.0046 81.5505L25.5863 4.21282L23.6123 3.89167L11.0306 81.2294L13.0046 81.5505ZM85.4547 52.7662L25.3978 3.71446L24.1327 5.26346L84.1896 54.3152L85.4547 52.7662ZM23.7782 4.3284L11.3275 80.8669L13.3016 81.188L25.7523 4.64952L23.7782 4.3284ZM12.669 81.9625L85.181 54.4758L84.4721 52.6056L11.9601 80.0924L12.669 81.9625ZM84.8265 52.5407H84.8222V54.5407H84.8265V52.5407Z" fill="#753EEB" mask="url(#path-47-inside-24_5213_71100)"/>
<mask id="path-49-inside-25_5213_71100" fill="white">
<path d="M28.5593 1.85107L84.6945 56.5146L84.498 56.5713L9.28711 77.7956L9.33515 77.5991L28.5593 1.85107ZM84.2447 56.401L28.6859 2.30089L9.61028 77.4637L84.2403 56.401H84.2447Z"/>
</mask>
<path d="M28.5593 1.85107L84.6945 56.5146L84.498 56.5713L9.28711 77.7956L9.33515 77.5991L28.5593 1.85107ZM84.2447 56.401L28.6859 2.30089L9.61028 77.4637L84.2403 56.401H84.2447Z" fill="#6100FF"/>
<path d="M28.5593 1.85107L29.257 1.13464L28.0161 -0.0736959L27.59 1.60508L28.5593 1.85107ZM84.6945 56.5146L84.972 57.4753L86.6243 56.998L85.3922 55.7981L84.6945 56.5146ZM84.498 56.5713L84.7696 57.5338L84.7755 57.5321L84.498 56.5713ZM9.28711 77.7956L8.31571 77.5582L7.90858 79.2237L9.5587 78.7581L9.28711 77.7956ZM9.33515 77.5991L8.36584 77.3531L8.36375 77.3617L9.33515 77.5991ZM84.2447 56.401V57.401H86.7051L84.9423 55.6846L84.2447 56.401ZM28.6859 2.30089L29.3836 1.58444L28.1427 0.376156L27.7167 2.0549L28.6859 2.30089ZM9.61028 77.4637L8.64101 77.2178L8.21493 78.8966L9.8819 78.4261L9.61028 77.4637ZM84.2403 56.401V55.401H84.1019L83.9687 55.4386L84.2403 56.401ZM27.8616 2.56751L83.9969 57.231L85.3922 55.7981L29.257 1.13464L27.8616 2.56751ZM84.417 55.5539L84.2205 55.6106L84.7755 57.5321L84.972 57.4753L84.417 55.5539ZM84.2264 55.6089L9.01552 76.8332L9.5587 78.7581L84.7696 57.5338L84.2264 55.6089ZM10.2585 78.0331L10.3065 77.8366L8.36375 77.3617L8.31571 77.5582L10.2585 78.0331ZM10.3044 77.8451L29.5286 2.09707L27.59 1.60508L8.36588 77.3531L10.3044 77.8451ZM84.9423 55.6846L29.3836 1.58444L27.9883 3.01734L83.5471 57.1175L84.9423 55.6846ZM27.7167 2.0549L8.64101 77.2178L10.5795 77.7097L29.6552 2.54688L27.7167 2.0549ZM9.8819 78.4261L84.512 57.3634L83.9687 55.4386L9.33866 76.5013L9.8819 78.4261ZM84.2403 57.401H84.2447V55.401H84.2403V57.401Z" fill="#753EEB" mask="url(#path-49-inside-25_5213_71100)"/>
<mask id="path-51-inside-26_5213_71100" fill="white">
<path d="M6.85449 73.9794L32.673 0L83.8297 59.3494L6.85449 73.9794ZM32.7604 0.45855L7.20823 73.6737L83.3886 59.1966L32.7604 0.45855Z"/>
</mask>
<path d="M6.85449 73.9794L32.673 0L83.8297 59.3494L6.85449 73.9794ZM32.7604 0.45855L7.20823 73.6737L83.3886 59.1966L32.7604 0.45855Z" fill="#6100FF"/>
<path d="M6.85449 73.9794L5.91034 73.6499L5.33962 75.2852L7.04121 74.9618L6.85449 73.9794ZM32.673 0L33.4305 -0.652891L32.2996 -1.96487L31.7289 -0.329506L32.673 0ZM83.8297 59.3494L84.0164 60.3319L85.718 60.0085L84.5872 58.6965L83.8297 59.3494ZM32.7604 0.45855L33.5178 -0.194331L32.387 -1.50634L31.8162 0.12904L32.7604 0.45855ZM7.20823 73.6737L6.26408 73.3442L5.69336 74.9794L7.39493 74.6561L7.20823 73.6737ZM83.3886 59.1966L83.5753 60.179L85.2769 59.8557L84.1461 58.5437L83.3886 59.1966ZM7.79865 74.3089L33.6172 0.329506L31.7289 -0.329506L5.91034 73.6499L7.79865 74.3089ZM31.9156 0.652891L83.0722 60.0023L84.5872 58.6965L33.4305 -0.652891L31.9156 0.652891ZM83.643 58.367L6.66777 72.9969L7.04121 74.9618L84.0164 60.3319L83.643 58.367ZM31.8162 0.12904L6.26408 73.3442L8.15238 74.0032L33.7045 0.78806L31.8162 0.12904ZM7.39493 74.6561L83.5753 60.179L83.2019 58.2142L7.02154 72.6912L7.39493 74.6561ZM84.1461 58.5437L33.5178 -0.194331L32.0029 1.11143L82.6312 59.8495L84.1461 58.5437Z" fill="#753EEB" mask="url(#path-51-inside-26_5213_71100)"/>
</svg>
