<svg width="70" height="70" viewBox="0 0 70 70" fill="none" xmlns="http://www.w3.org/2000/svg">
<g opacity="0.7">
<rect x="4.5" y="4.5" width="65" height="65" fill="#00B7C2"/>
<rect x="4.5" y="4.5" width="65" height="65" stroke="#2B2B2B"/>
<rect x="2.5" y="2.5" width="65" height="65" fill="#00B7C2"/>
<rect x="2.5" y="2.5" width="65" height="65" stroke="#2B2B2B"/>
<rect x="0.5" y="0.5" width="65" height="65" fill="#00B7C2"/>
<rect x="0.5" y="0.5" width="65" height="65" stroke="#2B2B2B"/>
<path d="M4 4H70V70H4V4Z" fill="#00B7C2"/>
<path fill-rule="evenodd" clip-rule="evenodd" d="M69 5H5V69H69V5ZM4 4V70H70V4H4Z" fill="#2B2B2B"/>
<path d="M2 2H68V68H2V2Z" fill="#00B7C2"/>
<path fill-rule="evenodd" clip-rule="evenodd" d="M67 3H3V67H67V3ZM2 2V68H68V2H2Z" fill="#2B2B2B"/>
<path d="M0 0H66V66H0V0Z" fill="#00B7C2"/>
<path fill-rule="evenodd" clip-rule="evenodd" d="M65 1H1V65H65V1ZM0 0V66H66V0H0Z" fill="#2B2B2B"/>
<path fill-rule="evenodd" clip-rule="evenodd" d="M16.5734 9.02921C16.695 9.07351 16.7941 9.16478 16.8486 9.28283L23.6432 23.977C23.739 24.1843 23.6795 24.4308 23.4998 24.5707C23.3201 24.7105 23.0681 24.7064 22.893 24.5608L9.17653 13.1544C9.04826 13.0477 8.9831 12.8824 9.0038 12.7162C9.02451 12.55 9.12821 12.406 9.27868 12.3346L16.2006 9.0468C16.3176 8.99124 16.4517 8.98491 16.5734 9.02921ZM10.3859 12.8907L21.8546 22.428L16.1735 10.1418L10.3859 12.8907Z" fill="#67FFDB"/>
<path fill-rule="evenodd" clip-rule="evenodd" d="M16.0025 9.14143C16.1467 8.99792 16.3641 8.95954 16.5482 9.04513L30.2646 15.4249C30.4034 15.4894 30.5039 15.6159 30.536 15.7663C30.5681 15.9168 30.528 16.0737 30.4278 16.1899L23.2597 24.5043C23.151 24.6304 22.9858 24.692 22.8217 24.6676C22.6576 24.6432 22.5171 24.5362 22.4492 24.3838L15.9009 9.68965C15.8179 9.50344 15.8584 9.28494 16.0025 9.14143ZM17.3193 10.4819L23.0245 23.284L29.2697 16.0402L17.3193 10.4819Z" fill="#67FFDB"/>
<path fill-rule="evenodd" clip-rule="evenodd" d="M23.6219 23.9362C23.7411 24.141 23.6971 24.4023 23.5176 24.5561L9.80113 36.3114C9.65633 36.4355 9.45294 36.4632 9.28061 36.3823C9.10828 36.3014 8.99865 36.1267 9.00004 35.9353L9.04845 29.2728C9.04993 29.0694 9.17627 28.8881 9.36577 28.8175L23.0338 23.7246C23.2549 23.6422 23.5028 23.7314 23.6219 23.9362ZM10.0181 29.618L9.97987 34.873L20.7988 25.6009L10.0181 29.618Z" fill="#67FFDB"/>
<path fill-rule="evenodd" clip-rule="evenodd" d="M23.4423 23.7578C23.6205 23.8596 23.7162 24.0629 23.6816 24.2663L21.0097 39.9401C20.9856 40.0815 20.901 40.2051 20.7784 40.2783C20.6558 40.3514 20.5074 40.3667 20.3727 40.32L9.32806 36.4977C9.16329 36.4407 9.04144 36.2992 9.00869 36.1269C8.97594 35.9547 9.0373 35.7779 9.16952 35.6637L22.886 23.8122C23.0415 23.6778 23.264 23.6561 23.4423 23.7578ZM10.4465 35.8499L20.1483 39.2075L22.4953 25.4394L10.4465 35.8499Z" fill="#67FFDB"/>
<path fill-rule="evenodd" clip-rule="evenodd" d="M35.7184 49.2238C35.8644 49.304 35.9595 49.4538 35.9706 49.6208L36.4242 56.4781C36.4332 56.6134 36.386 56.7463 36.2939 56.8452C36.2019 56.9442 36.0732 57.0002 35.9385 57L23.2018 56.9796C22.9803 56.9793 22.787 56.8282 22.7318 56.6122C22.6766 56.3962 22.7735 56.17 22.9674 56.0621L35.2504 49.2251C35.3959 49.1441 35.5725 49.1436 35.7184 49.2238ZM25.0808 56.004L35.4197 56.0205L35.0514 50.4541L25.0808 56.004Z" fill="#67FFDB"/>
<path fill-rule="evenodd" clip-rule="evenodd" d="M56.6692 49.2011C56.8503 49.2764 56.9689 49.4539 56.9697 49.6512L56.9999 56.5085C57.0004 56.6388 56.9494 56.7639 56.858 56.8562C56.7666 56.9484 56.6424 57.0002 56.513 57L49.6547 56.9879C49.4581 56.9876 49.2811 56.868 49.2062 56.685C49.1313 56.502 49.1733 56.2916 49.3126 56.1519L56.1407 49.3066C56.2796 49.1674 56.488 49.1258 56.6692 49.2011ZM50.8305 56.0113L56.0256 56.0205L56.0028 50.826L50.8305 56.0113Z" fill="#67FFDB"/>
<path fill-rule="evenodd" clip-rule="evenodd" d="M21.9215 45.3508C22.0449 45.2528 22.2077 45.2209 22.3585 45.2651L36.075 49.2866C36.2664 49.3428 36.4044 49.5109 36.423 49.7107C36.4416 49.9106 36.3371 50.1016 36.1594 50.1926L22.9663 56.9468C22.8194 57.022 22.6447 57.0172 22.5021 56.9339C22.3595 56.8506 22.2686 56.7003 22.2606 56.5345L21.7372 45.7588C21.7295 45.6008 21.7982 45.4488 21.9215 45.3508ZM22.7414 46.3967L23.1948 55.7319L34.6243 49.8806L22.7414 46.3967Z" fill="#67FFDB"/>
<path fill-rule="evenodd" clip-rule="evenodd" d="M31.4569 36.6661C31.571 36.8569 31.5427 37.1013 31.3879 37.2606L22.8214 46.0771C22.7063 46.1956 22.5395 46.2473 22.3781 46.2147C22.2168 46.182 22.0828 46.0694 22.0221 45.9154L19.8115 40.3054C19.7611 40.1777 19.7665 40.0345 19.8262 39.9109C19.886 39.7873 19.9946 39.6947 20.1255 39.6557L30.9027 36.4492C31.115 36.386 31.3428 36.4752 31.4569 36.6661ZM20.9113 40.4425L22.6497 44.8542L29.3867 37.9207L20.9113 40.4425Z" fill="#67FFDB"/>
<path fill-rule="evenodd" clip-rule="evenodd" d="M22.571 45.3935C22.7485 45.5771 22.7554 45.8674 22.5867 46.0592L13.1124 56.835C13.0196 56.9406 12.886 57.0007 12.7459 57L9.48352 56.9828C9.27966 56.9817 9.09812 56.8527 9.0289 56.6596C8.95968 56.4665 9.01748 56.2505 9.17366 56.1186L21.9104 45.3601C22.1053 45.1954 22.3935 45.21 22.571 45.3935ZM10.8133 56.0111L12.5306 56.0202L17.5179 50.3478L10.8133 56.0111Z" fill="#67FFDB"/>
<path fill-rule="evenodd" clip-rule="evenodd" d="M20.1555 39.3797C20.311 39.4147 20.4396 39.5242 20.4997 39.6727L22.673 45.0468C22.7233 45.1713 22.7206 45.3112 22.6654 45.4336C22.6102 45.556 22.5075 45.6501 22.3813 45.6939L9.64453 50.116C9.42701 50.1915 9.18669 50.1031 9.06874 49.9042C8.95079 49.7053 8.98753 49.4504 9.15677 49.2935L19.7202 39.4973C19.8374 39.3887 20 39.3447 20.1555 39.3797ZM11.5249 48.4279L21.5791 44.9372L19.8635 40.695L11.5249 48.4279Z" fill="#67FFDB"/>
<path fill-rule="evenodd" clip-rule="evenodd" d="M22.647 45.4961C22.7607 45.7007 22.7142 45.9577 22.5362 46.1089L9.84854 56.8847C9.70449 57.007 9.50318 57.0345 9.33197 56.9552C9.16076 56.8759 9.05053 56.7041 9.0491 56.5144L9.00004 49.976C8.99844 49.7636 9.13319 49.5744 9.33356 49.5077L22.0703 45.2703C22.2914 45.1967 22.5333 45.2914 22.647 45.4961ZM9.97477 50.3251L10.0133 55.4643L19.986 46.9944L9.97477 50.3251Z" fill="#67FFDB"/>
<path fill-rule="evenodd" clip-rule="evenodd" d="M47.0397 9.12386C47.1762 9.24623 47.233 9.43537 47.1867 9.61339L44.8916 18.4299C44.8283 18.6729 44.5926 18.8282 44.3461 18.7893L29.9855 16.5216C29.7685 16.4873 29.6013 16.3109 29.5776 16.0911C29.5538 15.8713 29.6794 15.6628 29.884 15.5824L46.5397 9.03354C46.71 8.96659 46.9031 9.00149 47.0397 9.12386ZM31.9128 15.8353L44.0627 17.7539L46.0044 10.2946L31.9128 15.8353Z" fill="#67FFDB"/>
<path fill-rule="evenodd" clip-rule="evenodd" d="M45.9972 9.00968C46.1793 8.97268 46.3665 9.04346 46.4794 9.19204L56.8998 22.9066C57.0313 23.0797 57.0333 23.3195 56.9046 23.4948C56.7759 23.6701 56.5476 23.7385 56.3446 23.6627L43.6079 18.9029C43.374 18.8155 43.2438 18.564 43.3067 18.3209L45.623 9.36603C45.6698 9.185 45.8151 9.04669 45.9972 9.00968ZM46.3126 10.5833L44.3581 18.1394L55.1053 22.1556L46.3126 10.5833Z" fill="#67FFDB"/>
<path fill-rule="evenodd" clip-rule="evenodd" d="M43.4119 17.9829C43.544 17.8315 43.7548 17.7771 43.943 17.8459L56.6797 22.5034C56.8719 22.5737 56.9998 22.7576 56.9998 22.9634C56.9997 23.1693 56.8717 23.3531 56.6794 23.4233L47.9706 26.6027C47.7411 26.6865 47.4854 26.5859 47.3732 26.3676L43.3453 18.5307C43.2534 18.3517 43.2798 18.1343 43.4119 17.9829ZM44.7804 19.1934L48.0404 25.5362L55.089 22.9629L44.7804 19.1934Z" fill="#67FFDB"/>
<path fill-rule="evenodd" clip-rule="evenodd" d="M29.6888 16.0316C29.7988 15.9 29.9693 15.8362 30.138 15.8635L43.8545 18.0855C44.03 18.1139 44.1761 18.2365 44.2354 18.4053C44.2948 18.574 44.2579 18.7619 44.1392 18.8952L34.7783 29.4082C34.6633 29.5374 34.4889 29.5956 34.32 29.5612C34.1511 29.5268 34.0129 29.4049 33.9568 29.2409L29.6012 16.5059C29.5456 16.3433 29.5789 16.1632 29.6888 16.0316ZM30.7844 16.9595L34.6066 28.1348L42.8211 18.9093L30.7844 16.9595Z" fill="#67FFDB"/>
<path fill-rule="evenodd" clip-rule="evenodd" d="M30.5475 15.8659C30.717 15.8983 30.8568 16.0188 30.9146 16.1825L35.4174 28.9175C35.4807 29.0964 35.4354 29.296 35.3012 29.4296C35.167 29.5631 34.9682 29.6064 34.7912 29.5406L23.0343 25.172C22.8843 25.1163 22.7711 24.9899 22.7316 24.8339C22.6921 24.678 22.7313 24.5124 22.8364 24.3912L30.0906 16.0248C30.204 15.8939 30.378 15.8335 30.5475 15.8659ZM24.0326 24.4998L34.1533 28.2604L30.2771 17.2978L24.0326 24.4998Z" fill="#67FFDB"/>
<path fill-rule="evenodd" clip-rule="evenodd" d="M34.3549 28.6107C34.494 28.5711 34.6435 28.5959 34.7627 28.6785L46.0122 36.4735C46.1874 36.5948 46.2638 36.8167 46.201 37.0211C46.1382 37.2256 45.9507 37.3653 45.7381 37.3659L31.0418 37.4078C30.8772 37.4082 30.7235 37.3248 30.6335 37.1859C30.5435 37.0471 30.5294 36.8719 30.596 36.7203L34.0427 28.8834C34.1013 28.7503 34.2157 28.6503 34.3549 28.6107ZM34.6943 29.8191L31.7882 36.427L44.1796 36.3916L34.6943 29.8191Z" fill="#67FFDB"/>
<path fill-rule="evenodd" clip-rule="evenodd" d="M56.7972 22.8063C56.9257 22.899 57.0013 23.0488 57 23.2079L56.9204 33.004C56.9189 33.1893 56.8135 33.3579 56.6482 33.4394C56.4829 33.521 56.286 33.5015 56.1396 33.3891L47.4015 26.6796C47.2592 26.5703 47.188 26.3912 47.2163 26.2133C47.2445 26.0354 47.3676 25.8875 47.5366 25.8283L56.3543 22.7417C56.5036 22.6894 56.6688 22.7135 56.7972 22.8063ZM48.7102 26.4536L55.9563 32.0175L56.0223 23.8941L48.7102 26.4536Z" fill="#67FFDB"/>
<path fill-rule="evenodd" clip-rule="evenodd" d="M47.7689 25.6834C47.9268 25.625 48.1035 25.6529 48.236 25.7573L56.8133 32.5122C56.952 32.6215 57.0212 32.7977 56.9941 32.9729C56.967 33.1481 56.8479 33.2949 56.6828 33.3565L45.9055 37.3773C45.7399 37.4391 45.5541 37.4056 45.4201 37.2898C45.2861 37.174 45.225 36.9941 45.2605 36.8199L47.4605 26.0442C47.4943 25.8783 47.611 25.7418 47.7689 25.6834ZM48.2548 27.0146L46.3891 36.1532L55.5289 32.7433L48.2548 27.0146Z" fill="#67FFDB"/>
<path fill-rule="evenodd" clip-rule="evenodd" d="M43.2297 48.4501C43.3184 48.6239 43.2959 48.8342 43.1724 48.9849L36.7577 56.8218C36.6307 56.977 36.4223 57.0382 36.2323 56.976C36.0424 56.9138 35.9096 56.741 35.8975 56.5402L35.454 49.1717C35.4378 48.9033 35.6398 48.6721 35.9062 48.6539L42.7645 48.1855C42.9581 48.1723 43.141 48.2763 43.2297 48.4501ZM36.4535 49.5974L36.7931 55.2398L41.705 49.2388L36.4535 49.5974Z" fill="#67FFDB"/>
<path fill-rule="evenodd" clip-rule="evenodd" d="M45.9414 36.4747C46.1471 36.5709 46.2593 36.7975 46.2119 37.0208L43.6011 49.3049C43.5555 49.5195 43.3736 49.6773 43.1561 49.6909L35.9693 50.1418C35.7788 50.1537 35.5989 50.0522 35.5096 49.8824C35.4202 49.7125 35.4379 49.5057 35.5548 49.3537L45.3523 36.6188C45.4912 36.4383 45.7357 36.3784 45.9414 36.4747ZM36.9814 49.0977L42.7277 48.7372L44.8152 38.9152L36.9814 49.0977Z" fill="#67FFDB"/>
<path fill-rule="evenodd" clip-rule="evenodd" d="M16.8205 9.39138C16.8668 9.61929 16.7473 9.84848 16.5347 9.93958L9.67642 12.8784C9.45674 12.9726 9.20169 12.8921 9.0746 12.6886C8.94752 12.4852 8.98604 12.2189 9.1655 12.0604L12.4894 9.12411C12.578 9.04586 12.6918 9.00267 12.8096 9.00259L16.344 9.00002C16.575 8.99985 16.7742 9.16347 16.8205 9.39138ZM12.9932 9.98111L12.0864 10.7821L13.9573 9.98041L12.9932 9.98111Z" fill="#67FFDB"/>
</g>
</svg>
