<svg width="77" height="47" viewBox="0 0 77 47" fill="none" xmlns="http://www.w3.org/2000/svg">
<path fill-rule="evenodd" clip-rule="evenodd" d="M46.669 14.1421L43.8406 11.3137L14.1421 41.0122L2.82837 29.6985L-5.59092e-05 32.5269L11.3137 43.8406L14.1421 46.669L16.9705 43.8406L46.669 14.1421Z" fill="#75EB3E"/>
<path opacity="0.6" fill-rule="evenodd" clip-rule="evenodd" d="M56.669 14.1421L53.8406 11.3137L24.1421 41.0122L12.8284 29.6985L9.99994 32.5269L21.3137 43.8406L24.1421 46.669L26.9705 43.8406L56.669 14.1421Z" fill="#75EB3E"/>
<path opacity="0.3" fill-rule="evenodd" clip-rule="evenodd" d="M66.669 14.1421L63.8406 11.3137L34.1421 41.0122L22.8284 29.6985L19.9999 32.5269L31.3137 43.8406L34.1421 46.669L36.9705 43.8406L66.669 14.1421Z" fill="#75EB3E"/>
<path opacity="0.1" fill-rule="evenodd" clip-rule="evenodd" d="M76.669 14.1421L73.8406 11.3137L44.1421 41.0122L32.8284 29.6985L29.9999 32.5269L41.3137 43.8406L44.1421 46.669L46.9705 43.8406L76.669 14.1421Z" fill="#75EB3E"/>
</svg>
