<svg width="38" height="263" viewBox="0 0 38 263" fill="none" xmlns="http://www.w3.org/2000/svg">
<path opacity="0.1" d="M38.5 262.293L0.707106 224.5L38.5 186.707L76.2929 224.5L38.5 262.293Z" fill="white" stroke="#753EEB"/>
<path opacity="0.2" d="M38.5 231.392L0.707106 193.599L38.5 155.806L76.2929 193.599L38.5 231.392Z" fill="white" stroke="#753EEB"/>
<path opacity="0.3" d="M38.5 200.49L0.707106 162.697L38.5 124.904L76.2929 162.697L38.5 200.49Z" fill="white" stroke="#753EEB"/>
<path opacity="0.4" d="M38.5 169.589L0.707106 131.796L38.5 94.0031L76.2929 131.796L38.5 169.589Z" fill="white" stroke="#753EEB"/>
<path opacity="0.6" d="M38.5 138.688L0.707106 100.895L38.5 63.1019L76.2929 100.895L38.5 138.688Z" fill="white" stroke="#753EEB"/>
<path opacity="0.8" d="M38.5 107.786L0.707106 69.9934L38.5 32.2005L76.2929 69.9934L38.5 107.786Z" fill="white" stroke="#753EEB"/>
<path d="M38.5 76.8849L0.707106 39.092L38.5 1.29915L76.2929 39.092L38.5 76.8849Z" fill="white" stroke="#753EEB"/>
</svg>
