<svg width="99" height="100" viewBox="0 0 99 100" fill="none" xmlns="http://www.w3.org/2000/svg">
<path d="M42.5941 15.5164L98.7293 70.1799L98.5328 70.2366L23.3219 91.4653L23.3699 91.2688L42.5941 15.5164ZM98.2795 70.0663L42.7207 15.9662L23.6494 91.129L98.2795 70.0663Z" fill="#6100FF"/>
<path d="M19.6467 88.8172L45.4653 14.8335L96.6219 74.1829L19.6467 88.8172ZM45.5526 15.2964L20.0005 88.5115L96.1809 74.0344L45.5526 15.2964Z" fill="#6100FF"/>
<path d="M16.2295 85.8588L16.3125 85.6754L48.3979 14.4124L94.1873 77.9936L16.2295 85.8588ZM48.4459 14.8796L16.6094 85.588L93.7637 77.8058L48.4459 14.8796Z" fill="#6100FF"/>
<path d="M13.0842 82.6178L51.3535 14.2458L51.4583 14.4205L91.4307 81.5784H91.2298L13.0842 82.6178ZM51.3622 14.7131L13.4816 82.3776L91.0202 81.347L51.3622 14.7131Z" fill="#6100FF"/>
<path d="M10.2308 79.1103L54.3171 14.3325L88.3721 84.9011L10.2308 79.1103ZM54.2822 14.7998L10.6501 78.9051L87.9834 84.6391L54.2822 14.7998Z" fill="#6100FF"/>
<path d="M7.6969 75.3681L7.82355 75.2109L57.2596 14.6824L85.0346 87.9499L7.6969 75.3681ZM57.1853 15.1409L8.13361 75.2022L84.6721 87.6529L57.1853 15.1409Z" fill="#6100FF"/>
<path d="M5.48218 71.4189L60.15 15.2837L81.4311 90.6911L81.2346 90.6431L5.48218 71.4189ZM60.0321 15.7335L5.93199 71.2923L81.0948 90.3679L60.0321 15.7335Z" fill="#6100FF"/>
<path d="M3.64124 67.2929L62.9907 16.1362L77.6206 93.1114L3.64124 67.2929ZM62.8335 16.5773L4.09979 67.2056L77.3149 92.7577L62.8335 16.5773Z" fill="#6100FF"/>
<path d="M2.15356 63.0211L65.7348 17.2317L73.6 95.1895L73.4165 95.1065L2.15356 63.0211ZM65.5426 17.6553L2.61648 62.9731L73.3248 94.8096L65.5426 17.6553Z" fill="#6100FF"/>
<path d="M1.04614 58.6361L1.22083 58.5313L68.3743 18.5632L69.4137 96.9097L1.04614 58.6361ZM68.1473 18.9694L1.51343 58.6317L69.1779 96.5079L68.1473 18.9694Z" fill="#6100FF"/>
<path d="M0.326172 54.1756L70.8948 20.1206L65.104 98.2618L0.326172 54.1756ZM70.6328 20.5093L0.793456 54.2105L64.8987 97.8426L70.6328 20.5093Z" fill="#6100FF"/>
<path d="M0 49.6686L73.2675 21.8936L60.6858 99.2312L0 49.6686ZM72.9706 22.256L0.462917 49.7428L60.5242 98.7945L72.9749 22.256H72.9706Z" fill="#6100FF"/>
<path d="M0.0611572 45.1431L0.257679 45.0864L75.4729 23.8621L56.2007 99.811L56.0566 99.6712L0.0611572 45.1431ZM75.1454 24.1983L0.51534 45.261L56.0741 99.3612L75.1454 24.1983Z" fill="#6100FF"/>
<path d="M0.529907 40.6463L77.5051 26.0208L51.6866 100L0.529907 40.6463ZM77.1514 26.3221L0.970988 40.8035L51.5992 99.5372L77.1514 26.3221Z" fill="#6100FF"/>
<path d="M1.38599 36.2075L79.3438 28.3423L47.1754 99.7887L1.38599 36.2075ZM78.9682 28.6174L1.8096 36.3997L47.1274 99.3258L78.9639 28.613L78.9682 28.6174Z" fill="#6100FF"/>
<path d="M2.60864 31.858H2.80953L80.9551 30.8186L42.6859 99.1862L2.60864 31.858ZM80.5577 31.0544L3.01915 32.0851L42.6772 98.7233L80.5577 31.0544Z" fill="#6100FF"/>
<path d="M4.21875 27.6289L82.36 33.4197L38.2737 98.1975L4.21875 27.6289ZM81.9407 33.625L4.60306 27.8909L38.3043 97.7302L81.9364 33.625H81.9407Z" fill="#6100FF"/>
<path d="M6.20239 23.5613L83.5401 36.143L33.9774 96.8288L6.20239 23.5613ZM83.1034 36.309L6.56487 23.8582L34.0516 96.3702L83.1034 36.309Z" fill="#6100FF"/>
<path d="M8.51892 19.6824L8.71544 19.7304L84.4678 38.9546L29.8 95.0898L8.51892 19.6824ZM84.018 39.0812L8.85082 20.0055L29.9135 94.6356L84.0137 39.0768L84.018 39.0812Z" fill="#6100FF"/>
<path d="M11.1617 16.0122L85.1411 41.8307L25.7917 92.9918L11.1617 16.0122ZM84.6825 41.9181L11.4674 16.3659L25.9445 92.5507L84.6825 41.9181Z" fill="#6100FF"/>
<path d="M14.11 12.5935L14.2934 12.6765L85.5564 44.7619L21.9752 90.5557L14.11 12.5935ZM85.0935 44.8099L14.3851 12.9734L22.1674 90.1277L85.0935 44.8099Z" fill="#6100FF"/>
<path d="M17.3641 9.44629L85.7361 47.7199L85.5614 47.8247L18.4035 87.7928V87.5919L17.3641 9.44629ZM85.2688 47.7243L17.6043 9.84807L18.635 87.3867L85.2688 47.7243Z" fill="#6100FF"/>
<path d="M20.8586 6.59131L85.632 50.6776L15.0677 84.7326L20.8586 6.59131ZM85.1691 50.6427L21.0595 7.01492L15.3254 84.3482L85.1691 50.6427Z" fill="#6100FF"/>
<path d="M24.5993 4.05225L24.7565 4.17889L85.2851 53.6149L12.0176 81.3899L24.5993 4.05225ZM84.8222 53.5407L24.7653 4.48896L12.3145 81.0275L84.8265 53.5407H84.8222Z" fill="#6100FF"/>
<path d="M28.5589 1.85107L84.6941 56.5146L84.4976 56.5713L9.28674 77.7956L9.33478 77.5991L28.5589 1.85107ZM84.2443 56.401L28.6856 2.30089L9.60991 77.4637L84.24 56.401H84.2443Z" fill="#6100FF"/>
<path d="M6.85449 73.9794L32.673 0L83.8297 59.3494L6.85449 73.9794ZM32.7604 0.45855L7.20823 73.6737L83.3886 59.1966L32.7604 0.45855Z" fill="#6100FF"/>
</svg>
