<svg width="101" height="101" viewBox="0 0 101 101" fill="none" xmlns="http://www.w3.org/2000/svg">
<g clip-path="url(#clip0_4511_69285)">
<path d="M55.0124 71.003C49.5415 71.003 43.697 69.3702 38.5456 66.0405C32.2637 61.9807 28.0904 56.1155 27.0975 49.9493C26.3602 45.3765 27.4367 41.1342 30.209 37.6812C36.8989 29.3495 51.5225 28.506 62.8084 35.7968C69.0903 39.8566 73.2636 45.7218 74.2565 51.888C74.9938 56.4608 73.9173 60.7031 71.145 64.1561C67.5076 68.6845 61.5254 71.003 55.0124 71.003ZM46.3416 31.0168C39.8826 31.0168 33.9546 33.3106 30.3515 37.7946C27.6136 41.2082 26.547 45.3963 27.2745 49.9197C28.2575 56.0365 32.4013 61.8524 38.6439 65.8876C49.8512 73.1291 64.3715 72.3053 71.0074 64.0427C73.7453 60.6291 74.812 56.441 74.0845 51.9176C73.1014 45.8007 68.9576 39.9848 62.715 35.9497C57.5931 32.6397 51.7781 31.0168 46.3416 31.0168Z" fill="#FFC300"/>
<path d="M53.2085 72.0142C49.399 72.0142 45.4371 71.2299 41.6375 69.5724C34.9278 66.6472 29.7912 61.4627 27.535 55.336C25.7556 50.5067 25.9424 45.4357 28.0658 41.0552C33.0501 30.7701 47.2509 26.8287 59.7166 32.2599C66.4262 35.1851 71.5628 40.3696 73.819 46.4962C75.5984 51.3256 75.4116 56.3966 73.2882 60.777C69.8228 67.9248 61.9039 72.0093 53.2085 72.0093V72.0142ZM28.1494 41.0996L28.233 41.1391C26.1341 45.4702 25.9473 50.487 27.7119 55.267C29.9485 61.3443 35.0556 66.4893 41.7161 69.3948C54.0933 74.7865 68.181 70.8846 73.121 60.6932C75.2199 56.3621 75.4067 51.3453 73.6421 46.5653C71.4055 40.488 66.2984 35.3429 59.6379 32.4374C47.2608 27.0458 33.173 30.9477 28.233 41.1391L28.1494 41.0996Z" fill="#FFC300"/>
<path d="M51.7289 73.4646C49.6299 73.4646 47.4917 73.2179 45.3486 72.7C38.5456 71.0573 32.6716 66.8643 29.2307 61.1915C26.2127 56.2191 25.2787 50.5117 26.601 45.1102L26.6944 45.1349L26.601 45.1102C29.5404 33.0986 42.7286 25.936 56.0053 29.1424C62.8083 30.785 68.6823 34.978 72.1231 40.6508C75.1412 45.6232 76.0703 51.3306 74.7529 56.7321C72.2903 66.8002 62.6166 73.4646 51.7289 73.4646ZM49.625 28.5751C38.8257 28.5751 29.2357 35.1753 26.7927 45.1595C25.4852 50.5068 26.4093 56.1698 29.3979 61.0928C32.8141 66.7213 38.6439 70.8797 45.3977 72.5125C58.5663 75.6893 71.6513 68.5909 74.5661 56.6877C75.8736 51.3405 74.9495 45.6775 71.9609 40.7544C68.5447 35.126 62.7149 30.9626 55.9611 29.3347C53.8327 28.8217 51.7043 28.5751 49.625 28.5751Z" fill="#FFC300"/>
<path d="M50.8244 75.2947C50.4115 75.2947 49.9986 75.2848 49.5857 75.2651C35.9403 74.609 25.3327 63.1548 25.9324 49.7323C26.2175 43.3196 28.9997 37.3902 33.7677 33.0295C38.6733 28.5455 45.0634 26.2517 51.7632 26.5723C65.4086 27.2284 76.0161 38.6826 75.4165 52.1051C75.1314 58.5179 72.3492 64.4472 67.5812 68.8079C62.9803 73.0157 57.0719 75.2947 50.8244 75.2947ZM50.5245 26.7548C44.3261 26.7548 38.4669 29.0141 33.9053 33.1874C29.1816 37.5086 26.4191 43.3886 26.1389 49.7471C25.5441 63.0561 36.0681 74.4166 49.5955 75.0629C56.2412 75.3835 62.5822 73.1094 67.4436 68.6599C72.1673 64.3387 74.9298 58.4587 75.21 52.1001C75.8048 38.7911 65.2808 27.4306 51.7534 26.7844C51.3405 26.7647 50.9325 26.7548 50.5245 26.7548Z" fill="#FFC300"/>
<path d="M50.5737 77.406C45.5452 77.406 40.6347 75.7683 36.4565 72.6507C30.8037 68.433 27.1466 62.0942 26.1586 54.7985C24.1973 40.3549 33.6006 26.8634 47.1182 24.7225C53.3952 23.731 59.7067 25.3144 64.8974 29.1868C70.5502 33.4044 74.2073 39.7432 75.1953 47.039C77.1566 61.4826 67.7533 74.9741 54.2358 77.115C53.0118 77.3074 51.7879 77.406 50.5737 77.406ZM50.7753 24.6485C49.571 24.6485 48.3569 24.7422 47.1477 24.9346C33.7432 27.0558 24.4235 40.4437 26.3651 54.7689C27.3482 62.0055 30.9758 68.2949 36.5794 72.478C41.721 76.3158 47.9784 77.8894 54.1964 76.9029C67.6009 74.7817 76.9207 61.3938 74.9791 47.0686C73.996 39.832 70.3683 33.5425 64.7647 29.3594C60.621 26.2665 55.7596 24.6485 50.7753 24.6485Z" fill="#FFC300"/>
<path d="M51.193 79.6553C47.939 79.6553 44.6751 78.9104 41.5931 77.4355C34.9671 74.2587 29.7714 67.9594 27.3432 60.1604C22.6735 45.1644 29.3389 28.8118 42.1977 23.7161C47.8948 21.4568 54.1325 21.7034 59.7656 24.4067C66.3917 27.5835 71.5873 33.8828 74.0156 41.6817C78.6852 56.6778 72.0199 73.0304 59.161 78.1261C56.5804 79.1472 53.8916 79.6553 51.1979 79.6553H51.193ZM50.1608 22.4088C47.4917 22.4088 44.8324 22.912 42.2764 23.9232C29.5207 28.9795 22.9143 45.2038 27.5496 60.0914C29.9582 67.8311 35.1096 74.0811 41.6816 77.2332C47.2557 79.9069 53.4345 80.1486 59.0676 77.9189C71.8233 72.8627 78.4296 56.6383 73.7944 41.7508C71.3858 34.0111 66.2344 27.7611 59.6624 24.6089C56.6099 23.1438 53.3804 22.4088 50.1559 22.4088H50.1608Z" fill="#FFC300"/>
<path d="M52.4957 81.8997C50.7703 81.8997 49.0253 81.6777 47.2902 81.2289C39.9661 79.3396 33.4875 73.6519 29.5158 65.626C22.0836 50.6004 25.5146 31.7764 37.1692 23.6618C42.1781 20.1742 48.175 19.089 54.0588 20.6083C61.3828 22.4976 67.8614 28.1852 71.8331 36.2111C79.2653 51.2367 75.8343 70.0607 64.1797 78.1754C60.6455 80.6369 56.6246 81.8997 52.4957 81.8997ZM29.7272 65.5274C33.6694 73.494 40.089 79.1324 47.3492 81.0069C53.1642 82.5065 59.0922 81.436 64.047 77.9879C75.6082 69.9374 79.0097 51.2466 71.6267 36.3196C67.6845 28.353 61.2649 22.7146 54.0047 20.8401C48.1897 19.3405 42.2616 20.411 37.3069 23.8591C25.7457 31.9096 22.3442 50.6004 29.7272 65.5274Z" fill="#FFC300"/>
<path d="M54.4029 84.0013C54.0195 84.0013 53.6312 83.9914 53.2429 83.9668C45.6485 83.5179 38.1573 78.7971 32.7011 71.008C22.5507 56.5299 22.3393 35.7327 32.2341 24.6534C36.4565 19.9227 42.0995 17.5106 48.116 17.8707C55.7104 18.3196 63.2016 23.0403 68.6578 30.8294C78.8082 45.3124 79.0196 66.1047 69.1247 77.184C65.1727 81.6088 59.982 84.0013 54.4029 84.0013ZM46.956 18.0778C41.4457 18.0778 36.3189 20.4456 32.416 24.8162C22.5949 35.8166 22.8112 56.4756 32.9026 70.8699C38.3195 78.5948 45.7369 83.2811 53.2625 83.725C59.2004 84.0753 64.7746 81.6927 68.9478 77.0212C78.7689 66.0208 78.5526 45.3618 68.4612 30.9675C63.0443 23.2426 55.6269 18.5563 48.1062 18.1124C47.7228 18.0877 47.3394 18.0778 46.9609 18.0778H46.956Z" fill="#FFC300"/>
<path d="M56.7034 85.8411C49.9495 85.8411 42.8417 82.3832 36.8399 76.0888C24.1236 62.7551 19.9651 40.6162 27.5694 26.7399C30.8676 20.7168 36.0436 16.958 42.1388 16.1588C49.6103 15.1772 57.7651 18.6697 64.5091 25.7484C77.2254 39.0821 81.3839 61.221 73.7797 75.0973C70.4814 81.1203 65.3054 84.8792 59.2102 85.6784C58.3795 85.7869 57.5439 85.8411 56.7034 85.8411ZM44.6506 16.2525C43.8199 16.2525 42.9941 16.3068 42.1732 16.4153C36.1616 17.2046 31.0544 20.9191 27.7906 26.8682C20.2355 40.6557 24.3792 62.6565 37.0218 75.9211C43.7118 82.9406 51.7879 86.4035 59.1758 85.4317C65.1875 84.6424 70.2946 80.928 73.5585 74.9789C81.1136 61.1914 76.9698 39.1906 64.3272 25.926C58.3746 19.6859 51.3307 16.2525 44.6457 16.2525H44.6506Z" fill="#FFC300"/>
<path d="M59.2495 87.3309C53.6361 87.3309 47.5605 85.0322 41.8783 80.6518C26.8615 69.0742 18.574 46.3237 23.3961 29.9414C25.5638 22.5766 30.1352 17.4168 36.2599 15.419C43.289 13.1301 51.7534 15.2315 59.4806 21.1954C74.4973 32.7729 82.7848 55.5235 77.9627 71.9057C75.795 79.2706 71.2236 84.4304 65.0989 86.4282C63.236 87.035 61.2747 87.3359 59.2495 87.3359V87.3309ZM42.1044 14.7727C40.1087 14.7727 38.172 15.0687 36.3385 15.6656C30.2974 17.6338 25.785 22.7295 23.6419 30.0105C18.8444 46.299 27.0974 68.9213 42.0306 80.4397C49.6889 86.3493 58.0649 88.4359 65.0105 86.1717C71.0516 84.2035 75.564 79.1078 77.7071 71.8268C82.5046 55.5383 74.2515 32.916 59.3183 21.3976C53.6852 17.0517 47.6588 14.7727 42.1044 14.7727Z" fill="#FFC300"/>
<path d="M61.722 88.4459C57.3128 88.4459 52.535 87.114 47.6785 84.4651C30.7398 75.2356 18.2741 52.6922 19.8962 34.2135C20.6581 25.502 24.4332 18.8968 30.5186 15.6164C36.9775 12.1338 45.2011 12.7602 53.6704 17.3774C70.6091 26.6069 83.0748 49.1503 81.4527 67.629C80.6908 76.3405 76.9157 82.9457 70.8303 86.2261C68.0777 87.7109 65.0006 88.4509 61.722 88.4509V88.4459ZM39.6269 13.6679C36.3926 13.6679 33.3597 14.393 30.6464 15.8581C24.6446 19.0941 20.9236 25.6203 20.1666 34.2381C18.5543 52.6182 30.956 75.0432 47.8063 84.2233C56.1921 88.7912 64.3223 89.4177 70.6976 85.9795C76.6994 82.7435 80.4204 76.2172 81.1774 67.5994C82.7897 49.2194 70.3879 26.7944 53.5377 17.6142C48.7206 14.9899 43.987 13.6679 39.6269 13.6679Z" fill="#FFC300"/>
<path d="M64.0274 89.1118C60.911 89.1118 57.5783 88.5199 54.1129 87.331C35.729 81.007 19.2081 59.5538 17.2862 39.5015C16.3326 29.537 19.0558 21.4766 24.9642 16.7953C30.6071 12.3261 38.521 11.5171 47.246 14.5163C65.6298 20.8403 82.1507 42.2935 84.0727 62.3458C85.0263 72.3103 82.3031 80.3707 76.3947 85.052C72.9932 87.7454 68.761 89.1118 64.0274 89.1118ZM37.3266 13.0167C32.6569 13.0167 28.4885 14.3584 25.1362 17.0173C19.3064 21.6345 16.6177 29.611 17.5615 39.4719C19.4736 59.4206 35.9109 80.7702 54.1965 87.0597C62.828 90.0293 70.6436 89.2351 76.2079 84.83C82.0377 80.2128 84.7264 72.2363 83.7827 62.3754C81.8706 42.4267 65.4332 21.0771 47.1477 14.7876C43.7167 13.6086 40.4086 13.0216 37.3266 13.0216V13.0167Z" fill="#FFC300"/>
<path d="M65.7035 89.4175C64.1748 89.4175 62.5921 89.2942 60.965 89.0476C41.7161 86.1273 21.4152 66.6719 15.7132 45.6774C12.7738 34.8595 14.2042 25.1466 19.6358 19.0249C24.3645 13.6973 31.7327 11.4825 40.384 12.7946C59.6329 15.7149 79.9338 35.1703 85.6358 56.1648C88.5752 66.9827 87.1448 76.6956 81.7132 82.8173C77.8743 87.1435 72.2952 89.4175 65.7035 89.4175ZM35.6504 12.7256C29.1423 12.7256 23.6419 14.9651 19.8619 19.2222C14.4991 25.265 13.0933 34.8793 16.0032 45.5985C21.6757 66.4894 41.8635 85.8461 61.0093 88.7516C69.5573 90.0489 76.8322 87.8686 81.4871 82.62C86.8499 76.5772 88.2557 66.9629 85.3458 56.2437C79.6733 35.3528 59.4855 15.9961 40.3397 13.0906C38.7275 12.8439 37.1594 12.7256 35.6455 12.7256H35.6504Z" fill="#FFC300"/>
<path d="M66.5097 89.4867C47.3591 89.4867 24.6889 73.2624 15.3495 52.5984C10.1883 41.1738 9.93268 30.1882 14.6515 22.4583C18.3824 16.3464 25.0133 12.7701 33.3205 12.3902C52.771 11.4974 76.4046 28.0325 85.9947 49.244C91.1559 60.6687 91.4115 71.6543 86.6927 79.3841C82.9618 85.496 76.3308 89.0724 68.0237 89.4522C67.5223 89.4769 67.016 89.4867 66.5097 89.4867ZM68.0089 89.1414C76.2129 88.7665 82.7504 85.2444 86.4272 79.2213C91.092 71.5803 90.8315 60.7032 85.7096 49.3723C76.1736 28.2643 52.6825 11.8131 33.3401 12.701C25.1362 13.0759 18.5987 16.598 14.9219 22.6211C10.2571 30.2622 10.5176 41.1393 15.6395 52.4702C25.1805 73.5781 48.6764 90.0294 68.0139 89.1414H68.0089Z" fill="#FFC300"/>
<path d="M66.2688 89.5015C48.6321 89.5015 27.7807 77.6576 16.3129 60.052C8.83156 48.5682 6.59993 36.6207 10.1833 27.2679C12.8573 20.2977 18.4315 15.5078 26.311 13.4261C45.2454 8.42418 71.5923 21.1462 85.0361 41.7904C92.5174 53.2742 94.749 65.2217 91.1657 74.5745C88.4917 81.5447 82.9175 86.3346 75.0331 88.4163C72.2509 89.1513 69.3017 89.5064 66.259 89.5064L66.2688 89.5015ZM35.0998 12.6615C32.0817 12.6615 29.1619 13.0118 26.3945 13.7419C18.6183 15.7939 13.1178 20.5147 10.4832 27.3814C6.93419 36.6355 9.16089 48.4794 16.5833 59.8695C29.9582 80.4003 56.143 93.0631 74.9545 88.0956C82.7307 86.0435 88.2311 81.3227 90.8658 74.4561C94.4148 65.202 92.1881 53.3581 84.7657 41.968C73.3569 24.4512 52.6186 12.6615 35.0949 12.6615H35.0998Z" fill="#FFC300"/>
<path d="M64.7991 89.6937C49.0549 89.6937 30.9807 81.6284 18.6724 67.8064C8.97909 56.9293 4.54533 44.4737 6.50169 33.641C7.9026 25.8766 12.4396 19.7746 19.6211 15.996C37.2627 6.71227 65.5512 14.8072 82.6816 34.0357C92.37 44.9127 96.8038 57.3683 94.8474 68.201C93.4465 75.9654 88.9095 82.0674 81.728 85.846L81.6494 85.6981L81.728 85.846C76.7634 88.4556 70.9582 89.6937 64.7942 89.6937H64.7991ZM36.5647 12.4788C30.4548 12.4788 24.6988 13.7022 19.7784 16.292C12.6952 20.0213 8.21719 26.0394 6.83103 33.6953C4.89433 44.4244 9.29859 56.7764 18.9182 67.5745C31.1626 81.3226 49.1385 89.3533 64.7844 89.3533C70.8943 89.3533 76.6504 88.13 81.5707 85.5402C88.6539 81.8109 93.1319 75.7928 94.5181 68.1369C96.4548 57.4078 92.0505 45.0558 82.4309 34.2576C70.1865 20.5096 52.2106 12.4788 36.5647 12.4788Z" fill="#FFC300"/>
<path d="M62.0611 90.34C48.7894 90.34 34.1757 85.2887 22.4572 75.5857C10.896 66.0109 4.17656 53.6638 4.02418 41.7163C3.91112 33.1281 7.20449 25.6646 13.5454 20.1299C29.1029 6.54957 58.4188 9.29721 78.8966 26.2516C90.4578 35.8264 97.1772 48.1735 97.3345 60.121C97.4476 68.7092 94.1542 76.1727 87.8133 81.7074C81.1577 87.5184 71.9855 90.34 62.066 90.34H62.0611ZM39.2927 11.8475C29.4568 11.8475 20.3681 14.6396 13.7765 20.3963C7.51908 25.857 4.26504 33.2317 4.37809 41.7114C4.53047 53.5553 11.2057 65.8037 22.6882 75.3144C43.0333 92.1652 72.1477 94.9178 87.5822 81.446L87.7002 81.5792L87.5822 81.446C93.8396 75.9853 97.0937 68.6105 96.9806 60.1309C96.8282 48.2869 90.153 36.0385 78.6705 26.5279C67.0159 16.8742 52.4809 11.8475 39.2927 11.8475Z" fill="#FFC300"/>
<path d="M58.5024 91.7163C48.2782 91.7163 37.4445 88.9046 27.6578 83.1035C14.7547 75.4525 5.85769 63.9194 3.25249 51.4638C1.3158 42.2195 3.12961 33.1084 8.35967 25.8028C21.0563 8.07387 50.3624 4.90201 73.6961 18.7388C86.5992 26.3898 95.4913 37.9229 98.1014 50.3736C100.038 59.6179 98.2243 68.729 92.9942 76.0346L92.8467 75.9261L92.9942 76.0346C85.6259 86.3296 72.654 91.7163 58.5024 91.7163ZM42.8417 10.4861C28.808 10.4861 15.959 15.8185 8.65459 26.0198C3.4147 33.3452 1.66971 42.1159 3.61132 51.3898C6.19686 63.7418 15.03 75.1861 27.8446 82.7878C37.5723 88.5593 48.3519 91.3562 58.5073 91.3562C72.5409 91.3562 85.39 86.0238 92.6895 75.8225C97.9343 68.502 99.6793 59.7264 97.7376 50.4525C95.1521 38.1005 86.319 26.6562 73.5044 19.0545C63.7767 13.283 52.997 10.4861 42.8417 10.4861Z" fill="#FFC300"/>
<path d="M54.9632 93.9707C48.1307 93.9707 41.0672 92.7079 34.1905 90.0392C20.5943 84.7659 9.85398 74.757 4.71239 62.5875C0.563739 52.7612 0.435937 42.2343 4.35357 32.9407C13.4472 11.374 41.6177 1.88803 67.1585 11.7983C80.7547 17.0715 91.495 27.0804 96.6366 39.2499C100.785 49.0763 100.913 59.608 96.9954 68.9016C90.3497 84.6623 73.5142 93.9707 54.9632 93.9707ZM46.3808 8.25149C27.9822 8.25149 11.2893 17.4711 4.70748 33.0887C0.829174 42.2836 0.956976 52.7069 5.06631 62.4395C10.1636 74.5153 20.8302 84.4452 34.3281 89.6791C59.6772 99.5153 87.6314 90.128 96.6415 68.7487C100.52 59.5538 100.392 49.1305 96.2827 39.3979C91.1853 27.3221 80.5188 17.3922 67.0209 12.1584C60.1884 9.50938 53.1691 8.25149 46.3808 8.25149Z" fill="#FFC300"/>
<path d="M52.2351 97.0833C48.8434 97.0833 45.3977 96.7578 41.9274 96.082C28.867 93.5366 17.5024 86.443 9.91784 76.1185C2.33327 65.784 -0.561946 53.4468 1.77782 41.3809C6.59989 16.4795 32.4602 0.496895 59.4215 5.76031C86.3829 11.0188 104.398 35.56 99.5711 60.4614L99.3745 60.4219L99.5711 60.4614C95.3684 82.1613 75.1904 97.0883 52.2302 97.0883L52.2351 97.0833ZM49.1187 5.1585C26.3453 5.1585 6.33446 19.9474 2.17106 41.4598C-0.14413 53.4172 2.72159 65.6409 10.2423 75.8817C17.7678 86.1273 29.0488 93.1617 42.006 95.6923C45.4468 96.3631 48.8729 96.6887 52.2351 96.6887C75.0085 96.6887 95.0193 81.8949 99.1828 60.3874C103.965 35.7031 86.0929 11.374 59.3478 6.15495C55.907 5.48407 52.4809 5.1585 49.1187 5.1585Z" fill="#FFC300"/>
<path d="M50.677 100.921C23.2044 100.921 0.85376 78.4912 0.85376 50.9211C0.85376 23.3511 23.2044 0.921143 50.677 0.921143C78.1495 0.921143 100.5 23.3511 100.5 50.9211C100.5 78.4912 78.1495 100.921 50.677 100.921ZM50.677 1.34044C23.4354 1.34044 1.27157 23.5829 1.27157 50.9211C1.27157 78.2593 23.4354 100.502 50.677 100.502C77.9185 100.502 100.082 78.2593 100.082 50.9211C100.082 23.5829 77.9185 1.34044 50.677 1.34044Z" fill="#FFC300"/>
</g>
<defs>
<clipPath id="clip0_4511_69285">
<rect width="99.6464" height="100" fill="white" transform="translate(0.85376 0.921143)"/>
</clipPath>
</defs>
</svg>
