<svg width="80" height="94" viewBox="0 0 80 94" fill="none" xmlns="http://www.w3.org/2000/svg">
<g clip-path="url(#clip0_4548_73782)">
<path d="M37.8054 53.1083C37.7717 53.1083 37.7379 53.0914 37.7126 53.0661L33.6698 48.1844C33.6445 48.1507 33.6361 48.1043 33.6488 48.0663L35.803 42.0759C35.8156 42.0337 35.8535 42.0042 35.8957 42L42.0927 40.8913C42.1349 40.8829 42.177 40.8997 42.2023 40.9335L46.2451 45.8152C46.2704 45.8489 46.2788 45.8953 46.2662 45.9332L44.112 51.9237C44.0994 51.9658 44.0614 51.9953 44.0193 51.9996L37.8222 53.1083C37.8222 53.1083 37.8096 53.1083 37.8012 53.1083H37.8054ZM33.8975 48.0832L37.8518 52.8595L43.9139 51.7761L46.0217 45.9164L42.0674 41.14L36.0053 42.2235L33.8975 48.0832Z" fill="#0057FF"/>
<path d="M37.1266 53.2644C37.0886 53.2644 37.0507 53.2434 37.0296 53.2139L33.1892 47.6618C33.1639 47.6281 33.1597 47.5817 33.1807 47.5438L36.0094 41.3974C36.0263 41.3594 36.0642 41.3342 36.1064 41.3299L42.7756 40.7397C42.8177 40.7397 42.8599 40.7566 42.8809 40.7903L46.7214 46.3423C46.7467 46.3761 46.7509 46.4224 46.7298 46.4604L43.9011 52.6068C43.8843 52.6447 43.8463 52.67 43.8042 52.6743L37.135 53.2644H37.1266ZM33.4252 47.5817L37.1856 53.0199L43.7199 52.4382L46.4938 46.4182L42.7334 40.98L36.1991 41.5618L33.4252 47.5817Z" fill="#0057FF"/>
<path d="M43.5176 53.3656H36.3974C36.3552 53.3656 36.3173 53.3445 36.2962 53.3066L32.7339 47.059C32.7129 47.0211 32.7129 46.9747 32.7339 46.9367L36.2962 40.6891C36.3173 40.6512 36.3552 40.6301 36.3974 40.6301H43.5176C43.5597 40.6301 43.5977 40.6512 43.6188 40.6891L47.181 46.9367C47.2021 46.9747 47.2021 47.0211 47.181 47.059L43.6188 53.3066C43.5977 53.3445 43.5597 53.3656 43.5176 53.3656ZM36.4648 53.1253H43.4501L46.9407 47L43.4501 40.8746H36.4648L32.9742 47L36.4648 53.1253Z" fill="#0057FF"/>
<path d="M43.1593 54.0738H43.1509L35.6048 53.4035C35.5627 53.4035 35.5247 53.374 35.5079 53.3361L32.304 46.3802C32.2871 46.3423 32.2913 46.2959 32.3124 46.2622L36.6588 39.9767C36.684 39.9429 36.7262 39.9219 36.7641 39.9261L44.3102 40.5964C44.3523 40.5964 44.3903 40.6259 44.4071 40.6638L47.611 47.6196C47.6279 47.6576 47.6237 47.704 47.6026 47.7377L43.2562 54.0232C43.2352 54.0569 43.1972 54.0738 43.1593 54.0738ZM35.6892 53.1717L43.1003 53.8293L47.3665 47.6576L44.2216 40.8282L36.8105 40.1706L32.5443 46.3423L35.6892 53.1717Z" fill="#0057FF"/>
<path d="M42.7165 54.7905C42.7165 54.7905 42.7039 54.7905 42.6955 54.7905L34.7574 53.3698C34.7152 53.3614 34.6815 53.3319 34.6646 53.2939L31.9076 45.6214C31.895 45.5793 31.8992 45.5371 31.9287 45.5034L37.1055 39.2516C37.1308 39.2179 37.173 39.201 37.2151 39.2094L45.1532 40.6301C45.1953 40.6385 45.2291 40.668 45.2459 40.706L48.003 48.3785C48.0156 48.4206 48.0114 48.4628 47.9819 48.4965L42.8051 54.7483C42.784 54.7778 42.7503 54.7905 42.7123 54.7905H42.7165ZM34.867 53.1422L42.6702 54.5375L47.7585 48.3911L45.0478 40.8493L37.2446 39.4539L32.1563 45.6004L34.867 53.1422Z" fill="#0057FF"/>
<path d="M42.1812 55.507C42.1812 55.507 42.1602 55.507 42.1517 55.507L33.868 53.2558C33.8258 53.2432 33.7963 53.2137 33.7837 53.1715L31.562 44.7824C31.5494 44.7402 31.562 44.6981 31.5915 44.6643L37.6494 38.5263C37.6789 38.4968 37.7211 38.4842 37.7632 38.4968L46.047 40.748C46.0892 40.7606 46.1187 40.7901 46.1313 40.8323L48.353 49.2214C48.3656 49.2636 48.353 49.3058 48.3234 49.3395L42.2656 55.4775C42.2445 55.4986 42.2108 55.5112 42.1812 55.5112V55.507ZM33.9944 53.0366L42.1433 55.254L48.1042 49.213L45.9163 40.9588L37.7675 38.7413L31.8065 44.7824L33.9944 53.0366Z" fill="#0057FF"/>
<path d="M41.5488 56.2194C41.5488 56.2194 41.5235 56.2194 41.5067 56.211L32.9363 53.045C32.8983 53.0324 32.8688 52.9945 32.8604 52.9523L31.2711 43.8507C31.2626 43.8085 31.2795 43.7664 31.3132 43.7369L38.2943 37.8012C38.3281 37.7717 38.3702 37.7675 38.4124 37.7802L46.9828 40.9461C47.0208 40.9588 47.0503 40.9967 47.0587 41.0389L48.648 50.1405C48.6564 50.1826 48.6396 50.2248 48.6058 50.2543L41.6247 56.1899C41.6036 56.2068 41.5741 56.2194 41.5488 56.2194ZM33.0838 52.8469L41.5278 55.9665L48.4035 50.1194L46.8395 41.1569L38.3955 38.0373L31.5198 43.8844L33.0838 52.8469Z" fill="#0057FF"/>
<path d="M40.8111 56.9152C40.8111 56.9152 40.7773 56.9152 40.7605 56.9026L31.9666 52.7417C31.9287 52.7248 31.9034 52.6869 31.8992 52.6447L31.0476 42.8518C31.0476 42.8096 31.0645 42.7675 31.0982 42.7422L39.0405 37.1101C39.0742 37.0848 39.1206 37.0806 39.1585 37.1016L47.9524 41.2625C47.9903 41.2793 48.0156 41.3173 48.0198 41.3594L48.8714 51.1524C48.8714 51.1946 48.8545 51.2367 48.8208 51.262L40.8785 56.8941C40.8785 56.8941 40.8364 56.9152 40.8111 56.9152ZM32.1268 52.5562L40.7984 56.658L48.6269 51.106L47.788 41.4522L39.1164 37.3504L31.2879 42.9024L32.1268 52.5562Z" fill="#0057FF"/>
<path d="M39.968 57.5771C39.968 57.5771 39.9259 57.5728 39.909 57.5602L30.9676 52.3243C30.9297 52.3033 30.9086 52.2611 30.9086 52.219L30.9001 41.7599C30.9001 41.7178 30.9212 41.6756 30.9592 41.6545L39.8921 36.4313C39.9301 36.4103 39.9722 36.4103 40.0102 36.4313L48.9516 41.6672C48.9895 41.6883 49.0106 41.7304 49.0106 41.7726L49.019 52.2316C49.019 52.2738 48.9979 52.3159 48.96 52.337L40.027 57.5602C40.027 57.5602 39.9891 57.5771 39.968 57.5771ZM31.1489 52.1515L39.968 57.3199L48.7829 52.1684L48.7745 41.8485L39.9554 36.6801L31.1404 41.8316L31.1489 52.1515Z" fill="#0057FF"/>
<path d="M39.011 58.205C38.9857 58.205 38.9646 58.1966 38.9436 58.184L29.9474 51.793C29.9136 51.7677 29.8926 51.7256 29.8968 51.6834L30.8453 40.6005C30.8453 40.5583 30.8748 40.5204 30.9127 40.5035L40.8575 35.8073C40.8954 35.7904 40.9418 35.7946 40.9755 35.8157L49.9717 42.2066C50.0054 42.2319 50.0265 42.2741 50.0223 42.3162L49.0738 53.3992C49.0738 53.4414 49.0443 53.4793 49.0063 53.4962L39.0616 58.1924C39.0616 58.1924 39.0279 58.205 39.011 58.205ZM30.1413 51.6371L39.0237 57.9479L48.8419 53.3107L49.7778 42.3626L40.8954 36.0518L31.0772 40.689L30.1413 51.6371Z" fill="#0057FF"/>
<path d="M37.9402 58.7785C37.9107 58.7785 37.8854 58.7701 37.8644 58.749L28.9145 51.1313C28.8808 51.1018 28.8681 51.0596 28.8724 51.0175L30.8874 39.3612C30.8959 39.319 30.9254 39.2853 30.9633 39.2685L41.9282 35.2299C41.9662 35.2172 42.0126 35.2214 42.0463 35.2509L50.9961 42.8686C51.0298 42.8981 51.0425 42.9403 51.0383 42.9825L49.0232 54.6387C49.0148 54.6809 48.9852 54.7146 48.9473 54.7315L37.9824 58.7701C37.9824 58.7701 37.9571 58.7785 37.9402 58.7785ZM29.1211 50.9922L37.9655 58.5213L48.804 54.5291L50.798 43.0077L41.9535 35.4786L31.1151 39.4708L29.1211 50.9922Z" fill="#0057FF"/>
<path d="M36.7556 59.2844C36.7261 59.2844 36.6924 59.2718 36.6713 59.2507L27.8817 50.3346C27.8522 50.3051 27.8395 50.2587 27.8522 50.2165L31.0561 38.0502C31.0687 38.008 31.0982 37.9743 31.1404 37.9658L43.1297 34.7156C43.1718 34.7029 43.214 34.7156 43.2435 34.7451L52.0331 43.6612C52.0627 43.6907 52.0753 43.7371 52.0627 43.7792L48.8588 55.9456C48.8461 55.9878 48.8166 56.0215 48.7745 56.0299L36.7851 59.2802C36.7851 59.2802 36.7641 59.2802 36.7556 59.2802V59.2844ZM28.1009 50.2123L36.7936 59.0315L48.6522 55.8191L51.8181 43.7877L43.1255 34.9685L31.2669 38.1808L28.1009 50.2123Z" fill="#0057FF"/>
<path d="M35.453 59.7101C35.4193 59.7101 35.3855 59.6932 35.3602 59.6679L26.8615 49.3944C26.8362 49.3606 26.8278 49.3185 26.8404 49.2763L31.3469 36.6842C31.3596 36.642 31.3975 36.6125 31.4397 36.6083L44.445 34.2939C44.4871 34.2855 44.5293 34.3023 44.5546 34.3361L53.0533 44.6096C53.0786 44.6433 53.0871 44.6855 53.0744 44.7276L48.5679 57.3198C48.5552 57.3619 48.5173 57.3915 48.4751 57.3957L35.4698 59.7101C35.4698 59.7101 35.4572 59.7101 35.4488 59.7101H35.453ZM27.0891 49.289L35.4994 59.4571L48.3697 57.1638L52.8299 44.7023L44.4197 34.5342L31.5493 36.8275L27.0891 49.289Z" fill="#0057FF"/>
<path d="M34.0324 60.039C33.9944 60.039 33.9565 60.0179 33.9354 59.9884L25.8667 48.2984C25.8414 48.2646 25.8371 48.2183 25.8582 48.1803L31.7854 35.2594C31.8023 35.2214 31.8402 35.1961 31.8824 35.1919L45.8783 33.9609C45.9205 33.9609 45.9627 33.9778 45.9837 34.0115L54.0525 45.7015C54.0778 45.7353 54.082 45.7816 54.0609 45.8196L48.1337 58.7405C48.1169 58.7785 48.0789 58.808 48.0368 58.808L34.0408 60.039H34.0324ZM26.1027 48.2183L34.0914 59.7945L47.9482 58.5761L53.8164 45.7816L45.8278 34.2054L31.9709 35.4238L26.1027 48.2183Z" fill="#0057FF"/>
<path d="M47.4382 60.2665L32.4937 60.2539C32.4515 60.2539 32.4136 60.2328 32.3925 60.1949L24.9097 47.0463C24.8887 47.0083 24.8887 46.9619 24.9097 46.924L32.3714 33.788C32.3925 33.7501 32.4305 33.729 32.4726 33.729L47.4171 33.7417C47.4592 33.7417 47.4972 33.7627 47.5183 33.8007L55.001 46.9493C55.0221 46.9872 55.0221 47.0336 55.001 47.0715L47.5393 60.2075C47.5183 60.2455 47.4803 60.2665 47.4382 60.2665ZM32.5611 60.0136L47.3665 60.0262L54.7608 47.0125L47.3454 33.9862L32.5401 33.9735L25.1458 46.9872L32.5611 60.0136Z" fill="#0057FF"/>
<path d="M46.6835 61.7547H46.675L30.841 60.3383C30.7989 60.3383 30.7609 60.3088 30.7441 60.2708L24.0159 45.6341C23.999 45.5961 24.0033 45.5498 24.0243 45.516L33.1344 32.2958C33.1596 32.262 33.2018 32.2409 33.244 32.2452L49.0779 33.6616C49.1201 33.6616 49.158 33.6911 49.1749 33.7291L55.9031 48.3658C55.92 48.4038 55.9157 48.4501 55.8947 48.4839L46.7846 61.7041C46.7636 61.7379 46.7256 61.7547 46.6877 61.7547H46.6835ZM30.9254 60.1022L46.6244 61.5102L55.6544 48.4038L48.9852 33.8935L33.2861 32.4897L24.2562 45.5961L30.9254 60.1064V60.1022Z" fill="#0057FF"/>
<path d="M45.7518 63.264C45.7518 63.264 45.7392 63.264 45.7307 63.264L29.0789 60.2709C29.0367 60.2625 29.003 60.233 28.9862 60.195L23.1939 44.0491C23.1812 44.0069 23.1854 43.9648 23.2149 43.931L34.0745 30.7782C34.0997 30.7445 34.1419 30.7276 34.1841 30.736L50.8359 33.7291C50.878 33.7376 50.9118 33.7671 50.9286 33.805L56.7209 49.951C56.7336 49.9931 56.7294 50.0353 56.6999 50.069L45.8403 63.2219C45.8193 63.2514 45.7855 63.264 45.7476 63.264H45.7518ZM29.1885 60.0432L45.7054 63.0111L56.4764 49.9636L50.7305 33.9484L34.2136 30.9805L23.4426 44.028L29.1885 60.0432Z" fill="#0057FF"/>
<path d="M44.6221 64.7731C44.6221 64.7731 44.601 64.7731 44.5926 64.7731L27.2157 60.0347C27.1735 60.0221 27.144 59.9926 27.1314 59.9504L22.4689 42.2953C22.4562 42.2531 22.4689 42.211 22.4984 42.1772L35.2086 29.2605C35.2381 29.231 35.2802 29.2183 35.3224 29.231L52.6993 33.9694C52.7415 33.982 52.771 34.0115 52.7836 34.0537L57.4461 51.7088C57.4588 51.751 57.4461 51.7931 57.4166 51.8269L44.7064 64.7436C44.6854 64.7647 44.6516 64.7773 44.6221 64.7773V64.7731ZM27.3422 59.8155L44.5842 64.516L57.1974 51.6962L52.5686 34.1759L35.3266 29.4755L22.7134 42.2953L27.3422 59.8155Z" fill="#0057FF"/>
<path d="M43.2857 66.2695C43.2857 66.2695 43.2562 66.2695 43.2436 66.2611L25.2638 59.6046C25.2259 59.5877 25.1963 59.554 25.1879 59.5118L21.8618 40.3644C21.8533 40.3222 21.8702 40.28 21.9039 40.2505L36.5575 27.7553C36.5913 27.7258 36.6334 27.7216 36.6756 27.7343L54.6553 34.3908C54.6933 34.4034 54.7228 34.4414 54.7312 34.4835L58.0574 53.631C58.0658 53.6732 58.0489 53.7153 58.0152 53.7448L43.3616 66.24C43.3405 66.2569 43.311 66.2695 43.2857 66.2695ZM25.4113 59.4065L43.2646 66.0124L57.8129 53.6099L54.5078 34.5973L36.6545 27.9914L22.1063 40.3939L25.4113 59.4065Z" fill="#0057FF"/>
<path d="M41.7344 67.7283C41.7344 67.7283 41.7007 67.7283 41.6838 67.7156L23.2361 58.9724C23.1982 58.9555 23.1729 58.9176 23.1687 58.8754L21.3896 38.2693C21.3896 38.2271 21.4065 38.185 21.4402 38.1597L38.1089 26.2968C38.1426 26.2715 38.189 26.2673 38.227 26.2884L56.6747 35.0317C56.7126 35.0485 56.7379 35.0865 56.7421 35.1286L58.5211 55.7347C58.5211 55.7769 58.5042 55.8191 58.4705 55.8444L41.8018 67.7072C41.8018 67.7072 41.7597 67.7283 41.7344 67.7283ZM23.4005 58.7827L41.7217 67.4669L58.2808 55.6842L56.5145 35.2172L38.1932 26.5329L21.6342 38.3157L23.4005 58.7827Z" fill="#0057FF"/>
<path d="M39.9596 69.1238C39.9596 69.1238 39.9174 69.1195 39.9006 69.1069L21.1494 58.104C21.1114 58.083 21.0903 58.0408 21.0903 57.9987V35.993C21.0903 35.9508 21.1114 35.9086 21.1494 35.8876L39.9006 24.8847C39.9385 24.8636 39.9807 24.8636 40.0186 24.8847L58.7698 35.8876C58.8078 35.9086 58.8289 35.9508 58.8289 35.993V57.9987C58.8289 58.0408 58.8078 58.083 58.7698 58.104L40.0186 69.1069C40.0186 69.1069 39.9807 69.1238 39.9596 69.1238ZM21.3264 57.9312L39.9596 68.8624L58.5928 57.9312V36.0646L39.9596 25.1334L21.3264 36.0646V57.9312Z" fill="#0057FF"/>
<path d="M37.9487 70.4389C37.9234 70.4389 37.9023 70.4304 37.8813 70.4178L19.0162 56.9951C18.9825 56.9699 18.9614 56.9277 18.9656 56.8855L20.9765 33.5646C20.9765 33.5224 21.006 33.4845 21.0439 33.4676L41.9199 23.5692C41.9578 23.5524 42.0042 23.5566 42.0379 23.5777L60.9029 37.0003C60.9367 37.0256 60.9577 37.0678 60.9535 37.1099L58.9427 60.4309C58.9427 60.4731 58.9132 60.511 58.8752 60.5279L37.9993 70.4262C37.9993 70.4262 37.9656 70.4389 37.9487 70.4389ZM19.2059 56.8349L37.9614 70.1775L58.715 60.3382L60.7132 37.1563L41.9578 23.8138L21.2041 33.6531L19.2059 56.8349Z" fill="#0057FF"/>
<path d="M35.6976 71.6445C35.6681 71.6445 35.6428 71.6361 35.6217 71.615L16.8536 55.6124C16.8199 55.5829 16.8072 55.5407 16.8115 55.4986L21.0735 30.9719C21.0819 30.9297 21.1114 30.896 21.1494 30.8792L44.1795 22.3551C44.2174 22.3425 44.2638 22.3467 44.2975 22.3762L63.0656 38.3788C63.0993 38.4083 63.112 38.4505 63.1077 38.4926L58.8457 63.0193C58.8373 63.0615 58.8078 63.0952 58.7698 63.112L35.7397 71.6361C35.7397 71.6361 35.7144 71.6445 35.6976 71.6445ZM17.0602 55.4733L35.7229 71.3874L58.6223 62.9097L62.8632 38.5221L44.2005 22.608L21.3011 31.0857L17.0602 55.4733Z" fill="#0057FF"/>
<path d="M33.1977 72.7112C33.1682 72.7112 33.1344 72.6986 33.1134 72.6775L14.6867 53.9558C14.6572 53.9263 14.6446 53.8799 14.6572 53.8377L21.4149 28.2487C21.4276 28.2066 21.4571 28.1728 21.4992 28.1644L46.6835 21.2971C46.7257 21.2845 46.7679 21.2971 46.7974 21.3266L65.224 40.0483C65.2535 40.0779 65.2661 40.1242 65.2535 40.1664L58.4958 65.7596C58.4832 65.8018 58.4536 65.8355 58.4115 65.8439L33.2272 72.7112C33.2272 72.7112 33.2061 72.7112 33.1977 72.7112ZM14.9017 53.8335L33.2314 72.4583L58.285 65.6247L65.009 40.1664L46.6793 21.5416L21.6257 28.3752L14.9017 53.8335Z" fill="#0057FF"/>
<path d="M30.4574 73.6049C30.4237 73.6049 30.39 73.5881 30.3647 73.5628L12.5493 51.9871C12.5241 51.9533 12.5156 51.907 12.5283 51.869L22.0304 25.3821C22.043 25.3399 22.0809 25.3104 22.1231 25.3062L49.4405 20.395C49.4827 20.3865 49.5248 20.4034 49.5501 20.4371L67.3655 42.0128C67.3908 42.0466 67.3992 42.0887 67.3866 42.1309L57.8845 68.6178C57.8718 68.66 57.8339 68.6895 57.7917 68.6937L30.4743 73.6049C30.4743 73.6049 30.4617 73.6049 30.4532 73.6049H30.4574ZM12.7728 51.8859L30.5038 73.3562L57.6863 68.4703L67.142 42.114L49.411 20.6437L22.2285 25.5296L12.7728 51.8859Z" fill="#0057FF"/>
<path d="M27.4686 74.2963C27.4307 74.2963 27.3927 74.2752 27.3716 74.2457L10.4585 49.7022C10.4332 49.6685 10.4289 49.6221 10.45 49.5842L22.941 22.4058C22.9579 22.3679 22.9958 22.3426 23.038 22.3384L52.4379 19.7036C52.4801 19.7036 52.5222 19.7205 52.5475 19.7542L69.4565 44.2977C69.4818 44.3315 69.486 44.3778 69.4649 44.4158L56.974 71.5899C56.9571 71.6278 56.9192 71.6531 56.877 71.6573L27.477 74.2921H27.4686V74.2963ZM10.6945 49.6221L27.5276 74.0518L56.7927 71.4297L69.2246 44.382L52.3915 19.9523L23.1265 22.5745L10.6945 49.6221Z" fill="#0057FF"/>
<path d="M24.2394 74.743C24.1972 74.743 24.1593 74.7219 24.1382 74.684L8.45599 47.0841C8.43492 47.0462 8.43492 46.9998 8.45599 46.9619L24.1762 19.3409C24.1972 19.303 24.2352 19.2819 24.2773 19.2819L55.6755 19.2566C55.7177 19.2566 55.7556 19.2777 55.7767 19.3156L71.4547 46.9155C71.4758 46.9534 71.4758 46.9998 71.4547 47.0377L55.7345 74.6629C55.7135 74.7009 55.6755 74.7219 55.6334 74.7219L24.2352 74.7472L24.2394 74.743ZM8.69629 47.0251L24.3068 74.5027L55.5701 74.4774L71.2229 46.9745L55.6123 19.4969L24.349 19.5222L8.69629 47.0251Z" fill="#0057FF"/>
<path d="M54.0525 77.846H54.044L20.7657 74.9161C20.7235 74.9161 20.6856 74.8866 20.6687 74.8486L6.57156 44.125C6.5547 44.087 6.55892 44.0406 6.57999 44.0069L25.7696 16.2047C25.7949 16.171 25.8329 16.1499 25.875 16.1541L59.1534 19.0798C59.1956 19.0798 59.2335 19.1093 59.2504 19.1472L73.3433 49.8709C73.3601 49.9088 73.3559 49.9552 73.3348 49.9889L54.1494 77.7869C54.1283 77.8207 54.0904 77.8375 54.0525 77.8375V77.846ZM20.8542 74.6842L53.9977 77.6015L73.103 49.9173L59.0691 19.3201L25.9256 16.4028L6.81607 44.0828L20.85 74.68L20.8542 74.6842Z" fill="#0057FF"/>
<path d="M52.088 81.0075C52.088 81.0075 52.0754 81.0075 52.0669 81.0075L17.0686 74.7767C17.0264 74.7683 16.9927 74.7388 16.9759 74.7009L4.84742 40.807C4.83477 40.7649 4.83899 40.7227 4.8685 40.689L27.7384 13.0343C27.7637 13.0006 27.8101 12.9837 27.848 12.9921L62.8464 19.2271C62.8885 19.2355 62.9223 19.265 62.9391 19.303L75.0676 53.1884C75.0802 53.2305 75.076 53.2727 75.0465 53.3064L52.1723 80.9611C52.1513 80.9906 52.1175 81.0033 52.0796 81.0033L52.088 81.0075ZM17.174 74.5491L52.0374 80.7588L74.823 53.2095L62.741 19.4547L27.8775 13.2451L5.09193 40.7901L17.174 74.5449V74.5491Z" fill="#0057FF"/>
<path d="M49.7145 84.1736C49.7145 84.1736 49.6935 84.1736 49.685 84.1736L13.1606 74.2753C13.1185 74.2626 13.089 74.2331 13.0763 74.1909L3.32129 37.1311C3.30864 37.089 3.32129 37.0468 3.3508 37.0131L30.1202 9.86008C30.1497 9.83057 30.1961 9.81792 30.234 9.83057L66.7584 19.7289C66.8006 19.7416 66.8301 19.7711 66.8427 19.8132L76.5978 56.8688C76.6104 56.911 76.5978 56.9531 76.5683 56.9869L49.8031 84.1441C49.782 84.1652 49.7483 84.1778 49.7188 84.1778L49.7145 84.1736ZM13.2871 74.056L49.6766 83.9165L76.3448 56.8604L66.6235 19.9397L30.2382 10.0793L3.5658 37.1396L13.2871 74.0602V74.056Z" fill="#0057FF"/>
<path d="M46.9112 87.3059C46.9112 87.3059 46.8859 87.3059 46.869 87.2974L9.06724 73.3731C9.0293 73.3605 8.99979 73.3225 8.99136 73.2804L2.03975 33.0968C2.03131 33.0546 2.04818 33.0125 2.0819 32.983L32.9278 6.71945C32.9616 6.68994 33.0037 6.68573 33.0459 6.69837L70.8476 20.6227C70.8856 20.6353 70.9151 20.6733 70.9235 20.7154L77.8751 60.9032C77.8836 60.9454 77.8667 60.9875 77.833 61.0171L46.9828 87.2764C46.9617 87.2932 46.9322 87.3059 46.9069 87.3059H46.9112ZM9.21479 73.1708L46.8859 87.0487L77.6306 60.8779L70.7001 20.8292L33.029 6.95131L2.28425 33.1221L9.21479 73.1708Z" fill="#0057FF"/>
<path d="M43.6525 90.3622C43.6525 90.3622 43.6187 90.3622 43.6019 90.3496L4.81365 72.0368C4.77571 72.0199 4.75042 71.982 4.7462 71.9398L1.04907 28.6956C1.04907 28.6535 1.06593 28.6113 1.09966 28.586L36.195 3.65889C36.2287 3.6336 36.2751 3.62938 36.313 3.65046L75.1012 21.9633C75.1392 21.9801 75.1645 22.0181 75.1687 22.0602L78.8658 65.3044C78.8658 65.3465 78.8489 65.3887 78.8152 65.414L43.7241 90.3453C43.7241 90.3453 43.682 90.3664 43.6567 90.3664L43.6525 90.3622ZM4.97806 71.8513L43.644 90.105L78.6255 65.2538L74.941 22.1487L36.2751 3.89497L1.29358 28.7462L4.97806 71.8513Z" fill="#0057FF"/>
<path d="M39.9216 93.2961C39.9216 93.2961 39.8795 93.2919 39.8626 93.2793L0.42938 70.2239C0.39144 70.2028 0.370361 70.1606 0.370361 70.1185L0.404087 23.9444C0.404087 23.9023 0.425165 23.8601 0.463106 23.839L39.9343 0.720399C39.9722 0.69932 40.0144 0.69932 40.0523 0.720399L79.4855 23.7758C79.5235 23.7969 79.5445 23.839 79.5445 23.8812L79.5108 70.0552C79.5108 70.0974 79.4897 70.1395 79.4518 70.1606L39.9806 93.2793C39.9806 93.2793 39.9427 93.2961 39.9216 93.2961ZM0.606438 70.051L39.9216 93.039L79.2705 69.9878L79.3042 23.9529L39.9933 0.960691L0.644379 24.0119L0.610654 70.0468L0.606438 70.051Z" fill="#0057FF"/>
</g>
<defs>
<clipPath id="clip0_4548_73782">
<rect width="79.1742" height="92.5926" fill="white" transform="translate(0.370361 0.703613)"/>
</clipPath>
</defs>
</svg>
