<svg width="106" height="93" viewBox="0 0 106 93" fill="none" xmlns="http://www.w3.org/2000/svg">
<path d="M24.9317 85.5106C24.3435 85.5106 23.814 85.344 23.3777 85.0204C22.6866 84.5057 22.3238 83.6478 22.3532 82.6086L23.7944 29.2204C23.8532 27.0733 25.5935 24.7792 27.6719 24.0978L79.4621 7.23472C80.4964 6.89648 81.4572 7.00433 82.1631 7.53375C82.8543 8.04846 83.217 8.90632 83.1876 9.94556L81.7464 63.3338C81.6876 65.4809 79.9474 67.775 77.8689 68.4564L26.0788 85.3194C25.6817 85.4469 25.2945 85.5106 24.9317 85.5106ZM80.6092 7.22492C80.266 7.22492 79.8984 7.28374 79.5209 7.4112L27.7308 24.2742C25.716 24.9311 24.0346 27.1517 23.9807 29.2253L22.5395 82.6135C22.515 83.589 22.8532 84.393 23.4905 84.8685C24.1474 85.3587 25.0493 85.4567 26.0249 85.1381L77.815 68.275C79.8297 67.6181 81.5111 65.3975 81.5651 63.3239L83.0063 9.93575C83.0308 8.96024 82.6925 8.15631 82.0553 7.68081C81.6533 7.37688 81.1582 7.22492 80.6092 7.22492Z" fill="#21CFA5"/>
<path d="M21.9064 84.0804C21.2201 84.0804 20.6171 83.8696 20.1465 83.453C19.4799 82.8647 19.1808 81.9431 19.2985 80.8549L25.3917 26.1529C25.6368 23.9568 27.5682 21.7509 29.7006 21.246L82.7604 8.57909C83.7996 8.32909 84.7359 8.51536 85.3928 9.09871C86.0595 9.68695 86.3585 10.6085 86.2408 11.6968L80.1476 66.3987C79.9025 68.5949 77.9711 70.8008 75.8387 71.3057L22.7789 83.9726C22.475 84.0461 22.1858 84.0804 21.9015 84.0804H21.9064ZM83.6379 8.66242C83.3731 8.66242 83.0937 8.69674 82.8045 8.76537L29.7448 21.4323C27.681 21.9225 25.8133 24.0549 25.578 26.1823L19.4848 80.8843C19.372 81.9088 19.6514 82.7716 20.2691 83.3206C20.8819 83.8598 21.7544 84.0314 22.7348 83.7961L75.7946 71.1292C77.8583 70.639 79.726 68.5066 79.9613 66.3791L86.0546 11.6772C86.1673 10.6527 85.8879 9.7899 85.2702 9.24087C84.8389 8.85851 84.2751 8.66242 83.633 8.66242H83.6379Z" fill="#21CFA5"/>
<path d="M19.0295 82.3391C18.2354 82.3391 17.5491 82.0695 17.0589 81.5597C16.4216 80.893 16.1912 79.9077 16.4069 78.7852L27.2502 23.1518C27.6865 20.9165 29.8042 18.8282 31.9709 18.4998L85.9326 10.2594C86.9719 10.1026 87.8739 10.3624 88.4817 10.9947C89.119 11.6614 89.3494 12.6467 89.1337 13.7693L78.3002 69.4026C77.8639 71.638 75.7462 73.7262 73.5746 74.0547L19.6128 82.295C19.4168 82.3244 19.2207 82.3391 19.0344 82.3391H19.0295ZM86.5111 10.4016C86.3346 10.4016 86.1483 10.4163 85.9621 10.4457L32.0003 18.6861C29.9022 19.0047 27.8581 21.0243 27.4365 23.1861L16.603 78.8195C16.3971 79.8832 16.6079 80.8097 17.2059 81.4274C17.7697 82.0107 18.6128 82.2558 19.5883 82.1038L73.5501 73.8635C75.6482 73.5449 77.6923 71.5252 78.1139 69.3634L88.9474 13.7301L89.0405 13.7497L88.9474 13.7301C89.1533 12.6663 88.9425 11.7399 88.3445 11.1222C87.8886 10.6516 87.2513 10.4016 86.5111 10.4016Z" fill="#21CFA5"/>
<path d="M16.3376 80.2962C15.4258 80.2962 14.6513 79.9628 14.1513 79.3403C13.5582 78.6099 13.3964 77.5363 13.715 76.399L29.3575 20.2363C29.9849 17.9813 32.2791 16.0254 34.4703 15.8833L88.9467 12.2704C89.9713 12.2018 90.8438 12.5401 91.3929 13.2165C91.986 13.9469 92.1478 15.0205 91.8292 16.1578L76.1867 72.3205C75.5593 74.5755 73.2651 76.5314 71.0739 76.6735L16.5974 80.2863C16.5092 80.2913 16.4259 80.2962 16.3376 80.2962ZM89.2017 12.4518C89.1232 12.4518 89.0399 12.4518 88.9566 12.4616L34.4801 16.0744C32.3624 16.2166 30.1467 18.1039 29.5388 20.2902L13.8964 76.4529C13.5974 77.5314 13.7395 78.5412 14.2984 79.2226C14.8082 79.8501 15.6219 80.1589 16.5827 80.0952L71.0592 76.4824C73.1769 76.3402 75.3926 74.4529 76.0004 72.2666L91.6429 16.1038C91.9419 15.0254 91.7997 14.0156 91.2409 13.3342C90.7752 12.7606 90.0546 12.4518 89.2017 12.4518Z" fill="#21CFA5"/>
<path d="M68.4402 79.1378C68.4108 79.1378 68.3814 79.1378 68.3569 79.1378L13.7726 77.9564C12.7627 77.9368 11.9343 77.525 11.4441 76.8044C10.8902 75.9956 10.8166 74.8681 11.2431 73.7063L31.7141 17.4308C32.5278 15.2004 34.9298 13.416 37.1014 13.416C37.1308 13.416 37.1602 13.416 37.1847 13.416L91.7691 14.5974C92.7789 14.617 93.6073 15.0288 94.0975 15.7494C94.6515 16.5582 94.725 17.6857 94.2985 18.8475L94.2054 18.8132L94.2985 18.8475L73.8227 75.1181C73.0089 77.3485 70.6069 79.1329 68.4353 79.1329L68.4402 79.1378ZM37.1014 13.6121C35.0033 13.6121 32.6847 15.3376 31.8954 17.4994L11.4196 73.77C11.0176 74.873 11.0862 75.9367 11.601 76.6916C12.0569 77.3583 12.8314 77.7358 13.7726 77.7603L68.3569 78.9417C70.4795 78.9907 72.8471 77.2456 73.6413 75.0593L94.122 18.7887C94.524 17.6857 94.4554 16.622 93.9407 15.867C93.4848 15.2004 92.7103 14.8229 91.7691 14.7984L37.1847 13.617C37.1553 13.617 37.1308 13.617 37.1014 13.617V13.6121Z" fill="#21CFA5"/>
<path d="M65.8757 81.4469C65.7238 81.4469 65.5767 81.4371 65.4296 81.4224L11.1591 75.3046C10.1737 75.1919 9.38942 74.7115 8.95804 73.9517C8.45803 73.0693 8.47274 71.8879 9.00216 70.7163L34.3065 14.7594C35.3213 12.5094 37.9291 10.8868 40.1106 11.1319L94.3811 17.2497C95.3664 17.3624 96.1508 17.8428 96.5821 18.6026C97.0822 19.485 97.0675 20.6664 96.538 21.838L96.4498 21.7988L96.538 21.838L71.2337 77.79C70.2876 79.888 67.9542 81.442 65.8757 81.442V81.4469ZM39.6596 11.3084C37.6546 11.3084 35.4046 12.8182 34.483 14.8477L9.18354 70.7947C8.67863 71.9075 8.65902 73.0252 9.12961 73.8487C9.53158 74.5546 10.2571 75.0007 11.1787 75.1036L65.4541 81.2214C67.5571 81.4567 70.0719 79.8831 71.0572 77.7066L96.3616 21.7546C96.8665 20.6419 96.8861 19.5242 96.4155 18.7007C96.0135 17.9948 95.288 17.5487 94.3664 17.4457L40.0959 11.328C39.9537 11.3133 39.8115 11.3035 39.6694 11.3035L39.6596 11.3084Z" fill="#21CFA5"/>
<path d="M63.144 83.5899C62.8646 83.5899 62.5901 83.5654 62.3205 83.5066L8.78522 72.3446C7.82932 72.1437 7.09402 71.5946 6.72636 70.7956C6.28518 69.8397 6.39793 68.6191 7.03519 67.4426L37.124 12.2554C38.3348 10.0396 41.0701 8.59842 43.227 9.04941L96.7623 20.2114C97.7182 20.4124 98.4535 20.9614 98.8211 21.7604C99.2623 22.7163 99.1496 23.9369 98.5123 25.1134L68.4284 80.3007C67.3696 82.2419 65.1343 83.5899 63.1489 83.5899H63.144ZM42.3986 9.16706C40.4819 9.16706 38.325 10.471 37.3004 12.3534L7.21657 67.5406C6.60872 68.6583 6.49597 69.8103 6.91264 70.7123C7.25579 71.4525 7.93717 71.9623 8.82934 72.1486L62.3646 83.3105C64.4382 83.7419 67.0804 82.3497 68.2471 80.2075L98.3309 25.0203L98.4192 25.0693L98.3309 25.0203C98.9388 23.9026 99.0515 22.7457 98.6348 21.8487C98.2917 21.1084 97.6103 20.5986 96.7181 20.4124L43.1829 9.2455C42.928 9.19157 42.6633 9.16706 42.3937 9.16706H42.3986Z" fill="#21CFA5"/>
<path d="M60.2491 85.5458C59.8275 85.5458 59.4206 85.487 59.0334 85.3693L6.67952 69.0945C5.75794 68.8053 5.08146 68.1877 4.77263 67.3494C4.40007 66.32 4.61576 65.0651 5.36087 63.9082L40.1458 9.93173C41.5429 7.76012 44.3959 6.52971 46.5087 7.18658L98.8674 23.4565C99.789 23.7457 100.465 24.3634 100.774 25.2016C101.147 26.231 100.931 27.486 100.186 28.6428L65.406 82.6193C64.2639 84.3938 62.1462 85.5409 60.2589 85.5409L60.2491 85.5458ZM45.2831 7.21599C43.4645 7.21599 41.4203 8.32876 40.3125 10.0445L5.53735 64.0209C4.82655 65.1288 4.61576 66.3151 4.96871 67.2857C5.25303 68.0602 5.88049 68.6386 6.74325 68.9034L59.102 85.1733C61.1315 85.8056 63.8815 84.6095 65.2296 82.5114L100.005 28.535L100.093 28.5889L100.005 28.535C100.715 27.4271 100.926 26.2408 100.573 25.2751C100.289 24.5006 99.6616 23.9222 98.7988 23.6575L46.4449 7.38266C46.0773 7.26991 45.6851 7.21599 45.2831 7.21599Z" fill="#21CFA5"/>
<path d="M57.2215 87.2949C56.648 87.2949 56.099 87.1969 55.6039 86.9861L4.86278 65.5691C3.9755 65.1965 3.35785 64.5102 3.12255 63.6328C2.82843 62.5396 3.14706 61.2602 4.00492 60.1278L43.3536 7.81805C44.937 5.71507 47.888 4.70525 49.9322 5.57291L100.673 26.99C101.561 27.3625 102.178 28.0488 102.414 28.9263C102.708 30.0194 102.389 31.2989 101.536 32.4312L62.1824 84.741C60.9863 86.3341 59.001 87.2998 57.2215 87.2998V87.2949ZM48.3096 5.46506C46.5939 5.46506 44.6821 6.40136 43.5203 7.9406L4.16668 60.2503C3.35294 61.3337 3.04412 62.5445 3.32353 63.5788C3.54412 64.3877 4.11766 65.0298 4.94121 65.3779L55.6823 86.7949C57.648 87.6234 60.4863 86.6479 62.0157 84.6135L101.369 32.3038L101.453 32.3675L101.369 32.3038C102.183 31.2204 102.492 30.0096 102.213 28.9753C101.992 28.1664 101.418 27.5243 100.595 27.1762L49.8538 5.75919C49.3783 5.5582 48.8537 5.46506 48.3096 5.46506Z" fill="#21CFA5"/>
<path d="M54.0762 88.8206C53.3409 88.8206 52.6399 88.6638 52.0418 88.3353L3.35958 61.7809C2.51643 61.3201 1.9625 60.5652 1.80073 59.6583C1.59484 58.5064 2.02132 57.2122 2.97722 56.1191L46.7427 5.9368C48.5025 3.91715 51.532 3.14753 53.4977 4.22108L102.175 30.7755C103.018 31.2363 103.572 31.9912 103.734 32.8981C103.94 34.05 103.513 35.3442 102.557 36.4373L102.479 36.3687L102.557 36.4373L58.7968 86.6245C57.5762 88.0265 55.7429 88.8255 54.0762 88.8255V88.8206ZM51.4536 3.94166C49.8506 3.94166 48.081 4.71619 46.8996 6.07405L3.13899 56.2612C2.22721 57.3103 1.81543 58.5358 2.01152 59.624C2.16348 60.4672 2.67819 61.1682 3.46252 61.5996L52.1399 88.1539C54.0222 89.1834 56.939 88.4334 58.6351 86.4823L102.396 36.2952C103.307 35.2461 103.719 34.0206 103.523 32.9324C103.371 32.0892 102.856 31.3882 102.072 30.9569L53.3948 4.40246C52.8212 4.08872 52.1546 3.94166 51.4536 3.94166Z" fill="#21CFA5"/>
<path d="M50.8397 90.1034C49.9328 90.1034 49.0749 89.8779 48.3788 89.4024L2.20154 57.7597C1.40741 57.2156 0.92211 56.3969 0.833874 55.4508C0.726029 54.2449 1.26525 52.9557 2.31429 51.9116L50.2808 4.30777C52.2122 2.39107 55.3005 1.87145 57.1633 3.15089L103.345 34.7936C104.14 35.3377 104.625 36.1564 104.713 37.1025C104.821 38.3084 104.282 39.5976 103.233 40.6417L55.2613 88.2504C54.0456 89.4563 52.374 90.1083 50.8348 90.1083L50.8397 90.1034ZM54.7025 2.66068C53.222 2.66068 51.6044 3.29305 50.4328 4.45973L2.46626 52.0684C1.46134 53.0635 0.946621 54.2939 1.04956 55.4361C1.128 56.3136 1.58389 57.0783 2.3241 57.5881L48.5063 89.2308C50.2906 90.4514 53.2564 89.9465 55.1191 88.0985L103.091 40.4898L103.164 40.5682L103.091 40.4898C104.095 39.4947 104.61 38.2643 104.507 37.1221C104.429 36.2446 103.973 35.4799 103.233 34.9701L57.0456 3.32736C56.3888 2.87637 55.5701 2.66068 54.7025 2.66068Z" fill="#21CFA5"/>
<path d="M47.5166 91.1345C46.4284 91.1345 45.3989 90.8208 44.6342 90.1688L1.38835 53.526C0.643237 52.8936 0.231465 52.0113 0.226562 51.0358C0.226562 49.7906 0.873633 48.5161 2.01091 47.5357L53.9481 2.95157C56.0413 1.15742 59.1639 0.902517 60.909 2.38293L104.155 39.0306C104.9 39.663 105.312 40.5454 105.317 41.5209C105.317 42.766 104.67 44.0405 103.532 45.016L51.5951 89.6002C50.4186 90.61 48.9137 91.1345 47.5117 91.1345H47.5166ZM58.0315 1.63292C56.6835 1.63292 55.2324 2.13783 54.0903 3.11824L2.15307 47.7024C1.06481 48.6387 0.442253 49.8495 0.447155 51.0358C0.447155 51.9475 0.834416 52.7711 1.53051 53.3593L44.7764 90.007C46.448 91.4237 49.4431 91.1688 51.4579 89.4384L103.395 44.8543L103.464 44.9376L103.395 44.8543C104.483 43.918 105.106 42.7072 105.101 41.5209C105.101 40.6091 104.714 39.7856 104.018 39.1973L60.7718 2.5496C60.0463 1.93195 59.0708 1.63292 58.0315 1.63292Z" fill="#21CFA5"/>
<path d="M44.1311 91.8933C42.8517 91.8933 41.6507 91.4668 40.8369 90.6236L0.948991 49.0984C0.257803 48.3827 -0.0706345 47.4317 0.0127003 46.4268C0.120545 45.1522 0.880363 43.9022 2.09117 43.0051L57.7147 1.88676C59.9549 0.229869 63.0922 0.249477 64.705 1.92598L104.593 43.4512C105.284 44.1669 105.613 45.1179 105.529 46.1228C105.421 47.3974 104.662 48.6474 103.451 49.5445L103.387 49.4562L103.451 49.5445L47.8273 90.6677C46.7145 91.4864 45.386 91.8982 44.1311 91.8982V91.8933ZM61.4108 0.876939C60.2 0.876939 58.9157 1.27401 57.8421 2.06814L2.22352 43.1865C1.06174 44.0444 0.336235 45.2356 0.233292 46.4464C0.15486 47.3876 0.463688 48.2748 1.11076 48.9464L40.9987 90.4717C42.538 92.0746 45.5429 92.0795 47.6998 90.4864L103.323 49.3631C104.485 48.5052 105.211 47.314 105.314 46.1032C105.392 45.162 105.083 44.2748 104.436 43.6032L64.5481 2.08284C63.7736 1.27891 62.6314 0.876939 61.4157 0.876939H61.4108Z" fill="#21CFA5"/>
<path d="M40.699 92.3736C39.2284 92.3736 37.8461 91.8147 37.0127 90.7461L0.894422 44.5149C0.26696 43.711 0.0169556 42.7011 0.198331 41.6717C0.423826 40.3825 1.28659 39.1766 2.56112 38.3726L61.5622 1.13668C63.9396 -0.363344 67.0672 -0.064319 68.528 1.80826L104.646 48.0395C105.274 48.8434 105.524 49.8532 105.342 50.8827C105.117 52.1719 104.254 53.3778 102.98 54.1817L43.9834 91.4177C42.9638 92.0599 41.8069 92.3736 40.7039 92.3736H40.699ZM64.8416 0.401375C63.7779 0.401375 62.6651 0.705302 61.6798 1.32296L2.68367 38.5589C1.45816 39.3334 0.634614 40.4805 0.418923 41.7109C0.252254 42.6766 0.48265 43.6276 1.0709 44.3776L37.1892 90.6088C38.5814 92.3932 41.5716 92.6677 43.856 91.2265L102.852 53.9906L102.911 54.0837L102.852 53.9906C104.078 53.216 104.901 52.069 105.117 50.8385C105.284 49.8728 105.053 48.9218 104.465 48.1718L68.3515 1.94552C67.5574 0.930797 66.2485 0.401375 64.8465 0.401375H64.8416Z" fill="#21CFA5"/>
<path d="M37.2501 92.5553C35.5834 92.5553 34.0246 91.8396 33.201 90.5308L1.24457 39.8044C0.680835 38.9122 0.528871 37.8436 0.808288 36.7896C1.15143 35.5004 2.11223 34.3533 3.44069 33.6474L65.4614 0.71058C67.9614 -0.617875 71.0497 -0.0296296 72.3439 2.02433L104.295 52.7458C104.859 53.638 105.011 54.7066 104.732 55.7606C104.389 57.0498 103.428 58.1969 102.099 58.9028L102.045 58.7998L102.099 58.9028L40.0835 91.8396C39.1766 92.32 38.1962 92.5504 37.2501 92.5504V92.5553ZM68.2997 0.225277C67.3879 0.225277 66.4418 0.445869 65.5692 0.911564L3.55343 33.8484C2.2789 34.5249 1.35732 35.6181 1.03378 36.8485C0.769071 37.8387 0.916133 38.8436 1.44555 39.6819L33.3971 90.4033C34.6275 92.3593 37.5834 92.9132 39.9805 91.6387L101.996 58.7018C103.271 58.0253 104.192 56.9322 104.516 55.7017C104.781 54.7115 104.634 53.7066 104.104 52.8684L72.1527 2.14688C71.3683 0.901759 69.8879 0.225277 68.2997 0.225277Z" fill="#21CFA5"/>
<path d="M33.7909 92.4331C31.9232 92.4331 30.1977 91.5312 29.4133 89.9674L2.00598 35.0008C1.51577 34.0203 1.46185 32.8929 1.84911 31.8291C2.30991 30.5546 3.36385 29.4811 4.73152 28.8781L69.3846 0.6227C71.9974 -0.519477 75.022 0.362891 76.1347 2.59332L103.542 57.5551C104.032 58.5355 104.086 59.663 103.699 60.7267C103.238 62.0012 102.184 63.0748 100.817 63.6777L100.772 63.5699L100.817 63.6777L36.1634 91.9331C35.3889 92.2714 34.5801 92.4331 33.7909 92.4331ZM71.7621 0.353087C71.0072 0.353087 70.2229 0.505051 69.4778 0.833488L4.82466 29.0889C3.51091 29.6624 2.50599 30.687 2.0648 31.9027C1.69715 32.9076 1.75107 33.9713 2.21186 34.8929L29.6192 89.8547C30.6731 91.9724 33.5703 92.8057 36.0654 91.7125L100.719 63.4571C102.032 62.8836 103.037 61.8591 103.478 60.6434C103.846 59.6384 103.792 58.5747 103.331 57.6531L75.924 2.69627C75.1837 1.21095 73.5367 0.357989 71.7572 0.357989L71.7621 0.353087Z" fill="#21CFA5"/>
<path d="M30.3462 91.9918C28.2824 91.9918 26.3902 90.8741 25.6941 89.0407L3.17903 30.1328C2.77216 29.0642 2.82118 27.8877 3.32119 26.8142C3.89963 25.569 5.032 24.5788 6.42909 24.0935L73.2979 0.882321C75.9989 -0.0539696 78.9402 1.12252 79.852 3.50982L102.367 62.4177C102.774 63.4864 102.725 64.6629 102.225 65.7364C101.646 66.9815 100.514 67.9717 99.117 68.457L99.0778 68.3443L99.117 68.457L32.2482 91.6682C31.6158 91.8888 30.9736 91.9918 30.3462 91.9918ZM75.1999 0.794085C74.597 0.794085 73.9793 0.892125 73.3764 1.10291L6.50262 24.3141C5.16436 24.7798 4.08591 25.7259 3.53198 26.9122C3.05648 27.9269 3.01236 29.0446 3.39472 30.0495L25.9098 88.9574C26.7775 91.2271 29.5864 92.3447 32.1697 91.4476L99.0386 68.2365C100.372 67.7708 101.455 66.8247 102.009 65.6433C102.485 64.6285 102.529 63.5109 102.146 62.506L79.6314 3.59806C78.9696 1.86273 77.1656 0.798987 75.1999 0.798987V0.794085Z" fill="#21CFA5"/>
<path d="M26.9473 91.2321C24.6874 91.2321 22.6482 89.8595 22.0697 87.7614L4.77533 25.2407C4.45669 24.0887 4.62336 22.8632 5.24102 21.7896C5.93221 20.5935 7.13321 19.7014 8.5401 19.3337L77.1737 1.50497C79.9482 0.784372 82.7767 2.25989 83.4777 4.79425L100.772 67.3199C101.091 68.4718 100.924 69.6974 100.306 70.7709C99.6152 71.967 98.4142 72.8592 97.0074 73.2268L96.9779 73.1092L97.0074 73.2268L28.3689 91.0507C27.8934 91.1732 27.413 91.2321 26.9424 91.2321H26.9473ZM78.6002 1.5589C78.1492 1.5589 77.6933 1.61772 77.2374 1.73537L8.59892 19.5641C7.25086 19.9122 6.10378 20.77 5.44691 21.9073C4.85866 22.922 4.7067 24.0838 5.00572 25.1721L22.3001 87.6977C22.9668 90.1046 25.6679 91.5066 28.315 90.8154L96.9534 72.9866C98.3015 72.6386 99.4486 71.7807 100.105 70.6435C100.694 69.6287 100.846 68.4669 100.547 67.3787L83.2473 4.85307C82.6983 2.85794 80.7522 1.5589 78.6002 1.5589Z" fill="#21CFA5"/>
<path d="M23.6076 90.1484C21.1467 90.1484 18.98 88.4915 18.5585 86.1238L6.78374 20.3579C6.56315 19.1226 6.84746 17.8579 7.58767 16.799C8.39161 15.652 9.62202 14.8823 11.0485 14.6323L80.9762 2.48996C83.8047 1.99975 86.4959 3.76449 86.9714 6.4312L98.751 72.1971C98.9716 73.4324 98.6873 74.6971 97.9471 75.756C97.1432 76.903 95.9127 77.6727 94.4863 77.9227L24.5586 90.065C24.2399 90.1189 23.9213 90.1484 23.6125 90.1484H23.6076ZM81.9272 2.65172C81.6282 2.65172 81.3243 2.67623 81.0203 2.73016L11.0877 14.8725C9.72497 15.1078 8.54848 15.8431 7.78376 16.9412C7.08276 17.9461 6.80825 19.1422 7.01904 20.3187L18.7987 86.0846C19.2545 88.6189 21.8183 90.3003 24.5144 89.8297L94.4421 77.6874L94.4617 77.805L94.4421 77.6874C95.8049 77.4521 96.9814 76.7168 97.7461 75.6187C98.4471 74.6138 98.7216 73.4177 98.5108 72.2412L86.7361 6.47532C86.3341 4.22528 84.2704 2.65172 81.9272 2.65172Z" fill="#21CFA5"/>
<path d="M20.3792 88.7322C19.1635 88.7322 17.9968 88.3254 17.0556 87.5557C15.9919 86.6881 15.3399 85.4724 15.2222 84.1243L9.22214 15.5251C9.10449 14.177 9.53587 12.8632 10.4329 11.8289C11.33 10.7946 12.5898 10.1524 13.9722 10.0348L84.6941 3.84347C86.0813 3.72092 87.4294 4.13269 88.4931 4.99545C89.5569 5.86312 90.2088 7.07883 90.3265 8.42689L96.3266 77.0261C96.5717 79.8056 94.4393 82.2713 91.5765 82.5213L20.8547 88.7077C20.6929 88.7224 20.5361 88.7273 20.3792 88.7273V88.7322ZM85.1695 4.06897C85.0176 4.06897 84.8656 4.07387 84.7137 4.08858L13.9918 10.275C12.6683 10.3926 11.4722 11.0005 10.6143 11.9858C9.76136 12.9711 9.34959 14.2211 9.46234 15.5005L15.4624 84.0998C15.5752 85.3792 16.1928 86.5361 17.2076 87.3597C18.2223 88.1832 19.5066 88.5754 20.8302 88.4577L91.552 82.2713C94.2775 82.0311 96.3119 79.688 96.0766 77.0457L90.0765 8.4465C89.9638 7.16706 89.3461 6.01018 88.3314 5.18663C87.4343 4.45623 86.3264 4.06897 85.1646 4.06897H85.1695Z" fill="#21CFA5"/>
<path d="M88.2648 86.9865H17.2734C14.4008 86.9865 12.0625 84.6482 12.0625 81.7756V10.7792C12.0625 7.90664 14.4008 5.56836 17.2734 5.56836H88.2648C91.1374 5.56836 93.4757 7.90664 93.4757 10.7792V81.7707C93.4757 84.6433 91.1374 86.9816 88.2648 86.9816V86.9865ZM17.2734 5.81836C14.538 5.81836 12.3076 8.04389 12.3076 10.7841V81.7707C12.3076 84.506 14.5331 86.7365 17.2734 86.7365H88.2648C91.0002 86.7365 93.2306 84.5109 93.2306 81.7707V10.7792C93.2306 8.04389 91.0051 5.81346 88.2648 5.81346H17.2734V5.81836Z" fill="#21CFA5"/>
</svg>
