<svg width="84" height="98" viewBox="0 0 84 98" fill="none" xmlns="http://www.w3.org/2000/svg">
<g clip-path="url(#clip0_1095_5416)">
<path d="M39.6243 55.4659C39.5886 55.4659 39.5529 55.4481 39.5261 55.4213L35.2472 50.2545C35.2204 50.2188 35.2115 50.1697 35.2249 50.1295L37.5049 43.7893C37.5183 43.7446 37.5584 43.7134 37.6031 43.7089L44.162 42.5355C44.2066 42.5266 44.2512 42.5444 44.278 42.5801L48.5569 47.7469C48.5837 47.7826 48.5926 47.8317 48.5792 47.8718L46.2992 54.2121C46.2858 54.2567 46.2457 54.288 46.201 54.2924L39.6421 55.4659C39.6421 55.4659 39.6287 55.4659 39.6198 55.4659H39.6243ZM35.4881 50.1474L39.6734 55.2027L46.0895 54.056L48.3204 47.854L44.1352 42.7987L37.7191 43.9454L35.4881 50.1474Z" fill="#FF2756"/>
<path d="M38.9015 55.6311C38.8614 55.6311 38.8212 55.6088 38.7989 55.5776L34.7341 49.7013C34.7074 49.6657 34.7029 49.6166 34.7252 49.5764L37.7191 43.071C37.737 43.0309 37.7771 43.0041 37.8217 42.9997L44.8804 42.375C44.925 42.375 44.9696 42.3928 44.9919 42.4285L49.0567 48.3048C49.0834 48.3405 49.0879 48.3896 49.0656 48.4297L46.0717 54.9351C46.0539 54.9753 46.0137 55.002 45.9691 55.0065L38.9104 55.6311H38.9015ZM34.984 49.6166L38.964 55.3724L45.8798 54.7566L48.8157 48.3851L44.8358 42.6293L37.9199 43.2451L34.984 49.6166Z" fill="#FF2756"/>
<path d="M45.6645 55.7371H38.1285C38.0838 55.7371 38.0437 55.7147 38.0214 55.6746L34.2511 49.0621C34.2288 49.022 34.2288 48.9729 34.2511 48.9327L38.0214 42.3203C38.0437 42.2801 38.0838 42.2578 38.1285 42.2578H45.6645C45.7091 42.2578 45.7493 42.2801 45.7716 42.3203L49.5419 48.9327C49.5642 48.9729 49.5642 49.022 49.5419 49.0621L45.7716 55.6746C45.7493 55.7147 45.7091 55.7371 45.6645 55.7371ZM38.1998 55.4827H45.5931L49.2875 48.9997L45.5931 42.5166H38.1998L34.5054 48.9997L38.1998 55.4827Z" fill="#FF2756"/>
<path d="M45.2893 56.4862H45.2804L37.2937 55.7768C37.2491 55.7768 37.2089 55.7456 37.1911 55.7054L33.8001 48.3434C33.7822 48.3032 33.7867 48.2541 33.809 48.2184L38.4092 41.5658C38.4359 41.5301 38.4806 41.5078 38.5207 41.5123L46.5074 42.2217C46.552 42.2217 46.5922 42.253 46.61 42.2931L50.001 49.6552C50.0189 49.6953 50.0144 49.7444 49.9921 49.7801L45.3919 56.4327C45.3696 56.4684 45.3295 56.4862 45.2893 56.4862ZM37.3829 55.5314L45.2269 56.2275L49.7422 49.6953L46.4137 42.4671L38.5698 41.7711L34.0544 48.3032L37.3829 55.5314Z" fill="#FF2756"/>
<path d="M44.8223 57.2452C44.8223 57.2452 44.8089 57.2452 44.8 57.2452L36.3983 55.7416C36.3537 55.7326 36.318 55.7014 36.3002 55.6613L33.3821 47.5407C33.3687 47.4961 33.3732 47.4515 33.4044 47.4158L38.8836 40.7988C38.9103 40.7632 38.955 40.7453 38.9996 40.7542L47.4012 42.2579C47.4459 42.2668 47.4815 42.298 47.4994 42.3382L50.4174 50.4587C50.4308 50.5034 50.4264 50.548 50.3951 50.5837L44.916 57.2006C44.8937 57.2318 44.858 57.2452 44.8178 57.2452H44.8223ZM36.5143 55.5006L44.7732 56.9775L50.1587 50.4721L47.2897 42.4899L39.0308 41.013L33.6454 47.5184L36.5143 55.5006Z" fill="#FF2756"/>
<path d="M44.2524 58.0048C44.2524 58.0048 44.2301 58.0048 44.2211 58.0048L35.4536 55.6222C35.409 55.6088 35.3778 55.5776 35.3644 55.533L33.013 46.6539C32.9996 46.6093 33.013 46.5646 33.0442 46.5289L39.4559 40.0325C39.4871 40.0013 39.5317 39.9879 39.5764 40.0013L48.3439 42.3839C48.3885 42.3973 48.4197 42.4285 48.4331 42.4731L50.7845 51.3522C50.7979 51.3968 50.7845 51.4414 50.7533 51.4771L44.3416 57.9736C44.3193 57.9959 44.2836 58.0093 44.2524 58.0093V58.0048ZM35.5875 55.3902L44.2122 57.7371L50.5213 51.3433L48.2056 42.607L39.5808 40.2601L33.2718 46.6539L35.5875 55.3902Z" fill="#FF2756"/>
<path d="M43.5834 58.7576C43.5834 58.7576 43.5566 58.7576 43.5388 58.7487L34.4678 55.3978C34.4277 55.3845 34.3964 55.3443 34.3875 55.2997L32.7054 45.6665C32.6965 45.6219 32.7143 45.5773 32.75 45.5461L40.1388 39.2638C40.1745 39.2326 40.2191 39.2281 40.2638 39.2415L49.3347 42.5923C49.3749 42.6057 49.4061 42.6459 49.415 42.6905L51.0971 52.3236C51.1061 52.3682 51.0882 52.4129 51.0525 52.4441L43.6637 58.7264C43.6414 58.7442 43.6102 58.7576 43.5834 58.7576ZM34.624 55.1881L43.5611 58.4899L50.8383 52.3013L49.183 42.8154L40.2459 39.5137L32.9686 45.7022L34.624 55.1881Z" fill="#FF2756"/>
<path d="M42.8024 59.4947C42.8024 59.4947 42.7667 59.4947 42.7488 59.4813L33.4414 55.0775C33.4013 55.0597 33.3745 55.0195 33.37 54.9749L32.4688 44.61C32.4688 44.5654 32.4866 44.5208 32.5223 44.494L40.9284 38.533C40.9641 38.5062 41.0132 38.5017 41.0533 38.524L50.3608 42.9279C50.4009 42.9457 50.4277 42.9859 50.4321 43.0305L51.3334 53.3954C51.3334 53.44 51.3156 53.4846 51.2799 53.5114L42.8738 59.4724C42.8738 59.4724 42.8292 59.4947 42.8024 59.4947ZM33.611 54.8812L42.789 59.2226L51.0747 53.3463L50.1867 43.1287L41.0087 38.7873L32.7231 44.6636L33.611 54.8812Z" fill="#FF2756"/>
<path d="M41.9099 60.1942C41.9099 60.1942 41.8653 60.1898 41.8475 60.1764L32.3839 54.6348C32.3437 54.6125 32.3214 54.5678 32.3214 54.5232L32.3125 43.4534C32.3125 43.4088 32.3348 43.3641 32.375 43.3418L41.8296 37.8136C41.8698 37.7913 41.9144 37.7913 41.9545 37.8136L51.4181 43.3552C51.4583 43.3775 51.4806 43.4221 51.4806 43.4668L51.4895 54.5366C51.4895 54.5812 51.4672 54.6258 51.427 54.6482L41.9724 60.1764C41.9724 60.1764 41.9322 60.1942 41.9099 60.1942ZM32.5758 54.4518L41.9099 59.9221L51.2396 54.4697L51.2307 43.5471L41.8965 38.0769L32.5668 43.5292L32.5758 54.4518Z" fill="#FF2756"/>
<path d="M40.8971 60.8594C40.8703 60.8594 40.848 60.8505 40.8257 60.8371L31.3041 54.0729C31.2684 54.0461 31.2461 54.0015 31.2506 53.9569L32.2545 42.2267C32.2545 42.1821 32.2857 42.1419 32.3259 42.1241L42.8514 37.1536C42.8915 37.1357 42.9406 37.1402 42.9763 37.1625L52.4979 43.9267C52.5336 43.9534 52.5559 43.9981 52.5514 44.0427L51.5475 55.7729C51.5475 55.8175 51.5163 55.8577 51.4761 55.8755L40.9506 60.846C40.9506 60.846 40.9149 60.8594 40.8971 60.8594ZM31.5094 53.9078L40.9105 60.5872L51.3021 55.6792L52.2926 44.0918L42.8915 37.4124L32.4999 42.3204L31.5094 53.9078Z" fill="#FF2756"/>
<path d="M39.7623 61.4661C39.7311 61.4661 39.7043 61.4572 39.682 61.4349L30.2095 53.3724C30.1738 53.3411 30.1604 53.2965 30.1649 53.2519L32.2977 40.9149C32.3066 40.8703 32.3378 40.8346 32.378 40.8167L43.9832 36.5423C44.0234 36.5289 44.0725 36.5333 44.1082 36.5646L53.5807 44.6271C53.6164 44.6584 53.6297 44.703 53.6253 44.7476L51.4925 57.0846C51.4836 57.1292 51.4524 57.1649 51.4122 57.1828L39.8069 61.4572C39.8069 61.4572 39.7802 61.4661 39.7623 61.4661ZM30.4281 53.2251L39.7891 61.194L51.2605 56.9686L53.371 44.7744L44.01 36.8055L32.5386 41.0309L30.4281 53.2251Z" fill="#FF2756"/>
<path d="M38.5067 62.001C38.4755 62.001 38.4398 61.9876 38.4175 61.9653L29.1145 52.5285C29.0833 52.4973 29.0699 52.4482 29.0833 52.4036L32.4743 39.5267C32.4877 39.4821 32.5189 39.4464 32.5635 39.4374L45.253 35.9974C45.2976 35.984 45.3423 35.9974 45.3735 36.0286L54.6764 45.4654C54.7077 45.4966 54.7211 45.5457 54.7077 45.5903L51.3167 58.4672C51.3033 58.5118 51.272 58.5475 51.2274 58.5565L38.5379 61.9965C38.5379 61.9965 38.5156 61.9965 38.5067 61.9965V62.001ZM29.3465 52.3991L38.5469 61.7333L51.098 58.3334L54.4489 45.5992L45.2486 36.2651L32.6974 39.665L29.3465 52.3991Z" fill="#FF2756"/>
<path d="M37.1295 62.4516C37.0938 62.4516 37.0581 62.4337 37.0314 62.407L28.0363 51.5334C28.0095 51.4977 28.0006 51.4531 28.014 51.4085L32.7837 38.081C32.7971 38.0364 32.8372 38.0051 32.8818 38.0007L46.6466 35.5511C46.6913 35.5422 46.7359 35.56 46.7626 35.5957L55.7577 46.4692C55.7845 46.5049 55.7934 46.5496 55.78 46.5942L51.0103 59.9217C50.9969 59.9663 50.9568 59.9976 50.9122 60.002L37.1474 62.4516C37.1474 62.4516 37.134 62.4516 37.1251 62.4516H37.1295ZM28.2772 51.4219L37.1786 62.1839L50.8006 59.7566L55.5212 46.5674L46.6199 35.8054L32.9978 38.2327L28.2772 51.4219Z" fill="#FF2756"/>
<path d="M35.6267 62.8002C35.5866 62.8002 35.5464 62.7779 35.5241 62.7467L26.9841 50.374C26.9574 50.3383 26.9529 50.2892 26.9752 50.249L33.2486 36.5735C33.2664 36.5333 33.3066 36.5065 33.3512 36.5021L48.1645 35.1992C48.2091 35.1992 48.2538 35.2171 48.2761 35.2528L56.816 47.6255C56.8428 47.6612 56.8473 47.7102 56.825 47.7504L50.5516 61.426C50.5338 61.4661 50.4936 61.4973 50.449 61.4973L35.6357 62.8002H35.6267ZM27.234 50.2892L35.6892 62.5414L50.3553 61.2519L56.5662 47.7102L48.111 35.458L33.4449 36.7475L27.234 50.2892Z" fill="#FF2756"/>
<path d="M49.814 63.0424L33.9967 63.029C33.9521 63.029 33.9119 63.0067 33.8896 62.9666L25.9699 49.0501C25.9475 49.0099 25.9475 48.9608 25.9699 48.9207L33.8673 35.0175C33.8896 34.9774 33.9298 34.9551 33.9744 34.9551L49.7916 34.9685C49.8363 34.9685 49.8764 34.9908 49.8987 35.0309L57.8185 48.9474C57.8408 48.9876 57.8408 49.0367 57.8185 49.0768L49.921 62.9799C49.8987 63.0201 49.8586 63.0424 49.814 63.0424ZM34.0681 62.7747L49.7381 62.7881L57.5642 49.0144L49.7158 35.2273L34.0458 35.2139L26.2197 48.9876L34.0681 62.7747Z" fill="#FF2756"/>
<path d="M49.018 64.6163H49.0091L32.2504 63.1171C32.2057 63.1171 32.1656 63.0859 32.1477 63.0457L25.0266 47.5542C25.0088 47.514 25.0133 47.465 25.0356 47.4293L34.6776 33.4369C34.7044 33.4012 34.749 33.3789 34.7936 33.3834L51.5523 34.8826C51.5969 34.8826 51.6371 34.9138 51.6549 34.9539L58.776 50.4455C58.7939 50.4856 58.7894 50.5347 58.7671 50.5704L49.1251 64.5628C49.1028 64.5985 49.0626 64.6163 49.0224 64.6163H49.018ZM32.3396 62.8673L48.9555 64.3575L58.5128 50.4856L51.4542 35.128L34.8382 33.6422L25.281 47.514L32.3396 62.8717V62.8673Z" fill="#FF2756"/>
<path d="M48.0309 66.2131C48.0309 66.2131 48.0175 66.2131 48.0086 66.2131L30.3843 63.0452C30.3397 63.0363 30.304 63.005 30.2861 62.9649L24.1556 45.876C24.1422 45.8314 24.1466 45.7868 24.1779 45.7511L35.6716 31.8301C35.6983 31.7944 35.743 31.7766 35.7876 31.7855L53.4119 34.9534C53.4565 34.9623 53.4922 34.9935 53.51 35.0337L59.6406 52.1226C59.654 52.1672 59.6495 52.2118 59.6183 52.2475L48.1246 66.1685C48.1023 66.1997 48.0666 66.2131 48.0264 66.2131H48.0309ZM30.5003 62.8042L47.9818 65.9454L59.3818 52.136L53.3003 35.1854L35.8188 32.0443L24.4188 45.8537L30.5003 62.8042Z" fill="#FF2756"/>
<path d="M46.835 67.8105C46.835 67.8105 46.8127 67.8105 46.8038 67.8105L28.412 62.7954C28.3674 62.782 28.3362 62.7508 28.3228 62.7061L23.388 44.0199C23.3746 43.9753 23.388 43.9307 23.4192 43.895L36.8717 30.2239C36.9029 30.1927 36.9475 30.1793 36.9922 30.1927L55.3839 35.2078C55.4285 35.2212 55.4597 35.2524 55.4731 35.297L60.4079 53.9832C60.4213 54.0279 60.4079 54.0725 60.3767 54.1082L46.9242 67.7793C46.9019 67.8016 46.8662 67.815 46.835 67.815V67.8105ZM28.5459 62.5634L46.7948 67.5383L60.1447 53.9699L55.2456 35.4264L36.9966 30.4515L23.6468 44.0199L28.5459 62.5634Z" fill="#FF2756"/>
<path d="M45.4196 69.3944C45.4196 69.3944 45.3883 69.3944 45.375 69.3855L26.3452 62.3402C26.305 62.3224 26.2738 62.2867 26.2649 62.2421L22.7445 41.9764C22.7355 41.9318 22.7534 41.8871 22.7891 41.8559L38.2985 28.631C38.3342 28.5998 38.3788 28.5953 38.4234 28.6087L57.4532 35.6539C57.4933 35.6673 57.5246 35.7075 57.5335 35.7521L61.0539 56.0178C61.0628 56.0624 61.045 56.107 61.0093 56.1383L45.4999 69.3632C45.4776 69.381 45.4463 69.3944 45.4196 69.3944ZM26.5013 62.1305L45.3973 69.1222L60.7951 55.9955L57.297 35.8726L38.4011 28.8809L23.0032 42.0076L26.5013 62.1305Z" fill="#FF2756"/>
<path d="M43.7829 70.9387C43.7829 70.9387 43.7472 70.9387 43.7293 70.9253L24.2043 61.6714C24.1641 61.6536 24.1374 61.6134 24.1329 61.5688L22.25 39.7593C22.25 39.7147 22.2678 39.6701 22.3035 39.6433L39.9457 27.0877C39.9814 27.0609 40.0305 27.0564 40.0706 27.0787L59.5956 36.3326C59.6358 36.3505 59.6626 36.3906 59.667 36.4352L61.5499 58.2447C61.5499 58.2894 61.5321 58.334 61.4964 58.3608L43.8543 70.9164C43.8543 70.9164 43.8096 70.9387 43.7829 70.9387ZM24.3783 61.4707L43.7695 70.6621L61.2956 58.1912L59.4261 36.5289L40.0349 27.3375L22.5088 39.8084L24.3783 61.4707Z" fill="#FF2756"/>
<path d="M41.9009 72.4155C41.9009 72.4155 41.8563 72.4111 41.8384 72.3977L21.9922 60.7523C21.952 60.7299 21.9297 60.6853 21.9297 60.6407V37.3499C21.9297 37.3053 21.952 37.2606 21.9922 37.2383L41.8384 25.5929C41.8786 25.5706 41.9232 25.5706 41.9634 25.5929L61.8097 37.2383C61.8498 37.2606 61.8721 37.3053 61.8721 37.3499V60.6407C61.8721 60.6853 61.8498 60.7299 61.8097 60.7523L41.9634 72.3977C41.9634 72.3977 41.9232 72.4155 41.9009 72.4155ZM22.1795 60.5693L41.9009 72.1389L61.6223 60.5693V37.4257L41.9009 25.8562L22.1795 37.4257V60.5693Z" fill="#FF2756"/>
<path d="M39.7719 73.8073C39.7452 73.8073 39.7229 73.7983 39.7006 73.785L19.7338 59.5784C19.6981 59.5517 19.6758 59.5071 19.6803 59.4624L21.8086 34.7795C21.8086 34.7349 21.8398 34.6947 21.8799 34.6769L43.975 24.2005C44.0152 24.1826 44.0642 24.1871 44.0999 24.2094L64.0667 38.4159C64.1024 38.4427 64.1247 38.4873 64.1203 38.5319L61.992 63.2148C61.992 63.2595 61.9607 63.2996 61.9206 63.3175L39.8255 73.7939C39.8255 73.7939 39.7898 73.8073 39.7719 73.8073ZM19.9346 59.4089L39.7853 73.5306L61.751 63.1167L63.8659 38.581L44.0152 24.4593L22.0495 34.8732L19.9346 59.4089Z" fill="#FF2756"/>
<path d="M37.3883 75.0832C37.3571 75.0832 37.3303 75.0743 37.308 75.052L17.4439 58.1148C17.4082 58.0836 17.3948 58.039 17.3993 57.9944L21.9102 32.0353C21.9191 31.9907 21.9503 31.955 21.9905 31.9372L46.3656 22.9153C46.4057 22.9019 46.4548 22.9064 46.4905 22.9376L66.3546 39.8748C66.3903 39.906 66.4037 39.9506 66.3993 39.9953L61.8883 65.9543C61.8794 65.9989 61.8482 66.0346 61.808 66.0524L37.433 75.0743C37.433 75.0743 37.4062 75.0832 37.3883 75.0832ZM17.6625 57.9676L37.4151 74.8111L61.6519 65.8383L66.1405 40.0265L46.3879 23.183L22.1511 32.1558L17.6625 57.9676Z" fill="#FF2756"/>
<path d="M34.7456 76.2129C34.7143 76.2129 34.6786 76.1995 34.6563 76.1772L15.1536 56.3621C15.1224 56.3309 15.109 56.2818 15.1224 56.2372L22.2747 29.1538C22.2881 29.1091 22.3193 29.0735 22.3639 29.0645L49.019 21.7962C49.0636 21.7828 49.1082 21.7962 49.1395 21.8274L68.6422 41.6425C68.6734 41.6737 68.6868 41.7228 68.6734 41.7674L61.5211 68.8553C61.5077 68.8999 61.4765 68.9356 61.4319 68.9445L34.7768 76.2129C34.7768 76.2129 34.7545 76.2129 34.7456 76.2129ZM15.3811 56.2327L34.7812 75.9452L61.298 68.7125L68.4146 41.7674L49.0145 22.055L22.4978 29.2876L15.3811 56.2327Z" fill="#FF2756"/>
<path d="M31.8418 77.1595C31.8061 77.1595 31.7704 77.1417 31.7436 77.1149L12.8878 54.2792C12.8611 54.2435 12.8521 54.1944 12.8655 54.1543L22.9225 26.1205C22.9359 26.0759 22.9761 26.0446 23.0207 26.0402L51.9335 20.8421C51.9781 20.8332 52.0227 20.851 52.0495 20.8867L70.9052 43.7225C70.932 43.7582 70.9409 43.8028 70.9275 43.8474L60.8705 71.8812C60.8571 71.9258 60.817 71.957 60.7724 71.9615L31.8596 77.1595C31.8596 77.1595 31.8462 77.1595 31.8373 77.1595H31.8418ZM13.1243 54.1721L31.8908 76.8963L60.6608 71.725L70.6688 43.8296L51.9022 21.1054L23.1322 26.2766L13.1243 54.1721Z" fill="#FF2756"/>
<path d="M28.683 77.8903C28.6429 77.8903 28.6027 77.868 28.5804 77.8368L10.6795 51.8599C10.6527 51.8242 10.6482 51.7751 10.6705 51.7349L23.891 22.9694C23.9088 22.9293 23.949 22.9025 23.9936 22.898L55.1105 20.1094C55.1551 20.1094 55.1998 20.1272 55.2265 20.1629L73.123 46.1398C73.1498 46.1755 73.1542 46.2246 73.1319 46.2647L59.9115 75.0258C59.8936 75.0659 59.8535 75.0927 59.8088 75.0972L28.6919 77.8858H28.683V77.8903ZM10.9293 51.7751L28.7455 77.6315L59.7196 74.8562L72.8776 46.229L55.0614 20.3726L24.0873 23.1479L10.9293 51.7751Z" fill="#FF2756"/>
<path d="M25.2609 78.3635C25.2163 78.3635 25.1762 78.3412 25.1539 78.3011L8.55579 49.0894C8.53349 49.0492 8.53349 49.0001 8.55579 48.96L25.194 19.726C25.2163 19.6858 25.2565 19.6635 25.3011 19.6635L58.5329 19.6367C58.5776 19.6367 58.6177 19.659 58.64 19.6992L75.2336 48.9109C75.2559 48.951 75.2559 49.0001 75.2336 49.0403L58.5954 78.2788C58.5731 78.3189 58.5329 78.3412 58.4883 78.3412L25.2565 78.368L25.2609 78.3635ZM8.81012 49.0269L25.3323 78.1092L58.4214 78.0824L74.9882 48.9734L58.466 19.891L25.377 19.9178L8.81012 49.0269Z" fill="#FF2756"/>
<path d="M56.8195 81.6468H56.8106L21.5887 78.5458C21.5441 78.5458 21.504 78.5146 21.4861 78.4744L6.5657 45.9565C6.54785 45.9163 6.55231 45.8672 6.57462 45.8315L26.885 16.4057C26.9117 16.37 26.9519 16.3477 26.9965 16.3521L62.2183 19.4486C62.2629 19.4486 62.3031 19.4799 62.3209 19.52L77.2369 52.038C77.2547 52.0781 77.2503 52.1272 77.228 52.1629L56.9221 81.5843C56.8998 81.62 56.8596 81.6379 56.8195 81.6379V81.6468ZM21.6824 78.3004L56.7615 81.388L76.9826 52.0871L62.1291 19.703L27.05 16.6154L6.82449 45.9119L21.678 78.2959L21.6824 78.3004Z" fill="#FF2756"/>
<path d="M54.7409 84.9936C54.7409 84.9936 54.7276 84.9936 54.7186 84.9936L17.6764 78.399C17.6318 78.3901 17.5961 78.3589 17.5782 78.3187L4.74149 42.4454C4.7281 42.4008 4.73257 42.3562 4.7638 42.3205L28.9693 13.0508C28.9961 13.0151 29.0452 12.9973 29.0853 13.0062L66.1276 19.6053C66.1722 19.6142 66.2079 19.6454 66.2257 19.6856L79.0625 55.5499C79.0759 55.5945 79.0714 55.6391 79.0402 55.6748L54.8302 84.9445C54.8079 84.9758 54.7722 84.9892 54.732 84.9892L54.7409 84.9936ZM17.7879 78.1581L54.6874 84.7304L78.8037 55.5722L66.016 19.8462L29.1166 13.2739L5.00028 42.4276L17.7879 78.1536V78.1581Z" fill="#FF2756"/>
<path d="M52.225 88.3441C52.225 88.3441 52.2027 88.3441 52.1937 88.3441L13.5363 77.8677C13.4917 77.8543 13.4605 77.8231 13.4471 77.7785L3.12236 38.5544C3.10897 38.5098 3.12236 38.4651 3.15359 38.4295L31.4863 9.6907C31.5175 9.65947 31.5666 9.64608 31.6068 9.65947L70.2642 20.1359C70.3088 20.1493 70.3401 20.1805 70.3535 20.2251L80.6782 59.4448C80.6916 59.4894 80.6782 59.534 80.6469 59.5697L52.3187 88.3129C52.2964 88.3352 52.2607 88.3486 52.2294 88.3486L52.225 88.3441ZM13.6702 77.6357L52.1848 88.072L80.4105 59.4358L70.1214 20.359L31.6112 9.92271L3.38114 38.5633L13.6702 77.6402V77.6357Z" fill="#FF2756"/>
<path d="M49.2598 91.66C49.2598 91.66 49.233 91.66 49.2152 91.6511L9.2058 76.9136C9.16564 76.9002 9.13441 76.86 9.12549 76.8154L1.7679 34.2851C1.75898 34.2405 1.77682 34.1959 1.81252 34.1646L34.4599 6.36731C34.4955 6.33608 34.5402 6.33162 34.5848 6.34501L74.5942 21.0825C74.6343 21.0959 74.6656 21.136 74.6745 21.1806L82.0321 63.7154C82.041 63.7601 82.0231 63.8047 81.9874 63.8359L49.3357 91.6288C49.3133 91.6466 49.2821 91.66 49.2553 91.66H49.2598ZM9.36196 76.6994L49.233 91.3878L81.7733 63.6887L74.438 21.3011L34.5669 6.61272L2.02669 34.3119L9.36196 76.6994Z" fill="#FF2756"/>
<path d="M45.8102 94.8955C45.8102 94.8955 45.7745 94.8955 45.7566 94.8821L4.70318 75.4998C4.66302 75.482 4.63625 75.4418 4.63179 75.3972L0.71875 29.6276C0.71875 29.583 0.736597 29.5383 0.772292 29.5116L37.9172 3.12868C37.9529 3.10191 38.0019 3.09744 38.0421 3.11975L79.0956 22.502C79.1357 22.5199 79.1625 22.56 79.1669 22.6046L83.08 68.3743C83.08 68.4189 83.0621 68.4635 83.0264 68.4903L45.886 94.8776C45.886 94.8776 45.8414 94.8999 45.8146 94.8999L45.8102 94.8955ZM4.87719 75.3035L45.8013 94.6233L82.8257 68.3207L78.926 22.6983L38.0019 3.37854L0.977537 29.6811L4.87719 75.3035Z" fill="#FF2756"/>
<path d="M41.861 98.0008C41.861 98.0008 41.8164 97.9964 41.7986 97.983L0.0624659 73.5812C0.0223092 73.5588 0 73.5142 0 73.4696L0.0356948 24.599C0.0356948 24.5544 0.058004 24.5098 0.0981606 24.4875L41.8744 0.0186851C41.9146 -0.00362418 41.9592 -0.00362418 41.9994 0.0186851L83.7355 24.4205C83.7756 24.4428 83.7979 24.4875 83.7979 24.5321L83.7622 73.4027C83.7622 73.4473 83.7399 73.4919 83.6998 73.5142L41.9235 97.983C41.9235 97.983 41.8834 98.0008 41.861 98.0008ZM0.249863 73.3982L41.861 97.7287L83.5079 73.3313L83.5436 24.6079L41.9369 0.27301L0.29002 24.6704L0.254325 73.3938L0.249863 73.3982Z" fill="#FF2756"/>
</g>
<defs>
<clipPath id="clip0_1095_5416">
<rect width="83.7979" height="98" fill="white"/>
</clipPath>
</defs>
</svg>
