<svg width="86" height="100" viewBox="0 0 86 100" fill="none" xmlns="http://www.w3.org/2000/svg">
<path d="M60.8893 81.9796H24.4874L6.29077 49.998L24.4874 18.0164H60.8893L79.0903 49.998L60.8893 81.9796ZM24.7151 81.5844H60.666L78.6392 49.998L60.666 18.4116H24.7151L6.74182 49.998L24.7151 81.5844Z" fill="#75EB3E"/>
<path d="M59.7215 83.9111L22.2542 81.9179L5.21741 48.0033L25.6521 16.0818L63.1194 18.075L80.1519 51.9897L59.7172 83.9155L59.7215 83.9111ZM22.4991 81.5356L59.5153 83.5031L79.7051 51.9639L62.8745 18.4573L25.8583 16.4899L5.66846 48.029L22.4991 81.5356Z" fill="#75EB3E"/>
<path d="M58.4092 85.8395L19.9497 81.7371L4.21875 45.8936L26.9517 14.1526L65.4113 18.255L81.1422 54.0985L58.4092 85.8395ZM20.2117 81.3677L58.2245 85.4228L80.6911 54.0512L65.1449 18.6244L27.1321 14.5693L4.6655 45.9452L20.2117 81.372V81.3677Z" fill="#75EB3E"/>
<path d="M56.973 87.7521L17.6027 81.4245L3.31519 43.6694L28.4022 12.2419L67.7724 18.5695L82.0557 56.3246L56.9687 87.7521H56.973ZM17.8863 81.0679L56.8098 87.3225L81.6132 56.2473L67.4889 18.9175L28.5654 12.6629L3.76194 43.7424L17.8863 81.0722V81.0679Z" fill="#75EB3E"/>
<path d="M55.382 89.6453L15.1913 80.9766L2.49316 41.3357L29.9901 10.355L70.1808 19.0237L82.8789 58.6689L55.3863 89.6453H55.382ZM15.492 80.6372L55.2403 89.2072L82.4322 58.5701L69.8758 19.3588L30.1275 10.7931L2.93562 41.4302L15.492 80.6415V80.6372Z" fill="#75EB3E"/>
<path d="M53.6303 91.5013L12.7222 80.3796L1.75952 38.8744L31.7093 8.49512L72.6174 19.6167L83.5801 61.1219L53.6346 91.5056L53.6303 91.5013ZM13.0401 80.0575L53.5143 91.0588L83.1419 61.0017L72.2952 19.9389L31.8252 8.93328L2.19768 38.9947L13.0444 80.0575H13.0401Z" fill="#75EB3E"/>
<path d="M51.7499 93.3192L10.2318 79.633L1.15491 36.3107L33.5962 6.67456L75.1143 20.3607L84.1911 63.683L51.7499 93.3192ZM10.5668 79.328L51.6554 92.8724L83.7616 63.5456L74.7792 20.67L33.6907 7.12561L1.58448 36.4525L10.5668 79.328Z" fill="#75EB3E"/>
<path d="M49.7143 95.0916L49.6069 95.0486L7.70645 78.7292L0.665771 33.6414L35.6372 4.91162L35.7446 4.95458L77.6493 21.274L84.69 66.3661L49.7186 95.0959L49.7143 95.0916ZM8.05441 78.4414L49.6412 94.6363L84.2604 66.1943L77.2928 21.5575L35.7059 5.36267L1.08675 33.8046L8.05441 78.4414Z" fill="#75EB3E"/>
<path d="M47.5218 96.7948L5.14881 77.6574L0.29895 30.8598L37.8263 3.19971L80.1993 22.3414L85.0491 69.139L47.5261 96.7991L47.5218 96.7948ZM5.51395 77.3867L47.4745 96.3394L84.6325 68.95L79.8298 22.6078L37.8736 3.65505L0.711339 31.0445L5.51395 77.3867Z" fill="#75EB3E"/>
<path d="M45.1754 98.4361L2.57481 76.4163V76.3003L0.074707 27.9777L40.1709 1.55908L82.7716 23.5789V23.6949L85.2717 72.0174L45.1754 98.4361ZM2.95284 76.1671L45.1497 97.9808L84.8679 71.8112L82.3892 23.8281L40.1924 2.01872L0.474209 28.1839L2.95284 76.1671Z" fill="#75EB3E"/>
<path d="M42.678 99.9957L0 74.9989V25.0011L42.678 0L85.3559 25.0011V74.9989L42.678 100V99.9957ZM0.39091 74.767L42.678 99.5361L84.965 74.767V25.2287L42.678 0.459642L0.39091 25.2287V74.767Z" fill="#75EB3E"/>
</svg>
