<svg width="110" height="100" viewBox="0 0 110 100" fill="none" xmlns="http://www.w3.org/2000/svg">
<path d="M42.2614 63.2854C41.6006 63.2854 41.0308 63.113 40.6141 62.7635C39.8528 62.1266 39.7283 60.9821 40.2742 59.6365L46.1928 45.0123C47.0021 43.0107 49.1426 40.9564 51.3932 40.0226C52.6717 39.4911 53.8354 39.3953 54.6734 39.7497L65.0837 44.1456C65.7972 44.4472 66.2042 45.0266 66.2712 45.8215C66.4197 47.6891 64.6383 50.2797 62.1291 51.8551L45.8002 62.0835C44.5312 62.8784 43.2862 63.2854 42.2614 63.2854ZM53.5385 39.9173C52.9495 39.9173 52.2647 40.0705 51.5368 40.3722C49.3724 41.2724 47.3181 43.2357 46.5424 45.1511L40.6237 59.7754C40.1353 60.9821 40.2167 61.9398 40.8536 62.4714C41.7873 63.2567 43.6501 62.979 45.5942 61.7579L61.9232 51.5295C64.6575 49.8152 66.0079 47.3252 65.8882 45.8455C65.8355 45.1895 65.5146 44.7345 64.9304 44.4855L54.5201 40.0896C54.2328 39.9699 53.8976 39.9077 53.5289 39.9077L53.5385 39.9173Z" fill="#FF8365"/>
<path d="M41.8894 65.0704C41.2669 65.0704 40.721 64.9172 40.2948 64.6059C39.4472 63.9834 39.2317 62.8533 39.6962 61.4168L44.8295 45.5379C46.0171 41.8651 50.8966 38.3982 53.6788 39.2505L65.6262 42.9042C66.4499 43.158 66.9575 43.7374 67.0963 44.5802C67.4124 46.5196 65.6933 49.3831 63.0931 51.2459L46.0123 63.4711C44.547 64.5197 43.0769 65.0704 41.8894 65.0704ZM52.7498 39.4947C50.1065 39.4947 46.1943 42.5498 45.1887 45.6528L40.0554 61.5317C39.6435 62.8007 39.8063 63.7823 40.5151 64.2995C41.6068 65.0944 43.7234 64.6395 45.7873 63.1598L62.868 50.9346C65.7077 48.9043 66.9718 46.1748 66.718 44.6377C66.6031 43.9337 66.1961 43.4692 65.5113 43.2633L53.5639 39.6097C53.3101 39.5331 53.0371 39.4947 52.745 39.4947H52.7498Z" fill="#FF8365"/>
<path d="M41.6455 66.9667C41.0661 66.9667 40.5537 66.8374 40.1323 66.5741C39.1985 65.9851 38.8873 64.8358 39.2512 63.337L43.3933 46.2179C44.351 42.2673 49.3982 38.1875 52.549 38.8244L66.1294 41.5586C67.0775 41.7502 67.6952 42.3248 67.9203 43.2298C68.4231 45.265 66.8237 48.3344 64.123 50.5276L46.4005 64.9172C44.758 66.2484 43.0246 66.9763 41.6455 66.9763V66.9667ZM51.8643 39.1356C48.9097 39.1356 44.6 42.842 43.7572 46.3089L39.6151 63.428C39.2943 64.7544 39.5481 65.76 40.3334 66.258C41.4013 66.9332 43.6136 66.6842 46.1611 64.6155L63.8835 50.2307C66.7902 47.87 67.9442 44.9058 67.5516 43.3208C67.3648 42.5738 66.8477 42.0902 66.0575 41.9321L52.4772 39.1979C52.2809 39.1596 52.075 39.1404 51.8643 39.1404V39.1356Z" fill="#FF8365"/>
<path d="M41.5595 68.9944C41.0231 68.9944 40.5347 68.8843 40.1181 68.664C39.0981 68.1133 38.672 66.9545 38.921 65.403L41.8516 47.0676C42.5267 42.8393 47.708 38.1082 51.2467 38.4817L66.5414 40.105C67.6284 40.22 68.3706 40.7898 68.6914 41.7571C69.381 43.8449 67.9013 47.1777 65.1718 49.6774L46.9466 66.3894C45.1221 68.0606 43.1301 68.9944 41.5547 68.9944H41.5595ZM50.8445 38.8361C47.5404 38.8361 42.838 43.2846 42.2251 47.1251L39.2945 65.4604C39.0742 66.8443 39.4285 67.8643 40.3001 68.3288C41.5451 68.9992 44.0064 68.573 46.6928 66.1069L64.918 49.3948C67.8582 46.6989 68.8734 43.5049 68.3323 41.8672C68.0641 41.0532 67.432 40.5743 66.503 40.4738L51.2084 38.8504C51.0887 38.8361 50.969 38.8313 50.8445 38.8313V38.8361Z" fill="#FF8365"/>
<path d="M41.6513 71.1207C41.1629 71.1207 40.708 71.0346 40.3057 70.8526C39.19 70.3498 38.6393 69.191 38.759 67.5868L40.2243 48.0926C40.5643 43.6009 45.8174 38.1563 49.7727 38.2377L66.8583 38.5346C68.1033 38.5586 68.9892 39.114 69.4154 40.1484C70.3013 42.284 68.97 45.8755 66.2501 48.6864L47.6945 67.8837C45.7024 69.9428 43.4422 71.1255 41.6465 71.1255L41.6513 71.1207ZM49.6961 38.6112C45.9945 38.6112 40.9139 43.9026 40.5978 48.1165L39.1325 67.6107C39.0224 69.0473 39.4965 70.072 40.4542 70.503C42.1685 71.274 45.032 70.0864 47.4215 67.6155L65.9772 48.4182C68.9413 45.3487 69.7745 42.0063 69.0658 40.2872C68.7019 39.4013 67.9357 38.9273 66.8535 38.9081L49.7679 38.6112C49.7679 38.6112 49.7248 38.6112 49.7009 38.6112H49.6961Z" fill="#FF8365"/>
<path d="M41.9634 73.3482C41.5277 73.3482 41.1158 73.2812 40.7376 73.1423C39.5117 72.697 38.8269 71.5477 38.803 69.8957L38.5396 49.3192C38.4774 44.5834 43.7687 38.4109 48.1359 38.1188L67.0794 36.8642L67.0938 37.051L67.0794 36.8642C68.4777 36.7732 69.5503 37.3239 70.0962 38.4157C71.2024 40.6232 70.0818 44.3775 67.3667 47.5523L48.6866 69.3833C46.5509 71.8829 44.0033 73.3482 41.9634 73.3482ZM67.3811 37.2329C67.2901 37.2329 67.1943 37.2329 67.0986 37.2425L48.155 38.4971C44.0369 38.77 38.8557 44.8372 38.9131 49.3145L39.1765 69.8909C39.1956 71.3945 39.7798 72.3953 40.8621 72.788C42.8445 73.5062 45.9427 72.0074 48.3992 69.1391L67.0794 47.308C69.9956 43.8986 70.6373 40.3407 69.7562 38.5881C69.3109 37.6974 68.492 37.2329 67.3811 37.2329Z" fill="#FF8365"/>
<path d="M42.4617 75.6481C42.1026 75.6481 41.7578 75.605 41.4322 75.514C40.0866 75.1405 39.2486 74.0056 39.0666 72.3152L36.7825 50.762C36.2558 45.8058 41.504 38.848 46.3022 38.1489L67.1467 35.0938C68.7318 34.8592 69.9911 35.3811 70.6855 36.5543C72.0119 38.7906 71.1021 42.7794 68.478 46.2607L49.9175 70.8691C47.6908 73.8189 44.7794 75.6481 42.4617 75.6481ZM67.1755 35.2805L67.2042 35.4673L46.3596 38.5224C41.8201 39.188 36.6628 46.0309 37.1608 50.7236L39.4449 72.2769C39.6077 73.8236 40.3308 74.8149 41.5327 75.1501C43.8121 75.7822 47.1354 73.929 49.6158 70.644L68.1763 46.0356C70.7142 42.6741 71.6097 38.8528 70.3647 36.7506C69.7421 35.7019 68.6503 35.2566 67.2042 35.4721L67.1755 35.2853V35.2805Z" fill="#FF8365"/>
<path d="M43.2526 78.0144C42.9748 78.0144 42.7067 77.9904 42.4433 77.9378C40.9636 77.6505 39.9484 76.5443 39.5941 74.8252L34.9779 52.4339C33.9149 47.2862 39.0434 39.5144 44.2773 38.3412L67.0565 33.227C68.8474 32.8248 70.3127 33.2988 71.1842 34.5582C72.7357 36.8088 72.0797 41.0228 69.5848 44.8057L51.4266 72.3112C49.1329 75.7877 45.891 78.0144 43.2573 78.0144H43.2526ZM67.0996 33.409L67.1427 33.5957L44.3635 38.7099C39.3978 39.8256 34.3458 47.4777 35.3514 52.3573L39.9676 74.7486C40.2932 76.3336 41.1743 77.3105 42.5199 77.5691C45.1249 78.0718 48.6588 75.8212 51.1106 72.1053L69.2688 44.5998C71.6822 40.9414 72.343 36.9046 70.873 34.7785C70.0828 33.634 68.7899 33.227 67.1379 33.6005L67.0948 33.4138L67.0996 33.409Z" fill="#FF8365"/>
<path d="M44.3285 80.4304C44.1561 80.4304 43.9837 80.4208 43.8161 80.4017C42.1784 80.2245 40.9717 79.1662 40.421 77.4088L33.1424 54.3519C32.4002 52.0007 32.9222 48.8547 34.579 45.7229C36.413 42.2464 39.2814 39.5696 42.0635 38.7316L66.782 31.2759L66.8347 31.4578L66.782 31.2759C68.7932 30.6677 70.498 31.0795 71.5706 32.4299C73.395 34.7236 73.0311 39.0429 70.6704 43.1754L53.2304 73.6881C50.9128 77.7392 47.3261 80.4256 44.3285 80.4304ZM68.4963 31.386C67.9935 31.386 67.4524 31.4722 66.8874 31.6398L42.1689 39.0956C39.4825 39.9048 36.7003 42.5146 34.9094 45.9001C33.3244 48.8978 32.7977 52.0151 33.5016 54.2418L40.7802 77.2987C41.2926 78.922 42.3556 79.8654 43.8544 80.0282C46.8042 80.3442 50.5201 77.6626 52.8952 73.5014L70.3352 42.9887C72.5858 39.0477 72.9689 34.805 71.2689 32.6645C70.5937 31.817 69.636 31.3812 68.4963 31.3812V31.386Z" fill="#FF8365"/>
<path d="M45.7151 82.862C45.6768 82.862 45.6433 82.862 45.605 82.862C43.7901 82.8237 42.3631 81.8277 41.5874 80.0464L31.2968 56.5346C30.2864 54.2313 30.5114 51.0086 31.9049 47.6901C33.5761 43.7156 36.545 40.5168 39.648 39.3388L66.282 29.2541C68.5278 28.4018 70.4911 28.7274 71.808 30.1735C73.8958 32.4577 73.8527 36.9589 71.7026 41.3692L55.3545 74.9657C53.0847 79.6346 49.1341 82.862 45.7103 82.862H45.7151ZM66.349 29.4361L66.416 29.6133L39.7821 39.698C36.7701 40.8377 33.8874 43.9598 32.2545 47.8433C30.8993 51.0612 30.679 54.1786 31.6463 56.3861L41.9369 79.8979C42.6648 81.5596 43.9386 82.455 45.6193 82.4885C48.9282 82.5508 52.7926 79.3951 55.0241 74.8077L71.3722 41.2112C73.4504 36.935 73.5175 32.6061 71.535 30.4369C70.3283 29.1153 68.5134 28.8232 66.4208 29.6181L66.3538 29.4409L66.349 29.4361Z" fill="#FF8365"/>
<path d="M47.4623 85.2852C45.6235 85.2852 44.096 84.3753 43.1287 82.6993L29.4622 58.9912C28.1645 56.7406 28.0639 53.4508 29.1796 49.9647C30.6066 45.5066 33.6138 41.7667 37.0329 40.2057L65.5391 27.1856L65.6158 27.358L65.5391 27.1856C68.034 26.0459 70.2894 26.2614 71.8888 27.7937C74.2878 30.0874 74.5991 34.6366 72.6837 39.382L57.8439 76.1103C55.7705 81.2388 51.6667 85.0074 47.8646 85.2708C47.7305 85.2804 47.5964 85.2852 47.4623 85.2852ZM68.532 26.8456C67.6509 26.8456 66.6932 27.0707 65.6924 27.5304L37.1861 40.5504C33.8628 42.0684 30.9322 45.7173 29.5388 50.0797C28.4566 53.4652 28.5475 56.6496 29.7878 58.8044L43.4543 82.5126C44.4312 84.2029 45.9444 85.0266 47.8359 84.8973C51.4991 84.6435 55.4688 80.9707 57.4896 75.9714L72.3293 39.2432C74.1585 34.7132 73.876 30.2263 71.6254 28.0715C70.7778 27.2574 69.7196 26.8504 68.532 26.8504V26.8456Z" fill="#FF8365"/>
<path d="M49.6096 87.6687C47.7995 87.6687 46.2289 86.8642 45.1035 85.3415L27.6828 61.7339C26.069 59.5503 25.6189 56.1935 26.4425 52.5303C27.5295 47.6986 30.5894 43.3075 34.2335 41.349L64.5259 25.0823C67.2315 23.6313 69.8748 23.708 71.7806 25.2978C74.4813 27.5484 75.19 32.2268 73.5811 37.2117L60.7094 77.086C58.9329 82.5928 54.8004 86.9073 50.6583 87.5825C50.2991 87.64 49.9496 87.6687 49.6048 87.6687H49.6096ZM64.6169 25.2451L64.7079 25.4127L34.4155 41.6794C30.8624 43.5901 27.8743 47.8806 26.8113 52.6069C26.0116 56.1648 26.4378 59.4067 27.9892 61.504L45.41 85.1116C46.679 86.8259 48.4699 87.549 50.6008 87.2042C54.6088 86.5482 58.6169 82.3391 60.3503 76.9615L73.222 37.0872C74.783 32.2508 74.1222 27.7304 71.5412 25.5803C69.7359 24.0719 67.3081 24.0144 64.7079 25.4079L64.6169 25.2403V25.2451Z" fill="#FF8365"/>
<path d="M52.1531 89.9735C50.3861 89.9735 48.7915 89.2744 47.5369 87.9288L25.9645 64.7713C24.0012 62.6596 23.1679 59.2405 23.6803 55.3858C24.3795 50.1567 27.3436 45.2196 31.2367 42.8014L63.1907 22.9624L63.2913 23.1252L63.1907 22.9624C66.1453 21.1284 69.1525 21.0231 71.4414 22.6799C74.4678 24.8683 75.6074 29.6425 74.3528 34.8476L63.9665 77.8441C62.5586 83.6765 58.474 88.5609 54.035 89.7245C53.3933 89.8921 52.7612 89.9783 52.1483 89.9783L52.1531 89.9735ZM63.3918 23.2833L31.4378 43.1223C27.6357 45.483 24.7386 50.3147 24.0538 55.4336C23.5558 59.1735 24.3507 62.4824 26.2374 64.5127L47.8099 87.6702C49.3997 89.3749 51.5785 89.9735 53.9392 89.3558C58.2489 88.2257 62.2234 83.4515 63.5977 77.7531L73.9841 34.7566C75.2052 29.7047 74.1182 25.0838 71.2163 22.9864C69.0615 21.4253 66.2075 21.5354 63.387 23.2833H63.3918Z" fill="#FF8365"/>
<path d="M55.131 92.1618C53.4215 92.1618 51.8269 91.5728 50.4765 90.4187L24.355 68.1136C21.9894 66.0928 20.7348 62.602 20.9216 58.5413C21.1706 52.977 23.9767 47.5037 28.0661 44.6018L61.5142 20.8697L61.6243 21.0229L61.5142 20.8697C64.7129 18.5999 68.1128 18.2695 70.8375 19.9647C74.2661 22.0908 75.8511 26.8171 74.9796 32.3L67.6483 78.3372C66.6619 84.5288 62.8071 89.8632 58.0568 91.6111C57.0608 91.9798 56.0792 92.1618 55.1262 92.1618H55.131ZM67.088 19.2751C65.3498 19.2751 63.511 19.912 61.7344 21.1762L28.2816 44.9083C24.2831 47.7479 21.5393 53.1015 21.2951 58.5556C21.1179 62.5014 22.3198 65.8821 24.5992 67.8263L50.716 90.1314C52.7128 91.8361 55.2699 92.2336 57.9227 91.2567C62.5485 89.552 66.3075 84.3372 67.27 78.2749L74.6013 32.2377C75.4489 26.9129 73.9309 22.3302 70.6316 20.2855C69.5446 19.6103 68.3379 19.2751 67.0785 19.2751H67.088Z" fill="#FF8365"/>
<path d="M58.5575 94.1848C56.9294 94.1848 55.3683 93.706 53.9605 92.7578L22.8875 71.7648C20.0623 69.8542 18.3384 66.2963 18.1612 61.9913C17.917 56.1541 20.4932 50.178 24.7215 46.7781L59.4434 18.8177C62.8672 16.0595 66.6837 15.4562 69.9207 17.1561C73.7324 19.1577 75.8394 23.9127 75.418 29.568L71.7643 78.5167C71.2855 84.8998 67.6701 90.7849 62.7666 93.1601C61.354 93.8448 59.9318 94.1848 58.5575 94.1848ZM59.5631 18.9662L59.6828 19.1146L24.9562 47.0702C20.8189 50.403 18.3001 56.2499 18.5395 61.977C18.7167 66.1574 20.3783 69.6099 23.103 71.4487L54.176 92.4418C56.6564 94.1178 59.6493 94.2519 62.6038 92.8201C67.3924 90.5024 70.9263 84.7418 71.3908 78.4879L75.0445 29.5393C75.4563 24.042 73.4259 19.4259 69.7483 17.4913C66.6549 15.8632 62.9869 16.457 59.6828 19.1146L59.5631 18.9662Z" fill="#FF8365"/>
<path d="M62.4831 96.0002C60.9603 96.0002 59.4663 95.6315 58.0585 94.8892L21.6319 75.7254C18.2799 73.9632 16.0197 70.3287 15.4403 65.7557C14.6693 59.7077 16.9487 53.2767 21.244 49.3644L56.9762 16.8645C60.5964 13.57 64.8582 12.6266 68.6651 14.2834C72.903 16.1223 75.5798 20.8677 75.6564 26.6667L76.3508 78.3304C76.4417 84.929 73.2478 91.1829 68.215 94.2667C66.3379 95.416 64.3889 95.9954 62.4783 95.9954L62.4831 96.0002ZM57.1007 17.0081L57.23 17.147L21.5026 49.6469C17.2935 53.4778 15.062 59.7795 15.8186 65.7078C16.3836 70.1563 18.572 73.6855 21.8139 75.3902L58.2404 94.554C61.2907 96.1582 64.7672 95.9427 68.0234 93.9459C72.9413 90.9291 76.0634 84.8045 75.9772 78.3352L75.2829 26.6714C75.2063 21.0209 72.6157 16.4096 68.5167 14.6282C64.8534 13.0384 60.7401 13.953 57.23 17.1422L57.1007 17.0033V17.0081Z" fill="#FF8365"/>
<path d="M66.8502 97.5269C65.4759 97.5269 64.1064 97.2683 62.7943 96.7464L20.6215 79.9912C16.6566 78.4158 13.7882 74.719 12.7491 69.8395C11.4083 63.5569 13.2854 56.8721 17.6478 52.3995L54.0456 15.0392C57.7663 11.2179 62.6076 9.84363 66.9843 11.3568C71.7585 13.0089 74.9908 17.5867 75.6325 23.6012L81.4027 77.7167C82.1114 84.3488 79.3627 91.0671 74.4066 94.831C72.0602 96.6123 69.4409 97.5269 66.8455 97.5269H66.8502ZM54.1845 15.1685L54.3186 15.3026L17.916 52.6629C13.6446 57.0492 11.8058 63.6 13.1178 69.7629C14.133 74.5131 16.9152 78.1141 20.7604 79.6417L62.9332 96.3968C66.6012 97.8525 70.7002 97.1726 74.1815 94.5293C79.0371 90.8421 81.7235 84.2578 81.0292 77.755L75.2589 23.6395C74.6316 17.7735 71.4951 13.3153 66.8646 11.716C62.6267 10.2507 57.9387 11.5915 54.3186 15.3026L54.1845 15.1685Z" fill="#FF8365"/>
<path d="M71.7232 98.7546C70.5501 98.7546 69.3673 98.5918 68.2037 98.2614L19.9015 84.5613C15.2374 83.2397 11.6652 79.4855 10.0993 74.2659C8.19345 67.9067 9.66833 60.8723 13.9445 55.9066L50.6201 13.3938C54.4413 8.95959 59.7519 7.10163 64.8181 8.41369C70.1191 9.78801 74.0409 14.2653 75.3051 20.3851L86.9317 76.6027C88.3156 83.3019 86.1751 90.2549 81.3435 94.7466C78.5182 97.3707 75.1423 98.7546 71.7185 98.7546H71.7232ZM50.7637 13.5183L50.9074 13.6428L14.2318 56.1556C10.037 61.0208 8.5909 67.9211 10.4584 74.1558C11.986 79.2508 15.4625 82.9093 20.002 84.1974L68.3042 97.8975C72.7336 99.1521 77.3929 97.907 81.0849 94.4688C85.8208 90.0634 87.9182 83.2493 86.5582 76.6794L74.9316 20.4617C73.6961 14.4856 69.8797 10.1184 64.7176 8.77762C59.7902 7.49908 54.6281 9.31394 50.9026 13.638L50.7589 13.5135L50.7637 13.5183Z" fill="#FF8365"/>
<path d="M77.0877 99.5976C76.1827 99.5976 75.2729 99.5162 74.3535 99.3486L19.558 89.4123C14.0895 88.4211 9.70795 84.6429 7.53394 79.0499C5.05826 72.6763 6.08301 65.345 10.206 59.9244L46.69 11.9814L46.8384 12.0963L46.69 11.9814C50.5448 6.91507 56.3054 4.49206 62.1043 5.50244C67.9943 6.52719 72.6823 10.8417 74.6504 17.0477L92.9666 74.9317C95.0544 81.5256 93.546 88.8042 89.0304 93.9327C85.7886 97.6151 81.5459 99.6024 77.0877 99.6024V99.5976ZM59.5185 5.65568C54.7491 5.65568 50.1952 7.99728 46.9917 12.2112L10.5124 60.159C6.46609 65.4791 5.4605 72.6667 7.89308 78.9158C10.0192 84.3844 14.2954 88.0763 19.6346 89.0436L74.4301 98.9799C79.7215 99.9376 84.9458 98.0078 88.7527 93.6789C93.1773 88.651 94.657 81.5112 92.6122 75.0419L74.296 17.1578C72.3758 11.0859 67.7979 6.86718 62.0469 5.87116C61.2041 5.72272 60.3613 5.65089 59.5233 5.65089L59.5185 5.65568Z" fill="#FF8365"/>
<path d="M82.7965 99.9951C82.2842 99.9951 81.7766 99.9712 81.2594 99.9281L19.6498 94.5362C13.3625 93.9855 7.91307 90.1307 5.07346 84.2216C1.98484 77.7954 2.50679 70.4162 6.45735 64.4832L42.1896 10.8609L42.3476 10.9662L42.1896 10.8609C45.9869 5.15773 52.1689 2.09784 58.7245 2.66768C65.28 3.2423 70.8347 7.33173 73.5881 13.6047L99.4655 72.6237C102.329 79.1553 101.558 86.5105 97.4016 92.3047C93.8916 97.1938 88.5189 99.9999 82.7918 99.9999L82.7965 99.9951ZM57.1682 2.97893C51.3309 2.97893 45.9294 5.92869 42.5056 11.0716L6.76861 64.6987C2.88988 70.5215 2.38229 77.7618 5.40866 84.0636C8.19081 89.8482 13.5205 93.6263 19.6738 94.1627L81.2881 99.5546C87.4414 100.091 93.3505 97.2992 97.0952 92.0844C101.17 86.4004 101.927 79.184 99.1207 72.777L73.2434 13.758C70.5474 7.60947 65.1076 3.60624 58.6957 3.04597C58.1834 3.00288 57.6758 2.97893 57.1682 2.97893Z" fill="#FF8365"/>
<path d="M88.9451 99.9037H20.2245C12.9219 99.9037 6.38554 96.1303 2.73666 89.8046C-0.91222 83.4837 -0.91222 75.9322 2.73666 69.6113L37.0946 10.0991C40.7434 3.77338 47.2846 0 54.5824 0C61.8849 0 68.4213 3.77338 72.0702 10.0991L106.428 69.6113C110.077 75.9322 110.077 83.4837 106.428 89.8046C102.779 96.1255 96.238 99.9037 88.9403 99.9037H88.9451ZM37.2574 10.1901L37.4202 10.2858L3.06228 69.798C-0.519558 76.004 -0.519558 83.4119 3.06228 89.6131C6.64412 95.819 13.0608 99.5206 20.2245 99.5206H88.9451C96.1087 99.5206 102.525 95.8142 106.107 89.6131C109.689 83.4071 109.689 75.9992 106.107 69.798L71.7446 10.2858C68.1627 4.07985 61.7461 0.378296 54.5824 0.378296C47.4187 0.378296 41.002 4.08464 37.4202 10.2858L37.2574 10.1901Z" fill="#FF8365"/>
</svg>
