<svg width="241" height="234" viewBox="0 0 241 234" fill="none" xmlns="http://www.w3.org/2000/svg">
<rect x="48.0586" y="39.4633" width="200.213" height="72.58" transform="rotate(26.9853 48.0586 39.4633)" fill="#21CFA5" stroke="#2B2B2B" stroke-width="0.5"/>
<rect x="51.2422" y="44.5503" width="189.92" height="66.4042" transform="rotate(26.9853 51.2422 44.5503)" fill="#21CFA5" stroke="#2B2B2B" stroke-width="0.5"/>
<rect x="55.3437" y="50.1039" width="177.568" height="60.2285" transform="rotate(26.9853 55.3437 50.1039)" fill="#21CFA5" stroke="#2B2B2B" stroke-width="0.5"/>
<path d="M66.3613 107.134L68.769 100.819L65.2187 99.011L61.5706 104.694L57.2505 102.495L77.3476 72.6528L83.0793 75.5714L71.0237 109.508L66.3613 107.134ZM75.3797 83.3932L68.1497 94.5244L70.6733 95.8095L75.3797 83.3932ZM88.1828 78.1701L92.5457 80.3917L88.0043 99.5712L96.6948 82.5044L101.1 84.7478L84.8958 116.572L80.9606 114.568L85.6631 93.9082L76.341 112.215L71.978 109.994L88.1828 78.1701ZM109.023 88.4049L109.921 88.8623C111.889 89.8642 113.075 91.025 113.481 92.3446C113.886 93.6642 113.602 95.2793 112.63 97.1899L109.972 102.408L105.31 100.034L107.64 95.4574C108.279 94.2027 108.143 93.343 107.23 92.8784C106.688 92.6025 106.23 92.5848 105.857 92.8254C105.483 93.0659 105.092 93.5854 104.686 94.3838L104.381 94.9827C103.916 95.8952 103.645 96.7447 103.568 97.5313C103.491 98.3178 103.59 99.4277 103.866 100.861L104.92 106.407C105.291 108.428 105.401 110.081 105.248 111.368C105.11 112.627 104.591 114.14 103.691 115.908L103.168 116.934C100.642 121.896 97.2966 123.317 93.1333 121.197L92.1923 120.718C88.2571 118.714 87.3131 115.702 89.3605 111.681L92.6058 105.308L97.3965 107.747L94.565 113.308C93.81 114.791 93.96 115.801 95.0151 116.338C95.5854 116.628 96.0863 116.632 96.5177 116.349C96.9921 116.052 97.4834 115.404 97.9917 114.406L98.3619 113.679C98.9573 112.51 99.3006 111.554 99.3919 110.81C99.4832 110.067 99.3916 108.907 99.1169 107.33L98.041 101.827C97.7109 100.007 97.6366 98.4252 97.8182 97.0812C98.0428 95.7233 98.569 94.2316 99.3966 92.6062L99.9194 91.5797C102.025 87.4449 105.059 86.3866 109.023 88.4049ZM125.553 97.1989L130.044 99.4859L121.727 121.214L134.45 101.729L138.984 104.038L118.716 133.793L113.54 131.157L120.961 111.612L109.476 129.088L104.13 126.366L116.356 92.5161L121.233 94.9991L112.938 116.684L125.553 97.1989ZM140.021 104.566L151.014 110.164L148.662 114.783L142.502 111.647L138.255 119.988L143.088 122.449L140.627 127.283L135.794 124.821L131.111 134.018L137.527 137.285L135.066 142.118L123.816 136.39L140.021 104.566ZM155.311 117.792L150.846 126.561L152.13 127.214C153.299 127.81 154.268 127.352 155.038 125.84L157.303 121.392C157.68 120.651 157.835 120.065 157.767 119.635C157.698 119.205 157.308 118.809 156.595 118.446L155.311 117.792ZM148.538 131.095L141.307 145.296L136.473 142.835L152.678 111.011L160.505 114.997C162.159 115.839 163.175 116.841 163.553 118.003C163.974 119.151 163.734 120.609 162.834 122.377L159.959 128.023C158.87 130.162 157.482 131.161 155.794 131.02C156.872 132.358 156.982 133.869 156.126 135.551L150.441 146.715C149.991 147.599 149.748 148.463 149.714 149.308L149.605 149.521L144.814 147.082C144.762 146.409 145.048 145.459 145.672 144.233L150.551 134.652C150.928 133.91 151.076 133.339 150.993 132.938C150.924 132.508 150.52 132.104 149.778 131.727L148.538 131.095ZM173.142 121.054L174.04 121.512C176.008 122.514 177.195 123.675 177.6 124.994C178.005 126.314 177.721 127.929 176.749 129.839L174.091 135.058L169.429 132.684L171.76 128.107C172.398 126.852 172.262 125.993 171.349 125.528C170.807 125.252 170.349 125.234 169.976 125.475C169.602 125.715 169.212 126.235 168.805 127.033L168.5 127.632C168.035 128.545 167.764 129.394 167.687 130.181C167.61 130.967 167.709 132.077 167.985 133.51L169.039 139.057C169.41 141.077 169.52 142.731 169.367 144.018C169.229 145.276 168.71 146.789 167.81 148.557L167.287 149.584C164.761 154.546 161.416 155.967 157.252 153.847L156.311 153.367C152.376 151.364 151.432 148.351 153.48 144.331L156.725 137.957L161.516 140.397L158.684 145.957C157.929 147.44 158.079 148.45 159.134 148.987C159.704 149.278 160.205 149.282 160.637 148.998C161.111 148.701 161.603 148.054 162.111 147.056L162.481 146.329C163.076 145.159 163.42 144.203 163.511 143.46C163.602 142.716 163.511 141.556 163.236 139.98L162.16 134.477C161.83 132.657 161.756 131.075 161.937 129.731C162.162 128.373 162.688 126.881 163.516 125.256L164.038 124.229C166.144 120.094 169.178 119.036 173.142 121.054Z" fill="white"/>
</svg>
