<svg width="222" height="140" viewBox="0 0 222 140" fill="none" xmlns="http://www.w3.org/2000/svg">
<rect x="5.91631" y="52.8289" width="200.213" height="72.58" transform="rotate(-10.4827 5.91631 52.8289)" fill="#FFC300" stroke="#2B2B2B" stroke-width="0.5"/>
<rect x="11.5374" y="54.9293" width="189.92" height="66.4042" transform="rotate(-10.4827 11.5374 54.9293)" fill="#FFC300" stroke="#2B2B2B" stroke-width="0.5"/>
<rect x="18.1702" y="56.8416" width="177.568" height="60.2284" transform="rotate(-10.4827 18.1702 56.8416)" fill="#FFC300" stroke="#2B2B2B" stroke-width="0.5"/>
<path d="M53.8808 66.4384L57.505 86.026C58.3842 90.7773 57.2143 93.7762 53.9953 95.0227L57.7596 101.648L51.3878 102.827L50.0953 95.8419C46.232 96.0686 43.8405 93.6961 42.9206 88.7245L39.3051 69.1841C38.3096 63.8035 40.0931 60.691 44.6556 59.8468L45.5524 59.6809C48.0067 59.2268 49.8812 59.5959 51.1757 60.7883C52.5017 61.9748 53.4034 63.8582 53.8808 66.4384ZM52.147 87.4079L48.4093 67.2067C48.0775 65.4132 47.2979 64.6299 46.0708 64.857C44.8121 65.0899 44.3487 66.1031 44.6806 67.8966L48.4183 88.0978C48.7502 89.8913 49.5612 90.6687 50.8513 90.43C52.047 90.2088 52.4789 89.2014 52.147 87.4079ZM59.4578 85.8599L54.3752 58.3902L59.8031 57.3859L64.9468 85.186C65.2554 86.8537 65.976 87.5828 67.1088 87.3732C68.2731 87.1577 68.7009 86.2162 68.3923 84.5485L63.2486 56.7484L68.6764 55.7441L73.7591 83.2138C74.7546 88.5945 73.0183 91.6982 68.5502 92.5249L67.6062 92.6996C63.1695 93.5205 60.4534 91.2406 59.4578 85.8599ZM70.7403 55.3622L82.8704 53.1178L83.8136 58.2153L77.0169 59.4728L78.7199 68.6766L84.0533 67.6898L85.0402 73.0233L79.7067 74.0101L81.5843 84.1579L88.6641 82.8479L89.651 88.1814L77.2377 90.4782L70.7403 55.3622ZM91.0643 51.26L92.0555 51.0766C94.2266 50.6749 95.8744 50.8744 96.9989 51.6752C98.1233 52.476 98.8806 53.9305 99.2707 56.0387L100.336 61.797L95.1914 62.7489L94.257 57.6986C94.0008 56.3141 93.3693 55.715 92.3624 55.9013C91.7645 56.0119 91.3904 56.2764 91.24 56.6948C91.0896 57.1131 91.0959 57.7628 91.2589 58.6439L91.3812 59.3046C91.5675 60.3115 91.8692 61.1507 92.2863 61.822C92.7034 62.4933 93.4573 63.3138 94.5479 64.2836L98.7584 68.0443C100.282 69.422 101.375 70.668 102.037 71.7822C102.693 72.8649 103.202 74.3817 103.563 76.3326L103.772 77.4654C104.785 82.9404 102.995 86.103 98.4006 86.953L97.3622 87.1451C93.02 87.9485 90.4384 86.1319 89.6174 81.6952L88.3162 74.6626L93.6025 73.6845L94.7378 79.8203C95.0405 81.4566 95.774 82.167 96.9383 81.9516C97.5676 81.8351 97.9674 81.5334 98.1376 81.0463C98.3334 80.5219 98.3295 79.709 98.1257 78.6077L97.9773 77.8053C97.7386 76.5152 97.4293 75.5473 97.0495 74.9017C96.6697 74.256 95.8913 73.3912 94.7145 72.3072L90.5127 68.5937C89.1436 67.35 88.1223 66.1396 87.4489 64.9625C86.8012 63.7481 86.3114 62.2441 85.9795 60.4505L85.7699 59.3178C84.9257 54.7552 86.6905 52.0693 91.0643 51.26ZM99.7632 49.9922L114.017 47.3548L114.96 52.4523L110.477 53.282L116.031 83.3004L110.744 84.2785L105.19 54.2601L100.706 55.0897L99.7632 49.9922ZM120.876 46.0858L127.373 81.2018L122.04 82.1886L115.542 47.0727L120.876 46.0858ZM138.922 50.7036L142.546 70.2912C143.565 75.7977 141.809 78.9702 137.278 79.8085L136.381 79.9745C131.787 80.8245 128.98 78.4962 127.962 72.9897L124.346 53.4493C123.351 48.0687 125.134 44.9562 129.697 44.1121L130.593 43.9461C133.048 43.492 134.922 43.8611 136.217 45.0535C137.543 46.2401 138.444 48.1234 138.922 50.7036ZM137.188 71.6731L133.45 51.472C133.118 49.6784 132.339 48.8951 131.112 49.1222C129.853 49.3551 129.39 50.3683 129.722 52.1619L133.459 72.363C133.791 74.1565 134.602 74.934 135.892 74.6953C137.088 74.474 137.52 73.4666 137.188 71.6731ZM139.511 42.6379L144.325 41.7472L152.388 59.7324L148.903 40.9L153.765 40.0005L160.262 75.1165L155.92 75.92L147.084 56.662L150.822 76.8631L146.008 77.7539L139.511 42.6379ZM162.277 38.0837L163.269 37.9004C165.44 37.4986 167.088 37.6982 168.212 38.499C169.336 39.2997 170.094 40.7542 170.484 42.8624L171.549 48.6207L166.405 49.5726L165.47 44.5223C165.214 43.1378 164.582 42.5387 163.576 42.725C162.978 42.8357 162.604 43.1001 162.453 43.5185C162.303 43.9368 162.309 44.5865 162.472 45.4676L162.594 46.1284C162.781 47.1353 163.082 47.9744 163.499 48.6457C163.917 49.317 164.67 50.1376 165.761 51.1073L169.972 54.868C171.496 56.2457 172.589 57.4917 173.25 58.6059C173.906 59.6886 174.415 61.2054 174.776 63.1563L174.985 64.2891C175.998 69.7641 174.208 72.9267 169.614 73.7767L168.575 73.9688C164.233 74.7723 161.652 72.9556 160.831 68.5189L159.529 61.4863L164.816 60.5082L165.951 66.6441C166.254 68.2803 166.987 68.9907 168.151 68.7753C168.781 68.6588 169.181 68.3571 169.351 67.87C169.547 67.3456 169.543 66.5327 169.339 65.4314L169.19 64.6291C168.952 63.339 168.642 62.3711 168.263 61.7254C167.883 61.0797 167.104 60.2149 165.928 59.1309L161.726 55.4174C160.357 54.1737 159.335 52.9633 158.662 51.7862C158.014 50.5718 157.525 49.0678 157.193 47.2742L156.983 46.1415C156.139 41.5789 157.904 38.893 162.277 38.0837Z" fill="white"/>
</svg>
