<svg width="73" height="61" viewBox="0 0 73 61" fill="none" xmlns="http://www.w3.org/2000/svg">
<rect x="7.2123" y="41.8261" width="58.7227" height="21.0631" transform="rotate(-41.5849 7.2123 41.8261)" fill="#FFC300" stroke="#2B2B2B" stroke-width="0.5"/>
<rect x="8.95449" y="41.4996" width="55.6856" height="19.2409" transform="rotate(-41.5849 8.95449 41.4996)" fill="#FFC300" stroke="#2B2B2B" stroke-width="0.5"/>
<rect x="10.9232" y="40.9714" width="52.0411" height="17.4187" transform="rotate(-41.5849 10.9232 40.9714)" fill="#FFC300" stroke="#2B2B2B" stroke-width="0.5"/>
<path d="M21.4785 38.6889L25.6103 43.3451C26.6125 44.4745 26.7835 45.4658 26.1234 46.319L28.2002 47.4842L26.6856 48.8282L25.2121 47.1677C24.215 47.852 23.1921 47.6033 22.1434 46.4215L18.0216 41.7765C16.8867 40.4975 16.8615 39.3768 17.946 38.4144L18.1592 38.2252C18.7426 37.7075 19.3038 37.5037 19.8426 37.6138C20.389 37.7172 20.9343 38.0756 21.4785 38.6889ZM24.3996 44.5798L20.1385 39.7778C19.7602 39.3514 19.4252 39.2677 19.1335 39.5265C18.8343 39.792 18.8738 40.138 19.2522 40.5643L23.5133 45.3663C23.8916 45.7926 24.2341 45.8697 24.5408 45.5976C24.825 45.3454 24.778 45.0061 24.3996 44.5798ZM26.106 42.9854L20.3116 36.4556L21.6019 35.3107L27.4659 41.919C27.8177 42.3154 28.1282 42.3942 28.3975 42.1552C28.6742 41.9097 28.6367 41.5887 28.2849 41.1922L22.4209 34.5839L23.7111 33.439L29.5055 39.9688C30.6405 41.2478 30.6769 42.3586 29.6148 43.3011L29.3904 43.5002C28.3357 44.436 27.2409 44.2644 26.106 42.9854ZM24.2017 33.0036L27.0852 30.4449L28.1604 31.6567L26.5448 33.0903L28.4862 35.2781L29.754 34.1531L30.879 35.4209L29.6112 36.546L31.7517 38.9582L33.4347 37.4648L34.5597 38.7326L31.609 41.351L24.2017 33.0036ZM28.9778 28.6251L29.2134 28.4161C29.7295 27.9581 30.2026 27.7455 30.6328 27.7782C31.0629 27.811 31.5003 28.0779 31.945 28.5791L33.1596 29.9479L31.9367 31.0331L30.8714 29.8326C30.5794 29.5035 30.3137 29.4451 30.0743 29.6575C29.9322 29.7836 29.8748 29.9148 29.9021 30.051C29.9294 30.1872 30.036 30.36 30.2218 30.5695L30.3612 30.7265C30.5736 30.9659 30.7898 31.1417 31.0097 31.254C31.2297 31.3663 31.5639 31.4642 32.0123 31.5476L33.746 31.8742C34.3762 31.9968 34.8698 32.1538 35.2267 32.3451C35.577 32.5289 35.9579 32.8527 36.3694 33.3164L36.6083 33.5857C37.7632 34.8872 37.7947 36.0224 36.7026 36.9915L36.4558 37.2105C35.4236 38.1264 34.4396 38.0571 33.5037 37.0025L32.0203 35.3307L33.2769 34.2157L34.5711 35.6742C34.9163 36.0632 35.2272 36.1348 35.504 35.8893C35.6536 35.7565 35.7118 35.6112 35.6787 35.4534C35.6465 35.2815 35.5142 35.0646 35.2819 34.8028L35.1127 34.6121C34.8405 34.3054 34.6015 34.0964 34.3957 33.9849C34.1898 33.8735 33.8419 33.7677 33.3521 33.6676L31.6283 33.3523C31.0612 33.2405 30.5925 33.0815 30.2223 32.8752C29.853 32.6548 29.4791 32.3315 29.1008 31.9051L28.8619 31.6358C27.8994 30.5513 27.9381 29.5477 28.9778 28.6251ZM31.1007 26.8817L34.4891 23.875L35.5643 25.0867L34.4984 26.0325L40.8304 33.1682L39.5738 34.2832L33.2418 27.1476L32.176 28.0934L31.1007 26.8817ZM36.1194 22.4282L43.5266 30.7756L42.2588 31.9006L34.8516 23.5533L36.1194 22.4282ZM41.6935 20.7508L45.8252 25.4069C46.9868 26.7158 47.029 27.8482 45.9519 28.804L45.7387 28.9931C44.6467 29.9622 43.5199 29.7922 42.3584 28.4833L38.2366 23.8384C37.1017 22.5593 37.0764 21.4386 38.161 20.4762L38.3742 20.287C38.9576 19.7693 39.5187 19.5655 40.0576 19.6756C40.604 19.779 41.1493 20.1374 41.6935 20.7508ZM44.6146 26.6416L40.3535 21.8396C39.9752 21.4132 39.6402 21.3295 39.3484 21.5884C39.0493 21.8538 39.0888 22.1998 39.4671 22.6261L43.7283 27.4281C44.1066 27.8544 44.4491 27.9315 44.7558 27.6594C45.04 27.4072 44.993 27.0679 44.6146 26.6416ZM40.549 18.4975L41.6934 17.482L46.7541 20.9929L42.7817 16.5163L43.9373 15.4908L51.3446 23.8382L50.3124 24.7541L44.8395 21.0274L49.1006 25.8294L47.9562 26.8449L40.549 18.4975ZM45.9058 13.6037L46.1414 13.3946C46.6575 12.9367 47.1306 12.7241 47.5608 12.7568C47.9909 12.7896 48.4283 13.0565 48.873 13.5577L50.0876 14.9265L48.8647 16.0116L47.7994 14.8112C47.5074 14.482 47.2417 14.4237 47.0023 14.6361C46.8602 14.7622 46.8028 14.8934 46.8301 15.0296C46.8574 15.1658 46.964 15.3386 47.1498 15.548L47.2892 15.7051C47.5016 15.9445 47.7178 16.1203 47.9377 16.2326C48.1577 16.3449 48.4919 16.4428 48.9403 16.5262L50.674 16.8528C51.3042 16.9754 51.7978 17.1323 52.1547 17.3237C52.505 17.5075 52.8859 17.8313 53.2974 18.295L53.5363 18.5643C54.6912 19.8658 54.7227 21.001 53.6306 21.9701L53.3838 22.1891C52.3516 23.105 51.3676 23.0357 50.4317 21.981L48.9483 20.3093L50.2049 19.1943L51.4991 20.6528C51.8443 21.0418 52.1552 21.1134 52.432 20.8679C52.5816 20.7351 52.6398 20.5898 52.6067 20.432C52.5745 20.2601 52.4422 20.0432 52.2099 19.7814L52.0407 19.5907C51.7685 19.284 51.5295 19.075 51.3237 18.9635C51.1178 18.8521 50.7699 18.7463 50.2801 18.6462L48.5563 18.3308C47.9892 18.2191 47.5205 18.0601 47.1503 17.8538C46.781 17.6334 46.4071 17.3101 46.0288 16.8837L45.7899 16.6144C44.8274 15.5299 44.8661 14.5263 45.9058 13.6037Z" fill="white"/>
</svg>
