<svg width="214" height="196" viewBox="0 0 214 196" fill="none" xmlns="http://www.w3.org/2000/svg">
<rect x="36.8359" y="37.729" width="174.078" height="63.0044" transform="rotate(20.7179 36.8359 37.729)" fill="#75EB3E" stroke="#2B2B2B" stroke-width="0.594256"/>
<rect x="40.0742" y="41.8271" width="165.12" height="57.6298" transform="rotate(20.7179 40.0742 41.8271)" fill="#75EB3E" stroke="#2B2B2B" stroke-width="0.594256"/>
<rect x="44.1503" y="46.2417" width="154.371" height="52.2553" transform="rotate(20.7179 44.1503 46.2417)" fill="#75EB3E" stroke="#2B2B2B" stroke-width="0.594256"/>
<path d="M61.0923 91.5524L64.03 83.7854L69.0135 85.6702L66.0928 93.3923C64.2702 98.2112 61.3385 99.8565 57.2979 98.3282L56.1755 97.9037C52.0151 96.3301 50.8236 93.1938 52.6009 88.4947L60.3102 68.1119C61.0347 66.1963 62.1136 64.7911 63.5469 63.8963C64.9914 62.9715 66.7762 62.911 68.9013 63.7148L70.0686 64.1563C71.3856 64.6544 72.4045 65.2621 73.1253 65.9795C73.876 66.7082 74.3044 67.5203 74.4105 68.4157C74.5166 69.3112 74.4937 70.1407 74.3417 70.9043C74.231 71.6493 73.9945 72.5007 73.6322 73.4585L71.3738 79.4297L66.3903 77.5448L68.6148 71.6634C69.1695 70.1968 68.8782 69.2484 67.7408 68.8183C67.1422 68.5918 66.6553 68.6129 66.28 68.8815C65.9459 69.1315 65.6317 69.6456 65.3374 70.4238L57.8319 90.2679C57.2546 91.7943 57.5046 92.7613 58.5821 93.1689C59.6896 93.5877 60.5263 93.0489 61.0923 91.5524ZM88.9087 80.0062L81.8617 98.6381C79.8806 103.876 76.7351 105.68 72.4251 104.05L71.572 103.727C67.2021 102.074 66.0078 98.6289 67.9888 93.391L75.0189 74.8041C76.9547 69.6859 80.0926 67.9476 84.4325 69.5891L85.2856 69.9117C87.6202 70.7947 89.0323 72.0815 89.5219 73.772C90.0414 75.4738 89.837 77.5519 88.9087 80.0062ZM76.5628 97.0445L83.8306 77.829C84.4759 76.1229 84.2149 75.0491 83.0476 74.6076C81.8503 74.1548 80.9291 74.7814 80.2838 76.4875L73.016 95.703C72.3708 97.409 72.6617 98.4941 73.8889 98.9583C75.0262 99.3884 75.9176 98.7505 76.5628 97.0445ZM93.5907 73.4121L98.6639 75.331L87.983 103.571L94.1786 105.914L92.2259 111.077L80.957 106.815L93.5907 73.4121ZM106.349 78.2377L111.422 80.1566L100.742 108.396L106.937 110.739L104.984 115.903L93.7155 111.64L106.349 78.2377ZM119.108 83.0633L130.646 87.4274L128.812 92.2762L122.347 89.8309L119.036 98.5856L124.109 100.504L122.19 105.578L117.117 103.659L113.466 113.312L120.201 115.859L118.282 120.932L106.474 116.466L119.108 83.0633ZM124.617 123.841L124.303 123.722C122.836 123.168 121.869 122.152 121.401 120.675C120.975 119.179 121.096 117.549 121.764 115.783L129.66 94.9061C131.471 90.1171 134.457 88.5095 138.617 90.083L139.605 90.4566C140.922 90.9547 141.926 91.5568 142.617 92.2629C143.307 92.9689 143.7 93.7847 143.795 94.71C143.901 95.6055 143.867 96.4649 143.692 97.2884C143.548 98.1232 143.26 99.1093 142.83 100.247L141.539 103.659L136.601 101.791L138.027 98.0196C138.605 96.4931 138.355 95.5261 137.277 95.1186C136.229 94.7224 135.417 95.2875 134.84 96.814L127.453 116.344C126.853 117.93 127.107 118.933 128.214 119.351C129.471 119.827 130.372 119.346 130.915 117.91L134.073 109.559L131.784 108.693L133.719 103.575L140.813 106.258L133.138 126.551L130.264 125.464C130.46 123.862 130.589 122.662 130.651 121.864C130.117 122.552 129.252 123.165 128.056 123.705C126.901 124.226 125.755 124.272 124.617 123.841ZM147.694 93.8753L159.232 98.2394L157.398 103.088L150.933 100.643L147.622 109.398L152.695 111.316L150.776 116.39L145.703 114.471L142.052 124.124L148.787 126.671L146.868 131.744L135.06 127.278L147.694 93.8753Z" fill="#2B2B2B"/>
</svg>
