<svg width="188" height="153" viewBox="0 0 188 153" fill="none" xmlns="http://www.w3.org/2000/svg">
<rect x="16.8505" y="103.642" width="153.329" height="55.4494" transform="rotate(-39.3606 16.8505 103.642)" fill="#FFF044" stroke="#2B2B2B" stroke-width="0.594256"/>
<rect x="21.404" y="102.97" width="145.435" height="50.7133" transform="rotate(-39.3607 21.404 102.97)" fill="#FFF044" stroke="#2B2B2B" stroke-width="0.594256"/>
<rect x="26.5676" y="101.797" width="135.963" height="45.9773" transform="rotate(-39.3607 26.5676 101.797)" fill="#FFF044" stroke="#2B2B2B" stroke-width="0.594256"/>
<path d="M43.6602 97.2577L64.8932 123.143L60.9617 126.368L39.7287 100.483L43.6602 97.2577ZM45.2669 95.9397L48.8158 93.0288L63.5777 104.143L52.1907 90.2605L55.7743 87.321L77.0073 113.207L73.8064 115.832L57.8341 104.023L70.0488 118.914L66.5 121.825L45.2669 95.9397ZM61.8948 81.8931L62.6255 81.2938C64.226 79.981 65.669 79.3988 66.9547 79.547C68.2403 79.6953 69.5205 80.5465 70.7953 82.1005L74.277 86.3452L70.4846 89.456L67.431 85.7332C66.5938 84.7126 65.8041 84.5067 65.0619 85.1155C64.6212 85.477 64.4338 85.8635 64.4997 86.2751C64.5657 86.6866 64.865 87.2171 65.3978 87.8665L65.7973 88.3536C66.4061 89.0959 67.0337 89.6481 67.6801 90.0104C68.3264 90.3726 69.3168 90.7049 70.6512 91.0072L75.8104 92.1881C77.6853 92.6291 79.1467 93.157 80.1944 93.7721C81.2231 94.3639 82.3272 95.3789 83.5068 96.817L84.1918 97.652C87.5023 101.688 87.4643 105.095 84.0778 107.873L83.3124 108.501C80.1115 111.126 77.1697 110.804 74.487 107.533L70.2347 102.349L74.1315 99.1527L77.8415 103.676C78.8309 104.882 79.7547 105.133 80.6129 104.429C81.0768 104.048 81.2684 103.62 81.1875 103.143C81.1109 102.624 80.7396 101.958 80.0737 101.146L79.5886 100.555C78.8085 99.6038 78.1164 98.9493 77.5123 98.5912C76.9081 98.2331 75.8776 97.8756 74.4207 97.5185L69.2901 96.3724C67.6031 95.9714 66.2167 95.4401 65.1309 94.7787C64.0493 94.075 62.9662 93.0621 61.8818 91.74L61.1968 90.905C58.4381 87.5417 58.6707 84.5377 61.8948 81.8931ZM68.4619 76.9138L78.9693 68.2951L82.0515 72.0527L78.7462 74.7639L96.897 96.892L93.0002 100.088L74.8495 77.9602L71.5442 80.6714L68.4619 76.9138ZM84.0251 64.148L105.258 90.0337L101.327 93.2586L80.0936 67.3729L84.0251 64.148ZM85.1447 63.2296L95.6521 54.6108L98.7343 58.3684L95.429 61.0796L113.58 83.2077L109.683 86.4041L91.5322 64.276L88.2269 66.9872L85.1447 63.2296ZM113.316 73.9951L96.7068 53.7458L100.708 50.4638L117.517 70.9566C118.526 72.186 119.447 72.4582 120.282 71.7732C121.141 71.0693 121.066 70.1026 120.057 68.8733L103.248 48.3804L107.249 45.0984L123.859 65.3477C127.112 69.3141 127.092 72.6481 123.798 75.3498L123.102 75.9206C119.832 78.6033 116.57 77.9614 113.316 73.9951ZM108.283 44.2501L118.791 35.6313L121.873 39.3889L118.567 42.1001L136.718 64.2282L132.821 67.4246L114.671 45.2965L111.365 48.0077L108.283 44.2501ZM119.915 34.7091L128.857 27.3746L131.939 31.1322L126.929 35.2418L132.494 42.0264L136.425 38.8015L139.65 42.7331L135.719 45.958L141.854 53.4384L147.073 49.1575L150.298 53.0891L141.148 60.5948L119.915 34.7091Z" fill="#2B2B2B"/>
</svg>
