<svg width="200" height="164" viewBox="0 0 200 164" fill="none" xmlns="http://www.w3.org/2000/svg">
<rect x="24.1971" y="38.939" width="163.349" height="59.0979" transform="rotate(9.54691 24.1971 38.939)" fill="#FFF044" stroke="#2B2B2B" stroke-width="0.594256"/>
<rect x="27.9242" y="42.1235" width="154.942" height="54.0535" transform="rotate(9.54691 27.9242 42.1235)" fill="#FFF044" stroke="#2B2B2B" stroke-width="0.594256"/>
<rect x="32.4803" y="45.4475" width="144.853" height="49.0091" transform="rotate(9.5469 32.4803 45.4475)" fill="#FFF044" stroke="#2B2B2B" stroke-width="0.594256"/>
<path d="M51.562 56.0311L46.0092 89.0474L40.9946 88.204L46.5474 55.1877L51.562 56.0311ZM53.6113 56.3757L58.1377 57.137L59.4643 75.5673L62.4423 57.861L67.0131 58.6297L61.4602 91.646L57.3776 90.9594L55.7793 71.1601L52.5849 90.1533L48.0585 89.3921L53.6113 56.3757ZM75.1266 59.6749L76.0585 59.8316C78.0999 60.1749 79.4872 60.8798 80.2205 61.9462C80.9538 63.0126 81.1537 64.5368 80.8203 66.519L79.9098 71.933L75.0727 71.1194L75.8713 66.3711C76.0903 65.0694 75.7264 64.3389 74.7797 64.1797C74.2176 64.0852 73.8031 64.198 73.5363 64.5182C73.2695 64.8384 73.0664 65.4126 72.9271 66.241L72.8226 66.8623C72.6634 67.809 72.6597 68.645 72.8115 69.3702C72.9634 70.0954 73.3639 71.0602 74.0131 72.2646L76.5142 76.929C77.4142 78.6318 77.9768 80.0802 78.2019 81.2741C78.432 82.4383 78.3928 83.9376 78.0843 85.7718L77.9051 86.8369C77.0394 91.9846 74.4468 94.1952 70.1275 93.4688L69.1512 93.3046C65.0685 92.6179 63.378 90.1889 64.0796 86.0175L65.1916 79.4054L70.1618 80.2413L69.1916 86.0102C68.9328 87.5486 69.3508 88.4099 70.4454 88.594C71.0371 88.6935 71.4861 88.5561 71.7924 88.1817C72.1333 87.7827 72.3909 87.0655 72.565 86.03L72.6919 85.2756C72.8959 84.0627 72.9343 83.1108 72.8071 82.4202C72.6799 81.7295 72.272 80.7179 71.5835 79.3852L69.075 74.7652C68.2684 73.2301 67.7576 71.8361 67.5424 70.5831C67.3618 69.3054 67.4133 67.8234 67.6969 66.1371L67.876 65.0721C68.5975 60.7823 71.0144 58.9832 75.1266 59.6749ZM83.1957 61.3514L96.5974 63.6054L95.7914 68.398L91.5756 67.689L86.8288 95.9126L81.8586 95.0767L86.6054 66.8531L82.3896 66.1441L83.1957 61.3514ZM103.046 64.6899L97.4931 97.7062L92.4785 96.8628L98.0314 63.8465L103.046 64.6899ZM104.474 64.9301L117.876 67.184L117.07 71.9767L112.854 71.2677L108.107 99.4913L103.137 98.6554L107.884 70.4318L103.668 69.7228L104.474 64.9301ZM114.877 93.2375L119.221 67.4103L124.324 68.2686L119.928 94.4065C119.665 95.9745 120.065 96.848 121.13 97.0271C122.225 97.2112 122.904 96.5193 123.168 94.9513L127.564 68.8134L132.667 69.6717L128.323 95.499C127.473 100.558 124.947 102.734 120.746 102.028L119.858 101.878C115.687 101.177 114.026 98.2965 114.877 93.2375ZM133.986 69.8936L147.388 72.1475L146.582 76.9402L142.366 76.2312L137.619 104.455L132.649 103.619L137.396 75.3953L133.18 74.6863L133.986 69.8936ZM148.822 72.3887L160.227 74.3068L159.421 79.0995L153.03 78.0248L151.575 86.6782L156.59 87.5216L155.746 92.5362L150.732 91.6928L149.127 101.234L155.784 102.353L154.94 107.368L143.269 105.405L148.822 72.3887Z" fill="#2B2B2B"/>
</svg>
