<svg width="118" height="79" viewBox="0 0 118 79" fill="none" xmlns="http://www.w3.org/2000/svg">
<rect x="6.66128" y="26.4037" width="101.673" height="36.6413" transform="rotate(-5.94809 6.66128 26.4037)" fill="#75EB3E" stroke="#2B2B2B" stroke-width="0.594256"/>
<rect x="9.43228" y="27.6966" width="96.4281" height="33.4947" transform="rotate(-5.94809 9.43228 27.6966)" fill="#75EB3E" stroke="#2B2B2B" stroke-width="0.594256"/>
<rect x="12.7248" y="28.9354" width="90.1347" height="30.348" transform="rotate(-5.94809 12.7248 28.9354)" fill="#75EB3E" stroke="#2B2B2B" stroke-width="0.594256"/>
<path d="M18.2702 35.6813L24.2777 35.0554L24.5016 37.2038L22.6118 37.4007L23.9299 50.0522L21.702 50.2843L20.3838 37.6328L18.4941 37.8297L18.2702 35.6813ZM24.9205 34.9884L30.0328 34.4558L30.2567 36.6042L27.3922 36.9026L27.7963 40.7816L30.0441 40.5474L30.2783 42.7952L28.0305 43.0294L28.4761 47.3063L31.4599 46.9954L31.6941 49.2432L26.4625 49.7883L24.9205 34.9884ZM35.7157 45.7879L35.3571 42.3465L37.5652 42.1165L37.9217 45.5379C38.1441 47.6731 37.3602 48.8339 35.5699 49.0204L35.0726 49.0722C33.2292 49.2643 32.1991 48.3193 31.9822 46.2372L31.0412 37.2061C30.9528 36.3574 31.0917 35.6324 31.4581 35.0312C31.823 34.4167 32.4763 34.0604 33.4179 33.9623L33.9351 33.9085C34.5186 33.8477 35.0116 33.8834 35.4142 34.0158C35.83 34.1467 36.1413 34.369 36.3483 34.6825C36.5552 34.9961 36.7018 35.3093 36.788 35.622C36.8861 35.9201 36.9572 36.2814 37.0015 36.7058L37.2771 39.3514L35.0691 39.5815L34.7976 36.9756C34.7299 36.3258 34.444 36.0271 33.9401 36.0796C33.6749 36.1073 33.4975 36.2062 33.408 36.3764C33.3303 36.5319 33.3095 36.7821 33.3454 37.1269L34.2615 45.9193C34.332 46.5956 34.6059 46.9089 35.0833 46.8592C35.574 46.8081 35.7848 46.451 35.7157 45.7879ZM40.6013 41.7398L41.279 48.2446L39.0311 48.4788L37.4892 33.6789L39.737 33.4447L40.3546 39.3726L41.8863 39.213L41.2687 33.2851L43.5165 33.0509L45.0585 47.8508L42.8107 48.085L42.133 41.5802L40.6013 41.7398ZM44.4243 32.9564L46.4533 32.745L49.2098 40.481L48.3829 32.5439L50.4318 32.3305L51.9737 47.1303L50.1437 47.321L47.1082 39.0309L47.9953 47.5449L45.9663 47.7563L44.4243 32.9564ZM57.7649 34.8441L58.625 43.0994C58.8668 45.4202 58.0328 46.68 56.1232 46.879L55.7452 46.9184C53.809 47.1201 52.72 46.0606 52.4782 43.7398L51.6202 35.5044C51.3839 33.2367 52.2273 32.0026 54.1502 31.8023L54.5281 31.7629C55.5625 31.6551 56.329 31.8702 56.8274 32.4081C57.3391 32.9446 57.6516 33.7566 57.7649 34.8441ZM56.3539 43.4969L55.4669 34.983C55.3881 34.2271 55.0901 33.876 54.5729 33.9299C54.0425 33.9852 53.8166 34.3908 53.8954 35.1467L54.7824 43.6606C54.8612 44.4165 55.1724 44.7661 55.7162 44.7095C56.2201 44.657 56.4327 44.2528 56.3539 43.4969ZM58.2751 31.5133L60.5229 31.2791L61.8266 43.7913L64.5717 43.5053L64.81 45.793L59.8171 46.3132L58.2751 31.5133ZM70.353 33.5325L71.2131 41.7879C71.4549 44.1086 70.6209 45.3685 68.7113 45.5675L68.3333 45.6068C66.3971 45.8086 65.3081 44.749 65.0663 42.4283L64.2083 34.1929C63.972 31.9251 64.8154 30.6911 66.7383 30.4907L67.1163 30.4514C68.1507 30.3436 68.9171 30.5587 69.4155 31.0966C69.9272 31.6331 70.2397 32.4451 70.353 33.5325ZM68.942 42.1853L68.055 33.6714C67.9762 32.9155 67.6783 32.5645 67.1611 32.6184C66.6306 32.6737 66.4047 33.0792 66.4835 33.8352L67.3705 42.3491C67.4493 43.105 67.7605 43.4546 68.3043 43.398C68.8082 43.3455 69.0208 42.9412 68.942 42.1853ZM74.6539 44.9684L74.5146 44.9829C73.8648 45.0506 73.3147 44.8532 72.8644 44.3908C72.4259 43.9136 72.1659 43.2838 72.0844 42.5014L71.1206 33.2515C70.8996 31.1296 71.7107 29.9727 73.5541 29.7806L73.9917 29.735C74.5752 29.6742 75.0616 29.7107 75.4509 29.8444C75.8402 29.9781 76.139 30.2084 76.3473 30.5352C76.5542 30.8488 76.7022 31.1752 76.7912 31.5145C76.8934 31.8524 76.9708 32.2733 77.0233 32.7773L77.1808 34.2891L74.9926 34.517L74.8185 32.8461C74.7481 32.1698 74.4741 31.8565 73.9967 31.9062C73.5326 31.9546 73.3357 32.3169 73.4062 32.9932L74.3077 41.6464C74.381 42.3493 74.6629 42.6751 75.1536 42.624C75.7106 42.566 75.9559 42.2187 75.8896 41.5821L75.5041 37.8822L74.4896 37.9879L74.2533 35.7201L77.3963 35.3927L78.3331 44.384L77.06 44.5167C76.8331 43.8834 76.6567 43.4125 76.5307 43.1039C76.4606 43.4597 76.2532 43.85 75.9087 44.2747C75.5761 44.6847 75.1578 44.9159 74.6539 44.9684ZM79.8908 29.2612L81.4327 44.0611L79.1849 44.2953L77.6429 29.4954L79.8908 29.2612ZM85.7185 40.5782L85.3599 37.1368L87.568 36.9068L87.9245 40.3282C88.1469 42.4634 87.363 43.6242 85.5727 43.8107L85.0754 43.8625C83.232 44.0546 82.2019 43.1096 81.9849 41.0275L81.044 31.9964C80.9556 31.1477 81.0945 30.4227 81.4609 29.8215C81.8258 29.207 82.4791 28.8507 83.4207 28.7526L83.9379 28.6988C84.5214 28.638 85.0144 28.6737 85.4169 28.8061C85.8327 28.937 86.1441 29.1593 86.3511 29.4728C86.558 29.7864 86.7046 30.0996 86.7908 30.4123C86.8889 30.7104 86.96 31.0717 87.0042 31.4961L87.2799 34.1417L85.0718 34.3718L84.8003 31.7659C84.7326 31.1161 84.4468 30.8174 83.9429 30.8699C83.6776 30.8976 83.5003 30.9965 83.4108 31.1667C83.3331 31.3222 83.3123 31.5724 83.3482 31.9172L84.2643 40.7096C84.3347 41.3859 84.6087 41.6992 85.0861 41.6495C85.5768 41.5984 85.7876 41.2413 85.7185 40.5782ZM92.7936 42.8774L92.205 40.1236L90.554 40.2956L90.5656 43.1095L88.5565 43.3188L88.8247 28.3304L91.4903 28.0526L94.9618 42.6515L92.7936 42.8774ZM90.5696 32.5322L90.5626 38.0627L91.7363 37.9404L90.5696 32.5322ZM93.8637 27.8054L96.1115 27.5712L97.4152 40.0834L100.16 39.7974L100.399 42.085L95.4057 42.6052L93.8637 27.8054Z" fill="#2B2B2B"/>
</svg>
