<svg width="193" height="123" viewBox="0 0 193 123" fill="none" xmlns="http://www.w3.org/2000/svg">
<rect x="4.73172" y="62.3623" width="171.677" height="62.1301" transform="rotate(-20.5975 4.73172 62.3623)" fill="#75EB3E" stroke="#2B2B2B" stroke-width="0.594256"/>
<rect x="9.79898" y="63.2893" width="162.842" height="56.8294" transform="rotate(-20.5975 9.79898 63.2893)" fill="#75EB3E" stroke="#2B2B2B" stroke-width="0.594256"/>
<rect x="15.6931" y="63.9053" width="152.241" height="51.5288" transform="rotate(-20.5975 15.6931 63.9053)" fill="#75EB3E" stroke="#2B2B2B" stroke-width="0.594256"/>
<path d="M24.948 74.2779L34.8423 70.5593L36.1721 74.0977L33.0597 75.2674L40.8908 96.1045L37.2213 97.4835L29.3902 76.6465L26.2778 77.8162L24.948 74.2779ZM35.9009 70.1615L44.3209 66.997L45.6507 70.5354L40.9329 72.3085L43.334 78.6972L47.0361 77.3058L48.4275 81.008L44.7253 82.3993L47.3727 89.4433L52.287 87.5964L53.6784 91.2985L45.0619 94.5369L35.9009 70.1615ZM58.9581 83.6684L56.8279 78.0004L60.4646 76.6337L62.5824 82.2689C63.904 85.7854 63.0905 88.0977 60.1419 89.2059L59.3228 89.5137C56.2868 90.6547 54.1244 89.5107 52.8356 86.0815L47.2455 71.2073C46.7202 69.8094 46.6346 68.5205 46.9887 67.3404C47.3347 66.1386 48.2831 65.2462 49.8338 64.6634L50.6856 64.3433C51.6467 63.9821 52.4973 63.8244 53.2374 63.8703C53.9993 63.908 54.6249 64.1465 55.1141 64.5858C55.6032 65.0252 55.99 65.4905 56.2744 65.9819C56.5724 66.4432 56.8527 67.0233 57.1154 67.7223L58.753 72.0797L55.1164 73.4464L53.5034 69.1545C53.1012 68.0843 52.4851 67.7051 51.6551 68.0171C51.2182 68.1812 50.9617 68.4272 50.8855 68.755C50.8229 69.0527 50.8983 69.4855 51.1117 70.0534L56.5541 84.5345C56.9727 85.6484 57.5752 86.0576 58.3615 85.7621C59.1696 85.4584 59.3685 84.7605 58.9581 83.6684ZM65.4383 74.6523L69.4646 85.3657L65.7624 86.757L56.6015 62.3816L60.3037 60.9903L63.973 70.7535L66.4957 69.8054L62.8264 60.0422L66.5286 58.6508L75.6895 83.0262L71.9873 84.4175L67.961 73.7042L65.4383 74.6523ZM68.0237 58.0889L71.3654 56.833L79.4563 68.7109L74.5434 55.6386L77.918 54.3704L87.0789 78.7458L84.0647 79.8786L75.2564 67.186L80.5264 81.2084L77.1846 82.4643L68.0237 58.0889ZM91.4462 55.3807L96.5561 68.9772C97.9926 72.7995 97.1383 75.3017 93.9931 76.4837L93.3706 76.7177C90.1817 77.9161 87.869 76.6042 86.4324 72.7819L81.3348 59.2182C79.9311 55.4833 80.8128 53.0207 83.9799 51.8304L84.6024 51.5965C86.306 50.9562 87.6988 50.9811 88.7808 51.6713C89.8846 52.3532 90.7731 53.5897 91.4462 55.3807ZM92.8869 70.6553L87.6169 56.6329C87.149 55.3879 86.4891 54.9255 85.6373 55.2456C84.7636 55.574 84.5608 56.3607 85.0287 57.6056L90.2986 71.628C90.7665 72.873 91.4482 73.3272 92.3438 72.9907C93.1737 72.6787 93.3548 71.9003 92.8869 70.6553ZM90.8359 49.5155L94.5381 48.1241L102.283 68.7318L106.804 67.0326L108.22 70.8003L99.9968 73.8908L90.8359 49.5155ZM112.179 47.5889L117.289 61.1853C118.725 65.0076 117.871 67.5098 114.726 68.6919L114.103 68.9258C110.914 70.1243 108.602 68.8124 107.165 64.9901L102.067 51.4264C100.664 47.6914 101.545 45.2288 104.712 44.0386L105.335 43.8046C107.039 43.1643 108.431 43.1893 109.513 43.8794C110.617 44.5613 111.506 45.7978 112.179 47.5889ZM113.619 62.8634L108.349 48.841C107.882 47.5961 107.222 47.1336 106.37 47.4538C105.496 47.7821 105.293 48.5688 105.761 49.8138L111.031 63.8362C111.499 65.0812 112.181 65.5354 113.076 65.1988C113.906 64.8869 114.087 64.1084 113.619 62.8634ZM124.522 65.0476L124.293 65.1337C123.222 65.536 122.204 65.4452 121.236 64.8615C120.283 64.2477 119.564 63.2965 119.08 62.0078L113.354 46.7732C112.041 43.2785 112.902 40.9607 115.938 39.8197L116.659 39.5488C117.62 39.1876 118.459 39.0341 119.178 39.0882C119.896 39.1423 120.504 39.3999 121.001 39.8611C121.49 40.3004 121.885 40.7876 122.186 41.3227C122.509 41.8495 122.826 42.5279 123.138 43.3579L124.074 45.8479L120.47 47.2023L119.436 44.4502C119.017 43.3363 118.415 42.9271 117.628 43.2226C116.864 43.5099 116.691 44.2105 117.109 45.3245L122.466 59.5762C122.901 60.7338 123.522 61.1608 124.33 60.857C125.248 60.5123 125.509 59.8157 125.115 58.7673L122.825 52.6734L121.154 53.3014L119.751 49.5665L124.927 47.621L130.493 62.4297L128.396 63.2177C127.732 62.246 127.224 61.5268 126.875 61.06C126.913 61.6936 126.735 62.4461 126.34 63.3175C125.958 64.159 125.352 64.7356 124.522 65.0476ZM126.437 36.1357L135.598 60.5111L131.896 61.9025L122.735 37.5271L126.437 36.1357ZM141.313 52.7174L139.182 47.0495L142.819 45.6827L144.937 51.3179C146.258 54.8344 145.445 57.1467 142.496 58.2549L141.677 58.5628C138.641 59.7038 136.479 58.5597 135.19 55.1305L129.6 40.2563C129.075 38.8584 128.989 37.5695 129.343 36.3895C129.689 35.1876 130.638 34.2952 132.188 33.7124L133.04 33.3923C134.001 33.0311 134.852 32.8734 135.592 32.9193C136.354 32.957 136.979 33.1955 137.469 33.6349C137.958 34.0742 138.344 34.5395 138.629 35.0309C138.927 35.4922 139.207 36.0723 139.47 36.7713L141.107 41.1287L137.471 42.4955L135.858 38.2036C135.456 37.1333 134.84 36.7542 134.01 37.0661C133.573 37.2303 133.316 37.4762 133.24 37.804C133.177 38.1017 133.253 38.5345 133.466 39.1024L138.909 53.5835C139.327 54.6974 139.93 55.1066 140.716 54.8111C141.524 54.5074 141.723 53.8095 141.313 52.7174ZM154.309 53.4789L152.094 49.0768L149.374 50.0988L150.64 54.8579L147.331 56.1016L141.151 30.6057L145.541 28.9557L157.88 52.1368L154.309 53.4789ZM145.965 36.9476L148.401 46.3144L150.334 45.5879L145.965 36.9476ZM149.45 27.4866L153.152 26.0953L160.897 46.7029L165.419 45.0037L166.835 48.7714L158.611 51.862L149.45 27.4866Z" fill="#2B2B2B"/>
</svg>
