<svg width="238" height="213" viewBox="0 0 238 213" fill="none" xmlns="http://www.w3.org/2000/svg">
<rect x="37.7835" y="42.4809" width="194.066" height="70.2819" transform="rotate(18.308 37.7835 42.4809)" fill="#75EB3E" stroke="#2B2B2B" stroke-width="0.594256"/>
<rect x="41.5813" y="46.892" width="184.083" height="64.2923" transform="rotate(18.308 41.5813 46.892)" fill="#75EB3E" stroke="#2B2B2B" stroke-width="0.594256"/>
<rect x="46.3272" y="51.6166" width="172.104" height="58.3028" transform="rotate(18.308 46.3272 51.6166)" fill="#75EB3E" stroke="#2B2B2B" stroke-width="0.594256"/>
<path d="M47.6505 65.325L59.119 69.1196L57.762 73.221L54.1544 72.0273L46.163 96.1796L41.9098 94.7723L49.9011 70.62L46.2935 69.4263L47.6505 65.325ZM60.3461 69.5256L70.1058 72.7548L68.7487 76.8562L63.2803 75.0468L60.8301 82.452L65.1213 83.8718L63.7015 88.163L59.4103 86.7432L56.7088 94.9079L62.4051 96.7926L60.9852 101.084L50.9977 97.7792L60.3461 69.5256ZM71.1573 98.0875L73.331 91.5177L77.5463 92.9125L75.3851 99.4442C74.0365 103.52 71.6533 104.993 68.2355 103.862L67.2861 103.548C63.7671 102.383 62.6651 99.8139 63.9803 95.8392L69.6848 78.5984C70.2209 76.9781 71.0699 75.7704 72.2319 74.9751C73.4022 74.1545 74.8861 74.0416 76.6836 74.6364L77.671 74.963C78.7849 75.3316 79.6545 75.8019 80.2798 76.374C80.9304 76.9544 81.3156 77.6155 81.4353 78.3573C81.555 79.0991 81.565 79.7906 81.4652 80.4317C81.3991 81.0559 81.232 81.773 80.964 82.5832L79.2928 87.6339L75.0776 86.2392L76.7236 81.2644C77.1341 80.0239 76.8583 79.2445 75.8962 78.9262C75.3899 78.7586 74.9852 78.7933 74.6821 79.03C74.4128 79.2499 74.1692 79.6889 73.9514 80.3472L68.3977 97.1322C67.9705 98.4234 68.2126 99.2198 69.124 99.5213C70.0607 99.8313 70.7385 99.3533 71.1573 98.0875ZM83.3918 94.7202L79.2831 107.138L74.9919 105.718L84.3402 77.4647L88.6314 78.8845L84.8871 90.2011L87.8112 91.1686L91.5555 79.852L95.8467 81.2719L86.4984 109.525L82.2072 108.106L86.3159 95.6877L83.3918 94.7202ZM97.5797 81.8452L101.453 83.1269L100.123 99.4978L105.137 84.3457L109.048 85.6399L99.6998 113.893L96.2061 112.737L97.4826 95.127L92.1048 111.38L88.2313 110.099L97.5797 81.8452ZM120.354 96.2484L115.14 112.008C113.674 116.439 111.118 118.051 107.473 116.844L106.751 116.606C103.055 115.383 101.94 112.556 103.406 108.126L108.607 92.4038C110.04 88.0746 112.592 86.5173 116.262 87.7319L116.984 87.9707C118.959 88.6241 120.179 89.6459 120.646 91.0363C121.139 92.4351 121.041 94.1724 120.354 96.2484ZM110.672 110.867L116.05 94.6135C116.527 93.1705 116.273 92.2856 115.285 91.9589C114.273 91.6239 113.527 92.1779 113.05 93.6209L107.672 109.874C107.195 111.317 107.475 112.211 108.513 112.554C109.475 112.872 110.195 112.31 110.672 110.867ZM124.021 90.5941L128.313 92.014L120.409 115.9L125.65 117.634L124.205 122.002L114.673 118.848L124.021 90.5941ZM144.386 104.2L139.171 119.959C137.705 124.39 135.149 126.002 131.504 124.796L130.782 124.557C127.086 123.334 125.971 120.507 127.437 116.077L132.639 100.355C134.071 96.0259 136.623 94.4686 140.294 95.6832L141.015 95.922C142.99 96.5754 144.211 97.5972 144.678 98.9876C145.17 100.386 145.072 102.124 144.386 104.2ZM134.703 118.818L140.081 102.565C140.559 101.122 140.304 100.237 139.316 99.9102C138.304 99.5752 137.559 100.129 137.081 101.572L131.703 117.826C131.226 119.269 131.506 120.162 132.544 120.505C133.506 120.824 134.226 120.261 134.703 118.818ZM142.832 128.586L142.566 128.498C141.326 128.088 140.485 127.276 140.043 126.062C139.636 124.832 139.679 123.47 140.174 121.976L146.016 104.318C147.357 100.267 149.786 98.8241 153.305 99.9884L154.141 100.265C155.255 100.633 156.112 101.1 156.712 101.663C157.312 102.227 157.667 102.892 157.779 103.659C157.898 104.401 157.9 105.118 157.783 105.81C157.692 106.51 157.487 107.341 157.169 108.303L156.214 111.189L152.037 109.807L153.092 106.617C153.519 105.326 153.277 104.53 152.366 104.228C151.48 103.935 150.823 104.434 150.396 105.725L144.93 122.244C144.486 123.586 144.733 124.412 145.669 124.722C146.733 125.074 147.465 124.642 147.867 123.427L150.205 116.363L148.268 115.722L149.7 111.393L155.7 113.379L150.021 130.543L147.59 129.739C147.697 128.398 147.762 127.395 147.786 126.728C147.366 127.32 146.667 127.861 145.69 128.352C144.747 128.826 143.794 128.904 142.832 128.586ZM165.287 104.248L155.938 132.501L151.647 131.081L160.995 102.828L165.287 104.248ZM166.615 129.672L168.788 123.102L173.004 124.497L170.842 131.029C169.494 135.105 167.111 136.577 163.693 135.446L162.743 135.132C159.224 133.968 158.122 131.398 159.438 127.423L165.142 110.183C165.678 108.562 166.527 107.355 167.689 106.559C168.86 105.739 170.343 105.626 172.141 106.221L173.128 106.547C174.242 106.916 175.112 107.386 175.737 107.958C176.388 108.539 176.773 109.2 176.893 109.942C177.012 110.683 177.022 111.375 176.923 112.016C176.856 112.64 176.689 113.357 176.421 114.167L174.75 119.218L170.535 117.823L172.181 112.849C172.591 111.608 172.316 110.829 171.354 110.51C170.847 110.343 170.443 110.378 170.139 110.614C169.87 110.834 169.627 111.273 169.409 111.931L163.855 128.717C163.428 130.008 163.67 130.804 164.581 131.106C165.518 131.416 166.196 130.938 166.615 129.672ZM177.627 139.677L178.816 134.172L175.664 133.129L173.373 138.27L169.538 137.001L182.342 109.891L187.431 111.575L181.766 141.047L177.627 139.677ZM182.071 118.986L177.514 129.065L179.755 129.806L182.071 118.986ZM191.962 113.074L196.253 114.494L188.349 138.38L193.59 140.114L192.145 144.481L182.613 141.327L191.962 113.074Z" fill="#2B2B2B"/>
</svg>
