<svg width="108" height="88" viewBox="0 0 108 88" fill="none" xmlns="http://www.w3.org/2000/svg">
<rect x="13.7066" y="21.2627" width="87.5147" height="31.4864" transform="rotate(9.54691 13.7066 21.2627)" fill="#FFF044" stroke="#2B2B2B" stroke-width="0.594256"/>
<rect x="15.7096" y="22.9744" width="82.9962" height="28.7754" transform="rotate(9.54691 15.7096 22.9744)" fill="#FFF044" stroke="#2B2B2B" stroke-width="0.594256"/>
<rect x="18.1583" y="24.7605" width="77.5742" height="26.0643" transform="rotate(9.5469 18.1583 24.7605)" fill="#FFF044" stroke="#2B2B2B" stroke-width="0.594256"/>
<path d="M28.9159 30.851L25.9544 48.4597L23.2799 48.0099L26.2414 30.4012L28.9159 30.851ZM30.0088 31.0348L32.4229 31.4408L33.1305 41.2703L34.7187 31.8269L37.1565 32.2369L34.1949 49.8456L32.0175 49.4794L31.1651 38.9198L29.4614 49.0495L27.0473 48.6435L30.0088 31.0348ZM41.4837 32.7944L41.9807 32.8779C43.0694 33.0611 43.8093 33.437 44.2004 34.0057C44.5915 34.5745 44.6981 35.3874 44.5203 36.4446L44.0347 39.332L41.4549 38.8981L41.8809 36.3657C41.9976 35.6714 41.8035 35.2819 41.2986 35.1969C40.9988 35.1465 40.7778 35.2067 40.6355 35.3775C40.4932 35.5482 40.3849 35.8545 40.3106 36.2963L40.2549 36.6276C40.17 37.1326 40.168 37.5784 40.249 37.9652C40.3299 38.352 40.5436 38.8665 40.8898 39.5089L42.2237 41.9965C42.7037 42.9047 43.0038 43.6772 43.1238 44.3139C43.2465 44.9349 43.2256 45.7345 43.0611 46.7127L42.9656 47.2808C42.5038 50.0262 41.1211 51.2052 38.8175 50.8178L38.2968 50.7302C36.1194 50.364 35.2178 49.0685 35.5919 46.8438L36.185 43.3173L38.8358 43.7631L38.3183 46.8399C38.1803 47.6604 38.4032 48.1197 38.987 48.2179C39.3026 48.271 39.5421 48.1977 39.7055 47.998C39.8873 47.7852 40.0246 47.4027 40.1175 46.8504L40.1852 46.4481C40.294 45.8012 40.3144 45.2935 40.2466 44.9252C40.1787 44.5568 39.9612 44.0173 39.594 43.3065L38.2562 40.8425C37.826 40.0238 37.5535 39.2803 37.4388 38.6121C37.3424 37.9306 37.3699 37.1403 37.5212 36.2409L37.6167 35.6729C38.0015 33.385 39.2905 32.4255 41.4837 32.7944ZM45.7872 33.6885L52.9348 34.8906L52.5049 37.4467L50.2565 37.0686L47.7249 52.1212L45.0741 51.6753L47.6057 36.6227L45.3573 36.2446L45.7872 33.6885ZM56.374 35.469L53.4125 53.0777L50.738 52.6279L53.6996 35.0192L56.374 35.469ZM57.1356 35.5971L64.2832 36.7992L63.8533 39.3553L61.6049 38.9772L59.0733 54.0298L56.4225 53.584L58.9541 38.5314L56.7057 38.1532L57.1356 35.5971ZM62.684 50.6945L65.0006 36.9199L67.7224 37.3777L65.3779 51.3179C65.2373 52.1541 65.4509 52.62 66.019 52.7156C66.6028 52.8138 66.965 52.4447 67.1056 51.6085L69.4502 37.6682L72.1719 38.126L69.8553 51.9006C69.4015 54.5987 68.0543 55.7593 65.8138 55.3825L65.3404 55.3029C63.1157 54.9287 62.2302 53.3926 62.684 50.6945ZM72.8755 38.2443L80.0231 39.4465L79.5932 42.0026L77.3448 41.6244L74.8132 56.677L72.1624 56.2312L74.694 41.1786L72.4456 40.8004L72.8755 38.2443ZM80.7879 39.5751L86.8704 40.5981L86.4405 43.1542L83.0324 42.581L82.2562 47.1962L84.9306 47.646L84.4808 50.3204L81.8064 49.8706L80.9506 54.9591L84.5007 55.5562L84.0509 58.2307L77.8264 57.1838L80.7879 39.5751Z" fill="#2B2B2B"/>
</svg>
