<svg width="70" height="70" viewBox="0 0 70 70" fill="none" xmlns="http://www.w3.org/2000/svg">
<g opacity="0.7">
<path d="M4 4H70V70H4V4Z" fill="#FFDB5C"/>
<path fill-rule="evenodd" clip-rule="evenodd" d="M69 5H5V69H69V5ZM4 4V70H70V4H4Z" fill="#2B2B2B"/>
<path d="M2 2H68V68H2V2Z" fill="#FFDB5C"/>
<path fill-rule="evenodd" clip-rule="evenodd" d="M67 3H3V67H67V3ZM2 2V68H68V2H2Z" fill="#2B2B2B"/>
<path d="M0 0H66V66H0V0Z" fill="#FFDB5C"/>
<path fill-rule="evenodd" clip-rule="evenodd" d="M65 1H1V65H65V1ZM0 0V66H66V0H0Z" fill="#2B2B2B"/>
<path fill-rule="evenodd" clip-rule="evenodd" d="M54.9887 33V45.4986L43.9922 51.7472L33.0028 58L21.9979 51.75L11 45.5V33.0028V20.5014L33.0028 8L44.0007 14.25L55 20.5014V32.9986L54.9887 33ZM33.6744 9.92758V31.8423L52.9583 20.8836L43.3164 15.4049L33.6744 9.92758ZM32.3171 34.1563L13.0347 45.115L22.6695 50.5937L32.3043 56.0724L32.3171 34.1563ZM12.3574 31.8451L21.6592 26.5575V15.9851L12.3574 21.2713V31.8451ZM31.6398 33L22.3379 27.7124L12.3588 33.3849V43.9574L31.6398 33ZM42.9749 39.4411L33.6744 34.1563V56.0738L42.9749 50.789V39.4411ZM34.3517 33L43.6536 38.2862L53.6327 32.6164V22.0412L34.3517 33ZM23.0166 26.5575L32.3171 31.8423V9.92758L23.0166 15.2068V26.5575ZM53.6341 44.7301V34.1549L44.3323 39.4411V50.0163L53.6341 44.7301Z" fill="#FF488A"/>
</g>
</svg>
