<svg width="70" height="70" viewBox="0 0 70 70" fill="none" xmlns="http://www.w3.org/2000/svg">
<g opacity="0.7">
<path d="M4 4H70V70H4V4Z" fill="#FFDB5C"/>
<path fill-rule="evenodd" clip-rule="evenodd" d="M69 5H5V69H69V5ZM4 4V70H70V4H4Z" fill="#2B2B2B"/>
<path d="M2 2H68V68H2V2Z" fill="#FFDB5C"/>
<path fill-rule="evenodd" clip-rule="evenodd" d="M67 3H3V67H67V3ZM2 2V68H68V2H2Z" fill="#2B2B2B"/>
<path d="M0 0H66V66H0V0Z" fill="#FFDB5C"/>
<path fill-rule="evenodd" clip-rule="evenodd" d="M65 1H1V65H65V1ZM0 0V66H66V0H0Z" fill="#2B2B2B"/>
<path fill-rule="evenodd" clip-rule="evenodd" d="M15.0973 32.351L33.0014 14.7443L50.9055 32.351L53.6713 29.632L33.0014 9.3076L12.3301 29.6265L15.0973 32.351ZM48.1272 36.3926L50.893 39.1103L53.6727 36.3776L50.9069 33.6586L48.1272 36.3926ZM18.5469 35.7327L33.0014 21.5227L47.4559 35.7327L50.2356 33L33.0014 16.0573L15.7672 33L18.5469 35.7327ZM15.1168 39.1048L17.8812 36.3872L15.1015 33.6545L12.3357 36.3735L15.1168 39.1048ZM44.7095 39.7497L47.4739 42.4688L50.23 39.7593L47.4656 37.0403L44.7095 39.7497ZM21.9687 39.0966L33.0014 28.252L44.0382 39.1034L46.7943 36.394L33.0014 22.8262L19.2071 36.3872L21.9687 39.0966ZM18.5386 42.4688L21.303 39.7497L18.5469 37.0403L15.7825 39.7593L18.5386 42.4688ZM25.5198 43.8966L22.7554 46.6142L33.007 56.691L43.2571 46.6142L40.4913 43.8966L33.0014 51.2557L25.5198 43.8966ZM33.007 36.5361L26.1869 43.2421L33.007 49.9481L39.827 43.2421L33.007 36.5361ZM41.157 43.2421L43.9229 45.9598L46.8096 43.1219L44.0438 40.4042L41.157 43.2421ZM25.5198 42.5876L33.007 35.2285L40.4913 42.5876L43.378 39.7497L33.0014 29.5541L22.6275 39.7497L25.5198 42.5876ZM22.091 45.9598L24.8554 43.2421L21.9687 40.4042L19.2029 43.1219L22.091 45.9598ZM11.3391 29.2999L33.0014 8L55 29.6265L51.5698 33L55 36.3721L51.5559 39.7593L51.2654 40.0435L48.1341 43.1219L44.5817 46.6142L33.2905 57.7158L33.0014 58L21.4183 46.6142L17.8673 43.1219L14.4455 39.7593L11 36.3721L11.3336 36.0456L14.4315 33L11 29.6265L11.3391 29.2999Z" fill="#FF488A"/>
</g>
</svg>
