<svg width="70" height="70" viewBox="0 0 70 70" fill="none" xmlns="http://www.w3.org/2000/svg">
<g opacity="0.7">
<path d="M4 4H70V70H4V4Z" fill="#FFDB5C"/>
<path fill-rule="evenodd" clip-rule="evenodd" d="M69 5H5V69H69V5ZM4 4V70H70V4H4Z" fill="#2B2B2B"/>
<path d="M2 2H68V68H2V2Z" fill="#FFDB5C"/>
<path fill-rule="evenodd" clip-rule="evenodd" d="M67 3H3V67H67V3ZM2 2V68H68V2H2Z" fill="#2B2B2B"/>
<path d="M0 0H66V66H0V0Z" fill="#FFDB5C"/>
<path fill-rule="evenodd" clip-rule="evenodd" d="M65 1H1V65H65V1ZM0 0V66H66V0H0Z" fill="#2B2B2B"/>
<path fill-rule="evenodd" clip-rule="evenodd" d="M32.3275 13.7941L21.6177 53.7444C24.9044 55.5505 28.5753 56.5451 32.3243 56.6453L32.3275 13.7941ZM17.6738 33.8761L26.0987 19.2872C23.5569 20.5649 21.4206 22.5245 19.9289 24.9467C18.4371 27.369 17.6486 30.1584 17.6516 33.0031C17.6564 33.3026 17.6564 33.5941 17.6738 33.8761ZM11.9457 43.7944L16.5408 35.8345C16.468 35.4146 16.4109 34.9852 16.3729 34.5511C16.3232 34.023 16.2984 33.507 16.2984 33.0031C16.3007 29.5883 17.3488 26.2561 19.3017 23.4547C21.2546 20.6533 24.0187 18.5172 27.2222 17.3336L31.8173 9.37999C27.8714 9.58077 24.0386 10.7661 20.6684 12.828C17.2982 14.8899 14.4978 17.7626 12.5228 21.1842C10.5477 24.6058 9.46076 28.4673 9.36107 32.4167C9.26138 36.3661 10.1521 40.2775 11.9521 43.7944H11.9457ZM20.4166 53.0345L31.0329 13.4408L12.7158 45.1649C14.6331 48.3554 17.273 51.051 20.4229 53.0345H20.4166ZM39.9063 19.2872L48.3312 33.8761C48.3471 33.5941 48.3534 33.3026 48.3534 33.0031C48.3564 30.1584 47.5679 27.369 46.0761 24.9467C44.5844 22.5245 42.4481 20.5649 39.9063 19.2872ZM34.1862 9.37999L38.7813 17.3336C41.9851 18.5167 44.7497 20.6527 46.703 23.4542C48.6562 26.2556 49.7044 29.5881 49.7066 33.0031C49.7066 33.507 49.6812 34.0235 49.6337 34.5511C49.5925 34.9852 49.5355 35.4146 49.4642 35.8345L54.0593 43.7944C55.8615 40.2773 56.7539 36.3649 56.6549 32.4142C56.5559 28.4636 55.4687 24.6007 53.4926 21.1783C51.5164 17.7559 48.7143 14.883 45.3421 12.8221C41.9699 10.7611 38.135 9.57776 34.1877 9.37999H34.1862ZM44.3826 53.7428L33.6775 13.7925V56.6438C37.4254 56.5438 41.0951 55.5497 44.381 53.7444L44.3826 53.7428ZM53.2955 45.1633L34.9752 13.4392L45.5916 53.0345C48.7424 51.0516 51.383 48.3559 53.3003 45.1649L53.2955 45.1633ZM33.0041 8C38.7884 8.00041 44.3936 10.0062 48.8647 13.6756C53.3358 17.3451 56.3961 22.4511 57.5244 28.1238C58.6526 33.7965 57.7788 39.6848 55.052 44.7856C52.3251 49.8863 47.9139 53.8839 42.5699 56.0971C37.2259 58.3104 31.2797 58.6024 25.7445 56.9235C20.2093 55.2445 15.4275 51.6985 12.2138 46.8895C9.0002 42.0805 7.55356 36.3061 8.12037 30.5502C8.68718 24.7943 11.2324 19.4129 15.3223 15.323C17.6414 12.9978 20.3973 11.154 23.4315 9.89747C26.4657 8.64099 29.7184 7.99668 33.0025 8.00159L33.0041 8Z" fill="#FF488A"/>
</g>
</svg>
