<svg width="70" height="70" viewBox="0 0 70 70" fill="none" xmlns="http://www.w3.org/2000/svg">
<g opacity="0.7">
<path d="M4 4H70V70H4V4Z" fill="#FFDB5C"/>
<path fill-rule="evenodd" clip-rule="evenodd" d="M69 5H5V69H69V5ZM4 4V70H70V4H4Z" fill="#2B2B2B"/>
<path d="M2 2H68V68H2V2Z" fill="#FFDB5C"/>
<path fill-rule="evenodd" clip-rule="evenodd" d="M67 3H3V67H67V3ZM2 2V68H68V2H2Z" fill="#2B2B2B"/>
<path d="M0 0H66V66H0V0Z" fill="#FFDB5C"/>
<path fill-rule="evenodd" clip-rule="evenodd" d="M65 1H1V65H65V1ZM0 0V66H66V0H0Z" fill="#2B2B2B"/>
<path fill-rule="evenodd" clip-rule="evenodd" d="M30.8091 8.24462L30.7304 8.16616L30.638 8.26001H30.6688L30.7304 8.19538L30.7844 8.25077L30.8091 8.24462ZM30.4529 8.27846L30.7304 8L30.9632 8.2323C34.5845 7.94393 38.2253 8.44669 41.632 9.70555C45.0388 10.9644 48.1296 12.9491 50.6894 15.5215C53.2491 18.0939 55.2162 21.1921 56.4538 24.6005C57.6913 28.0088 58.1695 31.6454 57.8551 35.257L58 35.4108L57.8613 35.5477L57.8243 35.5862C57.4702 39.0976 56.3702 42.4933 54.5977 45.5472L54.5822 45.5379L54.5977 45.5472C52.5432 49.0951 49.6437 52.0828 46.156 54.2457C42.6683 56.4085 38.6999 57.6798 34.6023 57.947C30.5048 58.2141 26.4044 57.4689 22.6643 55.7773C18.9242 54.0857 15.6598 51.4999 13.1602 48.2489C10.6606 44.9978 9.00282 41.1819 8.33375 37.1389C7.66468 33.096 8.00492 28.9508 9.32437 25.0704C10.6438 21.19 12.9018 17.6942 15.8982 14.8924C18.8947 12.0906 22.5373 10.0694 26.5033 9.00764C27.7993 8.65989 29.1211 8.41605 30.456 8.27846H30.4529ZM39.7026 44.7672V44.7872L56.1501 28.3743V28.3527L39.7026 44.7672ZM39.2694 43.1534V43.175L55.7508 26.7267V26.7067L39.2694 43.1534ZM37.8604 37.8984V37.9199L53.8453 21.9669L53.8361 21.95L37.8604 37.8984ZM37.4287 36.2923V36.3123C42.6286 31.0818 47.8778 25.8836 53.1008 20.6716L53.0915 20.6578L48.2031 25.5314C44.6152 29.1158 41.0258 32.7028 37.4349 36.2923H37.4287ZM36.0166 31.0387V31.0618L50.1994 16.9011L50.1871 16.8872L36.0166 31.0387ZM34.9868 30.0234H35.0084L49.1912 15.8704L49.1789 15.8565L34.9868 30.0234ZM29.7284 28.6112H29.75L45.4097 12.9905L45.3942 12.9813L29.7284 28.6112ZM28.1143 28.1789H28.1344L44.1085 12.2398L44.09 12.2305L28.1143 28.1789ZM22.8466 26.7713H22.8682L39.3481 10.326L39.328 10.3183L22.8466 26.7713ZM21.2372 26.3421H21.2572C26.7413 20.8716 32.2227 15.4006 37.7016 9.92913H37.6831C34.0768 13.5187 30.473 17.1149 26.8718 20.7178L21.2372 26.3421ZM15.9695 24.936H15.9911L31.4596 9.49992H31.4319L15.9695 24.936ZM14.3524 24.5052H14.374L29.1472 9.76147H29.1164L14.3524 24.5052ZM41.5556 51.6284V51.6484L56.3273 36.9077V36.8769L41.5556 51.6284ZM41.1271 50.0315V50.0407C46.256 44.8764 51.4374 39.7506 56.591 34.6093V34.5816L51.6085 39.5506C48.109 43.0376 44.6147 46.5281 41.1255 50.0223L41.1271 50.0315ZM14.2337 24.4699L28.9283 9.80609C28.2263 9.92711 27.5326 10.0809 26.8471 10.2676C23.4055 11.1899 20.2167 12.8749 17.5179 15.1972C14.8192 17.5195 12.6801 20.4193 11.2599 23.6807L14.2337 24.4699ZM21.1185 26.3067L26.8009 20.6332C30.3856 17.0549 33.9709 13.4771 37.5567 9.89991C35.613 9.51764 33.6286 9.38172 31.6508 9.49533L16.1283 24.9791L21.1185 26.3067ZM27.9941 28.1435L43.9945 12.1767C42.5594 11.4216 41.0505 10.8154 39.4914 10.3676L23.0116 26.8113L27.9941 28.1435ZM34.8666 29.9896L49.1003 15.7857C47.998 14.7644 46.8003 13.8505 45.5237 13.0567L29.8933 28.6542C31.548 29.0983 33.2037 29.5429 34.8604 29.988L34.8666 29.9896ZM37.4056 36.1631C40.976 32.5869 44.5535 29.0153 48.1383 25.4483L53.0453 20.5562C52.2481 19.2823 51.3307 18.0872 50.3058 16.9872L36.069 31.1941C36.512 32.8484 36.9534 34.5042 37.3933 36.1615L37.4056 36.1631ZM39.2463 43.0227L55.7261 26.5774C55.2795 25.0203 54.6741 23.5131 53.9193 22.0792L37.9066 38.0553L39.2463 43.0227ZM41.0962 49.8915C44.57 46.4117 48.0499 42.937 51.536 39.4675L56.6141 34.4047C56.7227 32.4322 56.5839 30.4539 56.2009 28.5158L39.7612 44.921L41.0962 49.8915ZM34.8589 49.8254C35.4488 52.0222 36.0387 54.219 36.6286 56.4158C37.4597 56.2867 38.2831 56.1126 39.0952 55.8943C39.6533 55.7456 40.2052 55.5769 40.7509 55.3881C38.6317 47.4819 36.5089 39.5767 34.3825 31.6726C26.4597 29.5547 18.5368 27.4359 10.614 25.316C10.146 26.655 9.79979 28.0333 9.57953 29.4342C16.6894 31.3326 23.7989 33.234 30.9077 35.1385C32.2232 40.0316 33.5362 44.9267 34.8465 49.8239L34.8589 49.8254ZM28.5629 56.2866C27.2371 51.3422 25.9098 46.3994 24.581 41.4582C19.6283 40.1342 14.6761 38.8101 9.72445 37.4861C9.83442 38.0584 9.96495 38.626 10.116 39.1891C11.2712 43.4798 13.6141 47.3591 16.8763 50.3827C20.1385 53.4062 24.1881 55.4518 28.5614 56.285L28.5629 56.2866ZM29.1796 51.8253L30.4514 56.5604C31.9197 56.7164 33.3994 56.7349 34.8712 56.6158L29.4848 36.5569C22.7839 34.7652 16.0826 32.973 9.38068 31.1803C9.26311 32.6497 9.28374 34.1268 9.44232 35.5923C14.9675 37.0661 20.4906 38.5429 26.0116 40.0229C27.0609 43.9621 28.1128 47.8988 29.1672 51.833L29.1796 51.8253ZM53.4754 44.878C54.8714 42.4723 55.8297 39.839 56.3058 37.0999L41.6019 51.7714L42.4004 54.739C47.0542 52.7276 50.9337 49.2721 53.463 44.8857L53.4754 44.878Z" fill="#FF488A"/>
</g>
</svg>
