<svg width="70" height="70" viewBox="0 0 70 70" fill="none" xmlns="http://www.w3.org/2000/svg">
<g opacity="0.7">
<path d="M4 4H70V70H4V4Z" fill="#FFDB5C"/>
<path fill-rule="evenodd" clip-rule="evenodd" d="M69 5H5V69H69V5ZM4 4V70H70V4H4Z" fill="#2B2B2B"/>
<path d="M2 2H68V68H2V2Z" fill="#FFDB5C"/>
<path fill-rule="evenodd" clip-rule="evenodd" d="M67 3H3V67H67V3ZM2 2V68H68V2H2Z" fill="#2B2B2B"/>
<path d="M0 0H66V66H0V0Z" fill="#FFDB5C"/>
<path fill-rule="evenodd" clip-rule="evenodd" d="M65 1H1V65H65V1ZM0 0V66H66V0H0Z" fill="#2B2B2B"/>
<path fill-rule="evenodd" clip-rule="evenodd" d="M34.6816 9.39465L56.5987 31.3129V9.39465H34.6816ZM9.39007 31.3129L31.3071 9.39465H9.39007V31.3129ZM35.5371 12.228L56.5987 54.3491V33.2799L35.5371 12.228ZM9.39007 54.3491L30.4517 12.228L9.39007 33.2877V54.3491ZM16.9804 42.2767L9.81778 56.6022H31.3071L16.9804 42.2767ZM56.1725 56.6022L49.0084 42.2767L34.6816 56.6022H56.1725ZM32.2962 55.6148V11.6494L17.6392 40.9591L32.2962 55.6148ZM33.6925 11.6494V55.6148L48.3495 40.9591L33.6925 11.6494ZM57.2984 58H8V8H58.0044V58H57.2984Z" fill="#FF488A"/>
</g>
</svg>
