<svg width="70" height="70" viewBox="0 0 70 70" fill="none" xmlns="http://www.w3.org/2000/svg">
<g opacity="0.7">
<path d="M4 4H70V70H4V4Z" fill="#FFDB5C"/>
<path fill-rule="evenodd" clip-rule="evenodd" d="M69 5H5V69H69V5ZM4 4V70H70V4H4Z" fill="#2B2B2B"/>
<path d="M2 2H68V68H2V2Z" fill="#FFDB5C"/>
<path fill-rule="evenodd" clip-rule="evenodd" d="M67 3H3V67H67V3ZM2 2V68H68V2H2Z" fill="#2B2B2B"/>
<path d="M0 0H66V66H0V0Z" fill="#FFDB5C"/>
<path fill-rule="evenodd" clip-rule="evenodd" d="M65 1H1V65H65V1ZM0 0V66H66V0H0Z" fill="#2B2B2B"/>
<path fill-rule="evenodd" clip-rule="evenodd" d="M57.9969 32.8448V32.9049V33.1178V33.3246C57.911 39.9077 55.232 46.1913 50.5417 50.8111C45.8514 55.431 39.5282 58.0142 32.945 57.9999C26.3618 57.9857 20.0499 55.3752 15.3796 50.7352C10.7093 46.0951 8.05752 39.8001 8 33.2166V33.2089C8 33.1317 8 33.0546 8 32.9759C8.00407 26.9098 10.2141 21.0522 14.2179 16.4954C18.2217 11.9386 23.7461 8.99368 29.7609 8.20968C35.7756 7.42567 41.8702 8.85616 46.9082 12.2344C51.9462 15.6126 55.5836 20.708 57.1423 26.5704H57.1269H57.1423C57.6936 28.6164 57.9819 30.7243 58 32.8432L57.9969 32.8448ZM33 50.8148C32.5732 50.9629 32.1366 51.0971 31.6903 51.2174C28.4145 52.092 24.9635 52.0667 21.701 51.1441C18.4384 50.2215 15.4851 48.4358 13.1524 45.9752C15.1869 49.0935 17.9284 51.6877 21.1541 53.547C26.3989 56.5739 32.6037 57.4772 38.4937 56.0713C44.3838 54.6654 49.5119 51.057 52.8244 45.9875C50.3328 48.6129 47.137 50.464 43.62 51.3191C40.1031 52.1742 36.4142 51.997 32.9954 50.8086L33 50.8148ZM52.6995 44.1655C51.1375 45.4317 49.3261 46.3543 47.3835 46.8731C44.8538 47.5554 42.1848 47.5266 39.6704 46.7897C38.2646 48.1072 36.6641 49.2 34.9252 50.0295C38.1391 50.8317 41.5144 50.7068 44.6602 49.6692C47.806 48.6317 50.5934 46.7239 52.6995 44.1671V44.1655ZM50.8344 20.6385C51.4951 21.0194 52.1244 21.4522 52.7165 21.9328C51.3788 20.3051 49.7589 18.9318 47.9343 17.8785C44.0015 15.6008 39.3352 14.9477 34.9283 16.0581C35.3726 16.271 35.8076 16.4998 36.2334 16.7446C37.4725 17.4605 38.6265 18.3145 39.6734 19.2901L39.9727 19.2053C41.7884 18.7172 43.6826 18.5925 45.5465 18.8385C47.4105 19.0844 49.2075 19.6961 50.8344 20.6385ZM56.2414 29.6729C55.3684 26.4122 53.2624 23.6184 50.3681 21.8817C47.4738 20.145 44.0178 19.6013 40.7302 20.3654C42.7575 22.5863 44.22 25.2629 44.994 28.1687H44.9771H44.994C45.6368 30.5554 45.8015 33.0456 45.4788 35.4963C45.1561 37.9469 44.3523 40.3095 43.1135 42.4484C42.4366 43.6189 41.6365 44.7138 40.7271 45.7144C42.6297 46.1553 44.6071 46.1624 46.5128 45.7354C48.4186 45.3084 50.2039 44.4582 51.7366 43.2476C53.2693 42.0371 54.51 40.4973 55.367 38.7422C56.2239 36.9871 56.6751 35.0617 56.6872 33.1086V32.9049C56.6711 31.8129 56.5187 30.7272 56.2337 29.6729H56.2414ZM13.3005 21.9082C15.0986 20.4516 17.2227 19.4522 19.4912 18.9954C21.7596 18.5387 24.1049 18.6382 26.3265 19.2855C27.7316 17.9671 29.3323 16.8743 31.0717 16.0457C27.8583 15.2436 24.4834 15.3685 21.3381 16.4061C18.1929 17.4437 15.406 19.3514 13.3005 21.9082ZM26.3265 46.7836L26.0273 46.8684C23.8384 47.4544 21.5418 47.5129 19.3259 47.039C17.1101 46.5651 15.0382 45.5724 13.2805 44.1424C14.6181 45.7701 16.238 47.1435 18.0626 48.1967C21.9948 50.4746 26.6607 51.1278 31.0671 50.0172C30.6228 49.8043 30.1878 49.5754 29.762 49.3306C28.525 48.6154 27.3726 47.7631 26.3265 46.7897V46.7836ZM32.9969 42.5826C31.5497 44.2016 29.7514 45.4681 27.7396 46.2853C28.5715 47.0027 29.4692 47.6401 30.4207 48.189C31.2431 48.665 32.1032 49.0726 32.9923 49.4078C34.9166 48.6861 36.6976 47.6289 38.2527 46.2853C36.2422 45.464 34.4438 44.1982 32.9923 42.5826H32.9969ZM33.8377 24.5139C35.4935 26.7589 36.459 29.438 36.616 32.2232C36.773 35.0085 36.1147 37.7791 34.7216 40.196C34.4514 40.6637 34.1552 41.1159 33.8346 41.5505C35.3083 43.252 37.1978 44.5425 39.3187 45.2964C40.3495 44.2439 41.2435 43.0657 41.9797 41.7897C43.8906 38.4764 44.6649 34.6288 44.1845 30.8342C43.704 27.0396 41.9951 23.5065 39.3187 20.7742C37.1968 21.5245 35.3075 22.8156 33.8377 24.5201V24.5139ZM29.4828 20.6323C30.7987 21.3923 31.9858 22.3562 33 23.488C34.4451 21.8658 36.2425 20.5961 38.2542 19.7761C37.4223 19.0587 36.5247 18.4213 35.5731 17.8723C34.7505 17.3964 33.8904 16.9883 33.0015 16.652C31.0772 17.3742 29.2962 18.432 27.7411 19.7761C28.3405 20.024 28.9223 20.3121 29.4828 20.6385V20.6323ZM25.2667 20.3592C23.3634 19.917 21.3848 19.9091 19.4779 20.3362C17.5711 20.7632 15.7849 21.6142 14.2518 22.826C12.7188 24.0379 11.4784 25.5794 10.6225 27.3363C9.76669 29.0931 9.31745 31.0201 9.30815 32.9744V32.9944V33.0268V33.0391V33.1117V33.1641V33.1826C9.32394 34.2671 9.47367 35.3454 9.75396 36.3931C10.6272 39.6523 12.7329 42.4445 15.6263 44.18C18.5197 45.9156 21.9743 46.4586 25.2606 45.6944C22.1035 42.2282 20.3537 37.7084 20.3537 33.0199C20.3537 28.3313 22.1035 23.8115 25.2606 20.3454L25.2667 20.3592ZM32.1608 24.5247C30.6863 22.8237 28.7971 21.5329 26.6767 20.7773C23.4669 24.0527 21.669 28.4561 21.669 33.0422C21.669 37.6284 23.4669 42.0317 26.6767 45.3071C28.7985 44.5575 30.6882 43.2675 32.1593 41.5644C30.5019 39.321 29.5353 36.6426 29.3781 33.8578C29.2208 31.0729 29.8796 28.3027 31.2738 25.8869C31.5466 25.4187 31.8454 24.966 32.1685 24.5309L32.1608 24.5247ZM34.8882 29.6713C34.4994 28.214 33.8594 26.8357 32.9969 25.5984C32.7912 25.9008 32.5943 26.2119 32.4061 26.5318C31.5498 28.0108 30.9942 29.6445 30.7713 31.339C30.5484 33.0334 30.6625 34.7552 31.1072 36.4054C31.4961 37.8595 32.1344 39.235 32.9938 40.4706C33.2052 40.1621 33.4026 39.8535 33.5877 39.545C34.4439 38.0662 34.9996 36.4328 35.2228 34.7387C35.4459 33.0445 35.3322 31.323 34.8882 29.6729V29.6713ZM52.8399 20.0985C50.6882 16.8014 47.7488 14.0925 44.2873 12.2168C40.8259 10.341 36.9517 9.35755 33.0147 9.35525C29.0778 9.35296 25.2024 10.3319 21.7388 12.2036C18.2752 14.0753 15.3326 16.7808 13.1771 20.0754C15.6692 17.4537 18.8639 15.6056 22.379 14.7525C25.894 13.8994 29.5804 14.0774 32.9969 15.2651C33.4258 15.117 33.8618 14.9828 34.3051 14.8624C37.5798 13.987 41.03 14.0113 44.2921 14.9328C47.5541 15.8544 50.5072 17.639 52.8399 20.0985Z" fill="#FF488A"/>
</g>
</svg>
