<svg width="70" height="70" viewBox="0 0 70 70" fill="none" xmlns="http://www.w3.org/2000/svg">
<g opacity="0.7">
<path d="M4 4H70V70H4V4Z" fill="#FFDB5C"/>
<path fill-rule="evenodd" clip-rule="evenodd" d="M69 5H5V69H69V5ZM4 4V70H70V4H4Z" fill="#2B2B2B"/>
<path d="M2 2H68V68H2V2Z" fill="#FFDB5C"/>
<path fill-rule="evenodd" clip-rule="evenodd" d="M67 3H3V67H67V3ZM2 2V68H68V2H2Z" fill="#2B2B2B"/>
<path d="M0 0H66V66H0V0Z" fill="#FFDB5C"/>
<path fill-rule="evenodd" clip-rule="evenodd" d="M65 1H1V65H65V1ZM0 0V66H66V0H0Z" fill="#2B2B2B"/>
<path fill-rule="evenodd" clip-rule="evenodd" d="M22.8811 50.2518L32.413 44.8361V33.9992L24.0178 38.7728L23.6743 38.9683L23.3294 39.1638L22.986 39.3579L22.8866 39.4163L22.8811 50.2518ZM32.9993 45.8313L23.466 51.2497L33.0035 56.6695L42.5395 51.2497L32.9993 45.8313ZM23.466 14.7489L33.0021 20.1674L42.5368 14.7489L33.0035 9.33187L23.466 14.7489ZM43.1217 26.5837V15.7482L33.5897 21.1639V31.9994L43.1217 26.5837ZM21.71 39.4163L12.178 33.9979V44.8361L21.71 50.2518V39.4163ZM44.2955 15.7482V26.5837L53.8275 32.0008V21.1639L44.2955 15.7482ZM22.8825 15.7482V38.0844L23.7502 37.5916L32.4144 32.6674V21.1639L22.8825 15.7482ZM21.7086 38.0858V15.7468L12.1767 21.1639V32.6674L21.7086 38.0858ZM43.1189 50.26V27.9156L33.5883 33.3313C33.5883 37.1671 33.5883 41.0021 33.5883 44.8361L43.1189 50.26ZM44.2955 27.9156V50.2518L53.8275 44.8361V33.3326L44.2955 27.9156ZM33.2932 8.17242L55 20.5081V45.4986C47.6651 49.6621 40.3315 53.8293 32.9993 58C25.669 53.8293 18.3359 49.6621 11 45.4986V20.5027L32.9993 8L33.2932 8.17242Z" fill="#FF488A"/>
</g>
</svg>
