<svg width="70" height="70" viewBox="0 0 70 70" fill="none" xmlns="http://www.w3.org/2000/svg">
<g opacity="0.7">
<path d="M4 4H70V70H4V4Z" fill="#FFDB5C"/>
<path fill-rule="evenodd" clip-rule="evenodd" d="M69 5H5V69H69V5ZM4 4V70H70V4H4Z" fill="#2B2B2B"/>
<path d="M2 2H68V68H2V2Z" fill="#FFDB5C"/>
<path fill-rule="evenodd" clip-rule="evenodd" d="M67 3H3V67H67V3ZM2 2V68H68V2H2Z" fill="#2B2B2B"/>
<path d="M0 0H66V66H0V0Z" fill="#FFDB5C"/>
<path fill-rule="evenodd" clip-rule="evenodd" d="M65 1H1V65H65V1ZM0 0V66H66V0H0Z" fill="#2B2B2B"/>
<path d="M14.333 50.7883C14.333 47.91 22.9889 45.5767 33.6665 45.5767C44.3441 45.5767 53 47.91 53 50.7883C53 53.6667 44.3441 56 33.6665 56C22.9889 56 14.333 53.6667 14.333 50.7883Z" fill="#FFDB5C"/>
<path fill-rule="evenodd" clip-rule="evenodd" d="M16.3739 49.6107C15.4633 50.1911 15.3171 50.6152 15.3171 50.7883C15.3171 50.9615 15.4633 51.3856 16.3739 51.966C17.2333 52.5137 18.5423 53.0438 20.2472 53.5034C23.6425 54.4186 28.3873 54.9965 33.6665 54.9965C38.9457 54.9965 43.6905 54.4186 47.0858 53.5034C48.7907 53.0438 50.0997 52.5137 50.9591 51.966C51.8698 51.3856 52.0159 50.9615 52.0159 50.7883C52.0159 50.6152 51.8698 50.1911 50.9591 49.6107C50.0997 49.063 48.7907 48.5329 47.0858 48.0733C43.6905 47.1581 38.9457 46.5802 33.6665 46.5802C28.3873 46.5802 23.6425 47.1581 20.2472 48.0733C18.5423 48.5329 17.2333 49.063 16.3739 49.6107ZM33.6665 45.5767C22.9889 45.5767 14.333 47.91 14.333 50.7883C14.333 53.6667 22.9889 56 33.6665 56C44.3441 56 53 53.6667 53 50.7883C53 47.91 44.3441 45.5767 33.6665 45.5767Z" fill="#FF488A"/>
<path d="M13 47.3898C13 44.5115 21.6559 42.1782 32.3335 42.1782C43.0111 42.1782 51.667 44.5115 51.667 47.3898C51.667 50.2681 43.0111 52.6015 32.3335 52.6015C21.6559 52.6015 13 50.2681 13 47.3898Z" fill="#FFDB5C"/>
<path fill-rule="evenodd" clip-rule="evenodd" d="M15.0409 46.2122C14.1302 46.7926 13.9841 47.2167 13.9841 47.3898C13.9841 47.5629 14.1302 47.9871 15.0409 48.5675C15.9003 49.1152 17.2093 49.6453 18.9142 50.1049C22.3095 51.0201 27.0543 51.598 32.3335 51.598C37.6127 51.598 42.3575 51.0201 45.7528 50.1049C47.4577 49.6453 48.7667 49.1152 49.6261 48.5675C50.5368 47.9871 50.6829 47.5629 50.6829 47.3898C50.6829 47.2167 50.5368 46.7926 49.6261 46.2122C48.7667 45.6644 47.4577 45.1344 45.7528 44.6748C42.3575 43.7595 37.6127 43.1817 32.3335 43.1817C27.0543 43.1817 22.3095 43.7595 18.9142 44.6748C17.2093 45.1344 15.9003 45.6644 15.0409 46.2122ZM32.3335 42.1782C21.6559 42.1782 13 44.5115 13 47.3898C13 50.2681 21.6559 52.6015 32.3335 52.6015C43.0111 52.6015 51.667 50.2681 51.667 47.3898C51.667 44.5115 43.0111 42.1782 32.3335 42.1782Z" fill="#FF488A"/>
<path d="M14.333 43.9903C14.333 41.112 22.9889 38.7787 33.6665 38.7787C44.3441 38.7787 53 41.112 53 43.9903C53 46.8686 44.3441 49.202 33.6665 49.202C22.9889 49.202 14.333 46.8686 14.333 43.9903Z" fill="#FFDB5C"/>
<path fill-rule="evenodd" clip-rule="evenodd" d="M16.3739 42.8126C15.4633 43.3931 15.3171 43.8172 15.3171 43.9903C15.3171 44.1634 15.4633 44.5876 16.3739 45.168C17.2333 45.7157 18.5423 46.2458 20.2472 46.7054C23.6425 47.6206 28.3873 48.1985 33.6665 48.1985C38.9457 48.1985 43.6905 47.6206 47.0858 46.7054C48.7907 46.2458 50.0997 45.7157 50.9591 45.168C51.8698 44.5876 52.0159 44.1634 52.0159 43.9903C52.0159 43.8172 51.8698 43.3931 50.9591 42.8126C50.0997 42.2649 48.7907 41.7349 47.0858 41.2753C43.6905 40.36 38.9457 39.7822 33.6665 39.7822C28.3873 39.7822 23.6425 40.36 20.2472 41.2753C18.5423 41.7349 17.2333 42.2649 16.3739 42.8126ZM33.6665 38.7787C22.9889 38.7787 14.333 41.112 14.333 43.9903C14.333 46.8686 22.9889 49.202 33.6665 49.202C44.3441 49.202 53 46.8686 53 43.9903C53 41.112 44.3441 38.7787 33.6665 38.7787Z" fill="#FF488A"/>
<path d="M13 40.5908C13 37.7125 21.6559 35.3792 32.3335 35.3792C43.0111 35.3792 51.667 37.7125 51.667 40.5908C51.667 43.4691 43.0111 45.8025 32.3335 45.8025C21.6559 45.8025 13 43.4691 13 40.5908Z" fill="#FFDB5C"/>
<path fill-rule="evenodd" clip-rule="evenodd" d="M15.0409 39.4131C14.1302 39.9936 13.9841 40.4177 13.9841 40.5908C13.9841 40.7639 14.1302 41.1881 15.0409 41.7685C15.9003 42.3162 17.2093 42.8463 18.9142 43.3059C22.3095 44.2211 27.0543 44.799 32.3335 44.799C37.6127 44.799 42.3575 44.2211 45.7528 43.3059C47.4577 42.8463 48.7667 42.3162 49.6261 41.7685C50.5368 41.1881 50.6829 40.7639 50.6829 40.5908C50.6829 40.4177 50.5368 39.9936 49.6261 39.4131C48.7667 38.8654 47.4577 38.3354 45.7528 37.8758C42.3575 36.9605 37.6127 36.3827 32.3335 36.3827C27.0543 36.3827 22.3095 36.9605 18.9142 37.8758C17.2093 38.3354 15.9003 38.8654 15.0409 39.4131ZM32.3335 35.3792C21.6559 35.3792 13 37.7125 13 40.5908C13 43.4691 21.6559 45.8025 32.3335 45.8025C43.0111 45.8025 51.667 43.4691 51.667 40.5908C51.667 37.7125 43.0111 35.3792 32.3335 35.3792Z" fill="#FF488A"/>
<path d="M14.333 37.4189C14.333 34.6657 22.9889 32.4338 33.6665 32.4338C44.3441 32.4338 53 34.6657 53 37.4189C53 40.1721 44.3441 42.4039 33.6665 42.4039C22.9889 42.4039 14.333 40.1721 14.333 37.4189Z" fill="#FFDB5C"/>
<path fill-rule="evenodd" clip-rule="evenodd" d="M16.3573 36.3398C15.4336 36.9029 15.3171 37.2988 15.3171 37.4189C15.3171 37.539 15.4336 37.9349 16.3573 38.498C17.2184 39.0229 18.5298 39.5308 20.2369 39.971C23.6361 40.8475 28.3846 41.4005 33.6665 41.4005C38.9484 41.4005 43.6969 40.8475 47.0961 39.971C48.8032 39.5308 50.1146 39.0229 50.9757 38.498C51.8994 37.9349 52.0159 37.539 52.0159 37.4189C52.0159 37.2988 51.8994 36.9029 50.9757 36.3398C50.1146 35.8149 48.8032 35.3069 47.0961 34.8668C43.6969 33.9903 38.9484 33.4373 33.6665 33.4373C28.3846 33.4373 23.6361 33.9903 20.2369 34.8668C18.5298 35.307 17.2184 35.8149 16.3573 36.3398ZM33.6665 32.4338C22.9889 32.4338 14.333 34.6657 14.333 37.4189C14.333 40.1721 22.9889 42.4039 33.6665 42.4039C44.3441 42.4039 53 40.1721 53 37.4189C53 34.6657 44.3441 32.4338 33.6665 32.4338Z" fill="#FF488A"/>
<path d="M13 34.4731C13 31.7199 21.6559 29.4881 32.3335 29.4881C43.0111 29.4881 51.667 31.7199 51.667 34.4731C51.667 37.2263 43.0111 39.4582 32.3335 39.4582C21.6559 39.4582 13 37.2263 13 34.4731Z" fill="#FFDB5C"/>
<path fill-rule="evenodd" clip-rule="evenodd" d="M15.0243 33.394C14.1006 33.9571 13.9841 34.353 13.9841 34.4731C13.9841 34.5932 14.1006 34.9891 15.0243 35.5522C15.8854 36.0771 17.1968 36.585 18.9039 37.0252C22.3031 37.9017 27.0516 38.4547 32.3335 38.4547C37.6154 38.4547 42.3639 37.9017 45.7631 37.0252C47.4702 36.585 48.7816 36.0771 49.6427 35.5522C50.5664 34.9891 50.6829 34.5932 50.6829 34.4731C50.6829 34.353 50.5664 33.9571 49.6427 33.394C48.7816 32.8691 47.4702 32.3612 45.7631 31.921C42.3639 31.0445 37.6154 30.4915 32.3335 30.4915C27.0516 30.4915 22.3031 31.0445 18.9039 31.921C17.1968 32.3612 15.8854 32.8691 15.0243 33.394ZM32.3335 29.4881C21.6559 29.4881 13 31.7199 13 34.4731C13 37.2263 21.6559 39.4582 32.3335 39.4582C43.0111 39.4582 51.667 37.2263 51.667 34.4731C51.667 31.7199 43.0111 29.4881 32.3335 29.4881Z" fill="#FF488A"/>
<path d="M14.333 31.5273C14.333 28.7742 22.9889 26.5423 33.6665 26.5423C44.3441 26.5423 53 28.7742 53 31.5273C53 34.2805 44.3441 36.5124 33.6665 36.5124C22.9889 36.5124 14.333 34.2805 14.333 31.5273Z" fill="#FFDB5C"/>
<path fill-rule="evenodd" clip-rule="evenodd" d="M16.3573 30.4482C15.4336 31.0114 15.3171 31.4072 15.3171 31.5273C15.3171 31.6474 15.4336 32.0433 16.3573 32.6064C17.2184 33.1313 18.5298 33.6393 20.2369 34.0794C23.6361 34.9559 28.3846 35.5089 33.6665 35.5089C38.9484 35.5089 43.6969 34.9559 47.0961 34.0794C48.8032 33.6393 50.1146 33.1313 50.9757 32.6064C51.8994 32.0433 52.0159 31.6474 52.0159 31.5273C52.0159 31.4072 51.8994 31.0114 50.9757 30.4482C50.1146 29.9233 48.8032 29.4154 47.0961 28.9752C43.6969 28.0988 38.9484 27.5458 33.6665 27.5458C28.3846 27.5458 23.6361 28.0988 20.2369 28.9752C18.5298 29.4154 17.2184 29.9233 16.3573 30.4482ZM33.6665 26.5423C22.9889 26.5423 14.333 28.7742 14.333 31.5273C14.333 34.2805 22.9889 36.5124 33.6665 36.5124C44.3441 36.5124 53 34.2805 53 31.5273C53 28.7742 44.3441 26.5423 33.6665 26.5423Z" fill="#FF488A"/>
<path d="M13 28.5816C13 25.8284 21.6559 23.5965 32.3335 23.5965C43.0111 23.5965 51.667 25.8284 51.667 28.5816C51.667 31.3347 43.0111 33.5666 32.3335 33.5666C21.6559 33.5666 13 31.3347 13 28.5816Z" fill="#FFDB5C"/>
<path fill-rule="evenodd" clip-rule="evenodd" d="M15.0243 27.5024C14.1006 28.0656 13.9841 28.4615 13.9841 28.5816C13.9841 28.7017 14.1006 29.0975 15.0243 29.6607C15.8854 30.1856 17.1968 30.6935 18.9039 31.1337C22.3031 32.0101 27.0516 32.5631 32.3335 32.5631C37.6154 32.5631 42.3639 32.0101 45.7631 31.1337C47.4702 30.6935 48.7816 30.1856 49.6427 29.6607C50.5664 29.0975 50.6829 28.7017 50.6829 28.5816C50.6829 28.4615 50.5664 28.0656 49.6427 27.5024C48.7816 26.9775 47.4702 26.4696 45.7631 26.0294C42.3639 25.153 37.6154 24.6 32.3335 24.6C27.0516 24.6 22.3031 25.153 18.9039 26.0294C17.1968 26.4696 15.8854 26.9775 15.0243 27.5024ZM32.3335 23.5965C21.6559 23.5965 13 25.8284 13 28.5816C13 31.3347 21.6559 33.5666 32.3335 33.5666C43.0111 33.5666 51.667 31.3347 51.667 28.5816C51.667 25.8284 43.0111 23.5965 32.3335 23.5965Z" fill="#FF488A"/>
<path d="M14.333 25.4092C14.333 22.5309 22.9889 20.1975 33.6665 20.1975C44.3441 20.1975 53 22.5309 53 25.4092C53 28.2875 44.3441 30.6208 33.6665 30.6208C22.9889 30.6208 14.333 28.2875 14.333 25.4092Z" fill="#FFDB5C"/>
<path fill-rule="evenodd" clip-rule="evenodd" d="M16.3739 24.2315C15.4633 24.8119 15.3171 25.2361 15.3171 25.4092C15.3171 25.5823 15.4633 26.0064 16.3739 26.5869C17.2333 27.1346 18.5423 27.6646 20.2472 28.1242C23.6425 29.0395 28.3873 29.6173 33.6665 29.6173C38.9457 29.6173 43.6905 29.0395 47.0858 28.1242C48.7907 27.6646 50.0997 27.1346 50.9591 26.5868C51.8698 26.0064 52.0159 25.5823 52.0159 25.4092C52.0159 25.2361 51.8698 24.8119 50.9591 24.2315C50.0997 23.6838 48.7907 23.1537 47.0858 22.6941C43.6905 21.7789 38.9457 21.201 33.6665 21.201C28.3873 21.201 23.6425 21.7789 20.2472 22.6941C18.5423 23.1537 17.2333 23.6838 16.3739 24.2315ZM33.6665 20.1975C22.9889 20.1975 14.333 22.5309 14.333 25.4092C14.333 28.2875 22.9889 30.6208 33.6665 30.6208C44.3441 30.6208 53 28.2875 53 25.4092C53 22.5309 44.3441 20.1975 33.6665 20.1975Z" fill="#FF488A"/>
<path d="M13 22.0107C13 19.1323 21.6559 16.799 32.3335 16.799C43.0111 16.799 51.667 19.1323 51.667 22.0107C51.667 24.889 43.0111 27.2223 32.3335 27.2223C21.6559 27.2223 13 24.889 13 22.0107Z" fill="#FFDB5C"/>
<path fill-rule="evenodd" clip-rule="evenodd" d="M15.0409 20.833C14.1302 21.4134 13.9841 21.8375 13.9841 22.0107C13.9841 22.1838 14.1302 22.6079 15.0409 23.1883C15.9003 23.736 17.2093 24.2661 18.9142 24.7257C22.3095 25.641 27.0543 26.2188 32.3335 26.2188C37.6127 26.2188 42.3575 25.641 45.7528 24.7257C47.4577 24.2661 48.7667 23.736 49.6261 23.1883C50.5368 22.6079 50.6829 22.1838 50.6829 22.0107C50.6829 21.8375 50.5368 21.4134 49.6261 20.833C48.7667 20.2853 47.4577 19.7552 45.7528 19.2956C42.3575 18.3804 37.6127 17.8025 32.3335 17.8025C27.0543 17.8025 22.3095 18.3804 18.9142 19.2956C17.2093 19.7552 15.9003 20.2853 15.0409 20.833ZM32.3335 16.799C21.6559 16.799 13 19.1323 13 22.0107C13 24.889 21.6559 27.2223 32.3335 27.2223C43.0111 27.2223 51.667 24.889 51.667 22.0107C51.667 19.1323 43.0111 16.799 32.3335 16.799Z" fill="#FF488A"/>
<path d="M14.333 18.6112C14.333 15.7328 22.9889 13.3995 33.6665 13.3995C44.3441 13.3995 53 15.7328 53 18.6112C53 21.4895 44.3441 23.8228 33.6665 23.8228C22.9889 23.8228 14.333 21.4895 14.333 18.6112Z" fill="#FFDB5C"/>
<path fill-rule="evenodd" clip-rule="evenodd" d="M16.3739 17.4335C15.4633 18.0139 15.3171 18.438 15.3171 18.6112C15.3171 18.7843 15.4633 19.2084 16.3739 19.7888C17.2333 20.3365 18.5423 20.8666 20.2472 21.3262C23.6425 22.2415 28.3873 22.8193 33.6665 22.8193C38.9457 22.8193 43.6905 22.2415 47.0858 21.3262C48.7907 20.8666 50.0997 20.3365 50.9591 19.7888C51.8698 19.2084 52.0159 18.7843 52.0159 18.6112C52.0159 18.438 51.8698 18.0139 50.9591 17.4335C50.0997 16.8858 48.7907 16.3557 47.0858 15.8961C43.6905 14.9809 38.9457 14.403 33.6665 14.403C28.3873 14.403 23.6425 14.9809 20.2472 15.8961C18.5423 16.3557 17.2333 16.8858 16.3739 17.4335ZM33.6665 13.3995C22.9889 13.3995 14.333 15.7328 14.333 18.6112C14.333 21.4895 22.9889 23.8228 33.6665 23.8228C44.3441 23.8228 53 21.4895 53 18.6112C53 15.7328 44.3441 13.3995 33.6665 13.3995Z" fill="#FF488A"/>
<path d="M13 15.2117C13 12.3333 21.6559 10 32.3335 10C43.0111 10 51.667 12.3333 51.667 15.2117C51.667 18.09 43.0111 20.4233 32.3335 20.4233C21.6559 20.4233 13 18.09 13 15.2117Z" fill="#FFDB5C"/>
<path fill-rule="evenodd" clip-rule="evenodd" d="M15.0409 14.034C14.1302 14.6144 13.9841 15.0385 13.9841 15.2117C13.9841 15.3848 14.1302 15.8089 15.0409 16.3893C15.9003 16.937 17.2093 17.4671 18.9142 17.9267C22.3095 18.8419 27.0543 19.4198 32.3335 19.4198C37.6127 19.4198 42.3575 18.8419 45.7528 17.9267C47.4577 17.4671 48.7667 16.937 49.6261 16.3893C50.5368 15.8089 50.6829 15.3848 50.6829 15.2117C50.6829 15.0385 50.5368 14.6144 49.6261 14.034C48.7667 13.4863 47.4577 12.9562 45.7528 12.4966C42.3575 11.5814 37.6127 11.0035 32.3335 11.0035C27.0543 11.0035 22.3095 11.5814 18.9142 12.4966C17.2093 12.9562 15.9003 13.4863 15.0409 14.034ZM32.3335 10C21.6559 10 13 12.3333 13 15.2117C13 18.09 21.6559 20.4233 32.3335 20.4233C43.0111 20.4233 51.667 18.09 51.667 15.2117C51.667 12.3333 43.0111 10 32.3335 10Z" fill="#FF488A"/>
</g>
</svg>
