<svg width="70" height="70" viewBox="0 0 70 70" fill="none" xmlns="http://www.w3.org/2000/svg">
<g opacity="0.7">
<path d="M4 4H70V70H4V4Z" fill="#FFDB5C"/>
<path fill-rule="evenodd" clip-rule="evenodd" d="M69 5H5V69H69V5ZM4 4V70H70V4H4Z" fill="#2B2B2B"/>
<path d="M2 2H68V68H2V2Z" fill="#FFDB5C"/>
<path fill-rule="evenodd" clip-rule="evenodd" d="M67 3H3V67H67V3ZM2 2V68H68V2H2Z" fill="#2B2B2B"/>
<path d="M0 0H66V66H0V0Z" fill="#FFDB5C"/>
<path fill-rule="evenodd" clip-rule="evenodd" d="M65 1H1V65H65V1ZM0 0V66H66V0H0Z" fill="#2B2B2B"/>
<path fill-rule="evenodd" clip-rule="evenodd" d="M33.0068 32.2365L42.2982 26.7069L33.0068 10.1114L23.7154 26.7069L33.0068 32.2365ZM34.7652 10.5995L43.4127 26.0417L52.0576 20.8957L42.8595 15.4164L34.7652 10.5995ZM22.5913 26.0417L31.2388 10.6023L13.9465 20.8957L22.5913 26.0417ZM18.6889 33.0146L13.3013 23.392V42.6373L18.6889 33.0146ZM21.9447 38.8273L19.4369 34.3479L14.4199 43.3053L21.9447 38.8273ZM31.2375 55.4228L22.5913 39.9764L13.9465 45.121L31.2375 55.4228ZM43.4114 39.9848L34.7652 55.4144L52.0562 45.121L43.4114 39.9848ZM46.5658 34.3493L44.058 38.8287L51.5828 43.3067L46.5658 34.3493ZM52.7028 23.392L47.3152 33.0146L52.7028 42.6373V23.392ZM46.5672 31.6786L51.5842 22.7212L44.0593 27.2006L46.5672 31.6786ZM42.9393 38.1593L45.8205 33.0132L42.9393 27.8672L34.2945 33.0146L42.9393 38.1593ZM23.7086 39.314L33 55.9095L42.2914 39.314L33.0068 33.7775L23.7086 39.314ZM20.1795 33.0146L23.062 38.1607L31.7055 33.0146L23.062 27.8686L20.1795 33.0146ZM14.4159 22.7226L19.4328 31.68L21.9407 27.202L14.4159 22.7226ZM33.4761 8.30123L54 20.5178V45.5045L33.4761 57.7211L33 58L32.5239 57.7211L12 45.5045V20.5108L32.5239 8.29286L33 8L33.4761 8.30123Z" fill="#FF488A"/>
</g>
</svg>
