<svg width="70" height="70" viewBox="0 0 70 70" fill="none" xmlns="http://www.w3.org/2000/svg">
<g opacity="0.7">
<path d="M4 4H70V70H4V4Z" fill="#FFDB5C"/>
<path fill-rule="evenodd" clip-rule="evenodd" d="M69 5H5V69H69V5ZM4 4V70H70V4H4Z" fill="#2B2B2B"/>
<path d="M2 2H68V68H2V2Z" fill="#FFDB5C"/>
<path fill-rule="evenodd" clip-rule="evenodd" d="M67 3H3V67H67V3ZM2 2V68H68V2H2Z" fill="#2B2B2B"/>
<path d="M0 0H66V66H0V0Z" fill="#FFDB5C"/>
<path fill-rule="evenodd" clip-rule="evenodd" d="M65 1H1V65H65V1ZM0 0V66H66V0H0Z" fill="#2B2B2B"/>
<path fill-rule="evenodd" clip-rule="evenodd" d="M15.3264 38.8087V27.1876L9.516 32.9969L15.3264 38.8087ZM38.8142 50.6759H27.1934L33.0037 56.4864L38.8142 50.6759ZM50.6811 27.1876V38.8087L56.4915 32.9969L50.6811 27.1876ZM27.1934 15.3191H38.8142L33.0037 9.50853L27.1934 15.3191ZM16.3915 20.3433H45.657V49.6095H49.6085V16.3892H16.3953L16.3915 20.3433ZM16.3915 25.8788H40.1204V49.6095H44.5881V21.4097H16.3953L16.3915 25.8788ZM33.8164 32.1829H16.3953V49.6095H33.8202L33.8164 32.1829ZM16.3915 31.114H34.8866V49.6095H39.0515V26.9464H16.3953L16.3915 31.114ZM15.8564 15.3216H25.6786L33 8L40.3226 15.3216H50.6773V25.6778L58 32.9994L50.6773 40.3222V50.6784H40.3226L33 58L25.6786 50.6784H15.3226V40.3222L8 32.9994L15.3226 25.6778V15.3216H15.8564Z" fill="#FF488A"/>
</g>
</svg>
