<svg width="70" height="70" viewBox="0 0 70 70" fill="none" xmlns="http://www.w3.org/2000/svg">
<g opacity="0.7">
<path d="M4 4H70V70H4V4Z" fill="#FFDB5C"/>
<path fill-rule="evenodd" clip-rule="evenodd" d="M69 5H5V69H69V5ZM4 4V70H70V4H4Z" fill="#2B2B2B"/>
<path d="M2 2H68V68H2V2Z" fill="#FFDB5C"/>
<path fill-rule="evenodd" clip-rule="evenodd" d="M67 3H3V67H67V3ZM2 2V68H68V2H2Z" fill="#2B2B2B"/>
<path d="M0 0H66V66H0V0Z" fill="#FFDB5C"/>
<path fill-rule="evenodd" clip-rule="evenodd" d="M65 1H1V65H65V1ZM0 0V66H66V0H0Z" fill="#2B2B2B"/>
<path fill-rule="evenodd" clip-rule="evenodd" d="M11.3329 20.2873L32.5028 8.25384L32.9972 8L33.4916 8.25384L43.9986 14.2259L55 20.4784V32.9819V44.9275L54.983 45.4854L54.4999 45.7782L33.0014 58L21.9986 51.7462L11.5001 45.7796L11 45.5007V44.9428V32.9847V20.4784L11.3329 20.2873ZM12.3472 31.2036L29.8452 11.3124L22.6658 15.3821L12.3429 21.251L12.3472 31.2036ZM28.8578 14.4672L12.3514 33.2315V42.6137L28.8578 14.4672ZM41.749 51.4854L15.4963 46.5105L22.6658 50.59L32.9887 56.4575L41.749 51.4854ZM18.7999 45.7782L43.5467 50.4672L51.7942 45.7782H18.7999ZM44.8882 16.2803L53.6401 41.152V32.9847V21.2483L44.8882 16.2803ZM51.3551 38.735L43.099 15.272L34.8487 10.5621L51.3551 38.735ZM32.9943 10.0767L12.8444 44.4365H53.1428L32.9943 10.0767Z" fill="#FF488A"/>
</g>
</svg>
