<svg width="70" height="70" viewBox="0 0 70 70" fill="none" xmlns="http://www.w3.org/2000/svg">
<g opacity="0.7">
<path d="M4 4H70V70H4V4Z" fill="#FFDB5C"/>
<path fill-rule="evenodd" clip-rule="evenodd" d="M69 5H5V69H69V5ZM4 4V70H70V4H4Z" fill="#2B2B2B"/>
<path d="M2 2H68V68H2V2Z" fill="#FFDB5C"/>
<path fill-rule="evenodd" clip-rule="evenodd" d="M67 3H3V67H67V3ZM2 2V68H68V2H2Z" fill="#2B2B2B"/>
<path d="M0 0H66V66H0V0Z" fill="#FFDB5C"/>
<path fill-rule="evenodd" clip-rule="evenodd" d="M65 1H1V65H65V1ZM0 0V66H66V0H0Z" fill="#2B2B2B"/>
<path fill-rule="evenodd" clip-rule="evenodd" d="M35.2617 49.7683H44.6717L35.0763 33.0048L37.8896 28.0902L53.1087 54.6829H32.4483L35.2617 49.7683ZM28.1103 55L25.113 49.7683H31.1045L28.1103 55ZM28.1103 53.7127L29.9964 50.4088H26.2132L28.1103 53.7127ZM23.7739 54.6766H17.7777L20.7766 49.4449L23.7739 54.6766ZM20.7766 50.729L18.8905 54.0345H22.6737L20.7766 50.729ZM16.4386 49.7636L13.4429 54.9952L10.4441 49.7636H16.4386ZM13.4429 53.7127L15.329 50.4072H11.5458L13.4429 53.7127ZM37.8912 11L48.2222 29.0525H42.5954L37.8896 20.8292L28.2942 37.5928H22.6674L37.8912 11ZM37.8912 19.5435L42.9632 28.4072H47.1157L37.8912 12.2873L23.7755 36.9491H27.9264L37.8912 19.5435ZM55.0043 50.729L52.007 45.4974H58L55.0043 50.729ZM55.0043 49.4417L56.8903 46.1347H53.1087L55.0043 49.4417ZM44.6717 32.6782H50.6663L47.669 37.9098L44.6717 32.6782ZM47.669 36.6289L49.555 33.3234H45.7703L47.669 36.6289ZM55.5575 41.8606H49.5613L52.5586 36.6289L55.5575 41.8606ZM52.5586 37.9098L50.6726 41.2153H54.4573L52.5586 37.9098ZM26.2195 24.1299L23.2207 29.3616L20.2234 24.1299H26.2195ZM23.2223 28.0806L25.1083 24.7752H21.3252L23.2223 28.0806ZM25.6647 15.2678L28.6636 20.4995H22.6674L25.6647 15.2678ZM25.6647 16.5551L23.7786 19.8606H27.5618L25.6647 16.5551ZM30.5544 16.5551L27.5586 11.3234H33.5548L30.5544 16.5551ZM30.5544 15.2678L32.4405 11.9623H28.6557L30.5544 15.2678ZM18.3294 28.0806L21.1429 32.9952L16.4371 41.2153H35.6279L38.4413 46.1299H8L18.3294 28.0806ZM35.2601 41.8606H15.3337L20.4073 32.9952L18.331 29.3679L9.10021 45.4958H37.3317L35.2601 41.8606ZM37.8881 29.3679L35.8197 33.0048L45.7829 50.412H35.6358L33.5611 54.0393H52.0085L37.8881 29.3679Z" fill="#FF488A" stroke="#FF488A"/>
</g>
</svg>
