<svg width="70" height="70" viewBox="0 0 70 70" fill="none" xmlns="http://www.w3.org/2000/svg">
<g opacity="0.7">
<path d="M4 4H70V70H4V4Z" fill="#FFDB5C"/>
<path fill-rule="evenodd" clip-rule="evenodd" d="M69 5H5V69H69V5ZM4 4V70H70V4H4Z" fill="#2B2B2B"/>
<path d="M2 2H68V68H2V2Z" fill="#FFDB5C"/>
<path fill-rule="evenodd" clip-rule="evenodd" d="M67 3H3V67H67V3ZM2 2V68H68V2H2Z" fill="#2B2B2B"/>
<path d="M0 0H66V66H0V0Z" fill="#FFDB5C"/>
<path fill-rule="evenodd" clip-rule="evenodd" d="M65 1H1V65H65V1ZM0 0V66H66V0H0Z" fill="#2B2B2B"/>
<path fill-rule="evenodd" clip-rule="evenodd" d="M21.0653 49.8857V38.7136V26.222L41.8989 14.3832L33.0085 9.33216L12.182 21.1654V33.0042V44.8402L21.0653 49.8857ZM32.4147 56.3344V32.6652L53.2483 20.8278L43.8987 15.5173L43.0639 15.0416L22.2303 26.8762V38.7136V50.5497L29.7672 54.8321L32.4147 56.3344ZM33.5895 44.1664L53.8308 32.6624V21.8252L33.5895 33.3278V44.1664ZM53.8279 33.996L33.5895 45.4972V56.3344L53.8279 44.8332V33.996ZM55 20.8278V32.9972V45.4972C47.6662 49.6625 40.3329 53.8301 33 58L32.1595 57.5215L31.9782 57.4183H31.9682L31.7967 57.3206L31.6252 57.223H31.6139L31.4325 57.1198L31.2809 57.0333L31.2497 57.0166L30.9379 56.838L30.8869 56.8101C27.6121 54.9502 24.3373 53.0903 21.0625 51.2304C17.7074 49.323 14.3532 47.4166 11 45.5112V33.0112V20.5028L33 8L49.1567 17.1801L49.4996 17.3753L49.8441 17.5706L50.187 17.7659L54.708 20.334L54.9985 20.5L55 20.8278Z" fill="#FF488A"/>
</g>
</svg>
