<svg width="70" height="70" viewBox="0 0 70 70" fill="none" xmlns="http://www.w3.org/2000/svg">
<g opacity="0.7">
<path d="M4 4H70V70H4V4Z" fill="#FFDB5C"/>
<path fill-rule="evenodd" clip-rule="evenodd" d="M69 5H5V69H69V5ZM4 4V70H70V4H4Z" fill="#2B2B2B"/>
<path d="M2 2H68V68H2V2Z" fill="#FFDB5C"/>
<path fill-rule="evenodd" clip-rule="evenodd" d="M67 3H3V67H67V3ZM2 2V68H68V2H2Z" fill="#2B2B2B"/>
<path d="M0 0H66V66H0V0Z" fill="#FFDB5C"/>
<path fill-rule="evenodd" clip-rule="evenodd" d="M65 1H1V65H65V1ZM0 0V66H66V0H0Z" fill="#2B2B2B"/>
<path fill-rule="evenodd" clip-rule="evenodd" d="M51.2556 51.2541V58H8V14.7444H14.7444V8H58V51.2541H51.2556ZM54.5825 9.30309H16.0521V14.7398H43.7121L54.5825 9.30309ZM22.2925 51.2541L11.4191 56.6923H49.9479V51.2541H22.2925ZM39.6568 42.5704L24.9049 49.9464H35.9688L39.6568 42.5704ZM49.9525 37.4271L41.6069 41.6007L37.4271 49.9433H49.9479L49.9525 37.4271ZM42.5765 39.6584L49.9525 35.9704V24.9064L42.5765 39.6584ZM15.8662 51.0635L11.9661 54.9651L40.6342 40.6295L54.9697 11.96L51.0681 15.8616L15.8662 51.0635ZM25.3751 25.3705L11.0318 54.04L14.9334 50.1384L50.1338 14.9365L54.0354 11.0349L25.3751 25.3705ZM30.0342 16.0536L26.3462 23.4296L41.0982 16.0536H30.0342ZM24.4008 24.3993L28.5744 16.0536H16.0521V28.5729L24.4008 24.3993ZM16.0521 41.0921L23.4281 26.3401L16.0521 30.0281V41.0921ZM9.30923 54.5809L14.7444 43.7075V16.0475H9.30923V54.5809ZM51.2602 22.2925V49.9525H56.6969V11.4191L51.2602 22.2925Z" fill="#FF488A"/>
</g>
</svg>
