<svg width="70" height="70" viewBox="0 0 70 70" fill="none" xmlns="http://www.w3.org/2000/svg">
<g opacity="0.7">
<path d="M4 4H70V70H4V4Z" fill="#FFDB5C"/>
<path fill-rule="evenodd" clip-rule="evenodd" d="M69 5H5V69H69V5ZM4 4V70H70V4H4Z" fill="#2B2B2B"/>
<path d="M2 2H68V68H2V2Z" fill="#FFDB5C"/>
<path fill-rule="evenodd" clip-rule="evenodd" d="M67 3H3V67H67V3ZM2 2V68H68V2H2Z" fill="#2B2B2B"/>
<path d="M0 0H66V66H0V0Z" fill="#FFDB5C"/>
<path fill-rule="evenodd" clip-rule="evenodd" d="M65 1H1V65H65V1ZM0 0V66H66V0H0Z" fill="#2B2B2B"/>
<path d="M33.0089 7.58716L11.4969 20.3119V45.7112L33.0045 58.413L54.5031 45.7112V20.3119L33.0089 7.58716ZM53.6496 45.181L33.0089 57.3755L12.3594 45.181V20.7964L33.0089 8.60643L53.6496 20.7964V45.181Z" fill="#FF488A"/>
<path fill-rule="evenodd" clip-rule="evenodd" d="M33.009 6.99997L55 20.0188V46.0045L33.0045 59L11 46.0046V20.0187L33.009 6.99997ZM12.8563 21.0899V44.8875L33.0089 56.7886L53.1527 44.8876V21.0898L33.0089 9.19329L12.8563 21.0899Z" fill="#FF488A"/>
<path d="M31.4898 12.8251L15.2821 22.3916L15.1748 22.4555V41.7255L31.4898 32.0951V12.8251ZM31.0429 31.8391L15.5859 40.9805V22.7115L31.0429 13.5702V31.8391Z" fill="#FF488A"/>
<path fill-rule="evenodd" clip-rule="evenodd" d="M31.9867 11.945V32.3886L14.6779 42.6056V22.1636L15.0316 21.9525L15.0337 21.9513L31.9867 11.945ZM16.0828 23.0047V40.0995L30.546 31.5459V14.4511L16.0828 23.0047Z" fill="#FF488A"/>
<path d="M50.8211 22.4557L34.5017 12.8207V32.0952L50.8211 41.7302V22.4557ZM50.3743 40.9669L34.9128 31.8255V13.5428L50.3743 22.6842V40.9669Z" fill="#FF488A"/>
<path fill-rule="evenodd" clip-rule="evenodd" d="M34.0048 11.9404L51.3181 22.1622V42.6104L34.0048 32.3887V11.9404ZM35.4097 14.4237V31.5323L49.8774 40.086V22.9775L35.4097 14.4237Z" fill="#FF488A"/>
<path d="M33.0085 34.7782L16.6935 44.4132L33.0085 54.0482L49.3234 44.4132L34.8406 35.8523L33.0085 34.7782ZM33.0085 53.5408L17.5514 44.3995L33.0085 35.2581L48.461 44.3995L33.0085 53.5408Z" fill="#FF488A"/>
<path fill-rule="evenodd" clip-rule="evenodd" d="M33.0075 34.1918L35.0892 35.4123L50.3169 44.4134L33.0085 54.6351L15.6997 44.4132L33.0075 34.1918ZM33.0084 35.8453L18.5441 44.3995L33.0084 52.9537L47.4685 44.3995L33.0084 35.8453Z" fill="#FF488A"/>
</g>
</svg>
