<svg width="70" height="70" viewBox="0 0 70 70" fill="none" xmlns="http://www.w3.org/2000/svg">
<g opacity="0.7">
<path d="M4 4H70V70H4V4Z" fill="#FFDB5C"/>
<path fill-rule="evenodd" clip-rule="evenodd" d="M69 5H5V69H69V5ZM4 4V70H70V4H4Z" fill="#2B2B2B"/>
<path d="M2 2H68V68H2V2Z" fill="#FFDB5C"/>
<path fill-rule="evenodd" clip-rule="evenodd" d="M67 3H3V67H67V3ZM2 2V68H68V2H2Z" fill="#2B2B2B"/>
<path d="M0 0H66V66H0V0Z" fill="#FFDB5C"/>
<path fill-rule="evenodd" clip-rule="evenodd" d="M65 1H1V65H65V1ZM0 0V66H66V0H0Z" fill="#2B2B2B"/>
<path fill-rule="evenodd" clip-rule="evenodd" d="M21.4197 12.3749L13.9092 40.4092L31.8263 9.37467C28.172 9.55246 24.6093 10.5797 21.4214 12.3749H21.4197ZM11.7282 43.3476L19.7486 13.4091C15.0362 16.602 11.6318 21.3855 10.1586 26.8835C8.68537 32.3816 9.24201 38.2264 11.7266 43.3476H11.7282ZM56.6676 33.2818L36.1444 12.7593L54.0614 43.7955C55.7344 40.5402 56.6262 36.9399 56.6659 33.2801L56.6676 33.2818ZM34.6963 9.40561L56.6073 31.3158C56.201 25.6392 53.7621 20.2992 49.7377 16.275C45.7133 12.2507 40.3731 9.81187 34.6963 9.40561ZM20.9425 53.3563L48.9583 45.8493H13.1241C15.1134 48.9184 17.7839 51.4874 20.9278 53.3563H20.9425ZM52.602 46.2696L22.6707 54.2912C27.0972 56.4371 32.0821 57.1509 36.933 56.3336C41.7838 55.5163 46.2596 53.2085 49.7385 49.7307C50.7999 48.6697 51.7586 47.5108 52.602 46.2696ZM35.5189 20.6376L32.7792 10.4155L15.0755 41.0803L35.5189 20.6376ZM42.4674 41.3637L52.6916 44.1033L34.9895 13.4319L42.4674 41.3637ZM22.1429 35.9187L40.964 40.9679L35.9147 22.1475L22.1429 35.9187ZM48.9648 44.4991L21.0451 37.0263L13.5623 44.5072L48.9648 44.4991ZM33.3981 8C37.7522 8.06978 42.0126 9.27549 45.7574 11.4978C49.5023 13.7201 52.6018 16.8819 54.7491 20.6702C56.8963 24.4586 58.0169 28.742 57.9998 33.0964C57.9827 37.4509 56.8286 41.7254 54.6517 45.4968C52.4748 49.2681 49.3506 52.4055 45.5884 54.5984C41.8262 56.7913 37.5565 57.9635 33.202 57.9992C28.8475 58.0348 24.5592 56.9325 20.7616 54.8015C16.9641 52.6704 13.789 49.5846 11.5507 45.8493L11.2119 45.2679C9.08738 41.491 7.98067 37.227 8.00026 32.8937C8.01984 28.5604 9.16503 24.3065 11.3236 20.549C13.4822 16.7915 16.5801 13.6594 20.3136 11.4595C24.0471 9.25957 28.2882 8.06748 32.6212 8H33.3981Z" fill="#FF488A"/>
</g>
</svg>
