<svg width="70" height="70" viewBox="0 0 70 70" fill="none" xmlns="http://www.w3.org/2000/svg">
<g opacity="0.7">
<path d="M4 4H70V70H4V4Z" fill="#FFDB5C"/>
<path fill-rule="evenodd" clip-rule="evenodd" d="M69 5H5V69H69V5ZM4 4V70H70V4H4Z" fill="#2B2B2B"/>
<path d="M2 2H68V68H2V2Z" fill="#FFDB5C"/>
<path fill-rule="evenodd" clip-rule="evenodd" d="M67 3H3V67H67V3ZM2 2V68H68V2H2Z" fill="#2B2B2B"/>
<path d="M0 0H66V66H0V0Z" fill="#FFDB5C"/>
<path fill-rule="evenodd" clip-rule="evenodd" d="M65 1H1V65H65V1ZM0 0V66H66V0H0Z" fill="#2B2B2B"/>
<path fill-rule="evenodd" clip-rule="evenodd" d="M50.6718 50.6756C48.3608 52.9941 45.6157 54.8343 42.5934 56.0911C39.5711 57.3478 36.3309 57.9965 33.0579 58H32.9977C26.3985 58.0096 20.0648 55.4012 15.3853 50.7467L15.3205 50.6818L15.2634 50.6232C10.6182 45.9593 8.00687 39.646 8 33.0625V33.0008C7.99998 26.3798 10.6255 20.0291 15.3006 15.3422C19.9757 10.6552 26.3186 8.01474 32.9375 8.00003H32.9992C39.5976 7.98984 45.9305 10.5984 50.6085 15.2533L50.6733 15.3181L50.7319 15.3768C55.3779 20.0386 57.9908 26.3502 58 32.9328V32.9946C58.0041 36.2787 57.3594 39.5312 56.1028 42.5653C54.8463 45.5994 53.0027 48.3551 50.6779 50.6741L50.6718 50.6756ZM20.9887 20.9757C21.5449 19.0702 22.2912 17.2255 23.2164 15.4694C24.5371 13.0002 26.0737 11.1405 27.7229 9.89511C23.3802 10.8903 19.4058 13.0897 16.2554 16.241C13.1051 19.3923 10.9064 23.368 9.91151 27.712C11.1565 26.0623 13.014 24.5252 15.4825 23.2042C17.2368 22.2798 19.0794 21.5338 20.9825 20.9772L20.9887 20.9757ZM24.7361 52.9659C23.3089 53.2121 21.8532 53.2454 20.4163 53.0646C22.6658 54.4798 25.139 55.5031 27.7306 56.0909C26.5799 55.2057 25.5685 54.1528 24.7299 52.9674L24.7361 52.9659ZM38.5316 46.3422C35.0465 49.0691 31.2559 51.1818 27.5331 52.31C27.0703 52.4519 26.6075 52.5769 26.157 52.6819C27.2693 54.1109 28.4711 55.1588 29.7146 55.8224C30.6583 56.3429 31.7097 56.6377 32.7863 56.6836H33.0548C34.1891 56.6658 35.3016 56.3696 36.2946 55.8209C38.2385 54.7807 40.0837 52.8085 41.6372 49.901C42.3962 48.4678 43.0266 46.9701 43.521 45.4255C41.8764 45.835 40.2081 46.1417 38.5255 46.3438L38.5316 46.3422ZM44.7352 40.4778C44.0748 41.2309 43.3888 41.9635 42.6771 42.6754C41.9653 43.3874 41.2325 44.0741 40.4786 44.7357C41.6665 44.5273 42.8314 44.2727 43.9576 43.964C44.2692 42.8236 44.5192 41.6631 44.7321 40.4732L44.7352 40.4778ZM52.6851 26.1502C52.5823 26.6009 52.4588 27.0608 52.3148 27.5299C51.187 31.2538 49.075 35.0456 46.3474 38.5302C46.1424 40.2104 45.8332 41.8762 45.4217 43.518C46.9653 43.0228 48.4624 42.3928 49.8957 41.6353C52.8023 40.0781 54.774 38.2401 55.8139 36.2894C56.3335 35.3452 56.6281 34.2937 56.6747 33.2168V33.0008V32.9467C56.6562 31.8122 56.3602 30.6995 55.8123 29.7059C55.152 28.462 54.1075 27.2583 52.6789 26.1456L52.6851 26.1502ZM53.0677 20.4016C53.2493 21.8415 53.2154 23.3005 52.9674 24.7305C54.1524 25.5649 55.206 26.572 56.0931 27.7182C55.5042 25.124 54.4797 22.6484 53.0631 20.397L53.0677 20.4016ZM41.2701 13.0279C42.6996 12.7795 44.1582 12.7462 45.5976 12.9292C43.347 11.5146 40.8735 10.4909 38.2817 9.90129C39.4256 10.7877 40.4307 11.8399 41.2639 13.0233L41.2701 13.0279ZM27.473 19.6501C30.9581 16.9247 34.7487 14.8104 38.4699 13.6823C38.9327 13.5418 39.3956 13.4168 39.8492 13.3119C38.7368 11.8828 37.535 10.8427 36.2915 10.1698C35.3472 9.65087 34.2962 9.35625 33.2198 9.30871H32.9498C31.8158 9.32813 30.7036 9.62424 29.71 10.1714C27.7676 11.2115 25.9225 13.1854 24.3674 16.0929C23.6084 17.526 22.978 19.0237 22.4836 20.5683C24.1238 20.157 25.7881 19.8488 27.4668 19.6454L27.473 19.6501ZM21.271 25.5144C21.9313 24.7613 22.6173 24.0288 23.3291 23.3168C24.0408 22.6049 24.7731 21.9186 25.526 21.2581C24.3365 21.4665 23.1732 21.7211 22.047 22.0298C21.7307 23.1625 21.4731 24.3277 21.2648 25.516L21.271 25.5144ZM13.3195 39.842C13.4224 39.3914 13.5463 38.932 13.6913 38.4639C14.8191 34.7416 16.9311 30.9482 19.6572 27.4636C19.8616 25.7828 20.1707 24.1164 20.5829 22.4742C19.0392 22.9698 17.542 23.6003 16.1088 24.3585C13.2022 25.9141 11.2306 27.7537 10.1907 29.7044C9.67136 30.6486 9.37726 31.7002 9.33142 32.777V32.9946V33.0455C9.3504 34.18 9.64647 35.2926 10.1938 36.2863C10.8387 37.5287 11.8847 38.7309 13.3133 39.8435L13.3195 39.842ZM12.9384 45.5922C12.7564 44.155 12.7891 42.6986 13.0356 41.2711C11.8517 40.4352 10.7988 39.4278 9.91151 38.2818C10.4984 40.8747 11.5198 43.3495 12.9323 45.6014L12.9384 45.5922ZM40.6776 14.4663C40.0873 14.5877 39.4784 14.742 38.851 14.9292C35.8827 15.829 32.8604 17.3892 29.9954 19.4047C30.9931 19.3378 31.9959 19.3049 33.0038 19.3059C36.5466 19.2951 40.0774 19.7169 43.5179 20.5621C43.0235 19.0175 42.3931 17.5198 41.6341 16.0867C41.3215 15.5095 41.0006 14.9699 40.6715 14.4678L40.6776 14.4663ZM51.7594 23.9156C51.9831 22.1177 51.872 20.5205 51.4632 19.1763C51.1488 18.0887 50.5737 17.0943 49.7878 16.2796L49.7523 16.2425L49.7137 16.2055C48.899 15.4185 47.9044 14.8427 46.8164 14.528C45.468 14.1206 43.8758 14.0095 42.0785 14.2332C42.3222 14.6273 42.5598 15.0388 42.7912 15.4678C43.7158 17.2242 44.4622 19.0689 45.019 20.9742C46.9234 21.5308 48.767 22.2773 50.5221 23.2026C50.949 23.4362 51.3593 23.6743 51.7533 23.9172L51.7594 23.9156ZM46.5834 36.0039C48.5967 33.1366 50.1549 30.1149 51.0575 27.1456C51.2488 26.518 51.403 25.909 51.5203 25.3184C51.0174 24.9897 50.4774 24.6687 49.9019 24.3601C48.4686 23.6021 46.9715 22.9715 45.4279 22.4757C46.2729 25.9183 46.6946 29.4513 46.6837 32.9961C46.6775 33.9993 46.6451 35.0055 46.5834 36.0039ZM38.0071 45.0844C39.3156 44.0422 40.5642 42.9267 41.7468 41.7433C42.9295 40.5596 44.0451 39.3107 45.0885 38.0025C45.2746 36.3402 45.3678 34.6688 45.3677 32.9961C45.3841 29.2974 44.9094 25.6128 43.956 22.039C40.3834 21.0849 36.7 20.6095 33.0023 20.6254C31.3296 20.6249 29.6582 20.7186 27.996 20.9063C26.6874 21.9491 25.4389 23.0651 24.2563 24.2489C23.074 25.433 21.9584 26.6819 20.9146 27.9898C20.7272 29.6525 20.6334 31.3244 20.6338 32.9977C20.6182 36.6964 21.0929 40.3809 22.0455 43.9548C25.6179 44.9095 29.3015 45.3849 32.9992 45.3684C34.671 45.3684 36.3414 45.2736 38.0024 45.0844H38.0071ZM25.327 51.5229C25.9163 51.3995 26.5247 51.2451 27.1521 51.06C30.1219 50.1618 33.1427 48.6015 36.0076 46.5845C35.011 46.6493 34.002 46.6817 33.0023 46.6817C29.4585 46.6927 25.9267 46.2709 22.4852 45.4255C22.9796 46.9701 23.6099 48.4678 24.3689 49.901C24.6764 50.4802 24.9942 51.0209 25.3223 51.5229H25.327ZM14.2452 42.0735C14.0215 43.8714 14.1326 45.4687 14.5399 46.8114C14.8534 47.9001 15.4293 48.8953 16.2169 49.7096L16.2523 49.7466L16.2894 49.7837C17.1025 50.5721 18.0961 51.1496 19.1836 51.4658C20.5335 51.8748 22.1242 51.9859 23.92 51.7621C23.6783 51.3691 23.4417 50.9576 23.2103 50.5275C22.2851 48.7708 21.5387 46.9256 20.9825 45.0196C19.0772 44.4635 17.2326 43.7175 15.4763 42.7927C15.0464 42.5561 14.6345 42.3163 14.2405 42.0735H14.2452ZM14.9471 38.8451C14.7569 39.4737 14.6026 40.0828 14.4843 40.6723C14.9872 41.0025 15.5272 41.3205 16.1027 41.6306C17.5359 42.3883 19.033 43.0184 20.5767 43.5134C19.7309 40.072 19.3092 36.54 19.3209 32.9961C19.3209 31.9915 19.3533 30.9899 19.4196 29.9868C17.4017 32.8542 15.842 35.8789 14.9425 38.8451H14.9471ZM49.7492 49.7482C52.9045 46.6009 55.1036 42.6235 56.0915 38.2772C54.8465 39.9254 52.989 41.4624 50.519 42.785C48.7638 43.7098 46.9202 44.4558 45.0159 45.0119C44.4591 46.9177 43.7128 48.7629 42.7881 50.5198C41.4675 52.989 39.9294 54.8486 38.2801 56.0925C42.6241 55.1037 46.5991 52.904 49.7446 49.7482H49.7492Z" fill="#FF488A"/>
</g>
</svg>
