<svg width="70" height="70" viewBox="0 0 70 70" fill="none" xmlns="http://www.w3.org/2000/svg">
<g opacity="0.7">
<path d="M4 4H70V70H4V4Z" fill="#FFDB5C"/>
<path fill-rule="evenodd" clip-rule="evenodd" d="M69 5H5V69H69V5ZM4 4V70H70V4H4Z" fill="#2B2B2B"/>
<path d="M2 2H68V68H2V2Z" fill="#FFDB5C"/>
<path fill-rule="evenodd" clip-rule="evenodd" d="M67 3H3V67H67V3ZM2 2V68H68V2H2Z" fill="#2B2B2B"/>
<path d="M0 0H66V66H0V0Z" fill="#FFDB5C"/>
<path fill-rule="evenodd" clip-rule="evenodd" d="M65 1H1V65H65V1ZM0 0V66H66V0H0Z" fill="#2B2B2B"/>
<path fill-rule="evenodd" clip-rule="evenodd" d="M55 33.0007V45.4996L44.0007 51.7484L33 58L22.0007 51.7484L11 45.4983V33.0007V20.499C18.3329 16.334 25.6648 12.1677 32.9957 8L43.9965 14.2502L55 20.5031V33.0007ZM32.324 15.9839L18.3683 23.9135L22.3451 26.1745L27.3352 23.3388L32.3254 20.5017L32.324 15.9839ZM48.3177 40.9316V25.0684L44.3494 27.3252V32.9993V38.6706L48.3177 40.9316ZM33.6831 45.4996V56.0738L43.3204 50.5963L52.9578 45.1161L43.662 39.8283L33.6831 45.4996ZM32.324 50.0175V45.4996L27.3338 42.664L22.3437 39.8297L18.3598 42.0851L32.324 50.0175ZM13.038 45.1161L22.6753 50.5963L32.3126 56.0738V51.5573L17.0063 42.8579L13.038 45.1161ZM12.3591 22.0416V33.0007V43.9584L21.6606 38.6734V33.0007V27.3294L12.3591 22.0416ZM32.324 9.92764L13.0309 20.8839L16.9992 23.1435L32.3056 14.4427L32.324 9.92764ZM52.962 20.8839L43.3247 15.4051L33.6874 9.92764V20.5003L38.6775 23.3374L43.6662 26.1731L52.962 20.8839ZM53.6394 43.9612V33.0007V22.0416L49.6711 24.2998V41.7016L53.6394 43.9612ZM42.9789 38.672V33.0007V27.3266L37.993 24.4923L33.0014 21.6567L28.0127 24.4923L23.0211 27.3266V33.0007V38.6748L28.0099 41.5091L32.9986 44.3461L42.9789 38.672Z" fill="#FF488A"/>
</g>
</svg>
