<svg width="70" height="70" viewBox="0 0 70 70" fill="none" xmlns="http://www.w3.org/2000/svg">
<g opacity="0.7">
<path d="M4 4H70V70H4V4Z" fill="#FFDB5C"/>
<path fill-rule="evenodd" clip-rule="evenodd" d="M69 5H5V69H69V5ZM4 4V70H70V4H4Z" fill="#2B2B2B"/>
<path d="M2 2H68V68H2V2Z" fill="#FFDB5C"/>
<path fill-rule="evenodd" clip-rule="evenodd" d="M67 3H3V67H67V3ZM2 2V68H68V2H2Z" fill="#2B2B2B"/>
<path d="M0 0H66V66H0V0Z" fill="#FFDB5C"/>
<path fill-rule="evenodd" clip-rule="evenodd" d="M65 1H1V65H65V1ZM0 0V66H66V0H0Z" fill="#2B2B2B"/>
<path fill-rule="evenodd" clip-rule="evenodd" d="M38.1743 18.8127L33.0028 10L27.9165 18.6587L6 56H45.5714L40.3971 47.1873H21.5201L33.0028 27.6268L49.5648 55.8446L49.6556 55.9986H60L38.1743 18.8127ZM33.0028 11.235L37.2643 18.5046H28.7316L33.0028 11.235ZM7.09011 55.3825L11.3516 48.1142L15.6131 55.3825H7.09011ZM11.9015 47.8061H20.4341L16.1726 55.0731L11.9015 47.8061ZM40.037 47.8061L44.4841 55.3825H16.7156L21.164 47.8061H40.037ZM20.7915 47.1873H11.896L28.1873 19.4303L32.6343 27.008L20.7915 47.1873ZM28.7316 19.1222H37.2629L33.0014 26.3905L28.7316 19.1222ZM33.3602 27.008L37.8072 19.4303L58.9085 55.3825H50.0144L33.3602 27.008Z" fill="#FF488A" stroke="#FF488A" stroke-width="0.5"/>
</g>
</svg>
