<svg width="71" height="71" viewBox="0 0 71 71" fill="none" xmlns="http://www.w3.org/2000/svg">
<rect x="5.90445" y="5.90442" width="63.6497" height="64.0956" fill="#FF2756"/>
<rect x="5.90445" y="5.90442" width="63.6497" height="64.0956" stroke="#2B2B2B"/>
<rect x="3.67552" y="3.67529" width="63.6497" height="64.0956" fill="#FF2756"/>
<rect x="3.67552" y="3.67529" width="63.6497" height="64.0956" stroke="#2B2B2B"/>
<rect x="1.44585" y="1" width="63.6497" height="64.0956" fill="#FF2756"/>
<path d="M33.8531 33.0089L34.1821 33.1994V35.1504L33.8531 34.9614V33.0089Z" stroke="#FFDB5C"/>
<path d="M40.9756 27.9529V28.2943L39.2418 29.3023V28.9494L40.9756 27.9529Z" stroke="#FFDB5C"/>
<path d="M37.5791 30.269L35.8452 31.2769V30.9007L37.5791 29.9039V30.269Z" stroke="#FFDB5C"/>
<path d="M33.347 30.4201L33.0224 30.6067L31.2827 29.5994L31.6014 29.4165L33.347 30.4201Z" stroke="#FFDB5C"/>
<path d="M36.744 28.4682L35.015 29.4617L24.4941 23.416L26.2246 22.4212L36.744 28.4682Z" stroke="#FFDB5C"/>
<path d="M20.8872 23.5728L19.1778 22.5819L34.1926 13.9533L34.2067 15.9182L20.8872 23.5728Z" stroke="#FFDB5C"/>
<path d="M32.1898 44.1093L30.4663 43.1195V31.0455L32.1898 32.0447V44.1093Z" stroke="#FFDB5C"/>
<path d="M28.2186 27.4726L29.9339 28.4584L29.6227 28.6373L27.9152 27.6473L28.2186 27.4726Z" stroke="#FFDB5C"/>
<path d="M49.751 22.8894V40.1909L48.0319 39.203V23.8933L49.751 22.8894Z" stroke="#FFDB5C"/>
<path d="M34.182 49.1589L19.1292 40.5078L20.8594 39.5141L34.182 47.1706V49.1589Z" stroke="#FFDB5C"/>
<path d="M34.1821 39.0715L33.8531 38.882V36.8786L34.1821 37.0676V39.0715Z" stroke="#FFDB5C"/>
<path d="M54.8424 28.1536V26.1505L58.5 24.0471V26.0514L54.8424 28.1536Z" stroke="#FFDB5C"/>
<path d="M54.8423 24.2339V20.9833L57.6673 22.611L54.8423 24.2339Z" stroke="#FFDB5C"/>
<path d="M14.8955 15.9117L17.7895 17.5752L14.8955 19.2386V15.9117Z" stroke="#FFDB5C"/>
<path d="M18.294 39.0719V31.8566L20.0264 32.853V38.0755L18.294 39.0719Z" stroke="#FFDB5C"/>
<path d="M14.8955 29.9035L16.6294 30.8993V40.0282L14.8955 41.024V29.9035Z" stroke="#FFDB5C"/>
<path d="M39.2418 55.0152V39.0347L40.9756 38.038V54.0194L39.2418 55.0152Z" stroke="#FFDB5C"/>
<path d="M37.5804 55.0152L15.732 42.46L17.4625 41.4652L34.5995 51.3131C34.6258 51.3283 34.6486 51.3385 34.6635 51.3448C34.6646 51.3452 34.6657 51.3457 34.6667 51.3461C34.683 51.3538 34.7105 51.366 34.7433 51.3767C34.8115 51.4004 34.9046 51.4247 35.015 51.4247C35.1227 51.4247 35.2174 51.4016 35.2916 51.3751C35.3057 51.3704 35.3404 51.3582 35.3775 51.3398L35.3775 51.3398C35.4274 51.315 35.5164 51.2673 35.5997 51.1844L35.6572 51.1271L35.667 51.1075C35.6887 51.0804 35.7132 51.0462 35.7357 51.0064L35.7418 50.9958L35.7473 50.9848C35.757 50.9654 35.7644 50.9477 35.77 50.9325C35.7721 50.9269 35.774 50.9216 35.7757 50.9165C35.7852 50.8932 35.7919 50.8728 35.7967 50.8571C35.801 50.8429 35.8043 50.8306 35.8063 50.8231L35.8101 50.8085C35.8102 50.8084 35.8103 50.8078 35.8106 50.8067L35.8128 50.799C35.8147 50.7925 35.8183 50.7795 35.822 50.7643C35.8262 50.7472 35.8315 50.7228 35.8354 50.693L35.845 50.6498V50.5947V40.9869L37.5804 39.9893V55.0152Z" stroke="#FFDB5C"/>
<path d="M28.8033 56.1359L27.0694 55.1391V50.8923L28.8033 51.888V56.1359Z" stroke="#FFDB5C"/>
<path d="M30.4663 52.8447L33.3292 54.4904L30.4663 56.1361V52.8447Z" stroke="#FFDB5C"/>
<path d="M42.6404 45.2361V43.2464L47.186 40.6334L48.9167 41.6282L42.6404 45.2361Z" stroke="#FFDB5C"/>
<path d="M40.0731 24.5612L53.1777 17.0486V43.0859L42.6386 49.1424V47.154L50.8796 42.4162H50.9555L51.0703 42.3019C51.1025 42.2788 51.136 42.2513 51.1687 42.2187L51.2263 42.1614L51.2404 42.1333C51.2434 42.1295 51.2465 42.1255 51.2497 42.1212C51.2598 42.109 51.2794 42.0843 51.2992 42.0514L51.3092 42.035L51.3178 42.0178C51.3275 41.9984 51.3349 41.9806 51.3406 41.9654C51.3432 41.9585 51.3454 41.952 51.3474 41.946C51.3536 41.9311 51.3608 41.9126 51.3674 41.8929L51.3698 41.8857L51.372 41.8784L51.3728 41.8758C51.3768 41.8627 51.3875 41.8273 51.3954 41.7883L50.9052 41.6897L51.3954 41.7882L51.3954 41.7881C51.3959 41.7861 51.4001 41.7658 51.4031 41.7466C51.4042 41.74 51.4052 41.7327 51.4062 41.7247L51.4156 41.6827V41.6276V21.4397C51.4156 21.3949 51.4098 21.3571 51.4037 21.3292C51.3959 21.2777 51.3843 21.2369 51.3813 21.2266C51.381 21.2256 51.3808 21.2249 51.3807 21.2245L50.8978 21.3538L51.3807 21.2244L51.3769 21.2098C51.3749 21.2023 51.3716 21.1899 51.3673 21.1758C51.3611 21.1555 51.3516 21.1272 51.337 21.0948C51.3317 21.0811 51.3249 21.0651 51.3163 21.0481L51.3056 21.0267L51.293 21.0065C51.2626 20.9581 51.2304 20.9238 51.2146 20.9079C51.2102 20.9026 51.2042 20.8955 51.1974 20.8876C51.1813 20.8692 51.1561 20.8419 51.1224 20.8132C51.0695 20.7674 51.0151 20.7363 51.0001 20.7278C50.958 20.7025 50.911 20.6789 50.8556 20.6593C50.7975 20.6386 50.7412 20.6287 50.7105 20.6243C50.6852 20.6185 50.6387 20.6097 50.5826 20.6097C50.5389 20.6097 50.5019 20.6152 50.4743 20.621C50.452 20.6244 50.4328 20.6283 50.4173 20.6319C50.4042 20.6349 50.3929 20.6379 50.3855 20.6399C50.3646 20.6454 50.3855 20.6399 50.3696 20.6441L50.3696 20.6441L50.3611 20.6465C50.361 20.6465 50.3608 20.6466 50.3604 20.6467C50.3548 20.6481 50.3145 20.6585 50.2654 20.6783L50.2316 20.6857L50.164 20.7252L46.7834 22.6991L46.7804 22.7008L41.8085 25.5585L40.0731 24.5612ZM50.7339 20.6302L50.7338 20.6301L50.7339 20.6302ZM51.1732 42.2128C51.175 42.211 51.1767 42.2093 51.1784 42.2076C51.1745 42.2116 51.1724 42.2136 51.1732 42.2128ZM51.239 42.1337L51.2392 42.1336L51.239 42.1337Z" stroke="#FFDB5C"/>
<path d="M35.8467 39.0704V37.0673L38.5741 35.4997C38.7447 35.4643 38.9033 35.3753 39.0235 35.2414L46.3695 31.019V33.0229L35.8467 39.0704Z" stroke="#FFDB5C"/>
<path d="M28.8033 42.1638L27.0694 41.168V29.0778L28.8033 30.0829V42.1638Z" stroke="#FFDB5C"/>
<path d="M40.4231 18.5318L35.8697 15.9146L35.8556 13.934L42.1379 17.5447L40.4231 18.5318Z" stroke="#FFDB5C"/>
<path d="M34.5935 23.3282L35.0518 23.5916L35.0531 23.589L40.1427 26.5144L38.4122 27.5094L27.8927 21.4637L29.6216 20.4702L34.5935 23.3282Z" stroke="#FFDB5C"/>
<path d="M46.3681 29.1047L35.8453 35.1523V33.1993L46.3681 27.0801V29.1047Z" stroke="#FFDB5C"/>
<path d="M45.5073 15.6059L35.0411 9.57685L23.2755 16.3381C23.2724 16.3399 23.2691 16.3419 23.2654 16.344C23.2617 16.346 23.2556 16.3495 23.2476 16.3536L19.8766 18.2905L19.8721 18.2931L19.8619 18.2989L19.8617 18.299C19.861 18.2994 19.8598 18.3001 19.8582 18.301L12.3614 22.6114L25.4061 30.1072V28.1132L20.6254 25.3428C20.4981 25.3057 20.381 25.2383 20.2841 25.1454L17.324 23.4294C17.272 23.4201 17.2249 23.4065 17.184 23.3919C17.1707 23.3874 17.1385 23.3763 17.1035 23.3593C17.0376 23.3277 16.9597 23.2818 16.8842 23.2106L16.8743 23.2013L16.8744 23.2011L16.8739 23.2006C16.8679 23.1947 16.8542 23.181 16.8373 23.1602C16.811 23.1305 16.7723 23.0833 16.7384 23.0233L16.7324 23.0126L16.7269 23.0017C16.7172 22.9824 16.7098 22.9646 16.7041 22.9494C16.702 22.9437 16.7001 22.9383 16.6984 22.9331C16.6889 22.9099 16.6822 22.8896 16.6774 22.8739C16.6731 22.8598 16.6698 22.8475 16.6678 22.84L16.664 22.8253C16.6639 22.8251 16.6638 22.8246 16.6636 22.8239C16.6613 22.816 16.6499 22.7765 16.6419 22.7267C16.6398 22.7176 16.6377 22.7074 16.6359 22.6962C16.6321 22.6733 16.6291 22.6451 16.6291 22.613V22.5494V22.4943L16.6383 22.453C16.6422 22.4217 16.6478 22.3961 16.6521 22.3783C16.6558 22.3631 16.6595 22.3501 16.6613 22.3437L16.6635 22.3359C16.6638 22.3348 16.664 22.3342 16.664 22.3341L16.6663 22.3256L16.6663 22.3256L16.6674 22.322C16.6719 22.3063 16.6816 22.2721 16.6967 22.2327C16.7061 22.2042 16.7248 22.1565 16.7586 22.1056C16.7776 22.077 16.7961 22.0547 16.8104 22.0389C16.8151 22.0337 16.8196 22.0289 16.8237 22.0247C16.8477 21.9949 16.8828 21.9556 16.9288 21.9174L16.9323 21.9146L16.9323 21.9146C16.9776 21.8776 17.0192 21.8523 17.0475 21.8358L17.0549 21.8316L17.0624 21.8275L17.0755 21.8204C17.0815 21.8172 17.0905 21.8124 17.1007 21.8072L45.5073 15.6059ZM45.5073 15.6059L43.8048 16.586L35.4838 11.8044L35.4838 11.8043L35.4748 11.7993C35.3451 11.7283 35.2142 11.7027 35.0986 11.7001C35.0753 11.6964 35.0469 11.6935 35.0146 11.6935H35.0117C34.965 11.6935 34.9258 11.6998 34.8967 11.7063C34.8489 11.7142 34.8109 11.7251 34.7972 11.7291L34.7873 11.7317C34.7801 11.7336 34.7684 11.7367 34.7551 11.7406C34.7397 11.7452 34.7205 11.7514 34.6988 11.7598L34.6596 11.7696L34.599 11.8044L17.318 21.7364C17.286 21.7416 17.239 21.7512 17.1891 21.769L45.5073 15.6059ZM17.2924 21.7445C17.293 21.7443 17.2942 21.7439 17.296 21.7434L17.2958 21.7434L17.2924 21.7445ZM17.2924 21.7445C17.2918 21.7446 17.2915 21.7447 17.2922 21.7445L17.2924 21.7445ZM17.6071 21.7385L17.6062 21.7382L17.6071 21.7385ZM16.6828 22.8768C16.6826 22.8762 16.6826 22.876 16.6827 22.8766L16.6828 22.8768Z" stroke="#FFDB5C"/>
<path d="M25.4064 34.0276L11.5021 26.0381L11.5163 24.0422L25.4064 32.0244V34.0276Z" stroke="#FFDB5C"/>
<path d="M47.5812 16.3298L47.5812 16.3298L47.5882 16.3257L47.5922 16.3233L50.5832 14.6013L52.3409 15.6117L50.2245 16.8252C50.2044 16.8356 50.1894 16.8448 50.1814 16.8498L50.1773 16.8523L38.4048 23.6011L36.6739 22.607L47.5812 16.3298ZM50.1841 16.8484L50.1827 16.8492L50.1841 16.8484Z" stroke="#FFDB5C"/>
<path d="M15.732 14.4755L17.461 13.4819L21.1878 15.6224L19.4575 16.6171L15.732 14.4755Z" stroke="#FFDB5C"/>
<rect x="1.44585" y="1" width="63.6497" height="64.0956" stroke="#2B2B2B"/>
</svg>
