<svg width="70" height="71" viewBox="0 0 70 71" fill="none" xmlns="http://www.w3.org/2000/svg">
<rect x="5.40446" y="5.90442" width="63.6497" height="64.0956" fill="#5A5A5A"/>
<rect x="5.40446" y="5.90442" width="63.6497" height="64.0956" stroke="#2B2B2B"/>
<rect x="3.17552" y="3.67529" width="63.6497" height="64.0956" fill="#5A5A5A"/>
<rect x="3.17552" y="3.67529" width="63.6497" height="64.0956" stroke="#2B2B2B"/>
<rect x="0.945862" y="1" width="63.6497" height="64.0956" fill="#5A5A5A"/>
<path d="M7.51515 38.6841C7.51515 38.6841 7.52273 38.7181 7.5341 38.7332C7.54168 38.7483 7.55305 38.7596 7.56442 38.7747C7.57579 38.7899 7.59095 38.805 7.60611 38.8201C7.60611 38.8201 7.6099 38.8276 7.61369 38.8276L32.6273 56.9433C32.6273 56.9433 32.6463 56.9509 32.6539 56.9584C32.6615 56.9622 32.6728 56.9698 32.6804 56.9736C32.7183 56.9887 32.7524 57 32.7903 57C32.8282 57 32.8661 56.9887 32.9002 56.9736C32.9078 56.9698 32.9192 56.966 32.9267 56.9584C32.9343 56.9547 32.9457 56.9509 32.9533 56.9433L57.9669 38.8276C57.9669 38.8276 57.9707 38.8201 57.9745 38.8201C57.9897 38.8087 58.001 38.7899 58.0162 38.7747C58.0276 38.7596 58.0389 38.7483 58.0465 38.7332C58.0541 38.7181 58.0579 38.703 58.0655 38.6841C58.0731 38.6652 58.0769 38.6501 58.0807 38.6312C58.0807 38.6161 58.0807 38.6009 58.0807 38.5821C58.0807 38.5594 58.0806 38.5405 58.0731 38.5178C58.0731 38.5141 58.0731 38.5103 58.0731 38.5065L48.5262 9.19646C48.5262 9.19646 48.5224 9.1889 48.5186 9.18512C48.511 9.16623 48.4997 9.15112 48.4883 9.13223C48.4807 9.11712 48.4693 9.10201 48.458 9.09067C48.4466 9.07934 48.4314 9.07178 48.4201 9.06045C48.4049 9.04911 48.3897 9.03778 48.3708 9.02645C48.3556 9.01889 48.3405 9.01889 48.3253 9.01133C48.3064 9.00756 48.2874 9 48.2647 9C48.2609 9 48.2571 9 48.2533 9H17.3349C17.3349 9 17.3273 9 17.3235 9C17.3046 9 17.2894 9.00756 17.2705 9.01133C17.2515 9.01511 17.2326 9.01889 17.2136 9.02645C17.1985 9.034 17.1871 9.04534 17.1757 9.05289C17.1606 9.06423 17.1416 9.07556 17.1265 9.09067C17.1151 9.10201 17.1075 9.11712 17.0999 9.12845C17.0886 9.14734 17.0772 9.16246 17.0696 9.18135C17.0696 9.18135 17.0658 9.1889 17.062 9.19268L7.50759 38.5065C7.50759 38.5065 7.50759 38.5141 7.50759 38.5178C7.50001 38.5367 7.5 38.5594 7.5 38.5783C7.5 38.5934 7.5 38.6085 7.5 38.6274C7.5 38.6463 7.51136 38.6652 7.51515 38.6803V38.6841ZM9.5352 34.1315L28.4281 47.8156C28.4281 47.8156 28.447 47.8231 28.4546 47.8307C28.4622 47.8345 28.4736 47.842 28.4811 47.8458C28.519 47.8609 28.5532 47.8723 28.5911 47.8723C28.629 47.8723 28.6669 47.8609 28.701 47.8458C28.7085 47.842 28.7199 47.8383 28.7275 47.8307C28.7351 47.8269 28.7465 47.8231 28.754 47.8156L46.04 35.2952L47.4612 39.6512L28.5873 53.3202L8.11018 38.4876L9.53141 34.1277L9.5352 34.1315ZM17.5396 9.56671H22.1368L14.9207 31.7022C14.9207 31.7022 14.9207 31.7098 14.9207 31.7136C14.9131 31.7325 14.9131 31.7551 14.9131 31.774C14.9131 31.7891 14.9131 31.8043 14.9131 31.8231C14.9131 31.842 14.9245 31.8609 14.9283 31.876C14.9321 31.8911 14.9359 31.91 14.9473 31.9251C14.9548 31.9403 14.9662 31.9516 14.9776 31.9667C14.9889 31.9818 15.0041 31.9969 15.0192 32.012C15.0192 32.012 15.023 32.0196 15.0268 32.0196L32.3128 44.54L28.5948 47.2338L9.7209 33.5648L17.5434 9.56671H17.5396ZM48.0449 9.56671L49.4661 13.9228H26.1162C26.1162 13.9228 26.1086 13.9228 26.1048 13.9228C26.0859 13.9228 26.067 13.9303 26.048 13.9341C26.0328 13.9379 26.0139 13.9417 25.9987 13.9492C25.9836 13.9568 25.9684 13.9681 25.9533 13.9795C25.9381 13.9908 25.9229 13.9983 25.9116 14.0135C25.9002 14.0248 25.8926 14.0399 25.885 14.055C25.8737 14.0739 25.8623 14.089 25.8547 14.1079C25.8547 14.1117 25.8509 14.1155 25.8471 14.1192L19.245 34.3771L15.5271 31.6834L22.7356 9.56671H48.0486H48.0449ZM53.7525 41.1813L46.6577 19.4161H51.255L57.4705 38.4876L53.7525 41.1813ZM32.7903 56.3615L29.0724 53.6678L47.9615 39.9837C47.9615 39.9837 47.9653 39.9762 47.969 39.9762C47.9842 39.9648 47.9956 39.9459 48.0108 39.9308C48.0221 39.9157 48.0335 39.9044 48.0411 39.8893C48.0486 39.8741 48.0524 39.859 48.06 39.8401C48.0676 39.8213 48.0714 39.8061 48.0752 39.7873C48.0752 39.7721 48.0752 39.757 48.0752 39.7381C48.0752 39.7155 48.0752 39.6966 48.0676 39.6739C48.0676 39.6701 48.0676 39.6664 48.0676 39.6626L41.4655 19.4085H46.0627L53.2712 41.5252L32.7941 56.3577L32.7903 56.3615ZM32.7903 44.1887L19.7226 34.7247L24.7139 19.4123H40.8667L45.8581 34.7247L32.7903 44.1887ZM24.8996 18.8456L26.3209 14.4895H49.648L51.0692 18.8456H24.8996Z" fill="#FFF853"/>
<rect x="0.945862" y="1" width="63.6497" height="64.0956" stroke="#2B2B2B"/>
</svg>
