<svg width="71" height="71" viewBox="0 0 71 71" fill="none" xmlns="http://www.w3.org/2000/svg">
<rect x="5.90445" y="5.90442" width="63.6497" height="64.0956" fill="#21CFA5"/>
<rect x="5.90445" y="5.90442" width="63.6497" height="64.0956" stroke="#2B2B2B"/>
<rect x="3.67554" y="3.67529" width="63.6497" height="64.0956" fill="#21CFA5"/>
<rect x="3.67554" y="3.67529" width="63.6497" height="64.0956" stroke="#2B2B2B"/>
<rect x="1.44586" y="1" width="63.6497" height="64.0956" fill="#21CFA5"/>
<rect x="1.44586" y="1" width="63.6497" height="64.0956" stroke="#2B2B2B"/>
<path d="M57.1359 49.2931L54.2522 54.3104H48.4904L51.374 49.2931H57.1359Z" stroke="#753EEB"/>
<path d="M32.1155 25.9058L31.174 27.5446H28.3216L25.4393 22.5273H27.3215L29.0187 25.4815L29.0187 25.4815L29.023 25.4887C29.0382 25.5143 29.0531 25.5343 29.0636 25.5475C29.0708 25.5579 29.0773 25.5664 29.0824 25.573L29.0916 25.5914L29.14 25.6438C29.1784 25.6853 29.2185 25.7193 29.2578 25.7472L29.2809 25.7703L29.353 25.8065C29.3704 25.8153 29.3857 25.8218 29.3976 25.8266C29.3994 25.8273 29.4011 25.828 29.4028 25.8287C29.4199 25.8364 29.4362 25.8431 29.4521 25.8489C29.4529 25.8492 29.4538 25.8496 29.4547 25.8499C29.4629 25.8533 29.4734 25.8573 29.4858 25.8615L29.4858 25.8615L29.4924 25.8636C29.5503 25.8821 29.6392 25.9058 29.7469 25.9058H32.1155Z" stroke="#753EEB"/>
<path d="M49.9167 48.4503L47.0352 53.4662L46.1004 51.84L47.8062 48.8719L47.8137 48.8589L47.8204 48.8455C47.83 48.8262 47.8373 48.8085 47.8429 48.7934C47.8455 48.7862 47.8478 48.7794 47.8498 48.7732C47.8561 48.758 47.8635 48.739 47.8702 48.7188L47.8726 48.7116L47.8748 48.7044C47.875 48.7036 47.8752 48.7027 47.8756 48.7017C47.8797 48.688 47.8904 48.6523 47.8982 48.6129C47.8983 48.6124 47.9028 48.591 47.906 48.5707C47.9068 48.5657 47.9076 48.5602 47.9084 48.5543C47.9138 48.5268 47.9186 48.4915 47.9186 48.4509C47.9186 48.4248 47.9166 48.4002 47.9133 48.3773C47.9115 48.3647 47.9093 48.3529 47.907 48.3421C47.905 48.3266 47.9022 48.3085 47.8982 48.2889C47.8904 48.2495 47.8797 48.2138 47.8755 48.2001C47.8752 48.199 47.875 48.1982 47.8748 48.1974L47.8726 48.1902L47.8702 48.183C47.8648 48.1667 47.8589 48.1511 47.8536 48.1377L47.8444 48.0963L47.8063 48.03L46.1019 45.0634L47.0367 43.4371L49.9167 48.4503Z" stroke="#753EEB"/>
<path d="M13.913 54.3104L16.7967 49.2931H22.5587L19.6764 54.3104H13.913Z" stroke="#753EEB"/>
<path d="M23.984 53.4675L23.0417 51.8288L24.74 48.8729L24.7474 48.86L24.7541 48.8466C24.7637 48.8273 24.771 48.8096 24.7766 48.7944C24.7792 48.7873 24.7815 48.7805 24.7835 48.7743C24.7898 48.7591 24.7972 48.7401 24.8039 48.7199L24.8063 48.7128L24.8084 48.7055C24.8087 48.7048 24.8089 48.7039 24.8092 48.7029C24.8134 48.6891 24.8241 48.6535 24.8319 48.6141L24.832 48.6138C24.8325 48.6111 24.8367 48.5909 24.8397 48.5718C24.8406 48.5662 24.8415 48.56 24.8423 48.5534C24.8427 48.5515 24.843 48.5497 24.8434 48.5478C24.8473 48.5269 24.8522 48.4933 24.8522 48.452C24.8522 48.4202 24.8493 48.3922 24.8455 48.3694C24.8441 48.3606 24.8425 48.3523 24.8409 48.3448C24.8388 48.3289 24.836 48.3103 24.8319 48.29C24.8241 48.2506 24.8134 48.2149 24.8092 48.2012C24.8089 48.2002 24.8087 48.1993 24.8084 48.1985L24.8063 48.1913L24.8039 48.1841C24.7978 48.1659 24.7912 48.1485 24.7853 48.1341L24.7748 48.0917L24.74 48.0311L23.5396 45.9418H25.4233L26.8654 48.452L23.984 53.4675ZM24.8281 48.6102L24.8284 48.6093L24.8281 48.6102Z" stroke="#753EEB"/>
<path d="M12.4585 53.4647L9.57674 48.4508L12.4585 43.4356L15.3402 48.4508L12.4585 53.4647Z" stroke="#753EEB"/>
<path d="M27.3772 35.9352L28.3075 37.5541H22.5706L19.6869 32.5368H21.543L23.254 35.514L23.2539 35.514L23.2582 35.5212C23.2753 35.5497 23.2918 35.5713 23.3023 35.5843C23.3031 35.5853 23.3039 35.5863 23.3047 35.5873C23.3089 35.5931 23.3128 35.5984 23.3164 35.603L23.3351 35.6407L23.4014 35.7025C23.4495 35.7474 23.4959 35.7806 23.527 35.802L23.6553 35.8907H23.7169C23.7286 35.8948 23.7423 35.8991 23.7576 35.9031C23.8177 35.9197 23.8958 35.9352 23.9837 35.9352H27.3772ZM23.6157 35.8482L23.6157 35.8482L23.6157 35.8482Z" stroke="#753EEB"/>
<path d="M25.4393 54.3104L28.3216 49.2931H34.085L31.2013 54.3104H25.4393Z" stroke="#753EEB"/>
<path d="M26.8655 28.3907L23.9851 33.4046L22.8504 31.431C22.8155 31.3231 22.7585 31.2191 22.6769 31.129L21.1036 28.3908L23.9852 23.377L26.8655 28.3907Z" stroke="#753EEB"/>
<path d="M22.5571 47.604H16.7967L13.913 42.5867H15.8241L17.5076 45.5163L17.5075 45.5163L17.5118 45.5235C17.527 45.549 17.5419 45.569 17.5524 45.5822C17.5595 45.5925 17.5659 45.601 17.571 45.6075L17.5802 45.626L17.6289 45.6786C17.667 45.7198 17.7069 45.7536 17.7459 45.7814L17.769 45.8047L17.8418 45.8413C17.8593 45.85 17.8746 45.8566 17.8865 45.8614C17.8882 45.8621 17.89 45.8628 17.8916 45.8634C17.9088 45.8713 17.9252 45.8779 17.9411 45.8837C17.942 45.8841 17.9428 45.8844 17.9437 45.8848C17.9519 45.8881 17.9624 45.8921 17.9747 45.8962L17.9747 45.8963L17.9812 45.8984C18.0391 45.9169 18.1281 45.9405 18.2358 45.9405H21.6017L22.5571 47.604Z" stroke="#753EEB"/>
<path d="M18.2351 43.411L15.3534 38.397L18.2351 33.3818L21.1168 38.397L18.2351 43.411Z" stroke="#753EEB"/>
<path d="M35.5248 53.4661L34.5761 51.8153L36.2668 48.8716L36.2743 48.8586L36.2809 48.8453C36.2905 48.826 36.2978 48.8083 36.3034 48.7932C36.306 48.786 36.3083 48.7793 36.3104 48.773C36.3166 48.7578 36.324 48.7388 36.3307 48.7186L36.3331 48.7115L36.3353 48.7042C36.3355 48.7035 36.3358 48.7026 36.3361 48.7016C36.3402 48.6878 36.3509 48.6522 36.3587 48.6128L36.3588 48.6125C36.3594 48.6098 36.3635 48.5896 36.3665 48.5705C36.3673 48.5655 36.3681 48.56 36.3689 48.5542C36.3743 48.5267 36.3791 48.4913 36.3791 48.4507C36.3791 48.4246 36.3771 48.4 36.3738 48.3771C36.372 48.3645 36.3698 48.3527 36.3675 48.342C36.3655 48.3265 36.3627 48.3083 36.3587 48.2887L36.3587 48.2887C36.3509 48.2493 36.3402 48.2136 36.3361 48.1999C36.3358 48.1989 36.3355 48.198 36.3353 48.1972L36.3331 48.19L36.3307 48.1828C36.3253 48.1665 36.3194 48.151 36.3141 48.1376L36.3049 48.0961L36.2667 48.0297L34.5685 45.0754L35.5172 43.4245L38.4069 48.4515L35.5248 53.4661ZM36.3452 48.2659C36.345 48.2653 36.3454 48.2664 36.3459 48.2678L36.3452 48.2659Z" stroke="#753EEB"/>
<path d="M36.9799 54.3104L39.8635 49.2931H45.6254L42.7418 54.3104H36.9799Z" stroke="#753EEB"/>
<path d="M44.153 38.4196L42.7241 40.9053H39.8185L38.391 38.4197L41.2714 33.4059L44.153 38.4196Z" stroke="#753EEB"/>
<path d="M35.5094 23.3768L38.3911 28.3907L35.5094 33.406L32.6276 28.3907L35.5094 23.3768Z" stroke="#753EEB"/>
<path d="M29.7487 23.375L26.867 18.361L29.7487 13.3472L32.6304 18.361L29.7487 23.375Z" stroke="#753EEB"/>
<path d="M26.8933 45.123L28.3483 42.5898H31.199L34.0826 47.6071H28.3194L26.8933 45.123Z" stroke="#753EEB"/>
<path d="M19.6893 44.2558L22.5729 39.2385H28.3335L25.4511 44.2558H19.6893Z" stroke="#753EEB"/>
<path d="M25.4391 34.2518L28.3217 29.233H31.1737L32.6288 31.7676L31.2013 34.2518H25.4391Z" stroke="#753EEB"/>
<path d="M36.9636 22.5312H39.2405C39.2842 22.5388 39.3314 22.5435 39.3808 22.5435H39.3823C39.4316 22.5435 39.4788 22.5388 39.5226 22.5312H42.7254L45.6091 27.5485H39.8472L36.9636 22.5312Z" stroke="#753EEB"/>
<path d="M41.1172 30.8951C41.1344 30.8918 41.1504 30.8893 41.1642 30.8875C41.1928 30.8813 41.2302 30.8757 41.2741 30.8757H44.6676L45.6108 29.2338H39.8487L36.9651 34.2511H38.8472L40.5444 31.2984L40.5772 31.2414L40.6035 31.2149C40.6174 31.1964 40.6334 31.1772 40.6515 31.1579M41.1172 30.8951C41.1174 30.8951 41.1176 30.8951 41.1178 30.895C41.1186 30.8949 41.1194 30.8947 41.1201 30.8946L41.1209 30.8987M41.1172 30.8951C41.1153 30.8955 41.1134 30.8959 41.1115 30.8963L41.1125 30.9014M41.1172 30.8951C41.0984 30.8986 41.0483 30.9077 40.9909 30.9291M41.1209 30.8987C41.1179 30.8996 41.1152 30.9005 41.1128 30.9013C41.1127 30.9013 41.1126 30.9013 41.1125 30.9014M41.1209 30.8987L41.1209 30.899L41.1209 30.8987ZM41.1125 30.9014C41.1045 30.9039 41.0981 30.9062 41.0964 30.9068L41.0996 30.9057C41.1021 30.9049 41.1066 30.9033 41.1125 30.9015L41.1125 30.9014ZM40.9909 30.9291C40.9732 30.9355 40.9583 30.9416 40.9472 30.9464M40.9909 30.9291C40.986 30.9309 40.9811 30.9328 40.9762 30.9348L40.9772 30.9373C40.9749 30.9379 40.9725 30.9386 40.97 30.9393C40.9635 30.9412 40.9558 30.9435 40.9472 30.9464M40.9909 30.9291C40.995 30.9276 40.9994 30.9261 41.0038 30.9246L41.1626 31.3987M40.9472 30.9464C40.9421 30.9481 40.9368 30.95 40.9311 30.9521C40.9159 30.9578 40.898 30.9652 40.8786 30.975L40.8383 30.9953L40.8022 31.0225C40.7886 31.0327 40.777 31.0424 40.7675 31.0509M40.9472 30.9464C40.9447 30.9475 40.9423 30.9486 40.9402 30.9495L40.9246 30.9566L40.9191 30.9591L40.9087 30.9637L40.8985 30.9688C40.9056 30.9652 40.9125 30.962 40.9191 30.9591C40.9289 30.9547 40.9381 30.9511 40.9463 30.948C40.9584 30.9435 40.969 30.9401 40.9773 30.9377L41.1626 31.3987M40.7675 31.0509C40.7552 31.0603 40.7387 31.0735 40.7226 31.0877C40.6973 31.1099 40.6739 31.133 40.6515 31.1579M40.7675 31.0509C40.7762 31.0442 40.7828 31.0393 40.7856 31.0372C40.7862 31.0368 40.7867 31.0364 40.7869 31.0363L40.7869 31.0363C40.7721 31.0474 40.7603 31.0578 40.7518 31.0656L40.7429 31.0741M40.7675 31.0509C40.7644 31.0536 40.7615 31.0562 40.7589 31.0587C40.7536 31.0636 40.7493 31.0678 40.7463 31.0707L40.7429 31.0741M40.6515 31.1579C40.6483 31.1614 40.6452 31.165 40.6421 31.1686L41.0191 31.4969M40.6515 31.1579C40.6558 31.1533 40.6602 31.1488 40.6647 31.1442L41.0191 31.4969M41.0191 31.4969C41.0298 31.4847 41.0405 31.4739 41.0527 31.4632C41.0629 31.4543 41.0719 31.4475 41.0817 31.4401C41.0837 31.4386 41.0858 31.4371 41.0878 31.4356M41.0191 31.4969C41.0084 31.5077 40.9993 31.5199 40.9916 31.5322L41.0878 31.4356M41.0878 31.4356C41.0909 31.4333 41.0932 31.431 41.0955 31.4287C41.0978 31.4264 41.1 31.4241 41.1031 31.4218L41.0878 31.4356ZM41.1626 31.3987C41.1779 31.3926 41.1932 31.3895 41.21 31.3865C41.2253 31.3834 41.239 31.3819 41.2543 31.3803L41.1626 31.3987ZM40.7429 31.0741C40.7413 31.0757 40.7401 31.0769 40.741 31.0761L40.7429 31.0741Z" stroke="#753EEB"/>
<path d="M31.2004 12.5H36.9624L39.8462 17.5188H34.0842L31.2004 12.5Z" stroke="#753EEB"/>
<path d="M45.1507 32.5601H45.1522H45.1537H48.4892L51.3716 37.5774H45.611L42.7274 32.5601H45.1507Z" stroke="#753EEB"/>
<path d="M31.2012 24.2206L34.0857 19.2017H39.8478L38.9045 20.8437H35.5111C35.4683 20.8437 35.4317 20.849 35.4034 20.8549C35.3868 20.8571 35.3677 20.86 35.3469 20.8642C35.3074 20.8722 35.2716 20.883 35.258 20.8872C35.257 20.8875 35.2561 20.8878 35.2553 20.888L31.2012 24.2206ZM31.2012 24.2206H33.0825L34.7798 21.2664L34.8126 21.2094L34.8407 21.1811C34.8564 21.1607 34.8696 21.1456 34.8758 21.1385C34.8764 21.1378 34.877 21.1371 34.8775 21.1365L34.8775 21.1365C34.9027 21.1076 34.9291 21.0811 34.958 21.0556C34.9586 21.0551 34.9592 21.0546 34.9599 21.0539C34.9678 21.047 34.9851 21.0317 35.0088 21.0137C35.0173 21.0064 35.0269 20.9985 35.0376 20.9904L35.0737 20.9632L35.1141 20.9429C35.1335 20.9332 35.1513 20.9257 35.1666 20.9201C35.1726 20.9178 35.1784 20.9158 35.1838 20.914C35.2012 20.9066 35.2256 20.8969 35.2553 20.888L31.2012 24.2206Z" stroke="#753EEB"/>
<mask id="path-28-inside-1_4785_5839" fill="white">
<path d="M43.612 41.7353L45.1313 44.3772L46.7421 41.5757C46.7421 41.5757 46.7513 41.5665 46.7559 41.5604C46.7635 41.5481 46.7727 41.5374 46.7833 41.5251C46.794 41.5128 46.8047 41.5021 46.8169 41.4913C46.8292 41.4806 46.8398 41.4714 46.8521 41.4637C46.8582 41.4606 46.8612 41.4545 46.8673 41.4499C46.8734 41.4468 46.8811 41.4468 46.8872 41.4438C46.9009 41.4376 46.9147 41.4315 46.9284 41.4269C46.9437 41.4223 46.9589 41.4177 46.9742 41.4146C46.9895 41.4115 47.0032 41.41 47.0185 41.4085C47.0246 41.4085 47.0307 41.4039 47.0383 41.4039H50.7212L52.2389 38.7619H45.3236L43.6151 41.7337L43.612 41.7353Z"/>
</mask>
<path d="M43.612 41.7353L43.1628 40.8418L42.2179 41.3169L42.7451 42.2338L43.612 41.7353ZM45.1313 44.3772L44.2644 44.8757L45.1313 46.3833L45.9982 44.8757L45.1313 44.3772ZM46.7421 41.5757L46.0334 40.8702L45.9407 40.9633L45.8752 41.0772L46.7421 41.5757ZM46.7559 41.5604L47.5572 42.1585L47.5826 42.1245L47.605 42.0885L46.7559 41.5604ZM46.8521 41.4637L46.4031 40.5701L46.3606 40.5915L46.3202 40.6169L46.8521 41.4637ZM46.8673 41.4499L46.4184 40.5563L46.3376 40.5969L46.2655 40.6513L46.8673 41.4499ZM46.8872 41.4438L46.4794 40.5307L46.4586 40.54L46.4382 40.5502L46.8872 41.4438ZM46.9284 41.4269L46.6398 40.4694L46.6252 40.4738L46.6108 40.4787L46.9284 41.4269ZM47.0185 41.4085V40.4085H46.9684L46.9185 40.4135L47.0185 41.4085ZM50.7212 41.4039V42.4039H51.3L51.5883 41.902L50.7212 41.4039ZM52.2389 38.7619L53.106 39.26L53.9667 37.7619H52.2389V38.7619ZM45.3236 38.7619V37.7619H44.7451L44.4567 38.2635L45.3236 38.7619ZM43.6151 41.7337L44.0643 42.6272L44.3324 42.4923L44.482 42.2322L43.6151 41.7337ZM42.7451 42.2338L44.2644 44.8757L45.9981 43.8787L44.4789 41.2368L42.7451 42.2338ZM45.9982 44.8757L47.609 42.0742L45.8752 41.0772L44.2643 43.8788L45.9982 44.8757ZM46.7421 41.5757C47.4508 42.2812 47.4508 42.2812 47.4509 42.2812C47.4509 42.2812 47.4509 42.2811 47.4509 42.2811C47.451 42.2811 47.451 42.281 47.451 42.281C47.4511 42.2809 47.4512 42.2808 47.4513 42.2808C47.4514 42.2806 47.4516 42.2804 47.4518 42.2803C47.4521 42.2799 47.4525 42.2796 47.4528 42.2792C47.4536 42.2784 47.4544 42.2776 47.4552 42.2768C47.4569 42.275 47.459 42.273 47.4612 42.2707C47.4655 42.2662 47.4715 42.26 47.4784 42.2526C47.484 42.2466 47.5198 42.2087 47.5572 42.1585L45.9545 40.9622C45.9745 40.9354 45.9911 40.9161 45.9977 40.9086C46.0059 40.8992 46.0125 40.892 46.0162 40.888C46.0202 40.8837 46.0236 40.8802 46.0261 40.8777C46.0274 40.8763 46.0286 40.875 46.0298 40.8738C46.0304 40.8732 46.031 40.8726 46.0316 40.872C46.0319 40.8717 46.0322 40.8714 46.0325 40.8711C46.0327 40.8709 46.0328 40.8708 46.033 40.8706C46.0331 40.8706 46.0331 40.8705 46.0332 40.8704C46.0332 40.8704 46.0333 40.8703 46.0333 40.8703C46.0333 40.8703 46.0334 40.8702 46.0334 40.8702C46.0334 40.8702 46.0334 40.8702 46.7421 41.5757ZM47.605 42.0885C47.583 42.1239 47.5629 42.1503 47.5507 42.1657C47.5402 42.1789 47.5321 42.188 47.5375 42.1818L46.0292 40.8684C46.0222 40.8764 45.9623 40.9429 45.9067 41.0322L47.605 42.0885ZM47.5375 42.1818C47.5192 42.2028 47.4985 42.2236 47.4772 42.2423L46.1566 40.7403C46.1109 40.7805 46.0689 40.8228 46.0292 40.8684L47.5375 42.1818ZM47.4772 42.2423C47.4833 42.237 47.4743 42.2451 47.461 42.2558C47.4457 42.2681 47.4193 42.2883 47.3839 42.3106L46.3202 40.6169C46.231 40.6729 46.1647 40.7332 46.1566 40.7403L47.4772 42.2423ZM47.301 42.3573C47.3938 42.3107 47.4639 42.2576 47.5125 42.2154C47.5576 42.1761 47.5895 42.1411 47.5963 42.1337C47.5985 42.1313 47.6004 42.1292 47.6006 42.129C47.6014 42.1282 47.6003 42.1294 47.5991 42.1307C47.5965 42.1334 47.589 42.1417 47.5789 42.152C47.5581 42.1733 47.5209 42.2095 47.4692 42.2485L46.2655 40.6513C46.2107 40.6926 46.1708 40.7313 46.1476 40.7551C46.1362 40.7667 46.1275 40.7762 46.1238 40.7803C46.1228 40.7814 46.1219 40.7823 46.1214 40.7829C46.1211 40.7832 46.1209 40.7834 46.1208 40.7836C46.1207 40.7837 46.1206 40.7838 46.1206 40.7838C46.1205 40.7839 46.1205 40.7839 46.1205 40.7839C46.1201 40.7843 46.1214 40.7829 46.1231 40.7811C46.1276 40.7761 46.1572 40.7435 46.1998 40.7064C46.2459 40.6663 46.3134 40.6152 46.4031 40.5701L47.301 42.3573ZM47.3163 42.3435C47.2798 42.3618 47.2465 42.3757 47.2184 42.3861C47.1904 42.3965 47.1662 42.404 47.1479 42.4093C47.1298 42.4145 47.1152 42.4181 47.1068 42.4201C47.1025 42.4211 47.0991 42.4219 47.0973 42.4223C47.0956 42.4227 47.0942 42.423 47.0949 42.4228C47.0951 42.4228 47.0973 42.4223 47.0998 42.4217C47.1026 42.4211 47.1068 42.4201 47.112 42.4189C47.122 42.4165 47.1383 42.4125 47.1581 42.4068C47.1781 42.4011 47.2039 42.393 47.2335 42.382C47.2632 42.371 47.2981 42.3564 47.3361 42.3373L46.4382 40.5502C46.4747 40.5319 46.508 40.518 46.5361 40.5075C46.5641 40.4971 46.5883 40.4896 46.6066 40.4844C46.6247 40.4791 46.6393 40.4755 46.6477 40.4736C46.652 40.4725 46.6554 40.4718 46.6572 40.4713C46.6589 40.4709 46.6603 40.4706 46.6596 40.4708C46.6594 40.4708 46.6572 40.4713 46.6547 40.4719C46.6519 40.4725 46.6477 40.4735 46.6425 40.4747C46.6325 40.4771 46.6162 40.4812 46.5964 40.4868C46.5764 40.4926 46.5506 40.5006 46.521 40.5116C46.4913 40.5227 46.4564 40.5372 46.4184 40.5563L47.3163 42.3435ZM47.2949 42.3568C47.3036 42.353 47.2997 42.3548 47.2939 42.3572C47.2871 42.36 47.2699 42.3671 47.246 42.3751L46.6108 40.4787C46.5431 40.5013 46.4846 40.5283 46.4794 40.5307L47.2949 42.3568ZM47.217 42.3843C47.2213 42.383 47.2224 42.3827 47.223 42.3825C47.2233 42.3824 47.2212 42.3831 47.2177 42.384C47.2112 42.3858 47.1944 42.3904 47.1712 42.395L46.7772 40.4342C46.7075 40.4482 46.6465 40.4674 46.6398 40.4694L47.217 42.3843ZM47.1712 42.395C47.1353 42.4022 47.1077 42.4045 47.1185 42.4035L46.9185 40.4135C46.8988 40.4155 46.8437 40.4208 46.7772 40.4342L47.1712 42.395ZM47.0185 42.4085C47.0821 42.4085 47.1377 42.4025 47.183 42.395C47.2278 42.3877 47.2649 42.3785 47.2914 42.3711C47.3049 42.3673 47.3165 42.3638 47.3259 42.3608C47.3353 42.3579 47.3431 42.3552 47.3487 42.3533C47.3542 42.3515 47.3586 42.3499 47.3606 42.3492C47.3616 42.3488 47.3625 42.3485 47.3627 42.3484C47.3631 42.3483 47.3628 42.3484 47.3624 42.3486C47.3615 42.3489 47.3584 42.3499 47.3544 42.3513C47.3502 42.3528 47.3442 42.3548 47.3369 42.3572C47.3225 42.3618 47.3006 42.3685 47.2736 42.3752C47.2189 42.3887 47.1377 42.4039 47.0383 42.4039V40.4039C46.9351 40.4039 46.8503 40.4196 46.7922 40.434C46.7634 40.4411 46.7398 40.4483 46.7237 40.4535C46.7156 40.4561 46.7087 40.4584 46.7037 40.4601C46.6989 40.4618 46.695 40.4632 46.6933 40.4638C46.6929 40.4639 46.6925 40.4641 46.6922 40.4642C46.692 40.4642 46.6918 40.4643 46.6918 40.4643C46.6916 40.4644 46.692 40.4642 46.6927 40.464C46.6939 40.4636 46.6975 40.4623 46.7022 40.4607C46.707 40.4591 46.714 40.4567 46.7226 40.454C46.7312 40.4513 46.7421 40.448 46.7548 40.4444C46.7797 40.4375 46.8153 40.4286 46.8586 40.4215C46.9023 40.4143 46.9564 40.4085 47.0185 40.4085V42.4085ZM47.0383 42.4039H50.7212V40.4039H47.0383V42.4039ZM51.5883 41.902L53.106 39.26L51.3718 38.2638L49.8541 40.9057L51.5883 41.902ZM52.2389 37.7619H45.3236V39.7619H52.2389V37.7619ZM44.4567 38.2635L42.7481 41.2353L44.482 42.2322L46.1906 39.2603L44.4567 38.2635ZM43.1658 40.8403L43.1628 40.8418L44.0612 42.6287L44.0643 42.6272L43.1658 40.8403Z" fill="#753EEB" mask="url(#path-28-inside-1_4785_5839)"/>
<path d="M44.4665 45.5911L45.6254 47.6071H39.8635L36.9799 42.5898H42.7417L44.3382 45.3694C44.3731 45.4605 44.4211 45.534 44.4665 45.5911Z" stroke="#753EEB"/>
<path d="M50.9137 42.5898H50.9152H50.9167H54.2522L57.1359 47.6071H51.374L48.4904 42.5898H50.9137Z" stroke="#753EEB"/>
</svg>
