<svg width="70" height="71" viewBox="0 0 70 71" fill="none" xmlns="http://www.w3.org/2000/svg">
<rect x="5.40448" y="5.90442" width="63.6497" height="64.0956" fill="#00B7C2"/>
<rect x="5.40448" y="5.90442" width="63.6497" height="64.0956" stroke="#2B2B2B"/>
<rect x="3.17554" y="3.67529" width="63.6497" height="64.0956" fill="#00B7C2"/>
<rect x="3.17554" y="3.67529" width="63.6497" height="64.0956" stroke="#2B2B2B"/>
<rect x="0.945862" y="1" width="63.6497" height="64.0956" fill="#00B7C2"/>
<path d="M8.5791 29.6562C8.55393 29.6813 8.53595 29.7101 8.52157 29.7425C8.50719 29.7748 8.5 29.8108 8.5 29.8467V36.1533C8.5 36.1892 8.50719 36.2216 8.52157 36.2575C8.53595 36.2899 8.55393 36.3187 8.5791 36.3438L29.1562 56.9209C29.1814 56.9461 29.2101 56.964 29.2425 56.9784C29.2748 56.9928 29.3108 57 29.3467 57H35.6533C35.6892 57 35.7252 56.9928 35.7575 56.9784C35.7899 56.964 35.8186 56.9461 35.8438 56.9209L56.4209 36.3438C56.4461 36.3187 56.4641 36.2899 56.4784 36.2575C56.4928 36.2252 56.5 36.1892 56.5 36.1533V29.8467C56.5 29.8108 56.4928 29.7784 56.4784 29.7425C56.4641 29.7101 56.4461 29.6813 56.4209 29.6562L35.8438 9.0791C35.8186 9.05393 35.7899 9.03596 35.7575 9.02157C35.7252 9.00719 35.6892 9 35.6533 9H29.3467C29.3108 9 29.2784 9.00719 29.2425 9.02157C29.2101 9.03596 29.1814 9.05393 29.1562 9.0791L8.5791 29.6562ZM35.0025 9.53933L14.8856 29.6562C14.7814 29.7605 14.7814 29.933 14.8856 30.0373L18.0353 33.187V33.1942L32.1189 47.2706L29.3467 50.0427L9.15079 29.8467L29.4582 9.53933H35.0025ZM35.5418 56.4607H29.9975L50.1144 36.3438C50.2187 36.2395 50.2187 36.067 50.1144 35.9627L32.8811 18.7294L35.6533 15.9573L55.8492 36.1533L35.5418 56.4607ZM9.03933 30.4975L29.1562 50.6144C29.2101 50.6683 29.2784 50.6935 29.3467 50.6935C29.4151 50.6935 29.4834 50.6683 29.5373 50.6144L32.687 47.4647V47.4575L46.767 33.3811L49.5391 36.1533L29.3431 56.3492L9.03573 36.0418V30.4975H9.03933ZM32.5 19.107L46.3894 33L32.4964 46.8894L18.607 33L32.5 19.107ZM55.9607 35.4989L35.8438 15.382C35.7395 15.2778 35.567 15.2778 35.4627 15.382L18.2294 32.6153L15.4573 29.8431L35.6533 9.65079L55.9607 29.9582V35.5025V35.4989Z" fill="#67FFDB"/>
<rect x="0.945862" y="1" width="63.6497" height="64.0956" stroke="#2B2B2B"/>
</svg>
