<svg width="70" height="71" viewBox="0 0 70 71" fill="none" xmlns="http://www.w3.org/2000/svg">
<rect x="5.40446" y="5.90442" width="63.6497" height="64.0956" fill="#75EB3E"/>
<rect x="5.40446" y="5.90442" width="63.6497" height="64.0956" stroke="#2B2B2B"/>
<rect x="3.17552" y="3.67529" width="63.6497" height="64.0956" fill="#75EB3E"/>
<rect x="3.17552" y="3.67529" width="63.6497" height="64.0956" stroke="#2B2B2B"/>
<rect x="0.945862" y="1" width="63.6497" height="64.0956" fill="#75EB3E"/>
<rect x="0.945862" y="1" width="63.6497" height="64.0956" stroke="#2B2B2B"/>
<path d="M29.0627 56.7488C29.7674 56.8601 30.4829 56.9282 31.2056 56.9641C31.2632 56.9641 31.3207 56.9677 31.3818 56.9713C31.5112 56.9749 31.6371 56.9856 31.7665 56.9892H31.7701C31.7701 56.9892 31.7881 56.9856 31.7989 56.9821C32.0326 56.9892 32.2627 57 32.5 57C45.7351 57 56.5 46.2353 56.5 33.0054C56.5 19.7755 45.7315 9.00718 32.5 9.00718C32.4604 9.00718 32.4245 9.00718 32.3849 9.00718C32.3023 9.00718 32.2196 9 32.1333 9C31.0438 9 29.9472 9.09688 28.8685 9.2763C28.8398 9.27988 28.8146 9.28706 28.7858 9.29065C28.678 9.30859 28.5665 9.32294 28.4587 9.34447C28.4515 9.34447 28.4443 9.35165 28.4407 9.35165C17.1328 11.2857 8.5 21.1498 8.5 32.9946C8.5 44.8394 17.4528 55.0659 29.0627 56.7381V56.7488ZM55.9607 33.0054C55.9607 45.9374 45.4366 56.4618 32.5 56.4618C32.1404 56.4618 31.7845 56.451 31.4285 56.4331C31.3566 56.4331 31.2847 56.4259 31.2128 56.4223C30.8425 56.4008 30.4757 56.3756 30.109 56.3398H30.0982C29.8753 56.3146 29.656 56.2824 29.433 56.2536C20.171 54.9224 12.98 46.874 12.98 37.3005C12.98 29.1301 18.1288 22.1402 25.3485 19.3952C20.4587 21.9715 17.1184 27.1027 17.1184 33.0018C17.1184 41.4808 24.0182 48.3774 32.5 48.3774H32.5108C33.3809 48.3774 34.233 48.2985 35.0636 48.1586C39.2775 47.5342 43.1607 45.5678 46.1917 42.4819C49.8268 38.7789 51.8294 33.8809 51.8294 28.6923C51.8294 21.1103 47.5184 14.5223 41.2227 11.2319C49.8519 14.7017 55.9607 23.1485 55.9607 32.9982V33.0054ZM33.8411 18.229C33.8735 18.229 33.9058 18.2326 33.9382 18.2362C34.0676 18.2469 34.1971 18.2684 34.3265 18.2828C41.6506 19.187 47.3387 25.4414 47.3387 33.0054C47.3387 40.5694 42.0569 46.3644 35.1175 47.606C34.2582 47.7423 33.3845 47.8248 32.4928 47.8428C24.3094 47.8428 17.6542 41.1866 17.6542 33.0054C17.6542 24.8242 24.313 18.168 32.4964 18.168C32.7265 18.168 32.9566 18.1752 33.1867 18.1859C33.4061 18.1967 33.6218 18.211 33.8411 18.2326V18.229ZM28.8865 9.82889C28.9081 9.82889 28.9261 9.82171 28.9476 9.81812C30.0694 9.64588 31.22 9.55618 32.3849 9.55259C42.8299 9.68894 51.2901 18.2218 51.2901 28.6959C51.2901 35.5746 47.576 41.6638 42.0497 45.044C45.5984 42.2236 47.8816 37.8782 47.8816 33.0018C47.8816 25.6997 42.7652 19.5746 35.9265 18.0137C35.8942 17.985 35.8546 17.9634 35.8079 17.9563C35.3405 17.8666 34.8694 17.802 34.3948 17.7481C34.2618 17.7302 34.1252 17.7123 33.9921 17.7015C33.9526 17.6979 33.9166 17.6979 33.8771 17.6943C33.6578 17.6764 33.4348 17.6584 33.2119 17.6477C32.8524 17.6261 32.4928 17.6154 32.1333 17.6154C21.2748 17.6154 12.4407 26.4461 12.4407 37.3041C12.4407 42.4927 14.4434 47.3907 18.0784 51.0937C18.7508 51.7791 19.4627 52.407 20.2142 52.9776C13.5157 48.8439 9.03933 41.4378 9.03933 33.0054C9.03933 21.3005 17.6614 11.5728 28.8865 9.82889Z" fill="#2B2B2B"/>
</svg>
