<svg width="45" height="54" viewBox="0 0 45 54" fill="none" xmlns="http://www.w3.org/2000/svg">
<circle cx="22.383" cy="13.0697" r="12.0697" stroke="#75EB3E" stroke-width="2"/>
<mask id="path-2-inside-1_4091_59801" fill="white">
<path fill-rule="evenodd" clip-rule="evenodd" d="M44.7801 53.4259C44.7801 53.4259 44.7801 53.4259 44.7801 53.4259C44.7801 41.0602 34.7558 31.0358 22.3901 31.0358C10.0244 31.0358 8.71044e-06 41.0602 7.6294e-06 53.4259C7.6294e-06 53.4259 7.6294e-06 53.4259 7.62939e-06 53.4259L44.7801 53.4259Z"/>
</mask>
<path d="M44.7801 53.4259L44.7801 55.4259L46.7801 55.4259L46.7801 53.4259L44.7801 53.4259ZM7.62939e-06 53.4259L-1.99999 53.4259L-1.99999 55.4259L7.45455e-06 55.4259L7.62939e-06 53.4259ZM42.7801 53.4259C42.7801 53.4259 42.7801 53.4259 42.7801 53.4259C42.7801 53.4259 42.7801 53.4259 42.7801 53.4259L46.7801 53.4259C46.7801 53.4259 46.7801 53.4259 46.7801 53.4259C46.7801 53.4259 46.7801 53.4259 46.7801 53.4259L42.7801 53.4259ZM22.3901 33.0358C33.6512 33.0358 42.7801 42.1647 42.7801 53.4259L46.7801 53.4259C46.7801 39.9556 35.8603 29.0358 22.3901 29.0358L22.3901 33.0358ZM2.00001 53.4259C2.00001 42.1647 11.1289 33.0358 22.3901 33.0358L22.3901 29.0358C8.91981 29.0358 -1.99999 39.9556 -1.99999 53.4259L2.00001 53.4259ZM2.00001 53.4259C2.00001 53.4259 2.00001 53.4259 2.00001 53.4259C2.00001 53.4259 2.00001 53.4259 2.00001 53.4259C2.00001 53.4259 2.00001 53.4259 2.00001 53.4259C2.00001 53.4259 2.00001 53.4259 2.00001 53.4259C2.00001 53.4259 2.00001 53.4259 2.00001 53.4259C2.00001 53.4259 2.00001 53.4259 2.00001 53.4259C2.00001 53.4259 2.00001 53.4259 2.00001 53.4259C2.00001 53.4259 2.00001 53.4259 2.00001 53.4259C2.00001 53.4259 2.00001 53.4259 2.00001 53.4259C2.00001 53.4259 2.00001 53.4259 2.00001 53.4259C2.00001 53.4259 2.00001 53.4259 2.00001 53.4259C2.00001 53.4259 2.00001 53.4259 2.00001 53.4259C2.00001 53.4259 2.00001 53.4259 2.00001 53.4259C2.00001 53.4259 2.00001 53.4259 2.00001 53.4259C2.00001 53.4259 2.00001 53.4259 2.00001 53.4259C2.00001 53.4259 2.00001 53.4259 2.00001 53.4259C2.00001 53.4259 2.00001 53.4259 2.00001 53.4259C2.00001 53.4259 2.00001 53.4259 2.00001 53.4259C2.00001 53.4259 2.00001 53.4259 2.00001 53.4259C2.00001 53.4259 2.00001 53.4259 2.00001 53.4259C2.00001 53.4259 2.00001 53.4259 2.00001 53.4259C2.00001 53.4259 2.00001 53.4259 2.00001 53.4259C2.00001 53.4259 2.00001 53.4259 2.00001 53.4259C2.00001 53.4259 2.00001 53.4259 2.00001 53.4259C2.00001 53.4259 2.00001 53.4259 2.00001 53.4259C2.00001 53.4259 2.00001 53.4259 2.00001 53.4259C2.00001 53.4259 2.00001 53.4259 2.00001 53.4259C2.00001 53.4259 2.00001 53.4259 2.00001 53.4259C2.00001 53.4259 2.00001 53.4259 2.00001 53.4259C2.00001 53.4259 2.00001 53.4259 2.00001 53.4259C2.00001 53.4259 2.00001 53.4259 2.00001 53.4259C2.00001 53.4259 2.00001 53.4259 2.00001 53.4259C2.00001 53.4259 2.00001 53.4259 2.00001 53.4259C2.00001 53.4259 2.00001 53.4259 2.00001 53.4259C2.00001 53.4259 2.00001 53.4259 2.00001 53.4259C2.00001 53.4259 2.00001 53.4259 2.00001 53.4259L-1.99999 53.4259C-1.99999 53.4259 -1.99999 53.4259 -1.99999 53.4259C-1.99999 53.4259 -1.99999 53.4259 -1.99999 53.4259C-1.99999 53.4259 -1.99999 53.4259 -1.99999 53.4259C-1.99999 53.4259 -1.99999 53.4259 -1.99999 53.4259C-1.99999 53.4259 -1.99999 53.4259 -1.99999 53.4259C-1.99999 53.4259 -1.99999 53.4259 -1.99999 53.4259C-1.99999 53.4259 -1.99999 53.4259 -1.99999 53.4259C-1.99999 53.4259 -1.99999 53.4259 -1.99999 53.4259C-1.99999 53.4259 -1.99999 53.4259 -1.99999 53.4259C-1.99999 53.4259 -1.99999 53.4259 -1.99999 53.4259C-1.99999 53.4259 -1.99999 53.4259 -1.99999 53.4259C-1.99999 53.4259 -1.99999 53.4259 -1.99999 53.4259C-1.99999 53.4259 -1.99999 53.4259 -1.99999 53.4259C-1.99999 53.4259 -1.99999 53.4259 -1.99999 53.4259C-1.99999 53.4259 -1.99999 53.4259 -1.99999 53.4259C-1.99999 53.4259 -1.99999 53.4259 -1.99999 53.4259C-1.99999 53.4259 -1.99999 53.4259 -1.99999 53.4259C-1.99999 53.4259 -1.99999 53.4259 -1.99999 53.4259C-1.99999 53.4259 -1.99999 53.4259 -1.99999 53.4259C-1.99999 53.4259 -1.99999 53.4259 -1.99999 53.4259C-1.99999 53.4259 -1.99999 53.4259 -1.99999 53.4259C-1.99999 53.4259 -1.99999 53.4259 -1.99999 53.4259C-1.99999 53.4259 -1.99999 53.4259 -1.99999 53.4259C-1.99999 53.4259 -1.99999 53.4259 -1.99999 53.4259C-1.99999 53.4259 -1.99999 53.4259 -1.99999 53.4259C-1.99999 53.4259 -1.99999 53.4259 -1.99999 53.4259C-1.99999 53.4259 -1.99999 53.4259 -1.99999 53.4259C-1.99999 53.4259 -1.99999 53.4259 -1.99999 53.4259C-1.99999 53.4259 -1.99999 53.4259 -1.99999 53.4259C-1.99999 53.4259 -1.99999 53.4259 -1.99999 53.4259C-1.99999 53.4259 -1.99999 53.4259 -1.99999 53.4259C-1.99999 53.4259 -1.99999 53.4259 -1.99999 53.4259C-1.99999 53.4259 -1.99999 53.4259 -1.99999 53.4259C-1.99999 53.4259 -1.99999 53.4259 -1.99999 53.4259C-1.99999 53.4259 -1.99999 53.4259 -1.99999 53.4259C-1.99999 53.4259 -1.99999 53.4259 -1.99999 53.4259C-1.99999 53.4259 -1.99999 53.4259 -1.99999 53.4259C-1.99999 53.4259 -1.99999 53.4259 -1.99999 53.4259L2.00001 53.4259ZM7.45455e-06 55.4259L44.7801 55.4259L44.7801 51.4259L7.80424e-06 51.4259L7.45455e-06 55.4259Z" fill="#75EB3E" mask="url(#path-2-inside-1_4091_59801)"/>
</svg>
