<svg width="518" height="189" viewBox="0 0 518 189" fill="none" xmlns="http://www.w3.org/2000/svg">
<g clip-path="url(#clip0_229_27875)">
<rect x="0.738972" y="0.286912" width="141.476" height="84.8482" transform="matrix(0.701778 -0.712397 0.0371948 0.999308 52.6726 70.0152)" stroke="#75EB3E" stroke-width="2"/>
<rect x="0.738972" y="0.286912" width="141.476" height="84.8482" transform="matrix(0.701778 -0.712397 0.0371948 0.999308 82.5466 70.0152)" stroke="#75EB3E" stroke-width="2"/>
<rect x="0.738972" y="0.286912" width="141.476" height="84.8482" transform="matrix(0.701778 -0.712397 0.0371948 0.999308 112.421 70.0152)" stroke="#75EB3E" stroke-width="2"/>
<rect x="0.738972" y="0.286912" width="141.476" height="84.8482" transform="matrix(0.701778 -0.712397 0.0371948 0.999308 142.296 70.0152)" stroke="#75EB3E" stroke-width="2"/>
<rect x="0.738972" y="0.286912" width="141.476" height="84.8482" transform="matrix(0.701778 -0.712397 0.0371948 0.999308 172.171 70.0152)" stroke="#75EB3E" stroke-width="2"/>
<rect x="0.738972" y="0.286912" width="141.476" height="84.8482" transform="matrix(0.701778 -0.712397 0.0371948 0.999308 202.045 70.0152)" stroke="#75EB3E" stroke-width="2"/>
<rect x="0.738972" y="0.286912" width="141.476" height="84.8482" transform="matrix(0.701778 -0.712397 0.0371948 0.999308 231.919 70.0152)" stroke="#75EB3E" stroke-width="2"/>
<rect x="0.738972" y="0.286912" width="141.476" height="84.8482" transform="matrix(0.701778 -0.712397 0.0371948 0.999308 261.793 70.0152)" stroke="#75EB3E" stroke-width="2"/>
<rect x="0.738972" y="0.286912" width="141.476" height="84.8482" transform="matrix(0.701778 -0.712397 0.0371948 0.999308 291.669 70.0152)" stroke="#75EB3E" stroke-width="2"/>
<rect x="0.738972" y="0.286912" width="141.476" height="84.8482" transform="matrix(0.701778 -0.712397 0.0371948 0.999308 321.543 70.0149)" stroke="#75EB3E" stroke-width="2"/>
<rect x="0.738972" y="0.286912" width="141.476" height="84.8482" transform="matrix(0.701778 -0.712397 0.0371948 0.999308 351.417 70.0149)" stroke="#75EB3E" stroke-width="2"/>
<rect x="0.738972" y="0.286912" width="141.476" height="84.8482" transform="matrix(0.701778 -0.712397 0.0371948 0.999308 381.291 70.0149)" stroke="#75EB3E" stroke-width="2"/>
</g>
<defs>
<clipPath id="clip0_229_27875">
<rect width="518" height="189" fill="white"/>
</clipPath>
</defs>
</svg>
