<svg width="212" height="128" viewBox="0 0 212 128" fill="none" xmlns="http://www.w3.org/2000/svg">
<rect x="3.30375" y="50.6487" width="194.406" height="70.4057" transform="rotate(-12.5353 3.30375 50.6487)" fill="#FFF044" stroke="#2B2B2B" stroke-width="0.594256"/>
<rect x="8.83574" y="52.4919" width="184.406" height="64.4057" transform="rotate(-12.5353 8.83574 52.4919)" fill="#FFF044" stroke="#2B2B2B" stroke-width="0.594256"/>
<rect x="15.3438" y="54.1181" width="172.406" height="58.4057" transform="rotate(-12.5353 15.3438 54.1181)" fill="#FFF044" stroke="#2B2B2B" stroke-width="0.594256"/>
<path d="M51.431 54.5191L56.6587 53.4429L64.919 76.7439L61.7869 52.3873L67.0644 51.3008L71.1654 89.0481L65.1411 90.2882L57.6616 69.3681L60.4112 91.2619L54.1877 92.5431L40.7266 56.7227L46.4024 55.5543L54.6508 78.8059L51.431 54.5191ZM68.2718 51.0523L81.0673 48.4182L82.3492 53.7563L75.1797 55.2322L77.4942 64.8704L83.1203 63.7123L84.4615 69.2975L78.8355 70.4557L81.3874 81.0824L88.8556 79.545L90.1969 85.1302L77.1026 87.8258L68.2718 51.0523ZM83.0039 48.0195L88.63 46.8614L96.0959 77.9508L102.967 76.5364L104.332 82.2205L91.8348 84.7931L83.0039 48.0195ZM113.402 72.5208L111.349 63.97L116.875 62.8323L118.917 71.3337C120.191 76.6389 118.587 79.7527 114.106 80.6751L112.862 80.9313C108.248 81.8811 105.32 79.7693 104.077 74.596L98.6888 52.1562C98.1823 50.0473 98.294 48.1916 99.0238 46.589C99.7457 44.9535 101.285 43.8931 103.642 43.408L104.936 43.1415C106.397 42.8408 107.659 42.8056 108.725 43.0358C109.824 43.2592 110.688 43.7384 111.317 44.4733C111.946 45.2083 112.422 45.9575 112.745 46.721C113.093 47.4447 113.393 48.3338 113.647 49.3882L115.225 55.962L109.699 57.0997L108.144 50.6248C107.756 49.0102 106.932 48.3327 105.67 48.5923C105.006 48.729 104.589 49.0224 104.419 49.4724C104.273 49.8827 104.304 50.5162 104.509 51.373L109.756 73.2196C110.159 74.9001 110.958 75.6174 112.153 75.3714C113.381 75.1186 113.798 74.1684 113.402 72.5208ZM131.048 46.584L135.974 67.0961C137.359 72.8626 135.661 76.2378 130.882 77.2217L129.936 77.4165C125.09 78.4141 121.974 76.0296 120.589 70.2632L115.676 49.8005C114.322 44.1658 116.052 40.8531 120.865 39.8623L121.811 39.6676C124.4 39.1346 126.416 39.4803 127.86 40.7047C129.337 41.9222 130.399 43.882 131.048 46.584ZM130.343 68.6702L125.263 47.5155C124.812 45.6373 123.939 44.8315 122.645 45.0979C121.317 45.3713 120.879 46.447 121.33 48.3252L126.41 69.4799C126.861 71.3581 127.767 72.1572 129.128 71.877C130.389 71.6174 130.794 70.5484 130.343 68.6702ZM140.067 74.864L131.236 38.0905L138.455 36.6043L145.809 55.4756L143.882 35.4872L150.604 34.1035L159.434 70.877L154.157 71.9635L148.448 48.1892L150.771 72.6604L148.531 73.1216L139.386 50.0545L145.095 73.8288L140.067 74.864ZM152.872 33.6364L165.668 31.0023L166.95 36.3404L159.78 37.8163L162.095 47.4546L167.721 46.2964L169.062 51.8816L163.436 53.0398L165.988 63.6666L173.456 62.1292L174.797 67.7144L161.703 70.41L152.872 33.6364Z" fill="#2B2B2B"/>
</svg>
