<svg width="70" height="70" viewBox="0 0 70 70" fill="none" xmlns="http://www.w3.org/2000/svg">
<g opacity="0.7">
<path d="M4 4H70V70H4V4Z" fill="#59AFFF"/>
<path fill-rule="evenodd" clip-rule="evenodd" d="M69 5H5V69H69V5ZM4 4V70H70V4H4Z" fill="#2B2B2B"/>
<path d="M2 2H68V68H2V2Z" fill="#59AFFF"/>
<path fill-rule="evenodd" clip-rule="evenodd" d="M67 3H3V67H67V3ZM2 2V68H68V2H2Z" fill="#2B2B2B"/>
<path d="M0 0H66V66H0V0Z" fill="#59AFFF"/>
<path fill-rule="evenodd" clip-rule="evenodd" d="M65 1H1V65H65V1ZM0 0V66H66V0H0Z" fill="#2B2B2B"/>
<path fill-rule="evenodd" clip-rule="evenodd" d="M13.4321 26.2511C13.6493 26.2233 13.8603 26.3395 13.9625 26.543L28.8446 56.1849C28.9486 56.392 28.918 56.6454 28.7681 56.8185C28.6182 56.9916 28.3813 57.0472 28.1758 56.9575L8.32576 48.2975C8.08439 48.1922 7.95256 47.9169 8.01573 47.6501L12.9836 26.6682C13.0365 26.4448 13.2149 26.2789 13.4321 26.2511ZM13.6741 28.3468L9.15 47.4545L27.2269 55.341L13.6741 28.3468Z" fill="#67FFDB"/>
<path fill-rule="evenodd" clip-rule="evenodd" d="M30.1698 19.777C30.2991 19.8414 30.398 19.9582 30.444 20.1008L34.332 32.1675C34.3943 32.3607 34.3508 32.5744 34.2188 32.7239C34.0868 32.8734 33.8875 32.9347 33.6997 32.8835L13.3633 27.3398C13.1406 27.2791 12.9809 27.0736 12.9686 26.8318C12.9563 26.59 13.0943 26.3677 13.3096 26.2824L29.7579 19.7594C29.8918 19.7063 30.0404 19.7127 30.1698 19.777ZM15.2402 26.7039L33.0184 31.5502L29.6195 21.0015L15.2402 26.7039Z" fill="#67FFDB"/>
<path fill-rule="evenodd" clip-rule="evenodd" d="M13.0818 26.458C13.2115 26.2854 13.4257 26.2096 13.6281 26.2648L33.9645 31.8085C34.2428 31.8844 34.4122 32.1806 34.3456 32.4749L28.8914 56.5731C28.8405 56.7981 28.6624 56.9664 28.4443 56.9954C28.2263 57.0245 28.0139 56.9084 27.9112 56.7039L13.0291 27.062C12.9314 26.8674 12.9521 26.6306 13.0818 26.458ZM14.5212 27.6558L28.1894 54.8799L33.1988 32.7473L14.5212 27.6558Z" fill="#67FFDB"/>
<path fill-rule="evenodd" clip-rule="evenodd" d="M33.6651 31.8186C33.8383 31.7579 34.029 31.7957 34.1694 31.9185L57.8096 52.6037C57.9723 52.7461 58.0385 52.977 57.9777 53.1903C57.9169 53.4037 57.7409 53.5582 57.5306 53.5828L28.4362 56.9958C28.2654 57.0159 28.0961 56.9472 27.9823 56.8117C27.8685 56.6763 27.8244 56.491 27.8642 56.3151L33.3185 32.2169C33.3608 32.03 33.4919 31.8794 33.6651 31.8186ZM34.1484 33.3449L29.0651 55.8043L56.1809 52.6234L34.1484 33.3449Z" fill="#67FFDB"/>
<path fill-rule="evenodd" clip-rule="evenodd" d="M33.404 32.0209C33.5665 31.7842 33.8755 31.7202 34.1111 31.8747L46.497 39.9957C46.5356 40.021 46.5709 40.0514 46.602 40.0861L57.8562 52.6504C58.0476 52.8641 58.0478 53.1977 57.8567 53.4117C57.6656 53.6257 57.3492 53.6462 57.1346 53.4584L33.4944 32.7732C33.281 32.5865 33.2415 32.2577 33.404 32.0209ZM40.1089 37.1161L51.1251 46.7553L45.8807 40.9005L40.1089 37.1161Z" fill="#67FFDB"/>
<path fill-rule="evenodd" clip-rule="evenodd" d="M45.8759 40.0439C46.09 39.8522 46.4092 39.8709 46.602 40.0861L57.8562 52.6504C57.9934 52.8036 58.0366 53.025 57.9677 53.2227C57.8987 53.4203 57.7294 53.5595 57.5306 53.5828L28.4362 56.9958C28.2056 57.0229 27.9853 56.8887 27.8933 56.6646C27.8012 56.4405 27.859 56.1794 28.0357 56.0212L45.8759 40.0439ZM30.0331 55.6911L56.3628 52.6024L46.178 41.2321L30.0331 55.6911Z" fill="#67FFDB"/>
<path fill-rule="evenodd" clip-rule="evenodd" d="M33.7666 9.09958C33.9605 9.2416 34.0411 9.50188 33.9639 9.73684L30.443 20.4606C30.3917 20.6167 30.2771 20.7407 30.1302 20.799L13.6819 27.3219C13.4401 27.4178 13.1679 27.3154 13.0386 27.08C12.9094 26.8446 12.9611 26.5453 13.1608 26.3728L33.1301 9.1261C33.3127 8.96839 33.5727 8.95756 33.7666 9.09958ZM16.3049 25.0946L29.5261 19.8514L32.3562 11.2317L16.3049 25.0946Z" fill="#67FFDB"/>
<path fill-rule="evenodd" clip-rule="evenodd" d="M33.5481 9.00691C33.801 9.04928 33.9886 9.27658 33.9929 9.54604L34.36 32.3365C34.3644 32.6101 34.1788 32.8463 33.9225 32.8931C33.6663 32.94 33.4158 32.7834 33.3323 32.5242L29.4443 20.4576C29.4067 20.3409 29.4071 20.2143 29.4453 20.0978L32.9662 9.37407C33.0499 9.11935 33.2952 8.96455 33.5481 9.00691ZM30.5021 20.2809L33.2472 28.8004L32.988 12.7095L30.5021 20.2809Z" fill="#67FFDB"/>
<path fill-rule="evenodd" clip-rule="evenodd" d="M33.3532 9.01259C33.5994 8.9565 33.8489 9.09118 33.9491 9.33426L46.7022 40.2457C46.7942 40.4687 46.7377 40.7288 46.5627 40.8875C46.3878 41.0463 46.135 41.0669 45.9389 40.9383L33.5529 32.8173C33.4009 32.7177 33.3073 32.5437 33.3043 32.3553L32.9372 9.56487C32.9329 9.29991 33.1071 9.06868 33.3532 9.01259ZM34.0377 12.3385L34.355 32.0343L45.0591 39.0526L34.0377 12.3385Z" fill="#67FFDB"/>
<path fill-rule="evenodd" clip-rule="evenodd" d="M13.6013 26.2583C13.8783 26.3178 14.0616 26.5964 14.017 26.8902L11.2149 45.3394C11.1989 45.4451 11.1541 45.5437 11.0861 45.6233L8.92028 48.1559C8.75818 48.3455 8.49422 48.3945 8.28022 48.2749C8.06621 48.1552 7.95714 47.8975 8.01573 47.6501L12.9836 26.6682C13.0519 26.3795 13.3243 26.1988 13.6013 26.2583ZM9.55206 45.7564L10.1971 45.0021L11.0316 39.5077L9.55206 45.7564Z" fill="#67FFDB"/>
<path fill-rule="evenodd" clip-rule="evenodd" d="M33.8196 9.14429C34.0134 9.32953 34.0489 9.63628 33.903 9.86503L11.1316 45.561C10.9934 45.7776 10.7307 45.8638 10.5001 45.7683C10.2694 45.6728 10.133 45.4213 10.1721 45.1638L12.9742 26.7145C12.9945 26.5805 13.0611 26.4589 13.1608 26.3728L33.1301 9.1261C33.3325 8.95131 33.6258 8.95905 33.8196 9.14429ZM13.985 27.0979L11.5936 42.8436L31.0281 12.3784L13.985 27.0979Z" fill="#67FFDB"/>
<path fill-rule="evenodd" clip-rule="evenodd" d="M46.7006 40.2424C46.795 40.4672 46.7378 40.7306 46.5599 40.8899L28.7197 56.8671C28.547 57.0218 28.2998 57.0431 28.1055 56.9201L10.4213 45.7275C10.2287 45.6056 10.1306 45.3687 10.1768 45.1373C10.223 44.9058 10.4034 44.7306 10.6263 44.7005L46.1508 39.916C46.3825 39.8848 46.6061 40.0175 46.7006 40.2424ZM12.2673 45.5995L28.3244 55.7624L44.5233 41.2551L12.2673 45.5995Z" fill="#67FFDB"/>
<path fill-rule="evenodd" clip-rule="evenodd" d="M10.3013 44.88C10.4704 44.6823 10.7491 44.6385 10.9658 44.7756L28.65 55.9683C28.8868 56.1181 28.9736 56.4348 28.8492 56.6944C28.7247 56.9541 28.431 57.0689 28.1758 56.9575L8.32576 48.2975C8.16748 48.2284 8.0509 48.0826 8.01309 47.9068C7.97527 47.7309 8.02093 47.5467 8.13555 47.4127L10.3013 44.88ZM10.7948 45.9637L9.41955 47.5719L22.024 53.0709L10.7948 45.9637Z" fill="#67FFDB"/>
<path fill-rule="evenodd" clip-rule="evenodd" d="M33.603 9.01942C33.8215 9.08184 33.9778 9.28388 33.9916 9.52164L35.2182 30.6853C35.2304 30.8958 35.1283 31.0954 34.9547 31.2006L10.9566 45.7328C10.7439 45.8617 10.4749 45.8192 10.3074 45.6304C10.14 45.4416 10.1183 45.1563 10.2551 44.9418L33.0265 9.24587C33.1526 9.0481 33.3846 8.957 33.603 9.01942ZM12.3954 43.5799L34.1446 30.4094L33.0329 11.229L12.3954 43.5799Z" fill="#67FFDB"/>
<path fill-rule="evenodd" clip-rule="evenodd" d="M33.3419 9.01531C33.5911 8.95247 33.8471 9.08696 33.9491 9.33426L46.7022 40.2457C46.7989 40.48 46.7312 40.7535 46.5382 40.9085C46.3452 41.0634 46.0766 41.0599 45.8874 40.8998L34.361 31.1521C34.2451 31.0541 34.1738 30.9091 34.1648 30.7529L32.9381 9.58927C32.9225 9.32017 33.0928 9.07815 33.3419 9.01531ZM34.1743 12.6695L35.2043 30.4401L44.8827 38.625L34.1743 12.6695Z" fill="#67FFDB"/>
<path fill-rule="evenodd" clip-rule="evenodd" d="M34.4282 30.238C34.6167 30.1238 34.8525 30.143 35.0221 30.2864L46.5485 40.0342C46.7135 40.1737 46.7833 40.4035 46.7259 40.6179C46.6684 40.8323 46.4948 40.9898 46.2849 41.0181L10.7604 45.8026C10.5109 45.8362 10.2734 45.6798 10.1932 45.4289C10.1129 45.178 10.2121 44.9023 10.4301 44.7702L34.4282 30.238ZM13.2436 44.3482L44.9198 40.082L34.642 31.3902L13.2436 44.3482Z" fill="#67FFDB"/>
</g>
</svg>
