<svg width="70" height="70" viewBox="0 0 70 70" fill="none" xmlns="http://www.w3.org/2000/svg">
<g opacity="0.7">
<path d="M4 4H70V70H4V4Z" fill="#67FFDB"/>
<path fill-rule="evenodd" clip-rule="evenodd" d="M69 5H5V69H69V5ZM4 4V70H70V4H4Z" fill="#2B2B2B"/>
<path d="M2 2H68V68H2V2Z" fill="#67FFDB"/>
<path fill-rule="evenodd" clip-rule="evenodd" d="M67 3H3V67H67V3ZM2 2V68H68V2H2Z" fill="#2B2B2B"/>
<path d="M0 0H66V66H0V0Z" fill="#67FFDB"/>
<path fill-rule="evenodd" clip-rule="evenodd" d="M65 1H1V65H65V1ZM0 0V66H66V0H0Z" fill="#2B2B2B"/>
<path fill-rule="evenodd" clip-rule="evenodd" d="M13.2 4.03252C13.3133 3.96821 13.4567 4.00199 13.5299 4.11022L28.2687 25.9074C28.2953 25.9468 28.3103 25.9929 28.3119 26.0404L28.7093 37.5304C28.7135 37.6504 28.6328 37.7567 28.5167 37.7844C28.4006 37.812 28.2812 37.7532 28.2316 37.644L13.0954 4.35681C13.0412 4.23776 13.0867 4.09682 13.2 4.03252ZM14.7851 6.86203L28.1654 36.2879L27.8141 26.1307L14.7851 6.86203Z" fill="#0057FF"/>
<path fill-rule="evenodd" clip-rule="evenodd" d="M28.3908 25.1924C28.5012 25.1608 28.6188 25.2089 28.6761 25.3091L36.7487 39.4309C36.7977 39.5166 36.7924 39.6231 36.7352 39.7034C36.678 39.7837 36.5794 39.8229 36.4831 39.8037L33.4513 39.1984C33.4381 39.1958 33.4251 39.1921 33.4125 39.1873L28.739 37.4309C28.6438 37.3951 28.5796 37.305 28.5764 37.2028L28.209 25.4426C28.2054 25.3271 28.2803 25.224 28.3908 25.1924ZM28.7408 26.4325L29.0714 37.018L33.5686 38.7082L36.0401 39.2016L28.7408 26.4325Z" fill="#0057FF"/>
<path fill-rule="evenodd" clip-rule="evenodd" d="M33.2984 38.3695C33.3579 38.3098 33.4432 38.2841 33.5255 38.3011L36.5821 38.9317C36.6821 38.9524 36.7596 39.0321 36.778 39.1331C36.7964 39.2342 36.7519 39.3364 36.6657 39.3914L26.5749 45.8217C26.4671 45.8904 26.3251 45.8664 26.2455 45.7661C26.1658 45.6657 26.1739 45.5211 26.2643 45.4304L33.2984 38.3695ZM33.5567 38.8219L28.2251 44.1737L35.8735 39.2999L33.5567 38.8219Z" fill="#0057FF"/>
<path fill-rule="evenodd" clip-rule="evenodd" d="M36.7004 39.3704C36.7819 39.4452 36.8052 39.5648 36.7577 39.665L35.6365 42.032C35.6179 42.0713 35.5894 42.1051 35.5539 42.1301L31.1359 45.2363C31.1026 45.2597 31.0642 45.2746 31.0239 45.2797L26.4724 45.8587C26.3548 45.8737 26.2429 45.8036 26.2043 45.6908C26.1658 45.578 26.2111 45.4534 26.3129 45.3924L36.4037 39.3402C36.4984 39.2833 36.6189 39.2956 36.7004 39.3704ZM27.5989 45.2076L30.8999 44.7877L35.2131 41.7551L35.9504 40.1985L27.5989 45.2076Z" fill="#0057FF"/>
<path fill-rule="evenodd" clip-rule="evenodd" d="M35.4064 34.29C35.5106 34.2349 35.6388 34.2604 35.7145 34.3511L50.8506 52.5078C50.9314 52.6047 50.9283 52.7469 50.8433 52.8401C50.7583 52.9333 50.6178 52.9486 50.515 52.8758L35.6506 42.3604C35.5494 42.2889 35.5153 42.1536 35.5704 42.0422L36.6985 39.7576L35.2814 34.58C35.2502 34.4658 35.3022 34.3451 35.4064 34.29ZM36.069 35.5602L37.2066 39.7166C37.2229 39.7764 37.2168 39.8401 37.1894 39.8957L36.1143 42.0726L49.2368 51.3558L36.069 35.5602Z" fill="#0057FF"/>
<path fill-rule="evenodd" clip-rule="evenodd" d="M49.2783 25.2294C49.3526 25.1762 49.4496 25.1679 49.5317 25.2077L59.8491 30.2023C59.9477 30.25 60.0041 30.3567 59.9883 30.4657C59.9725 30.5747 59.8882 30.6607 59.7802 30.6781L37.5016 34.2685L32.6404 37.7445C32.5366 37.8188 32.3939 37.8027 32.3089 37.7071C32.224 37.6115 32.2239 37.467 32.3088 37.3713L35.1246 34.1985C35.163 34.1554 35.2149 34.1268 35.2717 34.1176L37.307 33.7896L49.2783 25.2294ZM38.4228 33.6098L58.912 30.3078L49.4478 25.7262L38.4228 33.6098ZM36.3857 34.4484L35.4387 34.601L34.1646 36.0366L36.3857 34.4484Z" fill="#0057FF"/>
<path fill-rule="evenodd" clip-rule="evenodd" d="M28.3552 25.2056C28.4727 25.1516 28.6117 25.1964 28.6761 25.3091L34.2124 34.9941L34.9651 34.0347C35.024 33.9595 35.1202 33.9245 35.2133 33.9443C35.3064 33.9641 35.3803 34.0353 35.4039 34.1281L36.7742 39.4939C36.8054 39.6159 36.7422 39.7424 36.6262 39.7899C36.5103 39.8374 36.3773 39.7914 36.3148 39.6822L34.1472 35.8903L32.8061 37.5998C32.7495 37.672 32.6582 37.7074 32.5681 37.6921C32.478 37.6768 32.4033 37.6133 32.3733 37.5265L28.2228 25.5175C28.1803 25.3947 28.2377 25.2596 28.3552 25.2056ZM33.8784 35.42L29.571 27.8848L32.6961 36.927L33.8784 35.42ZM34.4813 35.4644L35.8315 37.8264L35.0449 34.746L34.4813 35.4644Z" fill="#0057FF"/>
<path fill-rule="evenodd" clip-rule="evenodd" d="M13.1727 4.05051C13.2798 3.96958 13.4312 3.98782 13.5163 4.0919L30.0401 24.3048C30.066 24.3366 30.0839 24.3743 30.0921 24.4146L32.7407 37.4888C32.7667 37.6171 32.6907 37.7441 32.5659 37.7809C32.441 37.8178 32.309 37.7522 32.262 37.6301L27.7962 26.0093L13.1163 4.39414C13.0408 4.28287 13.0656 4.13144 13.1727 4.05051ZM16.7058 8.78654L28.2258 25.749C28.2367 25.765 28.2456 25.7822 28.2526 25.8003L31.656 34.6565L29.614 24.5766L16.7058 8.78654Z" fill="#0057FF"/>
<path fill-rule="evenodd" clip-rule="evenodd" d="M49.8619 25.3009C49.9327 25.4146 49.9026 25.564 49.7935 25.641L32.6392 37.7455C32.538 37.8169 32.4001 37.8032 32.3146 37.7134C32.2292 37.6235 32.2217 37.4842 32.297 37.3856L35.6169 33.0393C35.6377 33.0121 35.6637 32.9895 35.6935 32.9728L49.528 25.2147C49.6444 25.1494 49.7912 25.1873 49.8619 25.3009ZM35.9823 33.3876L33.6901 36.3886L45.5344 28.031L35.9823 33.3876Z" fill="#0057FF"/>
<path fill-rule="evenodd" clip-rule="evenodd" d="M59.9854 30.4258C60.0132 30.5574 59.9335 30.6877 59.8043 30.7219L37.6885 36.5796L51.4393 52.5045C51.5286 52.6079 51.5194 52.7642 51.4186 52.8563C51.3178 52.9484 51.1623 52.9425 51.0687 52.843L36.047 36.879C35.9862 36.8144 35.9638 36.7223 35.988 36.6367C36.0122 36.5511 36.0795 36.4848 36.165 36.4621L36.7825 36.2986L35.3338 34.6208C35.2743 34.5518 35.2565 34.4558 35.2873 34.3699C35.3182 34.284 35.3928 34.2216 35.4824 34.2069L59.7003 30.2296C59.8322 30.208 59.9577 30.2943 59.9854 30.4258ZM37.3223 36.1556L54.6157 31.5752L36.0062 34.6314L37.3223 36.1556ZM37.1487 36.7226L36.7009 36.8412L43.382 43.9414L37.1487 36.7226Z" fill="#0057FF"/>
<path fill-rule="evenodd" clip-rule="evenodd" d="M49.3221 25.2651C49.3976 25.1817 49.5189 25.159 49.6191 25.2094L59.6097 30.2381C59.7027 30.2849 59.7572 30.3847 59.7468 30.4888C59.7363 30.5929 59.6631 30.6796 59.5627 30.7068L53.9977 32.2107L60.9621 43.4581C61.0168 43.5465 61.0119 43.6597 60.9497 43.7429C60.8875 43.8261 60.7808 43.8622 60.6813 43.8337L36.4634 36.9124C36.3551 36.8815 36.2807 36.7816 36.2815 36.6683C36.2823 36.5549 36.3582 36.4561 36.4669 36.4267L53.2157 31.9003L49.2948 25.568C49.2355 25.4723 49.2466 25.3485 49.3221 25.2651ZM53.721 31.7638L58.7965 30.3921L50.189 26.0596L53.721 31.7638ZM53.4925 32.3473L37.4719 36.6768L60.1943 43.1708L53.4925 32.3473Z" fill="#0057FF"/>
<path fill-rule="evenodd" clip-rule="evenodd" d="M13.2049 4.02983C13.3227 3.96641 13.4692 4.00725 13.5378 4.12261L30.3069 32.3289C30.3269 32.3624 30.3388 32.4001 30.3417 32.4391L30.7269 37.52C30.7334 37.6065 30.6953 37.6903 30.626 37.7419C30.5566 37.7934 30.4658 37.8054 30.3856 37.7736L28.5942 37.0634C28.5351 37.04 28.4871 36.9948 28.4598 36.9371L13.0969 4.36C13.0396 4.23855 13.0871 4.09324 13.2049 4.02983ZM15.7819 8.87852L28.8697 36.6311L30.1974 37.1574L29.8471 32.5366L15.7819 8.87852Z" fill="#0057FF"/>
<path fill-rule="evenodd" clip-rule="evenodd" d="M13.3056 4.04384C13.4133 3.9699 13.5593 3.99155 13.6413 4.09361L29.6629 24.0462C29.7257 24.1244 29.7363 24.2326 29.6899 24.3216C29.6435 24.4106 29.549 24.4633 29.4495 24.4558L24.9689 24.1164L29.6373 32.371C29.6909 32.4657 29.6779 32.5843 29.6051 32.665C29.5324 32.7456 29.4164 32.7701 29.3176 32.7256L7.1663 22.7529C7.05526 22.7029 6.99601 22.5798 7.02585 22.4611C7.05569 22.3424 7.16599 22.2625 7.28728 22.2717L24.0686 23.5429L13.2291 4.3766C13.1646 4.26256 13.1979 4.11779 13.3056 4.04384ZM24.6704 23.5885L28.9096 23.9096L15.1872 6.82039L24.6704 23.5885ZM24.3671 24.0708L8.6802 22.8825L28.824 31.9514L24.3671 24.0708Z" fill="#0057FF"/>
<path fill-rule="evenodd" clip-rule="evenodd" d="M30.6145 44.3501C30.7502 44.3329 30.8745 44.4286 30.8936 44.5649L32.7433 57.7592C32.7593 57.873 32.6967 57.9832 32.5913 58.0272L25.5277 60.9721C25.4487 61.0051 25.3584 60.9951 25.2883 60.9457C25.2182 60.8963 25.1781 60.8142 25.1819 60.7282L25.866 45.1628C25.8714 45.0402 25.9638 44.9393 26.0848 44.924L30.6145 44.3501ZM26.3567 45.3973L25.6993 60.3552L32.2205 57.6364L30.4323 44.881L26.3567 45.3973Z" fill="#0057FF"/>
<path fill-rule="evenodd" clip-rule="evenodd" d="M26.5832 44.3928C26.6899 44.4669 26.7227 44.6109 26.6587 44.7244L26.0272 45.8446L25.2979 61.4904C25.2917 61.6227 25.1847 61.7277 25.0531 61.7304L12.3192 61.9999C12.2212 62.002 12.1311 61.9464 12.0885 61.8576C12.0459 61.7688 12.0587 61.6631 12.1212 61.5872L26.2483 44.4393C26.3311 44.3388 26.4765 44.3186 26.5832 44.3928ZM25.5131 46.121L12.8561 61.4846L24.8088 61.2316L25.5131 46.121Z" fill="#0057FF"/>
<path fill-rule="evenodd" clip-rule="evenodd" d="M49.827 25.2567C49.9075 25.3379 49.9234 25.4636 49.8656 25.5625L45.3762 33.2424C45.3357 33.3116 45.265 33.3572 45.1857 33.3653L31.5117 34.7637C31.3805 34.7771 31.2615 34.6858 31.2396 34.5549C31.2177 34.4241 31.3004 34.2985 31.4287 34.2679L36.0549 33.1646L49.5232 25.2174C49.6216 25.1594 49.7464 25.1755 49.827 25.2567ZM48.9459 26.1421L36.2757 33.6184C36.2543 33.631 36.2311 33.6404 36.2069 33.6462L35.2459 33.8754L45.009 32.8769L48.9459 26.1421Z" fill="#0057FF"/>
<path fill-rule="evenodd" clip-rule="evenodd" d="M29.4262 24.1777C29.5587 24.1549 29.6855 24.2417 29.7132 24.3742L31.6865 33.8149L35.4678 32.9585C35.5706 32.9352 35.677 32.9792 35.7337 33.0687C35.7904 33.1581 35.7854 33.2738 35.7211 33.3579L32.4076 37.6928C32.348 37.7707 32.2488 37.8067 32.1535 37.7848C32.0583 37.7629 31.9844 37.6873 31.9643 37.591L31.3012 34.4186L30.8087 34.5302C30.7401 34.5457 30.6681 34.5315 30.6105 34.4909C30.5528 34.4504 30.5147 34.3873 30.5056 34.3172L29.2201 24.4588C29.2026 24.3246 29.2936 24.2004 29.4262 24.1777ZM31.1981 33.9255L30.5636 30.8899L30.9663 33.978L31.1981 33.9255ZM31.7896 34.308L32.3422 36.952L34.9021 33.603L31.7896 34.308Z" fill="#0057FF"/>
<path fill-rule="evenodd" clip-rule="evenodd" d="M35.1163 41.3659C35.2031 41.3063 35.3176 41.3076 35.403 41.3691L50.8046 52.4649C50.9067 52.5384 50.9389 52.6768 50.8797 52.7884C50.8205 52.8999 50.6884 52.95 50.5708 52.9055L41.2638 49.3828L30.386 45.0915C30.2996 45.0574 30.239 44.978 30.2286 44.8852C30.2182 44.7924 30.2596 44.7014 30.3362 44.6488L35.1163 41.3659ZM31.0096 44.7963L41.4465 48.9136L48.9656 51.7596L35.2539 41.8813L31.0096 44.7963Z" fill="#0057FF"/>
<path fill-rule="evenodd" clip-rule="evenodd" d="M30.3177 44.4061C30.3857 44.3493 30.4785 44.3329 30.5617 44.3629L41.6615 48.3621C41.7884 48.4078 41.8565 48.5464 41.8157 48.6756C41.7749 48.8048 41.6398 48.8784 41.51 48.842L34.2887 46.8174L32.7772 57.748C32.7601 57.8716 32.6556 57.964 32.5315 57.9651C32.4075 57.9663 32.3014 57.8758 32.2821 57.7524L30.2301 44.6393C30.2163 44.5514 30.2496 44.4628 30.3177 44.4061ZM30.7902 44.9804L32.514 55.9963L33.8324 46.4627C33.8423 46.3908 33.8826 46.3267 33.943 46.2868C34.0034 46.247 34.0779 46.2353 34.1474 46.2548L34.9581 46.4821L30.7902 44.9804Z" fill="#0057FF"/>
<path fill-rule="evenodd" clip-rule="evenodd" d="M36.3986 36.3172C36.5026 36.2514 36.6385 36.2712 36.7196 36.3639L50.8467 52.5032C50.9229 52.5902 50.9302 52.7183 50.8644 52.8135C50.7987 52.9087 50.6769 52.9465 50.5693 52.905L41.7948 49.5203C41.7312 49.4957 41.6803 49.4462 41.6538 49.383L36.3012 36.6285C36.2535 36.5147 36.2947 36.3829 36.3986 36.3172ZM37.361 37.8588L42.0735 49.0882L49.7987 52.0681L37.361 37.8588Z" fill="#0057FF"/>
<path fill-rule="evenodd" clip-rule="evenodd" d="M36.3407 36.3677C36.4036 36.2929 36.5039 36.2616 36.5978 36.2875L60.8157 42.9505C60.929 42.9817 61.0056 43.0881 60.9997 43.2062C60.9938 43.3243 60.907 43.4224 60.7911 43.442L43.3043 46.396L42.3217 48.7331C42.2831 48.8249 42.1943 48.8852 42.0952 48.8868C41.9962 48.8884 41.9055 48.8311 41.864 48.7406L36.3046 36.6362C36.2637 36.5472 36.2778 36.4425 36.3407 36.3677ZM36.9847 36.9163L42.0811 48.0125L42.8968 46.0723C42.9302 45.993 43.0015 45.9363 43.0859 45.922L59.5863 43.1346L36.9847 36.9163Z" fill="#0057FF"/>
<path fill-rule="evenodd" clip-rule="evenodd" d="M33.7354 38.4504C33.7748 38.545 33.7533 38.6543 33.6809 38.7266L26.6174 45.7875C26.5303 45.8746 26.3934 45.8853 26.294 45.8127C26.1947 45.7402 26.1622 45.6058 26.2174 45.4955L26.8241 44.2829L27.8162 38.5741C27.837 38.4547 27.9392 38.3672 28.0596 38.3656L33.5014 38.296C33.6033 38.2947 33.6959 38.3557 33.7354 38.4504ZM28.2736 38.8668L27.3155 44.3796L32.8894 38.8077L28.2736 38.8668Z" fill="#0057FF"/>
<path fill-rule="evenodd" clip-rule="evenodd" d="M27.9951 37.4892C28.0222 37.3546 28.1514 37.2666 28.2856 37.2914L33.5497 38.2621C33.6767 38.2856 33.7652 38.4025 33.7539 38.532C33.7426 38.6615 33.6352 38.7611 33.5061 38.7619L27.4516 38.7988C27.3238 38.7996 27.216 38.7034 27.2014 38.5756C27.1869 38.4478 27.2703 38.3295 27.395 38.3011L28.9325 37.9518L28.1862 37.7851C28.053 37.7554 27.9681 37.6238 27.9951 37.4892ZM30.2166 38.1597C30.1919 38.1762 30.1639 38.1885 30.1335 38.1954L29.7573 38.2809L30.8378 38.2743L30.2166 38.1597Z" fill="#0057FF"/>
<path fill-rule="evenodd" clip-rule="evenodd" d="M49.2467 25.1828C49.3334 25.1817 49.4145 25.2257 49.4611 25.2993L60.9608 43.456C61.0164 43.5438 61.0126 43.657 60.9512 43.7408C60.8899 43.8246 60.7836 43.8618 60.6838 43.8344L39.4931 38.0144C39.4053 37.9902 39.3373 37.92 39.3158 37.8309C39.2943 37.7418 39.3226 37.6479 39.3896 37.5859L44.5576 32.8042L49.0355 25.305C49.0801 25.2302 49.16 25.184 49.2467 25.1828ZM49.2563 25.9133L44.9681 33.0948C44.9558 33.1155 44.9406 33.1342 44.923 33.1505L40.0619 37.6483L60.1901 43.1766L49.2563 25.9133Z" fill="#0057FF"/>
<path fill-rule="evenodd" clip-rule="evenodd" d="M26.6446 39.41C26.7041 39.4938 26.707 39.6057 26.6517 39.6925L24.6164 42.8898L26.5668 44.4241C26.62 44.466 26.6542 44.5278 26.6615 44.5955C26.6687 44.6632 26.6485 44.7309 26.6054 44.7833L12.5066 61.9088C12.4222 62.0113 12.2731 62.03 12.1662 61.9515C12.0594 61.8729 12.0318 61.7243 12.1031 61.6121L23.949 43.0042L21.3674 40.9734C21.2919 40.914 21.2567 40.8164 21.2768 40.7221C21.2969 40.6278 21.3687 40.5533 21.4617 40.5303L26.3812 39.3119C26.4806 39.2873 26.585 39.3262 26.6446 39.41ZM24.2202 42.5781L25.892 39.952L22.0815 40.8957L24.2202 42.5781ZM24.3451 43.3159L14.7336 58.414L26.0556 44.6614L24.3451 43.3159Z" fill="#0057FF"/>
<path fill-rule="evenodd" clip-rule="evenodd" d="M30.1648 32.2612C30.2541 32.2966 30.3155 32.3803 30.3228 32.4766L30.7269 37.8501C30.7351 37.9595 30.6721 38.0617 30.5711 38.1027L27.8831 39.1955C27.8723 39.1999 27.8612 39.2035 27.8499 39.2063L21.4561 40.8097C21.3452 40.8376 21.2297 40.7862 21.1754 40.685C21.1211 40.5837 21.1418 40.4583 21.2257 40.3802L29.9033 32.3106C29.9738 32.245 30.0754 32.2258 30.1648 32.2612ZM22.2829 40.0831L27.7119 38.7217L30.2139 37.7045L29.8627 33.0344L22.2829 40.0831Z" fill="#0057FF"/>
<path fill-rule="evenodd" clip-rule="evenodd" d="M7.0553 22.2766C7.12164 22.1681 7.25808 22.1265 7.37311 22.1798L29.5729 32.4602C29.6474 32.4948 29.7004 32.5639 29.7147 32.6453C29.729 32.7266 29.7027 32.8099 29.6444 32.868L25.6824 36.8208L25.9749 37.0549C26.0351 37.103 26.0699 37.1763 26.0694 37.2536C26.069 37.3309 26.0332 37.4038 25.9725 37.4512L21.7268 40.7644C21.6222 40.846 21.4726 40.8316 21.3853 40.7314C21.298 40.6313 21.3033 40.4801 21.3973 40.3864L24.9297 36.8622L7.11274 22.6058C7.01362 22.5265 6.98896 22.3852 7.0553 22.2766ZM25.2877 36.505L29.0356 32.766L9.04604 23.5091L25.2877 36.505ZM25.3243 37.178L24.6732 37.8276L25.4138 37.2496L25.3243 37.178Z" fill="#0057FF"/>
<path fill-rule="evenodd" clip-rule="evenodd" d="M27.6179 38.361C27.682 38.4192 27.7117 38.5067 27.6965 38.5922L26.6206 44.6445C26.6048 44.7335 26.5427 44.8072 26.4581 44.8375C26.3734 44.8678 26.2791 44.8501 26.211 44.7911L21.2323 40.4791C21.1626 40.4187 21.1314 40.3246 21.1511 40.2341C21.1709 40.1436 21.2384 40.0713 21.3269 40.0459L27.3814 38.3056C27.4644 38.2818 27.5538 38.3027 27.6179 38.361ZM21.9109 40.402L26.2051 44.1212L27.133 38.901L21.9109 40.402Z" fill="#0057FF"/>
<path fill-rule="evenodd" clip-rule="evenodd" d="M43.2741 11.0709C43.3895 11.1044 43.465 11.2158 43.4539 11.3362L41.7968 29.306L44.7973 32.9556C44.8561 33.0271 44.871 33.1254 44.8362 33.2113C44.8014 33.2973 44.7225 33.357 44.6308 33.3668L31.5127 34.7636C31.4215 34.7733 31.3323 34.732 31.2802 34.6559C31.2282 34.5799 31.2217 34.4812 31.2633 34.3989L42.9815 11.1987C43.0359 11.0909 43.1588 11.0373 43.2741 11.0709ZM31.9184 34.2137L44.1142 32.9151L41.3452 29.547C41.303 29.4956 41.2827 29.4295 41.2888 29.3631L42.8344 12.6018L31.9184 34.2137Z" fill="#0057FF"/>
<path fill-rule="evenodd" clip-rule="evenodd" d="M43.7503 11.115C43.8467 11.1916 43.8738 11.3272 43.8141 11.4353L31.0051 34.6354C30.9526 34.7305 30.8455 34.7809 30.7394 34.7605C30.6332 34.7401 30.5521 34.6536 30.5381 34.5457L29.2201 24.4075C29.2095 24.3262 29.2389 24.2448 29.2989 24.1893L43.426 11.1274C43.5165 11.0437 43.6538 11.0385 43.7503 11.115ZM29.7333 24.4719L30.936 33.7232L42.6246 12.5526L29.7333 24.4719Z" fill="#0057FF"/>
<path fill-rule="evenodd" clip-rule="evenodd" d="M43.7673 11.1298C43.8651 11.2228 43.8723 11.377 43.7837 11.4788L33.9629 22.7682C33.883 22.8601 33.7492 22.881 33.6453 22.818L32.8069 22.3093L30.479 24.6059C30.4247 24.6595 30.3492 24.6853 30.2737 24.6761C30.1983 24.667 30.131 24.6238 30.091 24.5587L26.2283 18.2856C26.1673 18.1867 26.1817 18.0587 26.2629 17.9759C26.3442 17.8931 26.4712 17.8771 26.5702 17.9371L32.7333 21.6764L43.4201 11.133C43.5162 11.0382 43.6695 11.0368 43.7673 11.1298ZM33.1761 21.945L33.7243 22.2776L39.0839 16.1166L33.1761 21.945ZM32.364 22.0406L27.2003 18.9077L30.3518 24.0258L32.364 22.0406Z" fill="#0057FF"/>
<path fill-rule="evenodd" clip-rule="evenodd" d="M33.8949 46.3819C33.9808 46.3491 34.0777 46.3664 34.1472 46.4269L36.6955 48.6446C36.7797 48.7179 36.8057 48.8382 36.7594 48.9401L32.7231 57.8181C32.6715 57.9316 32.545 57.9899 32.4259 57.9552C32.3068 57.9205 32.2308 57.8032 32.2474 57.6795L33.7354 46.5838C33.7477 46.4921 33.8089 46.4146 33.8949 46.3819ZM34.1696 47.1126L32.9689 56.0665L36.2261 48.9022L34.1696 47.1126Z" fill="#0057FF"/>
<path fill-rule="evenodd" clip-rule="evenodd" d="M26.4779 37.3106C26.5566 37.3474 26.6108 37.4226 26.6211 37.5093L26.8457 39.4021L26.9826 39.3724C27.054 39.3569 27.1285 39.3736 27.1867 39.4181C27.2449 39.4625 27.2808 39.5303 27.2852 39.6037L27.6999 46.6025C27.708 46.7385 27.6072 46.8563 27.4724 46.8684C27.3376 46.8806 27.2176 46.7826 27.2016 46.6474L26.4139 40.0113L21.4484 41.0893C21.3306 41.1149 21.2115 41.0524 21.1648 40.9406C21.1182 40.8289 21.1572 40.6995 21.2578 40.6327L26.2347 37.3289C26.3072 37.2808 26.3992 37.2739 26.4779 37.3106ZM26.3543 39.5088L26.1721 37.974L22.648 40.3134L26.3543 39.5088Z" fill="#0057FF"/>
<path fill-rule="evenodd" clip-rule="evenodd" d="M45.2759 35.3316C45.3448 35.3919 45.3757 35.4852 45.3563 35.5751L44.6744 38.7443L60.8164 43.2393C60.9293 43.2708 61.0055 43.3768 60.9997 43.4946C60.9939 43.6123 60.9078 43.7103 60.7923 43.7304L42.7669 46.8657C42.6849 46.88 42.6012 46.8523 42.5436 46.7918C42.486 46.7314 42.462 46.646 42.4796 46.5642L44.0851 39.1029L39.4923 37.824C39.3875 37.7948 39.3135 37.701 39.309 37.5917C39.3044 37.4824 39.3705 37.3826 39.4725 37.3448L45.0252 35.2854C45.1109 35.2536 45.207 35.2713 45.2759 35.3316ZM44.1912 38.6097L44.7706 35.9168L40.375 37.547L44.1912 38.6097ZM44.5683 39.2375L43.0475 46.3056L59.6068 43.4253L44.5683 39.2375Z" fill="#0057FF"/>
<path fill-rule="evenodd" clip-rule="evenodd" d="M36.6439 48.4097C36.7617 48.4691 36.8136 48.6102 36.7626 48.7325L32.8849 58.0216C32.8594 58.0826 32.8111 58.1311 32.7504 58.1565L30.7832 58.9817L29.0942 61.8757C29.0389 61.9704 28.9289 62.0182 28.8225 61.9936L25.376 61.1991C25.27 61.1746 25.1917 61.084 25.1825 60.9749C25.1733 60.8657 25.2352 60.7631 25.3356 60.721L30.4363 58.5814L36.316 48.5073C36.3827 48.3929 36.5261 48.3503 36.6439 48.4097ZM31.2051 58.2589L32.4631 57.7312L34.8493 52.0149L31.2051 58.2589ZM30.0144 59.3042L26.2494 60.8835L28.7554 61.4613L30.0144 59.3042Z" fill="#0057FF"/>
<path fill-rule="evenodd" clip-rule="evenodd" d="M26.3589 39.3118C26.4623 39.3372 26.5384 39.4255 26.5488 39.532L28.7083 61.7235C28.716 61.8034 28.6855 61.8823 28.626 61.9358C28.5666 61.9894 28.4853 62.0112 28.4072 61.9945L24.8715 61.2397L12.3191 61.5022C12.2264 61.5041 12.1403 61.4544 12.0952 61.3729C12.0501 61.2913 12.0535 61.1914 12.1039 61.1132L26.0897 39.4194C26.1476 39.3296 26.2556 39.2865 26.3589 39.3118ZM12.781 60.9886L24.8899 60.7354C24.9091 60.735 24.9283 60.7368 24.9471 60.7408L28.1767 61.4302L26.1203 40.2976L12.781 60.9886Z" fill="#0057FF"/>
<path fill-rule="evenodd" clip-rule="evenodd" d="M26.4234 39.3053C26.5593 39.2956 26.6778 39.3971 26.6903 39.5336L27.334 46.6121L28.5368 47.956C28.5778 48.0017 28.6007 48.061 28.6012 48.1226L28.7094 61.746C28.7105 61.8811 28.6056 61.993 28.4716 61.9997C28.3376 62.0064 28.2221 61.9055 28.2099 61.771L26.8507 46.8249L26.5898 46.5334C26.5512 46.4903 26.5286 46.4351 26.5257 46.3772L26.191 39.569C26.1843 39.4321 26.2875 39.3149 26.4234 39.3053ZM27.4102 47.45L28.1608 55.7037L28.1013 48.2222L27.4102 47.45Z" fill="#0057FF"/>
<path fill-rule="evenodd" clip-rule="evenodd" d="M10.5753 13.2407C10.6229 13.1148 10.7604 13.0489 10.8875 13.091L25.7946 18.0273C25.8509 18.0459 25.8988 18.0841 25.9297 18.1349L29.6816 24.2943C29.7308 24.3751 29.7308 24.4767 29.6817 24.5575C29.6326 24.6383 29.5427 24.6845 29.4489 24.6772L7.24915 22.9451C7.17049 22.939 7.09931 22.8959 7.05708 22.8288C7.01485 22.7617 7.00651 22.6785 7.03457 22.6043L10.5753 13.2407ZM10.9581 13.6448L7.62145 22.4688L28.9984 24.1367L25.551 18.4771L10.9581 13.6448Z" fill="#0057FF"/>
<path fill-rule="evenodd" clip-rule="evenodd" d="M10.9113 13.0796C11.0047 13.0703 11.0954 13.1144 11.1463 13.1938L26.6514 37.4027C26.7174 37.5057 26.7001 37.6415 26.6105 37.7245C26.5209 37.8075 26.385 37.8136 26.2884 37.7389L7.11592 22.8992C7.02747 22.8307 6.99472 22.7116 7.03562 22.6071L10.7031 13.2379C10.7375 13.15 10.8179 13.0889 10.9113 13.0796ZM10.9899 13.8796L7.57044 22.6154L25.4468 36.4518L10.9899 13.8796Z" fill="#0057FF"/>
<path fill-rule="evenodd" clip-rule="evenodd" d="M45.8037 35.358C45.8551 35.4185 45.8751 35.4998 45.8576 35.5774L44.4967 41.6296C44.4689 41.7533 44.3541 41.8369 44.2287 41.8248L37.7325 41.1978C37.6715 41.1919 37.6147 41.1636 37.573 41.1184L33.3211 36.5079C33.2554 36.4367 33.2363 36.3338 33.2719 36.2435C33.3075 36.1532 33.3916 36.0916 33.4879 36.0851L45.5968 35.2704C45.6757 35.2651 45.7524 35.2976 45.8037 35.358ZM34.0454 36.5526L37.8751 40.7054L44.0571 41.302L45.2953 35.7957L34.0454 36.5526Z" fill="#0057FF"/>
<path fill-rule="evenodd" clip-rule="evenodd" d="M45.0478 31.2368C45.1838 31.2206 45.3073 31.3174 45.3252 31.454L45.8617 35.5474C45.8775 35.6681 45.8053 35.783 45.6901 35.8202L39.6356 37.779C39.521 37.8161 39.3964 37.7658 39.339 37.6592C39.2816 37.5527 39.3077 37.4202 39.4011 37.3437L44.9601 32.7946L44.8281 31.5129C44.814 31.3759 44.9119 31.2529 45.0478 31.2368ZM45.0694 33.3546L40.75 36.8892L45.338 35.4049L45.0694 33.3546Z" fill="#0057FF"/>
<path fill-rule="evenodd" clip-rule="evenodd" d="M43.3996 11.0818C43.4992 11.1252 43.5595 11.2282 43.5492 11.3369L41.8724 28.9478L44.7615 31.2908C44.8673 31.3766 44.8858 31.5318 44.803 31.6404C44.7202 31.7489 44.5664 31.7711 44.4567 31.6903L41.4427 29.4721C41.3714 29.4196 41.3329 29.3332 41.3413 29.2447L41.3484 29.1699L33.3475 22.6812C33.2943 22.638 33.2609 22.5749 33.2552 22.5063C33.2494 22.4378 33.2717 22.3699 33.3169 22.3183L43.1124 11.1462C43.1841 11.0643 43.3001 11.0383 43.3996 11.0818ZM41.4056 28.5692L42.9773 12.0617L33.8654 22.4542L41.4056 28.5692Z" fill="#0057FF"/>
<path fill-rule="evenodd" clip-rule="evenodd" d="M41.3808 29.3134C41.4597 29.2128 41.601 29.1879 41.7091 29.2555L44.6098 31.0669C44.6756 31.108 44.7187 31.1773 44.7268 31.2547L44.8534 32.4694C44.8644 32.5753 44.808 32.6768 44.7125 32.7229C44.6171 32.7689 44.5032 32.7495 44.4281 32.6744L41.4008 29.6483C41.3105 29.558 41.3019 29.4139 41.3808 29.3134ZM43.314 30.8507L44.2822 31.8185L44.2417 31.43L43.314 30.8507Z" fill="#0057FF"/>
<path fill-rule="evenodd" clip-rule="evenodd" d="M25.3231 40.3384C25.4306 40.2862 25.5597 40.3176 25.6317 40.4135L31.6861 48.4831C31.7511 48.5696 31.7537 48.6883 31.6926 48.7777C31.6316 48.867 31.5205 48.907 31.417 48.877L28.5883 48.0554C28.5507 48.0445 28.5161 48.0248 28.4874 47.998L26.6891 46.3175C26.654 46.2847 26.629 46.2425 26.617 46.1958L25.1896 40.6282C25.1597 40.5119 25.2157 40.3906 25.3231 40.3384ZM25.9874 41.7237L27.0834 45.9985L28.7844 47.5879L30.8338 48.1832L25.9874 41.7237Z" fill="#0057FF"/>
<path fill-rule="evenodd" clip-rule="evenodd" d="M31.6537 39.3692C31.7083 39.4185 31.7386 39.4895 31.7366 39.5634L31.4921 48.6417C31.4892 48.7501 31.4177 48.8445 31.3146 48.876C31.2115 48.9075 31.0999 48.869 31.0377 48.7805L25.2277 40.5253C25.1771 40.4534 25.1675 40.3601 25.2024 40.2792C25.2373 40.1984 25.3116 40.1418 25.3984 40.13L31.4529 39.3069C31.5256 39.297 31.599 39.3198 31.6537 39.3692ZM25.8752 40.5736L31.0121 47.8725L31.2282 39.8459L25.8752 40.5736Z" fill="#0057FF"/>
<path fill-rule="evenodd" clip-rule="evenodd" d="M34.305 46.4783C34.373 46.3751 34.5054 46.3369 34.6173 46.3882L37.9743 47.9262L38.2531 47.6796C38.3286 47.6128 38.4364 47.5979 38.5269 47.6418L58.8401 57.4862C58.9637 57.5461 59.0164 57.695 58.9582 57.8201C58.9 57.9451 58.7527 57.9997 58.6278 57.9425L38.0616 48.5199L37.2784 49.213C37.1823 49.298 37.0379 49.2964 36.9437 49.2092L34.3442 46.8029C34.2537 46.7191 34.237 46.5815 34.305 46.4783ZM37.5621 48.291L35.8379 47.501L37.1169 48.685L37.5621 48.291Z" fill="#0057FF"/>
<path fill-rule="evenodd" clip-rule="evenodd" d="M42.8363 46.3759C42.9092 46.3542 42.9879 46.3671 43.0502 46.4108L58.8746 57.5065C58.9803 57.5806 59.0128 57.7233 58.9499 57.8363C58.887 57.9494 58.7491 57.996 58.6312 57.944L34.4133 47.2776C34.2923 47.2243 34.2333 47.0856 34.2784 46.9607C34.3236 46.8357 34.4574 46.7676 34.5842 46.8051L41.7046 48.9099L42.6755 46.5221C42.7043 46.4513 42.7634 46.3975 42.8363 46.3759ZM43.0205 47.004L42.0824 49.311C42.0338 49.4306 41.9033 49.4937 41.7802 49.4573L38.225 48.4064L56.4994 56.4551L43.0205 47.004Z" fill="#0057FF"/>
<path fill-rule="evenodd" clip-rule="evenodd" d="M45.0685 35.2758C45.2032 35.306 45.2882 35.4403 45.2586 35.5759L45.2583 35.577L43.9775 41.4337L58.9145 57.5413C59.0015 57.6352 59.0045 57.7799 58.9215 57.8773C58.8384 57.9747 58.6958 57.9937 58.5905 57.9213L42.4452 46.8311C42.3608 46.7732 42.3199 46.6693 42.3418 46.5689L43.44 41.5474C43.4303 41.5094 43.4295 41.4691 43.4383 41.4296L44.7697 35.4676L44.7699 35.4665C44.8002 35.331 44.9337 35.2457 45.0685 35.2758ZM43.8468 42.0313L42.8671 46.5109L57.0092 56.2252L43.8468 42.0313Z" fill="#0057FF"/>
<path fill-rule="evenodd" clip-rule="evenodd" d="M42.2772 28.2733C42.3792 28.1813 42.5356 28.1888 42.6284 28.2901L45.2863 31.1932C45.322 31.2323 45.3446 31.2817 45.3508 31.3344L45.8621 35.6891C45.8701 35.7576 45.8499 35.8265 45.806 35.8796C45.7622 35.9328 45.6986 35.9654 45.6301 35.97L33.5212 36.7818C33.4147 36.789 33.3154 36.7273 33.2739 36.6283C33.2324 36.5293 33.258 36.4147 33.3374 36.3429L42.2772 28.2733ZM34.2117 36.2306L45.334 35.4849L44.8632 31.4746L42.4276 28.8143L34.2117 36.2306Z" fill="#0057FF"/>
<path fill-rule="evenodd" clip-rule="evenodd" d="M5.00566 34.46C5.03331 34.3308 5.15542 34.2451 5.28541 34.2636L26.5116 37.287C26.6251 37.3031 26.7131 37.3947 26.7254 37.5094L27.6989 46.5905C27.7131 46.7228 27.6226 46.8434 27.4922 46.8658C27.3619 46.8882 27.2367 46.8047 27.2064 46.6751L25.8402 40.8226L5.18023 34.7549C5.0542 34.7179 4.978 34.5892 5.00566 34.46ZM8.66747 35.2542L26.1205 40.3801C26.2071 40.4055 26.2734 40.4759 26.2941 40.5643L26.7662 42.5868L26.2486 37.7584L8.66747 35.2542Z" fill="#0057FF"/>
<path fill-rule="evenodd" clip-rule="evenodd" d="M37.9114 40.3732C37.9633 40.3289 38.031 40.3077 38.0988 40.3146L44.2334 40.9435C44.2959 40.9499 44.3538 40.9798 44.3954 41.0272L58.919 57.5463C58.9957 57.6336 59.003 57.7624 58.9365 57.8579C58.87 57.9533 58.7471 57.9904 58.6395 57.9475L37.4488 49.5091C37.3481 49.469 37.2844 49.3682 37.291 49.2593L37.8236 40.5498C37.8278 40.4814 37.8595 40.4176 37.9114 40.3732ZM38.3072 40.8425L37.8019 49.1078L57.8507 57.0916L44.0854 41.4348L38.3072 40.8425Z" fill="#0057FF"/>
<path fill-rule="evenodd" clip-rule="evenodd" d="M28.3087 47.4248C28.3723 47.3768 28.4547 47.3619 28.5309 47.3848L31.4643 48.2677L37.5519 48.5391C37.6431 48.5431 37.7248 48.5967 37.7652 48.679C37.8057 48.7613 37.7984 48.8592 37.7464 48.9346L28.7942 61.8919C28.732 61.9819 28.619 62.0211 28.5149 61.9888C28.4108 61.9565 28.3394 61.86 28.3384 61.7504L28.2089 47.6285C28.2081 47.5485 28.2452 47.4729 28.3087 47.4248ZM28.7126 47.9654L28.8317 60.955L37.0761 49.0222L31.4112 48.7697C31.3907 48.7688 31.3703 48.7653 31.3506 48.7594L28.7126 47.9654Z" fill="#0057FF"/>
<path fill-rule="evenodd" clip-rule="evenodd" d="M38.7417 47.4642C38.8285 47.5684 38.8176 47.7232 38.7169 47.8139L37.4473 48.9581L28.6669 61.8886L28.6658 61.8902C28.588 62.0048 28.4328 62.0344 28.3187 61.9566C28.2046 61.8787 28.1745 61.7226 28.2514 61.6075L28.2525 61.6059L36.9459 48.5912C36.9605 48.5694 36.9783 48.55 36.9989 48.5338L38.3952 47.4282C38.5014 47.3441 38.6548 47.36 38.7417 47.4642Z" fill="#0057FF"/>
<path fill-rule="evenodd" clip-rule="evenodd" d="M33.4641 36.2886C33.557 36.2614 33.6572 36.2905 33.7213 36.3633L37.7281 40.9109C37.7723 40.961 37.7948 41.0268 37.7907 41.0937L37.2593 49.6593C37.2507 49.7969 37.1339 49.902 36.9971 49.8952L31.4741 49.6212C31.403 49.6177 31.3368 49.5838 31.292 49.5282C31.2471 49.4726 31.228 49.4004 31.2393 49.3296L33.2869 36.4905C33.3023 36.3944 33.3713 36.3158 33.4641 36.2886ZM33.6975 37.0956L31.7778 49.1318L36.7751 49.3797L37.2846 41.1668L33.6975 37.0956Z" fill="#0057FF"/>
<path fill-rule="evenodd" clip-rule="evenodd" d="M38.559 48.4511C38.6328 48.3815 38.7409 48.3634 38.8331 48.4052L58.8344 57.4836C58.9575 57.5394 59.0144 57.6834 58.963 57.8091C58.9116 57.9347 58.7705 57.9968 58.6441 57.9493L37.4534 49.9929C37.3722 49.9624 37.3125 49.8919 37.2955 49.8064C37.2784 49.7209 37.3065 49.6326 37.3697 49.573L38.559 48.4511ZM38.7795 48.9337L38.0066 49.6628L51.7784 54.8337L38.7795 48.9337Z" fill="#0057FF"/>
<path fill-rule="evenodd" clip-rule="evenodd" d="M10.4733 13.102C10.5858 13.0492 10.7198 13.0873 10.7881 13.1916L26.65 37.4005C26.7042 37.4832 26.7051 37.5902 26.6525 37.6739C26.5998 37.7577 26.5033 37.8025 26.4058 37.7886L5.21513 34.7584C5.12557 34.7456 5.04985 34.6851 5.01706 34.6003C4.98427 34.5154 4.99953 34.4193 5.05696 34.349L13.4919 24.0172L10.3394 13.4025C10.3038 13.2827 10.3608 13.1549 10.4733 13.102ZM11.3056 14.8966L14.0097 24.0014C14.0335 24.0817 14.0161 24.1687 13.9633 24.2335L5.72646 34.3226L25.9262 37.2111L11.3056 14.8966Z" fill="#0057FF"/>
<path fill-rule="evenodd" clip-rule="evenodd" d="M13.2963 24.2668C13.3666 24.1801 13.4853 24.1504 13.5878 24.194L30.5748 31.4261C30.641 31.4543 30.692 31.5098 30.7147 31.5784C30.7375 31.647 30.7298 31.7222 30.6937 31.7847L25.5504 40.6919C25.4925 40.7923 25.3738 40.8398 25.2632 40.8069L5.17947 34.8391C5.09911 34.8152 5.03596 34.7524 5.01121 34.6719C4.98646 34.5913 5.00341 34.5036 5.05635 34.4382L13.2963 24.2668ZM13.5656 24.7317L5.68215 34.4631L25.2164 40.2677L30.1182 31.7788L13.5656 24.7317Z" fill="#0057FF"/>
<path fill-rule="evenodd" clip-rule="evenodd" d="M10.1216 13.1493C10.188 13.0846 10.2846 13.0619 10.3726 13.0905L26.0773 18.1919C26.0953 18.1977 26.1126 18.2056 26.1288 18.2154L33.633 22.7301C33.7267 22.7865 33.7733 22.8975 33.7481 23.0045C33.7229 23.1114 33.6318 23.1896 33.5229 23.1976L13.4864 24.6773C13.3683 24.686 13.2602 24.6102 13.2275 24.4957L10.0552 13.4C10.0296 13.3105 10.0552 13.2141 10.1216 13.1493ZM10.6663 13.7154L13.6524 24.1598L32.6961 22.7534L25.8965 18.6626L10.6663 13.7154Z" fill="#0057FF"/>
<path fill-rule="evenodd" clip-rule="evenodd" d="M34.1974 15.1016C34.3027 15.0784 34.4109 15.1256 34.466 15.2189L42.2948 28.4642L44.7923 31.3205C44.8782 31.4188 44.8751 31.5669 44.7851 31.6613C44.6951 31.7558 44.5482 31.7652 44.4471 31.6829L33.3472 22.6504C33.2812 22.5966 33.2467 22.5129 33.2556 22.428L34.002 15.3212C34.0134 15.2133 34.0921 15.1248 34.1974 15.1016ZM34.4207 16.1277L33.7678 22.3447L42.4665 29.4233L41.9037 28.7796C41.8935 28.7679 41.8844 28.7553 41.8765 28.7419L34.4207 16.1277Z" fill="#0057FF"/>
<path fill-rule="evenodd" clip-rule="evenodd" d="M34.5533 15.099C34.685 15.1203 34.777 15.2418 34.7624 15.3752L33.9824 22.5197C33.9692 22.6407 33.8719 22.7348 33.7513 22.7435L33.2021 22.7826L31.3561 31.5392C31.3406 31.6127 31.2933 31.6754 31.2272 31.7102C31.161 31.745 31.0829 31.7483 31.0141 31.7191L13.2258 24.18C13.1191 24.1348 13.0571 24.0218 13.076 23.9067C13.0949 23.7917 13.1898 23.7048 13.3053 23.6966L32.7907 22.3068L34.2688 15.2954C34.2965 15.1641 34.4216 15.0777 34.5533 15.099ZM33.3102 22.2698L33.5076 22.2557L33.7165 20.3427L33.3102 22.2698ZM32.6826 22.8197L14.3851 24.1247L30.9293 31.1365L32.6826 22.8197Z" fill="#0057FF"/>
<path fill-rule="evenodd" clip-rule="evenodd" d="M34.5387 15.0994C34.6401 15.0819 34.7419 15.1286 34.7951 15.2172L42.8004 28.5266C42.8356 28.5852 42.8456 28.6557 42.8281 28.7219C42.8106 28.7881 42.7671 28.8443 42.7075 28.8775L28.5804 36.7509C28.4827 36.8053 28.361 36.788 28.2821 36.7085C28.2032 36.629 28.1861 36.5065 28.2403 36.4082L31.0197 31.3662L34.336 15.2965C34.3569 15.1951 34.4373 15.1169 34.5387 15.0994ZM34.6966 16.0263L31.5021 31.5062C31.4969 31.531 31.4881 31.555 31.4759 31.5772L29.1015 35.8845L42.2374 28.5635L34.6966 16.0263Z" fill="#0057FF"/>
<path fill-rule="evenodd" clip-rule="evenodd" d="M28.227 36.4363C28.266 36.3388 28.3612 36.2759 28.4656 36.2786L33.511 36.4099C33.5832 36.4117 33.6511 36.4449 33.6972 36.5009C33.7433 36.5569 33.7632 36.6302 33.7516 36.7019L31.8267 48.6751C31.8057 48.806 31.6876 48.898 31.5564 48.8857C31.4253 48.8735 31.3261 48.761 31.3294 48.6285L31.553 39.716L28.2904 36.7165C28.2132 36.6456 28.188 36.5339 28.227 36.4363ZM29.1232 36.7998L31.9749 39.4215C32.0285 39.4707 32.0582 39.5409 32.0563 39.6139L31.9232 44.9208L33.2117 36.9061L29.1232 36.7998Z" fill="#0057FF"/>
<path fill-rule="evenodd" clip-rule="evenodd" d="M30.769 31.268C30.8885 31.3366 30.9307 31.4894 30.8634 31.6102L28.1898 36.406L31.653 39.5146C31.7257 39.5798 31.7542 39.6817 31.726 39.7755C31.6978 39.8694 31.618 39.9383 31.5215 39.952L25.467 40.8147C25.3722 40.8282 25.278 40.7861 25.2245 40.7062C25.1709 40.6263 25.1673 40.5227 25.2152 40.4392L30.4284 31.3609C30.4973 31.241 30.6494 31.1995 30.769 31.268ZM27.881 36.8039L25.9059 40.2433L30.9172 39.5292L27.881 36.8039Z" fill="#0057FF"/>
<path fill-rule="evenodd" clip-rule="evenodd" d="M42.7887 28.3127C42.8632 28.4158 42.8494 28.5586 42.7566 28.6454L34.1272 36.715C34.0793 36.7599 34.0158 36.784 33.9504 36.7823L28.4527 36.6401C28.34 36.6372 28.2431 36.5588 28.2161 36.4485C28.1892 36.3383 28.2388 36.2235 28.3373 36.1683L42.4644 28.2408C42.575 28.1787 42.7142 28.2096 42.7887 28.3127ZM29.3798 36.1601L33.8613 36.276L40.8955 29.6981L29.3798 36.1601Z" fill="#0057FF"/>
</g>
</svg>
