<svg width="70" height="70" viewBox="0 0 70 70" fill="none" xmlns="http://www.w3.org/2000/svg">
<g opacity="0.7">
<path d="M4 4H70V70H4V4Z" fill="#563AFF"/>
<path fill-rule="evenodd" clip-rule="evenodd" d="M69 5H5V69H69V5ZM4 4V70H70V4H4Z" fill="#2B2B2B"/>
<path d="M2 2H68V68H2V2Z" fill="#563AFF"/>
<path fill-rule="evenodd" clip-rule="evenodd" d="M67 3H3V67H67V3ZM2 2V68H68V2H2Z" fill="#2B2B2B"/>
<path d="M0 0H66V66H0V0Z" fill="#563AFF"/>
<path fill-rule="evenodd" clip-rule="evenodd" d="M65 1H1V65H65V1ZM0 0V66H66V0H0Z" fill="#2B2B2B"/>
<path fill-rule="evenodd" clip-rule="evenodd" d="M32.8073 8.03842C32.9308 7.98728 33.0693 7.98728 33.1928 8.03842L50.5126 15.2109C50.6369 15.2623 50.7358 15.3614 50.7875 15.4863L57.961 32.8037C58.013 32.9293 58.013 33.0707 57.961 33.1964L50.7875 50.5138C50.7358 50.6386 50.6369 50.7377 50.5126 50.7892L33.1928 57.9616C33.0693 58.0128 32.9308 58.0128 32.8073 57.9616L15.4875 50.7892C15.3632 50.7377 15.2643 50.6386 15.2126 50.5138L8.0391 33.1964C7.98705 33.0707 7.98705 32.9293 8.0391 32.8037L15.2126 15.4863C15.2643 15.3614 15.3632 15.2623 15.4875 15.2109L32.8073 8.03842ZM16.0671 16.0741L9.05582 33L16.0671 49.926L33 56.9382L49.9329 49.926L56.9442 33L49.9329 16.0741L33 9.06185L16.0671 16.0741Z" fill="#FFF044"/>
<path fill-rule="evenodd" clip-rule="evenodd" d="M15.1533 50.2486C15.2 50.0093 15.4083 49.8368 15.6505 49.8368H50.3493C50.5914 49.8368 50.7998 50.0093 50.8465 50.2486C50.8932 50.4878 50.7652 50.7269 50.5411 50.8192L33.1917 57.962C33.0688 58.0127 32.9302 58.0122 32.8073 57.9616L15.4587 50.8192C15.2345 50.7269 15.1066 50.4878 15.1533 50.2486ZM18.2284 50.8571L33 56.9382L47.7714 50.8571H18.2284Z" fill="#FFF044"/>
<path fill-rule="evenodd" clip-rule="evenodd" d="M32.8578 44.7552C32.9506 44.728 33.0492 44.728 33.142 44.7552L50.4913 49.8573C50.7334 49.9285 50.8866 50.168 50.8509 50.4192C50.8152 50.6705 50.6014 50.8571 50.3493 50.8571H15.6505C15.3984 50.8571 15.1846 50.6705 15.1489 50.4192C15.1132 50.1679 15.2664 49.9285 15.5084 49.8573L32.8578 44.7552ZM19.1925 49.8368H46.8072L32.9999 45.7764L19.1925 49.8368Z" fill="#FFF044"/>
<path fill-rule="evenodd" clip-rule="evenodd" d="M46.8994 32.672C46.9957 32.5566 47.1378 32.4899 47.2875 32.4899H57.493C57.6624 32.4899 57.8206 32.5751 57.9146 32.717C58.0086 32.8589 58.0261 33.0389 57.961 33.1964L50.7867 50.5431C50.7001 50.7523 50.4869 50.879 50.2631 50.854C50.0394 50.8291 49.8588 50.6586 49.8198 50.4354L46.7885 33.0884C46.7625 32.9399 46.8031 32.7875 46.8994 32.672ZM47.8912 33.5102L50.5175 48.5394L56.7332 33.5102H47.8912Z" fill="#FFF044"/>
<path fill-rule="evenodd" clip-rule="evenodd" d="M15.4096 15.1526C15.5771 15.1193 15.75 15.1731 15.8695 15.2958L20.0946 19.6318C20.2796 19.8217 20.2887 20.1228 20.1154 20.3236L8.88935 33.3346C8.72684 33.5229 8.45287 33.5653 8.24168 33.4348C8.0305 33.3043 7.94405 33.0391 8.03733 32.808L15.0383 15.461C15.1026 15.3018 15.2421 15.1859 15.4096 15.1526ZM15.6866 16.5651L10.1243 30.3474L19.0435 20.0101L15.6866 16.5651Z" fill="#FFF044"/>
<path fill-rule="evenodd" clip-rule="evenodd" d="M19.3183 19.4417C19.46 19.2383 19.7266 19.1673 19.9497 19.2735L47.5046 32.3935C47.6532 32.4643 47.7585 32.6032 47.787 32.7662L50.8486 50.2585C50.887 50.4774 50.78 50.6961 50.5843 50.7991C50.3886 50.9021 50.1492 50.8656 49.9925 50.709L19.376 20.0967C19.2009 19.9216 19.1765 19.645 19.3183 19.4417ZM22.1835 21.4658L49.5734 48.8519L46.8344 33.2031L22.1835 21.4658Z" fill="#FFF044"/>
<path fill-rule="evenodd" clip-rule="evenodd" d="M33.2142 8.04778C33.3928 8.13153 33.507 8.31189 33.507 8.51022V18.468C33.507 18.7311 33.3082 18.951 33.0481 18.9758L19.7809 20.2426C19.5601 20.2637 19.3514 20.1378 19.2657 19.9318C19.18 19.7259 19.2373 19.4878 19.407 19.3442L32.6742 8.11966C32.825 7.99206 33.0356 7.96403 33.2142 8.04778ZM21.3036 19.0723L32.4935 18.0039V9.6053L21.3036 19.0723Z" fill="#FFF044"/>
<path fill-rule="evenodd" clip-rule="evenodd" d="M19.4331 19.3236C19.6342 19.1748 19.913 19.1957 20.0901 19.3727L50.7067 49.985C50.8711 50.1494 50.9038 50.405 50.7862 50.606C50.6685 50.8069 50.4305 50.902 50.2081 50.8368L32.7133 45.7131C32.5802 45.6742 32.4688 45.582 32.405 45.458L19.2832 19.9695C19.1683 19.7464 19.2319 19.4723 19.4331 19.3236ZM21.672 22.3924L33.2049 44.7945L48.5811 49.2977L21.672 22.3924Z" fill="#FFF044"/>
<path fill-rule="evenodd" clip-rule="evenodd" d="M32.8053 18.2066C32.9548 18.1918 33.103 18.2445 33.2101 18.3505L47.6432 32.6362C47.8192 32.8105 47.8449 33.0871 47.704 33.2912C47.5632 33.4953 47.2967 33.5674 47.0731 33.4621L19.5182 20.4742C19.3115 20.3768 19.195 20.1523 19.2336 19.9259C19.2722 19.6994 19.4564 19.5269 19.6835 19.5045L32.8053 18.2066ZM21.6198 20.3382L44.8215 31.2742L32.6686 19.2453L21.6198 20.3382Z" fill="#FFF044"/>
<path fill-rule="evenodd" clip-rule="evenodd" d="M33.4333 8.24584C33.5618 8.45937 33.5179 8.73518 33.3296 8.89762L20.3168 20.1221C20.1182 20.2934 19.8227 20.2844 19.6347 20.1013L15.2981 15.8768C15.1747 15.7566 15.1202 15.5816 15.1533 15.4119C15.1864 15.2422 15.3026 15.101 15.462 15.0367L32.8114 8.03668C33.0416 7.9438 33.3047 8.0323 33.4333 8.24584ZM16.5647 15.6909L20.0078 19.045L30.3395 10.1332L16.5647 15.6909Z" fill="#FFF044"/>
<path fill-rule="evenodd" clip-rule="evenodd" d="M19.9031 19.2316C20.1207 19.1948 20.3369 19.3039 20.4378 19.5015L33.4506 44.9901C33.5196 45.1254 33.5251 45.2847 33.4656 45.4245C33.406 45.5643 33.2875 45.67 33.1425 45.7128L15.7931 50.8365C15.6278 50.8853 15.4491 50.8462 15.3188 50.7327C15.1886 50.6191 15.1245 50.4467 15.1489 50.275L19.4854 19.6627C19.5166 19.4428 19.6855 19.2684 19.9031 19.2316ZM20.264 21.3931L16.2633 49.6344L32.2689 44.9075L20.264 21.3931Z" fill="#FFF044"/>
<path fill-rule="evenodd" clip-rule="evenodd" d="M19.9416 19.2699C20.1464 19.363 20.2657 19.5809 20.2348 19.8049L16.0097 50.4172C15.9781 50.6461 15.7975 50.8251 15.5697 50.8533C15.3418 50.8816 15.1236 50.752 15.0378 50.5376L8.03678 33.0454C7.96594 32.8684 7.99915 32.6663 8.12287 32.5217L19.3489 19.4018C19.4956 19.2304 19.7369 19.1767 19.9416 19.2699ZM9.09215 32.9522L15.2674 48.3815L18.9942 21.3796L9.09215 32.9522Z" fill="#FFF044"/>
<path fill-rule="evenodd" clip-rule="evenodd" d="M50.5904 15.1526C50.7578 15.1859 50.8974 15.3018 50.9617 15.461L57.9627 32.808C58.0559 33.0391 57.9695 33.3043 57.7583 33.4348C57.5471 33.5653 57.2731 33.5229 57.1106 33.3346L45.8846 20.3236C45.7113 20.1228 45.7204 19.8217 45.9054 19.6318L50.1305 15.2958C50.25 15.1731 50.4229 15.1193 50.5904 15.1526ZM46.9565 20.0101L55.8757 30.3474L50.3133 16.5651L46.9565 20.0101Z" fill="#FFF044"/>
<path fill-rule="evenodd" clip-rule="evenodd" d="M32.5667 8.24584C32.6952 8.0323 32.9584 7.9438 33.1886 8.03668L50.538 15.0367C50.6974 15.101 50.8136 15.2422 50.8467 15.4119C50.8798 15.5816 50.8253 15.7566 50.7018 15.8768L46.3653 20.1013C46.1773 20.2844 45.8818 20.2934 45.6832 20.1221L32.6704 8.89762C32.4821 8.73518 32.4382 8.45937 32.5667 8.24584ZM35.6605 10.1332L45.9922 19.045L49.4352 15.6909L35.6605 10.1332Z" fill="#FFF044"/>
<path fill-rule="evenodd" clip-rule="evenodd" d="M32.5417 18.4968C32.6331 18.3015 32.8368 18.1853 33.0501 18.2066L46.0398 19.5045C46.2798 19.5285 46.4698 19.7195 46.4939 19.9611L47.792 32.949C47.8134 33.1632 47.6989 33.368 47.5057 33.4606C47.3126 33.5532 47.0825 33.5138 46.9307 33.362L32.643 19.0763C32.4909 18.9242 32.4503 18.6921 32.5417 18.4968ZM34.3687 19.3637L46.6421 31.6355L45.5271 20.4786L34.3687 19.3637Z" fill="#FFF044"/>
<path fill-rule="evenodd" clip-rule="evenodd" d="M32.7861 8.04778C32.9647 7.96403 33.1753 7.99206 33.3261 8.11966L46.5933 19.3442C46.7631 19.4878 46.8203 19.7259 46.7346 19.9318C46.6489 20.1378 46.4402 20.2637 46.2194 20.2426L32.9522 18.9758C32.6921 18.951 32.4934 18.7311 32.4934 18.468V8.51022C32.4934 8.31189 32.6075 8.13153 32.7861 8.04778ZM33.5068 9.6053V18.0039L44.6967 19.0723L33.5068 9.6053Z" fill="#FFF044"/>
<path fill-rule="evenodd" clip-rule="evenodd" d="M46.0694 19.265C46.2732 19.1781 46.5094 19.2343 46.6528 19.4039L57.8789 32.6692C58.0071 32.8206 58.0361 33.0333 57.9532 33.2139C57.8704 33.3945 57.6908 33.5102 57.4932 33.5102H47.534C47.273 33.5102 47.0546 33.3105 47.0296 33.0489L45.7627 19.7835C45.7415 19.5618 45.8657 19.3519 46.0694 19.265ZM46.9256 21.2995L47.9944 32.4899H56.3958L46.9256 21.2995Z" fill="#FFF044"/>
</g>
</svg>
