<svg width="70" height="70" viewBox="0 0 70 70" fill="none" xmlns="http://www.w3.org/2000/svg">
<g opacity="0.7">
<path d="M4 4H70V70H4V4Z" fill="#563AFF"/>
<path fill-rule="evenodd" clip-rule="evenodd" d="M69 5H5V69H69V5ZM4 4V70H70V4H4Z" fill="#2B2B2B"/>
<path d="M2 2H68V68H2V2Z" fill="#563AFF"/>
<path fill-rule="evenodd" clip-rule="evenodd" d="M67 3H3V67H67V3ZM2 2V68H68V2H2Z" fill="#2B2B2B"/>
<path d="M0 0H66V66H0V0Z" fill="#563AFF"/>
<path fill-rule="evenodd" clip-rule="evenodd" d="M65 1H1V65H65V1ZM0 0V66H66V0H0Z" fill="#2B2B2B"/>
<path fill-rule="evenodd" clip-rule="evenodd" d="M33.2187 39.8779C33.2263 39.9565 33.1934 40.0334 33.1318 40.0808L17.6666 51.9813C17.5757 52.0513 17.4477 52.0388 17.3712 51.9526C17.2948 51.8663 17.295 51.7346 17.3717 51.6485L29.4616 38.0971C29.5271 38.0237 29.6316 38.0029 29.7191 38.0457L33.0944 39.6966C33.1639 39.7306 33.211 39.7994 33.2187 39.8779ZM29.6767 38.5251L19.2897 50.1677L32.5765 39.9435L29.6767 38.5251Z" fill="#FFF044"/>
<path fill-rule="evenodd" clip-rule="evenodd" d="M32.3545 43.9407C32.3692 44.0364 32.3228 44.131 32.239 44.1759L17.6365 52.0008C17.5346 52.0554 17.4088 52.0205 17.3477 51.9206C17.2867 51.8207 17.3109 51.6895 17.4033 51.6194L28.523 43.1839C28.5713 43.1473 28.6321 43.1324 28.6913 43.1428L32.1741 43.7534C32.2672 43.7697 32.3398 43.8451 32.3545 43.9407ZM28.7096 43.604L19.9388 50.2576L31.4568 44.0856L28.7096 43.604Z" fill="#FFF044"/>
<path fill-rule="evenodd" clip-rule="evenodd" d="M28.8742 43.3562C28.8772 43.431 28.8438 43.5023 28.7852 43.5468L17.6655 51.9823C17.5829 52.0449 17.4691 52.0408 17.3911 51.9723C17.313 51.9037 17.2916 51.7891 17.3394 51.6959L23.3392 39.9982C23.3677 39.9426 23.4174 39.9018 23.4764 39.8853C23.5355 39.8689 23.5986 39.8784 23.6505 39.9115L28.7704 43.1737C28.8324 43.2132 28.8713 43.2815 28.8742 43.3562ZM23.619 40.423L18.1776 51.0321L28.2625 43.3816L23.619 40.423Z" fill="#FFF044"/>
<path fill-rule="evenodd" clip-rule="evenodd" d="M28.6448 39.6137C28.7447 39.6359 28.8166 39.7258 28.8183 39.8306L28.8742 43.3618C28.875 43.4105 28.8603 43.4582 28.8324 43.4977L23.8911 50.4961C23.8243 50.5906 23.6983 50.6175 23.6003 50.558C23.5023 50.4985 23.4648 50.3723 23.5136 50.2669L28.3991 39.7374C28.443 39.6427 28.5448 39.5914 28.6448 39.6137ZM28.393 40.8018L24.9451 48.2332L28.4325 43.294L28.393 40.8018Z" fill="#FFF044"/>
<path fill-rule="evenodd" clip-rule="evenodd" d="M28.1355 40.9284C28.2086 40.9188 28.2815 40.9471 28.3299 41.004L32.6065 46.034C32.6519 46.0874 32.6702 46.1596 32.6559 46.229C32.6416 46.2983 32.5963 46.3567 32.5337 46.3867L23.8062 50.5681C23.7214 50.6088 23.6208 50.59 23.5554 50.5215C23.4899 50.4529 23.4739 50.3495 23.5154 50.2635L27.9663 41.0521C27.999 40.9845 28.0625 40.9381 28.1355 40.9284ZM28.2146 41.5557L24.1894 49.8862L32.0822 46.1047L28.2146 41.5557Z" fill="#FFF044"/>
<path fill-rule="evenodd" clip-rule="evenodd" d="M7.0038 41.6703C6.98222 41.5523 7.05459 41.4376 7.16848 41.4093L25.4757 36.8669L9.77014 26.6258C9.66906 26.5599 9.63792 26.4233 9.70005 26.3183C9.76217 26.2133 9.89478 26.1785 9.99854 26.2399L27.3061 36.4768C27.3841 36.523 27.4269 36.6131 27.414 36.7045C27.4012 36.7958 27.3354 36.87 27.2478 36.8917L26.5862 37.0559L28.7989 38.4987C28.877 38.5496 28.9157 38.6451 28.8958 38.7377C28.8758 38.8303 28.8016 38.9003 28.7098 38.9129L7.24952 41.8524C7.13336 41.8683 7.02539 41.7883 7.0038 41.6703ZM25.9917 37.2034L11.3588 40.8341L28.0529 38.5474L25.9917 37.2034ZM26.0702 36.7194L26.609 36.5857L18.6048 31.8515L26.0702 36.7194Z" fill="#FFF044"/>
<path fill-rule="evenodd" clip-rule="evenodd" d="M30.2801 37.3626C30.2288 37.4678 30.107 37.515 30.0005 37.4708L29.4438 37.2402C29.437 37.2373 29.4303 37.2341 29.4238 37.2306L9.78578 26.6352C9.67924 26.5777 9.63748 26.4432 9.69203 26.3332C9.74657 26.2232 9.8772 26.1785 9.98534 26.2328L24.2871 33.4117C24.2929 33.4146 24.2986 33.4178 24.3041 33.4212L30.197 37.0684C30.2954 37.1292 30.3315 37.2573 30.2801 37.3626ZM24.4246 34.0232L23.3664 33.4523L24.0846 33.8128L24.4246 34.0232Z" fill="#FFF044"/>
<path fill-rule="evenodd" clip-rule="evenodd" d="M28.8253 38.8595C28.7516 38.9251 28.6447 38.9333 28.5624 38.8796L9.77014 26.6258C9.67151 26.5615 9.63909 26.4295 9.69628 26.325C9.75346 26.2205 9.88035 26.1801 9.98534 26.2328L24.2871 33.4117C24.307 33.4217 24.3253 33.4346 24.3414 33.4502L28.2568 37.2345C28.2775 37.2545 28.2942 37.2784 28.306 37.305L28.881 38.5955C28.9216 38.6864 28.8989 38.7938 28.8253 38.8595ZM28.1713 38.0895L27.9231 37.5326L24.0633 33.802L13.3453 28.422L28.1713 38.0895Z" fill="#FFF044"/>
<path fill-rule="evenodd" clip-rule="evenodd" d="M30.1274 27.0352C30.0434 27.0367 29.9675 27.0871 29.9318 27.1651L27.7117 32.0248C27.6862 32.0808 27.6841 32.145 27.706 32.2026L29.6113 37.2047C29.6447 37.2922 29.7274 37.3494 29.819 37.3484L35.0339 37.288C35.1102 37.2871 35.1806 37.2459 35.22 37.1789C35.2594 37.112 35.2622 37.029 35.2275 36.9594L30.3274 27.1579C30.2891 27.0813 30.2115 27.0336 30.1274 27.0352ZM34.6731 36.8407L29.9664 36.8952L28.1508 32.1286L30.1403 27.7738L34.6731 36.8407Z" fill="#FFF044"/>
<path fill-rule="evenodd" clip-rule="evenodd" d="M15.3618 16.2759C15.2671 16.3445 15.2405 16.4764 15.3008 16.5778L23.5639 30.4632C23.5882 30.5039 23.6243 30.5357 23.6673 30.5541L27.8263 32.3289C27.9195 32.3686 28.0271 32.3384 28.0875 32.2556C28.1479 32.1727 28.1456 32.0584 28.0819 31.9781L15.6598 16.3179C15.5867 16.2258 15.4564 16.2074 15.3618 16.2759ZM27.1886 31.5677L23.9028 30.1655L17.3745 19.1953L27.1886 31.5677Z" fill="#FFF044"/>
<path fill-rule="evenodd" clip-rule="evenodd" d="M23.7673 10.0179C23.8746 9.97138 23.9987 10.0185 24.0505 10.1254L34.372 31.4313C34.3981 31.4851 34.4021 31.5474 34.3833 31.6043L32.9226 36.0061C32.8924 36.0972 32.8092 36.1586 32.7153 36.1592C32.6214 36.1597 32.5375 36.0993 32.5063 36.0086L23.6454 10.3009C23.6066 10.1884 23.66 10.0644 23.7673 10.0179ZM25.2694 13.6569L32.7101 35.2442L33.9366 31.5479L25.2694 13.6569Z" fill="#FFF044"/>
<path fill-rule="evenodd" clip-rule="evenodd" d="M24.9996 38.7613C25.0559 38.8319 25.0653 38.9302 25.0233 39.0106L21.1018 46.5263C21.066 46.595 20.9981 46.6399 20.9222 46.6451C20.8463 46.6502 20.7732 46.6149 20.7287 46.5517L17.081 41.3584C17.0394 41.2991 17.0283 41.2229 17.0513 41.1538C17.0743 41.0847 17.1284 41.0312 17.1967 41.0103L24.7659 38.688C24.8511 38.6618 24.9433 38.6908 24.9996 38.7613ZM17.6193 41.3519L20.8799 45.9941L24.3853 39.276L17.6193 41.3519Z" fill="#FFF044"/>
<path fill-rule="evenodd" clip-rule="evenodd" d="M35.3215 23.7311C35.3982 23.7006 35.4852 23.7165 35.5469 23.7723L37.6978 25.7175C37.7745 25.7868 37.7945 25.9011 37.7461 25.9935L34.7951 31.6232C34.7452 31.7183 34.6365 31.764 34.5358 31.732C34.4351 31.7 34.3706 31.5995 34.382 31.4921L35.1821 23.9173C35.191 23.8334 35.2447 23.7616 35.3215 23.7311ZM35.5743 24.3993L34.9416 30.3896L37.2753 25.9375L35.5743 24.3993Z" fill="#FFF044"/>
<path fill-rule="evenodd" clip-rule="evenodd" d="M31.2725 35.0636C31.311 35.1435 31.3 35.2392 31.2444 35.3078L27.4872 39.9431C27.4135 40.034 27.2837 40.0513 27.1897 39.9825L21.3911 35.74C21.3145 35.684 21.2811 35.5842 21.308 35.4918C21.3349 35.3993 21.4162 35.3346 21.5103 35.3308L31.0661 34.938C31.1531 34.9344 31.2339 34.9836 31.2725 35.0636ZM22.1704 35.7554L27.2791 39.4932L30.5893 35.4094L22.1704 35.7554Z" fill="#FFF044"/>
<path fill-rule="evenodd" clip-rule="evenodd" d="M33.723 31.1842C33.8136 31.1337 33.9264 31.1544 33.9942 31.2341L47.2099 46.7516C47.2827 46.837 47.2823 46.9645 47.209 47.0495C47.1357 47.1344 47.0123 47.1505 46.9206 47.087L33.9422 38.1001C33.8497 38.036 33.8186 37.9111 33.8699 37.8094L34.8519 35.8628L33.6165 31.4446C33.5881 31.343 33.6323 31.2347 33.723 31.1842ZM34.3123 32.2942L35.2995 35.8247C35.315 35.88 35.3093 35.9393 35.2835 35.9905L34.3512 37.8384L45.7658 45.7425L34.3123 32.2942Z" fill="#FFF044"/>
<path fill-rule="evenodd" clip-rule="evenodd" d="M54.3936 27.9471C54.418 28.065 54.3477 28.1817 54.234 28.2122L35.6672 33.1982L47.2099 46.7516C47.2887 46.8441 47.2809 46.984 47.1923 47.0667C47.1037 47.1494 46.9669 47.1444 46.8843 47.0554L34.2619 33.455C34.2082 33.3971 34.1883 33.3145 34.2096 33.2377C34.2309 33.1609 34.2903 33.1013 34.3656 33.0811L34.8678 32.9462L33.6623 31.5307C33.6097 31.469 33.5939 31.3829 33.621 31.3058C33.6482 31.2286 33.714 31.1727 33.7929 31.1595L54.1428 27.7711C54.2588 27.7518 54.3693 27.8293 54.3936 27.9471ZM35.3437 32.8184L49.6501 28.9765L34.2549 31.54L35.3437 32.8184ZM35.1913 33.326L34.8382 33.4209L40.1061 39.0969L35.1913 33.326Z" fill="#FFF044"/>
<path fill-rule="evenodd" clip-rule="evenodd" d="M33.9462 37.7231C34.0203 37.6742 34.1158 37.6753 34.1889 37.7259L47.1673 46.7128C47.2592 46.7764 47.2905 46.9002 47.2405 47.0016C47.1905 47.103 47.0747 47.1506 46.9702 47.1125L39.1275 44.2593L29.9611 40.7835C29.8828 40.7539 29.8276 40.6814 29.8185 40.5964C29.8095 40.5114 29.8481 40.4284 29.9182 40.3821L33.9462 37.7231ZM30.5275 40.517L39.2804 43.8359L45.4861 46.0936L34.0626 38.1833L30.5275 40.517Z" fill="#FFF044"/>
<path fill-rule="evenodd" clip-rule="evenodd" d="M29.8984 40.397C29.9588 40.3465 30.0408 40.3325 30.114 40.3603L39.2804 43.8359C39.3915 43.878 39.4502 44.0028 39.4132 44.1181C39.3763 44.2335 39.2568 44.2982 39.143 44.2646L33.1972 42.5102L31.9504 51.9986C31.9358 52.1099 31.8436 52.1933 31.734 52.1942C31.6244 52.1952 31.5308 52.1135 31.5143 52.0025L29.8197 40.606C29.808 40.527 29.8379 40.4475 29.8984 40.397ZM30.3116 40.9166L31.7186 50.3793L32.7946 42.1909C32.8031 42.1258 32.8388 42.0678 32.8925 42.032C32.9461 41.9961 33.0123 41.9859 33.0738 42.0041L33.5508 42.1448L30.3116 40.9166Z" fill="#FFF044"/>
<path fill-rule="evenodd" clip-rule="evenodd" d="M34.2981 33.1124C34.3873 33.0507 34.5069 33.064 34.5811 33.1439L47.2035 46.7444C47.2738 46.82 47.2841 46.9352 47.2286 47.0228C47.1731 47.1104 47.0663 47.1475 46.9702 47.1125L39.1302 44.2603C39.074 44.2399 39.0282 44.1969 39.0035 44.1413L34.221 33.3931C34.1764 33.2928 34.209 33.1741 34.2981 33.1124ZM35.1665 34.4298L39.3656 43.8669L46.2493 46.3713L35.1665 34.4298Z" fill="#FFF044"/>
<path fill-rule="evenodd" clip-rule="evenodd" d="M34.2539 33.1529C34.3095 33.0862 34.3978 33.0585 34.4803 33.0819L55.3139 38.9984C55.4133 39.0267 55.4803 39.1218 55.475 39.2274C55.4698 39.333 55.3937 39.4207 55.292 39.4385L40.2519 42.061L39.4072 44.1346C39.3735 44.2174 39.2951 44.2719 39.2075 44.2733C39.1199 44.2748 39.0398 44.2229 39.0035 44.1413L34.221 33.3931C34.1855 33.3133 34.1983 33.2196 34.2539 33.1529ZM34.8179 33.6463L39.195 43.4835L39.892 41.7724C39.9211 41.701 39.9839 41.6498 40.0583 41.6368L54.2445 39.1632L34.8179 33.6463Z" fill="#FFF044"/>
<path fill-rule="evenodd" clip-rule="evenodd" d="M32.8262 42.1012C32.8839 42.0069 33 41.9698 33.0998 42.0136L35.933 43.2592L36.1671 43.0604C36.232 43.0052 36.322 42.9929 36.3987 43.0286L53.539 50.9994C53.649 51.0505 53.6983 51.1828 53.6495 51.2961C53.6007 51.4093 53.4721 51.4611 53.3611 51.4123L36.0068 43.7829L35.347 44.3431C35.264 44.4136 35.1435 44.4122 35.0621 44.3399L32.8686 42.3916C32.7866 42.3187 32.7686 42.1955 32.8262 42.1012ZM35.5518 43.5829L34.2264 43.0002L35.2096 43.8735L35.5518 43.5829Z" fill="#FFF044"/>
<path fill-rule="evenodd" clip-rule="evenodd" d="M40.0328 41.643C40.0963 41.6237 40.1649 41.6347 40.2196 41.673L53.5722 51.0185C53.6659 51.084 53.6956 51.2117 53.641 51.3135C53.5865 51.4154 53.4653 51.4581 53.3611 51.4123L32.926 42.4284C32.8191 42.3814 32.7663 42.2574 32.8054 42.1451C32.8445 42.0329 32.9621 41.9711 33.0738 42.0041L39.0763 43.7751L39.892 41.7724C39.9175 41.7098 39.9693 41.6623 40.0328 41.643ZM40.1945 42.2021L39.4072 44.1346C39.3641 44.2404 39.2505 44.2963 39.143 44.2646L36.3365 43.4365L51.454 50.0826L40.1945 42.2021Z" fill="#FFF044"/>
<path fill-rule="evenodd" clip-rule="evenodd" d="M35.6022 36.837C35.6476 36.7974 35.7067 36.7784 35.7661 36.7843L41.0232 37.3049C41.0767 37.3102 41.1264 37.3353 41.1631 37.3756L53.6091 51.0509C53.6788 51.1275 53.6879 51.2432 53.6311 51.3303C53.5742 51.4174 53.4663 51.453 53.3705 51.4161L35.2111 44.4304C35.1203 44.3955 35.0624 44.3037 35.0687 44.2045L35.5251 36.9944C35.5289 36.9334 35.5567 36.8766 35.6022 36.837ZM35.95 37.256L35.519 44.0666L52.6469 50.6555L40.8977 37.746L35.95 37.256Z" fill="#FFF044"/>
<path fill-rule="evenodd" clip-rule="evenodd" d="M31.7169 27.8632C31.7815 27.9564 31.7679 28.0843 31.6853 28.1611L24.4507 34.8849C24.4088 34.9239 24.3538 34.9448 24.2972 34.9434L19.6882 34.8249C19.5885 34.8224 19.5029 34.7515 19.4795 34.6522C19.4561 34.5529 19.5008 34.4499 19.5884 34.401L31.432 27.7956C31.53 27.741 31.6523 27.77 31.7169 27.8632ZM20.5212 34.3948L24.2201 34.4898L30.026 29.0938L20.5212 34.3948Z" fill="#FFF044"/>
<path fill-rule="evenodd" clip-rule="evenodd" d="M36.7434 41.6837C36.751 41.7622 36.7181 41.8391 36.6565 41.8865L21.1913 53.7871C21.1004 53.857 20.9724 53.8446 20.8959 53.7583C20.8195 53.672 20.8197 53.5403 20.8964 53.4543L32.9863 39.9028C33.0517 39.8295 33.1563 39.8086 33.2438 39.8514L36.6191 41.5023C36.6886 41.5364 36.7357 41.6051 36.7434 41.6837ZM33.2013 40.3309L22.8144 51.9735L36.1012 41.7493L33.2013 40.3309Z" fill="#FFF044"/>
<path fill-rule="evenodd" clip-rule="evenodd" d="M35.8792 45.7465C35.8939 45.8421 35.8474 45.9367 35.7637 45.9816L21.1612 53.8066C21.0593 53.8612 20.9335 53.8262 20.8724 53.7264C20.8114 53.6265 20.8356 53.4953 20.928 53.4251L32.0477 44.9896C32.096 44.953 32.1567 44.9382 32.2159 44.9485L35.6988 45.5591C35.7919 45.5754 35.8645 45.6508 35.8792 45.7465ZM32.2343 45.4098L23.4635 52.0634L34.9814 45.8914L32.2343 45.4098Z" fill="#FFF044"/>
<path fill-rule="evenodd" clip-rule="evenodd" d="M32.3989 45.162C32.4018 45.2367 32.3685 45.3081 32.3099 45.3525L21.1902 53.7881C21.1076 53.8507 20.9937 53.8465 20.9157 53.778C20.8377 53.7095 20.8163 53.5948 20.8641 53.5016L26.8639 41.8039C26.8923 41.7484 26.9421 41.7075 27.0011 41.6911C27.0602 41.6746 27.1232 41.6841 27.1752 41.7172L32.2951 44.9795C32.3571 45.0189 32.3959 45.0873 32.3989 45.162ZM27.1437 42.2287L21.7023 52.8379L31.7871 45.1874L27.1437 42.2287Z" fill="#FFF044"/>
<path fill-rule="evenodd" clip-rule="evenodd" d="M32.1694 41.4194C32.2694 41.4417 32.3413 41.5315 32.343 41.6364L32.3989 45.1675C32.3997 45.2163 32.385 45.264 32.3571 45.3035L27.4158 52.3018C27.349 52.3964 27.2229 52.4232 27.125 52.3637C27.027 52.3042 26.9894 52.178 27.0383 52.0726L31.9237 41.5431C31.9677 41.4484 32.0695 41.3972 32.1694 41.4194ZM31.9177 42.6076L28.4697 50.0389L31.9572 45.0997L31.9177 42.6076Z" fill="#FFF044"/>
<path fill-rule="evenodd" clip-rule="evenodd" d="M31.6602 42.7342C31.7332 42.7245 31.8062 42.7529 31.8545 42.8098L36.1312 47.8398C36.1766 47.8932 36.1949 47.9654 36.1806 48.0347C36.1663 48.1041 36.121 48.1625 36.0584 48.1925L27.3309 52.3739C27.2461 52.4145 27.1455 52.3958 27.08 52.3272C27.0146 52.2587 26.9986 52.1552 27.0401 52.0693L31.491 42.8579C31.5237 42.7903 31.5872 42.7438 31.6602 42.7342ZM31.7393 43.3615L27.7141 51.6919L35.6069 47.9104L31.7393 43.3615Z" fill="#FFF044"/>
<path fill-rule="evenodd" clip-rule="evenodd" d="M10.5285 43.476C10.5069 43.358 10.5793 43.2433 10.6932 43.2151L29.0004 38.6726L13.2948 28.4315C13.1937 28.3656 13.1626 28.229 13.2247 28.1241C13.2869 28.0191 13.4195 27.9842 13.5232 28.0456L30.8308 38.2826C30.9088 38.3287 30.9516 38.4189 30.9387 38.5102C30.9259 38.6016 30.8601 38.6757 30.7725 38.6974L30.1108 38.8616L32.3236 40.3045C32.4017 40.3554 32.4404 40.4509 32.4204 40.5435C32.4005 40.6361 32.3262 40.7061 32.2345 40.7186L10.7742 43.6582C10.658 43.6741 10.5501 43.594 10.5285 43.476ZM29.5164 39.0091L14.8834 42.6399L31.5776 40.3532L29.5164 39.0091ZM29.5949 38.5252L30.1336 38.3915L22.1295 33.6573L29.5949 38.5252Z" fill="#FFF044"/>
<path fill-rule="evenodd" clip-rule="evenodd" d="M33.8048 39.1683C33.7534 39.2736 33.6317 39.3207 33.5252 39.2766L32.9685 39.0459C32.9617 39.0431 32.955 39.0399 32.9484 39.0364L13.3105 28.4409C13.2039 28.3834 13.1622 28.2489 13.2167 28.139C13.2712 28.029 13.4019 27.9842 13.51 28.0385L27.8118 35.2175C27.8176 35.2204 27.8233 35.2235 27.8288 35.227L33.7217 38.8741C33.82 38.935 33.8562 39.063 33.8048 39.1683ZM27.9493 35.8289L26.8911 35.258L27.6093 35.6185L27.9493 35.8289Z" fill="#FFF044"/>
<path fill-rule="evenodd" clip-rule="evenodd" d="M32.3499 40.6652C32.2763 40.7309 32.1694 40.7391 32.087 40.6854L13.2948 28.4315C13.1962 28.3672 13.1638 28.2352 13.221 28.1307C13.2781 28.0263 13.405 27.9858 13.51 28.0385L27.8118 35.2175C27.8317 35.2274 27.85 35.2404 27.8661 35.2559L31.7815 39.0402C31.8022 39.0602 31.8189 39.0842 31.8307 39.1107L32.4057 40.4012C32.4462 40.4922 32.4235 40.5996 32.3499 40.6652ZM31.696 39.8953L31.4478 39.3383L27.588 35.6078L16.87 30.2277L31.696 39.8953Z" fill="#FFF044"/>
<path fill-rule="evenodd" clip-rule="evenodd" d="M33.6521 28.8409C33.5681 28.8424 33.4922 28.8929 33.4565 28.9709L31.2364 33.8306C31.2109 33.8865 31.2088 33.9508 31.2307 34.0083L33.136 39.0105C33.1693 39.098 33.2521 39.1552 33.3437 39.1541L38.5586 39.0938C38.6348 39.0929 38.7052 39.0516 38.7447 38.9847C38.7841 38.9178 38.7869 38.8347 38.7521 38.7651L33.8521 28.9637C33.8138 28.887 33.7362 28.8394 33.6521 28.8409ZM38.1978 38.6465L33.4911 38.7009L31.6755 33.9343L33.665 29.5795L38.1978 38.6465Z" fill="#FFF044"/>
<path fill-rule="evenodd" clip-rule="evenodd" d="M18.8865 18.0817C18.7918 18.1502 18.7651 18.2822 18.8255 18.3836L27.0886 32.269C27.1128 32.3097 27.149 32.3415 27.192 32.3598L31.351 34.1346C31.4441 34.1744 31.5518 34.1442 31.6122 34.0613C31.6726 33.9785 31.6703 33.8642 31.6066 33.7839L19.1845 18.1237C19.1114 18.0315 18.9811 18.0132 18.8865 18.0817ZM30.7133 33.3735L27.4275 31.9713L20.8992 21.001L30.7133 33.3735Z" fill="#FFF044"/>
<path fill-rule="evenodd" clip-rule="evenodd" d="M27.292 11.8236C27.3993 11.7771 27.5233 11.8242 27.5751 11.9312L37.8967 33.2371C37.9228 33.2909 37.9268 33.3532 37.9079 33.4101L36.4473 37.8119C36.417 37.9029 36.3338 37.9644 36.24 37.9649C36.1461 37.9655 36.0622 37.9051 36.031 37.8144L27.1701 12.1067C27.1313 11.9941 27.1847 11.8701 27.292 11.8236ZM28.7941 15.4627L36.2347 37.0499L37.4613 33.3537L28.7941 15.4627Z" fill="#FFF044"/>
<path fill-rule="evenodd" clip-rule="evenodd" d="M28.5243 40.5671C28.5806 40.6377 28.59 40.736 28.548 40.8164L24.6265 48.332C24.5906 48.4007 24.5227 48.4456 24.4468 48.4508C24.371 48.456 24.2978 48.4207 24.2534 48.3574L20.6057 43.1641C20.5641 43.1049 20.553 43.0287 20.576 42.9596C20.5989 42.8905 20.6531 42.837 20.7213 42.8161L28.2906 40.4937C28.3758 40.4676 28.468 40.4965 28.5243 40.5671ZM21.144 43.1576L24.4046 47.7998L27.91 41.0817L21.144 43.1576Z" fill="#FFF044"/>
<path fill-rule="evenodd" clip-rule="evenodd" d="M38.8461 25.5368C38.9229 25.5063 39.0098 25.5222 39.0716 25.5781L41.2225 27.5232C41.2991 27.5926 41.3192 27.7069 41.2707 27.7992L38.3197 33.4289C38.2699 33.5241 38.1612 33.5697 38.0605 33.5378C37.9598 33.5058 37.8953 33.4052 37.9067 33.2978L38.7068 25.723C38.7156 25.6391 38.7694 25.5673 38.8461 25.5368ZM39.099 26.205L38.4663 32.1953L40.8 27.7433L39.099 26.205Z" fill="#FFF044"/>
<path fill-rule="evenodd" clip-rule="evenodd" d="M34.7971 36.8693C34.8357 36.9492 34.8247 37.0449 34.7691 37.1135L31.0119 41.7488C30.9381 41.8398 30.8083 41.857 30.7144 41.7883L24.9158 37.5458C24.8392 37.4897 24.8058 37.39 24.8327 37.2975C24.8596 37.2051 24.9409 37.1404 25.035 37.1365L34.5908 36.7437C34.6777 36.7402 34.7586 36.7894 34.7971 36.8693ZM25.6951 37.5612L30.8038 41.299L34.114 37.2151L25.6951 37.5612Z" fill="#FFF044"/>
<path fill-rule="evenodd" clip-rule="evenodd" d="M37.2477 32.9899C37.3383 32.9394 37.4511 32.9601 37.5189 33.0398L50.7346 48.5573C50.8074 48.6428 50.807 48.7703 50.7337 48.8552C50.6604 48.9402 50.537 48.9563 50.4453 48.8928L37.4669 39.9058C37.3743 39.8417 37.3432 39.7168 37.3945 39.6151L38.3766 37.6686L37.1412 33.2504C37.1127 33.1487 37.157 33.0405 37.2477 32.9899ZM37.837 34.0999L38.8242 37.6304C38.8397 37.6858 38.8339 37.7451 38.8081 37.7962L37.8759 39.6442L49.2904 47.5482L37.837 34.0999Z" fill="#FFF044"/>
<path fill-rule="evenodd" clip-rule="evenodd" d="M57.9183 29.7529C57.9427 29.8707 57.8724 29.9874 57.7586 30.018L39.1918 35.004L50.7346 48.5573C50.8134 48.6498 50.8056 48.7898 50.717 48.8725C50.6284 48.9552 50.4916 48.9501 50.409 48.8612L37.7865 35.2607C37.7328 35.2028 37.713 35.1202 37.7343 35.0434C37.7556 34.9666 37.8149 34.9071 37.8903 34.8868L38.3925 34.752L37.1869 33.3365C37.1343 33.2747 37.1186 33.1886 37.1457 33.1115C37.1728 33.0344 37.2386 32.9784 37.3176 32.9653L57.6675 29.5768C57.7835 29.5575 57.8939 29.635 57.9183 29.7529ZM38.8684 34.6242L53.1747 30.7823L37.7796 33.3457L38.8684 34.6242ZM38.7159 35.1318L38.3629 35.2266L43.6307 40.9026L38.7159 35.1318Z" fill="#FFF044"/>
<path fill-rule="evenodd" clip-rule="evenodd" d="M37.4709 39.5289C37.545 39.4799 37.6405 39.481 37.7135 39.5316L50.6919 48.5186C50.7838 48.5822 50.8152 48.7059 50.7652 48.8073C50.7152 48.9088 50.5994 48.9563 50.4949 48.9183L42.6522 46.065L33.4858 42.5893C33.4075 42.5596 33.3523 42.4872 33.3432 42.4021C33.3341 42.3171 33.3727 42.2342 33.4429 42.1879L37.4709 39.5289ZM34.0521 42.3227L42.8051 45.6416L49.0108 47.8993L37.5873 39.989L34.0521 42.3227Z" fill="#FFF044"/>
<path fill-rule="evenodd" clip-rule="evenodd" d="M33.423 42.2027C33.4835 42.1522 33.5655 42.1383 33.6387 42.166L42.8051 45.6416C42.9162 45.6838 42.9749 45.8085 42.9379 45.9239C42.9009 46.0392 42.7815 46.1039 42.6677 46.0703L36.7218 44.316L35.4751 53.8044C35.4605 53.9157 35.3682 53.999 35.2587 54C35.1491 54.001 35.0555 53.9193 35.039 53.8083L33.3444 42.4117C33.3327 42.3327 33.3626 42.2532 33.423 42.2027ZM33.8363 42.7223L35.2433 52.1851L36.3192 43.9966C36.3278 43.9316 36.3635 43.8736 36.4172 43.8377C36.4708 43.8018 36.537 43.7917 36.5985 43.8098L37.0755 43.9506L33.8363 42.7223Z" fill="#FFF044"/>
<path fill-rule="evenodd" clip-rule="evenodd" d="M37.8228 34.9181C37.912 34.8564 38.0316 34.8698 38.1057 34.9497L50.7282 48.5501C50.7984 48.6258 50.8088 48.741 50.7533 48.8286C50.6978 48.9162 50.5909 48.9532 50.4949 48.9183L42.6549 46.0661C42.5986 46.0456 42.5529 46.0027 42.5281 45.947L37.7457 35.1988C37.701 35.0985 37.7336 34.9799 37.8228 34.9181ZM38.6912 36.2355L42.8903 45.6727L49.774 48.177L38.6912 36.2355Z" fill="#FFF044"/>
<path fill-rule="evenodd" clip-rule="evenodd" d="M37.7786 34.9586C37.8342 34.8919 37.9224 34.8643 38.0049 34.8877L58.8385 40.8042C58.938 40.8324 59.005 40.9276 58.9997 41.0332C58.9945 41.1388 58.9184 41.2265 58.8167 41.2442L43.7765 43.8668L42.9319 45.9403C42.8981 46.0231 42.8197 46.0776 42.7322 46.0791C42.6446 46.0805 42.5645 46.0287 42.5281 45.947L37.7457 35.1988C37.7102 35.119 37.723 35.0253 37.7786 34.9586ZM38.3425 35.452L42.7197 45.2892L43.4167 43.5782C43.4458 43.5067 43.5086 43.4556 43.583 43.4426L57.7692 40.9689L38.3425 35.452Z" fill="#FFF044"/>
<path fill-rule="evenodd" clip-rule="evenodd" d="M36.3509 43.907C36.4086 43.8127 36.5247 43.7755 36.6244 43.8194L39.4577 45.0649L39.6918 44.8661C39.7567 44.811 39.8467 44.7987 39.9234 44.8344L57.0637 52.8051C57.1737 52.8563 57.2229 52.9886 57.1742 53.1018C57.1254 53.215 56.9968 53.2669 56.8858 53.2181L39.5314 45.5886L38.8716 46.1489C38.7887 46.2193 38.6682 46.2179 38.5868 46.1456L36.3933 44.1974C36.3112 44.1245 36.2933 44.0012 36.3509 43.907ZM39.0765 45.3886L37.7511 44.8059L38.7343 45.6792L39.0765 45.3886Z" fill="#FFF044"/>
<path fill-rule="evenodd" clip-rule="evenodd" d="M43.5574 43.4487C43.621 43.4295 43.6896 43.4405 43.7443 43.4788L57.0969 52.8242C57.1905 52.8898 57.2203 53.0174 57.1657 53.1193C57.1111 53.2211 56.99 53.2639 56.8858 53.2181L36.4507 44.2342C36.3438 44.1872 36.291 44.0631 36.3301 43.9509C36.3692 43.8386 36.4867 43.7768 36.5985 43.8098L42.601 45.5809L43.4167 43.5782C43.4422 43.5155 43.4939 43.468 43.5574 43.4487ZM43.7191 44.0079L42.9319 45.9403C42.8888 46.0461 42.7752 46.102 42.6677 46.0703L39.8612 45.2423L54.9787 51.8884L43.7191 44.0079Z" fill="#FFF044"/>
<path fill-rule="evenodd" clip-rule="evenodd" d="M39.1268 38.6428C39.1723 38.6032 39.2314 38.5842 39.2908 38.59L44.5478 39.1106C44.6013 39.1159 44.6511 39.1411 44.6878 39.1813L57.1338 52.8566C57.2035 52.9333 57.2126 53.049 57.1557 53.1361C57.0989 53.2232 56.991 53.2587 56.8952 53.2219L38.7358 46.2362C38.6449 46.2012 38.5871 46.1095 38.5934 46.0102L39.0497 38.8001C39.0536 38.7391 39.0814 38.6824 39.1268 38.6428ZM39.4747 39.0618L39.0436 45.8724L56.1715 52.4613L44.4224 39.5517L39.4747 39.0618Z" fill="#FFF044"/>
<path fill-rule="evenodd" clip-rule="evenodd" d="M35.2416 29.6689C35.3062 29.7621 35.2926 29.89 35.21 29.9668L27.9754 36.6907C27.9335 36.7297 27.8785 36.7506 27.8219 36.7491L23.2128 36.6307C23.1132 36.6281 23.0276 36.5573 23.0042 36.458C22.9808 36.3587 23.0255 36.2556 23.113 36.2068L34.9567 29.6014C35.0546 29.5468 35.177 29.5758 35.2416 29.6689ZM24.0459 36.2005L27.7448 36.2956L33.5507 30.8995L24.0459 36.2005Z" fill="#FFF044"/>
</g>
</svg>
