<svg width="70" height="70" viewBox="0 0 70 70" fill="none" xmlns="http://www.w3.org/2000/svg">
<g opacity="0.7">
<path d="M4 4H70V70H4V4Z" fill="#563AFF"/>
<path fill-rule="evenodd" clip-rule="evenodd" d="M69 5H5V69H69V5ZM4 4V70H70V4H4Z" fill="#2B2B2B"/>
<path d="M2 2H68V68H2V2Z" fill="#563AFF"/>
<path fill-rule="evenodd" clip-rule="evenodd" d="M67 3H3V67H67V3ZM2 2V68H68V2H2Z" fill="#2B2B2B"/>
<path d="M0 0H66V66H0V0Z" fill="#563AFF"/>
<path fill-rule="evenodd" clip-rule="evenodd" d="M65 1H1V65H65V1ZM0 0V66H66V0H0Z" fill="#2B2B2B"/>
<path d="M42.9153 57.4286C42.4795 58.4087 41 58.1009 41 57.03L41 23.5106C41 23.3711 41.0298 23.2332 41.0874 23.1059L44.0874 16.4817C44.5285 15.5079 46 15.8193 46 16.8864L46 50.2831C46 50.4203 45.9712 50.556 45.9153 50.6816L42.9153 57.4286Z" fill="#563AFF"/>
<path fill-rule="evenodd" clip-rule="evenodd" d="M42 23.5106L42 57.03L45 50.2831V16.8864L42 23.5106ZM41 57.03C41 58.1009 42.4795 58.4087 42.9153 57.4286L45.9153 50.6816C45.9712 50.556 46 50.4203 46 50.2831L46 16.8864C46 15.8193 44.5285 15.5079 44.0874 16.4817L41.0874 23.1059C41.0298 23.2332 41 23.3711 41 23.5106L41 57.03Z" fill="#FFF044"/>
<path d="M39.9153 59.4077C39.4795 60.3878 38 60.08 38 59.0091L38 25.4897C38 25.3502 38.0298 25.2123 38.0874 25.085L41.0874 18.4608C41.5285 17.487 43 17.7984 43 18.8655L43 52.2622C43 52.3994 42.9712 52.5351 42.9153 52.6607L39.9153 59.4077Z" fill="#563AFF"/>
<path fill-rule="evenodd" clip-rule="evenodd" d="M39 25.4897L39 59.0091L42 52.2622V18.8655L39 25.4897ZM38 59.0091C38 60.08 39.4795 60.3878 39.9153 59.4077L42.9153 52.6607C42.9712 52.5351 43 52.3994 43 52.2622L43 18.8655C43 17.7984 41.5285 17.487 41.0874 18.4608L38.0874 25.085C38.0298 25.2123 38 25.3502 38 25.4897L38 59.0091Z" fill="#FFF044"/>
<path d="M37.9153 55.4495C37.4795 56.4296 36 56.1218 36 55.0509L36 21.5315C36 21.392 36.0298 21.2541 36.0874 21.1268L39.0874 14.5026C39.5285 13.5288 41 13.8402 41 14.9073L41 48.304C41 48.4412 40.9712 48.577 40.9153 48.7025L37.9153 55.4495Z" fill="#563AFF"/>
<path fill-rule="evenodd" clip-rule="evenodd" d="M37 21.5315L37 55.0509L40 48.304V14.9073L37 21.5315ZM36 55.0509C36 56.1218 37.4795 56.4296 37.9153 55.4495L40.9153 48.7025C40.9712 48.577 41 48.4412 41 48.304L41 14.9073C41 13.8402 39.5285 13.5288 39.0874 14.5026L36.0874 21.1268C36.0298 21.2541 36 21.392 36 21.5315L36 55.0509Z" fill="#FFF044"/>
<path d="M35.9153 56.439C35.4795 57.4192 34 57.1113 34 56.0405L34 22.5211C34 22.3816 34.0298 22.2437 34.0874 22.1164L37.0874 15.4921C37.5285 14.5184 39 14.8297 39 15.8968L39 49.2936C39 49.4308 38.9712 49.5665 38.9153 49.6921L35.9153 56.439Z" fill="#563AFF"/>
<path fill-rule="evenodd" clip-rule="evenodd" d="M35 22.5211L35 56.0405L38 49.2936V15.8968L35 22.5211ZM34 56.0405C34 57.1113 35.4795 57.4192 35.9153 56.439L38.9153 49.6921C38.9712 49.5665 39 49.4308 39 49.2936L39 15.8968C39 14.8297 37.5285 14.5184 37.0874 15.4921L34.0874 22.1164C34.0298 22.2437 34 22.3816 34 22.5211L34 56.0405Z" fill="#FFF044"/>
<path d="M33.9153 47.5331C33.4795 48.5132 32 48.2054 32 47.1345L32 13.6151C32 13.4756 32.0298 13.3377 32.0874 13.2105L35.0874 6.5862C35.5285 5.61241 37 5.92378 37 6.99088L37 40.3876C37 40.5248 36.9712 40.6606 36.9153 40.7862L33.9153 47.5331Z" fill="#563AFF"/>
<path fill-rule="evenodd" clip-rule="evenodd" d="M33 13.6151L33 47.1345L36 40.3876L36 6.99088L33 13.6151ZM32 47.1345C32 48.2054 33.4795 48.5132 33.9153 47.5331L36.9153 40.7862C36.9712 40.6606 37 40.5248 37 40.3876L37 6.99088C37 5.92378 35.5285 5.61241 35.0874 6.5862L32.0874 13.2105C32.0298 13.3377 32 13.4756 32 13.6151L32 47.1345Z" fill="#FFF044"/>
<path d="M31.9153 56.439C31.4795 57.4192 30 57.1113 30 56.0405L30 22.5211C30 22.3816 30.0298 22.2437 30.0874 22.1164L33.0874 15.4921C33.5285 14.5184 35 14.8297 35 15.8968L35 49.2936C35 49.4308 34.9712 49.5665 34.9153 49.6921L31.9153 56.439Z" fill="#563AFF"/>
<path fill-rule="evenodd" clip-rule="evenodd" d="M31 22.5211L31 56.0405L34 49.2936L34 15.8968L31 22.5211ZM30 56.0405C30 57.1113 31.4795 57.4192 31.9153 56.439L34.9153 49.6921C34.9712 49.5665 35 49.4308 35 49.2936L35 15.8968C35 14.8297 33.5285 14.5184 33.0874 15.4921L30.0874 22.1164C30.0298 22.2437 30 22.3816 30 22.5211L30 56.0405Z" fill="#FFF044"/>
<path d="M29.9153 53.4704C29.4795 54.4505 28 54.1427 28 53.0718L28 19.5524C28 19.4129 28.0298 19.275 28.0874 19.1477L31.0874 12.5235C31.5285 11.5497 33 11.8611 33 12.9282L33 46.3249C33 46.4621 32.9712 46.5979 32.9153 46.7234L29.9153 53.4704Z" fill="#563AFF"/>
<path fill-rule="evenodd" clip-rule="evenodd" d="M29 19.5524L29 53.0718L32 46.3249L32 12.9282L29 19.5524ZM28 53.0718C28 54.1427 29.4795 54.4505 29.9153 53.4704L32.9153 46.7234C32.9712 46.5979 33 46.4621 33 46.3249L33 12.9282C33 11.8611 31.5285 11.5497 31.0874 12.5235L28.0874 19.1477C28.0298 19.275 28 19.4129 28 19.5524L28 53.0718Z" fill="#FFF044"/>
<path d="M26.9153 56.439C26.4795 57.4192 25 57.1113 25 56.0405L25 22.5211C25 22.3816 25.0298 22.2437 25.0874 22.1164L28.0874 15.4921C28.5285 14.5184 30 14.8297 30 15.8968L30 49.2936C30 49.4308 29.9712 49.5665 29.9153 49.6921L26.9153 56.439Z" fill="#563AFF"/>
<path fill-rule="evenodd" clip-rule="evenodd" d="M26 22.5211L26 56.0405L29 49.2936L29 15.8968L26 22.5211ZM25 56.0405C25 57.1113 26.4795 57.4192 26.9153 56.439L29.9153 49.6921C29.9712 49.5665 30 49.4308 30 49.2936L30 15.8968C30 14.8297 28.5285 14.5184 28.0874 15.4921L25.0874 22.1164C25.0298 22.2437 25 22.3816 25 22.5211L25 56.0405Z" fill="#FFF044"/>
<path d="M24.9153 51.4913C24.4795 52.4714 23 52.1636 23 51.0927L23 17.5733C23 17.4338 23.0298 17.2959 23.0874 17.1686L26.0874 10.5444C26.5285 9.57061 28 9.88198 28 10.9491L28 44.3458C28 44.483 27.9712 44.6188 27.9153 44.7444L24.9153 51.4913Z" fill="#563AFF"/>
<path fill-rule="evenodd" clip-rule="evenodd" d="M24 17.5733L24 51.0927L27 44.3458L27 10.9491L24 17.5733ZM23 51.0927C23 52.1636 24.4795 52.4714 24.9153 51.4913L27.9153 44.7444C27.9712 44.6188 28 44.483 28 44.3458L28 10.9491C28 9.88198 26.5285 9.57061 26.0874 10.5444L23.0874 17.1686C23.0298 17.2959 23 17.4338 23 17.5733L23 51.0927Z" fill="#FFF044"/>
<path d="M21.9153 57.4286C21.4795 58.4087 20 58.1009 20 57.03L20 23.5106C20 23.3711 20.0298 23.2332 20.0874 23.1059L23.0874 16.4817C23.5285 15.5079 25 15.8193 25 16.8864L25 50.2831C25 50.4203 24.9712 50.556 24.9153 50.6816L21.9153 57.4286Z" fill="#563AFF"/>
<path fill-rule="evenodd" clip-rule="evenodd" d="M21 23.5106L21 57.03L24 50.2831L24 16.8864L21 23.5106ZM20 57.03C20 58.1009 21.4795 58.4087 21.9153 57.4286L24.9153 50.6816C24.9712 50.556 25 50.4203 25 50.2831L25 16.8864C25 15.8193 23.5285 15.5079 23.0874 16.4817L20.0874 23.1059C20.0298 23.2332 20 23.3711 20 23.5106L20 57.03Z" fill="#FFF044"/>
</g>
</svg>
