<svg width="70" height="70" viewBox="0 0 70 70" fill="none" xmlns="http://www.w3.org/2000/svg">
<g opacity="0.7">
<path d="M4 4H70V70H4V4Z" fill="#563AFF"/>
<path fill-rule="evenodd" clip-rule="evenodd" d="M69 5H5V69H69V5ZM4 4V70H70V4H4Z" fill="#2B2B2B"/>
<path d="M2 2H68V68H2V2Z" fill="#563AFF"/>
<path fill-rule="evenodd" clip-rule="evenodd" d="M67 3H3V67H67V3ZM2 2V68H68V2H2Z" fill="#2B2B2B"/>
<path d="M0 0H66V66H0V0Z" fill="#563AFF"/>
<path fill-rule="evenodd" clip-rule="evenodd" d="M65 1H1V65H65V1ZM0 0V66H66V0H0Z" fill="#2B2B2B"/>
<path d="M33.0131 8L12 20.4978V45.5022L33 58L54 45.5022V20.4978L33.0131 8ZM43.5895 26.9536L53.0139 21.339L46.7266 32.5861L43.5895 26.9536ZM46.491 33L43.5109 38.3176V27.6824L46.491 33ZM43.38 26.5802L40.2341 20.9656H52.8089L43.38 26.5802ZM42.7255 26.2833L33.8159 20.9656H39.7717L42.7255 26.2833ZM52.39 20.5292H39.9898L33.7941 9.46212L52.39 20.5292ZM33.2225 9.28216L39.5055 20.5292H33.2225V9.28216ZM26.5163 20.5292L32.8037 9.28216V20.5292H26.5163ZM32.2277 20.9791L23.2963 26.2967L26.2763 20.9791H32.2277ZM32.2277 9.47563L26.032 20.5427H13.6318L32.2277 9.47563ZM25.7876 20.9791L22.6462 26.5937L13.213 20.9791H25.7876ZM22.4368 26.9671L19.2909 32.5816L13.0036 21.3345L22.4368 26.9671ZM22.5109 27.6959V38.3311L19.5352 33.0135L22.5109 27.6959ZM12.8726 21.9464L19.0727 33.018L12.8726 44.0716V21.9464ZM19.3127 33.4499L22.4585 39.0644L13.0253 44.679L19.3127 33.4499ZM22.668 39.4378L25.8095 45.0569H13.2348L22.668 39.4378ZM23.3181 39.7347L32.2495 45.0569H26.2982L23.3181 39.7347ZM13.6537 45.4888H26.0538L32.2495 56.5559L13.6537 45.4888ZM32.8255 56.7358L26.5381 45.4888H32.8255V56.7358ZM22.9516 39.0419V26.9986L33.0349 20.9971L43.1139 26.9986V39.0014L33.0349 45.0029L22.9516 39.0419ZM42.7473 39.7573L39.7717 45.0793H33.8159L42.7473 39.7573ZM33.2443 45.5112H39.4881L33.2051 56.7583L33.2443 45.5112ZM33.8159 56.5784L40.0116 45.5112H52.4118L33.8159 56.5784ZM40.256 45.0793L43.4018 39.4603L52.8306 45.0793H40.256ZM43.5895 39.0419L46.7309 33.4274L53.0183 44.6745L43.5895 39.0419ZM53.1885 44.0671L46.9927 32.9955L53.1885 21.9239V44.0671Z" fill="#FFF044"/>
</g>
</svg>
