<svg width="70" height="70" viewBox="0 0 70 70" fill="none" xmlns="http://www.w3.org/2000/svg">
<g opacity="0.7">
<path d="M4 4H70V70H4V4Z" fill="#563AFF"/>
<path fill-rule="evenodd" clip-rule="evenodd" d="M69 5H5V69H69V5ZM4 4V70H70V4H4Z" fill="#2B2B2B"/>
<path d="M2 2H68V68H2V2Z" fill="#563AFF"/>
<path fill-rule="evenodd" clip-rule="evenodd" d="M67 3H3V67H67V3ZM2 2V68H68V2H2Z" fill="#2B2B2B"/>
<path d="M0 0H66V66H0V0Z" fill="#563AFF"/>
<path fill-rule="evenodd" clip-rule="evenodd" d="M65 1H1V65H65V1ZM0 0V66H66V0H0Z" fill="#2B2B2B"/>
<path fill-rule="evenodd" clip-rule="evenodd" d="M22.3079 8.47455L12.5122 43.5673H32.1037L22.3079 8.47455ZM22.3079 12.2651L13.8352 42.6182H30.7806L22.3079 12.2651Z" fill="#FFF044"/>
<path fill-rule="evenodd" clip-rule="evenodd" d="M43.2059 8.47455L33.4102 43.5673H53.0016L43.2059 8.47455ZM43.2059 12.2651L34.7332 42.6182H51.6786L43.2059 12.2651Z" fill="#FFF044"/>
<path fill-rule="evenodd" clip-rule="evenodd" d="M31.1774 43.4456L44.1388 55.2465L48.6888 47.9449L31.1774 43.4456ZM34.7206 45.3409L43.9131 53.7104L47.1401 48.5319L34.7206 45.3409Z" fill="#FFF044"/>
<path fill-rule="evenodd" clip-rule="evenodd" d="M33.292 44.8104L24.0689 30.3036L17.6342 36.2653L33.292 44.8104ZM30.399 42.1301L23.8578 31.8414L19.2941 36.0696L30.399 42.1301Z" fill="#FFF044"/>
<path fill-rule="evenodd" clip-rule="evenodd" d="M32.1195 44.8106L47.7773 36.2655L41.3426 30.3038L32.1195 44.8106ZM35.0125 42.1303L46.1174 36.0699L41.5538 31.8417L35.0125 42.1303Z" fill="#FFF044"/>
<path fill-rule="evenodd" clip-rule="evenodd" d="M34.1211 43.4454L16.6097 47.9448L21.1597 55.2463L34.1211 43.4454ZM30.5779 45.3407L18.1584 48.5318L21.3854 53.7102L30.5779 45.3407Z" fill="#FFF044"/>
<path fill-rule="evenodd" clip-rule="evenodd" d="M21.7919 8H43.8748L54 17.1021V58L39.7345 45.1758H26.5929L12 57.3345V16.4882L21.7919 8ZM22.1964 8.94909L13.0244 16.8999V55.2045L26.2001 44.2267H40.1498L52.9756 55.7567V17.5037L43.4596 8.94909H22.1964Z" fill="#FFF044"/>
</g>
</svg>
