<svg width="70" height="70" viewBox="0 0 70 70" fill="none" xmlns="http://www.w3.org/2000/svg">
<g opacity="0.7">
<path d="M4 4H70V70H4V4Z" fill="#563AFF"/>
<path fill-rule="evenodd" clip-rule="evenodd" d="M69 5H5V69H69V5ZM4 4V70H70V4H4Z" fill="#2B2B2B"/>
<path d="M2 2H68V68H2V2Z" fill="#563AFF"/>
<path fill-rule="evenodd" clip-rule="evenodd" d="M67 3H3V67H67V3ZM2 2V68H68V2H2Z" fill="#2B2B2B"/>
<path d="M0 0H66V66H0V0Z" fill="#563AFF"/>
<path fill-rule="evenodd" clip-rule="evenodd" d="M65 1H1V65H65V1ZM0 0V66H66V0H0Z" fill="#2B2B2B"/>
<path fill-rule="evenodd" clip-rule="evenodd" d="M50.2253 14.8653C40.336 5.39983 24.2608 5.79115 14.8597 15.7718L14.8573 15.7743C5.39907 25.6809 5.79333 41.708 15.7607 51.1265L15.7616 51.1274C27.9723 62.7238 48.0228 59.1188 55.4477 44.0138L55.4492 44.0107C60.2516 34.4078 58.0746 22.203 50.2297 14.8694L50.2253 14.8653ZM50.9259 14.129C40.6301 4.27657 23.9097 4.68303 14.1211 15.0736C4.27577 25.3871 4.68563 42.0592 15.0624 51.865C27.7703 63.933 48.6312 60.1819 56.3588 44.4641C61.3608 34.4607 59.0983 21.7706 50.9259 14.129Z" fill="#FFF044"/>
<path fill-rule="evenodd" clip-rule="evenodd" d="M7.53353 28.6812C7.76027 28.5627 8.03972 28.6313 8.18586 28.8413L28.2756 57.707C28.4079 57.8971 28.3949 58.1526 28.2441 58.3284C28.0933 58.5041 27.8427 58.5556 27.6348 58.4536L16.1481 52.8196C16.0311 52.7622 15.9406 52.662 15.8953 52.5398L7.2923 29.3081C7.20345 29.0682 7.30679 28.7996 7.53353 28.6812ZM9.63088 32.6967L16.7778 51.9964L26.3204 56.6769L9.63088 32.6967Z" fill="#FFF044"/>
<path fill-rule="evenodd" clip-rule="evenodd" d="M7.64141 28.6396C7.89382 28.5743 8.15476 28.7106 8.24532 28.9551L16.8483 52.1868C16.9355 52.4221 16.8378 52.6859 16.6184 52.8077C16.399 52.9294 16.1236 52.8728 15.97 52.6743L9.68278 44.5487C9.63 44.4804 9.59544 44.3999 9.58237 44.3147L7.26654 29.2086C7.22702 28.9509 7.38899 28.705 7.64141 28.6396ZM9.02886 33.9975L10.567 44.0306L14.7428 49.4275L9.02886 33.9975Z" fill="#FFF044"/>
<path fill-rule="evenodd" clip-rule="evenodd" d="M7.2923 28.9551C7.38115 28.7152 7.63449 28.5787 7.88369 28.6366L57.4572 40.1439C57.617 40.181 57.749 40.293 57.8118 40.4445C57.8745 40.5961 57.8603 40.7686 57.7736 40.9078L51.0079 51.7643C50.8673 51.9898 50.5769 52.069 50.3414 51.946L7.53354 29.5821C7.30679 29.4636 7.20345 29.195 7.2923 28.9551ZM11.5411 30.529L50.3945 50.827L56.5352 40.9733L11.5411 30.529Z" fill="#FFF044"/>
<path fill-rule="evenodd" clip-rule="evenodd" d="M7.38747 28.7957C7.54212 28.6201 7.79668 28.5728 8.00407 28.6812L50.8119 51.0451C50.9962 51.1413 51.1032 51.3401 51.0822 51.5469C51.0611 51.7538 50.9163 51.9269 50.7164 51.9841L27.9983 58.4859C27.7894 58.5457 27.5656 58.466 27.4415 58.2877L7.35175 29.422C7.21808 29.2299 7.23282 28.9714 7.38747 28.7957ZM9.36867 30.5408L28.068 57.4088L49.2139 51.3569L9.36867 30.5408Z" fill="#FFF044"/>
<path fill-rule="evenodd" clip-rule="evenodd" d="M51.0386 51.2835C51.1434 51.5115 51.066 51.7819 50.8564 51.92L43.3379 56.8745C43.2696 56.9196 43.1913 56.9474 43.1098 56.9557L27.9102 58.503C27.6483 58.5297 27.4095 58.3519 27.3597 58.0934C27.31 57.8349 27.4659 57.5812 27.7189 57.5088L50.4371 51.007C50.6783 50.938 50.9338 51.0554 51.0386 51.2835ZM33.4957 56.9128L42.8829 55.9572L47.5262 52.8973L33.4957 56.9128Z" fill="#FFF044"/>
<path fill-rule="evenodd" clip-rule="evenodd" d="M20.9708 10.3235C21.1622 10.5149 21.17 10.8227 20.9885 11.0235L9.91975 23.2742C9.74657 23.4659 9.45718 23.4971 9.2471 23.3468C9.03702 23.1965 8.9731 22.9125 9.09853 22.6867L11.6058 18.1725C11.6329 18.1236 11.6679 18.0796 11.7093 18.0421L20.2709 10.3057C20.4717 10.1242 20.7795 10.132 20.9708 10.3235ZM12.4532 18.7398L12.144 19.2964L13.5089 17.7858L12.4532 18.7398Z" fill="#FFF044"/>
<path fill-rule="evenodd" clip-rule="evenodd" d="M47.7781 11.5865C47.9074 11.6439 48.0069 11.7527 48.0526 11.8865L57.8231 40.4747C57.8829 40.6494 57.8431 40.8428 57.7194 40.9798C57.5956 41.1168 57.4073 41.1759 57.2274 41.1341L7.65392 29.6268C7.43995 29.5771 7.2821 29.3955 7.26266 29.1767C7.24322 28.9579 7.36657 28.7513 7.56844 28.6647L47.3714 11.5839C47.5014 11.5281 47.6488 11.529 47.7781 11.5865ZM9.39409 28.9873L56.5654 39.937L47.2683 12.7342L9.39409 28.9873Z" fill="#FFF044"/>
<path fill-rule="evenodd" clip-rule="evenodd" d="M27.6823 7.52302C27.7714 7.49004 27.8679 7.48269 27.961 7.50182L47.6743 11.5535C47.9345 11.607 48.1096 11.8519 48.076 12.1155C48.0425 12.3791 47.8115 12.5723 47.5462 12.5588L20.5856 11.1902C20.3447 11.178 20.1455 10.998 20.109 10.7596C20.0725 10.5211 20.2087 10.2898 20.4349 10.2061L27.6823 7.52302ZM27.8988 8.52669L23.1074 10.3005L40.9316 11.2053L27.8988 8.52669Z" fill="#FFF044"/>
<path fill-rule="evenodd" clip-rule="evenodd" d="M20.1941 10.3924C20.2943 10.2484 20.4617 10.1663 20.6369 10.1752L47.5975 11.5439C47.8336 11.5559 48.0303 11.7291 48.072 11.9618C48.1137 12.1945 47.9894 12.4252 47.7722 12.5185L7.96917 29.5993C7.76074 29.6887 7.51828 29.6292 7.37497 29.4533C7.23165 29.2775 7.22219 29.028 7.35178 28.8419L20.1941 10.3924ZM20.8671 11.2046L9.2006 27.9648L45.3591 12.448L20.8671 11.2046Z" fill="#FFF044"/>
<path fill-rule="evenodd" clip-rule="evenodd" d="M31.6381 7.0041C31.7065 6.99535 31.776 7.00063 31.8423 7.01962L47.7118 11.5626C47.9744 11.6378 48.1306 11.9071 48.0655 12.1723C48.0004 12.4376 47.7372 12.604 47.4697 12.549L27.7564 8.49732C27.5131 8.4473 27.3416 8.22862 27.3509 7.98031C27.3603 7.73201 27.5479 7.5269 27.7943 7.4954L31.6381 7.0041ZM30.9521 8.11646L34.599 8.866L31.6632 8.02558L30.9521 8.11646Z" fill="#FFF044"/>
<path fill-rule="evenodd" clip-rule="evenodd" d="M47.2314 11.6738C47.4248 11.499 47.7192 11.499 47.9127 11.6738L52.6974 15.9966C52.7389 16.0341 52.774 16.0782 52.8011 16.1271L57.7869 25.111C57.917 25.3455 57.8425 25.6407 57.6168 25.7854C57.3911 25.9302 57.0917 25.8746 56.933 25.6584L47.1625 12.3517C47.0082 12.1415 47.0379 11.8487 47.2314 11.6738ZM50.9386 15.7773L53.011 18.5998L51.9535 16.6942L50.9386 15.7773Z" fill="#FFF044"/>
<path fill-rule="evenodd" clip-rule="evenodd" d="M47.3368 11.6005C47.5592 11.4843 47.8331 11.5478 47.9816 11.7501L57.7521 25.0568C57.8162 25.144 57.8507 25.2494 57.8507 25.3576V40.6391C57.8507 40.8876 57.671 41.0997 57.4259 41.1404C57.1807 41.1811 56.9421 41.0386 56.8617 40.8034L47.0912 12.2153C47.0101 11.9778 47.1144 11.7167 47.3368 11.6005ZM49.1256 15.0254L56.8344 37.581V25.5242L49.1256 15.0254Z" fill="#FFF044"/>
</g>
</svg>
