<svg width="215" height="105" viewBox="0 0 215 105" fill="none" xmlns="http://www.w3.org/2000/svg">
<rect x="12.9889" y="0.586218" width="205" height="65" transform="rotate(11 12.9889 0.586218)" fill="#75EB3E" stroke="#2B2B2B"/>
<rect x="15.9418" y="4.96512" width="197" height="57" transform="rotate(11 15.9418 4.96512)" fill="#75EB3E" stroke="#2B2B2B"/>
<rect x="18.8964" y="9.34427" width="189" height="49" transform="rotate(11 18.8964 9.34427)" fill="#75EB3E" stroke="#2B2B2B"/>
<path d="M81.6438 30.1841L82.5302 30.3564C84.4718 30.7338 85.78 31.4407 86.4546 32.4771C87.1293 33.5136 87.2833 34.9745 86.9169 36.8599L85.9159 42.0095L81.315 41.1152L82.1929 36.5987C82.4336 35.3605 82.1037 34.6539 81.2032 34.4789C80.6685 34.375 80.2699 34.4727 80.0073 34.7721C79.7447 35.0715 79.5368 35.6151 79.3836 36.4031L79.2687 36.994C79.0937 37.8945 79.0699 38.6929 79.1974 39.3894C79.3248 40.0858 79.684 41.0172 80.2751 42.1834L82.5511 46.6996C83.3696 48.3481 83.8719 49.7453 84.058 50.8912C84.2496 52.0089 84.1758 53.4401 83.8367 55.1848L83.6398 56.1979C82.688 61.0942 80.1579 63.1431 76.0495 62.3445L75.1209 62.164C71.2376 61.4092 69.6815 59.0479 70.4528 55.0801L71.6753 48.7908L76.4028 49.7098L75.3362 55.1971C75.0517 56.6604 75.4301 57.4932 76.4713 57.6956C77.0341 57.805 77.4663 57.6846 77.768 57.3344C78.1034 56.9615 78.3667 56.2826 78.5582 55.2977L78.6977 54.5801C78.9219 53.4264 78.9817 52.5181 78.8769 51.8553C78.7721 51.1924 78.407 50.2162 77.7816 48.9265L75.4973 44.4524C74.764 42.9665 74.3098 41.6225 74.1346 40.4203C73.9931 39.1955 74.0782 37.7811 74.39 36.1771L74.5869 35.164C75.38 31.0837 77.7323 29.4237 81.6438 30.1841ZM89.3111 31.9811L102.059 34.4589L101.172 39.0176L97.1624 38.2381L91.9442 65.0837L87.2167 64.1647L92.4349 37.3192L88.425 36.5397L89.3111 31.9811ZM98.5628 59.2738L103.338 34.7076L108.192 35.6512L103.36 60.5128C103.07 62.0043 103.431 62.8484 104.444 63.0453C105.485 63.2477 106.151 62.6032 106.441 61.1118L111.273 36.2501L116.128 37.1937L111.352 61.7599C110.417 66.5718 107.951 68.5894 103.956 67.8127L103.111 67.6486C99.1437 66.8774 97.6275 64.0858 98.5628 59.2738ZM111.869 68.9567L117.973 37.5524L125.276 38.9719C127.217 39.3493 128.495 40.1379 129.109 41.3377C129.728 42.5094 129.846 44.0801 129.463 46.0499L125.746 65.171C124.937 69.3357 122.745 71.0708 119.171 70.3761L111.869 68.9567ZM121.914 42.7428L117.525 65.3251L118.664 65.5466C119.368 65.6834 119.882 65.5935 120.206 65.2769C120.564 64.9376 120.828 64.3318 120.998 63.4595L124.435 45.7735C124.61 44.873 124.607 44.2153 124.425 43.8002C124.243 43.3852 123.856 43.1202 123.265 43.0053L121.914 42.7428ZM144.597 42.7276L136.849 60.2767L134.314 73.3196L129.544 72.3924L132.088 59.3073L131.343 40.1513L135.986 41.0538L135.9 53.2149L140.292 41.8907L144.597 42.7276Z" fill="#2B2B2B"/>
</svg>
