<svg width="70" height="71" viewBox="0 0 70 71" fill="none" xmlns="http://www.w3.org/2000/svg">
<rect x="5.40448" y="5.90442" width="63.6497" height="64.0956" fill="#59AFFF"/>
<rect x="5.40448" y="5.90442" width="63.6497" height="64.0956" stroke="#2B2B2B"/>
<rect x="3.17554" y="3.67529" width="63.6497" height="64.0956" fill="#59AFFF"/>
<rect x="3.17554" y="3.67529" width="63.6497" height="64.0956" stroke="#2B2B2B"/>
<rect x="0.945862" y="1" width="63.6497" height="64.0956" fill="#59AFFF"/>
<path d="M58.1495 49.9254C58.1495 49.9254 58.1495 49.9023 58.1457 49.8869C58.1457 49.8753 58.138 49.8599 58.1342 49.8484C58.1303 49.8368 58.1265 49.8252 58.1188 49.8137C58.1188 49.8098 58.1188 49.8021 58.115 49.7983L50.4139 36.3889L54.2242 29.7575C54.2242 29.7575 54.2242 29.7459 54.228 29.7421C54.2319 29.7305 54.2395 29.719 54.2434 29.7074C54.2472 29.6958 54.251 29.6804 54.2549 29.6689C54.2549 29.6573 54.2587 29.6457 54.2587 29.6303C54.2587 29.6226 54.2587 29.6188 54.2587 29.6149C54.2587 29.6111 54.2587 29.6034 54.2587 29.5995C54.2587 29.5879 54.2587 29.5764 54.2549 29.561C54.2549 29.5494 54.2472 29.534 54.2434 29.5224C54.2395 29.5109 54.2357 29.4993 54.228 29.4878C54.228 29.4839 54.228 29.4762 54.2242 29.4723L42.5479 9.14257C42.5479 9.14257 42.5326 9.12331 42.5249 9.1156C42.5134 9.10019 42.5019 9.08477 42.4866 9.07321C42.4713 9.06165 42.4559 9.0501 42.4406 9.04239C42.4253 9.03469 42.4099 9.02698 42.3946 9.01927C42.3755 9.01157 42.3563 9.01157 42.3371 9.00771C42.3256 9.00771 42.3141 9 42.3026 9H34.5172C34.5172 9 34.5057 9 34.5018 9C34.4903 9 34.4788 9 34.4635 9.00386C34.4482 9.00386 34.4367 9.01156 34.4252 9.01542C34.4137 9.01927 34.4022 9.02313 34.3907 9.03083C34.3868 9.03083 34.3792 9.03082 34.3753 9.03468C34.3715 9.03468 34.3677 9.04238 34.3638 9.04624C34.3523 9.05394 34.3447 9.06165 34.3332 9.06936C34.3217 9.07706 34.314 9.08862 34.3063 9.09633C34.2987 9.10404 34.291 9.1156 34.2833 9.12716C34.2833 9.13102 34.2757 9.13487 34.2718 9.13872L26.5707 22.548H18.9539C18.9539 22.548 18.9424 22.548 18.9386 22.548C18.9271 22.548 18.9156 22.548 18.9003 22.5519C18.8849 22.5519 18.8735 22.5596 18.862 22.5635C18.8505 22.5673 18.8389 22.5712 18.8274 22.5789C18.8236 22.5789 18.816 22.5789 18.8121 22.5827C18.8083 22.5827 18.8045 22.5904 18.8006 22.5943C18.7891 22.602 18.7814 22.6097 18.7699 22.6174C18.7584 22.6251 18.7508 22.6367 18.7431 22.6444C18.7354 22.6521 18.7278 22.6636 18.7201 22.6752C18.7201 22.6791 18.7124 22.6829 18.7086 22.6868L7.03236 43.0165C7.03236 43.0165 7.0247 43.0396 7.02087 43.0512C7.0132 43.0705 7.00554 43.0859 7.0017 43.1052C7.0017 43.1244 6.99787 43.1398 7.0017 43.1591C7.0017 43.1784 7.0017 43.1938 7.0017 43.2131C7.0017 43.2323 7.0132 43.2516 7.02087 43.267C7.0247 43.2786 7.0247 43.2901 7.03236 43.3017L10.9232 50.0757C10.9232 50.0757 10.9308 50.0834 10.9347 50.0873C10.9423 50.0988 10.95 50.1104 10.9577 50.1219C10.9692 50.1374 10.9845 50.1489 11.0037 50.1605C11.0113 50.1682 11.019 50.1797 11.0305 50.1836C11.0305 50.1836 11.0382 50.1836 11.0458 50.1874C11.0842 50.2067 11.1263 50.2221 11.1723 50.2221H26.5746L30.3849 56.8536C30.3849 56.8536 30.3925 56.8613 30.3964 56.8651C30.404 56.8767 30.4117 56.8883 30.4194 56.8998C30.4309 56.9152 30.4462 56.9268 30.4654 56.9383C30.473 56.9461 30.4807 56.9576 30.4922 56.9615C30.4922 56.9615 30.4999 56.9615 30.5075 56.9653C30.5459 56.9846 30.588 57 30.634 57H53.9904C54.0364 57 54.0785 56.9846 54.1207 56.9653C54.1322 56.9615 54.1399 56.9538 54.1514 56.946C54.182 56.9268 54.205 56.9037 54.2242 56.8728C54.228 56.8651 54.2357 56.8651 54.2395 56.8574L58.1303 50.0796C58.1303 50.0796 58.1303 50.068 58.1342 50.0641C58.138 50.0526 58.1457 50.041 58.1495 50.0295C58.1533 50.0179 58.1572 50.0025 58.161 49.9909C58.161 49.9794 58.1648 49.9678 58.1648 49.9524C58.1648 49.9447 58.1648 49.9408 58.1648 49.937C58.1648 49.9331 58.1648 49.9254 58.1648 49.9177L58.1495 49.9254ZM53.8064 56.4297H31.117L34.6782 50.2298H57.3675L53.8064 56.4297ZM23.1667 43.1668L26.7279 36.9669L34.1798 49.9408L30.6187 56.1407L23.1667 43.1668ZM57.3675 49.6518H34.6782L27.2262 36.6779H34.3447L38.155 43.3094C38.155 43.3094 38.1626 43.3171 38.1665 43.3209C38.1741 43.3325 38.1818 43.3441 38.1895 43.3556C38.201 43.371 38.2163 43.3826 38.2355 43.3942C38.2431 43.4019 38.2508 43.4134 38.2623 43.4173C38.2623 43.4173 38.27 43.4173 38.2776 43.4211C38.316 43.4404 38.3581 43.4558 38.4041 43.4558H46.1896C46.2356 43.4558 46.2777 43.4404 46.3199 43.4211C46.3314 43.4173 46.3391 43.4096 46.3506 43.4019C46.3813 43.3826 46.4043 43.3595 46.4234 43.3286C46.4273 43.3209 46.4349 43.3209 46.4387 43.3132L50.0804 36.9708L57.3675 49.6557V49.6518ZM7.5997 43.1668L18.9463 23.415L22.5074 29.6149L11.1608 49.3667L7.5997 43.1668ZM23.0019 29.3221L19.4408 23.126H34.3447L37.9058 29.3221H23.0019ZM38.6533 29.7536C38.6533 29.7536 38.6533 29.7421 38.6571 29.7382C38.661 29.7267 38.6686 29.7151 38.6725 29.7035C38.6763 29.692 38.6801 29.6766 38.684 29.665C38.684 29.6534 38.6878 29.6419 38.6878 29.6265C38.6878 29.6188 38.6878 29.6149 38.6878 29.6111C38.6878 29.6072 38.6878 29.5995 38.6878 29.5957C38.6878 29.5841 38.6878 29.5725 38.684 29.5571C38.684 29.5456 38.6763 29.5301 38.6725 29.5186C38.6686 29.507 38.6648 29.4955 38.6571 29.4839C38.6571 29.4801 38.6571 29.4723 38.6533 29.4685L34.7625 22.6945C34.7625 22.6945 34.7472 22.6752 34.7395 22.6675C34.728 22.6521 34.7165 22.6367 34.7012 22.6251C34.6858 22.6136 34.6705 22.602 34.6552 22.5943C34.6398 22.5866 34.6245 22.5789 34.6092 22.5712C34.59 22.5635 34.5708 22.5635 34.5517 22.5596C34.5402 22.5596 34.5287 22.5519 34.5172 22.5519H27.2301L34.5172 9.86314L45.8638 29.6149L38.4118 42.5927L34.8507 36.3928L38.661 29.7613L38.6533 29.7536ZM42.1301 9.56643L53.4767 29.3182H46.3582L35.0117 9.56643H42.134H42.1301ZM46.0248 42.874H38.9025L46.3544 29.8962H53.4729L46.0209 42.874H46.0248ZM11.6592 49.648L23.0019 29.8962H37.9058L34.3447 36.0961H26.7279C26.7279 36.0961 26.7164 36.0961 26.7126 36.0961C26.7011 36.0961 26.6896 36.0961 26.6742 36.0999C26.6627 36.0999 26.6474 36.1077 26.6359 36.1115C26.6244 36.1154 26.6129 36.1192 26.6014 36.1269C26.5976 36.1269 26.5899 36.1269 26.5861 36.1308C26.5822 36.1308 26.5784 36.1385 26.5746 36.1423C26.5631 36.15 26.5554 36.1577 26.5439 36.1654C26.5324 36.1732 26.5247 36.1847 26.5171 36.1924C26.5094 36.204 26.5017 36.2117 26.4941 36.2232C26.4941 36.2271 26.4864 36.231 26.4826 36.2348L22.5918 43.0127C22.5918 43.0127 22.5841 43.0358 22.5803 43.0474C22.5726 43.0666 22.5649 43.082 22.5611 43.1013C22.5611 43.1206 22.5611 43.136 22.5611 43.1553C22.5611 43.1745 22.5611 43.1899 22.5611 43.2092C22.5611 43.2285 22.5726 43.2477 22.5803 43.2631C22.5841 43.2747 22.5841 43.2863 22.5918 43.2978L26.2334 49.6403H11.6592V49.648Z" fill="#67FFDB"/>
<rect x="0.945862" y="1" width="63.6497" height="64.0956" stroke="#2B2B2B"/>
</svg>
