<svg width="71" height="71" viewBox="0 0 71 71" fill="none" xmlns="http://www.w3.org/2000/svg">
<rect x="5.90445" y="5.90442" width="63.6497" height="64.0956" fill="#FF8365"/>
<rect x="5.90445" y="5.90442" width="63.6497" height="64.0956" stroke="#2B2B2B"/>
<rect x="3.67554" y="3.67529" width="63.6497" height="64.0956" fill="#FF8365"/>
<rect x="3.67554" y="3.67529" width="63.6497" height="64.0956" stroke="#2B2B2B"/>
<rect x="1.44586" y="1" width="63.6497" height="64.0956" fill="#FF8365"/>
<rect x="1.44586" y="1" width="63.6497" height="64.0956" stroke="#2B2B2B"/>
<path d="M57.0167 21.1495C57.0167 21.1495 57.0167 21.1399 57.0167 21.1366C57.0167 21.1302 57.0102 21.1238 57.007 21.1173C57.0037 21.1077 57.0004 21.0981 56.9972 21.0884C56.9939 21.0788 56.9874 21.0723 56.9841 21.0627C56.9776 21.053 56.9711 21.0434 56.9646 21.0338C56.9581 21.0273 56.9515 21.0177 56.9418 21.0113C56.9385 21.0113 56.9352 21.0048 56.932 21.0016L41.7885 9.04823C41.7885 9.04823 41.7787 9.04501 41.7754 9.0418C41.7624 9.03215 41.7461 9.02572 41.7298 9.01929C41.7168 9.01286 41.7037 9.00643 41.6874 9.00322C41.6711 9 41.6581 9.00322 41.6418 9C41.6255 9 41.6092 9 41.5929 9C41.5864 9 41.5831 9 41.5766 9L13.6891 15.5007C13.6891 15.5007 13.676 15.5072 13.6695 15.5104C13.6597 15.5136 13.65 15.5168 13.6369 15.52C13.6304 15.5232 13.6206 15.5297 13.6141 15.5329C13.6043 15.5393 13.5945 15.5457 13.5848 15.5554C13.575 15.5618 13.5685 15.5683 13.5619 15.5779C13.5619 15.5811 13.5554 15.5843 13.5522 15.5875C13.5489 15.5908 13.5489 15.5972 13.5456 15.6004C13.5391 15.61 13.5326 15.6197 13.5293 15.6293C13.5228 15.639 13.5196 15.6486 13.5163 15.6583C13.513 15.6679 13.5098 15.6776 13.5065 15.6872C13.5065 15.6969 13.5065 15.7065 13.5033 15.7194C13.5033 15.7258 13.5 15.7322 13.5 15.7386V44.8119C13.5 44.8119 13.5 44.8216 13.5 44.8248C13.5 44.8409 13.5065 44.8569 13.5098 44.873C13.513 44.8859 13.5163 44.9019 13.5228 44.9148C13.5293 44.9277 13.5391 44.9405 13.5489 44.9502C13.5587 44.963 13.5685 44.9759 13.5815 44.9888C13.5848 44.9888 13.588 44.9952 13.5913 44.9984L28.7348 56.9518C28.7348 56.9518 28.7609 56.9678 28.7739 56.9743C28.7837 56.9775 28.7902 56.9839 28.8 56.9871C28.8 56.9871 28.8065 56.9871 28.8065 56.9904C28.8261 56.9968 28.8489 57 28.8684 57C28.875 57 28.8782 57 28.8847 57C28.9043 57 28.9206 57 28.9402 56.9936L56.8309 50.4928C56.8309 50.4928 56.844 50.4864 56.8505 50.4832C56.8668 50.4768 56.8798 50.4703 56.8961 50.4639C56.9092 50.4575 56.9222 50.4478 56.932 50.4382C56.945 50.4285 56.9548 50.4157 56.9646 50.406C56.9744 50.3932 56.9841 50.3835 56.9907 50.3675C56.9972 50.3546 57.0037 50.3385 57.007 50.3256C57.0102 50.3096 57.0167 50.2935 57.0167 50.2774C57.0167 50.271 57.02 50.2646 57.02 50.2581V21.1913C57.02 21.1913 57.02 21.1816 57.02 21.1784C57.02 21.1688 57.02 21.1591 57.0167 21.1495ZM33.2566 55.4986C33.2142 55.4825 33.1686 55.4761 33.1197 55.4857L29.1293 56.4149V43.8539L32.9306 42.9665V51.8721C32.9306 51.8721 32.9339 51.8914 32.9371 51.901C32.9371 51.9107 32.9371 51.9203 32.9371 51.9299C32.9371 51.9364 32.9436 51.9428 32.9469 51.9492C32.9502 51.9621 32.9567 51.9717 32.9599 51.9814C32.9697 51.9975 32.9795 52.0135 32.9893 52.0264C32.9958 52.036 33.0023 52.0425 33.0121 52.0489C33.0252 52.0618 33.0447 52.0714 33.061 52.081C33.0708 52.0843 33.0773 52.0907 33.0871 52.0939C33.1164 52.1035 33.1458 52.11 33.1751 52.11C33.1947 52.11 33.211 52.11 33.2305 52.1036L52.5405 47.6025C52.5405 47.6025 52.5536 47.5961 52.5601 47.5929C52.5699 47.5929 52.5764 47.5897 52.5862 47.5865C52.5927 47.5833 52.5992 47.5768 52.6057 47.5736C52.6188 47.5672 52.6318 47.5575 52.6416 47.5479C52.6514 47.5415 52.6579 47.5318 52.6644 47.5254C52.6644 47.5254 52.6709 47.5222 52.6742 47.519C52.6742 47.5157 52.6775 47.5093 52.6807 47.5061C52.6872 47.4965 52.6938 47.4868 52.697 47.4772C52.7035 47.4675 52.7068 47.4579 52.7101 47.445C52.7101 47.4354 52.7166 47.4289 52.7166 47.4193C52.7166 47.4096 52.7166 47.3968 52.7198 47.3871C52.7198 47.3807 52.7231 47.3743 52.7231 47.3679V26.2292L56.5245 25.3419V50.0749L33.2468 55.4986H33.2566ZM41.5766 9.49833L56.2343 21.0691L44.2108 23.8726V21.9854L50.216 20.5869C50.216 20.5869 50.2323 20.5772 50.2421 20.574C50.2551 20.5676 50.2682 20.5644 50.2812 20.5547C50.3008 20.5451 50.3171 20.5322 50.3301 20.5161C50.3367 20.5097 50.3432 20.5065 50.3497 20.5001C50.353 20.4969 50.353 20.4904 50.3562 20.4872C50.366 20.4743 50.3725 20.4583 50.379 20.4454C50.3856 20.4326 50.3921 20.4165 50.3953 20.4036C50.3953 20.3908 50.3953 20.3747 50.3986 20.3618C50.3986 20.3457 50.3986 20.3265 50.3986 20.3104C50.3986 20.3072 50.3986 20.3007 50.3986 20.2975C50.3986 20.2879 50.3888 20.2814 50.3856 20.2718C50.379 20.2557 50.3725 20.2397 50.3627 20.2268C50.353 20.2139 50.3432 20.2011 50.3301 20.1914C50.3236 20.185 50.3171 20.1754 50.3106 20.1689L39.8291 11.8871C39.8291 11.8871 39.8193 11.8839 39.8161 11.8806C39.8063 11.8742 39.7998 11.871 39.79 11.8646C39.7802 11.8581 39.7704 11.8549 39.7574 11.8517C39.7476 11.8517 39.7378 11.8453 39.7313 11.8453C39.7215 11.8453 39.7118 11.8453 39.702 11.8421C39.6955 11.8421 39.6889 11.8388 39.6792 11.8388C39.6759 11.8388 39.6694 11.8388 39.6661 11.8388C39.6563 11.8388 39.6466 11.8388 39.6368 11.8421C39.6303 11.8421 39.627 11.8421 39.6205 11.8421L20.3072 16.3399C20.3072 16.3399 20.2877 16.3495 20.2779 16.3527C20.2616 16.3591 20.2486 16.3656 20.2322 16.372C20.2192 16.3816 20.2062 16.3913 20.1931 16.4042C20.1866 16.4106 20.1768 16.417 20.1703 16.4234C20.167 16.4267 20.167 16.4331 20.1638 16.4363C20.154 16.4492 20.1475 16.4652 20.141 16.4781C20.1344 16.491 20.1279 16.507 20.1247 16.5199C20.1247 16.5328 20.1247 16.5488 20.1214 16.5617C20.1214 16.5778 20.1214 16.5971 20.1214 16.6131C20.1214 16.6163 20.1214 16.6228 20.1214 16.626C20.1214 16.6388 20.1312 16.6485 20.1377 16.6614C20.141 16.671 20.1442 16.6839 20.1507 16.6935C20.1638 16.716 20.1801 16.7353 20.1996 16.7514C20.1996 16.7514 20.2029 16.7578 20.2062 16.761L30.6909 25.0364C30.7137 25.0525 30.7365 25.0654 30.7626 25.075C30.7822 25.0814 30.805 25.0847 30.8245 25.0847C30.8311 25.0847 30.8343 25.0847 30.8408 25.0847C30.8604 25.0847 30.8767 25.0847 30.8963 25.0782L37.0906 23.6347V25.5219L28.9369 27.422L14.289 15.8576L41.5766 9.49833ZM56.5342 24.8468L52.4329 25.8016C52.4329 25.8016 52.4199 25.808 52.4134 25.8113C52.3971 25.8177 52.384 25.8241 52.3677 25.8305C52.3547 25.837 52.3417 25.8466 52.3319 25.8563C52.3254 25.8627 52.3188 25.8659 52.3123 25.8723L44.2141 27.7595V24.3645L56.5375 21.4935V24.8468H56.5342ZM24.2292 44.5033L20.9071 41.8831L33.2305 39.0121L39.4249 37.5685V40.9636L33.1164 42.4328L24.226 44.5033H24.2292ZM16.6167 42.8829L20.304 42.0245L26.3125 46.7666V50.5346L16.6167 42.8829ZM13.989 16.2402L28.6435 27.8078V37.202L26.8048 37.6296V29.6982C26.8048 29.5792 26.7167 29.486 26.6026 29.4667L16.3005 21.336C16.3005 21.336 16.294 21.3263 16.294 21.3199C16.2874 21.307 16.2777 21.2942 16.2679 21.2845C16.2581 21.2717 16.2483 21.2588 16.2353 21.2459C16.232 21.2459 16.2288 21.2395 16.2255 21.2363L13.989 19.4681V16.2402ZM30.9093 24.5928L24.715 19.7027L37.1004 16.8157V23.1492L30.9093 24.5928ZM52.2439 46.8727L50.4051 45.4196V26.8143L52.2439 26.3867V46.876V46.8727ZM39.614 41.4137L45.8083 46.3037L33.4229 49.1908V42.8572L39.614 41.4137ZM16.32 21.9693L20.1214 24.9689V41.5712L16.32 42.4585V21.9693ZM26.3157 37.7453L20.6104 39.0731V25.3547L26.3157 29.8589V37.7453ZM20.6104 39.5683L33.2338 36.6265L37.2862 35.6813L39.1315 37.1377L20.6104 41.4522V39.565V39.5683ZM33.4229 30.772L37.1004 29.9136V35.2312L33.4229 36.0896V30.772ZM39.4314 16.2723V36.7616L37.5894 35.3084V16.6999L39.4314 16.2723ZM49.9161 45.037L40.2203 37.3853L43.9076 36.5269L49.9161 41.269V45.037ZM43.725 28.0682V36.0703L39.9237 36.9577V16.4685L43.725 19.4713V28.0682ZM46.4147 46.1622L39.9204 41.0343V37.7614L49.6162 45.4131L46.4147 46.159V46.1622ZM49.9161 40.6485L44.2141 36.1475V28.2611L49.9161 26.9333V40.6517V40.6485ZM44.2141 19.8571L45.8115 21.1173L44.2141 21.4903V19.8571ZM46.4147 20.9759L39.9204 15.848V12.5783L49.6162 20.23L46.4147 20.9759ZM39.4314 15.774L24.2325 19.3169L20.9104 16.6967L39.4314 12.3822V15.7772V15.774ZM37.1004 29.4185L33.2631 30.3123C33.2371 30.3026 33.2077 30.2962 33.1784 30.2962C33.0447 30.2962 32.9339 30.4055 32.9339 30.5373V36.2021L29.1325 37.0895V27.8817L37.1004 26.0234V29.4185ZM26.3125 46.1462L24.715 44.8827L26.3125 44.5097V46.1429V46.1462ZM33.4229 49.6827L50.0987 45.7957L51.9439 47.2521L33.4229 51.5666V49.6794V49.6827ZM16.2255 46.4194L13.989 44.6512V20.0853L15.831 21.5385V42.7608C15.831 42.7608 15.831 42.7704 15.831 42.7736C15.831 42.7833 15.831 42.7929 15.8343 42.8025C15.8343 42.8058 15.8343 42.8122 15.8343 42.8154C15.8343 42.8218 15.8408 42.8283 15.8441 42.8347C15.8441 42.8443 15.8506 42.854 15.8538 42.8604C15.8538 42.8668 15.8604 42.8733 15.8636 42.8797C15.8701 42.8926 15.8799 42.9022 15.8897 42.9119C15.8962 42.9215 15.9027 42.9279 15.9125 42.9344C15.9125 42.9344 15.9158 42.944 15.919 42.944L26.4038 51.2194C26.4038 51.2194 26.4298 51.2323 26.4396 51.2387C26.4494 51.2451 26.4559 51.2516 26.469 51.2548C26.4983 51.2644 26.5276 51.2709 26.557 51.2709C26.5928 51.2709 26.6254 51.2612 26.658 51.2484C26.6678 51.2451 26.6743 51.2387 26.6809 51.2323C26.7037 51.2194 26.7232 51.2066 26.7395 51.1873C26.7395 51.1873 26.7461 51.1841 26.7493 51.1808C26.7558 51.1712 26.7591 51.1616 26.7656 51.1519C26.7754 51.139 26.7819 51.1262 26.7884 51.1101C26.795 51.094 26.795 51.078 26.7982 51.0619C26.7982 51.0522 26.8048 51.0426 26.8048 51.033V44.394L28.6435 43.9664V56.2188L26.7102 54.6948C26.6776 54.6691 26.6385 54.6563 26.5961 54.6498L16.294 46.5191C16.2777 46.4837 16.2581 46.4484 16.2222 46.4194H16.2255Z" fill="#FFF044"/>
</svg>
