<svg width="70" height="71" viewBox="0 0 70 71" fill="none" xmlns="http://www.w3.org/2000/svg">
<rect x="5.40446" y="5.90442" width="63.6497" height="64.0956" fill="#67FFDB"/>
<rect x="5.40446" y="5.90442" width="63.6497" height="64.0956" stroke="#2B2B2B"/>
<rect x="3.17552" y="3.67529" width="63.6497" height="64.0956" fill="#67FFDB"/>
<rect x="3.17552" y="3.67529" width="63.6497" height="64.0956" stroke="#2B2B2B"/>
<rect x="0.945862" y="1" width="63.6497" height="64.0956" fill="#67FFDB"/>
<path d="M54.5258 12.6324C54.5258 12.6324 54.5424 12.6027 54.549 12.5895C54.5557 12.573 54.5557 12.5598 54.559 12.5433C54.559 12.5268 54.5623 12.5136 54.5623 12.4971C54.5623 12.4806 54.5557 12.4674 54.5524 12.4509C54.549 12.4343 54.5457 12.4211 54.5391 12.4046C54.5324 12.3881 54.5225 12.3782 54.5125 12.365C54.5059 12.3551 54.5026 12.3452 54.4926 12.3353L51.0042 8.86901C51.0042 8.86901 50.9942 8.86571 50.9909 8.86241C50.9876 8.86241 50.9842 8.8558 50.9809 8.8525C50.971 8.8459 50.961 8.8426 50.9511 8.8393C50.9411 8.83269 50.9311 8.82279 50.9212 8.81949C50.9179 8.81949 50.9112 8.81949 50.9046 8.81619C50.888 8.80959 50.8714 8.80959 50.8548 8.80629C50.8448 8.80629 50.8349 8.79968 50.8249 8.79968H15.3993C15.3662 8.79968 15.3363 8.80628 15.3031 8.81949C15.2732 8.83269 15.2467 8.8492 15.2234 8.87231L10.3243 13.7449C10.3243 13.7449 10.311 13.7647 10.3044 13.7746C10.2944 13.7879 10.2845 13.7978 10.2779 13.811C10.2779 13.8143 10.2712 13.8176 10.2712 13.8242C10.2679 13.8341 10.2679 13.8473 10.2646 13.8605C10.2613 13.877 10.2579 13.8902 10.2546 13.9067C10.2546 13.9232 10.2546 13.9364 10.2579 13.9529C10.2579 13.9694 10.2613 13.9826 10.2679 13.9991C10.2679 14.0057 10.2679 14.009 10.2712 14.0156C10.2745 14.0288 10.2845 14.0354 10.2911 14.0486C10.2978 14.0586 10.2978 14.0685 10.3044 14.0751L25.2706 32.7997L10.3044 51.5243C10.3044 51.5243 10.2944 51.5441 10.2911 51.5507C10.2845 51.5606 10.2745 51.5705 10.2712 51.5837C10.2712 51.5903 10.2712 51.5936 10.2679 51.6002C10.2613 51.6167 10.2613 51.6299 10.2579 51.6464C10.2579 51.663 10.2546 51.6762 10.2546 51.6927C10.2546 51.7092 10.2613 51.7224 10.2646 51.7389C10.2646 51.7521 10.2646 51.762 10.2712 51.7752C10.2712 51.7785 10.2779 51.7818 10.2779 51.7884C10.2845 51.8016 10.2944 51.8148 10.3044 51.8247C10.311 51.8346 10.3177 51.8478 10.3243 51.8544L15.2234 56.7271C15.2467 56.7502 15.2732 56.7667 15.3031 56.7799C15.333 56.7931 15.3662 56.7997 15.3993 56.7997H50.8249C50.8548 56.7997 50.8847 56.7931 50.9112 56.7832H50.9179C50.9278 56.7799 50.9344 56.7733 50.9411 56.7667C50.9544 56.7601 50.9677 56.7568 50.9776 56.7469C50.9809 56.7469 50.9842 56.7403 50.9876 56.737C50.9909 56.737 50.9975 56.7337 51.0009 56.7304L54.4893 53.264C54.4893 53.264 54.5026 53.2442 54.5092 53.2343C54.5192 53.2211 54.5291 53.2079 54.5358 53.1947C54.5424 53.1815 54.5457 53.165 54.549 53.1485C54.5524 53.132 54.5557 53.1188 54.559 53.1023C54.559 53.0858 54.559 53.0726 54.5557 53.0561C54.5557 53.0396 54.5524 53.0264 54.5457 53.0099C54.5391 52.9934 54.5325 52.9801 54.5225 52.9669C54.5159 52.957 54.5125 52.9438 54.5059 52.9372L38.4178 32.8096L54.5059 12.6786C54.5059 12.6786 54.5159 12.6588 54.5225 12.6489L54.5258 12.6324ZM26.7908 46.5526H21.1681L50.8482 9.41371L53.9815 12.5301L26.7908 46.5526ZM15.5022 56.2946L11.101 51.9171H40.6749C40.7047 51.9171 40.7346 51.9105 40.7645 51.9006C40.7745 51.8973 40.7844 51.8907 40.7944 51.8841C40.8077 51.8775 40.8209 51.8742 40.8309 51.8643C40.8342 51.8643 40.8375 51.8577 40.8408 51.8544C40.8541 51.8445 40.8641 51.828 40.874 51.8148C40.884 51.8016 40.8939 51.7917 40.9006 51.7785C40.9072 51.7653 40.9105 51.7488 40.9139 51.7356C40.9172 51.7191 40.9238 51.7026 40.9238 51.6861C40.9238 51.6828 40.9238 51.6762 40.9238 51.6729C40.9238 51.663 40.9205 51.653 40.9172 51.6431C40.9172 51.6266 40.9139 51.6101 40.9072 51.5936C40.9006 51.5771 40.8939 51.5639 40.884 51.5474C40.8773 51.5375 40.8774 51.5276 40.8707 51.5177L32.1645 40.6236L34.9759 37.1078L50.3105 56.2979H15.5022V56.2946ZM40.8707 14.0685C40.8707 14.0685 40.8807 14.0486 40.884 14.042C40.8939 14.0288 40.9006 14.0123 40.9072 13.9958C40.9139 13.9793 40.9139 13.9628 40.9172 13.9463C40.9172 13.9364 40.9238 13.9265 40.9238 13.9166C40.9238 13.9133 40.9238 13.9067 40.9238 13.9034C40.9238 13.8869 40.9172 13.8704 40.9139 13.8539C40.9105 13.8407 40.9072 13.8242 40.9006 13.811C40.8939 13.7978 40.884 13.7845 40.874 13.7746C40.8641 13.7614 40.8541 13.7482 40.8408 13.735C40.8375 13.735 40.8342 13.7284 40.8309 13.7251C40.8209 13.7185 40.811 13.7152 40.801 13.7119C40.7877 13.702 40.7711 13.6954 40.7545 13.6888C40.7379 13.6822 40.7214 13.6822 40.7048 13.6789C40.6948 13.6789 40.6848 13.6723 40.6749 13.6723H11.101L15.5022 9.29487H50.3105L20.4578 46.6517C20.4578 46.6517 20.4478 46.6715 20.4445 46.6781C20.4345 46.6913 20.4279 46.7078 20.4213 46.7243C20.4146 46.7408 20.4146 46.7573 20.4113 46.7738C20.4113 46.7837 20.4047 46.7936 20.4047 46.8035C20.4047 46.8068 20.4047 46.8134 20.4047 46.8167C20.4047 46.8332 20.4113 46.8497 20.4146 46.8662C20.4179 46.8795 20.4213 46.896 20.4279 46.9092C20.4345 46.9224 20.4445 46.9356 20.4544 46.9455C20.4644 46.9587 20.4744 46.9719 20.4876 46.9851C20.491 46.9851 20.4943 46.9917 20.4976 46.995C20.5076 47.0049 20.5208 47.0082 20.5341 47.0148C20.5441 47.0214 20.5507 47.028 20.564 47.0313C20.5939 47.0412 20.6237 47.0478 20.6536 47.0478H36.6653L40.1637 51.4253H11.018L40.874 14.0685H40.8707ZM31.8459 24.5664L27.4247 19.0335H36.267L31.8459 24.5664ZM26.7908 19.0335L31.5305 24.9625L28.7192 28.4784L21.1714 19.0302H26.7941L26.7908 19.0335ZM31.8492 41.0198L36.2703 46.5526H27.428L31.8492 41.0198ZM11.018 14.1609H40.1637L36.6653 18.5383H20.6536C20.6536 18.5383 20.6337 18.5416 20.6204 18.5449C20.6038 18.5449 20.5872 18.5482 20.5706 18.5548C20.554 18.5614 20.5408 18.568 20.5242 18.5779C20.5142 18.5845 20.5042 18.5846 20.4976 18.5912C20.4943 18.5912 20.491 18.5978 20.4876 18.6011C20.4744 18.611 20.4644 18.6275 20.4544 18.6407C20.4445 18.6539 20.4345 18.6638 20.4279 18.677C20.4213 18.6902 20.4179 18.7067 20.4146 18.7199C20.4113 18.7364 20.4047 18.7529 20.4047 18.7694C20.4047 18.7727 20.4047 18.7793 20.4047 18.7826C20.4047 18.7925 20.408 18.8024 20.4113 18.8123C20.4113 18.8288 20.4146 18.8453 20.4213 18.8619C20.4279 18.8784 20.4345 18.8916 20.4445 18.9081C20.4511 18.918 20.4511 18.9279 20.4578 18.9345L28.4006 28.8712L25.5892 32.387L11.018 14.1543V14.1609ZM53.9815 53.0561L50.8482 56.1691L35.2945 36.705L38.1058 33.1892L53.9815 53.0561Z" fill="#0057FF"/>
<rect x="0.945862" y="1" width="63.6497" height="64.0956" stroke="#2B2B2B"/>
</svg>
