<svg width="71" height="71" viewBox="0 0 71 71" fill="none" xmlns="http://www.w3.org/2000/svg">
<rect x="5.90448" y="5.90442" width="63.6497" height="64.0956" fill="#FFDB5C"/>
<rect x="5.90448" y="5.90442" width="63.6497" height="64.0956" stroke="#2B2B2B"/>
<rect x="3.67554" y="3.67529" width="63.6497" height="64.0956" fill="#FFDB5C"/>
<rect x="3.67554" y="3.67529" width="63.6497" height="64.0956" stroke="#2B2B2B"/>
<rect x="1.44586" y="1" width="63.6497" height="64.0956" fill="#FFDB5C"/>
<path d="M14.0065 48.864L18.5274 56.638C18.5274 56.638 18.5358 56.6421 18.5399 56.6504C18.5483 56.6629 18.5566 56.6753 18.565 56.6877C18.5775 56.7043 18.5942 56.7168 18.6151 56.7292C18.6276 56.7375 18.6318 56.7499 18.6443 56.7541C18.6443 56.7541 18.6526 56.7541 18.661 56.7582C18.7027 56.779 18.7487 56.7955 18.7987 56.7955H27.8405C27.8906 56.7955 27.9365 56.779 27.9824 56.7582C27.995 56.7541 28.0033 56.7458 28.0158 56.7375C28.0492 56.7168 28.0743 56.6919 28.0951 56.6587C28.0993 56.6504 28.1077 56.6504 28.1118 56.6421L32.5785 48.9593L37.0409 56.6421C37.0409 56.6421 37.0492 56.6463 37.0534 56.6546C37.0618 56.667 37.0701 56.6795 37.0785 56.6919C37.091 56.7085 37.1077 56.7209 37.1286 56.7334C37.1411 56.7416 37.1453 56.7541 37.1578 56.7582C37.1578 56.7582 37.1661 56.7582 37.1745 56.7624C37.2162 56.7831 37.2621 56.7997 37.3122 56.7997H46.354C46.4041 56.7997 46.45 56.7831 46.4959 56.7624C46.5084 56.7582 46.5168 56.7499 46.5293 56.7416C46.5627 56.7209 46.5878 56.696 46.6086 56.6629C46.6128 56.6546 46.6212 56.6546 46.6253 56.6463L51.1462 48.8722C51.1462 48.8722 51.1462 48.8598 51.1504 48.8557C51.1546 48.8432 51.1629 48.8308 51.1671 48.8183C51.1713 48.8059 51.1754 48.7893 51.1796 48.7769C51.1796 48.7645 51.1838 48.752 51.1838 48.7354C51.1838 48.7271 51.1838 48.723 51.1838 48.7188C51.1838 48.7147 51.1838 48.7064 51.1838 48.7022C51.1838 48.6898 51.1838 48.6774 51.1796 48.6608C51.1796 48.6484 51.1713 48.6318 51.1671 48.6193C51.1629 48.6069 51.1587 48.5945 51.1504 48.582C51.1504 48.5779 51.1504 48.5696 51.1462 48.5654L46.6838 40.8868H55.6128C55.6629 40.8868 55.7088 40.8702 55.7548 40.8494C55.7673 40.8453 55.7756 40.837 55.7881 40.8287C55.8215 40.808 55.8466 40.7831 55.8675 40.7499C55.8716 40.7416 55.88 40.7416 55.8842 40.7333L60.405 32.9593C60.405 32.9593 60.405 32.9469 60.4092 32.9427C60.4134 32.9303 60.4217 32.9179 60.4259 32.9054C60.4301 32.893 60.4343 32.8764 60.4384 32.864C60.4384 32.8515 60.4426 32.8391 60.4426 32.8225C60.4426 32.8142 60.4426 32.81 60.4426 32.8059C60.4426 32.8018 60.4426 32.7935 60.4426 32.7893C60.4426 32.7769 60.4426 32.7644 60.4384 32.7479C60.4384 32.7354 60.4301 32.7188 60.4259 32.7064C60.4217 32.694 60.4176 32.6815 60.4092 32.6691C60.4092 32.6649 60.4092 32.6566 60.405 32.6525L55.8842 24.8785C55.8842 24.8785 55.8675 24.8619 55.8591 24.8494C55.8466 24.8328 55.8341 24.8163 55.8174 24.7997C55.8007 24.7872 55.784 24.7748 55.7673 24.7665C55.7506 24.7582 55.7339 24.7458 55.713 24.7416C55.6921 24.7334 55.6713 24.7334 55.6504 24.7292C55.6379 24.7292 55.6253 24.7209 55.6128 24.7209H46.6838L51.1462 17.0422C51.1462 17.0422 51.1462 17.0298 51.1504 17.0256C51.1546 17.0132 51.1629 17.0008 51.1671 16.9883C51.1713 16.9759 51.1754 16.9593 51.1796 16.9469C51.1796 16.9344 51.1838 16.922 51.1838 16.9054C51.1838 16.8971 51.1838 16.893 51.1838 16.8888C51.1838 16.8847 51.1838 16.8764 51.1838 16.8722C51.1838 16.8598 51.1838 16.8474 51.1796 16.8308C51.1796 16.8183 51.1713 16.8018 51.1671 16.7893C51.1629 16.7769 51.1587 16.7644 51.1504 16.752C51.1504 16.7479 51.1504 16.7396 51.1462 16.7354L46.6253 8.96139C46.6253 8.96139 46.6086 8.9448 46.6003 8.93236C46.5878 8.91578 46.5752 8.89919 46.5585 8.88675C46.5418 8.87431 46.5251 8.86188 46.5084 8.85358C46.4917 8.84529 46.4751 8.83285 46.4542 8.82871C46.4333 8.82042 46.4124 8.82042 46.3916 8.81627C46.379 8.81627 46.3665 8.80797 46.354 8.80797H37.3122C37.3122 8.80797 37.2997 8.80797 37.2955 8.80797C37.283 8.80797 37.2705 8.80797 37.2538 8.81212C37.2413 8.81212 37.2246 8.82041 37.212 8.82456C37.1995 8.8287 37.187 8.83285 37.1745 8.84115C37.1703 8.84115 37.162 8.84115 37.1578 8.8453C37.1536 8.8453 37.1494 8.85359 37.1453 8.85773C37.1327 8.86603 37.1244 8.87432 37.1119 8.88261C37.0993 8.8909 37.091 8.90333 37.0826 8.91162C37.0743 8.92406 37.0659 8.93236 37.0576 8.9448C37.0576 8.94895 37.0492 8.95309 37.0451 8.95724L32.5826 16.6359L28.116 8.95724C28.116 8.95724 28.0993 8.94065 28.091 8.92821C28.0784 8.91163 28.0659 8.89505 28.0492 8.87846C28.0325 8.86602 28.0158 8.85359 27.9991 8.8453C27.9824 8.837 27.9657 8.82457 27.9449 8.82042C27.924 8.81213 27.9031 8.81212 27.8823 8.80797C27.8697 8.80797 27.8572 8.79968 27.8447 8.79968H18.8029C18.8029 8.79968 18.7904 8.79968 18.7862 8.79968C18.7737 8.79968 18.7612 8.79969 18.7445 8.80383C18.732 8.80383 18.7153 8.81212 18.7027 8.81627C18.6902 8.82042 18.6777 8.82457 18.6652 8.83286C18.661 8.83286 18.6526 8.83285 18.6485 8.837C18.6443 8.837 18.6401 8.84529 18.6359 8.84943C18.6234 8.85773 18.6151 8.86602 18.6025 8.87431C18.59 8.8826 18.5817 8.89504 18.5733 8.90334C18.565 8.91577 18.5566 8.92407 18.5483 8.93651C18.5483 8.94066 18.5399 8.9448 18.5358 8.94895L14.0149 16.723C14.0149 16.723 14.0065 16.7479 14.0024 16.7603C13.994 16.781 13.9857 16.7976 13.9815 16.8225C13.9815 16.8432 13.9815 16.8598 13.9815 16.8805C13.9815 16.9013 13.9815 16.9179 13.9815 16.9386C13.9815 16.9593 13.994 16.98 14.0024 17.0008C14.0065 17.0132 14.0065 17.0256 14.0149 17.0381L18.4773 24.7168H9.54409C9.54409 24.7168 9.53156 24.7168 9.52739 24.7168C9.51487 24.7168 9.50234 24.7168 9.48565 24.7209C9.47312 24.7209 9.45643 24.7292 9.4439 24.7333C9.43138 24.7375 9.41886 24.7416 9.40633 24.7499C9.40216 24.7499 9.39381 24.7499 9.38963 24.7541C9.38546 24.7541 9.38129 24.7624 9.37711 24.7665C9.36459 24.7748 9.35624 24.7831 9.34372 24.7914C9.33119 24.7997 9.32284 24.8121 9.3145 24.8204C9.30615 24.8329 9.2978 24.8411 9.28945 24.8536C9.28945 24.8577 9.2811 24.8619 9.27693 24.866L4.75187 32.6318C4.75187 32.6318 4.74352 32.6566 4.73935 32.6691C4.731 32.6898 4.72265 32.7064 4.71848 32.7313C4.71848 32.752 4.71848 32.7686 4.71848 32.7893C4.71848 32.8101 4.71848 32.8266 4.71848 32.8474C4.71848 32.8681 4.731 32.8888 4.73935 32.9096C4.74352 32.922 4.74352 32.9344 4.75187 32.9469L9.27275 40.7209C9.27275 40.7209 9.2811 40.725 9.28527 40.7333C9.29362 40.7458 9.30197 40.7582 9.31032 40.7707C9.32284 40.7873 9.33954 40.7997 9.36041 40.8121C9.36876 40.8204 9.37711 40.8328 9.38963 40.837C9.38963 40.837 9.39798 40.837 9.40633 40.8411C9.44808 40.8619 9.49399 40.8785 9.54409 40.8785H18.4731L14.0107 48.5571C14.0107 48.5571 14.0024 48.582 13.9982 48.5945C13.9898 48.6152 13.9815 48.6318 13.9773 48.6566C13.9773 48.6774 13.9773 48.694 13.9773 48.7147C13.9773 48.7354 13.9773 48.752 13.9773 48.7727C13.9773 48.7935 13.9898 48.8142 13.9982 48.8349C14.0024 48.8474 14.0024 48.8598 14.0107 48.8722L14.0065 48.864ZM10.0868 40.2524L14.2445 33.1003H32.0316L27.8739 40.2524H10.0868ZM9.54409 25.6331L13.7018 32.7893L9.54409 39.9414L5.38638 32.7893L9.54409 25.6331ZM14.641 16.864L18.7987 9.71184L27.6944 25.0111L23.5367 32.1633L14.641 16.864ZM37.3122 9.71184L41.4699 16.864L32.5785 32.1633L28.4207 25.0111L37.3164 9.71184H37.3122ZM46.1703 9.40088L50.328 16.553H42.0126L37.8549 9.40088H46.1703ZM55.425 25.3221L59.5827 32.4742H41.7955L37.6378 25.3221H55.425ZM50.328 48.3996H42.0126L33.1211 33.1003H41.4365L50.3322 48.3996H50.328ZM46.1703 56.1736H37.8549L42.0126 49.0215H50.328L46.1703 56.1736ZM33.117 32.4742L37.0952 25.6331L41.0734 32.4742H33.117ZM32.0316 32.4742H24.0752L28.0534 25.6331L32.0316 32.4742ZM32.5743 33.4071L36.5525 40.2482H28.5961L32.5743 33.4071ZM36.5525 40.8702L27.6568 56.1695H19.3414L28.2371 40.8702H36.5525ZM37.0952 41.1811L41.4699 48.7064L37.3122 55.8585L32.9375 48.3332L37.0952 41.1811ZM42.1587 33.0961H59.5869L55.4291 40.2482H46.3206L42.1629 33.0961H42.1587ZM37.6378 24.7002L42.0126 17.1749H50.328L45.9533 24.7002H37.6378ZM28.0576 24.3892L19.3414 9.40088H27.6568L32.2111 17.2371L28.0534 24.3934L28.0576 24.3892ZM22.994 32.4742H14.2445L10.0868 25.3221H18.8363L22.994 32.4742ZM27.5149 40.8702L18.8029 55.8585L14.6452 48.7064L19.1995 40.8702H27.5191H27.5149Z" fill="#FF488A"/>
<rect x="1.44586" y="1" width="63.6497" height="64.0956" stroke="#2B2B2B"/>
</svg>
