<svg width="70" height="70" viewBox="0 0 70 70" fill="none" xmlns="http://www.w3.org/2000/svg">
<g opacity="0.7">
<path d="M4 4H70V70H4V4Z" fill="#F8F7F6"/>
<path fill-rule="evenodd" clip-rule="evenodd" d="M69 5H5V69H69V5ZM4 4V70H70V4H4Z" fill="#2B2B2B"/>
<path d="M2 2H68V68H2V2Z" fill="#F8F7F6"/>
<path fill-rule="evenodd" clip-rule="evenodd" d="M67 3H3V67H67V3ZM2 2V68H68V2H2Z" fill="#2B2B2B"/>
<path d="M0 0H66V66H0V0Z" fill="#F8F7F6"/>
<path fill-rule="evenodd" clip-rule="evenodd" d="M65 1H1V65H65V1ZM0 0V66H66V0H0Z" fill="#2B2B2B"/>
<path d="M33.1942 9.11661L32.9847 9L12 20.9978V45.0022L32.9978 57L54 45.0022V20.9978L33.1942 9.11661ZM32.7578 32.8704L29.0924 34.9737V12.1916L32.7884 10.0754L32.7578 32.8704ZM28.6429 35.2242L24.9469 37.3362V14.5411L28.6429 12.4292V35.2242ZM24.528 37.578L20.8276 39.6899V16.8949L24.528 14.783V37.578ZM20.4087 39.9275L16.7127 42.0394V19.2487L20.4087 17.1324V39.9275ZM32.9978 33.2462L36.6982 35.3624L16.7433 46.7643L13.0473 44.648L32.9978 33.2462ZM37.1171 35.6L40.8131 37.7119L20.8582 49.1137L17.1622 47.0018L37.1171 35.6ZM41.232 37.9537L44.928 40.0657L24.9775 51.4675L21.2815 49.3556L41.232 37.9537ZM45.3469 40.3032L49.0473 42.4195L29.0924 53.8083L25.3964 51.6964L45.3469 40.3032ZM49.4662 42.657L52.9571 44.648L33.0022 56.0499L29.5113 54.0588L49.4662 42.657ZM33.1942 32.8791V28.6552L53.1491 40.057V44.2809L33.1942 32.8791ZM33.1942 28.1758V23.952L53.1491 35.3538V39.5777L33.1942 28.1758ZM33.1942 23.4726V19.2487L53.1622 30.6549V34.883L33.1942 23.4726ZM33.1942 18.7693V14.5411L53.1491 25.943V30.1668L33.1942 18.7693ZM33.1942 14.0617V10.0754L53.1491 21.4772V25.4722L33.1942 14.0617ZM16.3244 19.4862V42.2899L12.8335 44.2809V21.4772L16.3244 19.4862Z" fill="#FF2756"/>
</g>
</svg>
