<svg width="70" height="70" viewBox="0 0 70 70" fill="none" xmlns="http://www.w3.org/2000/svg">
<rect x="5.40445" y="5.40442" width="63.6497" height="64.0956" fill="#563AFF"/>
<rect x="5.40445" y="5.40442" width="63.6497" height="64.0956" stroke="#2B2B2B"/>
<rect x="3.17554" y="3.17529" width="63.6497" height="64.0956" fill="#563AFF"/>
<rect x="3.17554" y="3.17529" width="63.6497" height="64.0956" stroke="#2B2B2B"/>
<rect x="0.945862" y="0.5" width="63.6497" height="64.0956" fill="#563AFF"/>
<rect x="0.945862" y="0.5" width="63.6497" height="64.0956" stroke="#2B2B2B"/>
<path d="M6 51.2574C6.00415 51.2781 6.01244 51.2988 6.02073 51.3195C6.02488 51.332 6.02488 51.3444 6.03317 51.3568L8.91051 56.3425C8.91051 56.3425 8.9188 56.3467 8.92295 56.3549C8.93124 56.3674 8.93953 56.3798 8.94783 56.3922C8.96026 56.4088 8.97685 56.4213 8.99758 56.4337C9.01002 56.442 9.01416 56.4544 9.0266 56.4586C9.0266 56.4586 9.03904 56.4586 9.04318 56.4627C9.08464 56.4834 9.13025 56.5 9.18 56.5H58.1529C58.2026 56.5 58.2482 56.4834 58.2938 56.4627C58.3063 56.4586 58.3146 56.4503 58.327 56.442C58.3602 56.4213 58.3851 56.3964 58.4058 56.3632C58.4099 56.3549 58.4182 56.3549 58.4224 56.3467L61.3039 51.361C61.3039 51.361 61.3039 51.3486 61.308 51.3444C61.3122 51.332 61.3204 51.3195 61.3246 51.3071C61.3287 51.2947 61.3329 51.2781 61.337 51.2657C61.337 51.2532 61.3412 51.2408 61.3412 51.2242C61.3412 51.2159 61.3412 51.2118 61.3412 51.2076C61.3412 51.2035 61.3412 51.1952 61.3412 51.1911C61.3412 51.1786 61.3412 51.1662 61.337 51.1496C61.337 51.1372 61.3287 51.1206 61.3246 51.1082C61.3204 51.0958 61.3163 51.0833 61.308 51.0709C61.308 51.0667 61.308 51.0585 61.3039 51.0543L36.8174 8.65334C36.8174 8.65334 36.8008 8.63262 36.7925 8.62433C36.7801 8.60775 36.7677 8.59118 36.7511 8.57874C36.7345 8.56631 36.7179 8.55388 36.7013 8.54559C36.6848 8.5373 36.6682 8.52901 36.6516 8.52072C36.6309 8.51243 36.6101 8.51243 36.5894 8.50829C36.577 8.50829 36.5645 8.5 36.5521 8.5H30.7932C30.7932 8.5 30.7808 8.5 30.7767 8.5C30.7642 8.5 30.7518 8.5 30.7352 8.50414C30.7186 8.50414 30.7062 8.51243 30.6937 8.51658C30.6813 8.52072 30.6689 8.52487 30.6564 8.53315C30.6523 8.53315 30.644 8.53315 30.6398 8.5373C30.6357 8.5373 30.6316 8.54559 30.6274 8.54973C30.615 8.55802 30.6067 8.56631 30.5942 8.5746C30.5818 8.58289 30.5735 8.59532 30.5652 8.60361C30.5569 8.61604 30.5486 8.62433 30.5403 8.63676C30.5403 8.64091 30.532 8.64505 30.5279 8.6492L6.03731 51.0419C6.03731 51.0419 6.02902 51.0667 6.02488 51.0792C6.01658 51.0999 6.00829 51.1206 6.00415 51.1413C6.00415 51.1621 6.00415 51.1786 6.00415 51.1994C6.00415 51.2201 6.00415 51.2367 6.00415 51.2574H6ZM36.3697 9.11751L60.4954 50.8885H18.3635L20.8842 46.5245H52.3941C52.4438 46.5245 52.4894 46.5079 52.535 46.4872C52.5392 46.4872 52.5433 46.4872 52.5516 46.4872C52.564 46.4789 52.5682 46.4706 52.5806 46.4624C52.5972 46.4499 52.6138 46.4375 52.6304 46.4209C52.6428 46.4043 52.6553 46.3878 52.6635 46.3712C52.6718 46.3546 52.6843 46.338 52.6884 46.3173C52.6967 46.2966 52.6967 46.2759 52.7009 46.2551C52.7009 46.2427 52.7092 46.2303 52.7092 46.2178C52.7092 46.2095 52.7092 46.2054 52.7092 46.2013C52.7092 46.1805 52.7009 46.1598 52.6967 46.1391C52.6926 46.1184 52.6843 46.0977 52.676 46.0811C52.676 46.0769 52.676 46.0686 52.6718 46.0645L31.3281 9.11751H36.3697ZM57.9746 55.8742H9.72313L30.7891 19.3997L33.3099 23.7637L17.555 51.0419C17.555 51.0419 17.555 51.0543 17.5508 51.0585C17.5425 51.0792 17.5384 51.0958 17.5301 51.1165C17.526 51.1372 17.5177 51.1579 17.5177 51.1786C17.5177 51.1869 17.5177 51.1911 17.5177 51.1952C17.5177 51.2076 17.5218 51.2201 17.526 51.2325C17.526 51.2532 17.5301 51.274 17.5384 51.2947C17.5467 51.3154 17.555 51.332 17.5633 51.3486C17.5716 51.3651 17.584 51.3817 17.5964 51.3983C17.6089 51.4149 17.6255 51.4273 17.6462 51.4397C17.6586 51.448 17.6628 51.4605 17.6752 51.4646C17.6794 51.4646 17.6835 51.4646 17.6918 51.4646C17.7333 51.4853 17.7789 51.5019 17.8328 51.5019H60.5037L57.9829 55.8659L57.9746 55.8742ZM46.0962 45.9029H21.2408L33.6664 24.3853L46.0921 45.9029H46.0962ZM30.7891 9.42834L51.8551 45.9029H46.8135L31.0586 18.6247C31.0586 18.6247 31.0503 18.6164 31.0462 18.6122C31.0337 18.5957 31.0213 18.5791 31.0047 18.5667C30.9881 18.5501 30.9757 18.5376 30.9591 18.5252C30.9549 18.5252 30.9508 18.5169 30.9466 18.5128C30.9342 18.5045 30.9218 18.5045 30.9093 18.5003C30.8886 18.4921 30.872 18.4838 30.8471 18.4796C30.8264 18.4796 30.8098 18.4796 30.7891 18.4796C30.7684 18.4796 30.7518 18.4796 30.7311 18.4796C30.7103 18.4838 30.6896 18.4921 30.6689 18.5003C30.6564 18.5045 30.644 18.5045 30.6316 18.5128C30.6274 18.5128 30.6233 18.5211 30.6191 18.5252C30.6025 18.5376 30.5859 18.5501 30.5735 18.5667C30.5569 18.5832 30.5445 18.5957 30.532 18.6122C30.532 18.6164 30.5238 18.6205 30.5196 18.6247L9.18415 55.5634L6.66336 51.1994L30.7891 9.42834Z" fill="#FFF044"/>
</svg>
