<svg width="70" height="70" viewBox="0 0 70 70" fill="none" xmlns="http://www.w3.org/2000/svg">
<g opacity="0.7">
<path d="M4 4H70V70H4V4Z" fill="#F8F7F6"/>
<path fill-rule="evenodd" clip-rule="evenodd" d="M69 5H5V69H69V5ZM4 4V70H70V4H4Z" fill="#2B2B2B"/>
<path d="M2 2H68V68H2V2Z" fill="#F8F7F6"/>
<path fill-rule="evenodd" clip-rule="evenodd" d="M67 3H3V67H67V3ZM2 2V68H68V2H2Z" fill="#2B2B2B"/>
<path d="M0 0H66V66H0V0Z" fill="#F8F7F6"/>
<path fill-rule="evenodd" clip-rule="evenodd" d="M65 1H1V65H65V1ZM0 0V66H66V0H0Z" fill="#2B2B2B"/>
<path d="M33.0153 9L12 20.9978V45.0022L32.7927 56.8791L33.0022 57L54 45.0022V20.9978L33.0153 9ZM53.1753 38.9687L34.6211 54.8751L53.1753 31.9851V38.9687ZM33.6218 53.3549L38.6182 13.1591L43.344 15.8627L33.6218 53.3549ZM43.7236 16.0786L48.5673 18.8427L33.9535 53.7349L43.7236 16.0786ZM33.2247 53.1476V10.0754L38.2211 12.9345L33.2247 53.1476ZM32.7884 53.1476L27.7877 12.9302L32.7884 10.0711V53.1476ZM32.3913 53.3505L22.6647 15.8584L27.3949 13.1548L32.3913 53.3505ZM32.0553 53.7306L17.4458 18.8384L22.2851 16.0743L32.0553 53.7306ZM12.8553 22.3669L31.4662 54.2705L12.8727 31.307L12.8553 22.3669ZM12.8553 31.9635L31.4094 54.8535L12.8727 38.9687L12.8553 31.9635ZM53.1796 31.3027L34.5687 54.2705L53.1796 22.3669V31.3027ZM53.1796 21.5377L34.4422 53.6615L48.9338 19.05L53.1796 21.4729V21.5377ZM17.1011 19.05L31.5927 53.6615L12.8727 21.542V21.4772L17.1011 19.05ZM12.8727 39.5172L30.3971 54.5339L12.8727 44.5098V39.5172ZM35.6727 54.5339L53.1971 39.5172V44.5098L35.6727 54.5339Z" fill="#FF2756"/>
</g>
</svg>
