<svg width="70" height="70" viewBox="0 0 70 70" fill="none" xmlns="http://www.w3.org/2000/svg">
<g opacity="0.7">
<path d="M4 4H70V70H4V4Z" fill="#F8F7F6"/>
<path fill-rule="evenodd" clip-rule="evenodd" d="M69 5H5V69H69V5ZM4 4V70H70V4H4Z" fill="#2B2B2B"/>
<path d="M2 2H68V68H2V2Z" fill="#F8F7F6"/>
<path fill-rule="evenodd" clip-rule="evenodd" d="M67 3H3V67H67V3ZM2 2V68H68V2H2Z" fill="#2B2B2B"/>
<path d="M0 0H66V66H0V0Z" fill="#F8F7F6"/>
<path fill-rule="evenodd" clip-rule="evenodd" d="M65 1H1V65H65V1ZM0 0V66H66V0H0Z" fill="#2B2B2B"/>
<path d="M16.9988 24.3656L17.0251 18.1255L12 20.9979V37.2108L16.9988 40.0962V24.3656ZM16.1561 24.3656V38.6448L12.8426 36.7328V21.4802L16.1737 19.5769L16.1561 24.3656Z" fill="#FF2756"/>
<path d="M38.0161 11.8724L32.991 9L18.8111 17.1043L18.7891 22.8403L32.5478 14.975L38.0161 11.8724ZM19.6361 21.3846V17.5867L32.9735 9.96035L36.3045 11.868L32.1089 14.245L19.6361 21.3846Z" fill="#FF2756"/>
<path d="M17.442 42.3949L12 39.2574V45.0021L26.18 53.1065L31.2007 50.2602L17.442 42.3949ZM12.8426 44.5198V40.7088L17.0207 43.1205L29.511 50.2602L26.18 52.1461L12.8426 44.5198Z" fill="#FF2756"/>
<path d="M39.8025 12.8936L34.7818 15.7399C44.1473 21.0891 50.5812 24.7784 53.9868 26.7426V20.9979L39.8025 12.8936ZM53.1223 25.2869C49.6859 23.3097 44.0947 20.1027 36.4451 15.7268L39.7718 13.8452L53.1223 21.4802V25.2869Z" fill="#FF2756"/>
<path d="M27.9662 54.1276L32.9912 57L47.1712 48.9131L47.1932 43.1814L33.4345 51.0467L27.9662 54.1276ZM46.3461 44.6154V48.4133L32.9912 56.0397L29.6602 54.1276L33.8558 51.7507L46.3461 44.6154Z" fill="#FF2756"/>
<path d="M48.9837 41.6344L48.9617 47.8745L54 45.0022V28.7892L48.9969 25.9038L48.9837 41.6344ZM49.8263 41.6344V27.3552L53.1398 29.2672V44.5198L49.8088 46.4232L49.8263 41.6344Z" fill="#FF2756"/>
</g>
</svg>
