<svg width="215" height="179" viewBox="0 0 215 179" fill="none" xmlns="http://www.w3.org/2000/svg">
<rect x="0.231748" y="0.35001" width="174.352" height="62.9347" transform="matrix(0.980953 0.199433 -0.200992 0.978544 27.9757 40.639)" fill="#FF2756" stroke="#2B2B2B" stroke-width="0.594256"/>
<rect x="0.231748" y="0.35001" width="165.38" height="57.566" transform="matrix(0.980953 0.199433 -0.200992 0.978544 31.8365 44.1605)" fill="#FF2756" stroke="#2B2B2B" stroke-width="0.594256"/>
<rect x="0.231748" y="0.35001" width="154.614" height="52.1974" transform="matrix(0.980953 0.199433 -0.200992 0.978544 36.5774 47.8607)" fill="#FF2756" stroke="#2B2B2B" stroke-width="0.594256"/>
<path d="M49.9219 63.304L44.5385 89.5133L40.548 88.702L45.9314 62.4927L49.9219 63.304ZM51.5527 63.6355L55.1548 64.3679L55.6932 79.1201L58.5803 65.0643L62.2176 65.8038L56.8343 92.0131L53.5853 91.3526L52.8683 75.4998L49.7714 90.5772L46.1693 89.8449L51.5527 63.6355ZM58.4466 92.3409L63.8299 66.1316L72.9057 67.9767L72.1243 71.7813L67.039 70.7475L65.6208 77.6521L69.6466 78.4705L68.829 82.4512L64.8032 81.6328L62.4371 93.1522L58.4466 92.3409ZM83.6992 76.153L80.6964 90.7724C79.8522 94.8823 77.7351 96.5926 74.3449 95.9034L73.6739 95.767C70.2367 95.0682 68.9401 92.6638 69.7843 88.5539L72.7799 73.9697C73.6047 69.9538 75.724 68.2928 79.1378 68.9868L79.8087 69.1233C81.6451 69.4966 82.8456 70.2789 83.4102 71.4702C83.9985 72.6663 84.0948 74.2272 83.6992 76.153ZM76.5774 90.2286L79.6743 75.1512C79.9492 73.8126 79.6276 73.0499 78.7094 72.8632C77.7677 72.6718 77.1594 73.2454 76.8844 74.584L73.7876 89.6614C73.5126 91.0001 73.8577 91.7675 74.823 91.9638C75.7176 92.1456 76.3024 91.5673 76.5774 90.2286ZM89.6439 75.0863L88.1606 82.3079L89.22 82.5233C90.1853 82.7195 90.7957 82.1953 91.0514 80.9506L91.8039 77.2869C91.9293 76.6763 91.9244 76.2227 91.7891 75.9261C91.6538 75.6295 91.2919 75.4213 90.7033 75.3016L89.6439 75.0863ZM87.3936 86.042L84.9914 97.7376L81.0008 96.9263L86.3842 70.717L92.8467 72.0308C94.2122 72.3085 95.1477 72.8289 95.6531 73.5923C96.1869 74.3369 96.3042 75.4372 96.0051 76.8933L95.05 81.5434C94.6882 83.3047 93.8823 84.303 92.6322 84.5382C93.6797 85.2894 94.0611 86.3578 93.7765 87.7434L91.888 96.9378C91.7385 97.6658 91.7353 98.338 91.8785 98.9543L91.8423 99.1304L87.8871 98.3263C87.715 97.8509 87.7326 97.1083 87.94 96.0985L89.5608 88.2075C89.6863 87.5969 89.6789 87.155 89.5388 86.8819C89.4035 86.5852 89.0298 86.3747 88.4177 86.2502L87.3936 86.042ZM92.9677 99.3592L98.3511 73.1499L103.472 74.1909L102.535 88.4231L107.321 74.9735L112.088 75.9428L106.705 102.152L102.962 101.391L106.442 84.4466L100.56 100.903L98.9711 100.58L100.015 83.1399L96.5344 100.084L92.9677 99.3592ZM114.989 103.836L115.472 98.7967L112.541 98.2008L111.033 103.032L107.467 102.307L116.064 76.751L120.796 77.713L118.838 104.619L114.989 103.836ZM116.782 84.8973L113.768 94.3766L115.851 94.8002L116.782 84.8973ZM122.859 78.1326L133.524 80.3008L132.743 84.1054L129.388 83.4234L124.786 105.828L120.831 105.024L125.433 82.6192L122.078 81.9372L122.859 78.1326ZM138.656 81.3441L133.273 107.553L129.282 106.742L134.665 80.5328L138.656 81.3441ZM142.529 103.894L143.781 97.7995L147.701 98.5964L146.456 104.656C145.68 108.437 143.702 110.004 140.524 109.358L139.641 109.178C136.369 108.513 135.111 106.337 135.868 102.65L139.153 86.6564C139.462 85.1534 140.094 83.9853 141.05 83.1521C142.011 82.2954 143.327 82.0369 144.999 82.3768L145.917 82.5635C146.953 82.7741 147.781 83.1014 148.401 83.5455C149.045 83.9944 149.459 84.5435 149.645 85.1929C149.83 85.8422 149.912 86.4583 149.89 87.0411C149.897 87.6052 149.823 88.263 149.669 89.0145L148.707 93.6998L144.787 92.9028L145.735 88.288C145.971 87.1373 145.642 86.4709 144.747 86.2891C144.276 86.1933 143.918 86.2672 143.672 86.5108C143.454 86.7356 143.282 87.1533 143.157 87.7639L139.958 103.335C139.712 104.532 140.013 105.217 140.861 105.39C141.732 105.567 142.288 105.068 142.529 103.894ZM157.004 84.8174L157.745 84.9682C159.37 85.2984 160.46 85.8994 161.017 86.771C161.574 87.6426 161.691 88.8652 161.367 90.4387L160.485 94.7365L156.635 93.9539L157.41 90.1845C157.622 89.1512 157.351 88.5579 156.598 88.4048C156.151 88.3138 155.816 88.3925 155.593 88.6408C155.37 88.8891 155.191 89.3421 155.056 89.9997L154.955 90.4929C154.801 91.2444 154.774 91.9118 154.875 92.495C154.976 93.0782 155.269 93.8596 155.755 94.8391L157.624 98.6322C158.296 100.017 158.706 101.188 158.852 102.148C159.003 103.084 158.929 104.28 158.63 105.736L158.456 106.581C157.617 110.668 155.479 112.362 152.041 111.663L151.265 111.505C148.016 110.844 146.731 108.858 147.411 105.547L148.489 100.298L152.445 101.102L151.504 105.682C151.253 106.903 151.563 107.602 152.434 107.779C152.905 107.875 153.269 107.778 153.525 107.487C153.809 107.178 154.035 106.612 154.204 105.79L154.327 105.191C154.525 104.229 154.583 103.47 154.5 102.915C154.418 102.36 154.12 101.541 153.607 100.458L151.73 96.6999C151.128 95.4521 150.759 94.3249 150.622 93.3185C150.514 92.2934 150.597 91.1115 150.872 89.7729L151.046 88.9274C151.745 85.5221 153.731 84.1521 157.004 84.8174ZM168.871 109.176L165.657 108.522L166.525 104.295C166.762 103.144 167.006 102.313 167.258 101.802C167.511 101.29 168.001 100.632 168.731 99.826L170.11 98.308C170.579 97.8162 170.906 97.3567 171.092 96.9297C171.282 96.4791 171.46 95.8546 171.624 95.0561L172.015 93.1538C172.121 92.6371 172.122 92.2705 172.02 92.0539C171.922 91.8138 171.673 91.6531 171.273 91.5717C170.872 91.4903 170.592 91.5434 170.431 91.7308C170.274 91.8948 170.143 92.2351 170.037 92.7517L169.169 96.979L165.355 96.2037L166.223 91.9763C166.565 90.3089 167.132 89.1029 167.923 88.3584C168.718 87.5904 169.963 87.3788 171.658 87.7234L172.435 87.8813C174.177 88.2355 175.305 88.893 175.819 89.8538C176.357 90.8194 176.459 92.1124 176.126 93.7329L175.591 96.3397C175.263 97.9367 174.41 99.4025 173.032 100.737L171.534 102.121C170.885 102.772 170.437 103.341 170.19 103.829C169.947 104.294 169.717 105.054 169.5 106.111L168.871 109.176ZM168.937 110.107L168.011 114.616L164.338 113.869L165.264 109.36L168.937 110.107Z" fill="white"/>
</svg>
