<svg width="237" height="222" viewBox="0 0 237 222" fill="none" xmlns="http://www.w3.org/2000/svg">
<rect x="0.150074" y="0.391629" width="193.996" height="70.1925" transform="matrix(0.91472 0.407176 -0.409638 0.910872 43.9499 38.9377)" fill="#FFF044" stroke="#2B2B2B" stroke-width="0.594256"/>
<rect x="0.150074" y="0.391629" width="184.017" height="64.2105" transform="matrix(0.91472 0.407176 -0.409638 0.910872 47.2886 43.694)" fill="#FFF044" stroke="#2B2B2B" stroke-width="0.594256"/>
<rect x="0.150074" y="0.391629" width="172.043" height="58.2285" transform="matrix(0.91472 0.407176 -0.409638 0.910872 51.5402 48.8561)" fill="#FFF044" stroke="#2B2B2B" stroke-width="0.594256"/>
<path d="M66.2209 66.6504L78.1707 71.9696L75.9218 76.9702L69.2262 73.9897L65.1658 83.0185L70.42 85.3573L68.067 90.5894L62.8128 88.2506L58.336 98.2054L65.3105 101.31L62.9575 106.542L50.7288 101.099L66.2209 66.6504ZM76.2334 104.061L79.8357 96.0504L84.9969 98.3478L81.4154 106.312C79.1804 111.281 75.9706 112.835 71.7858 110.972L70.6234 110.455C66.3147 108.537 65.2501 105.155 67.4295 100.308L76.883 79.2874C77.7714 77.3119 79.0032 75.8967 80.5781 75.0418C82.167 74.1561 84.0618 74.203 86.2627 75.1827L87.4716 75.7208C88.8355 76.328 89.8767 77.0322 90.5952 77.8337C91.3447 78.6489 91.7474 79.5321 91.8033 80.4831C91.8592 81.4342 91.7826 82.3077 91.5735 83.1038C91.4092 83.8827 91.1049 84.7661 90.6607 85.7538L87.8913 91.9119L82.7301 89.6145L85.4579 83.549C86.1381 82.0365 85.8892 81.0181 84.7113 80.4937C84.0913 80.2178 83.5741 80.2098 83.1595 80.4698C82.7898 80.7128 82.4245 81.2355 82.0636 82.0381L72.8599 102.503C72.152 104.078 72.356 105.113 73.4719 105.61C74.6188 106.12 75.5393 105.604 76.2334 104.061ZM106.433 93.6084L97.792 112.823C95.3627 118.225 91.9161 119.933 87.4524 117.946L86.569 117.553C82.0433 115.538 80.9951 111.83 83.4244 106.428L92.045 87.2592C94.4188 81.9808 97.853 80.342 102.348 82.3428L103.231 82.736C105.649 83.8123 107.064 85.2572 107.476 87.0707C107.919 88.898 107.572 91.0773 106.433 93.6084ZM92.2782 110.814L101.19 90.9967C101.982 89.2372 101.773 88.0884 100.564 87.5503C99.324 86.9984 98.3084 87.6021 97.5171 89.3616L88.605 109.179C87.8137 110.938 88.0535 112.101 89.3245 112.666C90.5024 113.191 91.487 112.573 92.2782 110.814ZM111.81 86.9437L116.553 89.0548L112.754 109.537L121.063 91.0625L125.852 93.1943L110.36 127.643L106.082 125.738L109.973 103.686L101.06 123.503L96.3177 121.392L111.81 86.9437ZM138.809 108.02L130.167 127.235C127.738 132.637 124.292 134.344 119.828 132.357L118.944 131.964C114.419 129.949 113.37 126.241 115.8 120.839L124.42 101.671C126.794 96.3923 130.228 94.7535 134.723 96.7543L135.607 97.1475C138.024 98.2238 139.439 99.6687 139.852 101.482C140.295 103.31 139.947 105.489 138.809 108.02ZM124.654 125.225L133.566 105.408C134.357 103.649 134.148 102.5 132.939 101.962C131.699 101.41 130.684 102.014 129.892 103.773L120.98 123.59C120.189 125.35 120.429 126.512 121.7 127.078C122.878 127.602 123.862 126.985 124.654 125.225ZM128.693 135.803L144.185 101.355L150.927 104.356L145.255 123.67L155.995 106.612L162.273 109.407L146.78 143.855L141.852 141.661L151.867 119.39L138.69 140.253L136.598 139.322L143.405 115.623L133.389 137.894L128.693 135.803ZM177.736 116.29L164.075 134.382L157.641 148.689L152.387 146.35L158.842 131.997L163.136 109.791L168.251 112.068L164.88 126.016L172.993 114.179L177.736 116.29ZM178.46 149.454L174.228 147.571L176.727 142.014C177.407 140.502 178 139.432 178.505 138.805C179.011 138.178 179.89 137.421 181.145 136.534L183.513 134.866C184.312 134.332 184.904 133.799 185.292 133.268C185.694 132.706 186.131 131.9 186.603 130.851L187.727 128.35C188.032 127.671 188.148 127.167 188.073 126.837C188.012 126.477 187.718 126.179 187.191 125.944C186.664 125.71 186.26 125.697 185.98 125.906C185.714 126.084 185.429 126.512 185.123 127.191L182.625 132.748L177.603 130.512L180.102 124.956C181.087 122.764 182.24 121.277 183.559 120.494C184.893 119.679 186.675 119.769 188.907 120.762L189.93 121.218C192.224 122.239 193.578 123.49 193.991 124.97C194.435 126.465 194.178 128.277 193.22 130.407L191.679 133.833C190.735 135.932 189.108 137.689 186.796 139.106L184.304 140.553C183.209 141.251 182.416 141.898 181.924 142.494C181.447 143.06 180.896 144.037 180.271 145.426L178.46 149.454ZM178.264 150.756L175.599 156.683L170.763 154.53L173.429 148.604L178.264 150.756Z" fill="#2B2B2B"/>
</svg>
