<svg width="244" height="155" viewBox="0 0 244 155" fill="none" xmlns="http://www.w3.org/2000/svg">
<rect x="0.383267" y="0.17399" width="217.85" height="78.5965" transform="matrix(0.936434 -0.350138 0.353471 0.935712 5.47969 78.9134)" fill="#75EB3E" stroke="#2B2B2B" stroke-width="0.594256"/>
<rect x="0.383267" y="0.17399" width="206.648" height="71.9044" transform="matrix(0.936434 -0.350138 0.353471 0.935712 11.9075 80.0834)" fill="#75EB3E" stroke="#2B2B2B" stroke-width="0.594256"/>
<rect x="0.383267" y="0.17399" width="193.205" height="65.2122" transform="matrix(0.936434 -0.350138 0.353471 0.935712 19.3844 80.8612)" fill="#75EB3E" stroke="#2B2B2B" stroke-width="0.594256"/>
<path d="M55.425 117.299L44.9057 89.4519L50.337 87.4211L57.9163 101.374L54.4199 85.8945L59.4766 84.0038L69.9959 111.851L66.0254 113.335L59.2246 95.3321L63.4783 114.288L61.7928 114.918L52.4074 97.8811L59.2082 115.884L55.425 117.299ZM78.7823 108.565L76.241 103.535L73.132 104.698L74.5871 110.134L70.8039 111.548L63.6932 82.4272L68.7125 80.5504L82.8651 107.039L78.7823 108.565ZM69.2102 89.6762L72.0121 100.375L74.2221 99.5489L69.2102 89.6762ZM73.1816 78.8794L77.0023 77.4508L86.277 91.0263L80.6356 76.0923L84.4937 74.6497L95.013 102.497L91.567 103.785L81.4701 89.2782L87.5216 105.298L83.7009 106.726L73.1816 78.8794ZM103.803 99.21L101.261 94.1801L98.1524 95.3426L99.6074 100.779L95.8242 102.193L88.7135 73.0719L93.7328 71.1952L107.885 97.6834L103.803 99.21ZM94.2305 80.321L97.0324 91.02L99.2424 90.1936L94.2305 80.321ZM112.948 96.2176L112.686 96.3157C111.462 96.7732 110.297 96.6679 109.19 95.9998C108.098 95.2975 107.274 94.2102 106.718 92.738L100.143 75.3338C98.6349 71.3414 99.6164 68.6963 103.087 67.3984L103.911 67.0903C105.01 66.6795 105.97 66.5055 106.792 66.5685C107.614 66.6314 108.31 66.9266 108.879 67.454C109.44 67.9564 109.892 68.5133 110.237 69.1247C110.607 69.7268 110.971 70.5019 111.329 71.4501L112.404 74.2947L108.284 75.8353L107.096 72.6913C106.615 71.4187 105.925 70.9505 105.026 71.2866C104.152 71.6134 103.956 72.4131 104.437 73.6857L110.587 89.9671C111.087 91.2896 111.798 91.7781 112.722 91.4326C113.771 91.0404 114.069 90.2455 113.617 89.0478L110.987 82.0861L109.077 82.8004L107.465 78.5335L113.383 76.3207L119.774 93.2383L117.377 94.1347C116.615 93.0241 116.034 92.202 115.633 91.6685C115.678 92.392 115.475 93.2509 115.024 94.2453C114.589 95.2054 113.897 95.8628 112.948 96.2176ZM110.858 64.7918L120.485 61.1924L122.012 65.2347L116.618 67.2515L119.375 74.55L123.608 72.9674L125.206 77.1968L120.973 78.7794L124.013 86.8266L129.631 84.7257L131.229 88.9552L121.378 92.6386L110.858 64.7918ZM132.461 88.4944L121.942 60.6476L127.373 58.6168L134.953 72.5699L131.456 57.0902L136.513 55.1994L147.032 83.0462L143.062 84.5308L136.261 66.5277L140.515 85.4832L138.829 86.1134L129.444 69.0767L136.244 87.0798L132.461 88.4944ZM138.22 54.5612L147.846 50.9618L149.373 55.0041L143.98 57.0209L146.737 64.3194L150.969 62.7368L152.567 66.9662L148.334 68.5488L151.374 76.596L156.993 74.4951L158.59 78.7245L148.739 82.408L138.22 54.5612ZM149.303 50.417L153.124 48.9884L162.399 62.5639L156.757 47.6299L160.616 46.1873L171.135 74.0341L167.689 75.3226L157.592 60.8158L163.643 76.8352L159.823 78.2638L149.303 50.417ZM161.801 45.744L173.113 41.5143L174.64 45.5566L171.082 46.8871L180.074 70.6916L175.879 72.2602L166.887 48.4557L163.328 49.7862L161.801 45.744ZM192.477 59.5186L189.069 60.7931L187.372 56.3017C186.91 55.0791 186.646 54.1528 186.579 53.5228C186.512 52.8929 186.582 51.984 186.788 50.7961L187.182 48.556C187.33 47.8171 187.365 47.1919 187.286 46.6804C187.197 46.144 186.992 45.4516 186.672 44.6033L185.908 42.5821C185.701 42.0332 185.485 41.6869 185.259 41.5433C185.025 41.3748 184.695 41.3699 184.271 41.5286C183.846 41.6873 183.614 41.9023 183.574 42.1736C183.524 42.4199 183.603 42.8175 183.811 43.3664L185.507 47.8579L181.462 49.3705L179.765 44.879C179.096 43.1074 178.912 41.6386 179.212 40.4726C179.503 39.2817 180.548 38.3501 182.346 37.6778L183.17 37.3697C185.018 36.6787 186.469 36.6345 187.523 37.2371C188.602 37.8303 189.467 38.9878 190.117 40.7095L191.163 43.4792C191.804 45.176 191.874 47.0579 191.372 49.1249L190.787 51.3088C190.564 52.3033 190.481 53.1031 190.539 53.7081C190.587 54.2881 190.823 55.1395 191.247 56.2624L192.477 59.5186ZM193.093 60.3563L194.903 65.1472L191.007 66.6037L189.197 61.8129L193.093 60.3563Z" fill="#2B2B2B"/>
</svg>
