<svg width="206" height="178" viewBox="0 0 206 178" fill="none" xmlns="http://www.w3.org/2000/svg">
<rect x="29.6403" y="38.3199" width="153.291" height="88.6716" transform="rotate(4.57866 29.6403 38.3199)" fill="#FFF044" stroke="#2B2B2B" stroke-width="1.20069"/>
<rect x="33.3873" y="42.7176" width="145.12" height="80.5014" transform="rotate(4.57866 33.3873 42.7176)" fill="#FFF044" stroke="#2B2B2B" stroke-width="1.20069"/>
<rect x="37.872" y="47.1749" width="135.465" height="72.3312" transform="rotate(4.57866 37.872 47.1749)" fill="#FFF044" stroke="#2B2B2B" stroke-width="1.20069"/>
<path d="M52.4215 88.3398L53.2653 77.803C52.0163 80.9164 50.5288 84.3321 48.8028 88.05L52.4215 88.3398ZM43.7915 93.1116L44.1879 88.1625C48.3977 79.2877 52.0334 71.1167 55.095 63.6496L60.3102 64.0673L58.3285 88.8129L62.0005 89.1069L61.5658 94.535L57.8938 94.241L57.1267 103.82L51.2197 103.347L51.9868 93.7679L43.7915 93.1116ZM63.2771 109.133L60.297 108.894C60.9783 107.52 61.4787 105.954 61.7981 104.194L59.5098 104.011L60.0553 97.199L65.643 97.6465L65.2424 102.649C65.0379 105.203 64.3828 107.365 63.2771 109.133ZM74.6438 87.388L68.7368 86.915L70.4884 65.0431L85.2825 66.2278L84.8052 72.1881L75.9181 71.4763L75.2064 80.3635C76.691 77.8759 78.4089 76.7102 80.3602 76.8665L80.573 76.8835C82.0276 77 83.055 77.5465 83.6552 78.5229C84.2583 79.4638 84.5072 80.5906 84.4021 81.9033L83.0426 98.8793C82.875 100.972 82.1298 102.698 80.8071 104.056C79.4872 105.379 77.621 105.943 75.2085 105.75L74.091 105.66C71.3592 105.442 69.4974 104.614 68.5056 103.178C67.5521 101.709 67.1477 100.07 67.2926 98.2607L67.9447 90.1186L74.1178 90.6129L73.5595 97.5843C73.4373 99.1098 73.9084 99.9152 74.9727 100C75.9661 100.08 76.5239 99.357 76.646 97.8314L77.6561 85.2192C77.7811 83.6582 77.3824 82.8407 76.46 82.7668C75.5021 82.6901 74.9606 83.4323 74.8356 84.9933L74.6438 87.388ZM89.9699 106.45L93.1407 66.8571L105.221 67.8245L104.761 73.5719L98.6939 73.0861L95.9834 106.932L89.9699 106.45ZM122.401 77.9303L120.632 100.015C120.135 106.224 117.332 109.123 112.223 108.714L111.212 108.633C106.032 108.218 103.691 104.907 104.188 98.6982L105.952 76.6666C106.438 70.5999 109.253 67.7726 114.398 68.1845L115.409 68.2655C118.176 68.4871 120.082 69.4253 121.128 71.0801C122.209 72.7377 122.634 75.0211 122.401 77.9303ZM114.478 99.9507L116.302 77.1741C116.464 75.1519 115.853 74.0853 114.469 73.9745C113.05 73.8609 112.26 74.8152 112.098 76.8374L110.274 99.614C110.112 101.636 110.758 102.706 112.213 102.822C113.561 102.93 114.316 101.973 114.478 99.9507ZM136.232 115.778L136.679 110.191L126.249 109.355L125.801 114.943L120.32 114.504L121.249 102.903L122.58 103.01C123.365 101.68 123.995 100.052 124.47 98.1266C125.287 94.6214 126.316 85.117 127.557 69.6133L142.671 70.8236L139.981 104.403L142.642 104.616L141.713 116.217L136.232 115.778ZM130.098 98.738C129.746 100.459 129.227 102.042 128.54 103.487L133.968 103.922L136.197 76.0894L132.738 75.8124C131.812 87.3781 130.932 95.02 130.098 98.738ZM153.714 111.555L153.513 104.041L149.096 103.687L147.754 111.078L142.379 110.647L150.393 71.4421L157.524 72.0131L159.515 112.019L153.714 111.555ZM152.923 83.3202L150.207 97.8311L153.347 98.0826L152.923 83.3202Z" fill="#2B2B2B"/>
</svg>
