<svg width="173" height="127" viewBox="0 0 173 127" fill="none" xmlns="http://www.w3.org/2000/svg">
<rect x="0.735144" y="40.4099" width="153.291" height="88.6716" transform="rotate(-15 0.735144 40.4099)" fill="#75EB3E" stroke="#2B2B2B" stroke-width="1.20069"/>
<rect x="5.73917" y="43.2978" width="145.12" height="80.5014" transform="rotate(-15 5.73917 43.2978)" fill="#75EB3E" stroke="#2B2B2B" stroke-width="1.20069"/>
<rect x="11.4582" y="45.9946" width="135.465" height="72.3312" transform="rotate(-15 11.4582 45.9946)" fill="#75EB3E" stroke="#2B2B2B" stroke-width="1.20069"/>
<path d="M42.3356 94.5857L32.0554 56.2194L46.1334 52.4472L47.6257 58.0165L39.3748 60.2273L41.862 69.5094L45.2654 68.5975C49.2533 67.5289 51.8783 69.3496 53.1403 74.0594L55.7518 83.8057C56.369 86.1091 56.3437 87.9398 55.6758 89.2978C54.9988 90.6214 53.6289 91.5596 51.5662 92.1123L42.3356 94.5857ZM46.6705 87.455L48.1659 87.0543C48.9566 86.8424 49.4296 86.4762 49.5849 85.9555C49.7402 85.4349 49.7027 84.7449 49.4724 83.8854L47.607 76.9238C47.3583 75.9956 47.0366 75.3449 46.6418 74.9716C46.2722 74.5548 45.6748 74.457 44.8497 74.678L43.3543 75.0787L46.6705 87.455ZM49.1799 51.6309L62.4328 48.0798L63.925 53.6491L56.4993 55.6388L59.1937 65.6945L65.0209 64.1331L66.5822 69.9602L60.7551 71.5216L63.7259 82.6086L71.461 80.536L73.0224 86.3632L59.4601 89.9972L49.1799 51.6309ZM71.566 53.7019L73.1965 59.7869L67.4725 61.3207L65.7315 54.8231C65.1327 52.5885 65.2164 50.6317 65.9824 48.9526C66.7484 47.2734 68.2315 46.1391 70.4317 45.5496L71.6178 45.2318C74.1274 44.5593 76.0843 44.6429 77.4884 45.4826C78.8925 46.3224 79.8985 47.8767 80.5065 50.1457L82.2198 56.5401C82.9199 59.1528 82.4133 61.1125 80.7 62.419C83.1188 62.5078 84.7382 64.0821 85.558 67.1418L87.755 75.341C88.2893 77.335 88.1734 79.1715 87.4074 80.8506C86.6321 82.4954 85.0413 83.6401 82.6348 84.285L81.0877 84.6995C78.9563 85.2706 77.0921 85.0516 75.4952 84.0425C73.9327 83.0241 72.9212 81.6555 72.4606 79.9366L70.2084 71.531L75.9324 69.9973L77.8806 77.2683C78.2491 78.6435 79.0693 79.1606 80.3413 78.8198C81.579 78.4882 82.0135 77.6348 81.6451 76.2596L79.5586 68.4729C79.227 67.2353 78.4596 66.7777 77.2563 67.1001L74.6264 67.8048L73.065 61.9777L75.695 61.273C76.5888 61.0335 76.787 59.9855 76.2896 58.1291L74.8664 52.8176C74.4518 51.2706 73.6945 50.6445 72.5944 50.9392C71.4943 51.234 71.1515 52.1549 71.566 53.7019ZM86.4455 41.6456L99.6984 38.0945L101.191 43.6638L93.765 45.6535L96.4594 55.7092L102.287 54.1478L103.848 59.9749L98.0208 61.5363L100.992 72.6233L108.727 70.5507L110.288 76.3779L96.7258 80.0119L86.4455 41.6456ZM111.68 76.0049L101.4 37.6386L113.106 34.502L114.598 40.0713L108.719 41.6465L117.507 74.4435L111.68 76.0049ZM131.615 37.3908L137.888 60.8025C139.334 66.1999 137.668 69.5388 132.889 70.8193L131.6 71.1647C126.959 72.4083 123.897 70.2626 122.414 64.7277L120.618 58.0239L126.342 56.4901L128.152 63.2455C128.612 64.9644 129.479 65.6535 130.751 65.3126C131.988 64.981 132.372 63.9386 131.902 62.1853L129.471 53.1094L123.592 54.6846L122.03 48.8574L127.909 47.2822L125.795 39.3924C125.556 38.4985 125.248 37.8994 124.871 37.5949C124.52 37.2469 124.001 37.1649 123.313 37.3492C122.007 37.6992 121.579 38.7165 122.031 40.4011L123.606 46.2798L117.882 47.8135L116.279 41.8317C115.984 40.7316 115.8 39.7677 115.725 38.9402C115.676 38.069 115.76 37.1439 115.976 36.1646C116.193 35.1854 116.74 34.3388 117.617 33.6247C118.529 32.9015 119.741 32.3372 121.254 31.9319L122.594 31.5726C125.001 30.9278 126.952 31.1971 128.448 32.3806C129.97 33.5205 131.025 35.1906 131.615 37.3908Z" fill="#2B2B2B"/>
</svg>
