<svg width="70" height="70" viewBox="0 0 70 70" fill="none" xmlns="http://www.w3.org/2000/svg">
<g opacity="0.7">
<path d="M4 4H70V70H4V4Z" fill="#8F00FF"/>
<path fill-rule="evenodd" clip-rule="evenodd" d="M69 5H5V69H69V5ZM4 4V70H70V4H4Z" fill="#2B2B2B"/>
<path d="M2 2H68V68H2V2Z" fill="#8F00FF"/>
<path fill-rule="evenodd" clip-rule="evenodd" d="M67 3H3V67H67V3ZM2 2V68H68V2H2Z" fill="#2B2B2B"/>
<path d="M0 0H66V66H0V0Z" fill="#8F00FF"/>
<path fill-rule="evenodd" clip-rule="evenodd" d="M65 1H1V65H65V1ZM0 0V66H66V0H0Z" fill="#2B2B2B"/>
<path fill-rule="evenodd" clip-rule="evenodd" d="M28.8089 45.3384C32.7035 45.3384 35.8811 42.178 35.8811 38.2543C35.8811 34.3305 32.7035 31.1701 28.8089 31.1701C24.9144 31.1701 21.7368 34.3305 21.7368 38.2543C21.7368 42.178 24.9144 45.3384 28.8089 45.3384ZM28.8089 46.2829C33.243 46.2829 36.8376 42.6884 36.8376 38.2543C36.8376 33.8201 33.243 30.2256 28.8089 30.2256C24.3748 30.2256 20.7803 33.8201 20.7803 38.2543C20.7803 42.6884 24.3748 46.2829 28.8089 46.2829Z" fill="#FFDB59"/>
<path fill-rule="evenodd" clip-rule="evenodd" d="M37.3099 34.0037C41.2044 34.0037 44.3821 30.8432 44.3821 26.9195C44.3821 22.9958 41.2044 19.8354 37.3099 19.8354C33.4154 19.8354 30.2378 22.9958 30.2378 26.9195C30.2378 30.8432 33.4154 34.0037 37.3099 34.0037ZM37.3099 34.9482C41.744 34.9482 45.3386 31.3536 45.3386 26.9195C45.3386 22.4854 41.744 18.8909 37.3099 18.8909C32.8758 18.8909 29.2812 22.4854 29.2812 26.9195C29.2812 31.3536 32.8758 34.9482 37.3099 34.9482Z" fill="#FFDB59"/>
<path fill-rule="evenodd" clip-rule="evenodd" d="M57.903 13.7288C58.1013 11.6138 57.6667 10.1385 56.7642 9.23592C55.8616 8.33335 54.3863 7.89878 52.2712 8.09708C50.1638 8.29466 47.5658 9.11269 44.6355 10.5221C38.7834 13.3369 31.8012 18.4156 25.1083 25.1084C18.4155 31.8012 13.3368 38.7835 10.522 44.6356C9.11262 47.5658 8.29458 50.1639 8.097 52.2713C7.89871 54.3864 8.33328 55.8617 9.23584 56.7642C10.1384 57.6668 11.6137 58.1014 13.7288 57.9031C15.8361 57.7055 18.4342 56.8874 21.3645 55.478C27.2166 52.6633 34.1988 47.5846 40.8917 40.8917C47.5845 34.1989 52.6632 27.2167 55.478 21.3645C56.8874 18.4343 57.7054 15.8362 57.903 13.7288ZM41.5638 41.5638C55.0595 28.0681 62.1659 13.2935 57.4362 8.56383C52.7066 3.8342 37.932 10.9406 24.4362 24.4363C10.9405 37.9321 3.83412 52.7067 8.56375 57.4363C13.2934 62.1659 28.068 55.0596 41.5638 41.5638Z" fill="#FFDB59"/>
<path fill-rule="evenodd" clip-rule="evenodd" d="M50.7014 17.9182C50.981 16.4747 50.7455 15.6938 50.3687 15.317C49.9919 14.9402 49.2111 14.7047 47.7676 14.9843C46.3634 15.2562 44.5703 15.9768 42.4958 17.1293C38.3586 19.4278 33.2965 23.3346 28.3154 28.3156C23.3344 33.2967 19.4276 38.3587 17.1291 42.4959C15.9767 44.5704 15.2561 46.3636 14.9841 47.7678C14.7046 49.2112 14.94 49.9921 15.3168 50.3689C15.6936 50.7457 16.4745 50.9812 17.918 50.7016C19.3222 50.4297 21.1153 49.7091 23.1898 48.5566C27.327 46.2582 32.3891 42.3513 37.3701 37.3703C42.3512 32.3893 46.258 27.3272 48.5564 23.19C49.7089 21.1155 50.4295 19.3223 50.7014 17.9182ZM38.0422 38.0424C48.0927 27.9919 53.9124 17.5165 51.0408 14.6449C48.1692 11.7734 37.6938 17.593 27.6433 27.6435C17.5928 37.694 11.7732 48.1694 14.6448 51.041C17.5163 53.9126 27.9917 48.0929 38.0422 38.0424Z" fill="#FFDB59"/>
<path fill-rule="evenodd" clip-rule="evenodd" d="M41.5249 25.0457C41.6592 24.3523 41.5087 24.1515 41.4809 24.1238C41.4531 24.096 41.2523 23.9454 40.559 24.0797C39.9049 24.2064 39.032 24.5515 37.9868 25.1322C35.9081 26.287 33.3408 28.2649 30.8029 30.8027C28.265 33.3406 26.2872 35.9079 25.1323 37.9866C24.5517 39.0318 24.2066 39.9048 24.0799 40.5588C23.9456 41.2521 24.0962 41.4529 24.124 41.4807C24.1517 41.5085 24.3525 41.659 25.0459 41.5247C25.6999 41.3981 26.5729 41.053 27.6181 40.4723C29.6968 39.3175 32.264 37.3396 34.8019 34.8017C37.3398 32.2639 39.3177 29.6966 40.4725 27.6179C41.0532 26.5727 41.3983 25.6997 41.5249 25.0457ZM35.474 35.4738C40.6382 30.3096 43.6285 24.9272 42.153 23.4517C40.6775 21.9762 35.295 24.9665 30.1308 30.1306C24.9667 35.2948 21.9764 40.6773 23.4519 42.1528C24.9273 43.6283 30.3098 40.638 35.474 35.4738Z" fill="#FFDB59"/>
<path d="M21.7246 21.7246H33.0592V33.0592H21.7246V21.7246Z" fill="#8F00FF"/>
<path fill-rule="evenodd" clip-rule="evenodd" d="M32.1027 22.6692H22.6811V32.1146H32.1027V22.6692ZM21.7246 21.7246V33.0592H33.0592V21.7246H21.7246Z" fill="#FFDB59"/>
<path d="M33.0596 33.0591H44.3942V44.3937H33.0596V33.0591Z" fill="#8F00FF"/>
<path fill-rule="evenodd" clip-rule="evenodd" d="M43.4376 34.0036H34.0161V43.4491H43.4376V34.0036ZM33.0596 33.0591V44.3937H44.3942V33.0591H33.0596Z" fill="#FFDB59"/>
</g>
</svg>
