<svg width="70" height="70" viewBox="0 0 70 70" fill="none" xmlns="http://www.w3.org/2000/svg">
<g opacity="0.7">
<path d="M4 4H70V70H4V4Z" fill="#8F00FF"/>
<path fill-rule="evenodd" clip-rule="evenodd" d="M69 5H5V69H69V5ZM4 4V70H70V4H4Z" fill="#2B2B2B"/>
<path d="M2 2H68V68H2V2Z" fill="#8F00FF"/>
<path fill-rule="evenodd" clip-rule="evenodd" d="M67 3H3V67H67V3ZM2 2V68H68V2H2Z" fill="#2B2B2B"/>
<path d="M0 0H66V66H0V0Z" fill="#8F00FF"/>
<path fill-rule="evenodd" clip-rule="evenodd" d="M65 1H1V65H65V1ZM0 0V66H66V0H0Z" fill="#2B2B2B"/>
<path d="M17.6777 24.6421H26.6672V40.3658H17.6777V24.6421Z" fill="#8F00FF"/>
<path fill-rule="evenodd" clip-rule="evenodd" d="M17.2053 24.1703H27.1396V40.8376H17.2053V24.1703ZM18.15 25.1139V39.894H26.1949V25.1139H18.15Z" fill="#FFDB59"/>
<path d="M17.6777 40.4371H30.1405V45.8689H17.6777V40.4371Z" fill="#8F00FF"/>
<path fill-rule="evenodd" clip-rule="evenodd" d="M17.2053 39.9653H30.6128V46.3407H17.2053V39.9653ZM18.15 40.9089V45.3971H29.6681V40.9089H18.15Z" fill="#FFDB59"/>
<path d="M17.6777 13.564H24.0112V24.642L17.6777 24.6421V13.564Z" fill="#8F00FF"/>
<path fill-rule="evenodd" clip-rule="evenodd" d="M17.2053 13.0922H24.4836V25.1138H17.2053V13.0922ZM18.15 14.0358V24.1702H23.5389V14.0358H18.15Z" fill="#FFDB59"/>
<path d="M26.6672 24.6421H32.1835V34.2907H26.6671L26.6672 24.6421Z" fill="#8F00FF"/>
<path fill-rule="evenodd" clip-rule="evenodd" d="M26.1948 24.1703H32.6558V34.7625H26.1948V24.1703ZM27.1395 25.1139V33.8189H31.7111V25.1139H27.1395Z" fill="#FFDB59"/>
<path d="M17.6776 7.84639H20.9465V13.5641L17.6777 13.564L17.6776 7.84639Z" fill="#8F00FF"/>
<path fill-rule="evenodd" clip-rule="evenodd" d="M17.2052 7.37457H21.4189V14.0359H17.2052V7.37457ZM18.1499 8.3182V13.0923H20.4742V8.3182H18.1499Z" fill="#FFDB59"/>
<path d="M26.6671 34.2907L30.1404 34.2906V40.3657L26.6672 40.3658L26.6671 34.2907Z" fill="#8F00FF"/>
<path fill-rule="evenodd" clip-rule="evenodd" d="M26.1948 33.8188H30.6127V40.8375H26.1948V33.8188ZM27.1395 34.7625V39.8939H29.668V34.7625H27.1395Z" fill="#FFDB59"/>
<path d="M20.9469 11.0626H22.3771V13.5641L20.9465 13.5641L20.9469 11.0626Z" fill="#8F00FF"/>
<path fill-rule="evenodd" clip-rule="evenodd" d="M20.4745 10.5908H22.8494V14.0359H20.4745V10.5908ZM21.4192 11.5344V13.0923H21.9047V11.5344H21.4192Z" fill="#FFDB59"/>
<path d="M32.1835 24.6421H33.6137V27.1436H32.1835L32.1835 24.6421Z" fill="#8F00FF"/>
<path fill-rule="evenodd" clip-rule="evenodd" d="M31.7112 24.1703H34.086V27.6154H31.7112V24.1703ZM32.6559 25.1139V26.6718H33.1413V25.1139H32.6559Z" fill="#FFDB59"/>
<path d="M32.5286 45.8688V55.2664H21.3761L21.3761 45.8688L32.5286 45.8688Z" fill="#8F00FF"/>
<path fill-rule="evenodd" clip-rule="evenodd" d="M33.0009 45.397V55.7382H20.9037L20.9037 45.397H33.0009ZM32.0562 46.3406H21.8484L21.8484 54.7946H32.0562L32.0562 46.3406Z" fill="#FFDB59"/>
<path d="M21.325 45.8688L21.325 58.8973H17.4724L17.4724 45.8688H21.325Z" fill="#8F00FF"/>
<path fill-rule="evenodd" clip-rule="evenodd" d="M21.7974 45.397L21.7974 59.3691H17L17 45.397H21.7974ZM20.8527 46.3406H17.9447L17.9447 58.4255H20.8527L20.8527 46.3406Z" fill="#FFDB59"/>
<path d="M40.3857 45.8688V52.4899H32.5282L32.5286 45.8688H40.3857Z" fill="#8F00FF"/>
<path fill-rule="evenodd" clip-rule="evenodd" d="M40.858 45.397V52.9617H32.0559L32.0559 45.397H40.858ZM39.9133 46.3406H33.0006V52.018H39.9133V46.3406Z" fill="#FFDB59"/>
<path d="M32.5286 55.2664V61.0331H25.685L25.685 55.2663L32.5286 55.2664Z" fill="#8F00FF"/>
<path fill-rule="evenodd" clip-rule="evenodd" d="M33.0009 54.7945L33.0009 61.5049H25.2126V54.7945H33.0009ZM32.0562 55.7382H26.1573L26.1573 60.5612H32.0562V55.7382Z" fill="#FFDB59"/>
<path d="M44.4415 45.8688V49.2861H40.3861L40.3857 45.8688H44.4415Z" fill="#8F00FF"/>
<path fill-rule="evenodd" clip-rule="evenodd" d="M44.9139 45.397V49.7579H39.9137V45.397H44.9139ZM43.9692 46.3406H40.8584V48.8143H43.9692V46.3406Z" fill="#FFDB59"/>
<path d="M25.685 55.2663L25.6847 58.8972H21.3758L21.3761 55.2664L25.685 55.2663Z" fill="#8F00FF"/>
<path fill-rule="evenodd" clip-rule="evenodd" d="M26.1571 54.7945V59.3691L20.9035 59.3691V54.7945H26.1571ZM25.2124 55.7382H21.8482V58.4254H25.2124V55.7382Z" fill="#FFDB59"/>
<path d="M42.1599 49.2861V50.7812H40.3857L40.3861 49.2861L42.1599 49.2861Z" fill="#8F00FF"/>
<path fill-rule="evenodd" clip-rule="evenodd" d="M42.6323 48.8143V51.253H39.9133V48.8143H42.6323ZM41.6876 49.758H40.858V50.3094H41.6876V49.758Z" fill="#FFDB59"/>
<path d="M32.5286 61.0331V62.5282H30.7543V61.0331L32.5286 61.0331Z" fill="#8F00FF"/>
<path fill-rule="evenodd" clip-rule="evenodd" d="M33.0009 60.5613V63H30.2819V60.5613H33.0009ZM32.0562 61.5049H31.2267V62.0564H32.0562V61.5049Z" fill="#FFDB59"/>
<path d="M44.4415 19.7668H32.9164V15.147H44.4415V19.7668Z" fill="#8F00FF"/>
<path fill-rule="evenodd" clip-rule="evenodd" d="M44.9139 20.2387H32.444V14.6752H44.9139V20.2387ZM43.9692 19.295V15.6188H33.3887V19.295H43.9692Z" fill="#FFDB59"/>
<path d="M44.4415 15.1261H28.4635V13.5301H44.4415V15.1261Z" fill="#8F00FF"/>
<path fill-rule="evenodd" clip-rule="evenodd" d="M44.9139 15.5979H27.9911V13.0583H44.9139V15.5979ZM43.9692 14.6543V14.0019H28.9358V14.6543H43.9692Z" fill="#FFDB59"/>
<path d="M44.4415 23.0217H36.3215V19.7668L44.4415 19.7668V23.0217Z" fill="#8F00FF"/>
<path fill-rule="evenodd" clip-rule="evenodd" d="M44.9139 23.4936H35.8492V19.295H44.9139V23.4936ZM43.9692 22.5499V20.2387H36.7939V22.5499H43.9692Z" fill="#FFDB59"/>
<path d="M32.9164 19.7668H25.8444V16.9319H32.9166L32.9164 19.7668Z" fill="#8F00FF"/>
<path fill-rule="evenodd" clip-rule="evenodd" d="M33.389 20.2387H25.372V16.4601H33.389V20.2387ZM32.4443 19.295V17.4038H26.3167V19.295H32.4443Z" fill="#FFDB59"/>
<path d="M44.4415 24.7016H40.2506V23.0217L44.4415 23.0217V24.7016Z" fill="#8F00FF"/>
<path fill-rule="evenodd" clip-rule="evenodd" d="M44.9139 25.1734H39.7782V22.5499H44.9139V25.1734ZM43.9692 24.2298V23.4935H40.7229V24.2298H43.9692Z" fill="#FFDB59"/>
<path d="M32.9166 16.9319L28.4637 16.9319V15.147L32.9164 15.147L32.9166 16.9319Z" fill="#8F00FF"/>
<path fill-rule="evenodd" clip-rule="evenodd" d="M33.389 17.4037H27.9914V14.6752H33.389V17.4037ZM32.4443 16.4601V15.6188H28.9361V16.4601H32.4443Z" fill="#FFDB59"/>
<path d="M40.2503 23.7566H38.4168V23.0217L40.2506 23.0217L40.2503 23.7566Z" fill="#8F00FF"/>
<path fill-rule="evenodd" clip-rule="evenodd" d="M40.7226 24.2285H37.9444V22.5499H40.7226V24.2285Z" fill="#FFDB59"/>
<path d="M25.8444 19.7668H24.0106V19.0319H25.8441L25.8444 19.7668Z" fill="#8F00FF"/>
<path fill-rule="evenodd" clip-rule="evenodd" d="M26.3165 20.2387H23.5383V18.5601H26.3165V20.2387Z" fill="#FFDB59"/>
<path d="M37.8267 45.8689V35.2551H42.7271V45.8689H37.8267Z" fill="#8F00FF"/>
<path fill-rule="evenodd" clip-rule="evenodd" d="M37.3544 46.3407V34.7833H43.1994V46.3407H37.3544ZM38.2991 45.3971H42.2547V35.7269H38.2991V45.3971Z" fill="#FFDB59"/>
<path d="M42.7491 45.8689V31.1543H44.442L44.4415 45.8688L42.7491 45.8689Z" fill="#8F00FF"/>
<path fill-rule="evenodd" clip-rule="evenodd" d="M42.2768 46.3407V30.6825H44.9143V46.3407H42.2768ZM43.2215 45.3971H43.9696V31.6261H43.2215V45.3971Z" fill="#FFDB59"/>
<path d="M34.3743 45.8689V38.391H37.8268L37.8267 45.8689H34.3743Z" fill="#8F00FF"/>
<path fill-rule="evenodd" clip-rule="evenodd" d="M33.9019 46.3407V37.9192H38.2991V46.3407H33.9019ZM34.8466 45.3971H37.3544V38.8628H34.8466V45.3971Z" fill="#FFDB59"/>
<path d="M37.8267 35.2551V28.7422H40.8337V35.2552L37.8267 35.2551Z" fill="#8F00FF"/>
<path fill-rule="evenodd" clip-rule="evenodd" d="M37.3544 35.727V28.2703H41.3061V35.727H37.3544ZM38.2991 34.7834H40.3614V29.214H38.2991V34.7834Z" fill="#FFDB59"/>
<path d="M32.5924 45.8689V42.0094H34.3744L34.3743 45.8689H32.5924Z" fill="#8F00FF"/>
<path fill-rule="evenodd" clip-rule="evenodd" d="M32.1201 46.3407V41.5375H34.8467V46.3407H32.1201ZM33.0648 45.3971H33.902V42.4812H33.0648V45.3971Z" fill="#FFDB59"/>
<path d="M40.8337 35.2552L40.8338 31.1544H42.7271L42.7271 35.2551L40.8337 35.2552Z" fill="#8F00FF"/>
<path fill-rule="evenodd" clip-rule="evenodd" d="M40.3614 35.7271V30.6826H43.1994V35.7271H40.3614ZM41.3061 34.7834H42.2547V31.6262H41.3061V34.7834Z" fill="#FFDB59"/>
<path d="M33.5952 42.0093V40.3207H34.3748L34.3744 42.0094L33.5952 42.0093Z" fill="#8F00FF"/>
<path fill-rule="evenodd" clip-rule="evenodd" d="M33.1229 42.4811V39.8489H34.8472V42.4811H33.1229Z" fill="#FFDB59"/>
<path d="M37.8267 28.7422V27.0534H38.6063V28.742L37.8267 28.7422Z" fill="#8F00FF"/>
<path fill-rule="evenodd" clip-rule="evenodd" d="M37.3544 29.2138V26.5816H39.0787V29.2138H37.3544Z" fill="#FFDB59"/>
<path d="M19.714 22.4551H28.7036V38.1788H19.714V22.4551Z" fill="#8F00FF"/>
<path fill-rule="evenodd" clip-rule="evenodd" d="M19.2417 21.9833H29.176V38.6506H19.2417V21.9833ZM20.1864 22.9269V37.707H28.2313V22.9269H20.1864Z" fill="#FFDB59"/>
<path d="M19.714 38.2502H32.1769V43.682H19.714V38.2502Z" fill="#8F00FF"/>
<path fill-rule="evenodd" clip-rule="evenodd" d="M19.2417 37.7784H32.6492V44.1539H19.2417V37.7784ZM20.1864 38.722V43.2102H31.7045V38.722H20.1864Z" fill="#FFDB59"/>
<path d="M19.714 11.377H26.0476V22.4551L19.714 22.4551V11.377Z" fill="#8F00FF"/>
<path fill-rule="evenodd" clip-rule="evenodd" d="M19.2417 10.9052H26.52V22.9269H19.2417V10.9052ZM20.1864 11.8488V21.9832H25.5753V11.8488H20.1864Z" fill="#FFDB59"/>
<path d="M28.7036 22.4551L34.22 22.4551V32.1038H28.7037L28.7036 22.4551Z" fill="#8F00FF"/>
<path fill-rule="evenodd" clip-rule="evenodd" d="M28.2313 21.9833H34.6923V32.5756H28.2313V21.9833ZM29.176 22.927V31.6319H33.7476V22.927H29.176Z" fill="#FFDB59"/>
<path d="M19.714 5.65935H22.983V11.377L19.714 11.377V5.65935Z" fill="#8F00FF"/>
<path fill-rule="evenodd" clip-rule="evenodd" d="M19.2417 5.18753H23.4553V11.8489H19.2417V5.18753ZM20.1864 6.13116V10.9052H22.5106V6.13116H20.1864Z" fill="#FFDB59"/>
<path d="M28.7037 32.1038L32.1769 32.1038V38.1789L28.7036 38.1788L28.7037 32.1038Z" fill="#8F00FF"/>
<path fill-rule="evenodd" clip-rule="evenodd" d="M28.2313 31.632H32.6493V38.6507H28.2313V31.632ZM29.176 32.5756V37.707H31.7045V32.5756H29.176Z" fill="#FFDB59"/>
<path d="M22.9833 8.87565H24.4135V11.3771L22.983 11.377L22.9833 8.87565Z" fill="#8F00FF"/>
<path fill-rule="evenodd" clip-rule="evenodd" d="M22.511 8.40383H24.8858V11.849H22.511V8.40383ZM23.4557 9.34746V10.9053H23.9411V9.34746H23.4557Z" fill="#FFDB59"/>
<path d="M34.22 22.4551L35.6502 22.455V24.9565H34.22L34.22 22.4551Z" fill="#8F00FF"/>
<path fill-rule="evenodd" clip-rule="evenodd" d="M33.7476 21.9832H36.1225V25.4283H33.7476V21.9832ZM34.6923 22.9268V24.4847H35.1778V22.9268H34.6923Z" fill="#FFDB59"/>
<path d="M34.5664 43.6819V53.0795H23.4139L23.4139 43.6819H34.5664Z" fill="#8F00FF"/>
<path fill-rule="evenodd" clip-rule="evenodd" d="M35.0388 43.2101V53.5513H22.9416L22.9416 43.2101H35.0388ZM34.0941 44.1537H23.8863V52.6077H34.0941V44.1537Z" fill="#FFDB59"/>
<path d="M23.363 43.6819L23.363 56.7105H19.5103L19.5103 43.6819L23.363 43.6819Z" fill="#8F00FF"/>
<path fill-rule="evenodd" clip-rule="evenodd" d="M23.8353 43.2101L23.8353 57.1823L19.0379 57.1823L19.0379 43.2101H23.8353ZM22.8906 44.1538H19.9826L19.9826 56.2386H22.8906L22.8906 44.1538Z" fill="#FFDB59"/>
<path d="M42.4235 43.6819L42.4235 50.303H34.5661L34.5664 43.6819L42.4235 43.6819Z" fill="#8F00FF"/>
<path fill-rule="evenodd" clip-rule="evenodd" d="M42.8958 43.2101V50.7748H34.0937V43.2101H42.8958ZM41.9511 44.1538H35.0384V49.8312H41.9511V44.1538Z" fill="#FFDB59"/>
<path d="M34.5664 53.0795V58.8461H27.7229V53.0794L34.5664 53.0795Z" fill="#8F00FF"/>
<path fill-rule="evenodd" clip-rule="evenodd" d="M35.0388 52.6076L35.0388 59.318H27.2505V52.6076H35.0388ZM34.0941 53.5512L28.1952 53.5512L28.1952 58.3743H34.0941V53.5512Z" fill="#FFDB59"/>
<path d="M46.4794 43.6819V47.0992H42.4239L42.4235 43.6819L46.4794 43.6819Z" fill="#8F00FF"/>
<path fill-rule="evenodd" clip-rule="evenodd" d="M46.9517 43.2101V47.571H41.9516V43.2101H46.9517ZM46.007 44.1537H42.8963V46.6274H46.007V44.1537Z" fill="#FFDB59"/>
<path d="M27.7229 53.0794L27.7227 56.7104H23.4138L23.4139 53.0795L27.7229 53.0794Z" fill="#8F00FF"/>
<path fill-rule="evenodd" clip-rule="evenodd" d="M28.195 52.6077V57.1822H22.9414V52.6077H28.195ZM27.2503 53.5513H23.8861V56.2386H27.2503V53.5513Z" fill="#FFDB59"/>
<path d="M44.1978 47.0991V48.5942H42.4235L42.4239 47.0992L44.1978 47.0991Z" fill="#8F00FF"/>
<path fill-rule="evenodd" clip-rule="evenodd" d="M44.6701 46.6273V49.066H41.9512V46.6273H44.6701ZM43.7254 47.5709H42.8959V48.1224H43.7254V47.5709Z" fill="#FFDB59"/>
<path d="M34.5664 58.8461V60.3413H32.7922V58.8462L34.5664 58.8461Z" fill="#8F00FF"/>
<path fill-rule="evenodd" clip-rule="evenodd" d="M35.0388 58.3744V60.8131H32.3198V58.3744H35.0388ZM34.0941 59.318H33.2645V59.8694H34.0941V59.318Z" fill="#FFDB59"/>
<path d="M46.4793 17.5798H34.9542V12.9599H46.4793V17.5798Z" fill="#8F00FF"/>
<path fill-rule="evenodd" clip-rule="evenodd" d="M46.9517 18.0516H34.4818V12.4881H46.9517V18.0516ZM46.007 17.1079V13.4317H35.4266V17.1079H46.007Z" fill="#FFDB59"/>
<path d="M46.4793 12.9389H30.5013V11.3429H46.4793V12.9389Z" fill="#8F00FF"/>
<path fill-rule="evenodd" clip-rule="evenodd" d="M46.9517 13.4107H30.029V10.8711H46.9517V13.4107ZM46.007 12.4671V11.8148H30.9737V12.4671H46.007Z" fill="#FFDB59"/>
<path d="M46.4793 20.8346H38.3594V17.5797L46.4793 17.5798V20.8346Z" fill="#8F00FF"/>
<path fill-rule="evenodd" clip-rule="evenodd" d="M46.9517 21.3065H37.887V17.1079H46.9517V21.3065ZM46.007 20.3628V18.0516H38.8317V20.3628H46.007Z" fill="#FFDB59"/>
<path d="M34.9542 17.5798L27.8823 17.5797V14.7448H34.9545L34.9542 17.5798Z" fill="#8F00FF"/>
<path fill-rule="evenodd" clip-rule="evenodd" d="M35.4268 18.0515H27.4099V14.273H35.4268V18.0515ZM34.4821 17.1079V15.2166H28.3546V17.1079H34.4821Z" fill="#FFDB59"/>
<path d="M46.4794 22.5146H42.2884V20.8346L46.4793 20.8346L46.4794 22.5146Z" fill="#8F00FF"/>
<path fill-rule="evenodd" clip-rule="evenodd" d="M46.9517 22.9864H41.8161V20.3628H46.9517V22.9864ZM46.007 22.0428V21.3064H42.7608V22.0428H46.007Z" fill="#FFDB59"/>
<path d="M34.9545 14.7448L30.5016 14.7449V12.9599L34.9542 12.9599L34.9545 14.7448Z" fill="#8F00FF"/>
<path fill-rule="evenodd" clip-rule="evenodd" d="M35.4268 15.2167H30.0293V12.4881H35.4268V15.2167ZM34.4821 14.2731V13.4318H30.974V14.2731H34.4821Z" fill="#FFDB59"/>
<path d="M42.2882 21.5696H40.4546V20.8346L42.2884 20.8346L42.2882 21.5696Z" fill="#8F00FF"/>
<path fill-rule="evenodd" clip-rule="evenodd" d="M42.7605 22.0414H39.9823V20.3628H42.7605V22.0414Z" fill="#FFDB59"/>
<path d="M27.8823 17.5797L26.0485 17.5798V16.8448H27.8821L27.8823 17.5797Z" fill="#8F00FF"/>
<path fill-rule="evenodd" clip-rule="evenodd" d="M28.3544 18.0516H25.5762V16.373H28.3544V18.0516Z" fill="#FFDB59"/>
<path d="M39.8632 43.682V33.0682H44.7635V43.682H39.8632Z" fill="#8F00FF"/>
<path fill-rule="evenodd" clip-rule="evenodd" d="M39.3908 44.1538V32.5963H45.2358V44.1538H39.3908ZM40.3355 43.2102H44.2911V33.54H40.3355V43.2102Z" fill="#FFDB59"/>
<path d="M44.7856 43.6819V28.9672H46.4784L46.4794 43.6819H44.7856Z" fill="#8F00FF"/>
<path fill-rule="evenodd" clip-rule="evenodd" d="M44.3132 44.1537V28.4954H46.9508V44.1537H44.3132ZM45.2579 43.2101H46.0061V29.4391H45.2579V43.2101Z" fill="#FFDB59"/>
<path d="M36.4111 43.682V36.2041H39.8636L39.8632 43.682H36.4111Z" fill="#8F00FF"/>
<path fill-rule="evenodd" clip-rule="evenodd" d="M35.9388 44.1538V35.7323H40.336V44.1538H35.9388ZM36.8835 43.2102H39.3913V36.6759H36.8835V43.2102Z" fill="#FFDB59"/>
<path d="M39.8632 33.0682V26.5552H42.8702V33.0683L39.8632 33.0682Z" fill="#8F00FF"/>
<path fill-rule="evenodd" clip-rule="evenodd" d="M39.3908 33.5401V26.0834H43.3425V33.5401H39.3908ZM40.3355 32.5965H42.3978V27.0271H40.3355V32.5965Z" fill="#FFDB59"/>
<path d="M34.6289 43.682V39.8224H36.4108L36.4111 43.682H34.6289Z" fill="#8F00FF"/>
<path fill-rule="evenodd" clip-rule="evenodd" d="M34.1565 44.1538V39.3506H36.8832V44.1538H34.1565ZM35.1012 43.2102H35.9385V40.2942H35.1012V43.2102Z" fill="#FFDB59"/>
<path d="M42.8702 33.0683L42.8703 28.9675H44.7636L44.7635 33.0682L42.8702 33.0683Z" fill="#8F00FF"/>
<path fill-rule="evenodd" clip-rule="evenodd" d="M42.3979 33.5401V28.4957H45.2359V33.5401H42.3979ZM43.3426 32.5965H44.2912V29.4393H43.3426V32.5965Z" fill="#FFDB59"/>
<path d="M35.6317 39.8224V38.1339H36.4113L36.4108 39.8224L35.6317 39.8224Z" fill="#8F00FF"/>
<path fill-rule="evenodd" clip-rule="evenodd" d="M35.1594 40.2943V37.6621H36.8837V40.2943H35.1594Z" fill="#FFDB59"/>
<path d="M39.8632 26.5552V24.8664H40.6428V26.555L39.8632 26.5552Z" fill="#8F00FF"/>
<path fill-rule="evenodd" clip-rule="evenodd" d="M39.3908 27.0268V24.3946H41.1151V27.0268H39.3908Z" fill="#FFDB59"/>
<path d="M21.7633 20.2676H30.7528V35.9913H21.7633V20.2676Z" fill="#8F00FF"/>
<path fill-rule="evenodd" clip-rule="evenodd" d="M21.2909 19.7958H31.2252V36.4631H21.2909V19.7958ZM22.2356 20.7394V35.5195H30.2805V20.7394H22.2356Z" fill="#FFDB59"/>
<path d="M21.7633 36.0626H34.2261V41.4944H21.7633V36.0626Z" fill="#8F00FF"/>
<path fill-rule="evenodd" clip-rule="evenodd" d="M21.2909 35.5908H34.6984V41.9662H21.2909V35.5908ZM22.2356 36.5344V41.0226H33.7537V36.5344H22.2356Z" fill="#FFDB59"/>
<path d="M21.7633 9.18948H28.0968V20.2675L21.7633 20.2676V9.18948Z" fill="#8F00FF"/>
<path fill-rule="evenodd" clip-rule="evenodd" d="M21.2909 8.71767H28.5692V20.7393H21.2909V8.71767ZM22.2356 9.6613V19.7957H27.6245V9.6613H22.2356Z" fill="#FFDB59"/>
<path d="M30.7528 20.2676L36.2692 20.2675V29.9161H30.7529L30.7528 20.2676Z" fill="#8F00FF"/>
<path fill-rule="evenodd" clip-rule="evenodd" d="M30.2805 19.7957H36.7416V30.3879H30.2805V19.7957ZM31.2252 20.7393V29.4443H35.7969V20.7393H31.2252Z" fill="#FFDB59"/>
<path d="M21.7633 3.47182H25.0322V9.18952L21.7633 9.18948V3.47182Z" fill="#8F00FF"/>
<path fill-rule="evenodd" clip-rule="evenodd" d="M21.2909 3H25.5046V9.66133H21.2909V3ZM22.2356 3.94363V8.7177H24.5599V3.94363H22.2356Z" fill="#FFDB59"/>
<path d="M30.7529 29.9161L34.2261 29.916V35.9911L30.7528 35.9913L30.7529 29.9161Z" fill="#8F00FF"/>
<path fill-rule="evenodd" clip-rule="evenodd" d="M30.2805 29.4442H34.6985V36.4629H30.2805V29.4442ZM31.2252 30.3878V35.5193H33.7538V30.3878H31.2252Z" fill="#FFDB59"/>
<path d="M25.0326 6.68812H26.4627V9.18961L25.0322 9.18952L25.0326 6.68812Z" fill="#8F00FF"/>
<path fill-rule="evenodd" clip-rule="evenodd" d="M24.5602 6.2163H26.9351V9.66142H24.5602V6.2163ZM25.5049 7.15993V8.71779H25.9904V7.15993H25.5049Z" fill="#FFDB59"/>
<path d="M36.2692 20.2675L37.6994 20.2676V22.7691H36.2692L36.2692 20.2675Z" fill="#8F00FF"/>
<path fill-rule="evenodd" clip-rule="evenodd" d="M35.7969 19.7958H38.1717V23.2409H35.7969V19.7958ZM36.7416 20.7394V22.2973H37.227V20.7394H36.7416Z" fill="#FFDB59"/>
<path d="M36.6147 41.4945V50.8921H25.4622L25.4622 41.4945H36.6147Z" fill="#8F00FF"/>
<path fill-rule="evenodd" clip-rule="evenodd" d="M37.0871 41.0227V51.3639H24.9899L24.9899 41.0227H37.0871ZM36.1423 41.9663H25.9346L25.9346 50.4203H36.1423V41.9663Z" fill="#FFDB59"/>
<path d="M25.4112 41.4945L25.4112 54.523H21.5585L21.5585 41.4945H25.4112Z" fill="#8F00FF"/>
<path fill-rule="evenodd" clip-rule="evenodd" d="M25.8835 41.0227L25.8835 54.9948H21.0861L21.0861 41.0227H25.8835ZM24.9388 41.9663H22.0308L22.0308 54.0512H24.9388L24.9388 41.9663Z" fill="#FFDB59"/>
<path d="M44.4723 41.4945V48.1155H36.6148L36.6147 41.4945H44.4723Z" fill="#8F00FF"/>
<path fill-rule="evenodd" clip-rule="evenodd" d="M44.9446 41.0227V48.5873H36.1425V41.0227H44.9446ZM43.9999 41.9663H37.0872V47.6437H43.9999V41.9663Z" fill="#FFDB59"/>
<path d="M36.6147 50.8921V56.6587H29.7711L29.7711 50.892L36.6147 50.8921Z" fill="#8F00FF"/>
<path fill-rule="evenodd" clip-rule="evenodd" d="M37.0871 50.4202L37.087 57.1305H29.2988V50.4202H37.0871ZM36.1423 51.3638L30.2435 51.3638L30.2435 56.1869H36.1423V51.3638Z" fill="#FFDB59"/>
<path d="M48.5277 41.4945V44.9118H44.4722L44.4723 41.4945H48.5277Z" fill="#8F00FF"/>
<path fill-rule="evenodd" clip-rule="evenodd" d="M49 41.0227V45.3836H43.9999V41.0227H49ZM48.0553 41.9663H44.9446V44.44H48.0553V41.9663Z" fill="#FFDB59"/>
<path d="M29.7711 50.892L29.7709 54.523H25.4619L25.4622 50.8921L29.7711 50.892Z" fill="#8F00FF"/>
<path fill-rule="evenodd" clip-rule="evenodd" d="M30.2432 50.4203V54.9948H24.9896V50.4203H30.2432ZM29.2985 51.3639H25.9343V54.0512H29.2985V51.3639Z" fill="#FFDB59"/>
<path d="M46.2461 44.9119V46.407H44.4718L44.4722 44.9118L46.2461 44.9119Z" fill="#8F00FF"/>
<path fill-rule="evenodd" clip-rule="evenodd" d="M46.7184 44.4401V46.8788H43.9994V44.4401H46.7184ZM45.7737 45.3837H44.9441V45.9352H45.7737V45.3837Z" fill="#FFDB59"/>
<path d="M36.6147 56.6587V58.154H34.8404V56.6589L36.6147 56.6587Z" fill="#8F00FF"/>
<path fill-rule="evenodd" clip-rule="evenodd" d="M37.0871 56.1871V58.6258H34.3681V56.1871H37.0871ZM36.1423 57.1307H35.3128V57.6822H36.1423V57.1307Z" fill="#FFDB59"/>
<path d="M48.5277 15.3924H37.0025V10.7725H48.5277V15.3924Z" fill="#8F00FF"/>
<path fill-rule="evenodd" clip-rule="evenodd" d="M49 15.8642H36.5302V10.3007H49V15.8642ZM48.0553 14.9205V11.2443H37.4749V14.9205H48.0553Z" fill="#FFDB59"/>
<path d="M48.5277 10.7517H32.5496V9.15571H48.5277V10.7517Z" fill="#8F00FF"/>
<path fill-rule="evenodd" clip-rule="evenodd" d="M49 11.2235H32.0773V8.68389H49V11.2235ZM48.0553 10.2798V9.62752H33.022V10.2798H48.0553Z" fill="#FFDB59"/>
<path d="M48.5277 18.6472H40.4077V15.3924L48.5277 15.3924V18.6472Z" fill="#8F00FF"/>
<path fill-rule="evenodd" clip-rule="evenodd" d="M49 19.1191H39.9353V14.9205H49V19.1191ZM48.0553 18.1754V15.8642H40.88V18.1754H48.0553Z" fill="#FFDB59"/>
<path d="M37.0025 15.3924L29.9305 15.3924V12.5575H37.0028L37.0025 15.3924Z" fill="#8F00FF"/>
<path fill-rule="evenodd" clip-rule="evenodd" d="M37.4751 15.8642H29.4582V12.0857H37.4751V15.8642ZM36.5304 14.9206V13.0293H30.4029V14.9206H36.5304Z" fill="#FFDB59"/>
<path d="M48.5277 20.3273H44.3367V18.6473L48.5277 18.6472V20.3273Z" fill="#8F00FF"/>
<path fill-rule="evenodd" clip-rule="evenodd" d="M49 20.7991H43.8643V18.1755H49V20.7991ZM48.0553 19.8555V19.1192H44.809V19.8555H48.0553Z" fill="#FFDB59"/>
<path d="M37.0028 12.5575L32.5499 12.5575V10.7725L37.0025 10.7725L37.0028 12.5575Z" fill="#8F00FF"/>
<path fill-rule="evenodd" clip-rule="evenodd" d="M37.4751 13.0293H32.0775V10.3007H37.4751V13.0293ZM36.5304 12.0856V11.2443H33.0222V12.0856H36.5304Z" fill="#FFDB59"/>
<path d="M44.3364 19.3823H42.5029V18.6473L44.3367 18.6473L44.3364 19.3823Z" fill="#8F00FF"/>
<path fill-rule="evenodd" clip-rule="evenodd" d="M44.8088 19.8541H42.0305V18.1755H44.8088V19.8541Z" fill="#FFDB59"/>
<path d="M29.9305 15.3924L28.0967 15.3924V14.6574H29.9303L29.9305 15.3924Z" fill="#8F00FF"/>
<path fill-rule="evenodd" clip-rule="evenodd" d="M30.4026 15.8642H27.6244V14.1856H30.4026V15.8642Z" fill="#FFDB59"/>
<path d="M41.9124 41.4945V30.8806H46.8127V41.4945H41.9124Z" fill="#8F00FF"/>
<path fill-rule="evenodd" clip-rule="evenodd" d="M41.44 41.9663V30.4088H47.2851V41.9663H41.44ZM42.3847 41.0227H46.3404V31.3524H42.3847V41.0227Z" fill="#FFDB59"/>
<path d="M46.8348 41.4945V26.7798H48.5276L48.5277 41.4945H46.8348Z" fill="#8F00FF"/>
<path fill-rule="evenodd" clip-rule="evenodd" d="M46.3624 41.9663V26.308H49V41.9663H46.3624ZM47.3071 41.0227H48.0553V27.2516H47.3071V41.0227Z" fill="#FFDB59"/>
<path d="M38.4604 41.4945V34.0165H41.9129L41.9124 41.4945H38.4604Z" fill="#8F00FF"/>
<path fill-rule="evenodd" clip-rule="evenodd" d="M37.988 41.9663V33.5447L42.3852 33.5447V41.9663H37.988ZM38.9327 41.0227H41.4405V34.4884H38.9327V41.0227Z" fill="#FFDB59"/>
<path d="M41.9124 30.8806V24.3678H44.9194V30.8809L41.9124 30.8806Z" fill="#8F00FF"/>
<path fill-rule="evenodd" clip-rule="evenodd" d="M41.44 31.3527V23.896H45.3918V31.3527H41.44ZM42.3847 30.409H44.4471V24.8396H42.3847V30.409Z" fill="#FFDB59"/>
<path d="M36.6781 41.4945V37.6349H38.4601L38.4604 41.4945H36.6781Z" fill="#8F00FF"/>
<path fill-rule="evenodd" clip-rule="evenodd" d="M36.2058 41.9663V37.1631H38.9324V41.9663H36.2058ZM37.1505 41.0227H37.9877V38.1067H37.1505V41.0227Z" fill="#FFDB59"/>
<path d="M44.9194 30.8809L44.9195 26.7799H46.8128L46.8127 30.8806L44.9194 30.8809Z" fill="#8F00FF"/>
<path fill-rule="evenodd" clip-rule="evenodd" d="M44.4472 31.3526V26.3081H47.2852V31.3526H44.4472ZM45.3919 30.4089H46.3405V27.2518H45.3919V30.4089Z" fill="#FFDB59"/>
<path d="M37.681 37.635V35.9465H38.4606L38.4601 37.6349L37.681 37.635Z" fill="#8F00FF"/>
<path fill-rule="evenodd" clip-rule="evenodd" d="M37.2086 38.1068V35.4747H38.9329V38.1068H37.2086Z" fill="#FFDB59"/>
<path d="M41.9124 24.3678V22.6792H42.692V24.3678L41.9124 24.3678Z" fill="#8F00FF"/>
<path fill-rule="evenodd" clip-rule="evenodd" d="M41.44 24.8396V22.2074H43.1643V24.8396H41.44Z" fill="#FFDB59"/>
</g>
</svg>
