<svg width="102" height="102" viewBox="0 0 102 102" fill="none" xmlns="http://www.w3.org/2000/svg">
<path opacity="0.7" d="M28.9546 99.5735L1.06583 69.7581M28.9546 99.5735L69.7579 100.933M28.9546 99.5735L34.4651 87.4321M1.06583 69.7581L2.42578 28.9551M1.06583 69.7581L21.869 61.9426M2.42578 28.9551L32.2414 1.06644L73.0447 2.42637M2.42578 28.9551L73.0447 2.42637M2.42578 28.9551L41.6203 26.0329L73.0447 2.42637M2.42578 28.9551L21.869 61.9426M73.0447 2.42637L100.934 32.2418L99.5736 73.0448M99.5736 73.0448L69.7579 100.933M99.5736 73.0448L87.4319 67.5347M69.7579 100.933L61.9424 80.13M69.7579 100.933L87.4319 67.5347M69.7579 100.933L34.4651 87.4321M21.869 61.9426L61.9424 80.13M21.869 61.9426L87.4319 67.5347M87.432 67.5336L99.5733 73.0439L100.933 32.2408M87.432 67.5336L100.933 32.2408M87.432 67.5336L2.42475 28.9539M87.432 67.5336L21.8685 61.9418M87.432 67.5336L41.6195 26.032M87.432 67.5336L73.0439 2.42514M100.933 32.2408L73.0439 2.42514M21.8685 61.9418L2.42475 28.9539M21.8685 61.9418L1.0651 69.7573M21.8685 61.9418L34.4642 87.4315M2.42475 28.9539L41.6195 26.032M61.9424 80.13L87.4319 67.5347M61.9424 80.13L21.87 61.9432L34.4651 87.4321M61.9424 80.13L34.4651 87.4321M41.6195 26.032L73.0439 2.42514M1.0651 69.7573L34.4642 87.4315M1.0651 69.7573L28.9539 99.5728L34.4642 87.4315M2.50452 28.7835L32.4188 1.00067M2.50452 28.7835L1 69.5814M2.50452 28.7835L14.6267 34.337M32.4188 1.00067L73.217 2.50519M32.4188 1.00067L40.1605 21.8316L73.217 2.50519M73.217 2.50519L101 32.4193L99.4955 73.2172M73.217 2.50519L99.4955 73.2172M73.217 2.50519L76.0003 41.7095M99.4955 73.2172L69.5812 101M99.4955 73.2172L76.0003 41.7095M69.5812 101L28.783 99.4955M69.5812 101L34.337 87.3735M28.783 99.4955L1 69.5814M28.783 99.4955L34.337 87.3735M1 69.5814L21.8312 61.8397M1 69.5814L34.337 87.3735M1 69.5814L14.6267 34.337M76.0003 41.7095L73.2179 2.5042M76.0003 41.7095L34.337 87.3735M76.0003 41.7095L99.4964 73.2167M34.337 87.3735L73.2179 2.5042M34.337 87.3735L40.1611 21.8308M34.337 87.3735L21.8312 61.8397M34.337 87.3735L99.4964 73.2167M34.337 87.3735L69.5827 100.999L99.4964 73.2167M40.1611 21.8308L73.2179 2.5042M40.1611 21.8308L32.4194 1M40.1611 21.8308L14.6269 34.336M21.8312 61.8397L40.1594 21.8315L34.3354 87.3735L21.8312 61.8397ZM21.8312 61.8397L14.6267 34.337M32.4194 1L14.6269 34.336M32.4194 1L2.50518 28.7828L14.6269 34.336M14.6267 34.337L40.1599 21.8324L21.831 61.8407L14.6267 34.337Z" stroke="#75EB3E" stroke-linejoin="round"/>
</svg>
