<svg width="102" height="102" viewBox="0 0 102 102" fill="none" xmlns="http://www.w3.org/2000/svg">
<path opacity="0.7" d="M28.9545 99.5735L1.06583 69.7581M28.9545 99.5735L69.7575 100.933M28.9545 99.5735L34.4648 87.4321M1.06583 69.7581L2.42577 28.9551M1.06583 69.7581L21.8689 61.9426M2.42577 28.9551L32.2412 1.06644L73.0442 2.42637M2.42577 28.9551L73.0442 2.42637M2.42577 28.9551L41.62 26.0329L73.0442 2.42637M2.42577 28.9551L21.8689 61.9426M73.0442 2.42637L100.933 32.2418L99.5729 73.0448M99.5729 73.0448L69.7575 100.933M99.5729 73.0448L87.4313 67.5347M69.7575 100.933L61.942 80.13M69.7575 100.933L87.4313 67.5347M69.7575 100.933L34.4648 87.4321M21.8689 61.9426L61.942 80.13M21.8689 61.9426L87.4313 67.5347M87.4314 67.5336L99.5726 73.0439L100.933 32.2408M87.4314 67.5336L100.933 32.2408M87.4314 67.5336L2.42475 28.9539M87.4314 67.5336L21.8684 61.9418M87.4314 67.5336L41.6192 26.032M87.4314 67.5336L73.0434 2.42514M100.933 32.2408L73.0434 2.42514M21.8684 61.9418L2.42475 28.9539M21.8684 61.9418L1.0651 69.7573M21.8684 61.9418L34.464 87.4315M2.42475 28.9539L41.6192 26.032M61.942 80.13L87.4313 67.5347M61.942 80.13L21.8699 61.9432L34.4648 87.4321M61.942 80.13L34.4648 87.4321M41.6192 26.032L73.0434 2.42514M1.0651 69.7573L34.464 87.4315M1.0651 69.7573L28.9537 99.5728L34.464 87.4315M2.50451 28.7835L32.4186 1.00067M2.50451 28.7835L1 69.5814M2.50451 28.7835L14.6266 34.337M32.4186 1.00067L73.2165 2.50519M32.4186 1.00067L40.1603 21.8316L73.2165 2.50519M73.2165 2.50519L100.999 32.4193L99.4948 73.2172M73.2165 2.50519L99.4948 73.2172M73.2165 2.50519L75.9998 41.7095M99.4948 73.2172L69.5807 101M99.4948 73.2172L75.9998 41.7095M69.5807 101L28.7828 99.4955M69.5807 101L34.3368 87.3735M28.7828 99.4955L1 69.5814M28.7828 99.4955L34.3368 87.3735M1 69.5814L21.8311 61.8397M1 69.5814L34.3368 87.3735M1 69.5814L14.6266 34.337M75.9998 41.7095L73.2174 2.5042M75.9998 41.7095L34.3368 87.3735M75.9998 41.7095L99.4957 73.2167M34.3368 87.3735L73.2174 2.5042M34.3368 87.3735L40.1608 21.8308M34.3368 87.3735L21.8311 61.8397M34.3368 87.3735L99.4957 73.2167M34.3368 87.3735L69.5822 100.999L99.4957 73.2167M40.1608 21.8308L73.2174 2.5042M40.1608 21.8308L32.4192 1M40.1608 21.8308L14.6268 34.336M21.8311 61.8397L40.1591 21.8315L34.3352 87.3735L21.8311 61.8397ZM21.8311 61.8397L14.6266 34.337M32.4192 1L14.6268 34.336M32.4192 1L2.50517 28.7828L14.6268 34.336M14.6266 34.337L40.1596 21.8324L21.8308 61.8407L14.6266 34.337Z" stroke="#FFA011" stroke-linejoin="round"/>
</svg>
