<svg width="102" height="102" viewBox="0 0 102 102" fill="none" xmlns="http://www.w3.org/2000/svg">
<path opacity="0.7" d="M28.9545 99.9817L1.06583 70.1663M28.9545 99.9817L69.7575 101.342M28.9545 99.9817L34.4648 87.8403M1.06583 70.1663L2.42577 29.3633M1.06583 70.1663L21.8689 62.3508M2.42577 29.3633L32.2412 1.47465L73.0442 2.83457M2.42577 29.3633L73.0442 2.83457M2.42577 29.3633L41.62 26.4411L73.0442 2.83457M2.42577 29.3633L21.8689 62.3508M73.0442 2.83457L100.933 32.65L99.5729 73.453M99.5729 73.453L69.7575 101.342M99.5729 73.453L87.4313 67.9429M69.7575 101.342L61.942 80.5382M69.7575 101.342L87.4313 67.9429M69.7575 101.342L34.4648 87.8403M21.8689 62.3508L61.942 80.5382M21.8689 62.3508L87.4313 67.9429M87.4314 67.9418L99.5726 73.4521L100.933 32.649M87.4314 67.9418L100.933 32.649M87.4314 67.9418L2.42475 29.3621M87.4314 67.9418L21.8684 62.35M87.4314 67.9418L41.6192 26.4402M87.4314 67.9418L73.0434 2.83334M100.933 32.649L73.0434 2.83334M21.8684 62.35L2.42475 29.3621M21.8684 62.35L1.0651 70.1655M21.8684 62.35L34.464 87.8397M2.42475 29.3621L41.6192 26.4402M61.942 80.5382L87.4313 67.9429M61.942 80.5382L21.8699 62.3514L34.4648 87.8403M61.942 80.5382L34.4648 87.8403M41.6192 26.4402L73.0434 2.83334M1.0651 70.1655L34.464 87.8397M1.0651 70.1655L28.9537 99.981L34.464 87.8397M2.50451 29.1917L32.4186 1.40888M2.50451 29.1917L1 69.9896M2.50451 29.1917L14.6266 34.7452M32.4186 1.40888L73.2165 2.91339M32.4186 1.40888L40.1603 22.2398L73.2165 2.91339M73.2165 2.91339L100.999 32.8275L99.4948 73.6254M73.2165 2.91339L99.4948 73.6254M73.2165 2.91339L75.9998 42.1177M99.4948 73.6254L69.5807 101.408M99.4948 73.6254L75.9998 42.1177M69.5807 101.408L28.7828 99.9037M69.5807 101.408L34.3368 87.7817M28.7828 99.9037L1 69.9896M28.7828 99.9037L34.3368 87.7817M1 69.9896L21.8311 62.2479M1 69.9896L34.3368 87.7817M1 69.9896L14.6266 34.7452M75.9998 42.1177L73.2174 2.91241M75.9998 42.1177L34.3368 87.7817M75.9998 42.1177L99.4957 73.6249M34.3368 87.7817L73.2174 2.91241M34.3368 87.7817L40.1608 22.239M34.3368 87.7817L21.8311 62.2479M34.3368 87.7817L99.4957 73.6249M34.3368 87.7817L69.5822 101.408L99.4957 73.6249M40.1608 22.239L73.2174 2.91241M40.1608 22.239L32.4192 1.4082M40.1608 22.239L14.6268 34.7442M21.8311 62.2479L40.1591 22.2397L34.3352 87.7817L21.8311 62.2479ZM21.8311 62.2479L14.6266 34.7452M32.4192 1.4082L14.6268 34.7442M32.4192 1.4082L2.50517 29.191L14.6268 34.7442M14.6266 34.7452L40.1596 22.2406L21.8308 62.2489L14.6266 34.7452Z" stroke="#753EEB" stroke-linejoin="round"/>
</svg>
