<svg width="87" height="100" viewBox="0 0 87 100" fill="none" xmlns="http://www.w3.org/2000/svg">
<path d="M43.3057 0L0 24.9955V75.0045L42.8739 99.7481L43.3057 100L86.6115 75.0045V24.9955L43.3057 0ZM69.12 83.1024L58.9527 88.9689C48.9154 93.0234 37.6961 93.0234 27.6588 88.9689L17.4915 83.1024C8.93372 76.4374 3.28769 66.7189 1.73654 55.9834V44.0256C3.28549 33.2868 8.93172 23.5647 17.4915 16.8976L27.6318 10.9951C37.6691 6.94059 48.8884 6.94059 58.9257 10.9951L69.0931 16.8616C77.6528 23.5287 83.2991 33.2508 84.848 43.9895V55.9834C83.3037 66.7148 77.6677 76.4327 69.12 83.1024ZM84.875 39.5357C82.9149 31.772 78.8155 24.7143 73.043 19.165L84.875 25.9942V39.5357ZM55.0567 8.78167C47.3782 6.57431 39.2333 6.57431 31.5548 8.78167L43.3057 1.99746L55.0567 8.78167ZM13.5685 19.165C7.79595 24.7143 3.69656 31.772 1.73654 39.5357V25.9942L13.5685 19.165ZM1.73654 60.4823C3.69656 68.2459 7.79595 75.3038 13.5685 80.853L1.73654 73.9788V60.4823ZM31.5548 91.2363C39.2333 93.4437 47.3782 93.4437 55.0567 91.2363L43.3057 98.0205L31.5548 91.2363ZM73.043 80.853C78.8155 75.3038 82.9149 68.2459 84.875 60.4823V73.9788L73.043 80.853Z" fill="#21CFA5"/>
<path d="M43.3068 24.3113C38.2273 24.3166 33.2634 25.8277 29.0425 28.6537C24.8217 31.4796 21.5333 35.4934 19.5932 40.1878C17.653 44.8822 17.1482 50.0464 18.1424 55.0277C19.1366 60.0089 21.5854 64.5836 25.179 68.1735C28.7727 71.7634 33.3499 74.2073 38.3322 75.1963C43.3145 76.1853 48.4782 75.675 53.1706 73.7299C57.8629 71.7849 61.8733 68.4923 64.6948 64.2685C67.5163 60.0447 69.0222 55.0791 69.0222 49.9996C69.0126 43.1849 66.2994 36.6524 61.4782 31.8362C56.6569 27.02 50.1216 24.3137 43.3068 24.3113ZM43.3068 74.8242C38.3966 74.826 33.5962 73.3715 29.5126 70.6449C25.4291 67.9182 22.2458 64.0417 20.3655 59.5058C18.4853 54.9699 17.9924 49.9782 18.9492 45.1621C19.906 40.346 22.2697 35.9219 25.7411 32.4492C29.2125 28.9765 33.6358 26.6113 38.4515 25.6527C43.2673 24.6942 48.2591 25.1852 52.7957 27.0638C57.3324 28.9425 61.2099 32.1243 63.9381 36.2069C66.6662 40.2895 68.1224 45.0894 68.1224 49.9996C68.1129 56.579 65.4957 62.8864 60.8442 67.5396C56.1927 72.1927 49.8862 74.8123 43.3068 74.8242Z" fill="#21CFA5"/>
</svg>
