<svg width="70" height="70" viewBox="0 0 70 70" fill="none" xmlns="http://www.w3.org/2000/svg">
<g opacity="0.7">
<path d="M4 4H70V70H4V4Z" fill="#59AFFF"/>
<path fill-rule="evenodd" clip-rule="evenodd" d="M69 5H5V69H69V5ZM4 4V70H70V4H4Z" fill="#2B2B2B"/>
<path d="M2 2H68V68H2V2Z" fill="#59AFFF"/>
<path fill-rule="evenodd" clip-rule="evenodd" d="M67 3H3V67H67V3ZM2 2V68H68V2H2Z" fill="#2B2B2B"/>
<path d="M0 0H66V66H0V0Z" fill="#59AFFF"/>
<path fill-rule="evenodd" clip-rule="evenodd" d="M65 1H1V65H65V1ZM0 0V66H66V0H0Z" fill="#2B2B2B"/>
<path d="M28.2522 25.125L18.3043 34.75L26.4435 42.625M28.2522 25.125L27.3478 33.875M28.2522 25.125L40.4609 33.875M26.4435 42.625L27.3478 33.875M26.4435 42.625L40.4609 33.875M27.3478 33.875H40.4609M27.3478 15.9375L14.2348 20.3125M27.3478 15.9375L11.5217 30.8125M27.3478 15.9375L36.8435 25.125M27.3478 15.9375L34.5826 12M14.2348 20.3125L11.5217 30.8125M14.2348 20.3125L24.1826 12H34.5826M11.5217 30.8125L7 34.75L14.2348 47.875M11.5217 30.8125L14.2348 47.875M36.8435 25.125L34.5826 12M36.8435 25.125L47.6957 34.75M36.8435 25.125L47.6957 27.3125M34.5826 12L47.6957 27.3125M47.6957 34.75V27.3125M47.6957 34.75L28.2522 47.875M47.6957 34.75L43.1739 47.875M47.6957 27.3125L59 47.875M47.6957 27.3125L51.087 47.875M28.2522 47.875H43.1739M28.2522 47.875H14.2348M28.2522 47.875L18.3043 42.625L14.2348 47.875M28.2522 47.875L43.1739 54M43.1739 47.875H51.087M43.1739 47.875L21.4696 54M59 47.875H51.087M59 47.875L43.1739 54M51.087 47.875L43.1739 54M14.2348 47.875L21.4696 54M21.4696 54H43.1739" stroke="#67FFDB"/>
</g>
</svg>
