<svg width="70" height="70" viewBox="0 0 70 70" fill="none" xmlns="http://www.w3.org/2000/svg">
<g opacity="0.7">
<path d="M4 4H70V70H4V4Z" fill="#59AFFF"/>
<path fill-rule="evenodd" clip-rule="evenodd" d="M69 5H5V69H69V5ZM4 4V70H70V4H4Z" fill="#2B2B2B"/>
<path d="M2 2H68V68H2V2Z" fill="#59AFFF"/>
<path fill-rule="evenodd" clip-rule="evenodd" d="M67 3H3V67H67V3ZM2 2V68H68V2H2Z" fill="#2B2B2B"/>
<path d="M0 0H66V66H0V0Z" fill="#59AFFF"/>
<path fill-rule="evenodd" clip-rule="evenodd" d="M65 1H1V65H65V1ZM0 0V66H66V0H0Z" fill="#2B2B2B"/>
<path fill-rule="evenodd" clip-rule="evenodd" d="M28.7294 8.04357C28.8142 8.00522 28.9082 7.99182 29.0004 8.00493L42.9526 9.99022C43.045 10.0034 43.1318 10.0427 43.2026 10.1034L53.8552 19.2394C53.9268 19.3009 53.9791 19.3816 54.006 19.4721L57.9796 32.8605C58.0066 32.9515 58.0066 33.0484 57.9796 33.1395L54.006 46.5279C53.9791 46.6183 53.9268 46.6991 53.8552 46.7605L43.2026 55.8965C43.1318 55.9573 43.045 55.9966 42.9526 56.0097L29.0004 57.995C28.9082 58.0081 28.8142 57.9947 28.7294 57.9564L15.9077 52.1598C15.8222 52.1212 15.7496 52.0588 15.6985 51.9801L8.07906 40.243C8.02747 40.1635 8.00001 40.0708 8.00001 39.9761V26.0239C8.00001 25.9292 8.02747 25.8364 8.07906 25.757L15.6985 14.0199C15.7496 13.9412 15.8222 13.8788 15.9077 13.8401L28.7294 8.04357ZM29.0034 8.99567L16.4426 14.6743L8.98045 26.1691V39.8309L16.4426 51.3257L29.0034 57.0043L42.6729 55.0592L53.1072 46.1104L56.9983 33L53.1072 19.8896L42.6729 10.9407L29.0034 8.99567Z" fill="#67FFDB"/>
<path fill-rule="evenodd" clip-rule="evenodd" d="M20.1493 18.157C20.3146 18.3205 20.3422 18.5775 20.2156 18.7724L14.3119 27.8625C14.1941 28.0437 13.9716 28.1265 13.764 28.0662L8.35348 26.4945C8.17024 26.4413 8.03453 26.2866 8.00566 26.0979C7.97679 25.9093 8.05999 25.7211 8.21892 25.6155L19.5332 18.0971C19.7268 17.9685 19.9841 17.9935 20.1493 18.157ZM9.6411 25.8476L13.6879 27.0232L18.1037 20.2242L9.6411 25.8476Z" fill="#67FFDB"/>
<path fill-rule="evenodd" clip-rule="evenodd" d="M16.0745 13.7978C16.2278 13.7868 16.3773 13.8482 16.4785 13.9638L20.1733 18.1825C20.2664 18.2888 20.3091 18.4302 20.2904 18.5703C20.2718 18.7104 20.1935 18.8356 20.0758 18.9138L8.76154 26.4321C8.56797 26.5608 8.31068 26.5358 8.14546 26.3723C7.98024 26.2089 7.95251 25.9519 8.07906 25.757L15.6985 14.0199C15.7822 13.891 15.9213 13.8088 16.0745 13.7978ZM16.1679 15.0973L10.19 24.3057L19.0668 18.4072L16.1679 15.0973Z" fill="#67FFDB"/>
<path fill-rule="evenodd" clip-rule="evenodd" d="M29.3279 8.20217C29.4646 8.39031 29.4502 8.64858 29.2936 8.82045L20.1668 18.8357C20.0728 18.9389 19.9392 18.9971 19.7996 18.9957C19.66 18.9944 19.5277 18.9335 19.4357 18.8285L15.7409 14.6098C15.6386 14.493 15.5977 14.3347 15.6305 14.183C15.6634 14.0312 15.7663 13.9041 15.9077 13.8401L28.7294 8.04357C28.9413 7.94778 29.1912 8.01403 29.3279 8.20217ZM16.914 14.4612L19.8117 17.7698L26.9696 9.9151L16.914 14.4612Z" fill="#67FFDB"/>
<path fill-rule="evenodd" clip-rule="evenodd" d="M53.965 46.151C54.0777 46.3545 54.0317 46.6091 53.8552 46.7605L43.2026 55.8965C43.0859 55.9966 42.9292 56.0363 42.7791 56.0035C42.6289 55.9706 42.5028 55.8693 42.4384 55.7297L40.0978 50.65C40.0387 50.522 40.0377 50.3747 40.095 50.2458C40.1523 50.1169 40.2623 50.019 40.3969 49.9769L53.3901 45.9206C53.6122 45.8513 53.8523 45.9475 53.965 46.151ZM41.2217 50.7465L43.0572 54.7298L51.4107 47.5656L41.2217 50.7465Z" fill="#67FFDB"/>
<path fill-rule="evenodd" clip-rule="evenodd" d="M40.686 49.9757C40.8197 50.0165 40.9296 50.1124 40.9882 50.2394L43.3288 55.319C43.3936 55.4597 43.3882 55.6227 43.3141 55.7587C43.24 55.8947 43.1059 55.9879 42.9526 56.0097L29.0004 57.995C28.77 58.0278 28.5484 57.8939 28.4699 57.6748C28.3915 57.4557 28.4778 57.2117 28.6766 57.0907L40.2881 50.0258C40.4075 49.9531 40.5523 49.9349 40.686 49.9757ZM31.2247 56.688L42.1629 55.1316L40.3279 51.1492L31.2247 56.688Z" fill="#67FFDB"/>
<path fill-rule="evenodd" clip-rule="evenodd" d="M48.4744 42.9954C48.6383 42.8549 48.8748 42.8381 49.0569 42.954L53.7996 45.9749C53.9605 46.0774 54.0473 46.2639 54.0221 46.453C53.997 46.6421 53.8644 46.7994 53.6823 46.8563L40.6891 50.9126C40.467 50.9819 40.2269 50.8857 40.1142 50.6822C40.0015 50.4787 40.0473 50.224 40.2238 50.0726L48.4744 42.9954ZM48.8368 43.9763L42.6681 49.2677L52.3828 46.2349L48.8368 43.9763Z" fill="#67FFDB"/>
<path fill-rule="evenodd" clip-rule="evenodd" d="M8.14546 39.6275C8.31068 39.464 8.56797 39.439 8.76154 39.5677L20.0758 47.086C20.1935 47.1642 20.2718 47.2895 20.2904 47.4295C20.3091 47.5696 20.2664 47.711 20.1733 47.8173L16.4785 52.036C16.3773 52.1516 16.2278 52.213 16.0745 52.202C15.9213 52.191 15.7822 52.1089 15.6985 51.9801L8.07906 40.243C7.95251 40.048 7.98024 39.7909 8.14546 39.6275ZM10.19 41.6941L16.1679 50.9025L19.0668 47.5926L10.19 41.6941Z" fill="#67FFDB"/>
<path fill-rule="evenodd" clip-rule="evenodd" d="M28.6611 8.08136C28.8194 7.97663 29.024 7.97278 29.1862 8.07145L40.7946 15.1333C40.9934 15.2543 41.0798 15.4983 41.0014 15.7174C40.9229 15.9364 40.7013 16.0702 40.4709 16.0375L29.6652 14.5025C29.4498 14.4719 29.2803 14.303 29.249 14.0877L28.4463 8.56072C28.419 8.37283 28.5027 8.18608 28.6611 8.08136ZM29.5662 9.45022L30.1665 13.5835L38.2474 14.7314L29.5662 9.45022Z" fill="#67FFDB"/>
<path fill-rule="evenodd" clip-rule="evenodd" d="M29.0749 8.02156C29.2562 8.07711 29.3892 8.23219 29.4164 8.4198L30.2191 13.9467C30.2505 14.163 30.135 14.3739 29.9359 14.4639L20.0064 18.9522C19.7945 19.048 19.5445 18.9818 19.4078 18.7936C19.2712 18.6055 19.2855 18.3472 19.4422 18.1754L28.569 8.16007C28.6966 8.01995 28.8937 7.96601 29.0749 8.02156ZM21.7659 17.081L29.1958 13.7225L28.5952 9.58687L21.7659 17.081Z" fill="#67FFDB"/>
<path fill-rule="evenodd" clip-rule="evenodd" d="M15.6315 51.6053C15.6828 51.3783 15.8866 51.2186 16.1193 51.2232L29.7437 51.4928C29.8842 51.4956 30.0169 51.5586 30.1078 51.6659C30.1988 51.7731 30.2393 51.9142 30.2191 52.0534L29.4164 57.5803C29.3943 57.7327 29.3018 57.8659 29.1667 57.9399C29.0316 58.0138 28.8697 58.0198 28.7294 57.9564L15.9077 52.1598C15.6957 52.064 15.5802 51.8323 15.6315 51.6053ZM18.4883 52.2507L28.5397 56.7949L29.169 52.4621L18.4883 52.2507Z" fill="#67FFDB"/>
<path fill-rule="evenodd" clip-rule="evenodd" d="M41.0044 50.2792C41.0829 50.4983 40.9965 50.7424 40.7977 50.8633L29.1863 57.9283C29.024 58.027 28.8194 58.0231 28.6611 57.9184C28.5027 57.8137 28.419 57.6269 28.4463 57.439L29.249 51.9121C29.2803 51.6968 29.4497 51.5279 29.6651 51.4972L40.4739 49.9592C40.7043 49.9264 40.9259 50.0602 41.0044 50.2792ZM30.1665 52.4162L29.5662 56.5494L38.2497 51.266L30.1665 52.4162Z" fill="#67FFDB"/>
<path fill-rule="evenodd" clip-rule="evenodd" d="M19.4357 47.1714C19.5779 47.009 19.8097 46.9588 20.0064 47.0477L29.9359 51.5361C30.148 51.6319 30.2634 51.8637 30.2121 52.0908C30.1608 52.3178 29.957 52.4775 29.7243 52.4729L16.0999 52.2033C15.9093 52.1995 15.7382 52.0856 15.6612 51.9112C15.5842 51.7368 15.6153 51.5336 15.7409 51.3902L19.4357 47.1714ZM19.9338 48.0908L17.1723 51.2439L27.3549 51.4454L19.9338 48.0908Z" fill="#67FFDB"/>
<path fill-rule="evenodd" clip-rule="evenodd" d="M40.1103 15.3144C40.223 15.1109 40.4633 15.0146 40.6853 15.084L53.6816 19.1434C53.8637 19.2003 53.9963 19.3577 54.0214 19.5468C54.0465 19.7359 53.9596 19.9225 53.7986 20.0249L49.056 23.0427C48.8739 23.1585 48.6375 23.1417 48.4737 23.0012L40.2201 15.924C40.0435 15.7726 39.9976 15.5179 40.1103 15.3144ZM42.666 16.7298L48.8361 22.0205L52.3816 19.7645L42.666 16.7298Z" fill="#67FFDB"/>
<path fill-rule="evenodd" clip-rule="evenodd" d="M48.5811 22.1872C48.7828 22.0902 49.0246 22.1422 49.1687 22.3136L57.8849 32.6843C57.9909 32.8104 58.0265 32.9816 57.9796 33.1395L54.006 46.5279C53.9419 46.7439 53.7387 46.8881 53.5136 46.8778C53.2885 46.8675 53.0994 46.7051 53.0553 46.4841L48.3127 22.725C48.2688 22.5055 48.3793 22.2841 48.5811 22.1872ZM49.6484 24.4083L53.6293 44.351L56.9646 33.1131L49.6484 24.4083Z" fill="#67FFDB"/>
<path fill-rule="evenodd" clip-rule="evenodd" d="M48.7452 22.1412C48.996 22.1164 49.2248 22.2859 49.2741 22.5331L54.0167 46.2922C54.0552 46.4847 53.975 46.6817 53.8129 46.7926C53.6509 46.9036 53.4383 46.9071 53.2727 46.8016L48.53 43.7808C48.3887 43.6908 48.3032 43.5348 48.3032 43.3673V22.629C48.3032 22.3769 48.4943 22.166 48.7452 22.1412ZM49.2836 27.5891V43.0983L52.8304 45.3575L49.2836 27.5891Z" fill="#67FFDB"/>
<path fill-rule="evenodd" clip-rule="evenodd" d="M53.7076 19.1524C53.8517 19.2063 53.9622 19.3246 54.006 19.4721L57.9796 32.8605C58.0457 33.0831 57.9464 33.3216 57.7419 33.4317C57.5374 33.5418 57.2838 33.4932 57.1343 33.3154L48.4181 22.9448C48.3272 22.8366 48.2873 22.6945 48.3088 22.5548C48.3303 22.4152 48.411 22.2916 48.5302 22.2158L53.2728 19.198C53.4026 19.1154 53.5636 19.0986 53.7076 19.1524ZM49.5288 22.7424L56.3695 30.8816L53.2509 20.374L49.5288 22.7424Z" fill="#67FFDB"/>
<path fill-rule="evenodd" clip-rule="evenodd" d="M28.4699 8.32496C28.5484 8.10587 28.77 7.97215 29.0004 8.00493L42.9526 9.99022C43.1059 10.012 43.2401 10.1051 43.3142 10.2412C43.3882 10.3773 43.3936 10.5404 43.3287 10.681L40.9849 15.7576C40.9264 15.8845 40.8164 15.9803 40.6828 16.021C40.5491 16.0618 40.4045 16.0436 40.2851 15.9709L28.6767 8.90907C28.4778 8.78812 28.3915 8.54405 28.4699 8.32496ZM31.2251 9.31179L40.3251 14.8477L42.1624 10.8681L31.2251 9.31179Z" fill="#67FFDB"/>
<path fill-rule="evenodd" clip-rule="evenodd" d="M42.7785 9.99653C42.9286 9.9638 43.086 10.0034 43.2026 10.1034L53.8552 19.2394C54.0317 19.3909 54.077 19.6455 53.9643 19.849C53.8515 20.0525 53.6113 20.1488 53.3893 20.0794L40.393 16.02C40.2583 15.9779 40.1483 15.8799 40.0911 15.751C40.0339 15.622 40.035 15.4747 40.0941 15.3466L42.4378 10.27C42.5022 10.1305 42.6283 10.0293 42.7785 9.99653ZM43.0561 11.2699L41.2183 15.2506L51.4092 18.4338L43.0561 11.2699Z" fill="#67FFDB"/>
<path fill-rule="evenodd" clip-rule="evenodd" d="M8.12193 25.7004C8.24745 25.5575 8.44432 25.5001 8.62698 25.5531L14.0375 27.1248C14.2469 27.1856 14.391 27.3775 14.391 27.5956V38.4044C14.391 38.6364 14.2282 38.8367 14.001 38.8842C13.7738 38.9317 13.5445 38.8133 13.4515 38.6007L8.04104 26.2202C7.96487 26.0459 7.9964 25.8433 8.12193 25.7004ZM9.35854 26.7866L13.4105 36.0585V27.9636L9.35854 26.7866Z" fill="#67FFDB"/>
<path fill-rule="evenodd" clip-rule="evenodd" d="M13.764 37.9336C13.9716 37.8733 14.1941 37.9561 14.3119 38.1374L20.2156 47.2274C20.3422 47.4223 20.3146 47.6794 20.1493 47.8429C19.9841 48.0063 19.7268 48.0313 19.5332 47.9027L8.21892 40.3843C8.05999 40.2787 7.97679 40.0905 8.00566 39.9019C8.03453 39.7133 8.17024 39.5585 8.35348 39.5053L13.764 37.9336ZM9.6411 40.1522L18.1037 45.7756L13.6879 38.9767L9.6411 40.1522Z" fill="#67FFDB"/>
<path fill-rule="evenodd" clip-rule="evenodd" d="M8.38996 25.544C8.61714 25.4966 8.84649 25.6149 8.93943 25.8276L14.3499 38.208C14.4064 38.3373 14.4045 38.4846 14.3447 38.6123C14.2849 38.74 14.1729 38.8358 14.0375 38.8751L8.62698 40.4468C8.4789 40.4898 8.3192 40.4606 8.19589 40.368C8.07257 40.2755 8.00001 40.1303 8.00001 39.9761V26.0239C8.00001 25.7918 8.16277 25.5915 8.38996 25.544ZM8.98045 28.3698V39.3232L13.2281 38.0893L8.98045 28.3698Z" fill="#67FFDB"/>
</g>
</svg>
