<svg width="70" height="70" viewBox="0 0 70 70" fill="none" xmlns="http://www.w3.org/2000/svg">
<g opacity="0.7">
<path d="M4 4H70V70H4V4Z" fill="#59AFFF"/>
<path fill-rule="evenodd" clip-rule="evenodd" d="M69 5H5V69H69V5ZM4 4V70H70V4H4Z" fill="#2B2B2B"/>
<path d="M2 2H68V68H2V2Z" fill="#59AFFF"/>
<path fill-rule="evenodd" clip-rule="evenodd" d="M67 3H3V67H67V3ZM2 2V68H68V2H2Z" fill="#2B2B2B"/>
<path d="M0 0H66V66H0V0Z" fill="#59AFFF"/>
<path fill-rule="evenodd" clip-rule="evenodd" d="M65 1H1V65H65V1ZM0 0V66H66V0H0Z" fill="#2B2B2B"/>
<path fill-rule="evenodd" clip-rule="evenodd" d="M39.9555 17.9342L33 8.97372L26.0445 17.9342C25.6597 18.4299 25.0564 18.715 24.4216 18.7011L12.9456 18.4506L15.7482 29.3736C15.9032 29.9779 15.7542 30.6184 15.3473 31.0968L7.99256 39.7449L18.4429 44.4052C19.021 44.663 19.4384 45.1767 19.5659 45.7871L21.8706 56.8216L32.0994 51.7099C32.6652 51.4271 33.3348 51.4271 33.9006 51.7099L44.1294 56.8216L46.4341 45.7871C46.5616 45.1767 46.979 44.663 47.5572 44.4052L58.0074 39.7449L50.6527 31.0968C50.2458 30.6184 50.0968 29.9779 50.2518 29.3736L53.0544 18.4506L41.5784 18.7011C40.9436 18.715 40.3403 18.4299 39.9555 17.9342ZM33.7894 8.3837C33.3923 7.8721 32.6077 7.8721 32.2106 8.3837L25.2551 17.3442C25.0627 17.5921 24.7611 17.7346 24.4436 17.7277L12.9677 17.4771C12.3124 17.4628 11.8233 18.0647 11.9833 18.6883L14.7859 29.6113C14.8634 29.9135 14.7889 30.2338 14.5855 30.473L7.23071 39.121C6.81078 39.6148 6.98536 40.3653 7.58201 40.6314L18.0323 45.2917C18.3214 45.4206 18.5301 45.6774 18.5938 45.9826L20.8986 57.0171C21.0301 57.6472 21.737 57.9812 22.321 57.6893L32.5497 52.5776C32.8326 52.4362 33.1674 52.4362 33.4503 52.5776L43.679 57.6893C44.263 57.9812 44.9699 57.6471 45.1015 57.0171L47.4062 45.9826C47.4699 45.6774 47.6786 45.4206 47.9677 45.2916L58.418 40.6314C59.0146 40.3653 59.1892 39.6148 58.7693 39.121L51.4145 30.473C51.2111 30.2338 51.1366 29.9135 51.2141 29.6113L54.0167 18.6883C54.1767 18.0647 53.6876 17.4628 53.0323 17.4771L41.5564 17.7277C41.2389 17.7346 40.9373 17.5921 40.7449 17.3442L33.7894 8.3837Z" fill="#67FFDB"/>
<path fill-rule="evenodd" clip-rule="evenodd" d="M32.9279 8.02976L33.4692 17.5907H53.4078L52.8385 22.0597L49.9381 33.9185L54.3656 36.6625L58.7428 39.8123L47.332 45.6653L46.14 51.5137L46.1302 51.5733L46.0982 51.7672C46.0705 51.9341 46.0306 52.1724 45.9821 52.4583C45.885 53.03 45.7528 53.793 45.6127 54.5565C45.4729 55.3187 45.3243 56.0869 45.1943 56.6669C45.1297 56.955 45.0674 57.2071 45.011 57.3915C44.9837 57.4809 44.9524 57.5723 44.9168 57.6483C44.9002 57.6836 44.8716 57.74 44.8278 57.7951L44.8268 57.7964C44.8039 57.8253 44.6655 58 44.4112 58C44.3174 58 44.2375 57.9734 44.2218 57.9685C44.1871 57.9576 44.1517 57.9442 44.1193 57.9313C44.0536 57.9051 43.973 57.8694 43.8836 57.8281C43.7033 57.7449 43.4641 57.628 43.1894 57.4903C42.6389 57.2144 41.9303 56.8476 41.2319 56.4821C40.5329 56.1164 39.842 55.7507 39.326 55.4766C39.0679 55.3395 38.8535 55.2252 38.7035 55.1452L38.472 55.0216L32.8737 52.1554L26.7847 52.0405L22.472 57.3304L21.6971 56.7221L25.5332 52.0169L20.0904 51.9142L20.1095 50.9406L25.0959 51.0347L18.1592 45.6105L16.9226 39.3409L15.0903 43.1167L14.1944 42.6981L16.23 38.5032L7.8106 40.46L7.58191 39.5125L15.6783 37.6308L11.4436 35.5531L11.8873 34.6822L16.4447 36.9182L15.091 30.0552L22.6335 24.0416H13.65L13.4546 23.1072L24.9707 18.2656L25.1124 17.8487L28.8876 12.9093L32.9279 8.02976ZM24.5509 19.5014L16.0679 23.0679H23.3394L24.5509 19.5014ZM23.0769 24.9428V30.0719L17.4123 36.6994L16.1782 30.443L23.0769 24.9428ZM17.7567 38.4457L22.6315 39.5967L18.8938 44.2108L17.7567 38.4457ZM20.5506 46.2354L26.6957 51.0406L38.1611 49.6342L30.4179 48.2528L20.5506 46.2354ZM34.4123 51.8449L38.5047 53.94L40.4619 50.4481L34.4123 51.8449ZM41.6554 50.3392L39.87 53.5247L44.4147 51.4542L41.6554 50.3392ZM45.0104 52.2563L39.8091 54.626C40.3229 54.8989 41.0072 55.261 41.6988 55.623C42.3959 55.9878 43.0982 56.3513 43.6407 56.6231C43.8257 56.7158 43.9904 56.797 44.1289 56.8635C44.1585 56.7474 44.1907 56.6112 44.2251 56.4576C44.3509 55.8966 44.4969 55.1433 44.6361 54.384C44.7752 53.6261 44.9066 52.8676 45.0033 52.2983C45.0057 52.2842 45.0081 52.2702 45.0104 52.2563ZM45.2833 50.7521L42.3918 49.5838L46.1337 46.5795L45.2833 50.7521ZM48.9305 43.7467L56.8717 39.6733L54.1645 37.7252L48.9305 43.7467ZM53.337 37.1767L49.707 34.9269L47.7964 43.5509L53.337 37.1767ZM46.4439 45.0724L48.343 36.5L45.1048 41.1828L42.5116 48.2294L46.4439 45.0724ZM41.7625 47.3982L44.2138 40.7371L47.8955 35.413L43.8059 37.4195L41.4415 42.988L41.7625 47.3982ZM43.2101 36.6232L48.001 34.2726L37.7769 31.4635L40.228 37.8773L43.2101 36.6232ZM39.2781 38.1649L37.003 32.2113L34.7278 39.0951L39.2781 38.1649ZM33.78 38.8063L36.2326 31.3858L29.7916 32.7183L30.9505 35.8314L33.78 38.8063ZM27.4421 33.6581L23.3125 38.756L18.6281 37.65L27.4421 33.6581ZM18.9274 36.442L28.5433 32.087L27.5928 28.5529L24.0691 25.0953V30.4262L18.9274 36.442ZM23.6955 39.848L19.9287 44.4981L27.8544 42.4514L32.0344 40.2297H25.3121L23.6955 39.848ZM32.9635 40.8432L28.2222 43.3633L20.7745 45.2866L30.2129 47.2161L31.0534 45.1542L32.9635 40.8432ZM31.2053 47.4035L39.9604 48.9656L36.5643 45.6331L34.0328 40.8719L31.9693 45.5291L31.2053 47.4035ZM32.8504 39.2559L30.0876 36.3513L28.9669 33.3406L24.3766 39.0073L25.4298 39.2559H32.8504ZM34.7354 40.0882L37.3737 45.0502L40.8447 48.4563L40.4349 42.8268L42.4908 37.9851L40.0957 38.9923L34.7354 40.0882ZM29.4886 31.7859L28.4839 28.0503L26.191 25.8004L35.5075 30.5407L29.4886 31.7859ZM37.4892 30.3733L47.6001 33.1513L37.8937 24.0235L37.4892 30.3733ZM38.136 22.9027L47.7204 31.9158L41.3308 18.984L38.136 22.9027ZM42.4145 18.9454L49.214 32.7067L51.7638 22.2815L42.4145 18.9454ZM51.9345 21.3063L52.2837 18.5645H44.2506L51.9345 21.3063ZM39.2148 18.5645H27.5422L33.0137 21.428L39.2148 18.5645ZM31.5623 21.7719L24.3172 23.2686L25.8425 18.7785L31.5623 21.7719ZM26.5499 17.5907L29.2787 14.0204L32.0075 17.5907H26.5499ZM32.4135 16.4991L29.9081 13.221L32.0795 10.5985L32.4135 16.4991ZM33.6504 22.2101L36.6001 28.7227L36.9798 22.7622L39.7118 19.4111L33.6504 22.2101ZM35.9407 29.6643L32.7094 22.53L25.0351 24.1154L35.9407 29.6643Z" fill="#67FFDB"/>
</g>
</svg>
