<svg width="70" height="70" viewBox="0 0 70 70" fill="none" xmlns="http://www.w3.org/2000/svg">
<g opacity="0.7">
<path d="M4 4H70V70H4V4Z" fill="#59AFFF"/>
<path fill-rule="evenodd" clip-rule="evenodd" d="M69 5H5V69H69V5ZM4 4V70H70V4H4Z" fill="#2B2B2B"/>
<path d="M2 2H68V68H2V2Z" fill="#59AFFF"/>
<path fill-rule="evenodd" clip-rule="evenodd" d="M67 3H3V67H67V3ZM2 2V68H68V2H2Z" fill="#2B2B2B"/>
<path d="M0 0H66V66H0V0Z" fill="#59AFFF"/>
<path fill-rule="evenodd" clip-rule="evenodd" d="M65 1H1V65H65V1ZM0 0V66H66V0H0Z" fill="#2B2B2B"/>
<path fill-rule="evenodd" clip-rule="evenodd" d="M57 9H9V57H57V9ZM8 8V58H58V8H8Z" fill="#67FFDB"/>
<path fill-rule="evenodd" clip-rule="evenodd" d="M22 9H9V22H22V9ZM8 8V23H23V8H8Z" fill="#67FFDB"/>
<path fill-rule="evenodd" clip-rule="evenodd" d="M33 17H23V46H33V17ZM22 16V47H34V16H22Z" fill="#67FFDB"/>
<path fill-rule="evenodd" clip-rule="evenodd" d="M28 47V57H57V47H28ZM27 58H58V46H27V58Z" fill="#67FFDB"/>
<path fill-rule="evenodd" clip-rule="evenodd" d="M43 9H34V22H43V9ZM33 8V23H44V8H33Z" fill="#67FFDB"/>
<path fill-rule="evenodd" clip-rule="evenodd" d="M26 47H23V57H26V47ZM22 46V58H27V46H22Z" fill="#67FFDB"/>
<path fill-rule="evenodd" clip-rule="evenodd" d="M22 42H19V57H22V42ZM18 41V58H23V41H18Z" fill="#67FFDB"/>
<path fill-rule="evenodd" clip-rule="evenodd" d="M18 42H9V57H18V42ZM8 41V58H19V41H8Z" fill="#67FFDB"/>
<path fill-rule="evenodd" clip-rule="evenodd" d="M22 23H9V27H22V23ZM8 22V28H23V22H8Z" fill="#67FFDB"/>
<path fill-rule="evenodd" clip-rule="evenodd" d="M22 28H9V32H22V28ZM8 27V33H23V27H8Z" fill="#67FFDB"/>
<path fill-rule="evenodd" clip-rule="evenodd" d="M57 23H48V27H57V23ZM47 22V28H58V22H47Z" fill="#67FFDB"/>
<path fill-rule="evenodd" clip-rule="evenodd" d="M57 28H48V36H57V28ZM47 27V37H58V27H47Z" fill="#67FFDB"/>
<path fill-rule="evenodd" clip-rule="evenodd" d="M50 37H40V46H50V37ZM39 36V47H51V36H39Z" fill="#67FFDB"/>
<path fill-rule="evenodd" clip-rule="evenodd" d="M57 9H44V22H57V9ZM43 8V23H58V8H43Z" fill="#67FFDB"/>
<path fill-rule="evenodd" clip-rule="evenodd" d="M47 23H34V36H47V23ZM33 22V37H48V22H33Z" fill="#67FFDB"/>
</g>
</svg>
