<svg width="70" height="70" viewBox="0 0 70 70" fill="none" xmlns="http://www.w3.org/2000/svg">
<g opacity="0.7">
<path d="M4 4H70V70H4V4Z" fill="#59AFFF"/>
<path fill-rule="evenodd" clip-rule="evenodd" d="M69 5H5V69H69V5ZM4 4V70H70V4H4Z" fill="#2B2B2B"/>
<path d="M2 2H68V68H2V2Z" fill="#59AFFF"/>
<path fill-rule="evenodd" clip-rule="evenodd" d="M67 3H3V67H67V3ZM2 2V68H68V2H2Z" fill="#2B2B2B"/>
<path d="M0 0H66V66H0V0Z" fill="#59AFFF"/>
<path fill-rule="evenodd" clip-rule="evenodd" d="M65 1H1V65H65V1ZM0 0V66H66V0H0Z" fill="#2B2B2B"/>
<path fill-rule="evenodd" clip-rule="evenodd" d="M33 9.05146L18.791 13.6252L10.0094 25.5995V40.4005L18.791 52.3748L33 56.9485L47.209 52.3748L55.9906 40.4005V25.5995L47.209 13.6252L33 9.05146ZM47.8328 12.7746L33 8L18.1672 12.7746L9 25.2746V40.7254L18.1672 53.2254L33 58L47.8328 53.2254L57 40.7254V25.2746L47.8328 12.7746Z" fill="#67FFDB"/>
<path fill-rule="evenodd" clip-rule="evenodd" d="M33.3331 8.50024L40.2309 17.8297L47.6588 13.2074L48.141 21.8798L56.9467 25.4037L51.2911 32.9262L56.5404 40.4989L48.141 43.8408L47.862 53.0002L40.3554 48.5751L33.1233 57.9035L29.0671 50.48L18.0846 53.0002L13.5739 38.7038L10.028 41.3028L9.42582 40.5002L13.2496 37.6966L11.7771 33.1241L13.4367 28.0336L9.42582 24.9729L15.828 20.6986L18.0846 13.0002L25.132 14.4869L33.3331 8.50024ZM24.069 15.1966L18.7345 14.2603L17.1839 19.7934L24.069 15.1966ZM15.3255 22.24L11.1509 25.0271L13.7662 27.0228L15.3255 22.24ZM14.2861 28.6818L12.8372 33.1259L14.106 37.066L19.2236 33.2978L19.5219 32.6772L14.2861 28.6818ZM20.6203 33.5154L20.2839 33.7631L29.1937 49.376L37.5797 46.457L20.6203 33.5154ZM38.5336 47.1849L30.0319 50.1441L33.2257 56.0002L39.5547 47.9641L38.5336 47.1849ZM40.13 47.1408L39.6696 46.7895L40.6024 46.4648L40.13 47.1408ZM40.9307 47.7518L46.8526 50.9677L47.1316 44.1921L42.2247 45.9001L40.9307 47.7518ZM43.2035 44.4995L47.1316 43.1322V38.8784L43.2035 44.4995ZM48.141 37.434V39.8144L49.2537 35.8418L48.141 37.434ZM50.8208 33.9867L48.3811 42.6973L54.9278 40.0002L50.8208 33.9867ZM50.0538 32.9399L48.141 35.6771V30.329L50.0538 32.9399ZM50.6627 32.0686L55.3441 25.9401L48.141 22.931V28.6266L50.6627 32.0686ZM47.1316 27.2488V22.6067L42.6836 21.1776L47.1316 27.2488ZM41.6763 19.8026L47.1316 21.5554L46.6494 15.1966L40.8239 18.6391L41.6763 19.8026ZM40.0137 19.2357L40.0451 19.2785L39.9827 19.2585L40.0137 19.2357ZM39.4207 18.4263L33.0888 9.86922L26.3514 14.8787L38.8046 18.88L39.4207 18.4263ZM33.5542 18.2443L25.2884 15.5884L23.2871 16.9246L33.5542 18.2443ZM37.5934 19.7718L23.8758 18.0086L32.186 23.7534L37.5934 19.7718ZM31.3318 24.3823L20.9541 32.0237L26.2993 20.9033L31.3318 24.3823ZM25.4601 20.3232L22.274 18.1207L20.298 31.0626L25.4601 20.3232ZM19.2545 31.2109L21.0917 19.1782L14.7252 27.7546L19.2545 31.2109ZM15.4625 25.0734L16.6814 21.3347L19.7671 19.2746L15.4625 25.0734ZM32.2046 24.9857L33.3331 25.7658L30.7605 26.049L32.2046 24.9857ZM28.4576 27.7446L21.4621 32.8955L28.4576 38.2337V27.7446ZM30.7435 39.9781L38.7157 46.0616L41.5812 45.0642L43.9725 41.6423L30.7435 39.9781ZM29.467 38.8095L35.9598 39.6263L29.467 28.5995V38.8095ZM29.7893 27.1621L36.0098 37.7265L34.2962 26.6659L29.7893 27.1621ZM35.5681 28.2837L37.3525 39.8015L43.8302 40.6164L35.5681 28.2837ZM45.7806 39.0549L47.1316 37.1216V31.7677L45.7806 39.0549ZM46.832 28.5422L45.3651 26.5401V35.76L46.6538 28.8094L46.832 28.5422ZM44.3557 39.5925V33.3858L36.6108 28.0317L44.3557 39.5925ZM36.1102 26.4663L44.3557 32.1664V25.5586L36.1102 26.4663ZM43.9423 24.598L36.343 25.4345L41.4712 21.2251L43.9423 24.598ZM40.7169 20.5457L39.1174 20.0317L36.7735 23.7825L40.7169 20.5457ZM34.5732 25.4037L33.0587 24.3567L37.076 21.3987L34.5732 25.4037ZM27.7876 48.9439L19.4674 34.3643L14.6511 37.9106L27.7876 48.9439ZM14.8555 39.3933L27.4597 49.9795L18.7304 51.7155L14.8555 39.3933Z" fill="#67FFDB"/>
</g>
</svg>
