<svg width="70" height="70" viewBox="0 0 70 70" fill="none" xmlns="http://www.w3.org/2000/svg">
<g opacity="0.7">
<path d="M4 4H70V70H4V4Z" fill="#59AFFF"/>
<path fill-rule="evenodd" clip-rule="evenodd" d="M69 5H5V69H69V5ZM4 4V70H70V4H4Z" fill="#2B2B2B"/>
<path d="M2 2H68V68H2V2Z" fill="#59AFFF"/>
<path fill-rule="evenodd" clip-rule="evenodd" d="M67 3H3V67H67V3ZM2 2V68H68V2H2Z" fill="#2B2B2B"/>
<path d="M0 0H66V66H0V0Z" fill="#59AFFF"/>
<path fill-rule="evenodd" clip-rule="evenodd" d="M65 1H1V65H65V1ZM0 0V66H66V0H0Z" fill="#2B2B2B"/>
<path fill-rule="evenodd" clip-rule="evenodd" d="M27.2675 43.8935C27.5634 43.7026 27.8534 43.499 28.1365 43.2828C28.5655 42.9552 28.9789 42.5985 29.3739 42.2128C29.3811 42.2058 29.3883 42.1988 29.3955 42.1917C29.4745 42.1143 29.5522 42.0361 29.6288 41.9572C29.6639 41.9699 29.699 41.9824 29.7343 41.9947C30.7551 42.3513 31.8544 42.5455 33 42.5455C34.1456 42.5455 35.2449 42.3513 36.2657 41.9947C36.301 41.9824 36.3361 41.9699 36.3712 41.9572C36.4478 42.0361 36.5255 42.1143 36.6045 42.1917C36.6117 42.1988 36.6189 42.2058 36.6261 42.2128C37.0211 42.5986 37.4345 42.9552 37.8635 43.2828C38.1466 43.499 38.4366 43.7026 38.7325 43.8935C38.7431 43.9581 38.7532 44.0227 38.7628 44.0874C38.8201 44.476 38.8585 44.8668 38.8779 45.2582C39.1987 45.2735 39.5201 45.2767 39.8411 45.2679C39.9267 45.2655 40.0122 45.2623 40.0977 45.2582C40.1002 45.2095 40.1029 45.1607 40.1059 45.112C40.1125 45.0046 40.1205 44.8973 40.13 44.7901C40.1302 44.788 40.1304 44.786 40.1305 44.784C40.1335 44.7511 40.1365 44.7183 40.1397 44.6854C40.4663 44.8442 40.7982 44.9891 41.1343 45.1203C41.1993 45.1456 41.2645 45.1704 41.3298 45.1947C41.8538 45.3899 42.3879 45.5517 42.9284 45.6803C42.9964 45.6965 43.0646 45.7121 43.1328 45.7273C43.0646 45.7424 42.9964 45.7581 42.9283 45.7743C42.3878 45.9028 41.8538 46.0647 41.3297 46.2598C39.607 46.9012 37.9916 47.9023 36.6045 49.2628C36.6029 49.2644 36.6013 49.266 36.5997 49.2675C35.2174 50.6247 34.1995 52.2046 33.5462 53.8892C33.3475 54.4015 33.1826 54.9234 33.0513 55.4517C33.0336 55.5231 33.0165 55.5946 33 55.6662C32.9835 55.5946 32.9664 55.5231 32.9487 55.4517C32.8174 54.9234 32.6525 54.4015 32.4538 53.8892C31.8005 52.2046 30.7826 50.6247 29.4003 49.2675C29.3987 49.266 29.3971 49.2644 29.3955 49.2628C28.0085 47.9023 26.393 46.9012 24.6703 46.2598C24.1462 46.0647 23.6122 45.9028 23.0717 45.7743C23.0036 45.7581 22.9354 45.7424 22.8672 45.7273C22.9354 45.7121 23.0036 45.6965 23.0716 45.6803C23.6121 45.5517 24.1462 45.3899 24.6703 45.1947C24.7355 45.1704 24.8007 45.1456 24.8657 45.1203C25.2018 44.9891 25.5337 44.8442 25.8603 44.6854C25.8635 44.7183 25.8665 44.7511 25.8695 44.784C25.8696 44.786 25.8698 44.7881 25.87 44.7901C25.8795 44.8973 25.8875 45.0046 25.8941 45.112C25.8971 45.1607 25.8999 45.2095 25.9023 45.2582C25.9878 45.2623 26.0733 45.2655 26.1589 45.2679C26.48 45.2767 26.8013 45.2735 27.1221 45.2582C27.1415 44.8667 27.1799 44.476 27.2373 44.0874C27.2468 44.0227 27.2569 43.9581 27.2675 43.8935ZM29.5702 40.869L29.9869 41.02C30.9245 41.3596 31.939 41.5455 33 41.5455C34.061 41.5455 35.0755 41.3596 36.0131 41.02L36.4298 40.869L36.8291 40.6767C37.0366 40.5767 37.2397 40.4687 37.4377 40.3533L37.8007 40.1416L38.1417 39.8962C40.3025 38.3405 41.7047 35.8322 41.7047 33C41.7047 30.1678 40.3025 27.6595 38.1417 26.1038L37.8007 25.8584L37.4377 25.6467C37.2397 25.5313 37.0366 25.4233 36.8291 25.3233L36.4298 25.131L36.0131 24.9801C35.0755 24.6404 34.061 24.4545 33 24.4545C31.939 24.4545 30.9245 24.6404 29.9869 24.9801L29.5702 25.131L29.171 25.3233C28.9634 25.4233 28.7603 25.5313 28.5623 25.6467L28.1993 25.8584L27.8583 26.1038C25.6975 27.6595 24.2953 30.1678 24.2953 33C24.2953 35.8322 25.6975 38.3405 27.8583 39.8962L28.1993 40.1416L28.5623 40.3533C28.7603 40.4687 28.9633 40.5767 29.1709 40.6767L29.5702 40.869ZM26.5636 42.7244C26.5963 42.5924 26.6312 42.4609 26.6682 42.3298C26.7793 41.936 26.9093 41.5463 27.0584 41.162C27.096 41.0649 27.1348 40.9682 27.1749 40.8719C27.1987 40.8146 27.223 40.7573 27.2477 40.7002C27.2199 40.6802 27.1921 40.66 27.1645 40.6397C27.0098 40.5258 26.8588 40.4076 26.7115 40.2851C25.342 39.1467 24.2978 37.6434 23.7348 35.9283C23.4319 35.0056 23.2683 34.0215 23.2683 33C23.2683 31.9785 23.4319 30.9944 23.7348 30.0717C24.2978 28.3566 25.342 26.8533 26.7115 25.7149C26.8588 25.5924 27.0098 25.4742 27.1645 25.3603C27.1921 25.34 27.2199 25.3198 27.2477 25.2998C27.223 25.2427 27.1987 25.1854 27.1749 25.1281C27.1348 25.0318 27.096 24.9351 27.0584 24.838C26.9093 24.4537 26.7793 24.064 26.6682 23.6702C26.6312 23.5391 26.5963 23.4075 26.5635 23.2756C26.5458 23.2042 26.5287 23.1327 26.5122 23.0611C26.4946 23.1375 26.4763 23.2137 26.4573 23.2898C26.3267 23.8132 26.1629 24.3304 25.966 24.8381C25.9299 24.9311 25.8927 25.0239 25.8544 25.1163C25.1991 26.6966 24.2184 28.1775 22.9125 29.4597C22.9109 29.4613 22.9093 29.4629 22.9077 29.4645C22.8838 29.4878 22.8599 29.5111 22.836 29.5343C21.4651 30.8592 19.8756 31.837 18.1824 32.4675C17.6584 32.6626 17.1243 32.8245 16.5838 32.953C16.5158 32.9692 16.4476 32.9849 16.3794 33C16.4476 33.0151 16.5158 33.0308 16.5838 33.047C17.1243 33.1755 17.6584 33.3374 18.1825 33.5325C19.8756 34.1629 21.4651 35.1408 22.836 36.4657C22.8599 36.4889 22.8838 36.5122 22.9077 36.5355C22.9093 36.5371 22.9109 36.5387 22.9125 36.5403C24.2184 37.8225 25.1991 39.3034 25.8544 40.8837C25.8927 40.9761 25.9299 41.0689 25.966 41.1619C26.1629 41.6696 26.3267 42.1868 26.4573 42.7102C26.4763 42.7863 26.4946 42.8626 26.5122 42.9389C26.5287 42.8673 26.5458 42.7958 26.5636 42.7244ZM25.6125 43.1578C25.6108 43.1507 25.6092 43.1436 25.6076 43.1365C25.1039 40.953 23.9855 38.8784 22.2523 37.1784C22.2507 37.1768 22.2491 37.1752 22.2475 37.1736C20.5137 35.4749 18.3983 34.379 16.1722 33.8861C16.1652 33.8845 16.1583 33.883 16.1514 33.8815C15.4473 33.7268 14.7323 33.6324 14.0148 33.5983C13.9951 33.1997 13.9951 32.8003 14.0148 32.4017C14.7323 32.3676 15.4473 32.2732 16.1514 32.1185C16.1583 32.117 16.1652 32.1155 16.1722 32.1139C18.3983 31.621 20.5137 30.5251 22.2475 28.8264C22.2491 28.8248 22.2507 28.8232 22.2523 28.8216C23.9855 27.1216 25.1039 25.047 25.6076 22.8635C25.6092 22.8564 25.6108 22.8493 25.6124 22.8422C25.6491 22.6821 25.6824 22.5215 25.7124 22.3603C25.718 22.3301 25.7235 22.2999 25.7289 22.2697C25.6344 22.2208 25.5394 22.1731 25.4439 22.1268C24.5506 21.693 23.6155 21.3704 22.66 21.1588C22.653 21.1572 22.6461 21.1557 22.6392 21.1542C21.9351 20.9995 21.2201 20.9051 20.5026 20.871C20.4829 20.4724 20.4829 20.0731 20.5026 19.6745C21.2201 19.6403 21.9351 19.5459 22.6392 19.3913C22.6461 19.3897 22.653 19.3882 22.66 19.3867C24.8861 18.8937 27.0015 17.7978 28.7353 16.0991C28.7369 16.0975 28.7385 16.0959 28.7401 16.0944C30.4733 14.3944 31.5917 12.3197 32.0954 10.1362C32.097 10.1291 32.0986 10.122 32.1003 10.1149C32.2586 9.4228 32.3552 8.71984 32.3901 8.0145C32.7964 7.99517 33.2036 7.99517 33.6099 8.0145C33.6448 8.71984 33.7414 9.4228 33.8997 10.1149C33.9014 10.122 33.903 10.1291 33.9046 10.1362C34.4083 12.3197 35.5267 14.3944 37.2599 16.0944C37.2615 16.0959 37.2631 16.0975 37.2647 16.0991C38.9985 17.7979 41.1139 18.8937 43.34 19.3867C43.347 19.3882 43.3539 19.3897 43.3608 19.3913C44.0649 19.5459 44.7799 19.6403 45.4974 19.6745C45.5171 20.0731 45.5171 20.4724 45.4974 20.871C44.7799 20.9051 44.0649 20.9995 43.3608 21.1542C43.3539 21.1557 43.347 21.1572 43.34 21.1588C42.3845 21.3704 41.4494 21.693 40.5561 22.1268C40.4606 22.1731 40.3656 22.2208 40.2711 22.2697C40.2765 22.2999 40.282 22.3301 40.2876 22.3603C40.3176 22.5215 40.3509 22.6821 40.3876 22.8422C40.3892 22.8493 40.3908 22.8564 40.3924 22.8635C40.8961 25.047 42.0145 27.1216 43.7477 28.8216C43.7493 28.8232 43.7509 28.8248 43.7525 28.8264C45.4863 30.5251 47.6017 31.621 49.8278 32.1139C49.8348 32.1155 49.8417 32.117 49.8486 32.1185C50.5527 32.2732 51.2677 32.3676 51.9852 32.4017C52.0049 32.8003 52.0049 33.1997 51.9852 33.5983C51.2677 33.6324 50.5527 33.7268 49.8486 33.8815C49.8417 33.883 49.8348 33.8845 49.8278 33.8861C47.6017 34.379 45.4863 35.4749 43.7525 37.1736C43.7509 37.1752 43.7493 37.1768 43.7477 37.1784C42.0145 38.8784 40.8961 40.953 40.3924 43.1365C40.3908 43.1436 40.3892 43.1507 40.3876 43.1578C40.3509 43.3179 40.3176 43.4785 40.2876 43.6397C40.282 43.6699 40.2765 43.7001 40.2711 43.7303C40.3656 43.7792 40.4606 43.8269 40.5561 43.8732C41.4494 44.307 42.3845 44.6296 43.34 44.8412C43.347 44.8428 43.3539 44.8443 43.3608 44.8458C44.0649 45.0005 44.7799 45.0949 45.4974 45.129C45.5171 45.5276 45.5171 45.9269 45.4974 46.3255C44.7799 46.3597 44.0649 46.4541 43.3608 46.6087C43.3539 46.6103 43.347 46.6118 43.34 46.6133C41.1139 47.1063 38.9985 48.2022 37.2647 49.9009C37.2631 49.9025 37.2615 49.9041 37.2599 49.9056C35.5267 51.6056 34.4083 53.6803 33.9046 55.8638C33.903 55.8709 33.9014 55.878 33.8997 55.8851C33.7414 56.5772 33.6448 57.2802 33.6099 57.9855C33.2036 58.0048 32.7964 58.0048 32.3901 57.9855C32.3552 57.2802 32.2586 56.5772 32.1003 55.8851C32.0986 55.878 32.097 55.8709 32.0954 55.8638C31.5917 53.6803 30.4733 51.6056 28.7401 49.9056C28.7385 49.9041 28.7369 49.9025 28.7353 49.9009C27.0015 48.2022 24.8861 47.1063 22.66 46.6133C22.653 46.6118 22.6461 46.6103 22.6392 46.6087C21.9351 46.4541 21.2201 46.3597 20.5026 46.3255C20.4829 45.9269 20.4829 45.5276 20.5026 45.129C21.2201 45.0949 21.9351 45.0005 22.6392 44.8458C22.6461 44.8443 22.653 44.8428 22.66 44.8412C23.6155 44.6296 24.5506 44.307 25.4439 43.8732C25.5394 43.8269 25.6344 43.7792 25.7289 43.7303C25.7235 43.7001 25.718 43.6699 25.7124 43.6397C25.6824 43.4785 25.6491 43.3179 25.6125 43.1578ZM40.034 41.1619C40.0701 41.0689 40.1073 40.9761 40.1456 40.8837C40.8009 39.3034 41.7816 37.8225 43.0875 36.5403C43.0891 36.5387 43.0907 36.5371 43.0923 36.5355C43.1162 36.5122 43.1401 36.4889 43.164 36.4657C44.5349 35.1407 46.1245 34.1629 47.8176 33.5325C48.3417 33.3374 48.8757 33.1755 49.4162 33.047C49.4842 33.0308 49.5524 33.0151 49.6206 33C49.5524 32.9849 49.4842 32.9692 49.4162 32.953C48.8757 32.8245 48.3417 32.6626 47.8176 32.4675C46.1245 31.8371 44.5349 30.8592 43.164 29.5343C43.1401 29.5111 43.1162 29.4878 43.0923 29.4645C43.0907 29.4629 43.0891 29.4613 43.0875 29.4597C41.7816 28.1775 40.8009 26.6966 40.1456 25.1163C40.1073 25.0239 40.0701 24.9311 40.034 24.8381C39.8371 24.3304 39.6733 23.8132 39.5427 23.2898C39.5237 23.2137 39.5054 23.1375 39.4878 23.0611C39.4713 23.1327 39.4542 23.2042 39.4365 23.2756C39.4037 23.4075 39.3688 23.5391 39.3318 23.6702C39.2207 24.064 39.0907 24.4537 38.9416 24.838C38.904 24.9351 38.8652 25.0318 38.8251 25.1281C38.8013 25.1854 38.777 25.2427 38.7523 25.2998C38.7801 25.3198 38.8079 25.34 38.8355 25.3603C38.9902 25.4742 39.1412 25.5924 39.2886 25.7149C40.658 26.8533 41.7022 28.3566 42.2652 30.0717C42.5681 30.9944 42.7317 31.9785 42.7317 33C42.7317 34.0215 42.5681 35.0056 42.2652 35.9283C41.7022 37.6434 40.658 39.1467 39.2885 40.2851C39.1412 40.4076 38.9902 40.5258 38.8355 40.6397C38.8079 40.66 38.7801 40.6802 38.7523 40.7002C38.777 40.7573 38.8013 40.8146 38.8251 40.8719C38.8652 40.9682 38.904 41.0649 38.9416 41.162C39.0907 41.5463 39.2207 41.936 39.3318 42.3298C39.3688 42.4609 39.4037 42.5925 39.4365 42.7244C39.4542 42.7958 39.4713 42.8673 39.4878 42.9389C39.5054 42.8625 39.5237 42.7863 39.5427 42.7102C39.6733 42.1868 39.8371 41.6696 40.034 41.1619ZM38.3044 42.4661C38.3487 42.5008 38.3931 42.5351 38.4377 42.5692C38.4233 42.5179 38.4084 42.4667 38.3933 42.4156C38.3689 42.3334 38.3435 42.2513 38.3173 42.1694C38.2139 41.8463 38.0966 41.5267 37.9653 41.2113C37.9366 41.228 37.9078 41.2446 37.8789 41.261C37.7141 41.3548 37.5463 41.444 37.3756 41.5285C37.3453 41.5435 37.315 41.5583 37.2845 41.573C37.5444 41.8266 37.8129 42.0667 38.089 42.2932C38.1603 42.3517 38.2321 42.4094 38.3044 42.4661ZM41.1343 20.8797C40.7982 21.0109 40.4663 21.1558 40.1397 21.3146C40.1365 21.2817 40.1335 21.2489 40.1305 21.216C40.1304 21.214 40.1302 21.2119 40.13 21.2099C40.1205 21.1027 40.1125 20.9954 40.1059 20.888C40.1029 20.8393 40.1002 20.7905 40.0977 20.7418C40.0122 20.7377 39.9267 20.7345 39.8411 20.7321C39.5201 20.7233 39.1987 20.7265 38.8779 20.7418C38.8585 21.1333 38.8201 21.524 38.7628 21.9126C38.7532 21.9773 38.7431 22.0419 38.7325 22.1065C38.4366 22.2974 38.1466 22.501 37.8635 22.7172C37.4345 23.0448 37.0211 23.4014 36.6261 23.7872C36.6189 23.7942 36.6117 23.8012 36.6045 23.8083C36.5255 23.8857 36.4478 23.9639 36.3712 24.0428C36.3361 24.0301 36.301 24.0176 36.2657 24.0053C35.2449 23.6487 34.1456 23.4545 33 23.4545C31.8544 23.4545 30.7551 23.6487 29.7343 24.0053C29.699 24.0176 29.6639 24.0301 29.6288 24.0428C29.5522 23.9639 29.4745 23.8857 29.3955 23.8083C29.3883 23.8012 29.3811 23.7942 29.3739 23.7872C28.9789 23.4015 28.5655 23.0448 28.1365 22.7172C27.8534 22.501 27.5634 22.2974 27.2675 22.1065C27.2569 22.0419 27.2468 21.9773 27.2373 21.9126C27.1799 21.524 27.1415 21.1333 27.1221 20.7418C26.8013 20.7265 26.4799 20.7233 26.1589 20.7321C26.0733 20.7345 25.9878 20.7377 25.9023 20.7418C25.8999 20.7905 25.8971 20.8393 25.8941 20.888C25.8875 20.9954 25.8795 21.1027 25.87 21.2099C25.8698 21.2119 25.8696 21.214 25.8695 21.216C25.8665 21.2489 25.8635 21.2817 25.8603 21.3146C25.5337 21.1558 25.2018 21.0109 24.8657 20.8797C24.8007 20.8544 24.7355 20.8296 24.6703 20.8053C24.1462 20.6101 23.6121 20.4483 23.0716 20.3197C23.0036 20.3035 22.9354 20.2879 22.8672 20.2727C22.9354 20.2576 23.0036 20.2419 23.0717 20.2257C23.6122 20.0972 24.1462 19.9353 24.6703 19.7402C26.393 19.0988 28.0085 18.0977 29.3955 16.7372C29.3971 16.7356 29.3987 16.734 29.4003 16.7325C30.7826 15.3753 31.8005 13.7954 32.4538 12.1108C32.6525 11.5985 32.8174 11.0766 32.9487 10.5483C32.9664 10.4769 32.9835 10.4054 33 10.3338C33.0165 10.4054 33.0336 10.4769 33.0513 10.5483C33.1826 11.0766 33.3475 11.5985 33.5462 12.1108C34.1995 13.7954 35.2174 15.3753 36.5997 16.7325C36.6013 16.734 36.6029 16.7356 36.6045 16.7372C37.9916 18.0977 39.607 19.0988 41.3297 19.7402C41.8538 19.9353 42.3878 20.0972 42.9283 20.2257C42.9964 20.2419 43.0646 20.2576 43.1328 20.2727C43.0646 20.2879 42.9964 20.3035 42.9284 20.3197C42.3879 20.4483 41.8538 20.6101 41.3298 20.8053C41.2645 20.8296 41.1993 20.8544 41.1343 20.8797ZM27.6956 23.5339C27.6513 23.4992 27.6069 23.4649 27.5623 23.4308C27.5768 23.4821 27.5916 23.5333 27.6067 23.5844C27.6312 23.6667 27.6565 23.7487 27.6827 23.8306C27.7861 24.1537 27.9034 24.4733 28.0347 24.7887C28.0634 24.772 28.0922 24.7554 28.1211 24.739C28.2859 24.6452 28.4537 24.556 28.6244 24.4715C28.6547 24.4565 28.685 24.4417 28.7155 24.427C28.4556 24.1734 28.1871 23.9333 27.911 23.7068C27.8397 23.6483 27.7679 23.5906 27.6956 23.5339ZM38.3173 23.8306C38.2139 24.1537 38.0966 24.4733 37.9653 24.7887C37.9366 24.772 37.9078 24.7554 37.8789 24.739C37.7141 24.6452 37.5463 24.556 37.3756 24.4715C37.3453 24.4565 37.315 24.4417 37.2845 24.427C37.5444 24.1734 37.8129 23.9333 38.089 23.7068C38.1603 23.6483 38.2321 23.5906 38.3044 23.5339C38.3487 23.4992 38.3931 23.4649 38.4377 23.4308C38.4233 23.4821 38.4084 23.5333 38.3933 23.5844C38.3689 23.6666 38.3435 23.7487 38.3173 23.8306ZM27.6956 42.4661C27.6513 42.5008 27.6069 42.5351 27.5623 42.5692C27.5768 42.5179 27.5916 42.4667 27.6067 42.4156C27.6312 42.3333 27.6565 42.2513 27.6827 42.1694C27.7861 41.8463 27.9034 41.5267 28.0347 41.2113C28.0634 41.228 28.0922 41.2446 28.1211 41.261C28.2859 41.3548 28.4537 41.444 28.6244 41.5285C28.6547 41.5435 28.685 41.5583 28.7155 41.573C28.4556 41.8266 28.1871 42.0667 27.911 42.2932C27.8397 42.3517 27.7679 42.4093 27.6956 42.4661Z" fill="#67FFDB"/>
</g>
</svg>
