<svg width="273" height="29" viewBox="0 0 273 29" fill="none" xmlns="http://www.w3.org/2000/svg">
<path d="M99.3558 27.0261L99.3288 14.6324L99.3018 2.23877H107.709H116.117L116.144 8.44743L116.172 14.6561L120.855 8.44818L125.538 2.24026L133.919 2.23952L142.301 2.23877V14.6591V27.0794H133.947H125.593L125.565 20.8159L125.538 14.5525L120.811 20.8166L116.085 27.0807L107.72 27.0534L99.3558 27.0261Z" fill="#2B2B2B"/>
<path d="M59.2832 11.3016V6.82364V2.3457H77.3236H95.3639V6.82258V11.2994L90.5478 11.3272L85.7317 11.3549L85.7045 19.2712L85.6771 27.1876H77.3229H68.9686V19.2446V11.3016H64.1259H59.2832Z" fill="#2B2B2B"/>
<path d="M0 27.0782V14.6584V2.23877L11.0364 2.26585L22.0728 2.29303L24.9525 7.48534C26.5363 10.3411 27.8598 12.6798 27.8936 12.6822C27.9274 12.6848 29.3366 10.3362 31.0251 7.46327L34.0952 2.23973H44.7202H55.345V14.659V27.0782H47.0433H38.7415L38.736 20.9219C38.7307 15.099 38.7206 14.7796 38.5497 15.026C38.4503 15.1692 36.8072 17.9275 34.8983 21.1557L31.4277 27.0249L27.3925 27.0528L23.3574 27.0807L19.7409 20.9117L16.1246 14.7425L16.0971 20.9104L16.0696 27.0782H8.03482H0Z" fill="#2B2B2B"/>
<path d="M201.339 24.3223C200.634 22.8638 200.032 21.6164 200 21.5504C199.946 21.438 200.018 21.4302 201.107 21.4314L202.271 21.4326L203.067 23.2573C203.504 24.2608 203.88 25.0936 203.9 25.108C203.921 25.1223 204.294 24.3007 204.728 23.2821L205.517 21.4302H206.584C207.17 21.4302 207.65 21.4474 207.65 21.4685C207.65 21.4896 207.03 22.8726 206.272 24.5419C204.201 29.104 204.361 28.9218 202.382 28.9711L201.22 29V28.134V27.268H201.921C202.829 27.268 202.875 27.4996 201.339 24.3223Z" fill="#2B2B2B"/>
<path d="M227.792 15.6528C224.971 15.724 224.467 15.312 224.467 12.938V11.8345H225.559H226.652V12.6909C226.652 14.0187 226.996 14.2683 228.601 14.105L229.093 14.0549V12.9447V11.8345H230.186H231.278V14.6598V17.4852H230.186H229.093V16.5526V15.6199L227.792 15.6528Z" fill="#2B2B2B"/>
<path d="M210.311 17.4852V14.6598V11.8345H212.812H215.313V12.6019V13.3692H213.902H212.491V15.4272V17.4852H211.401H210.311Z" fill="#2B2B2B"/>
<path d="M194.363 14.1687C194.364 13.8602 194.382 13.2088 194.405 12.7211L194.446 11.8345H197.483H200.52V14.6509V17.4673H199.441H198.362V15.4159V13.3644H197.356H196.35L196.307 14.4249C196.208 16.8378 195.846 17.3839 194.297 17.4538L193.602 17.4852V16.7191V15.9529L193.824 15.9072C194.2 15.83 194.363 15.3039 194.363 14.1687Z" fill="#2B2B2B"/>
<path d="M176.572 17.4852V14.6598V11.8345H177.661H178.75V12.846V13.8576H180.223H181.696V12.846V11.8345H182.753H183.81V14.6598V17.4852H182.753H181.696V16.4737V15.4621H180.223H178.75V16.4737V17.4852H177.661H176.572Z" fill="#2B2B2B"/>
<path d="M160.5 27.0809V24.2555V21.4302H161.589H162.678V22.4417V23.4533H164.151H165.624V22.4417V21.4302H166.681H167.737V24.2555V27.0809H166.681H165.624V26.0694V25.0578H164.151H162.678V26.0694V27.0809H161.589H160.5Z" fill="#2B2B2B"/>
<path d="M170.641 14.61L169.337 13.2222L168.032 11.8345H169.306H170.579L171.249 12.567L171.92 13.2996L172.594 12.567L173.269 11.8345L174.484 11.838L175.7 11.8414L174.419 13.1959L173.139 14.5504L174.483 16.0178L175.827 17.4852H174.58H173.333L172.594 16.6829L171.856 15.8806L171.121 16.6829L170.387 17.4852L169.169 17.4816L167.951 17.4781L169.296 16.0441L170.641 14.61Z" fill="#2B2B2B"/>
<path fill-rule="evenodd" clip-rule="evenodd" d="M162.235 11.8999C159.947 12.1444 158.727 14.0053 159.628 15.8775C160.73 18.1646 167.126 17.9499 167.141 15.6253L167.142 15.4138H166.097C165.053 15.4138 165.051 15.4141 164.947 15.5757C164.374 16.4683 161.861 16.2152 161.562 15.2348L161.518 15.0884H164.362H167.206V14.7749C167.206 12.572 165.45 11.5565 162.235 11.8999ZM164.331 13.2736C164.668 13.4242 164.824 13.5586 164.948 13.8028L165.039 13.982H163.314C162.034 13.982 161.65 13.9841 161.614 13.873C161.598 13.8239 161.65 13.7525 161.723 13.6488C162.094 13.1165 163.522 12.9112 164.331 13.2736Z" fill="#2B2B2B"/>
<path fill-rule="evenodd" clip-rule="evenodd" d="M234.929 11.8999C232.64 12.1444 231.42 14.0053 232.322 15.8775C233.423 18.1646 239.819 17.9499 239.834 15.6253L239.836 15.4138H238.79C237.746 15.4138 237.744 15.4141 237.64 15.5757C237.067 16.4683 234.554 16.2152 234.256 15.2348L234.211 15.0884H237.055H239.899V14.7749C239.899 12.572 238.144 11.5565 234.929 11.8999ZM237.025 13.2736C237.361 13.4242 237.518 13.5586 237.642 13.8028L237.732 13.9819H236.008C234.727 13.9819 234.344 13.984 234.308 13.873C234.292 13.8238 234.344 13.7525 234.416 13.6488C234.788 13.1165 236.215 12.9112 237.025 13.2736Z" fill="#2B2B2B"/>
<path d="M152.092 13.3692V12.6019V11.8345H155.338H158.584V12.6019V13.3692H157.502H156.42V15.4272V17.4852H155.338H154.256V15.4272V13.3692H153.174H152.092Z" fill="#2B2B2B"/>
<path d="M177.104 22.9649V22.1976V21.4302H180.35H183.596V22.1976V22.9649H182.514H181.432V25.0229V27.0809H180.35H179.268V25.0229V22.9649H178.186H177.104Z" fill="#2B2B2B"/>
<path d="M192.75 22.9649V22.1976V21.4302H195.996H199.242V22.1976V22.9649H198.16H197.078V25.0229V27.0809H195.996H194.914V25.0229V22.9649H193.832H192.75Z" fill="#2B2B2B"/>
<path d="M208.396 22.9649V22.1976V21.4302H211.642H214.888V22.1976V22.9649H213.806H212.724V25.0229V27.0809H211.642H210.56V25.0229V22.9649H209.478H208.396Z" fill="#2B2B2B"/>
<path d="M234.917 0.495026C234.326 2.30044 230.803 2.1534 230.614 0.315448L230.581 0L231.372 0.00272296L232.162 0.00537614L232.291 0.229639C232.534 0.651843 233.106 0.6413 233.33 0.210508L233.44 0.000907699L234.222 0.000418958C235.094 -6.97842e-05 235.081 -0.0091464 234.917 0.495026Z" fill="#2B2B2B"/>
<path d="M228.938 7.8897V5.06198V2.23425H230.023H231.109V3.99673V5.75913L232.722 3.99673L234.335 2.23425H235.468H236.601V5.06198V7.8897H235.515H234.429V6.09232V4.29493L232.785 6.09232L231.14 7.8897H230.039H228.938Z" fill="#2B2B2B"/>
<path d="M271.316 10.0907C270.726 11.8961 267.203 11.7491 267.013 9.91115L266.981 9.5957L267.771 9.59843L268.562 9.60108L268.691 9.82534C268.933 10.2475 269.506 10.237 269.73 9.80621L269.839 9.59661L270.621 9.59612C271.494 9.59563 271.481 9.58656 271.316 10.0907Z" fill="#2B2B2B"/>
<path d="M265.337 17.4854V14.6577V11.83H266.423H267.508V13.5924V15.3548L269.121 13.5924L270.734 11.83H271.867H273V14.6577V17.4854H271.914H270.829V15.688V13.8906L269.184 15.688L267.539 17.4854H266.438H265.337Z" fill="#2B2B2B"/>
<path d="M220.528 7.8895V5.06414V2.23877H221.614H222.7V3.99977V5.76071L224.312 3.99977L225.925 2.23877H227.058H228.191V5.06414V7.8895H227.106H226.02V6.09362V4.29773L224.375 6.09362L222.731 7.8895H221.629H220.528Z" fill="#2B2B2B"/>
<path d="M152.092 27.0809V24.2555V21.4302H153.177H154.263V23.1912V24.9521L155.876 23.1912L157.489 21.4302H158.622H159.755V24.2555V27.0809H158.669H157.584V25.285V23.4891L155.939 25.285L154.294 27.0809H153.193H152.092Z" fill="#2B2B2B"/>
<path d="M184.342 27.0809V24.2555V21.4302H185.427H186.513V23.1912V24.9521L188.126 23.1912L189.739 21.4302H190.872H192.005V24.2555V27.0809H190.919H189.834V25.285V23.4891L188.189 25.285L186.544 27.0809H185.443H184.342Z" fill="#2B2B2B"/>
<path d="M256.929 17.4852V14.6598V11.8345H258.014H259.1V13.5955V15.3564L260.713 13.5955L262.326 11.8345H263.459H264.592V14.6598V17.4852H263.506H262.421V15.6893V13.8934L260.776 15.6893L259.131 17.4852H258.03H256.929Z" fill="#2B2B2B"/>
<path d="M216.059 17.4852V14.6598V11.8345H217.144H218.23V13.5955V15.3564L219.843 13.5955L221.456 11.8345H222.589H223.722V14.6598V17.4852H222.636H221.551V15.6893V13.8934L219.906 15.6893L218.261 17.4852H217.16H216.059Z" fill="#2B2B2B"/>
<path fill-rule="evenodd" clip-rule="evenodd" d="M196.475 7.88951V5.0641V2.23877L199.19 2.26616C202.054 2.29515 202.267 2.31739 202.772 2.64162C203.566 3.14987 203.341 4.46743 202.418 4.72096C202.189 4.78374 202.215 4.85458 202.499 4.94773C203.646 5.3241 203.86 6.78828 202.861 7.42937C202.26 7.81436 202.129 7.82972 199.19 7.8608L196.475 7.88951ZM201.291 5.99092C201.275 5.80489 201.226 5.73412 201.048 5.63693C200.863 5.5353 200.646 5.51535 199.73 5.51528L198.635 5.51514V6.07128V6.62742H199.553C200.961 6.62742 201.335 6.49068 201.291 5.99092ZM200.874 3.55657C201.118 3.66606 201.119 4.00162 200.877 4.17563C200.734 4.27782 200.528 4.30305 199.67 4.32342L198.635 4.34796V3.88073V3.41357L199.667 3.4459C200.235 3.46363 200.778 3.51347 200.874 3.55657Z" fill="#2B2B2B"/>
<path fill-rule="evenodd" clip-rule="evenodd" d="M190.299 2.31312C188.022 2.57983 186.863 4.30271 187.699 6.17583C188.68 8.37159 194.324 8.4911 195.371 6.33831C196.664 3.68173 194.342 1.83946 190.299 2.31312ZM192.635 3.85296C193.412 4.20244 193.676 5.04256 193.225 5.73224C192.602 6.68533 190.318 6.58687 189.804 5.58479C189.141 4.28981 191.033 3.13249 192.635 3.85296Z" fill="#2B2B2B"/>
<path fill-rule="evenodd" clip-rule="evenodd" d="M187.426 11.9088C185.149 12.1755 183.99 13.8984 184.826 15.7715C185.807 17.9673 191.451 18.0868 192.498 15.934C193.791 13.2774 191.469 11.4352 187.426 11.9088ZM189.762 13.4487C190.539 13.7981 190.803 14.6383 190.352 15.3279C189.729 16.281 187.445 16.1826 186.931 15.1805C186.268 13.8855 188.16 12.7282 189.762 13.4487Z" fill="#2B2B2B"/>
<path fill-rule="evenodd" clip-rule="evenodd" d="M204.136 11.9088C201.859 12.1755 200.7 13.8984 201.536 15.7715C202.517 17.9673 208.161 18.0868 209.208 15.934C210.501 13.2774 208.179 11.4352 204.136 11.9088ZM206.471 13.4487C207.248 13.7981 207.512 14.6383 207.061 15.3279C206.438 16.281 204.154 16.1826 203.64 15.1805C202.977 13.8855 204.869 12.7282 206.471 13.4487Z" fill="#2B2B2B"/>
<path fill-rule="evenodd" clip-rule="evenodd" d="M164.969 2.31312C162.692 2.57983 161.533 4.30271 162.369 6.17583C163.35 8.37159 168.994 8.4911 170.041 6.33831C171.334 3.68173 169.012 1.83946 164.969 2.31312ZM167.305 3.85296C168.082 4.20244 168.346 5.04256 167.895 5.73224C167.272 6.68533 164.987 6.58687 164.474 5.58479C163.811 4.28981 165.703 3.13249 167.305 3.85296Z" fill="#2B2B2B"/>
<path d="M179.765 7.8895V5.06414V2.23877H180.854H181.943V3.33669V4.43467L182.952 3.33669L183.962 2.23877L185.178 2.24009L186.395 2.24135L185.188 3.51325L183.982 4.78509L185.333 6.30513C186.075 7.14123 186.683 7.83969 186.683 7.85734C186.683 7.87506 186.113 7.88817 185.418 7.88657L184.153 7.88371L183.064 6.62136L181.975 5.35902L181.957 6.6243L181.94 7.8895H180.852H179.765Z" fill="#2B2B2B"/>
<path d="M212.865 7.8895V5.06414V2.23877H213.954H215.043V3.33669V4.43467L216.053 3.33669L217.062 2.23877L218.279 2.24009L219.495 2.24135L218.289 3.51325L217.083 4.78509L218.433 6.30513C219.176 7.14123 219.783 7.83969 219.783 7.85734C219.783 7.87506 219.214 7.88817 218.518 7.88657L217.253 7.88371L216.164 6.62136L215.075 5.35902L215.058 6.6243L215.04 7.8895H213.953H212.865Z" fill="#2B2B2B"/>
<path d="M249.266 17.4852V14.6598V11.8345H250.355H251.444V12.9324V14.0304L252.453 12.9324L253.463 11.8345L254.679 11.8358L255.895 11.8371L254.689 13.109L253.483 14.3808L254.834 15.9008C255.576 16.7369 256.184 17.4354 256.184 17.453C256.184 17.4708 255.614 17.4839 254.919 17.4823L253.654 17.4794L252.565 16.2171L251.476 14.9547L251.458 16.22L251.441 17.4852H250.353H249.266Z" fill="#2B2B2B"/>
<path d="M171.434 6.23418C170.57 4.36714 171.711 2.57135 173.927 2.31089C176.804 1.97277 179.016 2.85284 179.02 4.3365L179.021 4.58H177.94H176.859L176.704 4.33857C175.69 2.76122 172.83 3.90097 173.533 5.60248C173.983 6.69139 176.773 6.67334 176.773 5.58151C176.773 5.50508 176.968 5.4891 177.897 5.4891H179.021V5.70482C179.021 8.28166 172.589 8.73043 171.434 6.23418Z" fill="#2B2B2B"/>
<path d="M204.533 6.23418C203.669 4.36714 204.811 2.57135 207.027 2.31089C209.903 1.97277 212.116 2.85284 212.12 4.3365L212.12 4.58H211.039H209.959L209.803 4.33857C208.789 2.76122 205.93 3.90097 206.633 5.60248C207.083 6.69139 209.873 6.67334 209.873 5.58151C209.873 5.50508 210.067 5.4891 210.997 5.4891H212.12V5.70482C212.12 8.28166 205.688 8.73043 204.533 6.23418Z" fill="#2B2B2B"/>
<path d="M168.772 25.4256C167.908 23.5586 169.049 21.7628 171.265 21.5023C174.142 21.1642 176.354 22.0443 176.358 23.5279L176.358 23.7714H175.278H174.197L174.042 23.53C173.027 21.9526 170.168 23.0924 170.871 24.7939C171.321 25.8828 174.111 25.8647 174.111 24.7729C174.111 24.6965 174.306 24.6805 175.235 24.6805H176.358V24.8962C176.358 27.4731 169.927 27.9218 168.772 25.4256Z" fill="#2B2B2B"/>
<path d="M240.934 15.8299C240.07 13.9628 241.211 12.1671 243.427 11.9066C246.304 11.5685 248.516 12.4485 248.52 13.9322L248.521 14.1757H247.44H246.359L246.204 13.9343C245.19 12.3569 242.33 13.4967 243.033 15.1982C243.483 16.2871 246.273 16.269 246.273 15.1772C246.273 15.1008 246.468 15.0848 247.397 15.0848H248.521V15.3005C248.521 17.8774 242.089 18.3261 240.934 15.8299Z" fill="#2B2B2B"/>
<path d="M152.305 7.88434V5.06156V2.23877H153.615H154.925L155.876 3.84058C156.4 4.72164 156.843 5.44072 156.86 5.43855C156.878 5.43639 157.325 4.7162 157.855 3.83807L158.817 2.24149L160.084 2.24009L161.351 2.23877V5.06156V7.88434H160.293H159.234V6.31202C159.234 5.44643 159.209 4.75642 159.179 4.77691C159.148 4.7974 158.711 5.50609 158.207 6.35181L157.291 7.8895L156.744 7.8695L156.197 7.84949L155.261 6.26643L154.326 4.6833L154.309 6.28386L154.291 7.88434H153.298H152.305Z" fill="#2B2B2B"/>
</svg>
