<svg width="40" height="40" viewBox="0 0 40 40" fill="none" xmlns="http://www.w3.org/2000/svg">
<path fill-rule="evenodd" clip-rule="evenodd" d="M29.0004 24.9201V27.9201C29.0027 28.4832 28.7675 29.0213 28.3525 29.402C27.9375 29.7827 27.3813 29.9708 26.8204 29.9201C23.7433 29.5857 20.7874 28.5342 18.1904 26.8501C15.7743 25.3148 13.7258 23.2663 12.1904 20.8501C10.5004 18.2413 9.44867 15.2711 9.12043 12.1801C9.0699 11.621 9.2567 11.0664 9.63519 10.6517C10.0137 10.2371 10.549 10.0006 11.1104 10.0001H14.1104C15.1143 9.99022 15.9699 10.7261 16.1104 11.7201C16.2371 12.6802 16.4719 13.6228 16.8104 14.5301C17.0852 15.261 16.9094 16.0849 16.3604 16.6401L15.0904 17.9101C16.514 20.4136 18.5869 22.4865 21.0904 23.9101L22.3604 22.6401C22.9156 22.0911 23.7396 21.9154 24.4704 22.1901C25.3777 22.5286 26.3204 22.7635 27.2804 22.8901C28.286 23.032 29.0256 23.9049 29.0004 24.9201Z" stroke="#2B2B2B" stroke-width="2" stroke-linecap="round" stroke-linejoin="round"/>
<rect x="0.5" y="0.5" width="39" height="39" stroke="#D8D8D8"/>
</svg>
