<svg width="180" height="171" viewBox="0 0 180 171" fill="none" xmlns="http://www.w3.org/2000/svg">
<rect x="42.2922" y="28.2622" width="128.617" height="74.3181" transform="rotate(20.0911 42.2922 28.2622)" fill="#FF2756" stroke="#2B2B2B" stroke-width="1.20069"/>
<rect x="44.3381" y="32.6651" width="121.751" height="67.4528" transform="rotate(20.0911 44.3381 32.6651)" fill="#FF2756" stroke="#2B2B2B" stroke-width="1.20069"/>
<rect x="46.967" y="37.2832" width="113.638" height="60.5874" transform="rotate(20.0911 46.967 37.2832)" fill="#FF2756" stroke="#2B2B2B" stroke-width="1.20069"/>
<path d="M48.3401 82.9089L57.4663 57.9582L63.268 60.0803C64.8107 60.6446 65.7549 61.4589 66.1007 62.5233C66.4547 63.5653 66.3454 64.8688 65.773 66.4338L60.2163 81.6255C59.006 84.9344 56.9812 86.0695 54.1418 85.031L48.3401 82.9089ZM60.017 62.7315L53.4544 80.6731L54.3599 81.0043C54.9188 81.2088 55.3521 81.2025 55.6596 80.9854C55.9976 80.7542 56.2934 80.292 56.5469 79.599L61.6866 65.5475C61.9483 64.832 62.0316 64.2922 61.9367 63.928C61.8418 63.5637 61.5596 63.2957 61.0901 63.124L60.017 62.7315ZM72.7838 63.5609L63.6576 88.5116L59.868 87.1255L68.9943 62.1748L72.7838 63.5609ZM74.9995 80.9112L72.7861 80.1016L68.9958 90.4642L65.2063 89.0781L74.3325 64.1274L80.3354 66.3231C81.6992 66.8219 82.5643 67.5059 82.9308 68.3751C83.3279 69.2301 83.2565 70.3953 82.7168 71.8709L80.5579 77.7732C79.4457 80.8138 77.5929 81.8598 74.9995 80.9112ZM76.8831 68.9006L74.0987 76.5133L75.0712 76.869C75.6078 77.0653 76.0075 77.0467 76.2703 76.8133C76.5636 76.5657 76.8207 76.1401 77.0415 75.5364L78.538 71.4451C78.7424 70.8861 78.8084 70.4287 78.7358 70.0726C78.6633 69.7165 78.3699 69.4444 77.8557 69.2564L76.8831 68.9006ZM85.5002 68.2122L89.2897 69.5983L81.5741 90.6924L86.2021 92.3851L84.7914 96.2418L76.3739 93.1629L85.5002 68.2122ZM103.293 80.918L98.2023 94.8353C96.7712 98.7479 94.446 100.115 91.2265 98.9377L90.5894 98.7047C87.3252 97.5107 86.4087 94.9575 87.8398 91.045L92.9181 77.1612C94.3165 73.3381 96.6365 72.0194 99.8783 73.2052L100.516 73.4383C102.259 74.0761 103.32 75.0218 103.698 76.2754C104.099 77.5372 103.963 79.0847 103.293 80.918ZM94.2476 93.693L99.4976 79.3397C99.9638 78.0653 99.7608 77.2687 98.8889 76.9497C97.9946 76.6226 97.3144 77.0963 96.8483 78.3706L91.5983 92.7239C91.1321 93.9983 91.3574 94.8031 92.274 95.1384C93.1236 95.4492 93.7815 94.9674 94.2476 93.693ZM97.5958 100.925L106.722 75.9746L111.585 77.7532L108.575 91.5952L115.24 79.0903L119.768 80.7463L110.641 105.697L107.086 104.397L112.987 88.2659L104.806 103.563L103.297 103.011L106.883 86.0334L100.983 102.164L97.5958 100.925ZM118.508 108.574L119.722 103.695L116.939 102.677L114.752 107.2L111.365 105.961L123.543 82.1271L128.036 83.7708L122.163 109.911L118.508 108.574ZM123.048 90.2352L118.703 99.1018L120.681 99.8256L123.048 90.2352Z" fill="white"/>
</svg>
