<svg width="170" height="103" viewBox="0 0 170 103" fill="none" xmlns="http://www.w3.org/2000/svg">
<rect x="2.71684" y="40.6216" width="155.628" height="56.2867" transform="rotate(-12.5353 2.71684 40.6216)" fill="#563AFF" stroke="#2B2B2B" stroke-width="0.594256"/>
<rect x="7.14946" y="42.0984" width="147.617" height="51.4798" transform="rotate(-12.5353 7.14946 42.0984)" fill="#563AFF" stroke="#2B2B2B" stroke-width="0.594256"/>
<rect x="12.3633" y="43.4011" width="138.003" height="46.673" transform="rotate(-12.5353 12.3633 43.4011)" fill="#563AFF" stroke="#2B2B2B" stroke-width="0.594256"/>
<path d="M40.7106 74.5742L34.8974 48.4286L39.993 47.2957L44.9613 60.6845L43.8235 46.444L48.5676 45.3892L54.3808 71.5347L50.6558 72.363L46.8975 55.4597L48.2661 72.8943L46.6848 73.2459L40.5017 56.8818L44.26 73.785L40.7106 74.5742ZM54.6462 65.5013L50.0987 45.0488L54.1401 44.1502L58.7422 64.8488C59.0183 66.0904 59.578 66.6175 60.4214 66.43C61.2882 66.2373 61.5836 65.5201 61.3075 64.2784L56.7054 43.5798L60.7467 42.6813L65.2942 63.1338C66.1849 67.14 64.9669 69.5129 61.6401 70.2526L60.9373 70.4089C57.634 71.1433 55.5369 69.5075 54.6462 65.5013ZM67.008 41.031L67.7459 40.8669C69.3625 40.5075 70.6029 40.6128 71.4672 41.1828C72.3315 41.7528 72.9382 42.8226 73.2872 44.3923L74.2404 48.6796L70.41 49.5312L69.5739 45.7711C69.3447 44.7402 68.8553 44.3082 68.1056 44.4749C67.6604 44.5738 67.3871 44.7821 67.2857 45.0997C67.1842 45.4173 67.2063 45.9041 67.3522 46.5601L67.4616 47.0521C67.6283 47.8018 67.8769 48.4226 68.2076 48.9145C68.5383 49.4065 69.1253 50.0013 69.9688 50.6988L73.2257 53.4044C74.4051 54.3961 75.2577 55.3006 75.7836 56.118C76.3044 56.9119 76.7262 58.0351 77.0491 59.4876L77.2367 60.331C78.143 64.4075 76.886 66.8259 73.4655 67.5865L72.6924 67.7584C69.4593 68.4772 67.4756 67.1849 66.7411 63.8816L65.5769 58.6455L69.5128 57.7704L70.5285 62.3388C70.7994 63.5571 71.3683 64.0698 72.2351 63.8771C72.7036 63.7729 72.9952 63.536 73.1097 63.1663C73.2424 62.768 73.2176 62.1589 73.0353 61.3389L72.9024 60.7415C72.6889 59.781 72.4311 59.0638 72.1291 58.5901C71.827 58.1163 71.2204 57.489 70.3092 56.7082L67.0602 54.0377C66.0006 53.1423 65.2026 52.2626 64.6663 51.3984C64.1481 50.5055 63.7406 49.3914 63.4437 48.056L63.2562 47.2126C62.5009 43.8156 63.7515 41.755 67.008 41.031ZM73.4939 39.8471L84.1067 37.4874L84.9506 41.2827L81.6121 42.025L86.5815 64.3752L82.6456 65.2503L77.6762 42.9001L74.3377 43.6424L73.4939 39.8471ZM96.0406 50.2126L98.5956 61.704L94.6246 62.5869L88.8113 36.4414L92.7824 35.5584L95.1108 46.0307L97.8167 45.4291L95.4883 34.9568L99.4593 34.0739L105.273 60.2194L101.302 61.1023L98.7465 49.611L96.0406 50.2126ZM113.518 58.3861L111.897 53.5835L108.98 54.232L109.582 59.2612L106.033 60.0504L103.417 33.1938L108.126 32.1468L117.348 57.5345L113.518 58.3861ZM107.405 40.3469L108.535 50.2375L110.608 49.7765L107.405 40.3469ZM119.599 57.0341L110.482 31.623L114.524 30.7245L120.316 48.3186L118.143 29.9197L121.903 29.0836L124.413 55.9636L119.599 57.0341ZM122.752 28.895L131.784 26.8869L132.627 30.6822L127.567 31.8074L129.091 38.66L133.062 37.7771L133.945 41.7481L129.973 42.6311L131.653 50.1865L136.925 49.0145L137.808 52.9856L128.565 55.0405L122.752 28.895Z" fill="white"/>
</svg>
